<svg id="Layer_1" data-name="Layer 1" xmlns="http://www.w3.org/2000/svg" viewBox="0 0 60.42 70.61"><defs><style>.cls-1{fill:#12100b;}.cls-2{fill:#333;}.cls-3{fill:none;stroke:#1d1d1b;}.cls-4{fill:#bfbfbf;}.cls-5{fill:#f2f2f2;}</style></defs><path class="cls-1" d="M419.62,274.1l4.59-3.51c.26.73.47,1.33.74,2.07,2.14-2.12,4.17-4.08,6.13-6.1.31-.33.3-1,.43-1.45l-.38-.16c-1.79,1.82-3.58,3.64-5.49,5.6-.19-.83-.3-1.36-.46-2.1l-5.76,5.49Zm-10.28,7.83c2,.76,4.37-.68,5.36-3.2s.19-5.17-1.78-5.92-4.37.68-5.36,3.2S407.37,281.18,409.34,281.93Zm22.16-8.51-5.88,2.4c0-.75-.05-1.28-.07-1.93l-4.78,1.77c-.07,0-.09.18-.18.39l3.92-.78c-.05.76-.09,1.35-.14,2.05C431.46,274.79,431.46,274.79,431.5,273.42Zm-.08,10.84a1.76,1.76,0,0,1,.32-.16,10.69,10.69,0,0,0,1.55-.6c.63-.32,1-1.41,1.44-1.9a5.78,5.78,0,0,1,1.24-1.27c.38-.21.48-.31.46-.46s-.15-.24-.33-.21a1.6,1.6,0,0,0-.45.28l-.21.14.42-.42s.74-.74.88-.91,0-.53-.21-.71-.92-.14-2,.21a4.05,4.05,0,0,0-1.82,1.2,2.84,2.84,0,0,1-.43.39s-.35-.71-.56-.81-.28.42-.28.42a20.82,20.82,0,0,1-.67,2.61,1,1,0,0,1-.43.41l-.47-.8-7.8,2.75c-.71.15-1.32.26-1.69.31a6.72,6.72,0,0,1-2.09-.08l-4.45-1.89-1.57-.48a3.82,3.82,0,0,1-3.18.34,3.42,3.42,0,0,1-2-2.07l-.32-.13a28.1,28.1,0,0,0-5.88,2.49,13.44,13.44,0,0,0-2.47,1.29,3.15,3.15,0,0,1-.31.27c-2.93,1.73-5.4,3.39-5.93,3.68a3.64,3.64,0,0,0-1.92,2.46l.68,5c0,.42.05.83.08,1.2a12.43,12.43,0,0,0,.32,1.74l.43,3.18h.59l.13.34c0,.29,0,.57,0,.81a2.43,2.43,0,0,0,.5,1.62c.21.3.05.56.05.91a.79.79,0,0,1-.3.71c-.2.15.51.3.51.3l.45.05a1.71,1.71,0,0,0,.61.31A2.13,2.13,0,0,0,396,306a1.28,1.28,0,0,0,.26-.35c.3,2.27.62,6.15.74,9.95,0,.94.1,4.37.13,6.11h7.1c.06-3-.17-6,0-8.67.7,1.7,2.1,4.68,2.64,6.28l-1.46,2.39h8.27a5.83,5.83,0,0,0,.41-.64c.62-1.19-2.62-10.55-4.07-14.84a1.19,1.19,0,0,0,.48-1,24,24,0,0,1,.37-3.24c1.06-4.72,2.64-11.8,2.64-11.8s4.07-.57,5.51-.66,3.16-.28,3.16-.28l9.6-4.41Zm-33.09,10.89c-.49,1.49-1.62,5.17-2.35,7.53a5.91,5.91,0,0,1-.67-.9,1.59,1.59,0,0,1-.08-.18c0-.11,0-.23,0-.37l.2,0-.3-8.46c0-.29,0-.54.05-.73l4.67-1.41S399.1,292.79,398.33,295.15Zm21.13-25.1,1.48,1.2c3.25-6.12,2.92-5.72,2.07-6.84-.77,1.74-1.52,3.41-2.32,5.19l-1.32-1.28c-.85,1.71-1.59,3.22-2.34,4.75.07,0,.12.12.2.17C418,272.17,418.68,271.17,419.46,270.05Z" transform="translate(-388.14 -261.45)"/><path class="cls-2" d="M439,284.25a3.37,3.37,0,0,1-1-.88c-1.4.25-2.62,2.7-2.62,2.7a32.94,32.94,0,0,0-2.93,7.44l-1.56-.5-.29.64a21,21,0,0,1-1.63-1.37,2.53,2.53,0,0,0-1.52-.59H425.8c-.24,0-.49,0-.55.16s-.06.33-.21.33-.2.12-.18.25,0,.14.3.29a12.51,12.51,0,0,1,1.61.86c.07.09.33.18.15.26a11.12,11.12,0,0,1-1.52,0c-.13,0-.18.12,0,.28s2,.76,2.53,1a8.64,8.64,0,0,0,1.57.49s-.15.14.08.24l-.43,1,1.82.88-2.43,1.33.42.66c-.3.18-.45.36-1,.73a6.31,6.31,0,0,0-1.61,2.22,3.6,3.6,0,0,0-.53,1.57c-.16.55-.48,1.14-.33,1.37s.55,0,.68-.15a9.49,9.49,0,0,0,.73-1.38c.23-.5.5-.54.85-.78s.41.3.35.52-.2.59-.36,1a.78.78,0,0,0,.24.85c.13.18.27-.31.38-.5s.41-.81.7-1.44.5-1.74.66-2.08a.72.72,0,0,1,.31-.28l.39.61.17,0a36.48,36.48,0,0,1-1.08,4.84c-.22.54.31,1.15.87,1.36.73,6.24,1.05,9.23,1.56,13.69h9.59c-.19-5.87-.36-11.4-.33-13.41a1.37,1.37,0,0,0,.59-.16c3-16,2-21.89.93-24A4,4,0,0,1,439,284.25Z" transform="translate(-388.14 -261.45)"/><path class="cls-2" d="M444.65,275.17c-1.85-1.1-4.55-.1-6,2.26s-1.19,5.16.66,6.27,4.55.1,6-2.25S446.5,276.28,444.65,275.17Z" transform="translate(-388.14 -261.45)"/><rect class="cls-3" x="0.5" y="0.5" width="59.42" height="59.42"/><rect class="cls-4" x="0.21" y="60.21" width="60.01" height="10.4"/><rect class="cls-5" x="49.72" y="59.66" width="10.67" height="10.4"/><path d="M441,329.79v-.94l.85-.76c1.45-1.3,2.15-2,2.16-2.82,0-.54-.31-1-1.08-1a2.49,2.49,0,0,0-1.41.54l-.44-1.1a3.67,3.67,0,0,1,2.16-.68,2,2,0,0,1,2.32,2.07,4.07,4.07,0,0,1-1.76,2.86l-.61.51v0h2.5v1.27Z" transform="translate(-388.14 -261.45)"/></svg>