<svg id="Layer_1" data-name="Layer 1" xmlns="http://www.w3.org/2000/svg" viewBox="0 0 60.48 70.61"><defs><style>.cls-1{fill:#12100b;}.cls-2{fill:#333;}.cls-3{fill:none;stroke:#1d1d1b;}.cls-4{fill:#bfbfbf;}.cls-5{fill:#f2f2f2;}</style></defs><path class="cls-1" d="M416.78,277.55c1.69-1.3,3.38-2.6,5.2-4l.84,2.34c2.43-2.4,4.73-4.62,6.94-6.92.36-.37.35-1.08.5-1.64l-.43-.18-6.23,6.35c-.2-.94-.34-1.54-.52-2.38l-6.53,6.23ZM410,287.74c2.37.12,4.36-2.25,4.46-5.3s-1.74-5.63-4.1-5.75-4.36,2.24-4.45,5.29S407.67,287.61,410,287.74Zm20.22-11-6.67,2.71c0-.84-.05-1.45-.07-2.18l-5.43,2c-.08,0-.1.2-.2.44l4.44-.89c-.06.87-.1,1.53-.15,2.32C430.2,278.32,430.2,278.32,430.25,276.78ZM428.79,290c.08-.26-.2-.34-.25-.4s0-.7-.06-.9a.81.81,0,0,0-.29-.33,1.79,1.79,0,0,1,.34-.26c.28-.18,1.57-.9,1.87-1.08s.25-.34.18-.44-.58-.07-.75,0-1,.37-1.38.49a10.81,10.81,0,0,1-1.9.56,2.57,2.57,0,0,0-1.72-.07c-.79.31-1.19,2.09-1.19,2.09l-.57.68-.36-.32-2.39,3.22-2,2.09a14.4,14.4,0,0,1-4.31-2.56c-1.55-1.19-4-3.44-4.5-3.91-.09-.12-.26-.32-.48-.58a4.75,4.75,0,0,1-2.87-2.7,6,6,0,0,0-3.08.6,21.44,21.44,0,0,0-3.21,2.66c-1.87,1.82-8.48,9-7.81,11.09s1.82,4.82,2.63,6.66c-.54,2-1.09,4.23-1.66,6.65.06.15.37.31.85.47,0,1.23-.2,4-.34,8h11.91c.13-1.67.28-3.51.46-5.72.34.06.49,0,.76-.49.92-4.35,1.32-6.31,4-17l4.24,1.51s2.35.76,3,.92c1.94.53,5.42-4.36,5.42-4.36l2.5-3.17-.89-.93a1.8,1.8,0,0,1,.42-.38,15.6,15.6,0,0,0,2.26-.36c.76-.16.95-.39,1-.65s0-.35-.07-.43S428.71,290.25,428.79,290ZM416.6,273l1.68,1.35c3.68-6.93,3.31-6.47,2.35-7.74-.88,2-1.73,3.85-2.63,5.87L416.49,271l-2.65,5.39c.08.05.14.14.23.19Z" transform="translate(-388.1 -261.43)"/><path class="cls-2" d="M436,287.88c2.27.91,5.11-.71,6.34-3.61s.4-6-1.87-6.9-5.11.71-6.34,3.61S433.71,287,436,287.88Z" transform="translate(-388.1 -261.43)"/><path class="cls-2" d="M442.41,292.63c-.6-1.29-1-2.5-1.41-3.36a5.19,5.19,0,0,0-.8-1.52,4.5,4.5,0,0,1-4.33.8,3.65,3.65,0,0,1-1.24-.83l-.25.09-2,2.76c-4.51,7.94-5.25,19.62-6.65,23.51-.24.62.36,1.3,1,1.55.25,2.11.46,3.89.64,5.49H439c-.06-2.31-.1-4.15-.08-5.18a1.48,1.48,0,0,0,.67-.18c.49-2.66.89-5.07,1.21-7.27,1-.94,2.11-2,3.06-3C445.42,304,443.45,294.87,442.41,292.63Z" transform="translate(-388.1 -261.43)"/><rect class="cls-3" x="0.5" y="0.5" width="59.42" height="59.42"/><rect class="cls-4" x="0.21" y="60.21" width="60.01" height="10.4"/><rect class="cls-5" x="49.8" y="59.7" width="10.67" height="10.4"/><path d="M443,324.56h0l-1.26.6-.25-1.16,1.76-.81h1.27v6.61H443Z" transform="translate(-388.1 -261.43)"/></svg>