<svg id="Layer_1" data-name="Layer 1" xmlns="http://www.w3.org/2000/svg" viewBox="0 0 60.42 70.61"><defs><style>.cls-1,.cls-3,.cls-7{fill:none;}.cls-1,.cls-5,.cls-7{stroke:#1d1d1b;}.cls-1,.cls-3{stroke-miterlimit:10;stroke-width:1.5px;}.cls-2{fill:#12100b;}.cls-3{stroke:#4d4d4d;}.cls-4{fill:#333;}.cls-5{fill:#fff;stroke-width:0.75px;}.cls-6{fill:#5d5757;}.cls-8{fill:#bfbfbf;}.cls-9{fill:#f2f2f2;}</style></defs><path class="cls-1" d="M436.87,278.94" transform="translate(-388.2 -261.45)"/><path class="cls-1" d="M435,280" transform="translate(-388.2 -261.45)"/><path class="cls-1" d="M432.88,281.17" transform="translate(-388.2 -261.45)"/><path class="cls-2" d="M431,284.35" transform="translate(-388.2 -261.45)"/><path class="cls-3" d="M399.77,285" transform="translate(-388.2 -261.45)"/><path class="cls-3" d="M401.66,286.05" transform="translate(-388.2 -261.45)"/><path class="cls-3" d="M436,283.79" transform="translate(-388.2 -261.45)"/><path class="cls-2" d="M403.24,277.72c-.4,2.74-2.43,4.68-4.54,4.33s-3.52-2.85-3.13-5.59,2.43-4.68,4.54-4.33,3.52,2.85,3.13,5.59" transform="translate(-388.2 -261.45)"/><path class="cls-4" d="M430.81,278.22c.39,2.75,2.43,4.7,4.55,4.35s3.53-2.87,3.14-5.62-2.44-4.69-4.56-4.35-3.53,2.87-3.13,5.62" transform="translate(-388.2 -261.45)"/><path class="cls-5" d="M411.87,265.06c-4,0-7.28,2.06-7.28,4.59,0,1.47,1.1,2.77,2.8,3.61l-2.51,4.21,4-3.64a10.77,10.77,0,0,0,3,.4c4,0,7.28-2.05,7.28-4.58S415.89,265.06,411.87,265.06Z" transform="translate(-388.2 -261.45)"/><rect class="cls-6" x="19.87" y="6.67" width="8.27" height="0.9"/><rect class="cls-6" x="19.87" y="8.19" width="8.27" height="0.9"/><rect class="cls-6" x="19.82" y="9.62" width="3.14" height="0.94"/><path class="cls-5" d="M430.48,280.4l-3.92.2c-.77-2-3.64-3.53-7.08-3.53-4,0-7.28,2.06-7.28,4.59s3.26,4.59,7.28,4.59c3.78,0,6.9-1.82,7.25-4.15Z" transform="translate(-388.2 -261.45)"/><rect class="cls-6" x="27.39" y="18.41" width="8.27" height="0.9"/><rect class="cls-6" x="27.39" y="19.93" width="8.27" height="0.9"/><rect class="cls-6" x="27.34" y="21.36" width="3.14" height="0.94"/><path class="cls-4" d="M417.09,295.26a1.77,1.77,0,0,1,.41.05.11.11,0,0,1,.11.12c0,.07-.11.26.2.34s.59-.06.57,0,0,.15.16.24a2.24,2.24,0,0,0,.7.16c.25,0,.37,0,.42.13s0,.24.27.26a1.31,1.31,0,0,0,.61-.05,10.52,10.52,0,0,0,1.36-.57c0,.14,0,.27-.08.41a1.89,1.89,0,0,1-.06.18v0l3.55.81a20.36,20.36,0,0,0,3.58.63c-.06.73-.11,1.42-.16,2-.16,2.19-.21,5.36-.38,7.51,0,.39.41,0,.38.42-.18,2.43-.18,9.41.06,13.89h6.37c.1-4.25.33-6.77.34-6.6a61.16,61.16,0,0,0,.83,6.6h6.56c-.12-2.05-.26-4.1-.38-6.15-.13-2.33-.1-2.21-.22-4.67l-.08-3c.33,0,.46-.47.43-.89-.1-1.44-.23-2.88-.35-4.22,1.67-1.59,5.89-5.82,5.44-7.41s-6.47-11-6.47-11h-.1a5.17,5.17,0,0,0-2.67-2.23c-.71-.27-.83-.27-1-.23a3.46,3.46,0,0,1-2,1.17,3.41,3.41,0,0,1-2.64-.71c-2.63,1.22-3.52,5.84-3.56,7.2-.09,3.29-1.38,3.5-1.38,3.5l-5.9-.68-.08.43h0l0,.35a.89.89,0,0,1-.46-.21,1.39,1.39,0,0,0-.64-.3c-.21-.06-1-.06-1.37-.11s-.79-.1-1.12-.18a2.48,2.48,0,0,0-.76-.09.29.29,0,0,0-.27.36c.06.22.5.48.82.54a5.54,5.54,0,0,0,.82.08c.11,0,.32,0,.32.06a.38.38,0,0,1-.22.3c-.16.08-1.57.68-1.7.77a2.66,2.66,0,0,0-.39.24C416.88,294.8,416.76,295.25,417.09,295.26Zm24.93-.58.77,1.26-.82.8C442,296,442,295.35,442,294.68Z" transform="translate(-388.2 -261.45)"/><path class="cls-2" d="M392,298.21c-.13,2-.18,5.27-.52,8.42,0,.42.09.92.43.9l-.08,3c-.12,2.46-.09,2.33-.23,4.66s-.27,4.45-.41,6.67h6.63a80,80,0,0,0,1.34-9c0-.18-.1,3.88-.14,9h6.28c.27-4.5.29-12.15.5-14.35,0-.39.53,0,.48-.43-.23-2-.57-4.37-.79-6.37,1.26,1.87,2.32,3.42,2.32,3.42l.37-.27a4.56,4.56,0,0,0,.33,1.63,4.62,4.62,0,0,0,.13.92c0,.33.07,1.07.33,1.23,1-.15.15-1.55.57-2.1.57-.2.87,0,1,.39s-.1.46,0,.76.24.15.33.27c-.17.12-.13.37-.15.58.3.19.32.83.73.86.47-.12.48-.55.47-1a10.13,10.13,0,0,0,.07-1.25,11.76,11.76,0,0,1-.52-1.52c-.43-.8-1-1.39-1.45-2.17l.72-.54-.19-.93-1.7-4.38a1,1,0,0,0,.65-.34c.25-.25,1.42-1.14,1.57-1.32s.19-.17.21-.48a.21.21,0,0,0-.26-.24s.59-.34.6-.61-.24-.39-.55-.26-.79.41-1.15.58a5.09,5.09,0,0,1-1.4.23.38.38,0,0,1-.37-.21l.78-.41a1.55,1.55,0,0,0,.49-.73c.09-.22-.07-.23-.07-.23s-.43.12-.71.22l-1.1.41c-1-2.57-1.88-4.91-2.06-5.48-.8-2.52-1.58-3.8-2.29-4.37a10.48,10.48,0,0,0-1.9-1.47,3.47,3.47,0,0,1-2.65.72,3.5,3.5,0,0,1-2-1.18c-.14,0-.26,0-1,.24a4.49,4.49,0,0,0-2.91,3.28,28.55,28.55,0,0,0-1.34,4.33c-.39,2-1.21,5.32-1,7A2.46,2.46,0,0,0,392,298.21Z" transform="translate(-388.2 -261.45)"/><rect class="cls-7" x="0.5" y="0.5" width="59.42" height="59.42"/><rect class="cls-8" x="0.21" y="60.21" width="60.01" height="10.4"/><rect class="cls-9" x="49.6" y="59.66" width="10.67" height="10.4"/><path d="M445.8,326.45c0,2-.83,3.45-2.51,3.45s-2.46-1.54-2.47-3.41.8-3.43,2.51-3.43S445.8,324.64,445.8,326.45Zm-3.43,0c0,1.52.36,2.24.95,2.24s.93-.75.93-2.26-.32-2.24-.94-2.24S442.37,324.94,442.37,326.49Z" transform="translate(-388.2 -261.45)"/></svg>