<svg id="Layer_1" data-name="Layer 1" xmlns="http://www.w3.org/2000/svg" viewBox="0 0 61.4 70.65"><defs><style>.cls-1{fill:none;stroke:#1d1d1b;}.cls-2,.cls-3{fill:#12100b;}.cls-3,.cls-4,.cls-5{fill-rule:evenodd;}.cls-4{fill:#999;}.cls-5{fill:#4d4d4d;}.cls-6{fill:#bfbfbf;}.cls-7{fill:#f2f2f2;}</style></defs><rect class="cls-1" x="0.5" y="0.5" width="59.42" height="59.42"/><path class="cls-2" d="M425.82,277.8c2.57-1.06,5.3-.29,6.08,1.73s-.68,4.5-3.26,5.57-5.3.29-6.08-1.73.68-4.51,3.26-5.57" transform="translate(-387.64 -261.16)"/><path class="cls-3" d="M433.92,288.34" transform="translate(-387.64 -261.16)"/><path class="cls-4" d="M435,314.46c.1-.6-.58-1.32-1.1-1.78a12.5,12.5,0,0,0-4.53-2.43c-.76-.21-1.75-.35-2.22.21l-.18.33a3.59,3.59,0,0,0,.28,2.77,4.42,4.42,0,0,1,.46.8c0,.12-.07.27,0,.37a6.83,6.83,0,0,0,2.51,1.6,3.08,3.08,0,0,0,.93.33c.09,0,.2-.15.34-.19a2.9,2.9,0,0,1,.43,0,3.65,3.65,0,0,0,2.78-1.35A1.39,1.39,0,0,0,435,314.46Z" transform="translate(-387.64 -261.16)"/><path class="cls-5" d="M433.39,312.78a5.35,5.35,0,0,0-.63-.44,4.85,4.85,0,0,0-.57-.41,9.56,9.56,0,0,0-2.91-1.27c-.62-.17-1.25-.25-1.5,0s-.24.39-.14.65a1.22,1.22,0,0,0,.34.56,8.21,8.21,0,0,0,2.45,1.89,5.56,5.56,0,0,0,.85.42l.12,0a9.81,9.81,0,0,0,1.18.41,2.74,2.74,0,0,0,1.64.09.22.22,0,0,0,.09-.07.41.41,0,0,0,.12-.14C434.74,314,433.8,313.13,433.39,312.78Z" transform="translate(-387.64 -261.16)"/><path class="cls-2" d="M430.37,309.91a6.25,6.25,0,0,0-.5-1.83,6.86,6.86,0,0,0-.88-.93c-.18-.21-.47-.54-.44-.73a.06.06,0,0,0,0,0h.1l0-.06.29,0-4.58-21v-1.13c.36-.69.59-1.37.38-1.76a3.76,3.76,0,0,0-.38-.57,3.44,3.44,0,0,0-1.58-2,30.16,30.16,0,0,0-3.67-1.15c-5.24-1.82-12.83-2.1-17.84,2.67-.32.31-1.89,1.47-2.19,1.82s.57.78.34,1.08c-1.53,2.05-2.12,3.9-1.06,6.6s10.93,7.78,10.93,7.78L405,313.86h.55a2.77,2.77,0,0,0-.14,1.83c.23.74,1.48.5,2.63.67s4.39.39,5.71-.16c.28.66,1.49.45,2.61.6,1.37.2,5.06.44,6.06-.35.31-.24.52-1.24,0-1.37a14,14,0,0,0-2.22-.46c-.32,0-.7-.37-1.06-.82h.37S421,301,421.07,298.88c.14-2.37-3.89-6.54-6.25-8.76l1.67-.3,4,.27c.53.92,4.66,16.77,4.66,16.77l1-.16c.07.35.14.76.16,1a4.62,4.62,0,0,0,.23,1.24,5.18,5.18,0,0,1,.14,1.13,3.41,3.41,0,0,1,0,.75s.07.11.14.16a1.24,1.24,0,0,1,.52-.74,1.79,1.79,0,0,1,0-.41c0-.17.28-.37.39-.4s.37-.05.46.16a4.23,4.23,0,0,1,.29,1.14,4.08,4.08,0,0,1-.21,1.05c-.09.27-.12.41.08.48a.39.39,0,0,0,.41,0,1.53,1.53,0,0,0,.19-.33,1.4,1.4,0,0,1,0,.29c0,.11.09.16.21.1a1,1,0,0,0,.3-.33c.05-.11.22-.13.22-.13a2,2,0,0,0,.28-.4,2,2,0,0,0,0-.31v.07l.06,0,.07,0A6.49,6.49,0,0,0,430.37,309.91Zm-15.22-9.54-1.47,13.4h.5a3.53,3.53,0,0,0-.28.53q0,.1-.09.24a11.27,11.27,0,0,0-1.88-.36,1.2,1.2,0,0,1-.68-.4h.47Z" transform="translate(-387.64 -261.16)"/><rect class="cls-6" x="0.2" y="60.24" width="60.01" height="10.4"/><rect class="cls-7" x="50.72" y="60.24" width="10.67" height="10.4"/><path d="M446.36,326.74c0,2-.83,3.45-2.51,3.45s-2.46-1.54-2.47-3.41.8-3.43,2.51-3.43S446.36,324.93,446.36,326.74Zm-3.43,0c0,1.52.36,2.24.95,2.24s.93-.75.93-2.26-.31-2.24-.94-2.24S442.93,325.23,442.93,326.78Z" transform="translate(-387.64 -261.16)"/></svg>