<svg id="Layer_1" data-name="Layer 1" xmlns="http://www.w3.org/2000/svg" viewBox="0 0 61.76 70.65"><defs><style>.cls-1{fill:#12100b;}.cls-2{fill:#13110c;}.cls-3,.cls-6{fill:none;}.cls-3{stroke:#fff;stroke-miterlimit:10;stroke-width:0.85px;}.cls-4{fill:#666;fill-rule:evenodd;}.cls-5{fill:#4d4d4d;}.cls-6{stroke:#1d1d1b;}.cls-7{fill:#bfbfbf;}.cls-8{fill:#f2f2f2;}</style></defs><path class="cls-1" d="M427.19,269.87c.82,1.57.49,3.33-.73,3.95s-2.89-.17-3.71-1.73-.5-3.33.73-3.94,2.88.16,3.71,1.72" transform="translate(-387.46 -261.16)"/><path class="cls-2" d="M428.45,280s1.74,5.85,1.9,7.22c.09.83-2.21-7.83-2.21-7.83" transform="translate(-387.46 -261.16)"/><path class="cls-3" d="M428.45,280s1.74,5.85,1.9,7.22c.09.83-2.21-7.83-2.21-7.83" transform="translate(-387.46 -261.16)"/><path class="cls-1" d="M412.46,284.3c1.05-.72,2.23-.84,2.62-.27.24.35.53.81.1,1.1-.15.1.21.05-.15.1l-.51.17a8.32,8.32,0,0,1-1.43.56c-1,.07-.62-.28-.24-.52-1.29.28-1.06.92-1.49.66-.6-.36,0-1.07,1.1-1.8" transform="translate(-387.46 -261.16)"/><path class="cls-4" d="M388.77,301.75v4.59a.93.93,0,0,0,.87,1h16.54a.93.93,0,0,0,.87-1V301.6a.93.93,0,0,1,.87-1h1.25a.93.93,0,0,0,.87-1s0-3.08,0-4.93-.4-2.68-1.56-2.65c-3.25.08-6.51,0-9.76,0H388.11v8.68A1,1,0,0,1,388.77,301.75Zm22.48.49h-2.07a.91.91,0,0,0-.84,1v4.48a.94.94,0,0,1-.91,1H388.55a1,1,0,0,1-.44-.12v10.6h.44c.34,0,1.23-.06,1.23-.07l.32-.95.38-1.1a7.64,7.64,0,0,0,.29-.92,7.61,7.61,0,0,1,.85,0h12.63c.48,0,.86,0,.84,0a8.53,8.53,0,0,0,.3.94l.38,1.14a3.84,3.84,0,0,0,.41,1h.71c.34,0,1.24-.07,1.24-.07l.3-1,.4-1.22a4.27,4.27,0,0,0,.26-1.19c0-.1.34-.27.82-.27h1.34a.91.91,0,0,0,1-.83V303.22A1,1,0,0,0,411.25,302.24Z" transform="translate(-387.46 -261.16)"/><path class="cls-1" d="M441.94,285a3,3,0,0,0-2.07-.43l.13-.3-7.1-9.15a4,4,0,0,0-.87-.93,9.06,9.06,0,0,0-3.83-1.54l-.17.12a2.18,2.18,0,0,1-1.22,1.45,2,2,0,0,1-1.09.14l0,0a.9.9,0,0,0-.47.19l0,0-10.62,8.82.44,2s6.2-2.73,9.85-6a65.62,65.62,0,0,1-.35,8.37c0,.61.32.31.32.39-.13,1.58-.19,1.88-.19,1.88a71.09,71.09,0,0,0-.42,7.83c.49,2.1,1.7,8.95,1.74,9.34l.22,0c-.18.33-.37.59-.57.65a5.15,5.15,0,0,0-1.59.71c-.33.32-.21.39-.06.65.41.7,3.9,0,4.89-.39.83-.31,1.81-.35,1.85-.94a2.21,2.21,0,0,0-.41-1.35l-.11-.13,0,0c-.42-2.48-1.52-6.51-2.1-9-.07-.31.86-4.36.81-4.89.09.86-.38,4.82.09,5.83,1.06,2.25,2.9,4.06,3.54,6.54,0,.09.44,0,.46.08a6.06,6.06,0,0,1,.18,1.94,3.28,3.28,0,0,0-.08.87.81.81,0,0,0,.45.58,1.9,1.9,0,0,0,2-1,14.37,14.37,0,0,0,.45-1.83,8.74,8.74,0,0,1,.23-.94l.06-.53c-.06-.12.13-.23.06-.35-1.06-2-2.33-4-3.36-6a1.2,1.2,0,0,1-.15-.61c.1-1,.07-2.08.23-3.06.11-.7.42-5.09.72-6.08.05-.17.21.23.22-.54a46.57,46.57,0,0,0-1.26-7.82c2.84,3.05,6.36,6.58,6.36,6.58l.05-.12.1.07c.16.08-.21.07.16.08l.51.13a7.51,7.51,0,0,0,1.48.44c1,0,.6-.33.19-.54,1.31.18,1.56.36,2,.07C444.18,285.87,443.06,285.67,441.94,285Z" transform="translate(-387.46 -261.16)"/><path class="cls-5" d="M446.92,286.24H436.84v1h.74v1.71l-.55.55V290h1.37s-.07,14.6-1,18.38c.08.37.3,1,.9,1s.74-.67.74-.67l2.11-19h1.58c-.08,1.9-.69,15.47-1.1,17.19-.15,1,.15,1,.45,1s1-.07,1-.07,1.19-9.94,1.34-12.61c.12-2.27.39-4.84.47-5.55h2Z" transform="translate(-387.46 -261.16)"/><rect class="cls-6" x="0.5" y="0.5" width="59.42" height="59.42"/><rect class="cls-7" x="0.21" y="60.24" width="60.01" height="10.4"/><rect class="cls-8" x="51.08" y="60.24" width="10.67" height="10.4"/><path d="M441.66,330.08v-.94l.85-.76c1.45-1.31,2.15-2.05,2.16-2.82,0-.54-.31-1-1.07-1a2.52,2.52,0,0,0-1.42.54l-.44-1.1a3.63,3.63,0,0,1,2.16-.68,2,2,0,0,1,2.32,2.07,4.09,4.09,0,0,1-1.76,2.86l-.61.5v0h2.5v1.28Z" transform="translate(-387.46 -261.16)"/></svg>