<svg id="Layer_1" data-name="Layer 1" xmlns="http://www.w3.org/2000/svg" viewBox="0 0 61.88 70.65"><defs><style>.cls-1{fill:none;stroke:#1d1d1b;}.cls-2{fill:#999;}.cls-2,.cls-3,.cls-4,.cls-6,.cls-7,.cls-8,.cls-9{fill-rule:evenodd;}.cls-3{fill:gray;}.cls-4{fill:#fff;}.cls-5,.cls-6{fill:#12100b;}.cls-11,.cls-7{fill:#f2f2f2;}.cls-8{fill:#2e2e2e;}.cls-9{fill:#666;}.cls-10{fill:#bfbfbf;}</style></defs><rect class="cls-1" x="0.5" y="0.5" width="59.42" height="59.42"/><polygon class="cls-2" points="32.05 14.78 7.48 14.78 7.48 28.01 32.05 27.43 32.05 14.78"/><path class="cls-3" d="M394.55,289.42a34.87,34.87,0,0,0-1.52,4.27c-.29,1.37-2.83,13.84-2.95,14.45a41.59,41.59,0,0,0,.31,7c.34,2.35.17,3.13.64,3.36s18.73.38,18.73.38l16.15-1s.58-4,.7-5.94.46-4.18-.58-6.61-2.72-6.44-4.51-9.74a20.28,20.28,0,0,1-1.83-7.5c-.08-1.33-21.23-1-21.23-1Z" transform="translate(-387.4 -261.16)"/><path class="cls-4" d="M397.86,281a2.29,2.29,0,0,1,1.62-1.42c1.24-.28,13.44-.68,13.44-.68s2.56-.45,3.06,0,.31,1.13-.07,1.92.19,3.75.25,4.54a39.54,39.54,0,0,1-.56,4.36l-3.11.23s-10.9.45-11.46.62a10.89,10.89,0,0,1-1.43.28A2.48,2.48,0,0,1,399,289c.18-1,.87-2.84.93-3.86a2.83,2.83,0,0,0-.93-2.55A4.41,4.41,0,0,1,397.86,281Z" transform="translate(-387.4 -261.16)"/><path class="cls-5" d="M410.1,277.3c-.12,1.74-1.3,3.05-2.65,2.93s-2.33-1.63-2.22-3.37,1.31-3.05,2.65-2.93,2.34,1.63,2.22,3.37" transform="translate(-387.4 -261.16)"/><path class="cls-6" d="M412.65,290.27l.05-2.6a20.75,20.75,0,0,0-1.93-6.25,2.53,2.53,0,0,0-1.54-1.48,2.27,2.27,0,0,1-1.67.79h-.17a2.21,2.21,0,0,1-1.53-.85,3.23,3.23,0,0,0-2.73,1.4,14.33,14.33,0,0,0-1.38,5.77,9,9,0,0,0,1.32,4.31c.38.39,2.13.66,4,.4s4.71.13,5.35,0C412.91,291.66,412.85,291,412.65,290.27Z" transform="translate(-387.4 -261.16)"/><path class="cls-7" d="M394,290.39c2.12-4.27,8.43-4.28,11.62-4.51,1.86-.11,3.48.95,5.25.73,2-.23,4,.56,5.93.67.71,0,1.86-.34,2.48,0,1.24.56,1,2.29,1.35,3.67.28,1.05,1.82,3.21.77,3.48-2.51.64-10,.43-14,.48-3.06,0-5.84-.11-8.84-.11-1.47,0-5.5,1.77-6.11,1.29-1.19-.95,1.57-5,1.79-6.51" transform="translate(-387.4 -261.16)"/><path class="cls-5" d="M411.73,291.65s-.1-.11-.08-.15a1.24,1.24,0,0,0-.06-.37,2.56,2.56,0,0,0-.56-.42c-.13-.08-.41-.29-.46-.32a4.39,4.39,0,0,0-.95-.3c-.24,0-.68-.09-1.09-.13l0-.53-3.84-1.57.4-5.54-1.26-1.67a4.22,4.22,0,0,0-1.7,2.6,18.12,18.12,0,0,0-.24,6.31.07.07,0,0,1,0,.05c0,.3.28.47.56.59l5.79,1.72.08-.33a3,3,0,0,0,.74.41c.39.12.75-.06,1.13.18a2.32,2.32,0,0,0,1,.36c.27-.06.15-.25.15-.25l.25,0s.12,0,.22-.17A.44.44,0,0,0,411.73,291.65Z" transform="translate(-387.4 -261.16)"/><path class="cls-8" d="M441.55,286.68c-.55.1-.61-.28-.81-.53-.24,0-.35-.3-.6-.41a2.3,2.3,0,0,0-1.88.14,1.6,1.6,0,0,0-.53.6c-.25,0-.51-.07-.74-.13.43-1.25,2.32-1.79,3.62-1.08a1.55,1.55,0,0,1,.54.41c0,.05,0,.14.07.2S441.68,286.33,441.55,286.68Z" transform="translate(-387.4 -261.16)"/><path class="cls-8" d="M440.54,286.61a8.6,8.6,0,0,1-2.21,0,1.39,1.39,0,0,1,1.41-.53C440.1,286.14,440.34,286.47,440.54,286.61Z" transform="translate(-387.4 -261.16)"/><path class="cls-8" d="M441.82,294.59c.76-.24,1.26.56,1.07,1.41,0,.2-.45.71-.74.74C441.22,296.81,440.82,294.91,441.82,294.59ZM442,296c.41.06.37-.48.27-.74C441.78,294.94,441.56,295.9,442,296Z" transform="translate(-387.4 -261.16)"/><path class="cls-8" d="M435.12,291.24c.12-.17,0,.11,0,.2a2.8,2.8,0,0,0-.74.67c0,.24.22.22.27.4s-.2-.34-.47-.26-.28.47-.61.53c.29-.14.37-.48.67-.6-.06-.17-.3-.15-.26-.4.13.06.1.29.33.26A8.73,8.73,0,0,0,435.12,291.24Z" transform="translate(-387.4 -261.16)"/><path class="cls-8" d="M436.25,282.53c0,.19.27.16.41.2a15.5,15.5,0,0,0,3.28.6,4,4,0,0,0,2-.33,5,5,0,0,0,.13-1.21,4.1,4.1,0,0,1,2.89-1.08c.19.25.57.34.54.68-.07.58-1.15.4-1.88.73-.35.16-.47.37-.67.47-.19,2.34-.2,4.85-.41,7.18a4.68,4.68,0,0,0,.88.53,5.25,5.25,0,0,1,1.4,1.48c.06.09.09.18.14.26s.12,0,.13.07,0,.15,0,.2a6.1,6.1,0,0,1,.34.54c0,.09,0,.24.07.33a9.22,9.22,0,0,1,.4,3.42,7,7,0,0,1-1.28,3.35,4.13,4.13,0,0,1-1.94,1.55,3.79,3.79,0,0,1-2.48.06s-.11-.12-.14-.13a3.47,3.47,0,0,1-1.07-.6c-.05-.05-.06-.1-.13-.14a4,4,0,0,1-.81-.94,8,8,0,0,1-.8-6.5c-.22.07-.36,0-.47.07l-.2.06c-.07.12-.07.35-.14.54a16.14,16.14,0,0,1-.6,1.54c0,.09-.08.23-.13.34s-.17.45-.27.67-.08.22-.14.33-.08.23-.13.34-.08.22-.13.33a2.87,2.87,0,0,1-.34.81c.19.37,0,.87-.13,1.34-1.4-.15-2.52.2-3.76,0a6.37,6.37,0,0,1-1.07-.47l-1.61-.67c-.18-.08-.36-.13-.53-.2s-.32-.2-.47-.27-.38-.13-.54-.2c-1.43-.62-2.79-1.18-4.15-1.81v-.81c1.49.19,3.38,0,4.69.34a14.47,14.47,0,0,0,.8-2.48c.05-.18.08-.36.13-.54a5.58,5.58,0,0,0,.41-1.47,7.93,7.93,0,0,1,.13-2.41,3.2,3.2,0,0,1,.67-.74,4.07,4.07,0,0,1,1.14-.34c.47-.08,1.28-.16,1.81-.27,1-.18,1.83-.42,2.82-.53.11-1.81.26-3.58.33-5.43a2.33,2.33,0,0,1,1.07-.81,4.53,4.53,0,0,1,1.75-.33c.28.08.63.36.6.67-.06.57-1,.42-1.54.6a2,2,0,0,0-.67.41C436.42,282,436.13,282,436.25,282.53Zm-.47,7.64a1.4,1.4,0,0,1,.61-.81s0-.11.06-.13a3.23,3.23,0,0,1,1.28-.34c.08,0,.18-.11.27-.13s.22,0,.33,0,.18-.11.27-.13c1-.25,2.22-.48,3-.67.14-.28,0-.89.13-1-2,.1-4.28.08-5.76-.67A25.5,25.5,0,0,0,435.78,290.17Zm-.87-2.28c-.73.14-1.88.29-3,.47s-2.08.29-2.35.87c-.06.14,0,.22,0,.4,0,.55-.05,1.09-.13,1.68.46,0,.81-.17,1.27-.2a4.9,4.9,0,0,1,4.29-2.75C434.94,288.22,435.06,287.92,434.91,287.89ZM434,289.3a3.31,3.31,0,0,0-.94.47,3,3,0,0,0-1,.93c0,.05-.2.09-.07.14.89-.25,1.89-.39,2.82-.61a3.52,3.52,0,0,1,.06-1A3.11,3.11,0,0,0,434,289.3Zm7.38,0c-.7.2-1.61.31-2.42.47a4.1,4.1,0,0,0-2,.67,11.19,11.19,0,0,1,1.74.33c.37-.14.57-.47.94-.67a5.63,5.63,0,0,1,1.28-.4c.2-.05.68.19.6-.34C441.54,289.31,441.49,289.29,441.42,289.3Zm-1.81,2a4.33,4.33,0,0,0-.68.67,2.2,2.2,0,0,0-.26.47,6.4,6.4,0,0,0-.87,3.28,6.3,6.3,0,0,0,1.4,4,3.35,3.35,0,0,0,2.35,1.14,2.16,2.16,0,0,0,.94-.2,2.83,2.83,0,0,0,.74-.33,4.37,4.37,0,0,0,.53-.47c.14-.15.14-.12.2-.27s.12-.05.14-.07a6.7,6.7,0,0,0,1.2-3.28,6.47,6.47,0,0,0-.73-3.62,4.6,4.6,0,0,0-.34-.61,8.53,8.53,0,0,0-.74-.73,2.87,2.87,0,0,0-2.07-.81c-.05,0-.08.07-.07.07A2.85,2.85,0,0,0,439.61,291.31Zm-11.2,4.76c.73.18,1.31.52,2,.73a10.19,10.19,0,0,1-.47-1.87,8.75,8.75,0,0,1,.2-2.42c-.28-.06-.59-.12-.87-.2C429,293.58,428.7,294.81,428.41,296.07Zm3.42,1.34c.65.13,1.1.46,1.74.6.39-1.09.93-2,1.34-3.08-.56-.14-.71-.87-.53-1.55-1.17-.17-2.2-.48-3.35-.67A5.57,5.57,0,0,0,431.83,297.41Zm3.22-3.09a.56.56,0,0,0,.33-.67C434.89,293.28,434.64,294.16,435.05,294.32Z" transform="translate(-387.4 -261.16)"/><path class="cls-8" d="M430.94,295.36s.67,3.28,2.89,3.31a4.26,4.26,0,0,0,3.23-1.79l.43.85s-1.84,2-3.83,1.62a4.5,4.5,0,0,1-3.22-2.8C430.18,295.52,430.94,295.36,430.94,295.36Z" transform="translate(-387.4 -261.16)"/><path class="cls-9" d="M390.17,310.57l.57,7.84c6.19.15,18,.5,18,.5l17.52-.34a71.1,71.1,0,0,0,.24-7.79Z" transform="translate(-387.4 -261.16)"/><rect class="cls-10" x="0.19" y="60.24" width="60.01" height="10.4"/><rect class="cls-11" x="51.2" y="60.24" width="10.67" height="10.4"/><path d="M442,328.56a3.48,3.48,0,0,0,1.53.41c.81,0,1.21-.39,1.21-.88,0-.66-.65-1-1.33-1h-.63V326h.61c.52,0,1.17-.21,1.17-.77,0-.39-.31-.69-1-.69a2.82,2.82,0,0,0-1.37.4l-.32-1.12a4.1,4.1,0,0,1,2.05-.5c1.4,0,2.19.74,2.19,1.65a1.57,1.57,0,0,1-1.21,1.53v0a1.66,1.66,0,0,1,1.43,1.62c0,1.16-1,2-2.71,2a4.08,4.08,0,0,1-2-.46Z" transform="translate(-387.4 -261.16)"/></svg>