<svg id="Layer_1" data-name="Layer 1" xmlns="http://www.w3.org/2000/svg" viewBox="0 0 61.57 70.65"><defs><style>.cls-1{fill:none;stroke:#1d1d1b;}.cls-2,.cls-5{fill:#4d4d4d;}.cls-3,.cls-6{fill:#12100b;}.cls-3,.cls-4,.cls-5{fill-rule:evenodd;}.cls-4{fill:#999;}.cls-7{fill:#bfbfbf;}.cls-8{fill:#f2f2f2;}</style></defs><rect class="cls-1" x="0.5" y="0.5" width="59.42" height="59.42"/><path class="cls-2" d="M444.39,315.94h1.75c-.52-1.31-1.4-11.79-1.67-15,.17-.27.26-.32.26-.68a1.28,1.28,0,0,0-1.38-1.35H431.22a67.21,67.21,0,0,0-3.63-20.45l-1.19.17a88.19,88.19,0,0,1,3.13,21,1.55,1.55,0,0,0,0,.31,3.29,3.29,0,0,0,0,.45c.07,10.23-2.23,15.54-2.23,15.54h1.53a52,52,0,0,0,2.39-14.39h11.53a124.78,124.78,0,0,0,1.64,14.39" transform="translate(-387.55 -261.16)"/><path class="cls-3" d="M422.27,291" transform="translate(-387.55 -261.16)"/><path class="cls-3" d="M424.72,289.65" transform="translate(-387.55 -261.16)"/><path class="cls-4" d="M422.76,313.58c.08-.52-.51-1.15-1-1.54a10.72,10.72,0,0,0-3.92-2.11c-.65-.18-1.52-.3-1.92.18l-.15.29a3,3,0,0,0,.24,2.4c.11.24.34.46.39.69s-.05.24,0,.32a5.85,5.85,0,0,0,2.18,1.39,2.65,2.65,0,0,0,.8.28c.08,0,.18-.12.29-.16s.26,0,.38,0a3.2,3.2,0,0,0,2.41-1.16A1.29,1.29,0,0,0,422.76,313.58Z" transform="translate(-387.55 -261.16)"/><path class="cls-5" d="M421.38,312.12a5.71,5.71,0,0,0-.54-.38,4.35,4.35,0,0,0-.5-.35,8,8,0,0,0-2.52-1.1c-.54-.15-1.08-.22-1.3,0a.45.45,0,0,0-.12.57,1.08,1.08,0,0,0,.3.49,7.29,7.29,0,0,0,2.12,1.63,4.1,4.1,0,0,0,.73.36l.11,0a6.5,6.5,0,0,0,1,.35,2.33,2.33,0,0,0,1.42.08.24.24,0,0,0,.08-.06.29.29,0,0,0,.1-.12C422.55,313.14,421.74,312.43,421.38,312.12Z" transform="translate(-387.55 -261.16)"/><path class="cls-6" d="M419.16,309.55a5.61,5.61,0,0,0-.44-1.61,6.26,6.26,0,0,0-.77-.81c-.16-.19-.42-.48-.39-.65,0,0,0,0,0,0h.09l0,0,.26,0-4-18.45v-1c.32-.61.52-1.2.34-1.55a3.41,3.41,0,0,0-.34-.5,3,3,0,0,0-1.39-1.74,24.15,24.15,0,0,0-3.21-1c-4.6-1.6-11.27-1.84-15.66,2.34-.28.27-1.66,1.29-1.93,1.6s.5.68.31.94a5.33,5.33,0,0,0-.94,5.8c1,2.44,9.59,6.83,9.59,6.83L396.92,313h.48a2.48,2.48,0,0,0-.13,1.62c.2.64,1.3.44,2.31.58s3.86.34,5-.14c.25.58,1.31.39,2.3.53,1.2.17,4.44.39,5.32-.31.27-.21.45-1.08,0-1.2a11,11,0,0,0-2-.4c-.28,0-.61-.33-.93-.72h.33s1.22-11.28,1.33-13.1c.12-2.08-3.42-5.74-5.49-7.69l1.47-.27,3.51.24c.47.81,4.09,14.73,4.09,14.73l.91-.14a7.16,7.16,0,0,1,.14.88,4.21,4.21,0,0,0,.2,1.09,4.2,4.2,0,0,1,.12,1,3.24,3.24,0,0,1,0,.66s.06.1.13.14a1.08,1.08,0,0,1,.45-.65,2,2,0,0,1,0-.36c0-.15.25-.33.34-.35s.32,0,.4.14a3.33,3.33,0,0,1,.26,1,4.14,4.14,0,0,1-.18.93c-.08.23-.11.35.06.42a.37.37,0,0,0,.37-.05,2.4,2.4,0,0,0,.16-.29,1.07,1.07,0,0,1,0,.25c0,.1.08.14.18.09a.72.72,0,0,0,.26-.29c.05-.1.2-.11.2-.11a1.71,1.71,0,0,0,.24-.35,1.43,1.43,0,0,0,0-.28v.06l.05,0,.06,0A6.06,6.06,0,0,0,419.16,309.55Zm-13.36-8.38-1.29,11.77H405a3.84,3.84,0,0,0-.25.46,1.42,1.42,0,0,0-.07.22,9.86,9.86,0,0,0-1.66-.32,1.09,1.09,0,0,1-.6-.35h.42Z" transform="translate(-387.55 -261.16)"/><path class="cls-6" d="M427.92,278.91c.09-.92-.82-1.34-2.06-.77a3.26,3.26,0,0,0-1.95,1.89l-.11-.1s-12.34,2.82-12.63,2.76l1,2c.07-.17.91,2.58,1,2.41,5.1-2.14,12.39-5.17,12.39-5.17l-.41-.86,0,0,.49-.39a9.61,9.61,0,0,0,1.44-1.08c.69-.9.12-.74-.35-.5,1.08-1.08.72.17,1.18-.13C428,278.92,427.91,279,427.92,278.91Zm-14,8.15,0,.09-.08-.4Z" transform="translate(-387.55 -261.16)"/><path class="cls-6" d="M415.8,281.19c2.4-.48,4.62.64,4.95,2.51S419.4,287.47,417,288s-4.62-.65-4.95-2.52,1.35-3.77,3.75-4.24" transform="translate(-387.55 -261.16)"/><rect class="cls-7" x="0.21" y="60.24" width="60.01" height="10.4"/><rect class="cls-8" x="50.89" y="60.24" width="10.67" height="10.4"/><path d="M443.53,324.83h0l-1.26.61-.26-1.16,1.76-.82H445v6.62h-1.5Z" transform="translate(-387.55 -261.16)"/></svg>