<svg id="Layer_1" data-name="Layer 1" xmlns="http://www.w3.org/2000/svg" viewBox="0 0 60.42 70.61"><defs><style>.cls-1{fill:#d9d9d9;}.cls-2{fill:#333;}.cls-3{fill:#e3e3e3;}.cls-4{fill:#666;}.cls-5{fill:#2e2e2e;}.cls-6{fill:#545454;}.cls-7{fill:#1a1a1a;}.cls-10,.cls-8{fill:#12100b;}.cls-11,.cls-8{fill-rule:evenodd;}.cls-9{fill:#fff;}.cls-12{fill:none;stroke:#1d1d1b;}.cls-13{fill:#bfbfbf;}.cls-14{fill:#f2f2f2;}</style></defs><polygon class="cls-1" points="59.9 31.7 42.41 31.35 16.52 37.98 16.52 44.04 60.02 44.04 59.9 43.28 59.9 31.7"/><path class="cls-2" d="M436.62,291.06a3.13,3.13,0,0,0,2.25,2.72v4.11c3.16,2.36,6.45-1.14,9.05-2.06v-5.58C445,291.5,439.58,293,436.62,291.06Zm10.68-2.43a12.37,12.37,0,0,0-10.66.75C439.22,290.91,444.69,289.68,447.3,288.63Zm-4.53-8.82a34.16,34.16,0,0,0,5.66.9v-.6A14.4,14.4,0,0,0,442.77,279.81Zm-6.24,10c0,2.25,4.85,1.84,7.18,1.33a27.81,27.81,0,0,0,4.21-1.37v-1C445.1,290,440.07,291.53,436.53,289.8Zm6.2-2.53a17.57,17.57,0,0,1,5.39,1.24c0,1.26-.06,1.91,0,3.2a2.5,2.5,0,0,0,.35-.21V281.13c-1.81-.05-3.88-.69-5.6-.87C442.69,282.68,442.76,285.14,442.73,287.27Z" transform="translate(-388.34 -261.19)"/><rect class="cls-3" x="0.22" y="0.45" width="34.66" height="43.58"/><rect class="cls-2" x="34.43" y="0.47" width="2.11" height="43.56"/><polygon class="cls-4" points="36.47 0.38 45.31 2.69 45.45 39.9 36.39 44.02 36.47 0.38"/><path class="cls-5" d="M433.81,283.7c0,.64-.35,1.16-.78,1.16s-.77-.52-.77-1.16.34-1.16.77-1.16S433.81,283.06,433.81,283.7Z" transform="translate(-388.34 -261.19)"/><path class="cls-6" d="M434.24,283.55c0,.65-.35,1.16-.77,1.16s-.78-.51-.78-1.16.35-1.16.78-1.16S434.24,282.91,434.24,283.55Z" transform="translate(-388.34 -261.19)"/><path class="cls-7" d="M402.4,299.26c1.62,2.75,0,5.31-1.52,5.31s-3.57-2.69-1.78-5.28c1.14-2.53,1.18-5.28,1.52-5.3s.7,2.63,1.78,5.27" transform="translate(-388.34 -261.19)"/><path class="cls-7" d="M406.14,291.22c.88,1.49,0,2.88-.83,2.88a1.81,1.81,0,0,1-1-2.87c.63-1.37.65-2.88.83-2.88s.38,1.43,1,2.87" transform="translate(-388.34 -261.19)"/><path class="cls-7" d="M396.89,290.55c.88,1.5,0,2.89-.83,2.89a1.8,1.8,0,0,1-1-2.87c.62-1.38.64-2.88.83-2.89s.38,1.43,1,2.87" transform="translate(-388.34 -261.19)"/><path class="cls-7" d="M406.23,307.18c.88,1.5,0,2.89-.83,2.89a1.81,1.81,0,0,1-1-2.87c.62-1.38.65-2.88.83-2.89s.38,1.43,1,2.87" transform="translate(-388.34 -261.19)"/><path class="cls-7" d="M397,306.51c.88,1.5,0,2.89-.83,2.89a1.8,1.8,0,0,1-1-2.87c.62-1.38.64-2.88.83-2.89s.38,1.44,1,2.87" transform="translate(-388.34 -261.19)"/><path class="cls-7" d="M393.43,299.31c.88,1.49,0,2.89-.83,2.89a1.81,1.81,0,0,1-1-2.87c.63-1.38.65-2.88.84-2.89s.37,1.43,1,2.87" transform="translate(-388.34 -261.19)"/><path class="cls-7" d="M409.66,299.31c.88,1.49,0,2.89-.83,2.89a1.8,1.8,0,0,1-1-2.87c.62-1.38.64-2.88.83-2.89s.38,1.43,1,2.87" transform="translate(-388.34 -261.19)"/><path class="cls-7" d="M401.61,313.18c.87,1.49,0,2.89-.84,2.89a1.8,1.8,0,0,1-1-2.87c.62-1.38.64-2.88.83-2.89s.38,1.43,1,2.87" transform="translate(-388.34 -261.19)"/><path class="cls-8" d="M422.84,305.17a29.18,29.18,0,0,1,0-4.58c0-.23.3-5.08.47-7.76a.68.68,0,0,0,.4-.5c0-1.09,0-2.15,0-3.18,1.1-2.08,2.29-4.63,2.08-5.63-1.18-5.61-2.3-8.26-3-9.47a2.44,2.44,0,0,0-1-1.21,10.18,10.18,0,0,0-1.51-.64A2.74,2.74,0,0,1,416,272a14.46,14.46,0,0,0-1.81.45c-.47.14-.9.72-1.29,1.53-.92,1.35-2,3.93-3.07,9.76-.21,1.13.93,3.15,2.2,5,.16,1,.29,2.09.36,3.16s.32,1.12.71,1.14c.64,3.71.88,7.49,1.37,10.91l-2.55,9.55.38.1a1.46,1.46,0,0,0,0,.2c-.88,1.77.67,1.83,1.18,2.62,1.12,1.74,6.49,2.64,2.59-1.37a3.61,3.61,0,0,1-.16-.42l.37.1,2.1-8.86a12,12,0,0,0,.28-3.26,19.43,19.43,0,0,0,.67,3.77l2.31,8.66.22,0c0,.09-.07.18-.12.27-3.9,4,1.48,3.11,2.6,1.38.5-.78,2-.86,1.19-2.59l.27-.07Z" transform="translate(-388.34 -261.19)"/><path class="cls-9" d="M422.92,290.67a4.28,4.28,0,0,1-1,1.47h0a1.22,1.22,0,0,1-.62-.16h0l-.09.11c0,.12.72.19.72.19.23,0,.33-.15.53-.38h0a10.51,10.51,0,0,0,.63-1h0c.47-.86,1.81-4,2.4-5.33l-.85,1.86c-.55,1.24-1.21,2.4-1.66,3.24Z" transform="translate(-388.34 -261.19)"/><path class="cls-9" d="M413.86,291.11a4.33,4.33,0,0,0,1.24,1.28h0a1,1,0,0,0,.55-.26l0,0h.07c0,.12-.46.4-.62.45h0c-.23,0-.35-.09-.58-.29h0a8.05,8.05,0,0,1-.79-.9h0c-.6-.77-2.44-3.65-3.23-4.86l1.13,1.69c.75,1.14,1.6,2.18,2.18,2.93Z" transform="translate(-388.34 -261.19)"/><path class="cls-9" d="M416.83,291.45c0-.05.06-.36.1-.41a15,15,0,0,1-.87-1.47c-.41-.86-1-2.05-1.53-3.32l-.77-1.89c.53,1.35,1.75,4.55,2.18,5.43a7.77,7.77,0,0,0,.59,1C416.63,291,416.74,291.38,416.83,291.45Z" transform="translate(-388.34 -261.19)"/><path class="cls-9" d="M420.11,291.26l-.14-.12a6.59,6.59,0,0,0,.52-1.57c.22-.92.56-2.22.77-3.56l.34-2c-.23,1.44-.72,4.82-1,5.77a10.41,10.41,0,0,1-.34,1.14A2.75,2.75,0,0,1,420.11,291.26Z" transform="translate(-388.34 -261.19)"/><path class="cls-10" d="M421.48,269.14c-.29,2.2-1.91,3.77-3.61,3.5s-2.84-2.27-2.54-4.47,1.91-3.77,3.61-3.5,2.84,2.26,2.54,4.47" transform="translate(-388.34 -261.19)"/><path class="cls-11" d="M417.47,295.93a7.26,7.26,0,0,1,.93-1.51c-.26,0-.5.36-.75.42s-.46.52-.71.46-.08-.31-.05-.47c.52-.58,1.68-1.12,1.46-1.86-.46-.17-1.19.16-1.43-.49.26-.27.53-.11.79-.1.41-.14.82-.16,1.22-.26a1.42,1.42,0,0,0,.65,0l.62-1,1.16,1.08a2.52,2.52,0,0,0-.78,1.65c-.17.3-.41.59-.54.89s-.07,1-.61,1.32c-.3-.19,0-.41-.06-.61a1.14,1.14,0,0,0,.09-.62c-.26,0-.31.48-.52.71s-.26.69-.59.7l-.23-.21a7.69,7.69,0,0,0,.52-.92c-.38.19-.56.92-.95,1Z" transform="translate(-388.34 -261.19)"/><path class="cls-9" d="M418.29,296.33a2.19,2.19,0,0,0-.23-.21h0l-.05-.05,0-.06.06-.1h0a.71.71,0,0,1-.4.31h0l0,0-.23-.21h0l.06-.06.08,0-.08,0-.06.06,0,0,0-.06a5.32,5.32,0,0,1,.79-1.31h0a2.47,2.47,0,0,1-.49.33h0c-.2.13-.39.46-.69.47h-.1a.28.28,0,0,1-.18-.26h0a1.08,1.08,0,0,1,.09-.3h0v0l0,0c.5-.54,1.48-1.06,1.46-1.61h0a.5.5,0,0,0,0-.12h0a1.43,1.43,0,0,0-.43,0h0c-.37,0-.8,0-1-.49h0l0-.05,0,0a.56.56,0,0,1,.41-.19h0c.16,0,.31,0,.43.06h0c.41-.13.82-.16,1.21-.25h0l.39,0h0a.69.69,0,0,0,.2,0h0c.2-.32.39-.63.6-.94h0l.06-.09.07.07,1.16,1.09h0l.07.06-.07.06a2.45,2.45,0,0,0-.75,1.6h0v0c-.18.3-.42.6-.55.88h0c-.18.37-.05,1-.64,1.36h0l0,0-.05,0a.34.34,0,0,1-.18-.28h0c0-.16.09-.28.09-.36h0a0,0,0,0,0,0,0h0v0a1.26,1.26,0,0,0,.1-.44h0v0h0a.46.46,0,0,0-.13.2h0a1.83,1.83,0,0,1-.25.45h0c-.18.19-.24.7-.66.74h0l0,0Zm.09-.16c.2,0,.3-.41.49-.67h0a1.84,1.84,0,0,0,.23-.42h0c.07-.15.16-.31.36-.32h0l.05,0h0l0,0v0a.52.52,0,0,1,0,.17h0a1.37,1.37,0,0,1-.1.48h0v0h0c0,.15-.09.28-.08.36h0a.13.13,0,0,0,.05.11h0c.43-.28.33-.81.53-1.26h0c.14-.3.37-.59.54-.88h0a2.59,2.59,0,0,1,.73-1.62h0l-1-1h0l-.56.87h0v0h0a.65.65,0,0,1-.29.07h0c-.14,0-.27,0-.39,0h0c-.41.1-.81.12-1.2.25h0c-.16,0-.31,0-.44,0h0a.37.37,0,0,0-.25.09h0c.22.49.84.22,1.36.39h0v0a.89.89,0,0,1,0,.22h0c0,.72-1,1.2-1.49,1.71h0a2.16,2.16,0,0,0-.08.24h0s0,.05.09.1h0s0,0,0,0h0c.14,0,.37-.28.6-.45h0c.19,0,.42-.41.75-.42h.16l-.07.12a9.13,9.13,0,0,0-.9,1.45h0l.15.13h0c.28-.1.47-.76.88-1h0l.23-.11-.12.23a9.27,9.27,0,0,1-.47.87h0l.14.13Z" transform="translate(-388.34 -261.19)"/><path class="cls-11" d="M419.1,296.37a7.83,7.83,0,0,0-.8-1.58c.25,0,.46.4.71.48s.42.56.67.52.1-.31.08-.47c-.47-.61-1.58-1.25-1.29-2,.47-.13,1.16.25,1.46-.37-.23-.29-.52-.15-.78-.17s-.8-.22-1.2-.36a1.27,1.27,0,0,1-.64-.07c-.19-.34-.36-.67-.54-1l-1.25,1a2.47,2.47,0,0,1,.64,1.72c.15.31.37.62.48.92s0,1,.49,1.37c.32-.17.06-.4.11-.6a1.24,1.24,0,0,1,0-.63c.26,0,.27.51.46.75s.21.71.53.75l.25-.19a8.19,8.19,0,0,1-.44-1c.36.22.48,1,.86,1.08Z" transform="translate(-388.34 -261.19)"/><path class="cls-9" d="M418.18,296.72c-.41-.07-.43-.59-.59-.79h0a1.56,1.56,0,0,1-.21-.48h0a1.11,1.11,0,0,0-.11-.2h0a.41.41,0,0,0,0,.11h0a1.77,1.77,0,0,0,.06.37h0v.08h0c0,.08.05.19.06.33h0a.35.35,0,0,1-.21.3h0l0,0-.05,0c-.56-.39-.37-1-.52-1.41h0c-.11-.28-.32-.6-.47-.92h0v0a2.37,2.37,0,0,0-.61-1.66h0l-.06-.07.07,0,1.24-1h0l.08-.06,0,.09c.18.33.35.66.53,1h0a.55.55,0,0,0,.28.06H418c.38.13.78.19,1.18.35h0l.34,0h0a.59.59,0,0,1,.47.22h0l0,0,0,.05a.72.72,0,0,1-.74.42h0l-.54,0h-.2a.5.5,0,0,0,0,.17h0c0,.54.88,1.12,1.32,1.68h0l0,0v0a2.57,2.57,0,0,1,.06.28h0a.28.28,0,0,1-.2.27h-.08c-.31,0-.48-.38-.67-.54h0a1.84,1.84,0,0,1-.46-.36h0a5.64,5.64,0,0,1,.68,1.37h0l-.08,0,.08,0v.06l0,0-.24.19h0l0,0h0a.81.81,0,0,1-.37-.34h0l.05.09h0l0,.06-.05.05-.24.19h0l0,0Zm-1-1.67c.19,0,.27.19.33.34h0a1.81,1.81,0,0,0,.19.44h0c.17.27.24.67.44.71h0l.15-.12h0c-.16-.31-.28-.61-.4-.91h0l-.1-.24.23.14c.38.25.52.93.79,1h0l.16-.12h0a8.38,8.38,0,0,0-.78-1.51h0l-.07-.13h.15c.34,0,.54.44.73.49h0c.22.2.43.52.57.5h0c.09-.05.09-.07.09-.11h0s0-.13-.06-.23h0c-.41-.53-1.33-1.08-1.35-1.77h0a.66.66,0,0,1,.06-.27h0v0h0a.92.92,0,0,1,.29,0h0l.54,0h0a.54.54,0,0,0,.55-.27h0a.37.37,0,0,0-.29-.11h0l-.34,0h-.08c-.37-.16-.77-.21-1.17-.35h-.29a.8.8,0,0,1-.39-.08h0l0,0v0l-.49-.92h0l-1.09.87h0a2.57,2.57,0,0,1,.6,1.68h0c.14.29.35.6.47.91h0c.16.47,0,1,.42,1.3h0a.13.13,0,0,0,.06-.12h0c0-.08-.05-.19-.06-.33h0a.43.43,0,0,0,0-.05h0a1.39,1.39,0,0,1-.06-.4h0a1.07,1.07,0,0,1,0-.25h0l0-.07Z" transform="translate(-388.34 -261.19)"/><rect class="cls-12" x="0.5" y="0.5" width="59.42" height="59.42"/><rect class="cls-13" x="0.18" y="60.21" width="60.01" height="10.4"/><rect class="cls-14" x="49.32" y="60.19" width="10.67" height="10.4"/><path d="M440.78,330.05v-.94l.84-.76c1.46-1.3,2.16-2,2.17-2.82,0-.54-.31-1-1.08-1a2.46,2.46,0,0,0-1.41.54l-.44-1.1a3.67,3.67,0,0,1,2.16-.68,2.05,2.05,0,0,1,2.32,2.07,4.11,4.11,0,0,1-1.76,2.86l-.61.51v0h2.5v1.27Z" transform="translate(-388.34 -261.19)"/></svg>