<svg id="Layer_1" data-name="Layer 1" xmlns="http://www.w3.org/2000/svg" viewBox="0 0 60.42 70.63"><defs><style>.cls-1{fill:#d9d9d9;}.cls-2{fill:#333;}.cls-3{fill:#e3e3e3;}.cls-4{fill:#1a1a1a;}.cls-5{fill:#666;}.cls-6{fill:#2e2e2e;}.cls-7{fill:#545454;}.cls-10,.cls-8{fill:#12100b;}.cls-11,.cls-8{fill-rule:evenodd;}.cls-9{fill:#fff;}.cls-12{fill:none;stroke:#1d1d1b;}.cls-13{fill:#bfbfbf;}.cls-14{fill:#f2f2f2;}</style></defs><polygon class="cls-1" points="59.93 31.2 42.56 30.86 16.85 37.44 16.85 43.47 60.05 43.47 59.93 42.71 59.93 31.2"/><path class="cls-2" d="M436.74,290.56a3.11,3.11,0,0,0,2.24,2.7v4.09c3.13,2.34,6.4-1.14,9-2.05v-5.55C445.08,291,439.68,292.44,436.74,290.56Zm10.61-2.41a12.29,12.29,0,0,0-10.59.74C439.32,290.42,444.76,289.19,447.35,288.15Zm-4.5-8.76a33.85,33.85,0,0,0,5.62.89v-.6A14.19,14.19,0,0,0,442.85,279.39Zm-6.2,9.93c0,2.22,4.82,1.82,7.13,1.31a26.16,26.16,0,0,0,4.19-1.36v-1C445.17,289.5,440.17,291,436.65,289.32Zm6.16-2.52a17.31,17.31,0,0,1,5.35,1.23c0,1.25-.05,1.89,0,3.18a2.39,2.39,0,0,0,.34-.21V280.7c-1.8-.05-3.85-.68-5.56-.87C442.77,282.24,442.84,284.69,442.81,286.8Z" transform="translate(-388.35 -261.17)"/><rect class="cls-3" x="0.65" y="0.17" width="34.43" height="43.29"/><path class="cls-4" d="M403.63,303.91c2,3.38-.05,6.52-1.87,6.52s-4.39-3.31-2.19-6.48c1.4-3.11,1.46-6.5,1.87-6.52s.86,3.24,2.19,6.48" transform="translate(-388.35 -261.17)"/><path class="cls-4" d="M408.23,296.94c1.08,1.83,0,3.55-1,3.55s-2.39-1.81-1.19-3.53c.76-1.7.79-3.54,1-3.55s.46,1.76,1.19,3.53" transform="translate(-388.35 -261.17)"/><path class="cls-4" d="M396.86,296.12c1.08,1.84,0,3.55-1,3.55s-2.39-1.8-1.19-3.53c.76-1.69.79-3.53,1-3.55s.46,1.76,1.19,3.53" transform="translate(-388.35 -261.17)"/><rect class="cls-2" x="34.64" y="0.18" width="2.09" height="43.27"/><polygon class="cls-5" points="36.66 0.1 45.44 2.4 45.58 39.35 36.58 43.45 36.66 0.1"/><path class="cls-6" d="M433.77,283.25c0,.64-.35,1.15-.77,1.15s-.77-.51-.77-1.15.34-1.15.77-1.15S433.77,282.61,433.77,283.25Z" transform="translate(-388.35 -261.17)"/><path class="cls-7" d="M434.2,283.11c0,.63-.35,1.15-.77,1.15s-.77-.52-.77-1.15.35-1.16.77-1.16S434.2,282.47,434.2,283.11Z" transform="translate(-388.35 -261.17)"/><path class="cls-8" d="M423.09,304.58a28.8,28.8,0,0,1,0-4.55c0-.23.3-5,.47-7.71a.63.63,0,0,0,.39-.5c0-1.08,0-2.13.05-3.16,1.09-2.06,2.27-4.6,2.06-5.59-1.17-5.57-2.28-8.2-3-9.4a2.33,2.33,0,0,0-1-1.2,9.65,9.65,0,0,0-1.5-.64,2.88,2.88,0,0,1-2.48.91,2.85,2.85,0,0,1-1.84-1.16,16,16,0,0,0-1.79.44c-.47.15-.9.72-1.29,1.53-.91,1.34-2,3.9-3,9.7-.21,1.12.92,3.12,2.18,4.92.16,1,.29,2.08.36,3.15s.32,1.11.71,1.13c.63,3.69.86,7.44,1.35,10.84l-2.53,9.48.38.11a1.05,1.05,0,0,0-.05.19c-.87,1.76.67,1.82,1.17,2.6,1.11,1.73,6.45,2.63,2.58-1.36a1.92,1.92,0,0,1-.16-.42l.36.11,2.08-8.81a11.42,11.42,0,0,0,.29-3.24,18.44,18.44,0,0,0,.66,3.75l2.3,8.6.21-.05c0,.09-.07.19-.11.28-3.88,4,1.46,3.08,2.58,1.36.5-.78,2-.85,1.18-2.58l.27-.06Z" transform="translate(-388.35 -261.17)"/><path class="cls-9" d="M423.17,290.18a4.54,4.54,0,0,1-1,1.45h0l-.09,0h.07a1.13,1.13,0,0,1-.61-.15h0l-.09.11c0,.11.72.18.72.18.23,0,.33-.15.52-.38h0a7.9,7.9,0,0,0,.62-1h0c.47-.85,1.8-4,2.39-5.29l-.84,1.84c-.55,1.23-1.21,2.4-1.65,3.23Z" transform="translate(-388.35 -261.17)"/><path class="cls-9" d="M414.17,290.61a4.23,4.23,0,0,0,1.23,1.28h0a1,1,0,0,0,.54-.27l.05,0h.06c0,.12-.45.39-.61.44h0c-.23,0-.35-.09-.58-.29h0a9,9,0,0,1-.78-.89h0c-.6-.76-2.42-3.63-3.21-4.83L412,287.7c.74,1.13,1.58,2.17,2.16,2.91Z" transform="translate(-388.35 -261.17)"/><path class="cls-9" d="M417.12,291c0-.05.06-.36.1-.4a16.34,16.34,0,0,1-.87-1.47c-.41-.85-1-2-1.52-3.29l-.76-1.88c.53,1.34,1.74,4.52,2.17,5.39a8.61,8.61,0,0,0,.58,1C416.92,290.46,417,290.88,417.12,291Z" transform="translate(-388.35 -261.17)"/><path class="cls-9" d="M420.37,290.76l-.13-.12a6,6,0,0,0,.51-1.56c.22-.91.56-2.21.77-3.54l.34-2c-.23,1.43-.72,4.79-.95,5.73a8,8,0,0,1-.34,1.13A1.32,1.32,0,0,1,420.37,290.76Z" transform="translate(-388.35 -261.17)"/><path class="cls-10" d="M421.74,268.78c-.29,2.19-1.9,3.75-3.59,3.49s-2.82-2.26-2.52-4.44,1.9-3.75,3.59-3.48,2.82,2.25,2.52,4.43" transform="translate(-388.35 -261.17)"/><path class="cls-11" d="M417.75,295.4a8.09,8.09,0,0,1,.92-1.5c-.25,0-.49.35-.74.42s-.46.52-.7.45-.08-.31-.05-.47c.52-.57,1.67-1.11,1.45-1.84-.46-.17-1.18.15-1.42-.49.25-.27.52-.11.79-.1s.8-.15,1.21-.26a1.16,1.16,0,0,0,.64,0c.21-.31.41-.63.62-.95l1.15,1.07a2.48,2.48,0,0,0-.77,1.64c-.18.3-.41.59-.55.89s-.07,1-.6,1.31c-.3-.19,0-.41-.06-.61a1.1,1.1,0,0,0,.09-.61c-.26,0-.31.48-.52.7s-.26.69-.58.7l-.22-.21c.19-.31.35-.61.5-.91-.37.19-.55.91-.93,1Z" transform="translate(-388.35 -261.17)"/><path class="cls-9" d="M418.57,295.79l-.22-.2h0l-.06,0,0-.07.06-.09h0a.78.78,0,0,1-.39.31H418l0,0-.22-.21h0l.05-.06.08,0-.08,0-.05.06-.05,0,0-.06a5.64,5.64,0,0,1,.79-1.31h0a1.69,1.69,0,0,1-.49.33h0c-.19.14-.39.46-.68.47h-.1a.3.3,0,0,1-.18-.27h0c0-.13.08-.23.08-.29h0v0h0c.5-.54,1.48-1.05,1.46-1.61h0a.74.74,0,0,0,0-.12h0a1.89,1.89,0,0,0-.43,0h0c-.37,0-.8,0-1-.49h0l0-.05,0,0a.51.51,0,0,1,.41-.18h0c.16,0,.3,0,.42,0h0c.41-.13.82-.15,1.21-.25h0c.14,0,.27,0,.39,0h0a.48.48,0,0,0,.2,0h0c.2-.31.39-.62.6-.93h0l.05-.09.08.07,1.15,1.08h0l.07.06-.07.07a2.39,2.39,0,0,0-.75,1.58h0v0c-.18.3-.41.59-.54.87h0c-.18.37-.05,1-.64,1.36h0l0,0-.05,0a.34.34,0,0,1-.18-.28h0c0-.16.09-.28.09-.36h0v0h0v0a1.17,1.17,0,0,0,.1-.43h0v0h0a.51.51,0,0,0-.13.19h0a1.66,1.66,0,0,1-.25.45h0c-.17.19-.23.7-.65.73h0l0,0Zm.09-.15c.2,0,.29-.41.49-.67h0a1.8,1.8,0,0,0,.23-.42h0c.07-.14.16-.3.35-.31h0s0,0,0,0h0l0,0v0a1,1,0,0,1,0,.17h0a1.28,1.28,0,0,1-.1.47h0v0h0c0,.15-.09.28-.08.36h0s0,.06.06.11h0c.42-.28.32-.8.51-1.25h0c.14-.3.38-.59.54-.87h0a2.54,2.54,0,0,1,.74-1.61h0l-1-1h0l-.56.87h0l0,0h0a.63.63,0,0,1-.29.06h0c-.14,0-.27,0-.38,0h0c-.41.1-.81.13-1.2.25h0c-.16,0-.31-.06-.43-.06h0a.35.35,0,0,0-.25.09h0c.21.49.84.22,1.35.39h0l0,0a.88.88,0,0,1,0,.21h0c0,.73-1,1.2-1.48,1.71h0c0,.1-.09.19-.08.23h0s0,.06.08.11h0c.14,0,.36-.28.59-.45h0c.2,0,.42-.4.74-.42h.17l-.07.12a8.64,8.64,0,0,0-.9,1.44h0l.15.13h0c.28-.1.47-.76.87-1h0l.24-.12-.12.23a9.27,9.27,0,0,1-.47.87h0l.14.13Z" transform="translate(-388.35 -261.17)"/><path class="cls-11" d="M419.37,295.84a7.77,7.77,0,0,0-.79-1.58c.25,0,.46.4.7.48s.42.56.66.51.11-.29.09-.45c-.47-.62-1.57-1.25-1.29-2,.47-.14,1.16.25,1.46-.37-.23-.29-.52-.16-.78-.17-.39-.16-.79-.22-1.19-.35a1.4,1.4,0,0,1-.64-.08l-.53-1-1.24,1a2.51,2.51,0,0,1,.64,1.7c.14.3.36.62.47.92s0,1,.49,1.36c.31-.17.05-.4.1-.6a1.1,1.1,0,0,1,0-.62c.26,0,.27.5.46.74s.2.71.52.75l.24-.19a10.11,10.11,0,0,1-.43-1c.36.22.48,1,.85,1.08Z" transform="translate(-388.35 -261.17)"/><path class="cls-9" d="M418.46,296.18c-.41-.07-.43-.58-.58-.78h0a2,2,0,0,1-.22-.47h0a.4.4,0,0,0-.11-.2h0v.1h0a1.24,1.24,0,0,0,.06.37h0v.05s0,0,0,0h0a2.67,2.67,0,0,1,.06.32h0a.34.34,0,0,1-.2.3h0l0,0,0,0c-.56-.4-.37-1-.53-1.4h0a9.73,9.73,0,0,0-.46-.91h0v0a2.4,2.4,0,0,0-.61-1.65h0l-.06-.06.07-.06,1.23-1h0l.08-.06.05.09.52,1h0a.66.66,0,0,0,.28.05h.33c.38.13.78.18,1.18.34h0l.34,0h0a.56.56,0,0,1,.46.22h0l0,0,0,.05a.74.74,0,0,1-.74.42h0l-.54,0h0l-.19,0h0a.45.45,0,0,0,0,.16h0c0,.54.88,1.12,1.32,1.67h0l0,0v0a1.81,1.81,0,0,1,.06.28h0a.27.27,0,0,1-.2.26h-.08c-.31,0-.47-.37-.66-.52h0a1.87,1.87,0,0,1-.46-.37h0a5.26,5.26,0,0,1,.67,1.37h0l-.08,0,.08,0,0,.05-.05,0-.24.19h0l0,0h0a.84.84,0,0,1-.37-.33h0l.05.09h0l0,.06-.06,0-.23.19h0l0,0Zm-1-1.66c.19,0,.26.19.32.34h0a1.5,1.5,0,0,0,.2.44h0c.17.27.23.66.43.71h0l.15-.13h0c-.16-.3-.28-.6-.4-.89h0l-.1-.24.22.13c.39.25.52.93.8,1.05h0l.15-.12h0a8,8,0,0,0-.77-1.51h0l-.07-.12h.15c.33,0,.53.43.73.48h0c.23.19.43.51.57.49h0c.09-.05.09-.07.09-.1h0c0-.05,0-.14-.06-.24h0c-.4-.53-1.32-1.07-1.34-1.76h0a.75.75,0,0,1,.05-.26h0l0,0h0a.9.9,0,0,1,.28,0h0c.19,0,.37,0,.54,0h0c.25,0,.42,0,.55-.27h0a.37.37,0,0,0-.29-.11h0l-.34,0h-.07c-.38-.15-.77-.21-1.17-.35h-.29a.78.78,0,0,1-.38-.09h0l0,0v0c-.17-.3-.33-.61-.49-.91h0l-1.08.86h0a2.59,2.59,0,0,1,.59,1.67h0a9.76,9.76,0,0,1,.47.91h0c.16.46,0,1,.41,1.28h0c.06,0,.07-.07.07-.11h0c0-.08-.05-.19-.06-.32h0a.13.13,0,0,1,0-.06h0a1.34,1.34,0,0,1-.07-.4h0a.77.77,0,0,1,0-.25h0l0-.06Z" transform="translate(-388.35 -261.17)"/><rect class="cls-12" x="0.5" y="0.5" width="59.42" height="59.42"/><rect class="cls-13" x="0.19" y="60.21" width="60.01" height="10.4"/><rect class="cls-14" x="49.3" y="60.22" width="10.67" height="10.4"/><path d="M442.73,324.82h0l-1.26.6-.25-1.16,1.76-.81h1.27v6.62h-1.5Z" transform="translate(-388.35 -261.17)"/></svg>