<svg id="Layer_1" data-name="Layer 1" xmlns="http://www.w3.org/2000/svg" viewBox="0 0 60.42 70.61"><defs><style>.cls-1{fill:#ccc;}.cls-2,.cls-7{fill:none;}.cls-2{stroke:#fff;stroke-miterlimit:10;stroke-width:0.5px;}.cls-3{fill:#c6c4c3;}.cls-4{fill:#b2b2b2;}.cls-4,.cls-5{fill-rule:evenodd;}.cls-5{fill:#333;}.cls-6{fill:#12100b;}.cls-7{stroke:#1d1d1b;}.cls-8{fill:#bfbfbf;}.cls-9{fill:#f2f2f2;}</style></defs><polygon class="cls-1" points="30.81 39.77 0.73 51.61 0.73 59.42 44.78 59.42 59.79 47.28 30.81 39.77"/><path class="cls-2" d="M403.87,311.42" transform="translate(-388.36 -261.19)"/><path class="cls-3" d="M406.68,317.7" transform="translate(-388.36 -261.19)"/><path class="cls-3" d="M406.68,317.7" transform="translate(-388.36 -261.19)"/><path class="cls-4" d="M437,284.25c-.47.13-1.58-.34-1.36.43C436.11,284.55,437.23,285,437,284.25Z" transform="translate(-388.36 -261.19)"/><path class="cls-5" d="M438.61,297.13c-4.11,1.78-11.46,4-16.63,1.5,0,3.27,7.08,2.68,10.48,1.93a39.49,39.49,0,0,0,6.15-2Z" transform="translate(-388.36 -261.19)"/><path class="cls-5" d="M438.61,299.28c-4.25,1.83-12.18,4-16.51,1.18.09,2.14,1.66,3.29,3.29,4v6c4.61,3.44,9.42-1.67,13.22-3Z" transform="translate(-388.36 -261.19)"/><path class="cls-5" d="M442,285.11c-3.33.78-7.67-.44-10.94-1.07C434.42,283.32,438.91,284.3,442,285.11Zm-5-.86c-.47.13-1.58-.34-1.36.43C436.11,284.55,437.23,285,437,284.25Z" transform="translate(-388.36 -261.19)"/><path class="cls-5" d="M431,294.93a25.87,25.87,0,0,1,7.87,1.81c0,1.84-.08,2.78-.05,4.68,4.35-2.27,3.08-10.54,4-16.08-3.09,1.59-7.9-.25-11.61-.65C431,288.23,431.07,291.83,431,294.93Z" transform="translate(-388.36 -261.19)"/><path class="cls-5" d="M422.14,298c3.76,2.23,11.75.42,15.56-1.1C432.77,294.92,426.22,295.33,422.14,298Z" transform="translate(-388.36 -261.19)"/><path class="cls-6" d="M421.38,271.5c-1.15,1.93-3.28,2.75-4.75,1.82s-1.73-3.23-.59-5.16,3.28-2.74,4.75-1.82,1.74,3.24.59,5.16" transform="translate(-388.36 -261.19)"/><path class="cls-6" d="M423.44,288.82a9.19,9.19,0,0,0-.38-.85c-.29-.34-.6-.42-.88-.83-.45-.3-.91-.48-1.37-.73l.12-.12-2.74-4.56-.24-.82a36.15,36.15,0,0,0-.41-6.75,2.57,2.57,0,0,1-1.31-.39,3,3,0,0,1-1.3-2,1.14,1.14,0,0,0-.95.21,2,2,0,0,0-.83.41,13.11,13.11,0,0,0-3.13,3.29c-1.06,1.49-4.68,7.25-3.95,8.61.41.77,1,1.75,1.61,2.66-.2,1.43-.39,3-.54,4.72a.64.64,0,0,0,.34.2,85.28,85.28,0,0,1-.13,8.9c0,.79-.18,4.18-.17,5,.07,5.37-.3,10.31-.3,10.31h.28a2,2,0,0,0,0,.95c.15.66,1.34.55,2.4.78,1.25.28,4.68.77,5.67.15.3-.19.57-1.05.12-1.21a13.54,13.54,0,0,0-2-.57c-.3,0-.63-.39-.95-.83,0-.15,0-.29,0-.43,1.44.14,3.19.18,3.83-.25.29-.19.53-1,.09-1.17a11.94,11.94,0,0,0-2-.49c-.33,0-.69-.44-1-.91l.21.12s4.34-5.28,6.31-8.27c.65-1-2.06-8.8-2.87-11,.41-.07.66-.14.51-.1,0-2.45.14-4.6.25-6.57l1.7,1.67.27-.28a3.26,3.26,0,0,0,.85,1.09,3.22,3.22,0,0,0,.41.57c.1.22.41.68.64.69.65-.46-.44-1.08-.35-1.59a.54.54,0,0,1,.83-.1c.21.18.09.34.23.52s.21,0,.31.06c-.07.14.05.29.11.44.27,0,.5.43.78.31S423.6,289.1,423.44,288.82Zm-10.67,17.09c.14-2.51.27-4.24.43-6.79.63,1.33,1.26,2.7,1.76,3.95Z" transform="translate(-388.36 -261.19)"/><rect class="cls-7" x="0.5" y="0.5" width="59.42" height="59.42"/><rect class="cls-8" x="0.17" y="60.21" width="60.01" height="10.4"/><rect class="cls-9" x="49.27" y="60.19" width="10.67" height="10.4"/><path d="M445.63,326.71c0,2-.82,3.45-2.5,3.45s-2.47-1.53-2.48-3.41.81-3.43,2.52-3.43S445.63,324.9,445.63,326.71Zm-3.43,0c0,1.52.37,2.24,1,2.24s.92-.75.92-2.26-.31-2.24-.93-2.24S442.2,325.21,442.2,326.75Z" transform="translate(-388.36 -261.19)"/></svg>