<svg id="Layer_1" data-name="Layer 1" xmlns="http://www.w3.org/2000/svg" viewBox="0 0 60.43 70.59"><defs><style>.cls-1,.cls-7{fill:none;}.cls-1,.cls-7,.cls-8{stroke:#1d1d1b;}.cls-2{fill:#fff;}.cls-3{fill:#1d1d1b;}.cls-4{fill:#706f6f;}.cls-5{fill:#5b5755;}.cls-6{fill:#b2b2b2;}.cls-7,.cls-8{stroke-miterlimit:10;stroke-width:0.5px;}.cls-8{fill:#676362;}.cls-9{fill:#12100b;}.cls-10{fill-rule:evenodd;}.cls-11{fill:#bfbfbf;}.cls-12{fill:#f2f2f2;}</style></defs><rect class="cls-1" x="0.5" y="0.5" width="59.42" height="59.42"/><path class="cls-2" d="M418.6,318a2.66,2.66,0,0,1-.87.08h0l0,0h0l-.08-.06a.1.1,0,0,0,0,.14h0c.08.07.16.06.31.06h0a5.43,5.43,0,0,0,.57-.07h0c.47-.08,1.1-.27,1.77-.43h0c-.63.15-1.27.25-1.72.33Z" transform="translate(-388.12 -261.19)"/><path class="cls-3" d="M409.68,280.05a5.14,5.14,0,0,0-.92,0c-.38.06-2.07.43-1.69.81a3.39,3.39,0,0,0,1.12.15l.83-.18.52-.32.27-.44Z" transform="translate(-388.12 -261.19)"/><path class="cls-4" d="M425.86,272.44s3.7-.76,4.11-.06-1.09.5-1,2.08-3.74,7.13-6.36,7.24c-1.84.07-7.49.09-7.49.09l-.39-1,.22-2.05,7.45-.42,3.43-6.09Z" transform="translate(-388.12 -261.19)"/><path class="cls-4" d="M416.64,279.18a1.83,1.83,0,0,1-1.18,0,10.05,10.05,0,0,1-1.53-1l-.71-.62a5.6,5.6,0,0,0-1.57.49,2.73,2.73,0,0,0-.72.82,1.56,1.56,0,0,0,.08,1l.51.59a3.84,3.84,0,0,0,.69.65c.39.16.55-.3.55-.3s0-.26.15-.26.31.25.46.25.87.46,1.11.47a3,3,0,0,0,1.28,0l.86-.26Z" transform="translate(-388.12 -261.19)"/><path class="cls-5" d="M407.07,280.91a.88.88,0,0,0,.42.14,4.78,4.78,0,0,0,1.07,0,1.52,1.52,0,0,0,.92-.41,2.47,2.47,0,0,0,.43-.52,2.9,2.9,0,0,1,.69-.47c.26-.13,1.7-.63,1.7-.63l.78-.27a7.19,7.19,0,0,0,1.47-.65c0-.09-.18-.37-.36-.35s-2.41,1.26-2.57,1.31-1.21.5-1.31.53a.72.72,0,0,0-.3.19,1.92,1.92,0,0,0-.23.25l0,0h0a.09.09,0,0,1,0,.11,1.24,1.24,0,0,1-.28.32c-.46.29-.38.39-1.63.5a2.93,2.93,0,0,1-.6-.06c-.07,0-.14,0-.14-.06s0,0,0,0Z" transform="translate(-388.12 -261.19)"/><path class="cls-4" d="M414.58,280.54a1.31,1.31,0,0,1-1-.27c-.34-.37-.36-.73-.69-.75l-1.21,0-.54-.3s0-.49.29-.48l1.41.09.61,0Z" transform="translate(-388.12 -261.19)"/><path class="cls-6" d="M420.87,282.74l-5.77.05a3.13,3.13,0,0,0,2.92,3.3" transform="translate(-388.12 -261.19)"/><path class="cls-6" d="M418,286.09a3.13,3.13,0,0,0,2.85-3.35" transform="translate(-388.12 -261.19)"/><path class="cls-7" d="M420.87,282.74l-5.77.05a3.13,3.13,0,0,0,2.92,3.3" transform="translate(-388.12 -261.19)"/><path class="cls-7" d="M418,286.09a3.13,3.13,0,0,0,2.85-3.35" transform="translate(-388.12 -261.19)"/><path class="cls-6" d="M421,282.61c0-.18-1.34-.32-2.94-.3s-3.07.17-3.07.35a8.27,8.27,0,0,0,3.08.28,7.33,7.33,0,0,0,2.93-.33" transform="translate(-388.12 -261.19)"/><path class="cls-8" d="M421,282.61c0-.18-1.34-.32-2.94-.3s-3.07.17-3.07.35a8.27,8.27,0,0,0,3.08.28,7.33,7.33,0,0,0,2.93-.33" transform="translate(-388.12 -261.19)"/><path class="cls-4" d="M416.54,286a8.4,8.4,0,0,0,1.26.59l1.74.06a1.59,1.59,0,0,0,.86-.61,3.91,3.91,0,0,1,1.78-1.11c.31,0,.74-.86.74-.86l0-1.18-2.23.62a1.64,1.64,0,0,0-.89.51l-1.11,1.29s-.24.27-.16.42a.6.6,0,0,1-.51.11c-.24-.05-.52-.15-.72-.21s-.63-.12-.71,0A.28.28,0,0,0,416.54,286Z" transform="translate(-388.12 -261.19)"/><path class="cls-4" d="M418.51,285.75s.2.34.35.16l.9-1" transform="translate(-388.12 -261.19)"/><path class="cls-4" d="M418.77,286c-.17,0-.29-.22-.29-.22h0l.06,0,.07.1h0c.05.05.11.1.16.09h0a.08.08,0,0,0,.07,0h0l.89-1h0l0,.05-.89,1h0a.17.17,0,0,1-.12.06Z" transform="translate(-388.12 -261.19)"/><path class="cls-9" d="M423,316.91a14.34,14.34,0,0,0-2.06-.21,2,2,0,0,1-1.07-.57L419,302.66s-.2-4.88-2.56-5.36l-.7-.14a3,3,0,0,0,.1-.3v-.34l-.12-.39a4.59,4.59,0,0,0-1-1.08c-.36-.17-.58,0-1,0a.49.49,0,0,1-.24,0l.18-.25-6.29-4.16-1.74-2.49h0c-1.93-2.85-2.86-5.45-4.46-6.79a2.34,2.34,0,0,1-.58.2,2.91,2.91,0,0,1-2.74-1.1c-.55.42-.86,1.32-.78,2.81.15,2.69.21,3.66.7,9.41a24.6,24.6,0,0,0,1.08,5.6c0,.07.05.13.07.19,0,1.29.55,2.55,2.7,3a6.92,6.92,0,0,0,3.37.12l7.36,0a2.84,2.84,0,0,1,1.21,2.14c0,.95,1.76,13.14,1.76,13.14h0a.06.06,0,0,0,0,0,2.24,2.24,0,0,0,.27,1.53c.36.59,1.41.3,2.47.35,1.24.06,4.56,0,5.26-.75C423.52,317.82,423.49,317,423,316.91Zm-8.27-20-.33-.07.16-.05A.58.58,0,0,1,414.75,297Zm-7.29-1.62a3.78,3.78,0,0,0-.11-.52s0,0,0-.06L410,295.9Z" transform="translate(-388.12 -261.19)"/><path class="cls-9" d="M402.58,277c.41,1.94-.49,3.76-2,4.06s-3.08-1-3.49-3,.49-3.76,2-4.07S402.17,275.09,402.58,277Z" transform="translate(-388.12 -261.19)"/><path class="cls-6" d="M413.1,303.57H413a1.74,1.74,0,0,0-1.38-2.08H399.07a71.07,71.07,0,0,0-3.75-20.94l-1.22.34a92.43,92.43,0,0,1,3.22,22.2v.1a.34.34,0,0,0,0,.1c.11,10.83-2.3,16.36-2.3,16.36h1.57a51.79,51.79,0,0,0,2.46-14.78h12.42c-.16,4.38.09,5.12,1.62,14.05h1.68C414.18,317.32,413.1,303.57,413.1,303.57Z" transform="translate(-388.12 -261.19)"/><path class="cls-4" d="M438.36,282.13c-1.1-2.58-5.8-11.46-8.19-12a5.74,5.74,0,0,0-1.78-.13,2.75,2.75,0,0,1-1.22,1.9,2.63,2.63,0,0,1-1.4.38l.87,4.17.37,2.67-.39,1.05-5.54,3.17,1,2.77,5.62-2.42,1.18,5.47a.92.92,0,0,0,.84.6l.54,0c1.33,12.29,3,23.12,3,23.12l5.09.52s-.46-17.06.38-24.23a2,2,0,0,0,1-.71C440.05,288.05,438.94,283.51,438.36,282.13Z" transform="translate(-388.12 -261.19)"/><path class="cls-4" d="M427.37,266.54c1.18,1.86,1,4.09-.42,5s-3.52.08-4.71-1.78-1-4.09.42-5,3.52-.08,4.71,1.78" transform="translate(-388.12 -261.19)"/><path class="cls-4" d="M430.5,314.11c.44,0,1.38-.36,1.91-.39s1-.78,1.44-1.41l3.7.55a5,5,0,0,1,.31.58A2.42,2.42,0,0,1,438,315c-.2.64-1.27.43-2.26.57-1.18.17-5.18.09-5.46-.79C430.17,314.48,430.06,314.12,430.5,314.11Z" transform="translate(-388.12 -261.19)"/><path class="cls-10" d="M418.91,277.28c0,.42.3.72.18,1.23-.14.66-1.19.82-1.12,1.75a1.34,1.34,0,0,0,.71,1,1.49,1.49,0,0,1-.41-1.29c.12-.68,1-.86,1.12-1.43A1.66,1.66,0,0,0,418.91,277.28Z" transform="translate(-388.12 -261.19)"/><path class="cls-10" d="M417.59,275.41c.06.47.4.95.36,1.49-.1,1.15-1.82,1.26-1.53,2.78.1.57.56.73.94,1.23-.42-.71-.87-1.4-.41-2.26s1.29-.72,1.35-1.68A2.47,2.47,0,0,0,417.59,275.41Z" transform="translate(-388.12 -261.19)"/><rect class="cls-11" x="0.19" y="60.18" width="60.01" height="10.4"/><rect class="cls-12" x="49.75" y="60.18" width="10.67" height="10.4"/><path d="M445.4,324.7h-2.56l-.14,1a2.82,2.82,0,0,1,.42,0,3,3,0,0,1,1.75.48,1.91,1.91,0,0,1,.8,1.66c0,1.23-1.06,2.32-2.84,2.32a4.09,4.09,0,0,1-1.84-.38l.28-1.16a3.78,3.78,0,0,0,1.49.33c.64,0,1.32-.31,1.32-1s-.54-1.1-1.86-1.1a5.66,5.66,0,0,0-.89.06l.43-3.47h3.64Z" transform="translate(-388.12 -261.19)"/></svg>