<svg id="Layer_1" data-name="Layer 1" xmlns="http://www.w3.org/2000/svg" viewBox="0 0 60.42 70.59"><defs><style>.cls-1,.cls-10,.cls-6{fill:none;}.cls-1{stroke:#1d1d1b;}.cls-2{fill:#b2b2b2;}.cls-3{fill:#706f6f;}.cls-4{fill:#989492;}.cls-4,.cls-5,.cls-6{stroke:#1a1a1a;}.cls-10,.cls-4,.cls-5,.cls-6{stroke-width:0.25px;}.cls-5{fill:#aca9a7;}.cls-7{fill:#12100b;}.cls-8{fill:#1d1d1b;}.cls-9{fill:#1a1a1a;}.cls-10{stroke:#666;}.cls-11{fill:#bfbfbf;}.cls-12{fill:#f2f2f2;}</style></defs><rect class="cls-1" x="0.5" y="0.5" width="59.42" height="59.42"/><path class="cls-2" d="M408.21,298.92a1.59,1.59,0,0,0,.19-.76,1.38,1.38,0,0,0-1.25-1.48H395.83a62.26,62.26,0,0,0-3.3-18.88l-1.07.3c5.51,21.09.25,35.25.82,33.95h1.37a45.1,45.1,0,0,0,2.15-12.44l.11,0h10.63c-.08,3.34.23,4.54,1.55,12.26h1.58C409.22,310.7,408.49,302.34,408.21,298.92Z" transform="translate(-388.13 -261.19)"/><path class="cls-3" d="M430.48,286c1.34,1.3,1.62,3.16.63,4.16s-2.87.76-4.21-.54-1.61-3.15-.63-4.16,2.88-.76,4.21.54" transform="translate(-388.13 -261.19)"/><path class="cls-4" d="M423,309.25a1.3,1.3,0,0,1,.28.31,3.81,3.81,0,0,0,.26.5c.33.3.78.47.77.76a5.8,5.8,0,0,1-.76.83l-.21.51v.19l.57,0,.29.2,0,.06-.5.35a1.1,1.1,0,0,1-.43-.22c-.2-.17-.23-.17-.31-.3s-.28-.5-.34-.58l-.15-.11a.36.36,0,0,1-.08-.16,3.43,3.43,0,0,0-.28-.22.82.82,0,0,1-.32.07c-.14,0-.39,0-.33-.27a1.45,1.45,0,0,1,.13-.63,3.49,3.49,0,0,1,.52-.84C422.23,309.55,422.74,309.06,423,309.25Z" transform="translate(-388.13 -261.19)"/><path class="cls-5" d="M423.51,311.53l.6-.59.44-.4c.07-.09.3-.34.49-.12s.39.51.5.55a.88.88,0,0,0,.48.08,2,2,0,0,0,.82-.23,5.33,5.33,0,0,0,.82-.51,2.27,2.27,0,0,1,.58-.38.72.72,0,0,1,.59,0,.83.83,0,0,1,.47.7c0,.33-.05.5-.25.66a2.21,2.21,0,0,0-.58.56,4.68,4.68,0,0,1-1.13,1.14,1.25,1.25,0,0,1-1.48.45,1.84,1.84,0,0,1-.41-.31,2.72,2.72,0,0,0-.78-.33.74.74,0,0,1-.45-.24,5,5,0,0,1-.57.4c-.08,0,0-.08,0-.08a.84.84,0,0,1,0-.18.23.23,0,0,0-.08-.24c-.06-.05-.13,0-.13-.09s-.14,0-.14-.17a1.14,1.14,0,0,1,.09-.41A2.41,2.41,0,0,1,423.51,311.53Z" transform="translate(-388.13 -261.19)"/><path class="cls-6" d="M427.4,312.82s-1-.32-1.11-.76c-.12.18-.88.95-.88.95" transform="translate(-388.13 -261.19)"/><path class="cls-6" d="M428,310.21a1.41,1.41,0,0,1,1.26.9" transform="translate(-388.13 -261.19)"/><path class="cls-6" d="M423,309a2,2,0,0,0,.22.34c.05,0,.16.44.27.56" transform="translate(-388.13 -261.19)"/><path class="cls-6" d="M422.67,309.25c.14.13.33.22.38.42s0,.24.11.36" transform="translate(-388.13 -261.19)"/><path class="cls-6" d="M422.3,309.48c.12,0,.29.21.32.32s0,.33.25.36" transform="translate(-388.13 -261.19)"/><path class="cls-6" d="M422,309.87a.44.44,0,0,1,.35.21c.06.08.06.23.13.29" transform="translate(-388.13 -261.19)"/><path class="cls-6" d="M421.72,310.18a1.3,1.3,0,0,0,.54.41" transform="translate(-388.13 -261.19)"/><path class="cls-6" d="M421.61,310.49c.14.15.12.41.4.41" transform="translate(-388.13 -261.19)"/><path class="cls-6" d="M421.49,310.8c.05.28.21.44.5.36" transform="translate(-388.13 -261.19)"/><path class="cls-6" d="M421.37,311.31c.05.1.15.06.27.09s.28,0,.39,0" transform="translate(-388.13 -261.19)"/><path class="cls-6" d="M423.38,310c0,.1-.47.14-.57.25s-.09.14-.15.19-.3.14-.43.25a2,2,0,0,0-.2.77" transform="translate(-388.13 -261.19)"/><path class="cls-6" d="M423,309.07a2.3,2.3,0,0,0-1.32,1.15,6.23,6.23,0,0,0-.25,1.1" transform="translate(-388.13 -261.19)"/><path class="cls-6" d="M423.57,312.59c.05.12,0,.27.05.34" transform="translate(-388.13 -261.19)"/><path class="cls-6" d="M423.47,311.63" transform="translate(-388.13 -261.19)"/><path class="cls-6" d="M424.77,310.44" transform="translate(-388.13 -261.19)"/><path class="cls-6" d="M422.05,311.38c.1.12.27.17.35.3s0,.06,0,.1.07,0,.1.09a1.7,1.7,0,0,1,.09.24,2.29,2.29,0,0,0,.51.52c.13.12.29.35.48.34a.6.6,0,0,0-.13-.56c-.08-.07-.17-.08-.2-.19a.61.61,0,0,1,0-.3,1.25,1.25,0,0,1,.3-.54c.16-.15.35-.29.51-.43s.32-.35.52-.4" transform="translate(-388.13 -261.19)"/><path class="cls-7" d="M407.63,275.75c-.64,1.81-2.29,2.86-3.69,2.33s-2-2.42-1.36-4.24,2.29-2.85,3.69-2.33,2,2.43,1.36,4.24" transform="translate(-388.13 -261.19)"/><path class="cls-7" d="M418.75,300.77l.38-.68s-.41.65-4-3.89c0-1-.2-2.57-1.48-3.22l.11-.32v-.42a4.56,4.56,0,0,0-.64-1.37c-.3-.28-.56-.2-1-.28a.69.69,0,0,1-.35-.18l.19-.2L405.36,279a4,4,0,0,0-.28-.5,2.27,2.27,0,0,1-1.24,0,2.55,2.55,0,0,1-1.51-1.39,4.7,4.7,0,0,0-2.44,2.2,22.32,22.32,0,0,0-2.71,13.06c0,.16,0,.32,0,.47s.43.22.43.41a5.06,5.06,0,0,0,.09,1.1c.09,1.36,1.09,2.6,4.5,2.39l5.92,0a21.3,21.3,0,0,1,2.08,1.6c0,.1,0,.2,0,.27,0,.84-.65,11.64-.65,11.64l.57,0,0,.43-.09.64a.5.5,0,0,0,.17.47,1.52,1.52,0,0,0,.54.19l5.42.15h0l.45,0s.5-.07.24-.36c0,0-.19-.35-2.57-1.53-.08-.05-.18-.09-.28-.14h.26l.3-7.78c1.21,1.12,2.08,1.95,2.08,1.95l.74-1.3c2.16,1.62,3.79,2.88,3.79,2.88l.75-1.23S420.73,303.17,418.75,300.77Zm-12.95-9.36c.08-.07.11-.17.06-.35s-.08-2.36-.1-4.45a52,52,0,0,0,4.74,5.25l.08-.09.53.5C409.07,291.84,406.84,291.54,405.8,291.41Z" transform="translate(-388.13 -261.19)"/><path class="cls-8" d="M412.39,292.56h.09s0,0,0,0Z" transform="translate(-388.13 -261.19)"/><path class="cls-5" d="M419.4,301.53s.12,1.93.06,2.24a.52.52,0,0,1-.38.39l-.1.45.32.06.27.05-.1.55,1.33.24.4,1.11s.32.52.72.59.93-.29,1.31-.22,1.42,0,2.17.15,1.69-.08,1.49-.37a1.45,1.45,0,0,0-1.26-.9,3.1,3.1,0,0,1-1.72-.83,3.77,3.77,0,0,0-1.5-.87,4.53,4.53,0,0,1-1.11-1.26l-.51-.72a2.74,2.74,0,0,0-.59-.51Z" transform="translate(-388.13 -261.19)"/><path class="cls-9" d="M419.22,303.58a.64.64,0,0,0,.33.16,1,1,0,0,0,.57-.06.38.38,0,0,0,.13-.09.05.05,0,0,0,0-.08.17.17,0,0,0-.12,0,.58.58,0,0,0-.19,0c.09,0,0,0,0,0h-.09l-.09,0h0l-.11-.08a.19.19,0,0,0-.13,0,.43.43,0,0,0-.19,0,.35.35,0,0,0-.13.08s0,.06,0,.09Z" transform="translate(-388.13 -261.19)"/><path class="cls-9" d="M420,304.22l-.19,0h-.06l-.1,0-.19-.05-.05,0h0s0,0,0,0l-.1,0a.35.35,0,0,0-.34,0,.17.17,0,0,0-.09.11.11.11,0,0,0,.06.1,2.26,2.26,0,0,0,.89.23.4.4,0,0,0,.19,0,.33.33,0,0,0,.13-.11c.05-.1-.05-.16-.14-.17Z" transform="translate(-388.13 -261.19)"/><path class="cls-9" d="M420,302.23h-.14l-.24,0h.06l-.14,0a.28.28,0,0,0-.18,0,.39.39,0,0,0-.16.1.15.15,0,0,0,0,.13.19.19,0,0,0,.1.1,1.63,1.63,0,0,0,.69.07.34.34,0,0,0,.19-.07.17.17,0,0,0,.08-.12c0-.12-.12-.16-.22-.16Z" transform="translate(-388.13 -261.19)"/><path class="cls-9" d="M420,301.83h-.14l-.19,0h.06l-.16,0,0,0h0a.41.41,0,0,0-.16,0,.4.4,0,0,0-.18.07.17.17,0,0,0-.09.11s0,.09.06.1a1.4,1.4,0,0,0,.73.09.39.39,0,0,0,.18-.06.27.27,0,0,0,.09-.12c0-.11-.13-.13-.22-.12Z" transform="translate(-388.13 -261.19)"/><path class="cls-9" d="M419.26,304a1.39,1.39,0,0,0,.33.1,1.25,1.25,0,0,0,.47,0,.56.56,0,0,0,.16-.07s.06-.06,0-.09-.06,0-.09-.06l-.18,0h-.22l-.13,0a.29.29,0,0,0-.16,0,.55.55,0,0,0-.18.06s-.09.05-.09.09a.05.05,0,0,0,0,.07Z" transform="translate(-388.13 -261.19)"/><path class="cls-9" d="M419.26,302.9a1.39,1.39,0,0,0,.33.1,1.25,1.25,0,0,0,.47,0,.56.56,0,0,0,.16-.07s.06-.06,0-.09-.06-.05-.09-.05a.55.55,0,0,0-.18,0h0s-.05,0,0,0h-.19l-.13-.05a.29.29,0,0,0-.16,0,.55.55,0,0,0-.18.06s-.09.05-.09.09a.05.05,0,0,0,0,.07Z" transform="translate(-388.13 -261.19)"/><path class="cls-9" d="M419,304.73h.06l.23,0h0l.07,0a.29.29,0,0,0,.16,0,.55.55,0,0,0,.18-.06s.09-.05.1-.09,0-.06-.05-.07a1.28,1.28,0,0,0-.34-.07,1.19,1.19,0,0,0-.42,0l-.17.08s-.06.06-.05.09a.13.13,0,0,0,.09.06l.18,0Z" transform="translate(-388.13 -261.19)"/><path class="cls-9" d="M419.38,303.33l.39,0a.86.86,0,0,0,.47-.11.28.28,0,0,0,.13-.11.14.14,0,0,0,0-.14.27.27,0,0,0-.32,0l0,0h0l-.07,0h-.06a3,3,0,0,1-.31,0,.41.41,0,0,0-.19,0c-.05,0-.11.06-.12.11a.12.12,0,0,0,0,.14.17.17,0,0,0,.13.07Z" transform="translate(-388.13 -261.19)"/><path class="cls-6" d="M419.46,301.6c.17,0,.57.07.65.21a1.57,1.57,0,0,1,0,.53,5.06,5.06,0,0,1-.06,1,3.32,3.32,0,0,1-.19,1.06c-.14.3-.38.49-.38.83v-.4" transform="translate(-388.13 -261.19)"/><path class="cls-10" d="M419,304.6c0-.14,0-.43.15-.47" transform="translate(-388.13 -261.19)"/><path class="cls-6" d="M419.46,301.56a2.25,2.25,0,0,0,0,.38" transform="translate(-388.13 -261.19)"/><path class="cls-6" d="M419.64,305.28c.27.18.56,0,.86.1a.81.81,0,0,0,.63,0" transform="translate(-388.13 -261.19)"/><path class="cls-6" d="M421.06,306.1c.37,0,.75,0,1.13.06a1.09,1.09,0,0,0,.63.84" transform="translate(-388.13 -261.19)"/><path class="cls-6" d="M426,306a1.66,1.66,0,0,1,.09.63c0,.11-.13.55,0,.48" transform="translate(-388.13 -261.19)"/><path class="cls-3" d="M443.9,309.7c-.55-.55-.92-1.32-1.4-1.15a1.74,1.74,0,0,0-.8.62v0c-3,0-3.29,0-5.52,0-.83,0,2.5-2.46,3.79-3.48,3.43-2.72,3.39-4.34,3.1-5a3.18,3.18,0,0,0,.16-.32c.13-.35-1.41-3.34-2.17-4.44a27.68,27.68,0,0,0-8.22-7.49A5.86,5.86,0,0,0,432,288a2.33,2.33,0,0,1-.49,2.3l-.08.1-.08.07a2,2,0,0,1-1.09.63l0,.26-.81,7.85-4.13,3.2.31.36c-.3.1-.81.18-.92.34s-.56.7-.48,1.18a1.11,1.11,0,0,0,.45.8.84.84,0,0,0,.35.06l.21.11s.22,0,.26-.09,0-.12.13-.27.11-.47.29-.53.55,0,.84-.34l.26.3,4.82-3s.59-.59,1.27-3.11l1.08,3.67a1.05,1.05,0,0,0,.54.16c-1.11,2.17-3.65,6.86-3.65,6.86-1.4,2.87.64,3.79.64,3.79,4.38.23,10.14.17,11.33.17l-.15-.4c.57,0,1.2,0,1.4.24s.93.74,1.13,1,.39,0,.54-.17C446.36,312.9,444.55,310.36,443.9,309.7Z" transform="translate(-388.13 -261.19)"/><rect class="cls-11" x="0.13" y="60.18" width="60.01" height="10.4"/><rect class="cls-12" x="49.73" y="60.18" width="10.67" height="10.4"/><path d="M441.25,328.53a3.53,3.53,0,0,0,1.54.41c.8,0,1.21-.39,1.21-.88,0-.66-.65-.95-1.34-.95H442V326h.61c.52,0,1.17-.21,1.17-.77,0-.39-.31-.69-1-.69a3,3,0,0,0-1.38.4l-.31-1.12a4,4,0,0,1,2-.5c1.41,0,2.19.74,2.19,1.65a1.57,1.57,0,0,1-1.21,1.53v0a1.65,1.65,0,0,1,1.44,1.61c0,1.16-1,2-2.71,2a4,4,0,0,1-2-.46Z" transform="translate(-388.13 -261.19)"/></svg>