<svg id="Layer_1" data-name="Layer 1" xmlns="http://www.w3.org/2000/svg" viewBox="0 0 60.59 70.59"><defs><style>.cls-1,.cls-2{fill:none;}.cls-1{stroke:#1d1d1b;}.cls-2{stroke:#fff;stroke-miterlimit:10;stroke-width:0.5px;}.cls-3{fill:#706f6f;}.cls-4{fill:#b2b2b2;fill-rule:evenodd;}.cls-5{fill:#12100b;}.cls-6{fill:#bfbfbf;}.cls-7{fill:#f2f2f2;}</style></defs><rect class="cls-1" x="0.5" y="0.5" width="59.42" height="59.42"/><path class="cls-2" d="M425.67,285.65" transform="translate(-388.04 -261.19)"/><path class="cls-3" d="M419.68,286.35l-.47-1.53-.56-.05-.13.2a3.08,3.08,0,0,1-.66-.42,7.6,7.6,0,0,0-2.1-.44c-.45-.1-1-.3-1.24-.18s.35.49.67.62l.74.31a3.63,3.63,0,0,1-.93.65c-.55.28-1.26.76-1.16,1a4.36,4.36,0,0,0,2.2.8,6.94,6.94,0,0,0,2-1.09l1,.51S418.79,286.16,419.68,286.35Z" transform="translate(-388.04 -261.19)"/><path class="cls-3" d="M426.06,275.73s2.79-.19,3.27.4-.74,1.82-.52,3.29-4.49,5.06-5.12,5.35c-1.07.47-2.71,1.4-5,2.48l-1.13-2.88,4.86-2.13,3.36-6.05Z" transform="translate(-388.04 -261.19)"/><path class="cls-4" d="M400.06,286.15c.51.14,1.7-.37,1.47.46C401,286.47,399.83,287,400.06,286.15Z" transform="translate(-388.04 -261.19)"/><path class="cls-4" d="M398.36,299.93c4.39,1.9,12.25,4.29,17.79,1.6,0,3.5-7.57,2.86-11.21,2.07a41.41,41.41,0,0,1-6.58-2.14Z" transform="translate(-388.04 -261.19)"/><path class="cls-4" d="M398.36,302.22c4.54,2,12.72,4,17.55,1.61-.09,2.29-1.67,3.17-3.42,3.9v6.43c-4.92,3.69-10.07-1.78-14.13-3.21Z" transform="translate(-388.04 -261.19)"/><path class="cls-4" d="M406.4,285.92c-3.5.67-8.14,2-11.7,1.15C398,286.19,402.84,285.15,406.4,285.92Zm-4.87.69c.23-.83-1-.32-1.47-.46C399.83,287,401,286.47,401.53,286.61Z" transform="translate(-388.04 -261.19)"/><path class="cls-4" d="M406.8,297.49A80.1,80.1,0,0,1,398,299.2c0,2,0,3.3,0,5.33-4.66-2.43-3.13-11.29-4.06-17.23,3.31,1.71,8.46-.25,12.43-.68C407.44,289.15,406.48,294.19,406.8,297.49Z" transform="translate(-388.04 -261.19)"/><path class="cls-4" d="M415.91,300.38c-3.91,3.7-12.51.95-16.58-.68C404.61,297.56,411.54,297.51,415.91,300.38Z" transform="translate(-388.04 -261.19)"/><path class="cls-5" d="M424.28,304.83s1.19-2.83-.33-3.93a47.87,47.87,0,0,0-8.19-3.76c.47-.64-.1-1-.1-1.51,0-2.9.71-9,.7-12.58a2.54,2.54,0,0,1-1.55-.52,2.59,2.59,0,0,1-.9-1.4,1.78,1.78,0,0,0-1,.32l-.09.07c-1.67.93-12.35,6.79-12,8.66,0,0-.59,4.7-1.08,7.22-.05.24-.14.55-.19.74a2.86,2.86,0,0,0,.57.14.94.94,0,0,1-.27.51c-.34.31-.61.38-.73.8a4.9,4.9,0,0,0,.18,1.58l.25.37.28.24a1.29,1.29,0,0,0,.54.17c.15,0,.16,0,.22-.19a9.12,9.12,0,0,0,.07-1,5.88,5.88,0,0,0,.76-.55.66.66,0,0,1,.21.19c.06.15.64.25.85.17s.3-.11-.07-.39-.26-.51-.54-1l.17-.6a2.32,2.32,0,0,0,.85.06,34.46,34.46,0,0,1,1.15-7.51,26.27,26.27,0,0,1,3.22-1.53c-.33,1.28-.77,2.9-1.16,5a7.22,7.22,0,0,1-.49,1c-.51,1.09.5.29.23,1a9.19,9.19,0,0,0-.3,1.14h0c-1.08,3,9.14,6.92,9,7.28-.3.67-1.61,7.24-1.61,7.24l.48,0c-.1,1.19-.2,4.38,1.62,5,0,0,2.09.42,2.41-.14,0,0-.33-1-.57-2.12.36.16.91.25,1.42.43,1,.35,3.63,1.12,4.48.74.26-.12.57-.78.23-.95a11.11,11.11,0,0,0-1.55-.67c-.27-.08-.52-.48-.74-.92l.67.12ZM416.92,313l.22,0a3,3,0,0,0-.28.32c-.06.09-.13.2-.2.33a1.66,1.66,0,0,1,.14-1h0l.19,0,1.85-6.79a6.53,6.53,0,0,0,.44-2c.35.21.56.36.54.41C419.51,305,416.92,313,416.92,313Z" transform="translate(-388.04 -261.19)"/><path class="cls-5" d="M419.62,281c-1.25,1.63-3.28,2.16-4.53,1.2s-1.24-3.07,0-4.69,3.29-2.16,4.53-1.2,1.25,3.07,0,4.69" transform="translate(-388.04 -261.19)"/><path class="cls-5" d="M419.62,281c-1.25,1.63-3.28,2.16-4.53,1.2s-1.24-3.07,0-4.69,3.29-2.16,4.53-1.2S420.88,279.42,419.62,281Z" transform="translate(-388.04 -261.19)"/><path class="cls-3" d="M427,270.29c1.31,1.55,1.39,3.63.17,4.64s-3.27.58-4.58-1-1.39-3.63-.18-4.64S425.67,268.74,427,270.29Z" transform="translate(-388.04 -261.19)"/><path class="cls-3" d="M438.53,282.9c-1.28-2.15-6.62-8.89-8.68-9.63-.49-.18-1-.34-1.53-.49a2.75,2.75,0,0,1-.9,2.42,2.42,2.42,0,0,1-1.11.52l1.19,3.55.25.86-2.17,5.21-4.4,2.38.19.3a14.25,14.25,0,0,0-1.94.14c-.46,0-1,0-1.25.15s.47.38.81.43l.79.11a3.9,3.9,0,0,1-.73.86c-.47.41-1,1.05-.87,1.29a4.22,4.22,0,0,0,2.32.24c.51-.16,1.64-1.55,1.64-1.55l.19-.14.44.7,4.49-2.09a11.19,11.19,0,0,0,2-2.69l1.24,4.32a.83.83,0,0,0,.79.43c.24,11.5.73,22.68.73,22.68h0a1.27,1.27,0,0,1-.7.51,12.49,12.49,0,0,0-1.92.5c-.42.13-.18.94.1,1.12.91.6,4.12.2,5.29,0,1-.2,2.1-.07,2.26-.69a2,2,0,0,0-.1-1.19h.33s1.18-19,2.22-23.54a6,6,0,0,0,1-1.29C440.74,287.91,439.22,284,438.53,282.9Z" transform="translate(-388.04 -261.19)"/><rect class="cls-6" x="0.11" y="60.18" width="60.01" height="10.4"/><rect class="cls-7" x="49.92" y="60.18" width="10.67" height="10.4"/><path d="M443.81,330.05v-1.58h-2.93v-1l2.49-4h1.9v3.88h.79v1.16h-.79v1.58Zm0-2.74v-1.47c0-.39,0-.8,0-1.23h0c-.22.43-.4.82-.62,1.23l-.88,1.45v0Z" transform="translate(-388.04 -261.19)"/></svg>