<svg id="Layer_1" data-name="Layer 1" xmlns="http://www.w3.org/2000/svg" viewBox="0 0 60.42 70.59"><defs><style>.cls-1{fill:#ccc;}.cls-2,.cls-6{fill:#d0cece;}.cls-3{fill:#999;}.cls-4{fill:#c6c4c3;}.cls-5{fill:#bdbbbb;}.cls-19,.cls-5,.cls-6,.cls-8,.cls-9{fill-rule:evenodd;}.cls-7{fill:#878787;}.cls-8{fill:#2b2b2b;}.cls-9{fill:#fff;}.cls-10{fill:#12100b;}.cls-11{fill:#7f7b7a;}.cls-12,.cls-14,.cls-17{fill:none;}.cls-12{stroke:#fff;}.cls-12,.cls-14,.cls-15{stroke-miterlimit:10;stroke-width:0.5px;}.cls-13{fill:#b2b2b2;}.cls-14,.cls-15,.cls-17{stroke:#1d1d1b;}.cls-15{fill:#676362;}.cls-16{fill:#1d1d1b;}.cls-18{fill:#bfbfbf;}.cls-20{fill:#f2f2f2;}</style></defs><rect class="cls-1" x="48.3" y="28.01" width="11.61" height="19.96"/><path class="cls-2" d="M436.43,288.08c0-.39-.4-.81-.33-1.2,0-.05.24-.1.25-.15l11.69-.11-.14,1.85-11.42.1A2.63,2.63,0,0,1,436.43,288.08Z" transform="translate(-388.12 -261.19)"/><path class="cls-3" d="M436.54,289.88V289q0-.3,0-.63v-.07h11.37v1.86H436.53C436.54,290.08,436.54,290,436.54,289.88Z" transform="translate(-388.12 -261.19)"/><rect class="cls-1" x="6.02" y="28.01" width="27.18" height="19.96"/><path class="cls-2" d="M421.32,288.08c0-.39,1-.81.86-1.2,0-.05-.63-.1-.64-.15l-26.93-.11-3.11,1.85,29.7.1A1.22,1.22,0,0,0,421.32,288.08Z" transform="translate(-388.12 -261.19)"/><path class="cls-3" d="M421,289.88V289a3.31,3.31,0,0,1,0-.63.64.64,0,0,1,0-.07H391.46v1.86h29.59C421,290.08,421,290,421,289.88Z" transform="translate(-388.12 -261.19)"/><path class="cls-4" d="M423.85,282.88" transform="translate(-388.12 -261.19)"/><path class="cls-4" d="M423.85,282.88" transform="translate(-388.12 -261.19)"/><path class="cls-5" d="M428.05,286.31v.44h2.35c.21-.1,0-.33.16-.44H435v.44c3.3-.89,2.4,2.28,2.5,4.79H421.07c.17-1.56-.41-3.87.47-4.71a12.34,12.34,0,0,1,2-.08c.18-.1,0-.21.08-.44Z" transform="translate(-388.12 -261.19)"/><path class="cls-5" d="M421.15,292.16h2.51v4.71c0,1-.36,3.95.23,4.46.38.32,2,.16,2.67.16h5.49c.83,0,2.26.12,2.58-.16.54-.45.24-3.49.24-4.46v-4.71h2.58c0,3.74,0,8,0,12H421.07V292.4C421.07,292.29,421.06,292.18,421.15,292.16Z" transform="translate(-388.12 -261.19)"/><path class="cls-6" d="M434.24,292.16v1.26h-9.95c0-.4-.11-1,.08-1.26Z" transform="translate(-388.12 -261.19)"/><path class="cls-5" d="M421.15,304.78h16.23c-.17,1,.57,3.33-.16,4.15-.47.53-2.64.32-3.84.32h-8.15c-1.1,0-3.19.23-3.76-.16-.85-.57-.18-3-.4-4.07C421.07,304.9,421.06,304.79,421.15,304.78Zm4.31.55c-.28.05-.11.57-.15.86h7.83v-.86Z" transform="translate(-388.12 -261.19)"/><path class="cls-6" d="M433.14,305.33v.86h-7.83c0-.29-.13-.81.15-.86Z" transform="translate(-388.12 -261.19)"/><rect class="cls-7" x="35.46" y="25.12" width="4.47" height="0.45"/><rect class="cls-7" x="42.36" y="25.12" width="4.47" height="0.45"/><path class="cls-8" d="M433.19,281.49c.33.47-.5.46-.81.36a.26.26,0,0,1,.06-.38A6,6,0,0,1,433.19,281.49Z" transform="translate(-388.12 -261.19)"/><path class="cls-9" d="M434.8,282.93h-4c0-.14.15-.2.25-.27C432,282,434.21,282,434.8,282.93Z" transform="translate(-388.12 -261.19)"/><path class="cls-8" d="M435,283.81c.05.1.26,0,.37,0,.27-.4,1.07-.53,1.91-.48.67.05,1.57.38.91.8a4.88,4.88,0,0,0-1.54-.17,11.06,11.06,0,0,1-1.63.19,5.14,5.14,0,0,0,0,.88c0,.44,0,1-.31,1.17a2.91,2.91,0,0,1-.94,0h-1.92c-.61,0-1.14.08-1.28-.36a4.47,4.47,0,0,1,0-1.11,5,5,0,0,0,0-1.1c0-.11-.32-.19-.13-.38.84-.07,2.47,0,3.68,0,.33,0,1-.07,1.09.1S434.92,283.61,435,283.81Z" transform="translate(-388.12 -261.19)"/><path class="cls-8" d="M435.16,283.2a1.12,1.12,0,0,0-.68-.86,3,3,0,0,0-1.19-.33,12,12,0,0,0-1,0,3.14,3.14,0,0,0-1.2.33,1.14,1.14,0,0,0-.68.86c.74,0,1.55.05,2.37.05S434.42,283.24,435.16,283.2Zm-4.39-.21a2.29,2.29,0,0,1,2-.72h.06a2.25,2.25,0,0,1,2,.72Z" transform="translate(-388.12 -261.19)"/><path class="cls-10" d="M416.14,284.22a3.26,3.26,0,0,1-.82-.55l-1.59.13-.65.07-.12-.18-4.49.6-1.38-1.4-2.48-5.09a2.53,2.53,0,0,1-1.22-.07l-.27-.11c-1,.58-2.27,1.41-2.39,1.91-.2.81,1.13.64,1.57,2.21s3.72,4.9,3.94,5.25.85.86,2.58.26l4.94-1.74-.19-.51a5.87,5.87,0,0,0,1.75.91,3.64,3.64,0,0,0,1.87-.81C417.27,284.85,416.63,284.45,416.14,284.22Z" transform="translate(-388.12 -261.19)"/><path class="cls-11" d="M444.36,287.8" transform="translate(-388.12 -261.19)"/><path class="cls-4" d="M446.38,283.49" transform="translate(-388.12 -261.19)"/><path class="cls-4" d="M446.38,283.49" transform="translate(-388.12 -261.19)"/><path class="cls-12" d="M405.73,295.54" transform="translate(-388.12 -261.19)"/><path class="cls-13" d="M419.68,283.42l-6.75.06a3.67,3.67,0,0,0,3.41,3.86" transform="translate(-388.12 -261.19)"/><path class="cls-13" d="M416.34,287.34a3.66,3.66,0,0,0,3.34-3.92" transform="translate(-388.12 -261.19)"/><path class="cls-14" d="M419.68,283.42l-6.75.06a3.67,3.67,0,0,0,3.41,3.86" transform="translate(-388.12 -261.19)"/><path class="cls-14" d="M416.34,287.34a3.66,3.66,0,0,0,3.34-3.92" transform="translate(-388.12 -261.19)"/><path class="cls-13" d="M419.81,283.27c0-.21-1.57-.37-3.44-.35s-3.59.2-3.59.4,1.74.35,3.6.34,3.43-.19,3.43-.39" transform="translate(-388.12 -261.19)"/><path class="cls-15" d="M419.81,283.27c0-.21-1.57-.37-3.44-.35s-3.59.2-3.59.4,1.74.35,3.6.34,3.43-.19,3.43-.39" transform="translate(-388.12 -261.19)"/><path class="cls-16" d="M415,282.88s.08-.17.16-.19.2-.14.33-.16.35-.14.46,0,.42.43.4.52-.07.37-.37.2-.5-.32-.5-.32Z" transform="translate(-388.12 -261.19)"/><path class="cls-10" d="M416.34,286.31a3.88,3.88,0,0,1-.86-.55l.7-.26c.45-.17.68-.41.48-.61s-.65.09-1.05.19a6.75,6.75,0,0,0-1.87.48,2.69,2.69,0,0,1-.58.4l-.12-.18-4.65.6L407,285l-1.59-2.66-.18-.42c-.14-1-.33-2.3-.6-3.94l-.44,0a1.1,1.1,0,0,0,0-.15,2.57,2.57,0,0,1-.72-.11,2.89,2.89,0,0,1-1.76-1.77,2,2,0,0,0-.43.22s-4.07,2.43-5.09,18.64c.32.53.64.64.75.52l.07.57a31.92,31.92,0,0,1-.6,9.4A42.66,42.66,0,0,0,392.6,314a3.18,3.18,0,0,1-.12.4l.1.27-.32.79a2.08,2.08,0,0,0-.39,1l-.08.21.08,0c.07.52,1,.64,1.74,1,.95.44,4.33,1.41,4.8.74.16-.24.35-.52,0-.64s-1.07-.66-1.51-.82c-.25-.09-.45-.49-.62-1l.41.16s2.52-6.87,5-12.53c.64,5.62,1.28,13.6,1.28,13.6l.39-.07a2,2,0,0,0,0,1.06c.18.55,1.12.37,2,.5,1,.14,4.56.07,4.81-.7.09-.28.18-.6-.21-.6s-1.21-.33-1.68-.35c-.24,0-.52-.28-.79-.61l.2,0s-1-10-1.85-20.07c.24,0,.41-.08.39-.32a58.11,58.11,0,0,0-.44-6.18c0-1-.06-1.82-.09-2.56,1.45.95,2.92,1.65,3.53,1.51,2-.43,4.68-1.16,4.68-1.16l-.08-.41a5.52,5.52,0,0,0,1.69.81,3.74,3.74,0,0,0,1.94-.81C417.5,286.94,416.84,286.54,416.34,286.31Z" transform="translate(-388.12 -261.19)"/><path class="cls-10" d="M407.26,274.69c-.57,2-2.26,3.17-3.77,2.69s-2.28-2.45-1.7-4.42,2.26-3.17,3.77-2.69,2.28,2.45,1.7,4.42" transform="translate(-388.12 -261.19)"/><rect class="cls-17" x="0.5" y="0.5" width="59.42" height="59.42"/><rect class="cls-18" x="0.34" y="60.18" width="60.01" height="10.4"/><path class="cls-19" d="M434,276.91c0,.43.29.72.18,1.25s-1.21.82-1.14,1.77a1.36,1.36,0,0,0,.72,1,1.57,1.57,0,0,1-.42-1.31c.13-.68,1.05-.87,1.13-1.44A1.7,1.7,0,0,0,434,276.91Z" transform="translate(-388.12 -261.19)"/><path class="cls-19" d="M432.69,275c.06.47.41,1,.36,1.5-.1,1.17-1.84,1.28-1.55,2.82.11.58.57.73.95,1.25-.42-.73-.88-1.43-.41-2.3s1.31-.72,1.37-1.7A2.56,2.56,0,0,0,432.69,275Z" transform="translate(-388.12 -261.19)"/><path class="cls-9" d="M424.23,289.26a.76.76,0,1,1-.76-.75A.76.76,0,0,1,424.23,289.26Z" transform="translate(-388.12 -261.19)"/><path class="cls-9" d="M426.56,289.26a.75.75,0,1,1-.75-.75A.75.75,0,0,1,426.56,289.26Z" transform="translate(-388.12 -261.19)"/><path class="cls-9" d="M428.9,289.26a.75.75,0,1,1-1.5,0,.75.75,0,0,1,1.5,0Z" transform="translate(-388.12 -261.19)"/><path class="cls-9" d="M431.24,289.26a.76.76,0,1,1-.75-.75A.76.76,0,0,1,431.24,289.26Z" transform="translate(-388.12 -261.19)"/><path class="cls-9" d="M435.38,289.26a.76.76,0,1,1-.75-.75A.76.76,0,0,1,435.38,289.26Z" transform="translate(-388.12 -261.19)"/><rect class="cls-20" x="49.75" y="60.18" width="10.67" height="10.4"/><path d="M443,324.81h0l-1.26.6-.26-1.16,1.76-.82h1.28v6.62H443Z" transform="translate(-388.12 -261.19)"/></svg>