<svg id="Layer_1" data-name="Layer 1" xmlns="http://www.w3.org/2000/svg" viewBox="0 0 60.47 70.59"><defs><style>.cls-1{fill:#ccc;}.cls-2,.cls-6{fill:#d0cece;}.cls-3{fill:#999;}.cls-4{fill:#c6c4c3;}.cls-5{fill:#bdbbbb;}.cls-16,.cls-5,.cls-6,.cls-7,.cls-8,.cls-9{fill-rule:evenodd;}.cls-7{fill:#828282;}.cls-8{fill:#fff;}.cls-9{fill:#787878;}.cls-10,.cls-14{fill:none;}.cls-10,.cls-14,.cls-15,.cls-19{stroke:#1d1d1b;}.cls-11{fill:#4d4d4d;}.cls-12{fill:#959595;}.cls-13{fill:#b2b2b2;}.cls-14,.cls-15,.cls-18,.cls-19{stroke-miterlimit:10;}.cls-14,.cls-15,.cls-18{stroke-width:0.5px;}.cls-15,.cls-19{fill:#676362;}.cls-17{fill:#706f6f;}.cls-18{fill:#666;stroke:#fff;}.cls-19{stroke-width:0.25px;}.cls-20{fill:#12100b;}.cls-21{fill:#bfbfbf;}.cls-22{fill:#f2f2f2;}</style></defs><rect class="cls-1" x="38.9" y="14.02" width="21.02" height="15.77"/><path class="cls-2" d="M427,274.33c0-.32-.31-.65-.26-1,0,0,.19-.08.19-.12l21.09-.08-.12,1.46-20.86.08A2.58,2.58,0,0,1,427,274.33Z" transform="translate(-388.1 -261.19)"/><path class="cls-3" d="M427.09,275.74v-1.17s0,0,0-.06h20.84V276H427.08C427.08,275.91,427.09,275.83,427.09,275.74Z" transform="translate(-388.1 -261.19)"/><rect class="cls-1" x="5.49" y="14.02" width="21.48" height="15.77"/><path class="cls-2" d="M415.06,274.33c0-.32.81-.65.68-1,0,0-.5-.08-.5-.12L394,273.17l-2.45,1.46,23.46.08A.94.94,0,0,0,415.06,274.33Z" transform="translate(-388.1 -261.19)"/><path class="cls-3" d="M414.83,275.74v-.68a4,4,0,0,1,0-.49s0,0,0-.06H391.46V276h23.39A1.66,1.66,0,0,1,414.83,275.74Z" transform="translate(-388.1 -261.19)"/><path class="cls-4" d="M417.06,270.21" transform="translate(-388.1 -261.19)"/><path class="cls-4" d="M417.06,270.21" transform="translate(-388.1 -261.19)"/><path class="cls-5" d="M420.38,272.92v.36h1.86c.16-.09,0-.27.12-.36h3.47v.36c2.61-.71,1.9,1.79,2,3.77H414.86c.14-1.23-.32-3.05.38-3.71a8.55,8.55,0,0,1,1.55-.06c.14-.09,0-.17.06-.36Z" transform="translate(-388.1 -261.19)"/><path class="cls-5" d="M414.93,277.55h2v3.71c0,.79-.29,3.13.18,3.53.3.26,1.58.13,2.11.13h4.34a5.62,5.62,0,0,0,2-.13c.42-.35.19-2.75.19-3.53v-3.71h2c0,2.95,0,6.33,0,9.48H414.86v-9.3C414.86,277.65,414.85,277.56,414.93,277.55Z" transform="translate(-388.1 -261.19)"/><path class="cls-6" d="M425.27,277.55v1c-2.73,0-5.24,0-7.87,0,0-.31-.08-.78.07-1Z" transform="translate(-388.1 -261.19)"/><path class="cls-5" d="M414.93,287.52h12.82c-.14.75.45,2.64-.13,3.28-.37.42-2.09.25-3,.25h-6.44c-.87,0-2.52.19-3-.12-.66-.45-.13-2.37-.31-3.22C414.86,287.62,414.85,287.53,414.93,287.52Zm3.4.43c-.22.05-.08.46-.12.68h6.19V288Z" transform="translate(-388.1 -261.19)"/><path class="cls-6" d="M424.4,288v.68h-6.19c0-.22-.1-.63.12-.68Z" transform="translate(-388.1 -261.19)"/><rect class="cls-3" x="28.75" y="11.73" width="3.53" height="0.35"/><rect class="cls-3" x="34.2" y="11.73" width="3.53" height="0.35"/><path class="cls-7" d="M424.44,269.12c.26.37-.4.36-.64.28a.2.2,0,0,1,.05-.3A3.79,3.79,0,0,1,424.44,269.12Z" transform="translate(-388.1 -261.19)"/><path class="cls-8" d="M425.71,270.26h-3.15c0-.12.12-.16.2-.22C423.47,269.55,425.24,269.52,425.71,270.26Z" transform="translate(-388.1 -261.19)"/><path class="cls-9" d="M425.88,271c0,.07.2,0,.29,0,.21-.32.85-.42,1.51-.38s1.24.3.72.63a3.84,3.84,0,0,0-1.22-.13,9.35,9.35,0,0,1-1.29.15,4,4,0,0,0,0,.69c0,.35,0,.81-.24.92a2.31,2.31,0,0,1-.75,0h-1.52c-.47,0-.89.06-1-.28a3.61,3.61,0,0,1,0-.88,3.6,3.6,0,0,0,0-.87c0-.09-.25-.15-.1-.3.66-.06,1.95,0,2.91,0,.26,0,.81-.06.86.08S425.81,270.79,425.88,271Z" transform="translate(-388.1 -261.19)"/><path class="cls-9" d="M426,270.46a.91.91,0,0,0-.54-.67,2.24,2.24,0,0,0-.94-.27h-.78a2.24,2.24,0,0,0-.94.27.91.91,0,0,0-.54.67c.58,0,1.23,0,1.87,0S425.41,270.5,426,270.46Zm-3.47-.16a1.81,1.81,0,0,1,1.58-.57h0a1.81,1.81,0,0,1,1.58.57Z" transform="translate(-388.1 -261.19)"/><rect class="cls-10" x="0.5" y="0.5" width="59.42" height="59.42"/><path class="cls-11" d="M436.18,281.18l-4.2.4v.31h0c0,.08,0,.15.07.24a.72.72,0,0,1-.35-.08.9.9,0,0,0-.49-.11c-.15,0-.71.1-1,.12a7.26,7.26,0,0,1-.8,0,1.84,1.84,0,0,0-.55,0,.21.21,0,0,0-.13.29.83.83,0,0,0,.65.25,4.12,4.12,0,0,0,.58-.06c.08,0,.23-.05.23,0a.31.31,0,0,1-.1.25c-.11.07-1,.7-1.08.78a2.49,2.49,0,0,0-.23.22c-.05.07-.06.4.17.36a2.24,2.24,0,0,1,.29,0,.09.09,0,0,1,.1.07c0,.05,0,.2.19.21s.4-.13.4-.07,0,.11.15.14a1.39,1.39,0,0,0,.5,0c.18,0,.26-.06.31,0s.07.16.23.14a1,1,0,0,0,.42-.12,8.45,8.45,0,0,0,.86-.6c0,.1,0,.19,0,.3a.5.5,0,0,1,0,.12v0l2.58,0a14.51,14.51,0,0,0,2.41-.07l.2-.13-.9-4.22C436.62,281,436.18,281.18,436.18,281.18Z" transform="translate(-388.1 -261.19)"/><path class="cls-11" d="M436.68,272c.25,1.77,1.57,3,2.94,2.8s2.28-1.84,2-3.62-1.57-3-2.94-2.81-2.27,1.85-2,3.63" transform="translate(-388.1 -261.19)"/><path class="cls-12" d="M428.71,283.2l5.75.06a3.12,3.12,0,0,1-2.91,3.28" transform="translate(-388.1 -261.19)"/><path class="cls-13" d="M431.55,286.54a3.11,3.11,0,0,1-2.84-3.34" transform="translate(-388.1 -261.19)"/><path class="cls-14" d="M428.71,283.2l5.75.06a3.12,3.12,0,0,1-2.91,3.28" transform="translate(-388.1 -261.19)"/><path class="cls-14" d="M431.55,286.54a3.11,3.11,0,0,1-2.84-3.34" transform="translate(-388.1 -261.19)"/><path class="cls-13" d="M428.6,283.07a7.22,7.22,0,0,1,2.93-.3,8.25,8.25,0,0,1,3.05.35,8.13,8.13,0,0,1-3.06.28c-1.59,0-2.92-.15-2.92-.33" transform="translate(-388.1 -261.19)"/><path class="cls-15" d="M428.6,283.07a7.22,7.22,0,0,1,2.93-.3,8.25,8.25,0,0,1,3.05.35,8.13,8.13,0,0,1-3.06.28c-1.59,0-2.92-.15-2.92-.33" transform="translate(-388.1 -261.19)"/><path class="cls-16" d="M432.31,276.92c0,.47.33.8.2,1.37-.16.73-1.32.9-1.24,1.94a1.47,1.47,0,0,0,.78,1.07,1.67,1.67,0,0,1-.45-1.43c.13-.75,1.14-1,1.24-1.58A1.89,1.89,0,0,0,432.31,276.92Z" transform="translate(-388.1 -261.19)"/><path class="cls-16" d="M430.85,274.85c.06.52.44,1,.39,1.65-.11,1.28-2,1.39-1.7,3.09.12.62.63.8,1,1.36-.47-.79-1-1.56-.46-2.51s1.44-.8,1.5-1.87A2.78,2.78,0,0,0,430.85,274.85Z" transform="translate(-388.1 -261.19)"/><path class="cls-17" d="M437.28,286.17l-.6-2.19-1.74.24-.08.21a3,3,0,0,1-.66-.24,7.44,7.44,0,0,0-1.94,0c-.42,0-1-.08-1.08.1s.15.42.63.47l.75.06a3.75,3.75,0,0,1-.69.77c-.43.35-1,.91-.82,1.14a3.88,3.88,0,0,0,2.1.27c.47-.12,1.43-1.23,1.43-1.23l.3,1A5,5,0,0,1,437.28,286.17Z" transform="translate(-388.1 -261.19)"/><path class="cls-11" d="M444.2,300.7c-.54-1.38-.32-9.72-.32-9.72.21,0,.41,0,.39-.31-.07-.92-.35-6.21-.35-6.21s1.67-.65,1.46-1.47l-2-7s.13.35.08.35a4.17,4.17,0,0,0-1.87-1.79c-.46-.18-.53-.18-.63-.15a2.26,2.26,0,0,1-1.31.76,2.18,2.18,0,0,1-1.71-.47c-1.7.8-2.28,3.77-2.3,4.65a6.34,6.34,0,0,1-.05.67l0,0-.48,4.69.27,0c0,.47-.08.92-.11,1.32-.1,1.41-.13,3.46-.25,4.84,0,.26.27,0,.25.28a95.59,95.59,0,0,0,.14,10.31c.06.71.11,1.74.18,2.82l.16,5.41a31.94,31.94,0,0,1-2.93,2.31c-.29.3-.32.62.16.74,1.22.31,4.31-1.11,5-1,.91.16,1.26-.3,1.24-1.22V310l.32,0-.12-7.36h0c0-4.23.22-7.41.22-7.27a50,50,0,0,0,.91,5.75s1.82,6.73,2.07,8a1.55,1.55,0,0,0,0,.15l.23,1.08.31-.05c0,.26,0,.58,0,.89a2.59,2.59,0,0,1-.23,1.64,1.91,1.91,0,0,0,2.42,0c.27-.31.24-.9.28-1.37a8.59,8.59,0,0,0,.06-1.52l.25,0Z" transform="translate(-388.1 -261.19)"/><path class="cls-18" d="M435.65,300.22" transform="translate(-388.1 -261.19)"/><path class="cls-19" d="M422.45,293.37l-10.22.07s-.22.48.26.48,1.46-.09,1.74.19.11,1,.59,1l4.81,0c.34,0,.43-.48.67-.72s0-.29,1-.29S422.65,293.57,422.45,293.37Z" transform="translate(-388.1 -261.19)"/><rect class="cls-2" x="32.57" y="34.96" width="4.54" height="20.97"/><polyline class="cls-13" points="49.09 35.98 19.91 35.98 19.91 33.79 49.09 33.79"/><path class="cls-13" d="M391.86,283.39S398.49,301,393,317.74H391.6s5-11.59-.82-34Z" transform="translate(-388.1 -261.19)"/><path class="cls-13" d="M407.52,302.59s1,13,1.59,14.47h-1.59c-1.57-9.19-1.71-9.17-1.47-14.47Z" transform="translate(-388.1 -261.19)"/><path class="cls-13" d="M407.83,303.28a1.38,1.38,0,0,1-1.25,1.48H395.3a1.51,1.51,0,0,1,0-3h11.28a1.39,1.39,0,0,1,1.25,1.49" transform="translate(-388.1 -261.19)"/><path class="cls-20" d="M405.88,281.17c-.54,1.85-2.13,3-3.56,2.54s-2.14-2.32-1.6-4.17,2.13-3,3.56-2.54,2.15,2.32,1.6,4.17" transform="translate(-388.1 -261.19)"/><path class="cls-20" d="M394.88,297.48c0,.16,0,.32,0,.47s.43.21.43.41a5.06,5.06,0,0,0,.09,1.1c.09,1.37,1.09,2.6,4.51,2.39l7,0c.91.23.95,1.29.95,1.75,0,.83,1.5,11.65,1.5,11.65h.27a1.88,1.88,0,0,0-.07,1.24c.18.59,1.26.45,2.25.62,1.17.21,4.7-.14,5-.94.11-.29.22-.62-.22-.64s-1.37-.4-1.9-.45a3.75,3.75,0,0,1-1.44-.5l.35-.29-1.54-11.89s-.13-3.31-2.37-4.07a54.11,54.11,0,0,0-6.64-1.9c-.15-.09-.45-.51-.38-.35.19.44.95.55.72-.16,0-.07-.17-3-.06-5,1.32,1.13,2.42,2,2.42,2l5.13,2.34.27-.46a.92.92,0,0,0,.66.35c1.08,0,3.66,0,3.66,0s1.21,0,.32-.39c-.19-.08-3.24-1.3-3.74-1.48l.29-.39L407,290.29l-3.69-5.54a5.24,5.24,0,0,0-.27-.65h-.19a2.5,2.5,0,0,1-.66-.09,2.9,2.9,0,0,1-1.86-1.92,5.54,5.54,0,0,0-2.77,2.27,21.44,21.44,0,0,0-2.66,8.23A21,21,0,0,0,394.88,297.48Z" transform="translate(-388.1 -261.19)"/><rect class="cls-21" x="0.37" y="60.18" width="60.01" height="10.4"/><rect class="cls-1" x="30.26" y="55.19" width="9.02" height="0.87"/><path class="cls-8" d="M417.38,275.24a.62.62,0,1,1-1.23,0,.62.62,0,0,1,1.23,0Z" transform="translate(-388.1 -261.19)"/><path class="cls-8" d="M419.3,275.24a.62.62,0,0,1-.62.62.61.61,0,0,1-.61-.62.61.61,0,0,1,.61-.61A.61.61,0,0,1,419.3,275.24Z" transform="translate(-388.1 -261.19)"/><path class="cls-8" d="M421.22,275.24a.62.62,0,0,1-1.24,0,.62.62,0,0,1,1.24,0Z" transform="translate(-388.1 -261.19)"/><path class="cls-8" d="M423.14,275.24a.62.62,0,0,1-1.24,0,.62.62,0,0,1,1.24,0Z" transform="translate(-388.1 -261.19)"/><path class="cls-8" d="M426.53,275.24a.62.62,0,1,1-1.24,0,.62.62,0,0,1,1.24,0Z" transform="translate(-388.1 -261.19)"/><rect class="cls-22" x="49.8" y="60.18" width="10.67" height="10.4"/><path d="M441,330.05v-.94l.84-.76c1.46-1.31,2.16-2.05,2.17-2.82,0-.54-.31-1-1.08-1a2.46,2.46,0,0,0-1.41.54l-.44-1.1a3.61,3.61,0,0,1,2.16-.68,2.05,2.05,0,0,1,2.32,2.07,4.13,4.13,0,0,1-1.76,2.86l-.61.5v0h2.5v1.27Z" transform="translate(-388.1 -261.19)"/></svg>