<svg id="Layer_1" data-name="Layer 1" xmlns="http://www.w3.org/2000/svg" viewBox="0 0 60.42 70.59"><defs><style>.cls-1{fill:#ccc;}.cls-2{fill:#e6e6e6;}.cls-3{fill:#e9e9e9;}.cls-4{fill:#e2e1e1;}.cls-5{fill:#d4d4d4;}.cls-6{fill:#ebebeb;}.cls-7{fill:#cacaca;}.cls-7,.cls-8{opacity:0.63;}.cls-8{fill:#e7e7e7;}.cls-15,.cls-9{fill:none;}.cls-9{stroke:#1d1d1b;}.cls-10{fill:#d3d3d3;}.cls-11{fill:#c7c7c7;}.cls-11,.cls-16{fill-rule:evenodd;}.cls-12{fill:#7f7b7a;}.cls-13{fill:#908c8a;}.cls-14,.cls-16{fill:#12100b;}.cls-15{stroke:#fff;stroke-miterlimit:10;}.cls-17{fill:#fff;}.cls-18{fill:#bfbfbf;}.cls-19{fill:#f2f2f2;}</style></defs><path class="cls-1" d="M447.9,284.43l-26.55-6.51-.47.4-1.23-.28a46.66,46.66,0,0,0-5.15,5c-1,1.2-1.87,2-1.39,2.61-.44,1,.53,1.49,5.48,1.75,3.22.18,18.07.16,29.31,0Z" transform="translate(-388.14 -261.19)"/><path class="cls-2" d="M447.9,283.52,421.44,277l-.47.41-1.23-.28a46.66,46.66,0,0,0-5.15,5c-1,1.2-1.86,2-1.39,2.61-.44,1,.53,1.49,5.48,1.76,3.21.17,18,.15,29.22,0Z" transform="translate(-388.14 -261.19)"/><path class="cls-3" d="M420.61,279" transform="translate(-388.14 -261.19)"/><path class="cls-3" d="M420.61,279" transform="translate(-388.14 -261.19)"/><rect class="cls-4" x="33.06" y="9.29" width="15.44" height="13.7"/><polygon class="cls-5" points="33.75 7.41 47.97 7.41 49.69 10.72 31.64 10.72 33.75 7.41"/><path class="cls-5" d="M419.88,271.91s.51,1,1.14,1,.89-.46,1.18-1Z" transform="translate(-388.14 -261.19)"/><path class="cls-5" d="M422.14,271.91s.51,1,1.14,1,.89-.46,1.18-1Z" transform="translate(-388.14 -261.19)"/><path class="cls-5" d="M424.39,271.91s.51,1,1.14,1,.89-.46,1.19-1Z" transform="translate(-388.14 -261.19)"/><path class="cls-5" d="M426.65,271.91s.52,1,1.15,1,.89-.46,1.18-1Z" transform="translate(-388.14 -261.19)"/><path class="cls-5" d="M428.93,271.91s.51,1,1.14,1,.89-.46,1.18-1Z" transform="translate(-388.14 -261.19)"/><path class="cls-5" d="M431.19,271.91s.52,1,1.15,1,.89-.46,1.18-1Z" transform="translate(-388.14 -261.19)"/><path class="cls-5" d="M433.47,271.91s.47,1,1.06,1,.82-.46,1.09-1Z" transform="translate(-388.14 -261.19)"/><path class="cls-5" d="M435.56,271.91s.48,1,1.06,1,.82-.46,1.09-1Z" transform="translate(-388.14 -261.19)"/><rect class="cls-6" x="34.15" y="15.49" width="3.78" height="5.35"/><rect class="cls-6" x="43.92" y="15.49" width="3.78" height="5.35"/><polygon class="cls-5" points="34.13 14.74 37.89 14.74 38.34 15.98 33.57 15.98 34.13 14.74"/><path class="cls-5" d="M421.74,277.17s.13.37.3.37.23-.18.31-.37Z" transform="translate(-388.14 -261.19)"/><path class="cls-5" d="M422.34,277.17s.13.37.3.37.23-.18.31-.37Z" transform="translate(-388.14 -261.19)"/><path class="cls-5" d="M422.93,277.17s.14.37.3.37.24-.18.32-.37Z" transform="translate(-388.14 -261.19)"/><path class="cls-5" d="M423.53,277.17s.14.37.3.37.24-.18.32-.37Z" transform="translate(-388.14 -261.19)"/><path class="cls-5" d="M424.13,277.17s.14.37.31.37.23-.18.31-.37Z" transform="translate(-388.14 -261.19)"/><path class="cls-5" d="M424.73,277.17s.14.37.3.37.24-.18.32-.37Z" transform="translate(-388.14 -261.19)"/><path class="cls-5" d="M425.33,277.17s.13.37.28.37.22-.18.29-.37Z" transform="translate(-388.14 -261.19)"/><path class="cls-5" d="M425.89,277.17s.12.37.28.37.21-.18.29-.37Z" transform="translate(-388.14 -261.19)"/><polygon class="cls-5" points="44.08 14.74 47.58 14.74 48.01 15.98 43.56 15.98 44.08 14.74"/><path class="cls-5" d="M431.73,277.17s.13.37.28.37.22-.18.29-.37Z" transform="translate(-388.14 -261.19)"/><path class="cls-5" d="M432.29,277.17s.12.37.28.37.22-.18.29-.37Z" transform="translate(-388.14 -261.19)"/><path class="cls-5" d="M432.84,277.17s.13.37.28.37.22-.18.29-.37Z" transform="translate(-388.14 -261.19)"/><path class="cls-5" d="M433.4,277.17s.12.37.28.37.22-.18.29-.37Z" transform="translate(-388.14 -261.19)"/><path class="cls-5" d="M434,277.17s.13.37.28.37.22-.18.29-.37Z" transform="translate(-388.14 -261.19)"/><path class="cls-5" d="M434.52,277.17s.12.37.28.37.22-.18.29-.37Z" transform="translate(-388.14 -261.19)"/><path class="cls-5" d="M435.08,277.17s.11.37.26.37.2-.18.27-.37Z" transform="translate(-388.14 -261.19)"/><path class="cls-5" d="M435.59,277.17s.12.37.26.37.2-.18.27-.37Z" transform="translate(-388.14 -261.19)"/><rect class="cls-7" x="38.74" y="14.13" width="4.6" height="8.86"/><rect class="cls-8" x="39.13" y="14.79" width="1.63" height="3.65"/><rect class="cls-8" x="41.13" y="14.79" width="1.63" height="3.65"/><rect class="cls-8" x="39.13" y="18.73" width="1.63" height="3.65"/><rect class="cls-8" x="41.13" y="18.73" width="1.63" height="3.65"/><rect class="cls-9" x="0.5" y="0.5" width="59.42" height="59.42"/><path class="cls-10" d="M433.17,298.24,406,298.17l-1.78,3.77,31.17.44Zm3.5,6.47-34.83.39-2.33,4.51,39.63-.33Zm-6.48-12-20.67.06L408,295.55l23.74.07Zm-2.26-4.17-16,.26-1.17,2,18.49.13Zm13.72,25.36-44.68.13-3.42,6.05,51.58.26Z" transform="translate(-388.14 -261.19)"/><polygon class="cls-10" points="4.83 59.24 8.63 52.52 53.5 52.39 53.7 52.39 57.55 59.51 4.83 59.24 4.83 59.24"/><polygon class="cls-10" points="9.03 53.19 5.97 58.58 56.42 58.83 53.3 53.06 9.03 53.19 9.03 53.19"/><polygon class="cls-1" points="53.21 52.89 53.5 52.73 53.21 52.89 53.21 52.89"/><polygon class="cls-10" points="13.49 43.58 48.52 43.18 48.72 43.18 51.56 48.42 10.81 48.76 13.49 43.58 13.49 43.58"/><polygon class="cls-10" points="13.9 44.24 11.92 48.08 50.43 47.76 48.33 43.86 13.9 44.24 13.9 44.24"/><polygon class="cls-1" points="48.23 43.68 48.52 43.52 48.23 43.68 48.23 43.68"/><polygon class="cls-10" points="15.57 41.07 17.67 36.64 45.02 36.71 45.02 37.04 44.73 37.2 45.02 37.04 45.02 36.71 45.22 36.71 47.83 41.53 15.57 41.07 15.57 41.07"/><polygon class="cls-10" points="16.63 40.42 46.7 40.84 44.82 37.38 18.09 37.31 16.63 40.42 16.63 40.42"/><polygon class="cls-10" points="19.3 34.69 21.18 31.27 42.04 31.2 42.24 31.2 44.17 34.76 19.3 34.69 19.3 34.69"/><polygon class="cls-10" points="21.58 31.93 20.43 34.02 43.04 34.09 41.84 31.87 21.58 31.93 21.58 31.93"/><polygon class="cls-10" points="41.75 31.69 42.04 31.54 41.75 31.69 41.75 31.69"/><polygon class="cls-10" points="22.22 30.32 23.77 27.64 39.97 27.38 40.17 27.38 41.85 30.47 22.22 30.32 22.22 30.32"/><polygon class="cls-10" points="24.16 28.31 23.38 29.66 40.72 29.79 39.78 28.05 24.16 28.31 24.16 28.31"/><polygon class="cls-1" points="39.49 27.53 39.79 27.37 39.49 27.53 39.49 27.53"/><path class="cls-11" d="M441.42,269.19c0-.13.16.06.17.11.24-.45.92-.75.79-1.24h.28c-.16.51.58.72.74,1.24a.25.25,0,0,0,.16-.17c.09.17,0,.31.17.29,0,.24-.26.18-.33.33a2.47,2.47,0,0,0-.17,1.64c-.52-.05-.22.45-.57.5,0,.09.15.12.29.12,0,.16-.17.13-.17.28a53.69,53.69,0,0,0,.17,7.32c0,.18-.09.17-.12.28.58.66,0,2.55.51,3.49.08.29-.26.16-.23.4.07.63,1.21.47.91,1.29a14.23,14.23,0,0,1-3,0c-.29-.79.77-.68.9-1.24.08-.28-.26-.15-.22-.39.54-.93-.08-2.87.5-3.49-.07-2.18.3-5.48,0-7.94a.29.29,0,0,1,.22-.06c-.26-.17-.13-.54-.56-.62a1.71,1.71,0,0,0-.51-1.86C441.28,269.33,441.65,269.43,441.42,269.19Zm.68,2h.11a2.74,2.74,0,0,0-.11-1.57h-.39C442,269.94,441.88,270.72,442.1,271.16Zm.39,0c.23-.37.08-1.12.23-1.57h-.45C442.4,270.06,442.27,270.78,442.49,271.16Zm.23,0h.34a2.93,2.93,0,0,1,.28-1.57h-.45A5.81,5.81,0,0,0,442.72,271.16Z" transform="translate(-388.14 -261.19)"/><path class="cls-12" d="M416.91,294.18a11.2,11.2,0,0,0,.26,1.51,13.59,13.59,0,0,0,.49,2,2.07,2.07,0,0,0,.64,1c.53.53,1.46,5.72,1.46,6.21a7,7,0,0,1-.53,2.93c-.24.51-3.06,2.43-1.88,2.24.57-.1-5,.21-2.67.21.62,0-1.26.16-1.61-.19a4.33,4.33,0,0,1-.9-2.83c0-1.28,0-3.63,0-4.48a33.38,33.38,0,0,1,1.64-3.84,13.21,13.21,0,0,0,1-2.74c.18-.68.42-2.1.42-2.1s.21.34.26.12c.09-.38.15.05.15.37s-.22,1.49-.28,2c-.11.94-.72,3.23-.72,3.61,0,.9,2.34,1.22,2.22.93s0-2.33-.06-3.4,0-1.28-.18-2.47a8.82,8.82,0,0,1,0-1.61Z" transform="translate(-388.14 -261.19)"/><path class="cls-12" d="M398.3,293.81a11.2,11.2,0,0,1-.26,1.51,12.16,12.16,0,0,1-.49,2c-.27.67-.11,1-.64,1s-1.33.8-1.66,1.13-.72.47-.87.74a.37.37,0,0,0-.05.18c0,.37-.3.61,0,.91s.81.34,1,.52a16.45,16.45,0,0,1-.26,2.6v4.73a3.39,3.39,0,0,0,2.49,1.3c1.14,0,2.42.06,2.67-.2s0,0,.31-.31,1.26.15,1.61-.2a4.29,4.29,0,0,0,.91-2.82c0-1.29,0-3.63,0-4.49,0-.24-1.5-3-1.93-3.83a12.09,12.09,0,0,1-.7-2.75c-.18-.68-.42-2.1-.42-2.1s-.21.34-.26.13c-.09-.39-.15.05-.15.36a14.41,14.41,0,0,1,.28,2,4.34,4.34,0,0,1-.51,1.54.74.74,0,0,1-.51.31,2.16,2.16,0,0,1-.24-1.06v-3.73Z" transform="translate(-388.14 -261.19)"/><path class="cls-13" d="M416.89,294.15a10.32,10.32,0,0,0,.25,1.51,14.64,14.64,0,0,0,.49,2,2.07,2.07,0,0,0,.65,1c.53.53,1.45,5.72,1.45,6.21a17,17,0,0,1-.31,3.44c-.08.41-.08.65-.45.78-.56.21-.54,1.12-1.23,1.12-1.14,0-2.65,0-3.09,0-.63,0-1.26.15-1.61-.2a4.36,4.36,0,0,1-.9-2.82c0-1.29,0-3.63,0-4.49a33.36,33.36,0,0,1,1.64-3.83,13.56,13.56,0,0,0,1-2.75c.17-.68.41-2.1.41-2.1s.22.34.27.13c.08-.39.14,0,.14.36s-.22,1.5-.28,2c-.11.95-1,3.63-.85,4,.47.95,2.05,2.06,2.74,1.39.2-.19,0-.51,0-1.59a10.1,10.1,0,0,0-.12-2.89c-.16-.65-.22-1.09-.48-2.21a5.7,5.7,0,0,1,0-1.61Z" transform="translate(-388.14 -261.19)"/><path class="cls-13" d="M398.3,293.81a11.2,11.2,0,0,1-.26,1.51,12.16,12.16,0,0,1-.49,2c-.27.67-.11,1-.64,1s-1.33.8-1.66,1.13-.72.47-.87.74a.37.37,0,0,0-.05.18c0,.37-.3.61,0,.91s.81.34,1,.52a16.45,16.45,0,0,1-.26,2.6v4.73a3.39,3.39,0,0,0,2.49,1.3c1.14,0,2.42.06,2.67-.2s0,0,.31-.31,1.26.15,1.61-.2a4.29,4.29,0,0,0,.91-2.82c0-1.29,0-3.63,0-4.49,0-.24-1.5-3-1.93-3.83a12.09,12.09,0,0,1-.7-2.75c-.18-.68-.42-2.1-.42-2.1s-.21.34-.26.13c-.09-.39-.15.05-.15.36a14.41,14.41,0,0,1,.28,2c-.11.72,1.52,3.66,1.37,4-1,2.2-1.88.08-1.88.08a25,25,0,0,1-.75-3.29v-3.73Z" transform="translate(-388.14 -261.19)"/><path class="cls-14" d="M410.83,271.77c0,1.93-1.15,3.5-2.58,3.5s-2.57-1.57-2.57-3.5,1.15-3.5,2.57-3.5,2.58,1.57,2.58,3.5" transform="translate(-388.14 -261.19)"/><path class="cls-15" d="M411.12,271.47c0,2.29-1.29,4.16-2.88,4.16s-2.89-1.87-2.89-4.16,1.3-4.15,2.89-4.15S411.12,269.18,411.12,271.47Z" transform="translate(-388.14 -261.19)"/><path class="cls-14" d="M416.37,290.6s-.06.68-.06,1.18.56.69.56,1.19a3.54,3.54,0,0,1-.47,1.29l-.27.08-.19.05s-.19,0-.45-.3a3.92,3.92,0,0,1-.68-1.93v-1.69Z" transform="translate(-388.14 -261.19)"/><path class="cls-14" d="M398.73,290.63s.06.69.06,1.19-.56.68-.56,1.18a3,3,0,0,0,.62,1.28l.34,0,.16,0a.25.25,0,0,0,.26-.09,3.26,3.26,0,0,0,.68-1.93v-1.68Z" transform="translate(-388.14 -261.19)"/><polygon class="cls-13" points="11.69 32.27 11.53 32.08 11.41 33.05 11.99 33.53 11.69 32.27"/><polygon class="cls-13" points="27.28 32.35 27.44 32.16 27.56 33.13 26.98 33.6 27.28 32.35"/><path class="cls-16" d="M400.21,292.47l0,0C400.2,292.19,400.21,292.25,400.21,292.47Zm15.56-6.33c-1.33-5.31-2.3-8.75-4-10.31a5.65,5.65,0,0,0-1.75-1.08,2.24,2.24,0,0,1-3.62-.09,5.32,5.32,0,0,0-1.66.88c-1.55,1.21-3,5.9-6.36,16.24,0,.06.35.14.34.21-.25,1.75.72,1.62,1.13,1.9s.38-.94.37-1.42c-.07,0-.29-.17-.25-.25s.37,0,.43,0c.74.58,4.37-10.69,3.91-8.94.18-.68-.89,4.57-1.46,8.06-.19,1.2-.33,1.88.23,2,0,0-.23,4.89.06,5.67,0,0,.3,4.1.41,4.47,0,0,.92,8.89,1.18,10.54,0,0,.44,0,.44,0l0,.06c-.46.59-.83,1.08-1.11,1.48-1.7,2.46-.81,2.45.64,2.11,0,0,1.65-1,2.72-1.56a7.54,7.54,0,0,0,.15-2s.19.06.19-.13.13-16.43.45-17.47c0,0,.09,11.85.37,13.53,0,.15.28.18.3.15s-1.95,4.64.2,4.87c0,0,1-.15,1.94-2.79a4.52,4.52,0,0,0,0-2.11s.44,0,.47,0c.28.11,1.85-15.84,1.85-17.2a.46.46,0,0,0,.33-.53c-.41-3.12-1-8.18-1.2-8.74a69.94,69.94,0,0,1,2.22,8.5c0,.2.38,0,.38,0-.28,2.86.32,3,1.08,1.13.56-.17.45.33.27-1.06,0-.15.48,0,.48-.11Z" transform="translate(-388.14 -261.19)"/><path class="cls-14" d="M416.37,290.6s-.06.68-.06,1.18.56.69.56,1.19a3.54,3.54,0,0,1-.47,1.29l-.27.08-.19.05s-.19,0-.45-.3a3.92,3.92,0,0,1-.68-1.93v-1.69Z" transform="translate(-388.14 -261.19)"/><path class="cls-14" d="M398.73,290.63s.06.69.06,1.19-.56.68-.56,1.18a3,3,0,0,0,.62,1.28l.34,0,.16,0a.25.25,0,0,0,.26-.09,3.26,3.26,0,0,0,.68-1.93v-1.68Z" transform="translate(-388.14 -261.19)"/><polygon class="cls-13" points="11.69 32.27 11.53 32.08 11.41 33.05 11.99 33.53 11.69 32.27"/><polygon class="cls-13" points="27.28 32.35 27.44 32.16 27.56 33.13 26.98 33.6 27.28 32.35"/><path class="cls-17" d="M415.73,298.37" transform="translate(-388.14 -261.19)"/><path class="cls-17" d="M419.12,300.28" transform="translate(-388.14 -261.19)"/><rect class="cls-18" x="0.18" y="60.18" width="60.01" height="10.4"/><rect class="cls-19" x="49.71" y="60.18" width="10.67" height="10.4"/><path d="M445.85,326.71c0,2-.82,3.45-2.5,3.45s-2.47-1.54-2.48-3.41.81-3.43,2.52-3.43S445.85,324.9,445.85,326.71Zm-3.43,0c0,1.52.37,2.24,1,2.24s.92-.75.92-2.26-.31-2.24-.93-2.24S442.42,325.2,442.42,326.75Z" transform="translate(-388.14 -261.19)"/></svg>