<svg id="Layer_1" data-name="Layer 1" xmlns="http://www.w3.org/2000/svg" viewBox="0 0 60.42 70.61"><defs><style>.cls-1{fill:#1d1d1b;}.cls-2,.cls-6{fill:#12100b;}.cls-2{fill-rule:evenodd;}.cls-11,.cls-3{fill:#fff;}.cls-3,.cls-5,.cls-9{stroke:#1d1d1b;}.cls-3{stroke-width:0.75px;}.cls-4{fill:#5d5757;}.cls-5,.cls-7,.cls-9{fill:none;}.cls-5,.cls-7{stroke-miterlimit:10;stroke-width:1.5px;}.cls-7{stroke:#4d4d4d;}.cls-8{fill:#333;}.cls-10{fill:#bfbfbf;}.cls-12{fill:#f2f2f2;}</style></defs><path class="cls-1" d="M416.34,281.53" transform="translate(-388.17 -261.19)"/><path class="cls-1" d="M414,278.7" transform="translate(-388.17 -261.19)"/><path class="cls-1" d="M408.07,284.47" transform="translate(-388.17 -261.19)"/><path class="cls-1" d="M409.65,286" transform="translate(-388.17 -261.19)"/><path class="cls-1" d="M417.74,276.6" transform="translate(-388.17 -261.19)"/><path class="cls-1" d="M415.83,286.54" transform="translate(-388.17 -261.19)"/><path class="cls-1" d="M417.44,274.93" transform="translate(-388.17 -261.19)"/><path class="cls-2" d="M390.3,303.66c.4,0,.41-.67.7-.86,0-.2,0-.45-.15-.56.09-.11.3,0,.32-.27s-.18-.39-.05-.74.46-.59,1-.39c.43.53-.44,1.91.59,2,.26-.16.32-.88.31-1.2a4.33,4.33,0,0,0,.11-.91,4.12,4.12,0,0,0,.24-.84l.44.2,4.57-8.7c-.32.79-.67,1.62-1.15,2.66-.66,1.45-1.79,5.55-3.3,9.31-.13.34-.16.76,0,.93l.33,0-.06,3.89c-.12,2.51-.1,2.38-.23,4.76q-.31,5.42-.67,10.81c-.08,1.11-.2,2.22-.31,3.33,2-.39,4.06-.77,6.1-1.11,1-4.74,2.52-12.73,2.6-15.39,0-.22-.16,5.91-.17,12.59,0,.81,0,1.61,0,2.4q3-.47,6-.78c.08-1.33.14-2.55.23-3.43.36-3.76.38-12.22.58-15.53l.21,0c.16-.32.09.07.16-.32.4-2.48.33-3.3.78-5.5.59-2.95,1.47-7.31,2.42-11.37l.44.34a28.54,28.54,0,0,0,3.66,2.15l0,0a.66.66,0,0,0,.19.09,1.72,1.72,0,0,0,1.87-.23,2.62,2.62,0,0,0,.71-1.76l-.64-2.8-1-4.54a1.13,1.13,0,0,0,.14-.28c-.21.05-.43.09-.65.12a2.64,2.64,0,0,1,.25-1.32c.26-.74.19-.89.37-1.44a12.76,12.76,0,0,0-.18-2.67c0-.6-2-1.25-2.28-1.25s-.69.69-.69,1.06-.48,1-.59.93a5.87,5.87,0,0,1-.26-1.19l-.52,2.71.84.83a2.81,2.81,0,0,1,.87,1.43c.26.67.15.8.06,1h-.34v0l.67,3.81-3.91-5-.87.88a2.84,2.84,0,0,0-.58-.44,27.37,27.37,0,0,0-2.72-.71c-1.38-.28-.46-.52-1.93-.38l-.16,0c-.57-.05-3.46.08-8.39,7.3a99.71,99.71,0,0,0-5.23,9.56l-.8,1.58.64.29a9.62,9.62,0,0,0-.75,1.16,10,10,0,0,1-.5,1.49,11.85,11.85,0,0,0,.09,1.22C389.82,303.13,389.83,303.54,390.3,303.66Z" transform="translate(-388.17 -261.19)"/><path class="cls-3" d="M422.36,266.14c4,0,7.28,2.06,7.28,4.59,0,1.47-1.1,2.77-2.81,3.61l2.51,4.21-4-3.64a10.82,10.82,0,0,1-3,.4c-4,0-7.28-2.05-7.28-4.58S418.34,266.14,422.36,266.14Z" transform="translate(-388.17 -261.19)"/><rect class="cls-4" x="29.73" y="8.01" width="8.26" height="0.9"/><rect class="cls-4" x="29.73" y="9.53" width="8.26" height="0.9"/><rect class="cls-4" x="34.91" y="10.96" width="3.14" height="0.94"/><path class="cls-5" d="M438.15,278.67" transform="translate(-388.17 -261.19)"/><path class="cls-5" d="M434.58,279.7" transform="translate(-388.17 -261.19)"/><path class="cls-5" d="M432.48,280.91" transform="translate(-388.17 -261.19)"/><path class="cls-6" d="M430.59,284.09" transform="translate(-388.17 -261.19)"/><path class="cls-7" d="M437.3,283.52" transform="translate(-388.17 -261.19)"/><path class="cls-8" d="M430.4,278c.4,2.76,2.44,4.7,4.56,4.35s3.53-2.86,3.14-5.61-2.44-4.7-4.56-4.35S430,275.2,430.4,278" transform="translate(-388.17 -261.19)"/><path class="cls-8" d="M416.69,295c.32,0,.37.05.41,0a.12.12,0,0,1,.11.13c0,.07-.11.25.2.33s.59-.05.58,0-.05.15.15.24a2.24,2.24,0,0,0,.7.16c.25,0,.37,0,.42.13s0,.24.27.25a1.3,1.3,0,0,0,.61,0,12.21,12.21,0,0,0,1.36-.57c0,.13-.05.27-.08.41a1.15,1.15,0,0,1-.06.17v0l3.55.82a20.36,20.36,0,0,0,3.58.63c-.06.73-.11,1.42-.16,2-.16,2.19-.21,5.36-.38,7.51,0,.39.41,0,.38.42-.18,2.43-.18,9.4.06,13.89h6.37c.1-4.25.33-6.77.34-6.6a61.47,61.47,0,0,0,.83,6.6h6.56c-.12-2.05-.26-4.1-.38-6.15-.13-2.34-.1-2.21-.22-4.67l-.08-3c.33,0,.46-.48.43-.9-.1-1.43-.23-2.88-.35-4.21,1.67-1.6,5.89-5.83,5.44-7.41s-6.47-11.05-6.47-11.05h-.1a5.08,5.08,0,0,0-2.67-2.23c-.71-.28-.83-.28-1-.23a3.46,3.46,0,0,1-2,1.17,3.37,3.37,0,0,1-2.64-.72c-2.63,1.23-3.52,5.85-3.56,7.21-.09,3.29-1.38,3.49-1.38,3.49l-5.9-.67-.08.43h0l0,.35a.9.9,0,0,1-.46-.22,1.47,1.47,0,0,0-.64-.29c-.21-.07-1-.06-1.37-.11s-.79-.1-1.12-.18a2.2,2.2,0,0,0-.76-.09.29.29,0,0,0-.27.36c.06.22.5.48.82.54s.71.07.82.08.32,0,.32.05a.4.4,0,0,1-.21.31c-.17.07-1.58.68-1.71.76a3.93,3.93,0,0,0-.39.24C416.48,294.54,416.36,295,416.69,295Zm24.93-.58.78,1.26-.83.8C441.59,295.76,441.61,295.09,441.62,294.42Z" transform="translate(-388.17 -261.19)"/><rect class="cls-9" x="0.5" y="0.5" width="59.42" height="59.42"/><rect class="cls-10" x="0.2" y="60.21" width="60.01" height="10.4"/><path class="cls-6" d="M413.54,278.7c-1.2,2.7-3.85,4.11-5.92,3.14s-2.78-3.95-1.58-6.66,3.84-4.1,5.91-3.13,2.79,3.95,1.59,6.65" transform="translate(-388.17 -261.19)"/><path class="cls-11" d="M407.48,282.14a4.55,4.55,0,0,1-2.36-4.28h0a7,7,0,0,1,.61-2.81h0a5.63,5.63,0,0,1,4.83-3.64h0a3.66,3.66,0,0,1,1.54.34h0a4.54,4.54,0,0,1,2.36,4.28h0a7,7,0,0,1-.61,2.81h0l-.62-.27.62.27a5.67,5.67,0,0,1-4.83,3.64h0a3.6,3.6,0,0,1-1.54-.34Zm-1.14-6.82a6.4,6.4,0,0,0-.55,2.54h0a3.87,3.87,0,0,0,2,3.67h0a2.9,2.9,0,0,0,1.26.28h0a5,5,0,0,0,4.21-3.24h0a6.26,6.26,0,0,0,.55-2.54h0a3.86,3.86,0,0,0-2-3.67h0a2.89,2.89,0,0,0-1.25-.28h0a5,5,0,0,0-4.2,3.24Z" transform="translate(-388.17 -261.19)"/><rect class="cls-12" x="49.66" y="60.19" width="10.67" height="10.4"/><path d="M441,330.05v-.94l.84-.76c1.46-1.3,2.16-2,2.17-2.82,0-.54-.31-1-1.08-1a2.49,2.49,0,0,0-1.41.54L441,324a3.67,3.67,0,0,1,2.16-.68,2,2,0,0,1,2.32,2.07,4.07,4.07,0,0,1-1.76,2.86l-.61.51v0h2.5v1.27Z" transform="translate(-388.17 -261.19)"/></svg>