<svg id="Layer_1" data-name="Layer 1" xmlns="http://www.w3.org/2000/svg" viewBox="0 0 60.42 70.63"><defs><style>.cls-1{fill:#1d1d1b;}.cls-2,.cls-6{fill:#12100b;}.cls-2{fill-rule:evenodd;}.cls-11,.cls-3{fill:#fff;}.cls-3,.cls-5,.cls-9{stroke:#1d1d1b;}.cls-3{stroke-width:0.75px;}.cls-4{fill:#5d5757;}.cls-5,.cls-7,.cls-9{fill:none;}.cls-5,.cls-7{stroke-miterlimit:10;stroke-width:1.5px;}.cls-7{stroke:#4d4d4d;}.cls-8{fill:#333;}.cls-10{fill:#bfbfbf;}.cls-12{fill:#f2f2f2;}</style></defs><path class="cls-1" d="M401.64,301.31" transform="translate(-388.13 -261.17)"/><path class="cls-1" d="M412.32,278.69" transform="translate(-388.13 -261.17)"/><path class="cls-1" d="M413.9,271.42" transform="translate(-388.13 -261.17)"/><path class="cls-1" d="M409.39,276.43" transform="translate(-388.13 -261.17)"/><path class="cls-1" d="M404.85,283.41" transform="translate(-388.13 -261.17)"/><path class="cls-1" d="M410.53,273.93" transform="translate(-388.13 -261.17)"/><path class="cls-1" d="M406.74,284.56" transform="translate(-388.13 -261.17)"/><path class="cls-1" d="M412.61,273.54" transform="translate(-388.13 -261.17)"/><path class="cls-1" d="M412.93,283.72" transform="translate(-388.13 -261.17)"/><path class="cls-1" d="M411.94,272" transform="translate(-388.13 -261.17)"/><path class="cls-2" d="M390.73,305.78c.09.42.2.82.69.82s.24-.74.48-1c-.07-.2-.09-.44-.28-.51.06-.14.28-.12.25-.34s-.28-.34-.23-.72.31-.68.9-.62c.54.41,0,2,1,1.86.22-.22.11-.95,0-1.25a4.32,4.32,0,0,0-.1-.92,4.52,4.52,0,0,0,0-1.37l.88.19,2.35-8.53c-.1.54-.22,1.13-.37,1.81-.34,1.57-.56,5.84-1.23,9.86-.06.36,0,.79.23.91h.17l0,2.79c0,2.53,0,2.4-.08,4.8-.1,3.64-.21,7.27-.35,10.9,0,1.27-.15,2.55-.23,3.82q3-.18,5.89-.24c.77-4,2.41-11.68,2.4-14.65,0-.23,0,3.51.2,10.23.05,1.49.15,3,.25,4.39,1.93,0,3.86,0,5.82,0,.11-2.35.12-4.88.22-6.41.26-3.91,0-12.85.12-15.94h.33c.08-.34,0,0,0-.4-.14-2.52-.27-4.54-.3-6.8,0-2.53-.11-6.08-.09-9.63a29.38,29.38,0,0,0,2.9,1.1l0,0,.2.06a1.72,1.72,0,0,0,1.83-.51,2.66,2.66,0,0,0,.45-1.85l-1.05-2.69-1.71-4.38a1.62,1.62,0,0,0,.12-.36l-.63.13a2.71,2.71,0,0,1,.05-1.07c.1-.78,0-.91.07-1.5a13.19,13.19,0,0,0-.72-2.59c-.12-.59-2.26-.81-2.5-.77s-.54.82-.46,1.19-.27,1.12-.4,1a6,6,0,0,1-.49-1.12l0,2.78,1,.65c.59.39.59.39,1.15,1.23a1.75,1.75,0,0,1,.3.66,1.83,1.83,0,0,1-.57,0l.1.1,1.23,3.69-1-.94a8.23,8.23,0,0,0-3.95-3.86c-.29-.06-2.05-.12-2.83-.11-1.41,0-.56-.41-2,0a4.8,4.8,0,0,0-2.22,1.42c-1.2,1.18-2.79,3.42-4.5,7.66a98,98,0,0,0-3.09,10.53l-.45,1.72.53.12a16.82,16.82,0,0,0-.65,1.81,11.22,11.22,0,0,1-.13,1.58C390.44,305,390.61,305.38,390.73,305.78Z" transform="translate(-388.13 -261.17)"/><path class="cls-3" d="M420.91,266.13c4,0,7.28,2.05,7.28,4.58,0,1.47-1.1,2.78-2.81,3.62l2.52,4.21-4-3.64a11.16,11.16,0,0,1-3,.4c-4,0-7.28-2.06-7.28-4.59S416.89,266.13,420.91,266.13Z" transform="translate(-388.13 -261.17)"/><rect class="cls-4" x="28.32" y="8.01" width="8.27" height="0.9"/><rect class="cls-4" x="28.32" y="9.53" width="8.27" height="0.9"/><rect class="cls-4" x="33.5" y="10.96" width="3.13" height="0.94"/><path class="cls-5" d="M435.86,278.66" transform="translate(-388.13 -261.17)"/><path class="cls-5" d="M434,279.68" transform="translate(-388.13 -261.17)"/><path class="cls-5" d="M431.87,280.89" transform="translate(-388.13 -261.17)"/><path class="cls-6" d="M430,284.07" transform="translate(-388.13 -261.17)"/><path class="cls-7" d="M435,283.51" transform="translate(-388.13 -261.17)"/><path class="cls-8" d="M429.79,277.94c.4,2.75,2.44,4.7,4.56,4.35s3.53-2.87,3.14-5.62-2.44-4.69-4.56-4.35-3.53,2.87-3.14,5.62" transform="translate(-388.13 -261.17)"/><path class="cls-8" d="M416.08,295a1.77,1.77,0,0,1,.41,0,.11.11,0,0,1,.11.12c0,.07-.11.26.2.34s.59-.06.57,0,0,.15.16.24a2.24,2.24,0,0,0,.7.16c.25,0,.37,0,.42.13s0,.24.27.26a1.32,1.32,0,0,0,.61-.05,10.52,10.52,0,0,0,1.36-.57c0,.14-.05.27-.08.42a1.77,1.77,0,0,1-.06.17v0l3.55.81a20.36,20.36,0,0,0,3.58.63c-.06.74-.11,1.43-.16,2-.16,2.19-.21,5.36-.38,7.51,0,.39.41,0,.38.42-.18,2.43-.18,9.41.06,13.89h6.37c.1-4.25.33-6.76.34-6.59a61.34,61.34,0,0,0,.83,6.59h6.56c-.12-2.05-.26-4.1-.38-6.15-.13-2.33-.1-2.21-.22-4.67l-.08-3c.34,0,.46-.48.43-.9-.1-1.43-.23-2.88-.35-4.22,1.67-1.59,5.89-5.82,5.44-7.41s-6.47-11.05-6.47-11.05h-.1a5.17,5.17,0,0,0-2.67-2.23c-.71-.27-.83-.27-1-.23a3.53,3.53,0,0,1-2,1.18,3.45,3.45,0,0,1-2.64-.72c-2.63,1.23-3.53,5.84-3.56,7.2-.09,3.29-1.38,3.5-1.38,3.5L421,292.2l-.07.43h0l0,.35a.89.89,0,0,1-.46-.21,1.49,1.49,0,0,0-.64-.3c-.21-.06-1-.06-1.37-.11s-.79-.1-1.12-.18a2.51,2.51,0,0,0-.77-.09c-.12,0-.33.14-.26.36s.5.48.82.54a5.54,5.54,0,0,0,.82.08c.11,0,.32,0,.32.06a.38.38,0,0,1-.22.3c-.16.08-1.57.68-1.7.77a2.66,2.66,0,0,0-.39.24C415.87,294.52,415.75,295,416.08,295ZM441,294.4l.78,1.26-.83.8C441,295.75,441,295.07,441,294.4Z" transform="translate(-388.13 -261.17)"/><rect class="cls-9" x="0.5" y="0.5" width="59.42" height="59.42"/><rect class="cls-10" x="0.2" y="60.21" width="60.01" height="10.4"/><path class="cls-6" d="M409,276.53c-.58,2.92-2.87,4.88-5.12,4.38s-3.6-3.26-3-6.18,2.87-4.87,5.11-4.38,3.61,3.26,3,6.18" transform="translate(-388.13 -261.17)"/><path class="cls-11" d="M403.76,281.24c-2.1-.48-3.42-2.67-3.42-5.16h0a6.81,6.81,0,0,1,.14-1.41h0c.54-2.73,2.52-4.72,4.74-4.73h0a3,3,0,0,1,.78.09h0c2.1.47,3.42,2.67,3.42,5.15h0a7.76,7.76,0,0,1-.14,1.42h0l-.33-.07.33.07c-.55,2.72-2.52,4.71-4.75,4.72h0a3.42,3.42,0,0,1-.77-.08Zm-2.62-6.44a6.25,6.25,0,0,0-.13,1.28h0c0,2.27,1.2,4.14,2.89,4.51h0a3.36,3.36,0,0,0,.63.06h0c1.79,0,3.59-1.69,4.09-4.18h0a6.42,6.42,0,0,0,.13-1.29h0c0-2.27-1.21-4.14-2.9-4.5h0a2.7,2.7,0,0,0-.63-.07h0c-1.78,0-3.57,1.7-4.06,4.19Z" transform="translate(-388.13 -261.17)"/><rect class="cls-12" x="49.74" y="60.22" width="10.67" height="10.4"/><path d="M443,324.82h0l-1.26.6-.25-1.16,1.76-.81h1.27v6.62H443Z" transform="translate(-388.13 -261.17)"/></svg>