<svg id="Layer_1" data-name="Layer 1" xmlns="http://www.w3.org/2000/svg" viewBox="0 0 60.42 70.61"><defs><style>.cls-1,.cls-3,.cls-7{fill:none;}.cls-1,.cls-5,.cls-7{stroke:#1d1d1b;}.cls-1,.cls-3{stroke-miterlimit:10;stroke-width:1.5px;}.cls-2{fill:#12100b;}.cls-3{stroke:#4d4d4d;}.cls-4{fill:#333;}.cls-5{fill:#fff;stroke-width:0.75px;}.cls-6{fill:#5d5757;}.cls-8{fill:#bfbfbf;}.cls-9{fill:#f2f2f2;}</style></defs><path class="cls-1" d="M439.65,282.28" transform="translate(-390.98 -264.79)"/><path class="cls-1" d="M437.76,283.3" transform="translate(-390.98 -264.79)"/><path class="cls-1" d="M435.66,284.51" transform="translate(-390.98 -264.79)"/><path class="cls-2" d="M433.77,287.69" transform="translate(-390.98 -264.79)"/><path class="cls-3" d="M402.55,288.37" transform="translate(-390.98 -264.79)"/><path class="cls-3" d="M404.44,289.39" transform="translate(-390.98 -264.79)"/><path class="cls-3" d="M438.8,287.13" transform="translate(-390.98 -264.79)"/><path class="cls-2" d="M406,281c-.39,2.74-2.43,4.68-4.54,4.33s-3.52-2.85-3.13-5.59,2.43-4.69,4.54-4.34,3.52,2.86,3.13,5.6" transform="translate(-390.98 -264.79)"/><path class="cls-4" d="M433.59,281.56c.39,2.75,2.43,4.69,4.55,4.34s3.53-2.86,3.14-5.61-2.44-4.7-4.56-4.35-3.53,2.87-3.13,5.62" transform="translate(-390.98 -264.79)"/><path class="cls-5" d="M423.54,269.75c4,0,7.28,2.05,7.28,4.58,0,1.47-1.1,2.77-2.8,3.61l2.51,4.21-4-3.64a10.89,10.89,0,0,1-3,.41c-4,0-7.28-2.06-7.28-4.59S419.52,269.75,423.54,269.75Z" transform="translate(-390.98 -264.79)"/><rect class="cls-6" x="28.1" y="8.01" width="8.27" height="0.9"/><rect class="cls-6" x="28.1" y="9.53" width="8.27" height="0.9"/><rect class="cls-6" x="33.28" y="10.96" width="3.14" height="0.94"/><path class="cls-4" d="M419.87,298.6a1.77,1.77,0,0,1,.41,0,.11.11,0,0,1,.11.12c0,.07-.11.25.2.33s.59-.05.58,0-.05.15.15.24a2.24,2.24,0,0,0,.7.16c.25,0,.37,0,.42.13s0,.24.27.26a1.44,1.44,0,0,0,.61-.05,10.52,10.52,0,0,0,1.36-.57c0,.14-.05.27-.08.41s0,.11-.05.17v0l3.55.81a20.36,20.36,0,0,0,3.58.63c-.06.73-.11,1.42-.16,2-.16,2.19-.21,5.36-.38,7.51,0,.39.41,0,.38.42-.18,2.43-.18,9.4.06,13.89h6.37c.1-4.25.34-6.77.34-6.6a61.16,61.16,0,0,0,.83,6.6h6.57c-.13-2.05-.27-4.1-.38-6.15-.14-2.34-.11-2.21-.23-4.67l-.08-3c.34,0,.46-.47.43-.89-.1-1.44-.23-2.88-.35-4.22,1.67-1.59,5.89-5.82,5.44-7.41S444,287.81,444,287.81h-.1a5.13,5.13,0,0,0-2.67-2.23c-.71-.27-.83-.27-1-.23a3.46,3.46,0,0,1-2,1.17,3.42,3.42,0,0,1-2.65-.71c-2.63,1.22-3.52,5.84-3.56,7.2-.09,3.29-1.38,3.5-1.38,3.5l-5.9-.68-.08.43h0l0,.35a.89.89,0,0,1-.46-.21,1.39,1.39,0,0,0-.64-.3c-.21-.06-1-.06-1.37-.11s-.79-.1-1.11-.18a2.27,2.27,0,0,0-.77-.09.29.29,0,0,0-.27.36c.06.22.5.48.82.54a5.54,5.54,0,0,0,.82.08c.11,0,.32,0,.32.06a.39.39,0,0,1-.21.3c-.17.08-1.58.68-1.71.77a4,4,0,0,0-.39.23C419.66,298.14,419.55,298.59,419.87,298.6ZM444.8,298l.78,1.26-.83.8C444.77,299.37,444.79,298.69,444.8,298Z" transform="translate(-390.98 -264.79)"/><path class="cls-5" d="M407.3,282.92l3.51.17c.68-1.81,3.25-3.15,6.33-3.15,3.59,0,6.51,1.84,6.51,4.1s-2.92,4.1-6.51,4.1c-3.39,0-6.17-1.63-6.48-3.71Z" transform="translate(-390.98 -264.79)"/><rect class="cls-6" x="22.25" y="17.64" width="7.39" height="0.81"/><rect class="cls-6" x="22.25" y="19" width="7.39" height="0.81"/><rect class="cls-6" x="26.88" y="20.28" width="2.81" height="0.84"/><path class="cls-2" d="M394.78,301.55c-.13,2-.18,5.27-.52,8.42,0,.42.09.92.43.9l-.08,3c-.12,2.46-.09,2.34-.23,4.67s-.27,4.45-.41,6.67h6.63a80,80,0,0,0,1.34-9c0-.18-.1,3.88-.14,9h6.28c.27-4.5.29-12.15.5-14.35.05-.39.53,0,.48-.43-.23-2-.57-4.37-.79-6.37,1.26,1.87,2.32,3.42,2.32,3.42l.37-.27a4.56,4.56,0,0,0,.33,1.63,4.62,4.62,0,0,0,.13.92c0,.33.07,1.07.33,1.23,1.05-.15.15-1.55.57-2.1.57-.2.88,0,1,.39s-.1.46,0,.76.24.15.33.27c-.17.12-.13.36-.15.58.31.19.32.82.73.86.48-.12.48-.55.47-1a10.13,10.13,0,0,0,.07-1.25,11.76,11.76,0,0,1-.52-1.52c-.43-.8-1-1.39-1.45-2.17l.72-.54-.19-.93-1.7-4.38a1,1,0,0,0,.65-.34c.25-.26,1.42-1.14,1.57-1.32s.19-.17.21-.48-.25-.24-.25-.24.58-.34.59-.61-.24-.39-.55-.26-.79.41-1.15.58a5.09,5.09,0,0,1-1.4.23.36.36,0,0,1-.36-.21l.77-.41a1.55,1.55,0,0,0,.49-.73c.09-.22-.07-.23-.07-.23s-.43.12-.7.22l-1.11.41c-1-2.57-1.88-4.91-2.06-5.48-.8-2.52-1.58-3.8-2.28-4.37a10.42,10.42,0,0,0-1.91-1.47,3.47,3.47,0,0,1-2.65.72,3.5,3.5,0,0,1-2-1.18c-.14,0-.26,0-1,.24a4.49,4.49,0,0,0-2.91,3.28,28.55,28.55,0,0,0-1.34,4.33c-.39,2-1.21,5.32-1,7A2.46,2.46,0,0,0,394.78,301.55Z" transform="translate(-390.98 -264.79)"/><rect class="cls-7" x="0.5" y="0.5" width="59.42" height="59.42"/><rect class="cls-8" x="0.21" y="60.21" width="60.01" height="10.4"/><rect class="cls-9" x="49.54" y="60.19" width="10.67" height="10.4"/><path d="M448.52,330.31c0,2-.83,3.45-2.51,3.45s-2.46-1.53-2.47-3.4.8-3.43,2.51-3.43S448.52,328.5,448.52,330.31Zm-3.43.05c0,1.51.36,2.23,1,2.23s.93-.75.93-2.26-.32-2.23-.94-2.23S445.09,328.81,445.09,330.36Z" transform="translate(-390.98 -264.79)"/></svg>