<svg xmlns="http://www.w3.org/2000/svg" xmlns:xlink="http://www.w3.org/1999/xlink" viewBox="0 0 60.43 70.65"><defs><style>.cls-1,.cls-3,.cls-9{fill:none;}.cls-2{isolation:isolate;}.cls-3{stroke:gray;stroke-miterlimit:10;stroke-width:4px;}.cls-4{clip-path:url(#clip-path);}.cls-5{fill:#fff;}.cls-6{fill:#1d1d1b;}.cls-7{mix-blend-mode:multiply;}.cls-8{clip-path:url(#clip-path-2);}.cls-9{stroke:#1d1d1b;}.cls-10{fill:#bfbfbf;}.cls-11{fill:#f2f2f2;}</style><clipPath id="clip-path" transform="translate(-388.12 -261.16)"><rect class="cls-1" x="398.84" y="280.31" width="39.08" height="17.6"/></clipPath><clipPath id="clip-path-2" transform="translate(-388.12 -261.16)"><rect class="cls-1" x="412.3" y="288.18" width="25.11" height="6.28"/></clipPath></defs><g class="cls-2"><g id="Layer_1" data-name="Layer 1"><path class="cls-3" d="M445.13,291.11a26.76,26.76,0,1,1-26.76-26.76A26.76,26.76,0,0,1,445.13,291.11Z" transform="translate(-388.12 -261.16)"/><g class="cls-4"><path class="cls-5" d="M412.76,290.78A2.91,2.91,0,0,1,414,289a2.08,2.08,0,0,1,1.24-.44h19.66a2.87,2.87,0,0,1,2.38,2.85c0,.07,0,.13,0,.19a6.7,6.7,0,0,1,.14,1.37c0,2.46-1.28,4.44-2.86,4.44H415.25c-1.58,0-2.86-2-2.86-4.44a6.27,6.27,0,0,1,.37-2.18" transform="translate(-388.12 -261.16)"/><path class="cls-6" d="M415.26,297.93c-2.08-.06-3.39-2.37-3.4-5h0a6.84,6.84,0,0,1,.39-2.32h0a3.37,3.37,0,0,1,1.45-2.1h0a2.57,2.57,0,0,1,1.56-.55h19.58l.16,0h0a3.39,3.39,0,0,1,2.81,3.37h0v.15h0a7.18,7.18,0,0,1,.13,1.41h0c0,2.6-1.31,4.91-3.38,5h-19.3Zm-2-7,0,0a5.94,5.94,0,0,0-.34,2h0a5.4,5.4,0,0,0,.76,2.86h0a2,2,0,0,0,1.59,1.06h19.3a2,2,0,0,0,1.58-1.06h0a5.4,5.4,0,0,0,.75-2.86h0a5.73,5.73,0,0,0-.13-1.26h0v-.13a1.31,1.31,0,0,0,0-.17h0a2.35,2.35,0,0,0-1.92-2.33h0l-.15,0H415.26a1.58,1.58,0,0,0-1,.36h0a2.34,2.34,0,0,0-1,1.49h0v0Z" transform="translate(-388.12 -261.16)"/><g class="cls-7"><g class="cls-8"><path class="cls-5" d="M412.55,291.32a2.86,2.86,0,0,0,2.82,2.89h19a2.89,2.89,0,0,0,0-5.77h-19a2.85,2.85,0,0,0-2.82,2.88" transform="translate(-388.12 -261.16)"/><path class="cls-6" d="M415.37,294.47a3.12,3.12,0,0,1-3.08-3.15h0a3.12,3.12,0,0,1,3.08-3.15h19a3.13,3.13,0,0,1,3.09,3.15h0a3.13,3.13,0,0,1-3.09,3.15h-19Zm0-.53h19a2.58,2.58,0,0,0,2.55-2.62h0a2.58,2.58,0,0,0-2.55-2.62h-19a2.58,2.58,0,0,0-2.55,2.62h0a2.58,2.58,0,0,0,2.55,2.62Z" transform="translate(-388.12 -261.16)"/></g></g><polygon class="cls-6" points="36.51 33.2 36.51 27.27 37.04 27.27 37.04 33.2 36.51 33.2 36.51 33.2"/><path class="cls-5" d="M399.11,284.82c0-1.89,1.07-3.41,2.39-3.41h9.88c1.32,0,2.39,1.52,2.39,3.41a3.72,3.72,0,0,1-1.37,3.08c-.85,1.1-3.21,1.9-6,1.9s-5.32-.86-6.08-2a3.86,3.86,0,0,1-1.21-3" transform="translate(-388.12 -261.16)"/><path class="cls-6" d="M400.11,288a4.09,4.09,0,0,1-1.28-3.14h0c0-2,1.11-3.67,2.67-3.69h9.88c1.56,0,2.67,1.71,2.67,3.69h0a4,4,0,0,1-1.46,3.28h0c-1,1.21-3.37,2-6.19,2h0c-2.92,0-5.38-.82-6.29-2.12Zm-.72-3.14a3.61,3.61,0,0,0,1.1,2.74h0l0,0,0,0c.63,1,3,1.91,5.85,1.9h0c2.73,0,5.05-.82,5.78-1.79h0l0,0,0,0a3.39,3.39,0,0,0,1.25-2.84h0c0-1.8-1-3.13-2.11-3.13H401.5c-1.08,0-2.11,1.33-2.11,3.13Z" transform="translate(-388.12 -261.16)"/><path class="cls-5" d="M399.34,283.39c0,1.55,3.18,2.8,7.09,2.8s7.09-1.25,7.09-2.8-3.17-2.79-7.09-2.79-7.09,1.25-7.09,2.79" transform="translate(-388.12 -261.16)"/><path class="cls-6" d="M401.31,285.64c-1.32-.52-2.24-1.25-2.27-2.25h0c0-1,.95-1.73,2.27-2.25h0a14.49,14.49,0,0,1,5.12-.84h0a14.59,14.59,0,0,1,5.13.84h0c1.31.52,2.24,1.25,2.26,2.25h0c0,1-.95,1.73-2.26,2.25h0a14.37,14.37,0,0,1-5.13.84h0a14.27,14.27,0,0,1-5.12-.84Zm.21-.55a13.87,13.87,0,0,0,4.91.8h0a13.87,13.87,0,0,0,4.91-.8h0c1.25-.48,1.91-1.15,1.89-1.7h0c0-.54-.64-1.21-1.89-1.7h0a13.87,13.87,0,0,0-4.91-.8h0a13.87,13.87,0,0,0-4.91.8h0c-1.25.49-1.91,1.16-1.89,1.7h0c0,.55.64,1.22,1.89,1.7Z" transform="translate(-388.12 -261.16)"/><polygon class="cls-6" points="18.02 25.03 18.02 19.43 18.6 19.43 18.6 25.03 18.02 25.03 18.02 25.03"/></g><line class="cls-3" x1="9.72" y1="10.61" x2="49.63" y2="46.24"/><rect class="cls-9" x="0.5" y="0.5" width="59.42" height="59.42"/><rect class="cls-10" x="0.22" y="60.24" width="60.01" height="10.4"/><rect class="cls-11" x="49.75" y="60.24" width="10.67" height="10.4"/><path d="M445.87,326.74c0,2-.82,3.45-2.5,3.45s-2.46-1.54-2.48-3.41.81-3.43,2.52-3.43S445.87,324.93,445.87,326.74Zm-3.43,0c0,1.51.37,2.24,1,2.24s.92-.76.92-2.26-.31-2.24-.93-2.24S442.44,325.23,442.44,326.78Z" transform="translate(-388.12 -261.16)"/></g></g></svg>