<svg xmlns="http://www.w3.org/2000/svg" xmlns:xlink="http://www.w3.org/1999/xlink" viewBox="0 0 60.42 70.65"><defs><style>.cls-1,.cls-7{fill:none;}.cls-2{isolation:isolate;}.cls-3{fill:#fff;}.cls-4{fill:#1d1d1b;}.cls-5{mix-blend-mode:multiply;}.cls-6{clip-path:url(#clip-path);}.cls-7{stroke:#1d1d1b;}.cls-8{fill:#bfbfbf;}.cls-9{fill:#f2f2f2;}</style><clipPath id="clip-path" transform="translate(-388.13 -261.16)"><rect class="cls-1" x="411.52" y="291.21" width="30.39" height="6.96"/></clipPath></defs><g class="cls-2"><g id="Layer_1" data-name="Layer 1"><path class="cls-3" d="M412.07,294.09a3.21,3.21,0,0,1,1.52-2,2.63,2.63,0,0,1,1.5-.49h23.38l.18,0h.1l.16,0a3.27,3.27,0,0,1,2.88,3.15c0,.07,0,.14,0,.21a7.43,7.43,0,0,1,.16,1.51c0,2.71-1.55,4.91-3.47,4.91H415.09c-1.92,0-3.47-2.2-3.47-4.91a6.42,6.42,0,0,1,.45-2.41" transform="translate(-388.13 -261.16)"/><path class="cls-4" d="M438.47,301.93H415.09c-2.36-.05-4-2.55-4-5.43h0a7,7,0,0,1,.47-2.56h0a3.76,3.76,0,0,1,1.76-2.31h0a3.09,3.09,0,0,1,1.76-.55h23.73l.18,0h0a3.78,3.78,0,0,1,3.31,3.65h0c0,.07,0,.12,0,.17h0a7.75,7.75,0,0,1,.16,1.55h0c0,2.88-1.63,5.38-4,5.43Zm.16-9.81H415.09a2.13,2.13,0,0,0-1.21.4h0a2.69,2.69,0,0,0-1.31,1.7v.07l-.48-.19-.51-.12.51.12.48.19h0a6,6,0,0,0-.42,2.22h0a5.57,5.57,0,0,0,.93,3.18h0a2.55,2.55,0,0,0,2,1.22h23.38a2.55,2.55,0,0,0,2-1.22h0a5.64,5.64,0,0,0,.92-3.18h0a6.23,6.23,0,0,0-.16-1.39V295h0a1.44,1.44,0,0,0,0-.18h0a2.73,2.73,0,0,0-2.44-2.63h0l-.14,0h-.06Z" transform="translate(-388.13 -261.16)"/><g class="cls-5"><g class="cls-6"><path class="cls-3" d="M411.81,294.69a3.31,3.31,0,0,0,3.42,3.19h23a3.2,3.2,0,1,0,0-6.38h-23a3.31,3.31,0,0,0-3.42,3.19" transform="translate(-388.13 -261.16)"/><path class="cls-4" d="M438.21,298.14h-23a3.57,3.57,0,0,1-3.67-3.45h0a3.57,3.57,0,0,1,3.67-3.45h23a3.57,3.57,0,0,1,3.67,3.45h0a3.57,3.57,0,0,1-3.67,3.45Zm3.15-3.45a3.06,3.06,0,0,0-3.15-2.93h-23a3,3,0,0,0-3.15,2.93h0a3.05,3.05,0,0,0,3.15,2.93h23a3.06,3.06,0,0,0,3.15-2.93Z" transform="translate(-388.13 -261.16)"/></g></g><polygon class="cls-4" points="38.9 36.89 38.9 30.34 38.38 30.34 38.38 36.89 38.9 36.89 38.9 36.89"/><path class="cls-3" d="M395.53,287.5c0-2.08,1.29-3.76,2.89-3.76h12c1.6,0,2.89,1.68,2.89,3.76a4,4,0,0,1-1.66,3.41c-1,1.22-3.89,2.1-7.27,2.1s-6.45-.95-7.37-2.24a4.08,4.08,0,0,1-1.46-3.27" transform="translate(-388.13 -261.16)"/><path class="cls-4" d="M411.81,291.12c-1.17,1.32-4.05,2.15-7.45,2.16h0c-3.52,0-6.48-.9-7.56-2.31h0a4.39,4.39,0,0,1-1.55-3.47h0c0-2.18,1.36-4,3.17-4h12c1.81,0,3.16,1.86,3.17,4h0a4.29,4.29,0,0,1-1.76,3.62Zm-14.6-.51c.79,1.15,3.7,2.14,7.15,2.12h0c3.33,0,6.15-.89,7.06-2l0,0,0,0h0A3.67,3.67,0,0,0,413,287.5h0c0-2-1.24-3.48-2.62-3.49h-12c-1.38,0-2.62,1.51-2.62,3.49h0a3.78,3.78,0,0,0,1.35,3.05l0,0,0,0Z" transform="translate(-388.13 -261.16)"/><path class="cls-3" d="M395.8,285.93c0,1.71,3.85,3.09,8.6,3.09s8.59-1.38,8.59-3.09-3.85-3.09-8.59-3.09-8.6,1.38-8.6,3.09" transform="translate(-388.13 -261.16)"/><path class="cls-4" d="M410.57,288.39a19,19,0,0,1-6.17.92h0a19.08,19.08,0,0,1-6.18-.92h0c-1.57-.58-2.67-1.36-2.7-2.46h0c0-1.1,1.13-1.88,2.7-2.46h0a19.08,19.08,0,0,1,6.18-.92h0a19,19,0,0,1,6.17.92h0c1.58.58,2.68,1.36,2.71,2.46h0c0,1.1-1.13,1.88-2.71,2.46Zm-.19-4.37a18.26,18.26,0,0,0-6-.89h0a18.26,18.26,0,0,0-6,.89h0c-1.53.54-2.36,1.3-2.33,1.91h0c0,.61.8,1.37,2.33,1.91h0a18.53,18.53,0,0,0,6,.89h0a18.53,18.53,0,0,0,6-.89h0c1.53-.54,2.35-1.3,2.32-1.91h0c0-.61-.79-1.37-2.32-1.91Z" transform="translate(-388.13 -261.16)"/><polygon class="cls-4" points="16.56 27.86 16.56 21.68 15.98 21.68 15.98 27.86 16.56 27.86 16.56 27.86"/><rect class="cls-7" x="0.5" y="0.5" width="59.42" height="59.42"/><rect class="cls-8" x="0.2" y="60.24" width="60.01" height="10.4"/><rect class="cls-9" x="49.74" y="60.24" width="10.67" height="10.4"/><path d="M443,324.83h0l-1.26.6-.25-1.16,1.76-.81h1.27v6.62H443Z" transform="translate(-388.13 -261.16)"/></g></g></svg>