<svg xmlns="http://www.w3.org/2000/svg" xmlns:xlink="http://www.w3.org/1999/xlink" viewBox="0 0 60.42 70.65"><defs><style>.cls-1,.cls-10,.cls-11,.cls-12,.cls-15,.cls-17,.cls-18,.cls-19,.cls-20,.cls-21,.cls-23,.cls-24,.cls-4,.cls-5,.cls-6,.cls-7,.cls-8,.cls-9{fill:none;}.cls-2{isolation:isolate;}.cls-3{fill:#fff;}.cls-10,.cls-11,.cls-12,.cls-15,.cls-17,.cls-18,.cls-19,.cls-20,.cls-21,.cls-23,.cls-24,.cls-4,.cls-5,.cls-6,.cls-7,.cls-8,.cls-9{stroke:#1d1d1b;}.cls-10,.cls-11,.cls-12,.cls-15,.cls-17,.cls-18,.cls-19,.cls-20,.cls-21,.cls-23,.cls-4,.cls-5,.cls-6,.cls-7,.cls-8,.cls-9{stroke-miterlimit:10;}.cls-4{stroke-width:0.46px;}.cls-5{stroke-width:0.92px;}.cls-6{stroke-width:0.23px;}.cls-7{stroke-width:0.35px;}.cls-8{stroke-width:0.58px;}.cls-9{stroke-width:0.12px;}.cls-10{stroke-width:0.73px;}.cls-11{stroke-width:0.78px;}.cls-12{stroke-width:1.39px;}.cls-13{mix-blend-mode:multiply;}.cls-14{clip-path:url(#clip-path);}.cls-15{stroke-width:0.7px;}.cls-16{fill:#1d1d1b;}.cls-17{stroke-width:0.28px;}.cls-18{stroke-width:0.57px;}.cls-19{stroke-width:0.61px;}.cls-20{stroke-width:0.59px;}.cls-21{stroke-width:1.18px;}.cls-22{clip-path:url(#clip-path-2);}.cls-23{stroke-width:0.6px;}.cls-25{fill:#bfbfbf;}.cls-26{fill:#f2f2f2;}</style><clipPath id="clip-path" transform="translate(-388.13 -261.16)"><rect class="cls-1" x="391.96" y="300.63" width="13.94" height="3.19"/></clipPath><clipPath id="clip-path-2" transform="translate(-388.13 -261.16)"><rect class="cls-1" x="393.45" y="306.54" width="13.83" height="2.36"/></clipPath></defs><g class="cls-2"><g id="Layer_1" data-name="Layer 1"><polygon class="cls-3" points="36.2 15.99 35.13 15.99 35.13 15.28 35.81 15.28 35.81 14.74 35.13 14.74 35.13 14.1 27.79 14.1 27.79 14.74 27.11 14.74 27.11 15.28 27.79 15.28 27.79 15.99 26.72 15.99 26.72 16.46 27.79 16.46 27.79 31.09 35.13 31.09 35.13 16.46 36.2 16.46 36.2 15.99"/><polygon class="cls-4" points="36.2 15.99 35.13 15.99 35.13 15.28 35.81 15.28 35.81 14.74 35.13 14.74 35.13 14.1 27.79 14.1 27.79 14.74 27.11 14.74 27.11 15.28 27.79 15.28 27.79 15.99 26.72 15.99 26.72 16.46 27.79 16.46 27.79 31.09 35.13 31.09 35.13 16.46 36.2 16.46 36.2 15.99"/><rect class="cls-3" x="26.93" y="11.96" width="9.06" height="2.13" rx="0.24"/><rect class="cls-4" x="26.93" y="11.96" width="9.06" height="2.13" rx="0.24"/><path class="cls-3" d="M441.48,283.21h-1v-1.95H428.55v1.95h-1a2.13,2.13,0,0,0-2.13,2.13v12.41a2.12,2.12,0,0,0,1.61,2.06v.85h15v-.85a2.12,2.12,0,0,0,1.61-2.06V285.34a2.13,2.13,0,0,0-2.13-2.13" transform="translate(-388.13 -261.16)"/><path class="cls-5" d="M441.48,283.21h-1v-1.95H428.55v1.95h-1a2.13,2.13,0,0,0-2.13,2.13v12.41a2.12,2.12,0,0,0,1.61,2.06v.85h15v-.85a2.12,2.12,0,0,0,1.61-2.06V285.34A2.13,2.13,0,0,0,441.48,283.21Z" transform="translate(-388.13 -261.16)"/><rect class="cls-3" x="38.76" y="15.01" width="15.21" height="5.95" rx="0.24"/><rect class="cls-5" x="38.76" y="15.01" width="15.21" height="5.95" rx="0.24"/><line class="cls-6" x1="51.28" y1="15.87" x2="51.28" y2="20.06"/><line class="cls-7" x1="49.9" y1="15.87" x2="49.9" y2="20.06"/><line class="cls-4" x1="48.53" y1="15.87" x2="48.53" y2="20.06"/><line class="cls-8" x1="47.15" y1="15.87" x2="47.15" y2="20.06"/><line class="cls-8" x1="45.78" y1="15.87" x2="45.78" y2="20.06"/><line class="cls-4" x1="44.4" y1="15.87" x2="44.4" y2="20.06"/><line class="cls-7" x1="43.03" y1="15.87" x2="43.03" y2="20.06"/><line class="cls-6" x1="41.65" y1="15.87" x2="41.65" y2="20.06"/><line class="cls-9" x1="40.27" y1="15.87" x2="40.27" y2="20.06"/><line class="cls-9" x1="52.66" y1="15.87" x2="52.66" y2="20.06"/><rect class="cls-3" x="15.38" y="20.54" width="12.9" height="19.66" rx="0.29"/><rect class="cls-5" x="15.38" y="20.54" width="12.9" height="19.66" rx="0.29"/><path class="cls-3" d="M14.6,16.65H29a.27.27,0,0,1,.27.27v6.67a.27.27,0,0,1-.27.27H14.6a.26.26,0,0,1-.26-.26V16.92A.26.26,0,0,1,14.6,16.65Z"/><path class="cls-5" d="M14.6,16.65H29a.27.27,0,0,1,.27.27v6.67a.27.27,0,0,1-.27.27H14.6a.26.26,0,0,1-.26-.26V16.92A.26.26,0,0,1,14.6,16.65Z"/><line class="cls-5" x1="26.44" y1="17.91" x2="26.44" y2="22.98"/><line class="cls-5" x1="25.09" y1="17.91" x2="25.09" y2="22.98"/><line class="cls-5" x1="23.75" y1="17.91" x2="23.75" y2="22.98"/><line class="cls-5" x1="22.4" y1="17.91" x2="22.4" y2="22.98"/><line class="cls-5" x1="21.05" y1="17.91" x2="21.05" y2="22.98"/><line class="cls-5" x1="19.7" y1="17.91" x2="19.7" y2="22.98"/><line class="cls-5" x1="18.35" y1="17.91" x2="18.35" y2="22.98"/><line class="cls-5" x1="17" y1="17.91" x2="17" y2="22.98"/><line class="cls-5" x1="15.66" y1="17.91" x2="15.66" y2="22.98"/><line class="cls-5" x1="27.79" y1="17.91" x2="27.79" y2="22.98"/><path class="cls-3" d="M414.88,301a1.57,1.57,0,0,0-1.33-1.73h-5.49a1.58,1.58,0,0,0-1.33,1.73,1.81,1.81,0,0,0,.77,1.56,4.78,4.78,0,0,0,3.33,1c1.6,0,2.95-.43,3.38-1a1.87,1.87,0,0,0,.67-1.5" transform="translate(-388.13 -261.16)"/><path class="cls-10" d="M414.88,301a1.57,1.57,0,0,0-1.33-1.73h-5.49a1.58,1.58,0,0,0-1.33,1.73,1.81,1.81,0,0,0,.77,1.56,4.78,4.78,0,0,0,3.33,1c1.6,0,2.95-.43,3.38-1A1.87,1.87,0,0,0,414.88,301Z" transform="translate(-388.13 -261.16)"/><path class="cls-3" d="M414.75,300.23c0,.78-1.76,1.42-3.94,1.42s-3.94-.64-3.94-1.42,1.76-1.42,3.94-1.42,3.94.64,3.94,1.42" transform="translate(-388.13 -261.16)"/><path class="cls-11" d="M414.75,300.23c0,.78-1.76,1.42-3.94,1.42s-3.94-.64-3.94-1.42,1.76-1.42,3.94-1.42S414.75,299.45,414.75,300.23Z" transform="translate(-388.13 -261.16)"/><line class="cls-11" x1="22.68" y1="37.65" x2="22.68" y2="40.49"/><path class="cls-3" d="M401.18,298a1.13,1.13,0,0,0,.05-.32c0-1-1.41-1.83-3.14-1.83s-3.15.82-3.15,1.83a1.15,1.15,0,0,0,.08.41v.9a1.28,1.28,0,0,0-.06.34c0,1,1.41,1.83,3.14,1.83s3.13-.82,3.13-1.83a1.13,1.13,0,0,0-.05-.32Z" transform="translate(-388.13 -261.16)"/><path class="cls-5" d="M401.18,298a1.13,1.13,0,0,0,.05-.32c0-1-1.41-1.83-3.14-1.83s-3.15.82-3.15,1.83a1.15,1.15,0,0,0,.08.41v.9a1.28,1.28,0,0,0-.06.34c0,1,1.41,1.83,3.14,1.83s3.13-.82,3.13-1.83a1.13,1.13,0,0,0-.05-.32Z" transform="translate(-388.13 -261.16)"/><path class="cls-3" d="M401.21,297.53c0,1-1.4,1.83-3.14,1.83s-3.15-.81-3.15-1.83,1.41-1.83,3.15-1.83,3.14.82,3.14,1.83" transform="translate(-388.13 -261.16)"/><path class="cls-5" d="M401.21,297.53c0,1-1.4,1.83-3.14,1.83s-3.15-.81-3.15-1.83,1.41-1.83,3.15-1.83S401.21,296.52,401.21,297.53Z" transform="translate(-388.13 -261.16)"/><path class="cls-3" d="M405.64,302A1.46,1.46,0,0,0,405,301a1.27,1.27,0,0,0-.69-.23H393.33a1.49,1.49,0,0,0-1.32,1.45s0,.06,0,.09a3.13,3.13,0,0,0-.08.7c0,1.24.71,2.25,1.59,2.25h10.73c.88,0,1.59-1,1.59-2.25a3,3,0,0,0-.21-1.11" transform="translate(-388.13 -261.16)"/><path class="cls-12" d="M405.64,302A1.46,1.46,0,0,0,405,301a1.27,1.27,0,0,0-.69-.23H393.33a1.49,1.49,0,0,0-1.32,1.45s0,.06,0,.09a3.13,3.13,0,0,0-.08.7c0,1.24.71,2.25,1.59,2.25h10.73c.88,0,1.59-1,1.59-2.25A3,3,0,0,0,405.64,302Z" transform="translate(-388.13 -261.16)"/><g class="cls-13"><g class="cls-14"><path class="cls-3" d="M405.76,302.22a1.52,1.52,0,0,1-1.57,1.47H393.65a1.47,1.47,0,1,1,0-2.93h10.54a1.52,1.52,0,0,1,1.57,1.46" transform="translate(-388.13 -261.16)"/><path class="cls-15" d="M405.76,302.22a1.52,1.52,0,0,1-1.57,1.47H393.65a1.47,1.47,0,1,1,0-2.93h10.54A1.52,1.52,0,0,1,405.76,302.22Z" transform="translate(-388.13 -261.16)"/></g></g><line class="cls-15" x1="10.77" y1="39.6" x2="10.77" y2="42.6"/><path class="cls-16" d="M411,304c0,1.16-1.6,2.1-3.59,2.1s-3.59-.94-3.59-2.1,1.61-2.1,3.59-2.1,3.59.94,3.59,2.1" transform="translate(-388.13 -261.16)"/><path class="cls-3" d="M407.43,302.89a8.84,8.84,0,0,1,2.52.28,4.55,4.55,0,0,0-5.37.16h0a5.61,5.61,0,0,1,2.81-.44" transform="translate(-388.13 -261.16)"/><path class="cls-3" d="M410.27,303.44h0l0,0v0" transform="translate(-388.13 -261.16)"/><rect class="cls-3" x="31.54" y="24.26" width="8.31" height="20.5" rx="0.6"/><rect class="cls-5" x="31.54" y="24.26" width="8.31" height="20.5" rx="0.6"/><path class="cls-3" d="M429.07,284.42a.3.3,0,0,1-.29-.3v-.7a.3.3,0,0,0-.3-.29h-.12a.3.3,0,0,1-.3-.3V281a.29.29,0,0,0-.29-.29H419.9a.3.3,0,0,0-.3.29v1.85a.3.3,0,0,1-.29.3h-.13a.29.29,0,0,0-.29.29v.7a.31.31,0,0,1-.3.3h-.34a.3.3,0,0,0-.3.29v1.56a.3.3,0,0,0,.3.3h11.16a.29.29,0,0,0,.3-.3v-1.56a.29.29,0,0,0-.3-.29Z" transform="translate(-388.13 -261.16)"/><path class="cls-5" d="M429.07,284.42a.3.3,0,0,1-.29-.3v-.7a.3.3,0,0,0-.3-.29h-.12a.3.3,0,0,1-.3-.3V281a.29.29,0,0,0-.29-.29H419.9a.3.3,0,0,0-.3.29v1.85a.3.3,0,0,1-.29.3h-.13a.29.29,0,0,0-.29.29v.7a.31.31,0,0,1-.3.3h-.34a.3.3,0,0,0-.3.29v1.56a.3.3,0,0,0,.3.3h11.16a.29.29,0,0,0,.3-.3v-1.56a.29.29,0,0,0-.3-.29Z" transform="translate(-388.13 -261.16)"/><line class="cls-3" x1="30.39" y1="23.54" x2="30.39" y2="25.09"/><line class="cls-17" x1="30.39" y1="23.54" x2="30.39" y2="25.09"/><line class="cls-3" x1="36.76" y1="23.54" x2="36.76" y2="25.09"/><line class="cls-17" x1="36.76" y1="23.54" x2="36.76" y2="25.09"/><line class="cls-3" x1="36.06" y1="23.54" x2="36.06" y2="25.09"/><line class="cls-17" x1="36.06" y1="23.54" x2="36.06" y2="25.09"/><line class="cls-3" x1="34.64" y1="23.54" x2="34.64" y2="25.09"/><line class="cls-17" x1="34.64" y1="23.54" x2="34.64" y2="25.09"/><line class="cls-3" x1="33.93" y1="23.54" x2="33.93" y2="25.09"/><line class="cls-17" x1="33.93" y1="23.54" x2="33.93" y2="25.09"/><line class="cls-3" x1="33.22" y1="23.54" x2="33.22" y2="25.09"/><line class="cls-17" x1="33.22" y1="23.54" x2="33.22" y2="25.09"/><line class="cls-3" x1="32.52" y1="23.54" x2="32.52" y2="25.09"/><line class="cls-17" x1="32.52" y1="23.54" x2="32.52" y2="25.09"/><line class="cls-3" x1="31.81" y1="23.54" x2="31.81" y2="25.09"/><line class="cls-17" x1="31.81" y1="23.54" x2="31.81" y2="25.09"/><line class="cls-3" x1="41.01" y1="23.54" x2="41.01" y2="25.09"/><line class="cls-17" x1="41.01" y1="23.54" x2="41.01" y2="25.09"/><line class="cls-3" x1="31.1" y1="23.54" x2="31.1" y2="25.09"/><line class="cls-17" x1="31.1" y1="23.54" x2="31.1" y2="25.09"/><line class="cls-3" x1="39.59" y1="23.54" x2="39.59" y2="25.09"/><line class="cls-17" x1="39.59" y1="23.54" x2="39.59" y2="25.09"/><line class="cls-3" x1="38.89" y1="23.54" x2="38.89" y2="25.09"/><line class="cls-17" x1="38.89" y1="23.54" x2="38.89" y2="25.09"/><line class="cls-3" x1="38.18" y1="23.54" x2="38.18" y2="25.09"/><line class="cls-17" x1="38.18" y1="23.54" x2="38.18" y2="25.09"/><line class="cls-3" x1="37.47" y1="23.54" x2="37.47" y2="25.09"/><line class="cls-17" x1="37.47" y1="23.54" x2="37.47" y2="25.09"/><line class="cls-3" x1="40.3" y1="23.54" x2="40.3" y2="25.09"/><line class="cls-17" x1="40.3" y1="23.54" x2="40.3" y2="25.09"/><line class="cls-3" x1="35.35" y1="23.54" x2="35.35" y2="25.09"/><line class="cls-17" x1="35.35" y1="23.54" x2="35.35" y2="25.09"/><path class="cls-16" d="M429.8,307.54a2,2,0,0,1-2.68.92L419.76,305a2,2,0,0,1-1-2.64l.11-.22a2,2,0,0,1,2.68-.91l7.35,3.44a2,2,0,0,1,1,2.65Z" transform="translate(-388.13 -261.16)"/><path class="cls-3" d="M421.51,302l6.87,3.22a2.26,2.26,0,0,1,1.3,1.33c.13-.56-.39-1.28-1.24-1.68l-6.67-3.13a1.8,1.8,0,0,0-2.07.1,2.28,2.28,0,0,1,1.81.16" transform="translate(-388.13 -261.16)"/><path class="cls-3" d="M419.13,304.81a1.19,1.19,0,0,0-1.13-1.24h-4.68a1.19,1.19,0,0,0-1.13,1.24,1.27,1.27,0,0,0,.65,1.12,4.64,4.64,0,0,0,2.84.68,4.41,4.41,0,0,0,2.88-.73,1.25,1.25,0,0,0,.57-1.07" transform="translate(-388.13 -261.16)"/><path class="cls-18" d="M419.13,304.81a1.19,1.19,0,0,0-1.13-1.24h-4.68a1.19,1.19,0,0,0-1.13,1.24,1.27,1.27,0,0,0,.65,1.12,4.64,4.64,0,0,0,2.84.68,4.41,4.41,0,0,0,2.88-.73A1.25,1.25,0,0,0,419.13,304.81Z" transform="translate(-388.13 -261.16)"/><path class="cls-3" d="M419,304.29c0,.56-1.5,1-3.36,1s-3.35-.46-3.35-1,1.5-1,3.35-1,3.36.46,3.36,1" transform="translate(-388.13 -261.16)"/><path class="cls-19" d="M419,304.29c0,.56-1.5,1-3.36,1s-3.35-.46-3.35-1,1.5-1,3.35-1S419,303.73,419,304.29Z" transform="translate(-388.13 -261.16)"/><path class="cls-3" d="M402.58,305.69a.68.68,0,0,0,.05-.23c0-.72-1.36-1.3-3-1.3s-3,.58-3,1.3a.59.59,0,0,0,.07.29v.63a.69.69,0,0,0-.05.24c0,.72,1.36,1.3,3,1.3s3-.58,3-1.3a.59.59,0,0,0-.05-.22Z" transform="translate(-388.13 -261.16)"/><path class="cls-5" d="M402.58,305.69a.68.68,0,0,0,.05-.23c0-.72-1.36-1.3-3-1.3s-3,.58-3,1.3a.59.59,0,0,0,.07.29v.63a.69.69,0,0,0-.05.24c0,.72,1.36,1.3,3,1.3s3-.58,3-1.3a.59.59,0,0,0-.05-.22Z" transform="translate(-388.13 -261.16)"/><path class="cls-3" d="M402.62,305.36c0,.72-1.36,1.3-3,1.3s-3-.58-3-1.3,1.36-1.3,3-1.3,3,.59,3,1.3" transform="translate(-388.13 -261.16)"/><path class="cls-5" d="M402.62,305.36c0,.72-1.36,1.3-3,1.3s-3-.58-3-1.3,1.36-1.3,3-1.3S402.62,304.65,402.62,305.36Z" transform="translate(-388.13 -261.16)"/><path class="cls-16" d="M396,305.62c0,.79-.88,1.43-2,1.43s-1.95-.64-1.95-1.43.87-1.43,1.95-1.43,2,.64,2,1.43" transform="translate(-388.13 -261.16)"/><path class="cls-3" d="M394.06,304.89a4.12,4.12,0,0,1,1.38.18,2.12,2.12,0,0,0-2.93.11h0a2.56,2.56,0,0,1,1.53-.3" transform="translate(-388.13 -261.16)"/><path class="cls-3" d="M395.61,305.26h0l0,0v0" transform="translate(-388.13 -261.16)"/><path class="cls-16" d="M418.51,307.2c0,.68-2.15,1.23-4.81,1.23s-4.81-.55-4.81-1.23S411,306,413.7,306s4.81.55,4.81,1.23" transform="translate(-388.13 -261.16)"/><path class="cls-3" d="M413.72,306.57a26.54,26.54,0,0,1,3.38.16,12.59,12.59,0,0,0-7.19.1h0a16.06,16.06,0,0,1,3.76-.26" transform="translate(-388.13 -261.16)"/><path class="cls-3" d="M417.52,306.89h.06l-.05,0v0" transform="translate(-388.13 -261.16)"/><path class="cls-3" d="M411.7,307.14a1.15,1.15,0,0,0-1.18-1.13h-4.87a1.15,1.15,0,0,0-1.18,1.13,1.11,1.11,0,0,0,.68,1,5.26,5.26,0,0,0,3,.63,5,5,0,0,0,3-.67,1.11,1.11,0,0,0,.6-1" transform="translate(-388.13 -261.16)"/><path class="cls-5" d="M411.7,307.14a1.15,1.15,0,0,0-1.18-1.13h-4.87a1.15,1.15,0,0,0-1.18,1.13,1.11,1.11,0,0,0,.68,1,5.26,5.26,0,0,0,3,.63,5,5,0,0,0,3-.67A1.11,1.11,0,0,0,411.7,307.14Z" transform="translate(-388.13 -261.16)"/><path class="cls-3" d="M411.59,306.67c0,.5-1.57.92-3.5.92s-3.5-.42-3.5-.92,1.57-.93,3.5-.93,3.5.42,3.5.93" transform="translate(-388.13 -261.16)"/><path class="cls-20" d="M411.59,306.67c0,.5-1.57.92-3.5.92s-3.5-.42-3.5-.92,1.57-.93,3.5-.93S411.59,306.16,411.59,306.67Z" transform="translate(-388.13 -261.16)"/><line class="cls-20" x1="16.56" y1="45.49" x2="23.37" y2="45.53"/><path class="cls-3" d="M407,307.52a1.17,1.17,0,0,0-.69-.67,1.45,1.45,0,0,0-.68-.16H394.8c-.74.08-1.31.52-1.31,1.05v.07a1.7,1.7,0,0,0-.08.51A1.62,1.62,0,0,0,395,310h10.67a1.62,1.62,0,0,0,1.58-1.64,1.68,1.68,0,0,0-.21-.81" transform="translate(-388.13 -261.16)"/><path class="cls-21" d="M407,307.52a1.17,1.17,0,0,0-.69-.67,1.45,1.45,0,0,0-.68-.16H394.8c-.74.08-1.31.52-1.31,1.05v.07a1.7,1.7,0,0,0-.08.51A1.62,1.62,0,0,0,395,310h10.67a1.62,1.62,0,0,0,1.58-1.64A1.68,1.68,0,0,0,407,307.52Z" transform="translate(-388.13 -261.16)"/><g class="cls-13"><g class="cls-22"><path class="cls-3" d="M407.16,307.72c0,.59-.7,1.07-1.56,1.07H395.12c-.86,0-1.56-.48-1.56-1.07s.7-1.06,1.56-1.06H405.6c.86,0,1.56.47,1.56,1.06" transform="translate(-388.13 -261.16)"/><path class="cls-23" d="M407.16,307.72c0,.59-.7,1.07-1.56,1.07H395.12c-.86,0-1.56-.48-1.56-1.07s.7-1.06,1.56-1.06H405.6C406.46,306.66,407.16,307.13,407.16,307.72Z" transform="translate(-388.13 -261.16)"/></g></g><line class="cls-23" x1="12.21" y1="45.49" x2="12.21" y2="47.69"/><rect class="cls-24" x="0.5" y="0.5" width="59.42" height="59.42"/><rect class="cls-25" x="0.21" y="60.24" width="60.01" height="10.4"/><rect class="cls-26" x="49.74" y="60.24" width="10.67" height="10.4"/><path d="M441.25,328.56a3.58,3.58,0,0,0,1.54.41c.8,0,1.21-.39,1.21-.88,0-.66-.65-1-1.33-1H442V326h.61c.52,0,1.17-.21,1.17-.77,0-.39-.32-.69-1-.69a2.82,2.82,0,0,0-1.37.4l-.32-1.12a4.07,4.07,0,0,1,2.05-.5c1.4,0,2.19.74,2.19,1.65a1.57,1.57,0,0,1-1.22,1.53v0a1.66,1.66,0,0,1,1.44,1.62c0,1.16-1,2-2.71,2a4.05,4.05,0,0,1-2-.46Z" transform="translate(-388.13 -261.16)"/></g></g></svg>