<svg xmlns="http://www.w3.org/2000/svg" xmlns:xlink="http://www.w3.org/1999/xlink" viewBox="0 0 60.44 70.65"><defs><style>.cls-1,.cls-10,.cls-12,.cls-13,.cls-4,.cls-5,.cls-6,.cls-7{fill:none;}.cls-2{isolation:isolate;}.cls-3{fill:#fff;}.cls-10,.cls-12,.cls-13,.cls-4,.cls-5,.cls-6,.cls-7{stroke:#1d1d1b;}.cls-10,.cls-12,.cls-4,.cls-5,.cls-6,.cls-7{stroke-miterlimit:10;}.cls-4{stroke-width:1.01px;}.cls-5{stroke-width:0.8px;}.cls-6{stroke-width:0.85px;}.cls-7{stroke-width:1.52px;}.cls-8{mix-blend-mode:multiply;}.cls-9{clip-path:url(#clip-path);}.cls-10{stroke-width:0.76px;}.cls-11{fill:#1d1d1b;}.cls-12{stroke-width:0.3px;}.cls-14{fill:#bfbfbf;}.cls-15{fill:#f2f2f2;}</style><clipPath id="clip-path" transform="translate(-388.11 -261.16)"><rect class="cls-1" x="395.67" y="301.05" width="17.31" height="3.96"/></clipPath></defs><g class="cls-2"><g id="Layer_1" data-name="Layer 1"><rect class="cls-3" x="21.9" y="16.39" width="16.02" height="24.41" rx="0.37"/><rect class="cls-4" x="21.9" y="16.39" width="16.02" height="24.41" rx="0.37"/><rect class="cls-3" x="20.61" y="11.56" width="18.51" height="8.93" rx="0.33"/><rect class="cls-4" x="20.61" y="11.56" width="18.51" height="8.93" rx="0.33"/><line class="cls-4" x1="35.64" y1="13.12" x2="35.64" y2="19.42"/><line class="cls-4" x1="33.96" y1="13.12" x2="33.96" y2="19.42"/><line class="cls-4" x1="32.29" y1="13.12" x2="32.29" y2="19.42"/><line class="cls-4" x1="30.62" y1="13.12" x2="30.62" y2="19.42"/><line class="cls-4" x1="28.94" y1="13.12" x2="28.94" y2="19.42"/><line class="cls-4" x1="27.27" y1="13.12" x2="27.27" y2="19.42"/><line class="cls-4" x1="25.59" y1="13.12" x2="25.59" y2="19.42"/><line class="cls-4" x1="23.92" y1="13.12" x2="23.92" y2="19.42"/><line class="cls-4" x1="22.24" y1="13.12" x2="22.24" y2="19.42"/><line class="cls-4" x1="37.31" y1="13.12" x2="37.31" y2="19.42"/><path class="cls-3" d="M424.13,301.45a1.94,1.94,0,0,0-1.64-2.15h-6.82a2,2,0,0,0-1.65,2.15,2.23,2.23,0,0,0,1,1.94c.58.69,2.21,1.19,4.13,1.19s3.67-.54,4.2-1.27a2.3,2.3,0,0,0,.83-1.86" transform="translate(-388.11 -261.16)"/><path class="cls-5" d="M424.13,301.45a1.94,1.94,0,0,0-1.64-2.15h-6.82a2,2,0,0,0-1.65,2.15,2.23,2.23,0,0,0,1,1.94c.58.69,2.21,1.19,4.13,1.19s3.67-.54,4.2-1.27A2.3,2.3,0,0,0,424.13,301.45Z" transform="translate(-388.11 -261.16)"/><path class="cls-3" d="M424,300.55c0,1-2.2,1.76-4.9,1.76s-4.89-.79-4.89-1.76,2.19-1.76,4.89-1.76,4.9.79,4.9,1.76" transform="translate(-388.11 -261.16)"/><path class="cls-6" d="M424,300.55c0,1-2.2,1.76-4.9,1.76s-4.89-.79-4.89-1.76,2.19-1.76,4.89-1.76S424,299.58,424,300.55Z" transform="translate(-388.11 -261.16)"/><line class="cls-6" x1="30.97" y1="37.63" x2="30.97" y2="41.15"/><path class="cls-3" d="M407.12,297.77a1.32,1.32,0,0,0,.06-.39c0-1.26-1.74-2.28-3.9-2.28s-3.9,1-3.9,2.28a1.43,1.43,0,0,0,.09.5V299a1.54,1.54,0,0,0-.07.42c0,1.25,1.75,2.27,3.9,2.27s3.88-1,3.88-2.27a1.34,1.34,0,0,0-.06-.4Z" transform="translate(-388.11 -261.16)"/><path class="cls-4" d="M407.12,297.77a1.32,1.32,0,0,0,.06-.39c0-1.26-1.74-2.28-3.9-2.28s-3.9,1-3.9,2.28a1.43,1.43,0,0,0,.09.5V299a1.54,1.54,0,0,0-.07.42c0,1.25,1.75,2.27,3.9,2.27s3.88-1,3.88-2.27a1.34,1.34,0,0,0-.06-.4Z" transform="translate(-388.11 -261.16)"/><path class="cls-3" d="M407.16,297.2c0,1.26-1.74,2.28-3.9,2.28s-3.91-1-3.91-2.28,1.75-2.27,3.91-2.27,3.9,1,3.9,2.27" transform="translate(-388.11 -261.16)"/><path class="cls-4" d="M407.16,297.2c0,1.26-1.74,2.28-3.9,2.28s-3.91-1-3.91-2.28,1.75-2.27,3.91-2.27S407.16,296,407.16,297.2Z" transform="translate(-388.11 -261.16)"/><path class="cls-3" d="M412.66,302.69a1.84,1.84,0,0,0-.86-1.15,1.56,1.56,0,0,0-.86-.27H397.38a1.85,1.85,0,0,0-1.64,1.79.49.49,0,0,0,0,.12,3.44,3.44,0,0,0-.1.86c0,1.54.88,2.8,2,2.8h13.31c1.1,0,2-1.26,2-2.8a3.52,3.52,0,0,0-.26-1.37" transform="translate(-388.11 -261.16)"/><path class="cls-7" d="M412.66,302.69a1.84,1.84,0,0,0-.86-1.15,1.56,1.56,0,0,0-.86-.27H397.38a1.85,1.85,0,0,0-1.64,1.79.49.49,0,0,0,0,.12,3.44,3.44,0,0,0-.1.86c0,1.54.88,2.8,2,2.8h13.31c1.1,0,2-1.26,2-2.8A3.52,3.52,0,0,0,412.66,302.69Z" transform="translate(-388.11 -261.16)"/><g class="cls-8"><g class="cls-9"><path class="cls-3" d="M412.81,303a1.88,1.88,0,0,1-1.95,1.81H397.78a1.82,1.82,0,1,1,0-3.63h13.08a1.89,1.89,0,0,1,1.95,1.82" transform="translate(-388.11 -261.16)"/><path class="cls-10" d="M412.81,303a1.88,1.88,0,0,1-1.95,1.81H397.78a1.82,1.82,0,1,1,0-3.63h13.08A1.89,1.89,0,0,1,412.81,303Z" transform="translate(-388.11 -261.16)"/></g></g><line class="cls-10" x1="16.18" y1="40.05" x2="16.18" y2="43.78"/><path class="cls-11" d="M419.32,305.2c0,1.43-2,2.6-4.46,2.6s-4.46-1.17-4.46-2.6,2-2.61,4.46-2.61,4.46,1.17,4.46,2.61" transform="translate(-388.11 -261.16)"/><path class="cls-3" d="M414.88,303.86a11.41,11.41,0,0,1,3.13.34,5.64,5.64,0,0,0-6.66.2h0c.24-.3,1.71-.54,3.49-.54" transform="translate(-388.11 -261.16)"/><path class="cls-3" d="M418.4,304.54h.06l0,0a.06.06,0,0,1,0,0" transform="translate(-388.11 -261.16)"/><rect class="cls-3" x="41.97" y="21" width="10.32" height="25.45" rx="0.75"/><rect class="cls-4" x="41.97" y="21" width="10.32" height="25.45" rx="0.75"/><path class="cls-3" d="M441.76,280.92a.38.38,0,0,1-.37-.37v-.87a.37.37,0,0,0-.36-.37h-.16a.36.36,0,0,1-.37-.36v-2.3a.36.36,0,0,0-.37-.36h-9.77a.36.36,0,0,0-.36.36V279a.36.36,0,0,1-.36.36h-.16a.37.37,0,0,0-.37.37v.87a.37.37,0,0,1-.37.37h-.42a.37.37,0,0,0-.37.36v1.94a.38.38,0,0,0,.37.37h13.86a.38.38,0,0,0,.37-.37v-1.94a.37.37,0,0,0-.37-.36Z" transform="translate(-388.11 -261.16)"/><path class="cls-4" d="M441.76,280.92a.38.38,0,0,1-.37-.37v-.87a.37.37,0,0,0-.36-.37h-.16a.36.36,0,0,1-.37-.36v-2.3a.36.36,0,0,0-.37-.36h-9.77a.36.36,0,0,0-.36.36V279a.36.36,0,0,1-.36.36h-.16a.37.37,0,0,0-.37.37v.87a.37.37,0,0,1-.37.37h-.42a.37.37,0,0,0-.37.36v1.94a.38.38,0,0,0,.37.37h13.86a.38.38,0,0,0,.37-.37v-1.94a.37.37,0,0,0-.37-.36Z" transform="translate(-388.11 -261.16)"/><line class="cls-3" x1="40.54" y1="20.11" x2="40.54" y2="22.03"/><line class="cls-12" x1="40.54" y1="20.11" x2="40.54" y2="22.03"/><line class="cls-3" x1="47.57" y1="20.11" x2="47.57" y2="22.03"/><line class="cls-12" x1="47.57" y1="20.11" x2="47.57" y2="22.03"/><line class="cls-3" x1="45.82" y1="20.11" x2="45.82" y2="22.03"/><line class="cls-12" x1="45.82" y1="20.11" x2="45.82" y2="22.03"/><line class="cls-3" x1="44.94" y1="20.11" x2="44.94" y2="22.03"/><line class="cls-12" x1="44.94" y1="20.11" x2="44.94" y2="22.03"/><line class="cls-3" x1="44.06" y1="20.11" x2="44.06" y2="22.03"/><line class="cls-12" x1="44.06" y1="20.11" x2="44.06" y2="22.03"/><line class="cls-3" x1="43.18" y1="20.11" x2="43.18" y2="22.03"/><line class="cls-12" x1="43.18" y1="20.11" x2="43.18" y2="22.03"/><line class="cls-3" x1="42.3" y1="20.11" x2="42.3" y2="22.03"/><line class="cls-12" x1="42.3" y1="20.11" x2="42.3" y2="22.03"/><line class="cls-3" x1="41.42" y1="20.11" x2="41.42" y2="22.03"/><line class="cls-12" x1="41.42" y1="20.11" x2="41.42" y2="22.03"/><line class="cls-3" x1="48.28" y1="20.11" x2="48.28" y2="22.03"/><line class="cls-12" x1="48.28" y1="20.11" x2="48.28" y2="22.03"/><line class="cls-3" x1="53.56" y1="20.11" x2="53.56" y2="22.03"/><line class="cls-12" x1="53.56" y1="20.11" x2="53.56" y2="22.03"/><line class="cls-3" x1="51.8" y1="20.11" x2="51.8" y2="22.03"/><line class="cls-12" x1="51.8" y1="20.11" x2="51.8" y2="22.03"/><line class="cls-3" x1="50.92" y1="20.11" x2="50.92" y2="22.03"/><line class="cls-12" x1="50.92" y1="20.11" x2="50.92" y2="22.03"/><line class="cls-3" x1="50.04" y1="20.11" x2="50.04" y2="22.03"/><line class="cls-12" x1="50.04" y1="20.11" x2="50.04" y2="22.03"/><line class="cls-3" x1="49.16" y1="20.11" x2="49.16" y2="22.03"/><line class="cls-12" x1="49.16" y1="20.11" x2="49.16" y2="22.03"/><line class="cls-3" x1="52.68" y1="20.11" x2="52.68" y2="22.03"/><line class="cls-12" x1="52.68" y1="20.11" x2="52.68" y2="22.03"/><line class="cls-3" x1="46.7" y1="20.11" x2="46.7" y2="22.03"/><line class="cls-12" x1="46.7" y1="20.11" x2="46.7" y2="22.03"/><path class="cls-11" d="M437.11,305.51a2.48,2.48,0,0,1-3.32,1.14l-9.14-4.28a2.48,2.48,0,0,1-1.25-3.28l.12-.27a2.49,2.49,0,0,1,3.33-1.14L436,302a2.5,2.5,0,0,1,1.26,3.29Z" transform="translate(-388.11 -261.16)"/><path class="cls-3" d="M426.82,298.62l8.53,4a2.8,2.8,0,0,1,1.61,1.64c.17-.69-.48-1.58-1.54-2.08l-8.28-3.88a2.24,2.24,0,0,0-2.57.12,2.82,2.82,0,0,1,2.25.2" transform="translate(-388.11 -261.16)"/><rect class="cls-13" x="0.5" y="0.5" width="59.42" height="59.42"/><rect class="cls-14" x="0.2" y="60.24" width="60.01" height="10.4"/><rect class="cls-15" x="49.77" y="60.24" width="10.67" height="10.4"/><path d="M441,330.08v-.94l.85-.76c1.45-1.31,2.16-2.05,2.17-2.82,0-.54-.32-1-1.08-1a2.52,2.52,0,0,0-1.42.54l-.44-1.1a3.63,3.63,0,0,1,2.16-.68,2,2,0,0,1,2.32,2.07,4.09,4.09,0,0,1-1.76,2.86l-.61.5v0h2.51v1.28Z" transform="translate(-388.11 -261.16)"/></g></g></svg>