<svg id="Layer_1" data-name="Layer 1" xmlns="http://www.w3.org/2000/svg" viewBox="0 0 60.42 70.65"><defs><style>.cls-1{fill:#12100b;}.cls-2{fill:#999;}.cls-3{fill:#b3b3b3;}.cls-4,.cls-7{fill:#fff;}.cls-4{stroke:gray;stroke-width:0.5px;}.cls-5{fill:#706f6f;}.cls-6{fill:#4d4d4d;}.cls-8{fill:none;stroke:#1d1d1b;}.cls-9{fill:#bfbfbf;}.cls-10{fill:#f2f2f2;}</style></defs><path class="cls-1" d="M440.11,319.65c6.12-2.51,4-6.48,4-6.48L429,298.32l-.74.65a34.78,34.78,0,0,1-1.89-3.92,4.07,4.07,0,0,0-1.44-2,16.8,16.8,0,0,1-1.53-1.61,12.91,12.91,0,0,0-1.82-1.62c-.34-.16-1.1.3-1.65.52a8.42,8.42,0,0,0-1.61.8,6.72,6.72,0,0,0-.47.68s-.51,0-.93.12-1.4.05-1.7.13.09.64.09.64a15.85,15.85,0,0,1,2.71,1.44,7.36,7.36,0,0,0,2.12,1l.21-.34.47.22c.25.12.46.89.46.89a13.37,13.37,0,0,1,1.11,1.9,5.49,5.49,0,0,1,.46,2.55,7.87,7.87,0,0,0,.51,2.16l1.4.3a5.71,5.71,0,0,1,1,.52l-.7,1.2,6.55,8.49-12.47,1.19a8.38,8.38,0,0,1-4.86,1.59,8.65,8.65,0,0,1-6-2.5c-6.38.6-8.57,3.3-10.46,7.72l16.05-.08,20.4.15S439.57,319.86,440.11,319.65Z" transform="translate(-388.13 -261.16)"/><path class="cls-1" d="M423.79,303.41c0,6.35-4.24,11.5-9.46,11.5s-9.45-5.15-9.45-11.5,4.23-11.5,9.45-11.5,9.46,5.15,9.46,11.5" transform="translate(-388.13 -261.16)"/><polygon points="1.25 22.68 4.9 37.45 17.3 33.79 13 19.62 1.25 22.68"/><polygon class="cls-2" points="2.58 25.74 5.59 36.8 17.65 33.36 15.37 25.91 2.58 25.74"/><path class="cls-3" d="M389.85,284.05s2.1,9.22,6.63,12.45c2.23-.43,11.79-3.23,11.79-3.23a22.13,22.13,0,0,1-1.81-1.73C404.87,290,389.85,284.05,389.85,284.05Z" transform="translate(-388.13 -261.16)"/><path class="cls-4" d="M389.42,283.32l11.66-3.14s.43,0,.48.39,2.19,9.16,7.4,11.92c-1.89.52-11.8,3.32-11.8,3.32S394.15,296.06,389.42,283.32Z" transform="translate(-388.13 -261.16)"/><polygon points="1.13 22.2 1.29 22.85 13.43 19.41 12.91 18.89 1.13 22.2"/><path class="cls-1" d="M393.25,288.7h0l-.45.63-.39-.8.62-.86.59-.19,1.58,4.79-.7.22Z" transform="translate(-388.13 -261.16)"/><path class="cls-1" d="M396.17,291.06a1.52,1.52,0,0,0,.32-.11,1,1,0,0,0,.51-.49,1.71,1.71,0,0,0,.09-1h0a.71.71,0,0,1-.51.55c-.52.18-1.14-.24-1.45-1.17s-.08-1.89.6-2.11,1.47.56,1.84,1.68a4,4,0,0,1,.19,2.39,1.79,1.79,0,0,1-1.29,1.15Zm-.35-2.56c.13.42.4.72.69.63a.48.48,0,0,0,.3-.45,1.06,1.06,0,0,0-.06-.29c-.17-.51-.45-1-.79-.86S395.65,288,395.82,288.5Z" transform="translate(-388.13 -261.16)"/><path class="cls-1" d="M398.81,290.19a2.15,2.15,0,0,0,.31-.1,1,1,0,0,0,.51-.5,1.79,1.79,0,0,0,.1-1h0a.72.72,0,0,1-.5.55c-.52.17-1.14-.25-1.45-1.18s-.09-1.88.59-2.11,1.48.56,1.85,1.68a4,4,0,0,1,.18,2.39,1.6,1.6,0,0,1-1,1.05,1.82,1.82,0,0,1-.33.11Zm-.36-2.55c.14.41.4.71.69.62a.46.46,0,0,0,.3-.44.82.82,0,0,0-.06-.3c-.16-.51-.45-1-.79-.86S398.29,287.14,398.45,287.64Z" transform="translate(-388.13 -261.16)"/><path class="cls-1" d="M402.27,285.66l-1.2.39.18.76a.64.64,0,0,1,.19-.08,1.09,1.09,0,0,1,.93.08,1.78,1.78,0,0,1,.77,1.07,1.58,1.58,0,0,1-.77,2.12,1.53,1.53,0,0,1-.95,0l-.14-.89a1.29,1.29,0,0,0,.76,0,.67.67,0,0,0,.38-.93c-.16-.49-.51-.71-1.13-.51a2.16,2.16,0,0,0-.4.18l-.62-2.58,1.69-.55Z" transform="translate(-388.13 -261.16)"/><path class="cls-5" d="M414.36,264a13.39,13.39,0,0,1,1.73.77,3.59,3.59,0,0,1,1.48,1.94.4.4,0,0,0,.41.3,4.19,4.19,0,0,1,4,4.66,10.6,10.6,0,0,1-.3,1.33.6.6,0,0,0,0,.38,4.55,4.55,0,0,1,.13,5,4,4,0,0,1-4.24,1.82h-.08a4.12,4.12,0,0,1-2.89,2.35,3.8,3.8,0,0,1-3.48-1,8.88,8.88,0,0,1-1.2.59,4.06,4.06,0,0,1-5.32-4,.44.44,0,0,0-.32-.48,4.25,4.25,0,0,1-2.5-3.09l-.09-.34v-1.14a2,2,0,0,0,.08-.22,3.83,3.83,0,0,1,1.21-2.32,16.73,16.73,0,0,1,1.58-1.1,11.61,11.61,0,0,1,.56-1.9,3.85,3.85,0,0,1,5.23-2c.22.1.33,0,.51-.13a8.14,8.14,0,0,1,1.24-1,5.34,5.34,0,0,1,1.09-.42Zm-8.76,13.84h0a6.23,6.23,0,0,0,.1.88,3,3,0,0,0,5,1.78c.44-.37.63-.36,1,.05a3,3,0,0,0,5-1c.24-.54.39-.57,1-.46a3.79,3.79,0,0,0,1.46.06,3.3,3.3,0,0,0,1.68-5.31.89.89,0,0,1-.12-1.06,3.25,3.25,0,0,0-.17-3.29,3,3,0,0,0-2.85-1.45c-.58,0-.68,0-.85-.63a3.07,3.07,0,0,0-2.43-2.34,2.87,2.87,0,0,0-3,1.29c-.39.55-.51.57-1.1.23a2.79,2.79,0,0,0-3.14.06,3.17,3.17,0,0,0-1.45,2.8c0,.8,0,.8-.75,1a3.29,3.29,0,0,0-2.13,3.92,3.08,3.08,0,0,0,2.25,2.38c.52.15.6.27.57.86v.2" transform="translate(-388.13 -261.16)"/><path class="cls-1" d="M411.75,275.9l-.07-.43a3.47,3.47,0,0,1,.9-2.93,3.56,3.56,0,0,0,1.09-2.39c-.07-.84-.71-1.35-1.88-1.26a3.54,3.54,0,0,0-1.83.68l-.54-1a5.42,5.42,0,0,1,2.59-.9c2.14-.19,3.21.9,3.32,2.15a4.3,4.3,0,0,1-1.34,3,3.07,3.07,0,0,0-.85,2.53l.06.41Zm1,3.28a1,1,0,0,1-1.17-.92,1,1,0,0,1,1-1.14,1,1,0,1,1,.16,2.06Z" transform="translate(-388.13 -261.16)"/><path class="cls-5" d="M416.79,286c-1.51.76-3,.75-3.38,0s.51-2,2-2.76,3-.71,3.39,0-.54,2-2,2.73m-2.28-.58c.23.46,1.09.48,2,0s1.44-1.17,1.22-1.62-1.17-.45-2,0-1.41,1.17-1.18,1.62" transform="translate(-388.13 -261.16)"/><path class="cls-5" d="M417,289.62c-.93.48-2,.44-2.26-.08s.3-1.37,1.25-1.85,2-.45,2.25.08-.31,1.38-1.24,1.85m.44-1.46c-.16-.29-.71-.3-1.23,0s-.83.73-.67,1,.74.31,1.24,0,.82-.73.66-1" transform="translate(-388.13 -261.16)"/><polygon class="cls-2" points="39.84 28.96 42.34 26.88 41.68 25.95 39.24 27.8 39.84 28.96"/><polygon class="cls-2" points="41.41 16.46 47.25 27.74 48.32 27.89 46.86 24.97 50.12 24.17 55.61 22.69 55.13 21.81 49.57 23.32 46.33 23.9 42.48 16.51 41.41 16.46"/><path class="cls-2" d="M433.19,289.54l-6-11.68L425.89,279l2.48,5.26s-.21-1.21-2.3-.14a5.7,5.7,0,0,0,.57,1.19,1.57,1.57,0,0,1,2,.55,39.05,39.05,0,0,1,3,5.3Z" transform="translate(-388.13 -261.16)"/><path class="cls-6" d="M437.86,275.14l-4.24,2.53-5.69-.78-4.52,3.75,6.42,13.47,4.47-4.43,5.37-1.4,6.79-1.42Zm1.89,12.09-5.69,1.06-3.76,3.76-5.64-11.35,3.89-2.72,5.12.78,3.83-2.47,7.26,10Z" transform="translate(-388.13 -261.16)"/><path d="M436.41,269.29l-6.59,5.58a.69.69,0,0,0,.1.8,12.41,12.41,0,0,1,1.29,0l.05,5.22s.1.48.53.51,9.65,0,9.65,0a.88.88,0,0,0,.63-.86c0-.71,0-4.87,0-4.87h1.14s.52-.61.28-.91-1.83-1.61-1.83-1.61l0-2.14s-.06-.27-.21-.29-1.67,0-1.67,0a.55.55,0,0,0-.33.5c-.15-.1-2.39-2-2.39-2A.51.51,0,0,0,436.41,269.29Z" transform="translate(-388.13 -261.16)"/><rect class="cls-7" x="46.43" y="13.58" width="1.84" height="1.84"/><rect class="cls-7" x="49.22" y="13.58" width="1.84" height="1.84"/><rect class="cls-7" x="46.43" y="16.18" width="1.84" height="1.84"/><rect class="cls-7" x="49.22" y="16.18" width="1.84" height="1.84"/><rect class="cls-8" x="0.5" y="0.5" width="59.42" height="59.42"/><rect class="cls-9" x="0.21" y="60.24" width="60.01" height="10.4"/><rect class="cls-10" x="49.74" y="60.24" width="10.67" height="10.4"/><path d="M441.26,328.56a3.48,3.48,0,0,0,1.53.41c.81,0,1.21-.39,1.21-.88,0-.66-.65-.95-1.33-.95H442V326h.61c.52,0,1.17-.21,1.17-.77,0-.39-.31-.69-1-.69a3,3,0,0,0-1.37.4l-.31-1.12a4,4,0,0,1,2-.5c1.41,0,2.19.74,2.19,1.65a1.59,1.59,0,0,1-1.21,1.54v0a1.64,1.64,0,0,1,1.43,1.61c0,1.16-1,2-2.7,2a4,4,0,0,1-2-.46Z" transform="translate(-388.13 -261.16)"/></svg>