<svg id="Layer_1" data-name="Layer 1" xmlns="http://www.w3.org/2000/svg" viewBox="0 0 60.42 70.65"><defs><style>.cls-1,.cls-4{fill:#333;}.cls-2{fill:#fff;stroke-width:0.5px;}.cls-2,.cls-5{stroke:#1d1d1b;}.cls-3{fill:#12100b;}.cls-4{fill-rule:evenodd;}.cls-5{fill:none;}.cls-6{fill:#bfbfbf;}.cls-7{fill:#f2f2f2;}</style></defs><path class="cls-1" d="M435.43,308.79c0,3.93,2.62,7.11,5.85,7.11s5.84-3.18,5.84-7.11-2.62-7.11-5.84-7.11-5.85,3.18-5.85,7.11" transform="translate(-388.14 -261.16)"/><path class="cls-1" d="M448,317.65a9,9,0,0,0-3.58-1.81,5.36,5.36,0,0,1-3.14,1.05,5.27,5.27,0,0,1-3.07-1,8.35,8.35,0,0,0-5.24,5.37h15Z" transform="translate(-388.14 -261.16)"/><path class="cls-2" d="M419.7,281c-4.41,0-8,2.63-8,5.87a4,4,0,0,0,1.34,2.92l-5.64,15.15L415,291.63a10,10,0,0,0,4.67,1.12c4.41,0,8-2.63,8-5.88S424.11,281,419.7,281Z" transform="translate(-388.14 -261.16)"/><path class="cls-2" d="M423.74,261.83H408.67a8.29,8.29,0,0,0-2.08,5.46,8.12,8.12,0,0,0,.66,3.18l-1.18,33.36,4-29.76a10.14,10.14,0,0,0,6.11,2c5.31,0,9.61-3.93,9.61-8.78A8.29,8.29,0,0,0,423.74,261.83Z" transform="translate(-388.14 -261.16)"/><path class="cls-2" d="M424.88,290.92c3.39,0,6.14,1.64,6.14,3.65a2.61,2.61,0,0,1-.8,1.81l4.33,12.76-6.08-11.61a9,9,0,0,1-3.59.7c-3.39,0-6.14-1.64-6.14-3.66S421.49,290.92,424.88,290.92Z" transform="translate(-388.14 -261.16)"/><path class="cls-3" d="M420.43,295.72a1.7,1.7,0,0,0,.78.21c.61,0,.81-.38.81-.68,0-.5-.46-.71-.92-.71h-.27v-.36h.27c.35,0,.79-.18.79-.6s-.18-.53-.62-.53a1.3,1.3,0,0,0-.71.23l-.13-.35a1.77,1.77,0,0,1,.93-.27c.7,0,1,.42,1,.84a.88.88,0,0,1-.66.84v0a.9.9,0,0,1,.79.9c0,.57-.45,1.06-1.29,1.06a1.72,1.72,0,0,1-.92-.24Z" transform="translate(-388.14 -261.16)"/><path class="cls-3" d="M423.15,294.06a.32.32,0,0,1,.32-.34.31.31,0,0,1,.32.34.32.32,0,0,1-.32.34A.32.32,0,0,1,423.15,294.06Zm0,1.92a.32.32,0,0,1,.32-.34.31.31,0,0,1,.32.34.32.32,0,0,1-.32.34A.32.32,0,0,1,423.15,296Z" transform="translate(-388.14 -261.16)"/><path class="cls-3" d="M424.35,295.72a1.63,1.63,0,0,0,.78.21c.61,0,.81-.38.8-.68,0-.5-.45-.71-.91-.71h-.27v-.36H425c.35,0,.79-.18.79-.6s-.18-.53-.62-.53a1.27,1.27,0,0,0-.71.23l-.13-.35a1.77,1.77,0,0,1,.93-.27c.7,0,1,.42,1,.84a.87.87,0,0,1-.65.84v0a.92.92,0,0,1,.79.9c0,.57-.45,1.06-1.29,1.06a1.72,1.72,0,0,1-.92-.24Z" transform="translate(-388.14 -261.16)"/><path class="cls-3" d="M429.38,294.45c0,1.21-.45,1.87-1.23,1.87s-1.16-.65-1.17-1.82.51-1.84,1.23-1.84S429.38,293.33,429.38,294.45Zm-1.92.06c0,.92.28,1.44.72,1.44s.72-.57.72-1.48-.22-1.44-.72-1.44S427.46,293.54,427.46,294.51Z" transform="translate(-388.14 -261.16)"/><path class="cls-2" d="M420.3,299.09c-4.41,0-8,2.67-8,6a4.88,4.88,0,0,0,1.05,3L408.65,307l7,3A9.83,9.83,0,0,0,420.3,311c4.4,0,8-2.68,8-6S424.7,299.09,420.3,299.09Z" transform="translate(-388.14 -261.16)"/><path class="cls-2" d="M435.72,301.92l-5.44-22.87a2.85,2.85,0,0,0,1.56-2.25c0-2.07-3.54-3.76-7.91-3.76S416,274.73,416,276.8s3.54,3.76,7.91,3.76a15.94,15.94,0,0,0,2.45-.18Z" transform="translate(-388.14 -261.16)"/><path class="cls-3" d="M418.86,277.92a1.77,1.77,0,0,0,.85.23c.66,0,.87-.41.87-.74,0-.53-.49-.76-1-.76h-.29v-.39h.29c.37,0,.85-.2.85-.65s-.19-.58-.67-.58a1.41,1.41,0,0,0-.77.26l-.14-.38a1.86,1.86,0,0,1,1-.3c.75,0,1.09.45,1.09.92a1,1,0,0,1-.7.9v0a1,1,0,0,1,.85,1c0,.62-.48,1.15-1.39,1.15a1.91,1.91,0,0,1-1-.26Z" transform="translate(-388.14 -261.16)"/><path class="cls-3" d="M421.81,276.13a.35.35,0,1,1,.69,0,.35.35,0,1,1-.69,0Zm0,2.08a.35.35,0,1,1,.69,0,.35.35,0,1,1-.69,0Z" transform="translate(-388.14 -261.16)"/><path class="cls-3" d="M423.1,277.92a1.77,1.77,0,0,0,.85.23c.66,0,.87-.41.86-.74,0-.53-.48-.76-1-.76h-.29v-.39h.29c.37,0,.85-.2.85-.65s-.2-.58-.67-.58a1.41,1.41,0,0,0-.77.26l-.14-.38a1.86,1.86,0,0,1,1-.3c.75,0,1.09.45,1.09.92a1,1,0,0,1-.7.9v0a1,1,0,0,1,.85,1c0,.62-.48,1.15-1.4,1.15a1.87,1.87,0,0,1-1-.26Z" transform="translate(-388.14 -261.16)"/><path class="cls-3" d="M428.55,276.55c0,1.3-.49,2-1.33,2s-1.26-.7-1.28-2,.56-2,1.34-2S428.55,275.33,428.55,276.55Zm-2.08.06c0,1,.3,1.56.78,1.56s.77-.62.77-1.59-.23-1.57-.77-1.57S426.47,275.57,426.47,276.61Z" transform="translate(-388.14 -261.16)"/><path class="cls-2" d="M435.05,311.82l-3.36.71a10,10,0,0,0-6.87-2.35c-4.5,0-8.14,2.27-8.14,5.07s3.64,5.07,8.14,5.07,8.14-2.27,8.14-5.07C433,314.59,435.05,311.82,435.05,311.82Z" transform="translate(-388.14 -261.16)"/><path class="cls-3" d="M419.42,316.35a1.94,1.94,0,0,0,.82.21c.43,0,.65-.2.65-.46s-.35-.52-.71-.52h-.34V315h.33c.28,0,.62-.11.62-.41s-.16-.37-.52-.37a1.62,1.62,0,0,0-.73.21l-.17-.6a2.26,2.26,0,0,1,1.09-.26c.75,0,1.17.4,1.17.88a.83.83,0,0,1-.64.82h0a.88.88,0,0,1,.76.87c0,.62-.55,1.08-1.45,1.08a2.13,2.13,0,0,1-1.05-.25Z" transform="translate(-388.14 -261.16)"/><path class="cls-3" d="M422.34,315a.48.48,0,0,1,.49-.5.46.46,0,0,1,.48.5.49.49,0,1,1-1,0Zm0,1.76a.48.48,0,0,1,.49-.5.46.46,0,0,1,.48.5.49.49,0,1,1-1,0Z" transform="translate(-388.14 -261.16)"/><path class="cls-3" d="M423.86,316.35a1.86,1.86,0,0,0,.82.21c.43,0,.65-.2.65-.46s-.35-.52-.72-.52h-.33V315h.32c.28,0,.63-.11.63-.41s-.17-.37-.52-.37a1.67,1.67,0,0,0-.74.21l-.17-.6a2.27,2.27,0,0,1,1.1-.26c.75,0,1.17.4,1.17.88a.83.83,0,0,1-.65.82h0a.89.89,0,0,1,.77.87c0,.62-.55,1.08-1.45,1.08a2.07,2.07,0,0,1-1.05-.25Z" transform="translate(-388.14 -261.16)"/><path class="cls-3" d="M429.34,315.37c0,1.09-.44,1.85-1.34,1.85s-1.32-.82-1.32-1.83.43-1.83,1.35-1.83S429.34,314.4,429.34,315.37Zm-1.83,0c0,.82.19,1.2.51,1.2s.5-.4.5-1.21-.17-1.2-.51-1.2S427.51,314.57,427.51,315.39Z" transform="translate(-388.14 -261.16)"/><path class="cls-3" d="M430.24,317.22a.47.47,0,0,1-.48-.5.47.47,0,0,1,.49-.49.46.46,0,0,1,.48.49.47.47,0,0,1-.48.5Zm-.3-1.27-.12-2.46h.86l-.12,2.46Z" transform="translate(-388.14 -261.16)"/><path class="cls-4" d="M414.24,263.59a5.7,5.7,0,0,1,.29.76.45.45,0,0,1-.2.12,3.65,3.65,0,0,1-.5-.67A.77.77,0,0,1,414.24,263.59Z" transform="translate(-388.14 -261.16)"/><path class="cls-4" d="M420.32,265.54a3.31,3.31,0,0,1-.54.22c-.17.07-.32.15-.34-.13a6.21,6.21,0,0,1,.63-.49A.91.91,0,0,1,420.32,265.54Z" transform="translate(-388.14 -261.16)"/><path class="cls-4" d="M413.14,265.64a.31.31,0,0,1-.11.21,3.33,3.33,0,0,1-.77-.29,1.5,1.5,0,0,1,.2-.4A3.33,3.33,0,0,1,413.14,265.64Z" transform="translate(-388.14 -261.16)"/><path class="cls-4" d="M420.32,269.66a1.2,1.2,0,0,1-.23.4,5.34,5.34,0,0,1-.65-.5.27.27,0,0,1,.12-.21A3.67,3.67,0,0,1,420.32,269.66Z" transform="translate(-388.14 -261.16)"/><path class="cls-4" d="M418.75,271.4a1.76,1.76,0,0,1-.37.23,2.63,2.63,0,0,1-.34-.76.41.41,0,0,1,.19-.12A2.75,2.75,0,0,1,418.75,271.4Z" transform="translate(-388.14 -261.16)"/><path class="cls-4" d="M411.86,270.27c0-.17-.15-.42-.22-.59a4.89,4.89,0,0,1-.45-1.86,5.14,5.14,0,0,1,5.59-5.3,3.32,3.32,0,0,1,.55.09,4.93,4.93,0,0,1,3,2,5.14,5.14,0,0,1,.95,3.92,5,5,0,0,1-1.52,2.8,5.11,5.11,0,0,1-2.92,1.39,4.85,4.85,0,0,1-3-.6,4.75,4.75,0,0,1-1.73-1.54c-.07-.1-.16-.3-.24-.27s-.07.06,0,0Zm8.21.5a5.37,5.37,0,0,0,.76-1.21,5.08,5.08,0,0,0,.4-1.59,5,5,0,0,0-9.7-1.78,5.27,5.27,0,0,0-.19,1.09,4.93,4.93,0,0,0,.66,2.8s.06-.05.1-.05-.07,0-.07.1a4.93,4.93,0,0,0,8,.69s-.1-.07-.07-.09S420,270.82,420.07,270.77Z" transform="translate(-388.14 -261.16)"/><path class="cls-4" d="M412.64,269.85c.08.07,0,.18-.14.21-.15-.12-.16-.25-.24-.38a5.4,5.4,0,0,1,.77-.33c0,.08.12.12.11.21s-.36.37-.43.36S412.64,269.85,412.64,269.85Z" transform="translate(-388.14 -261.16)"/><path class="cls-4" d="M414.55,270.89c-.1.24-.19.51-.31.74a1,1,0,0,1-.39-.21,2.79,2.79,0,0,1,.5-.67C414.42,270.79,414.51,270.82,414.55,270.89Z" transform="translate(-388.14 -261.16)"/><path class="cls-4" d="M420.51,271.29a5.68,5.68,0,0,1-3.66,1.89,5.49,5.49,0,0,1-4.21-1.32,5.61,5.61,0,0,1,7.28-8.53,5.35,5.35,0,0,1,1.93,3.68A5.47,5.47,0,0,1,420.51,271.29Zm-8.67-1c0,.06.05,0,0,0s.17.17.24.27a4.75,4.75,0,0,0,1.73,1.54,4.85,4.85,0,0,0,3,.6,5.11,5.11,0,0,0,2.92-1.39,5,5,0,0,0,1.52-2.8,5.14,5.14,0,0,0-.95-3.92,4.93,4.93,0,0,0-3-2,3.32,3.32,0,0,0-.55-.09,5.14,5.14,0,0,0-5.59,5.3,4.89,4.89,0,0,0,.45,1.86c.07.17.25.42.22.59Z" transform="translate(-388.14 -261.16)"/><path class="cls-4" d="M420,270.73s0,.07.07.09a4.93,4.93,0,0,1-8-.69c0-.06.06-.06.07-.1s-.06.09-.1.05a4.93,4.93,0,0,1-.66-2.8,5.27,5.27,0,0,1,.19-1.09,4.92,4.92,0,0,1,1.61-2.41,4.84,4.84,0,0,1,3.36-1.12,5,5,0,0,1,4.73,5.31,5.08,5.08,0,0,1-.4,1.59,5.37,5.37,0,0,1-.76,1.21C420,270.82,420,270.82,420,270.73Zm-7.23-6.33a4.69,4.69,0,0,0-1.21,3.54,4.77,4.77,0,0,0,5,4.43,4.79,4.79,0,0,0,3.23-1.53,4.76,4.76,0,0,0-3.81-8A4.85,4.85,0,0,0,412.74,264.4Z" transform="translate(-388.14 -261.16)"/><path class="cls-4" d="M418.73,263.78a2.75,2.75,0,0,1-.49.67.29.29,0,0,1-.22-.12,5.27,5.27,0,0,1,.33-.76A1.55,1.55,0,0,1,418.73,263.78Z" transform="translate(-388.14 -261.16)"/><path class="cls-1" d="M415.33,263.55h0l-.25.11-.05-.23.35-.16h.25v1.31h-.3Z" transform="translate(-388.14 -261.16)"/><path class="cls-1" d="M416.06,264.58v-.18l.17-.15c.29-.26.42-.41.43-.56s-.07-.19-.22-.19a.5.5,0,0,0-.28.1l-.08-.21a.66.66,0,0,1,.42-.14.4.4,0,0,1,.46.41.79.79,0,0,1-.35.57l-.12.1h.5v.25Z" transform="translate(-388.14 -261.16)"/><path class="cls-1" d="M419.72,267.78a.68.68,0,0,0,.3.08c.16,0,.24-.07.24-.17s-.13-.19-.26-.19h-.13v-.22H420c.1,0,.23,0,.23-.15s-.06-.14-.19-.14a.58.58,0,0,0-.27.08l-.06-.22a.77.77,0,0,1,.4-.1c.28,0,.43.15.43.33a.3.3,0,0,1-.24.3h0a.33.33,0,0,1,.29.33c0,.22-.21.39-.54.39a.77.77,0,0,1-.39-.09Z" transform="translate(-388.14 -261.16)"/><path class="cls-1" d="M416.64,271h-.12a.41.41,0,0,0-.42.31h0a.37.37,0,0,1,.28-.1.4.4,0,0,1,.41.42.48.48,0,0,1-.49.48.52.52,0,0,1-.52-.58.76.76,0,0,1,.24-.58.77.77,0,0,1,.5-.19h.12Zm-.16.66a.21.21,0,0,0-.2-.23.2.2,0,0,0-.18.12.17.17,0,0,0,0,.08c0,.14.07.26.21.26S416.48,271.76,416.48,271.63Z" transform="translate(-388.14 -261.16)"/><path class="cls-1" d="M412.15,268h.13a.47.47,0,0,0,.26-.08.4.4,0,0,0,.16-.24h0a.37.37,0,0,1-.27.09.39.39,0,0,1-.4-.41.47.47,0,0,1,.49-.47.5.5,0,0,1,.5.57.79.79,0,0,1-.23.6.82.82,0,0,1-.5.18h-.14Zm.18-.66a.18.18,0,0,0,.19.21.19.19,0,0,0,.17-.08.17.17,0,0,0,0-.08c0-.14-.05-.27-.19-.27A.2.2,0,0,0,412.33,267.34Z" transform="translate(-388.14 -261.16)"/><path class="cls-3" d="M416,268.63v-.18a1.52,1.52,0,0,1,.51-1.21c.37-.37.57-.64.58-1s-.25-.6-.75-.62a1.59,1.59,0,0,0-.8.21l-.18-.45a2.2,2.2,0,0,1,1.13-.26c.92,0,1.32.52,1.31,1.06a1.81,1.81,0,0,1-.7,1.21,1.3,1.3,0,0,0-.47,1v.18Zm.26,1.43a.43.43,0,0,1-.45-.44.45.45,0,0,1,.48-.44.44.44,0,0,1,.46.46.43.43,0,0,1-.48.42Z" transform="translate(-388.14 -261.16)"/><path class="cls-4" d="M418,283.17a6.47,6.47,0,0,1,.26.66.37.37,0,0,1-.18.11,3.24,3.24,0,0,1-.44-.59A.68.68,0,0,1,418,283.17Z" transform="translate(-388.14 -261.16)"/><path class="cls-4" d="M423.3,284.88a2.13,2.13,0,0,1-.47.2c-.15.06-.29.13-.31-.12a5.93,5.93,0,0,1,.56-.43A.84.84,0,0,1,423.3,284.88Z" transform="translate(-388.14 -261.16)"/><path class="cls-4" d="M417,285a.28.28,0,0,1-.09.18,2.6,2.6,0,0,1-.68-.26,1.28,1.28,0,0,1,.18-.35A2.56,2.56,0,0,1,417,285Z" transform="translate(-388.14 -261.16)"/><path class="cls-4" d="M423.3,288.51a1,1,0,0,1-.2.35,4.92,4.92,0,0,1-.58-.44.26.26,0,0,1,.11-.18A3.35,3.35,0,0,1,423.3,288.51Z" transform="translate(-388.14 -261.16)"/><path class="cls-4" d="M421.92,290a1.32,1.32,0,0,1-.32.2,2.23,2.23,0,0,1-.31-.66.39.39,0,0,1,.17-.11A2.56,2.56,0,0,1,421.92,290Z" transform="translate(-388.14 -261.16)"/><path class="cls-4" d="M415.86,289c0-.14-.14-.36-.2-.51a4.44,4.44,0,0,1-.4-1.64,4.37,4.37,0,0,1,1.72-3.71,4.45,4.45,0,0,1,3.2-.95,3.85,3.85,0,0,1,.49.07,4.28,4.28,0,0,1,2.67,1.73,4.49,4.49,0,0,1,.84,3.45,4.31,4.31,0,0,1-1.34,2.46,4.45,4.45,0,0,1-2.56,1.23,4.32,4.32,0,0,1-2.68-.53,4.38,4.38,0,0,1-1.52-1.35c-.06-.1-.13-.27-.21-.25s-.06.06,0,0Zm7.22.44a5,5,0,0,0,.67-1.06,4.36,4.36,0,1,0-8.18-3,4.09,4.09,0,0,0-.17,1,4.34,4.34,0,0,0,.58,2.46s0,0,.09-.05-.06,0-.06.09a4.32,4.32,0,0,0,7,.61s-.09-.06-.06-.08S423.05,289.53,423.08,289.48Z" transform="translate(-388.14 -261.16)"/><path class="cls-4" d="M416.54,288.68c.07.06,0,.15-.12.18s-.14-.22-.21-.33a3.48,3.48,0,0,1,.68-.29c0,.07.1.1.09.18a1.22,1.22,0,0,1-.38.32S416.54,288.68,416.54,288.68Z" transform="translate(-388.14 -261.16)"/><path class="cls-4" d="M418.23,289.59c-.1.22-.17.45-.28.65a1.06,1.06,0,0,1-.35-.18,2.93,2.93,0,0,1,.44-.59A.41.41,0,0,1,418.23,289.59Z" transform="translate(-388.14 -261.16)"/><path class="cls-4" d="M423.47,289.94a5,5,0,0,1-3.23,1.67,4.81,4.81,0,0,1-3.7-1.17,4.91,4.91,0,0,1-.53-6.95,4.81,4.81,0,0,1,3.23-1.7,4.89,4.89,0,0,1,3.71,1.15,4.75,4.75,0,0,1,1.7,3.23A4.83,4.83,0,0,1,423.47,289.94Zm-7.63-.9c0,.06,0,0,0,0s.15.15.21.25a4.38,4.38,0,0,0,1.52,1.35,4.32,4.32,0,0,0,2.68.53,4.45,4.45,0,0,0,2.56-1.23,4.31,4.31,0,0,0,1.34-2.46,4.49,4.49,0,0,0-.84-3.45,4.28,4.28,0,0,0-2.67-1.73,3.85,3.85,0,0,0-.49-.07,4.45,4.45,0,0,0-3.2.95,4.37,4.37,0,0,0-1.72,3.71,4.44,4.44,0,0,0,.4,1.64c.06.15.23.37.2.51Z" transform="translate(-388.14 -261.16)"/><path class="cls-4" d="M423,289.45s0,.07.06.08a4.32,4.32,0,0,1-7-.61c0-.05.05-.05.06-.09s-.05.08-.09.05a4.34,4.34,0,0,1-.58-2.46,4.09,4.09,0,0,1,.17-1,4.36,4.36,0,1,1,8.18,3,5,5,0,0,1-.67,1.06S423.05,289.53,423,289.45Zm-6.36-5.57a4.11,4.11,0,0,0-1.06,3.11A4.2,4.2,0,0,0,420,290.9a4.22,4.22,0,0,0,2.84-1.36,4,4,0,0,0,1.11-3.09,4.2,4.2,0,0,0-4.46-3.94A4.25,4.25,0,0,0,416.63,283.88Z" transform="translate(-388.14 -261.16)"/><path class="cls-4" d="M421.9,283.33a2.92,2.92,0,0,1-.42.6.25.25,0,0,1-.2-.11,3.39,3.39,0,0,1,.29-.67A1.16,1.16,0,0,1,421.9,283.33Z" transform="translate(-388.14 -261.16)"/><path class="cls-1" d="M418.91,283.13h0l-.22.11-.05-.21.31-.14h.22V284h-.26Z" transform="translate(-388.14 -261.16)"/><path class="cls-1" d="M419.55,284v-.16l.15-.13c.25-.23.37-.36.38-.49s-.06-.17-.19-.17a.47.47,0,0,0-.25.09l-.07-.19a.65.65,0,0,1,.37-.12.36.36,0,0,1,.4.36.69.69,0,0,1-.3.5l-.11.09h.44V284Z" transform="translate(-388.14 -261.16)"/><path class="cls-1" d="M422.77,286.86a.74.74,0,0,0,.27.07c.14,0,.21-.07.21-.15s-.12-.17-.24-.17h-.11v-.19H423c.09,0,.2,0,.2-.14s0-.12-.17-.12a.45.45,0,0,0-.23.07l-.06-.19a.68.68,0,0,1,.36-.09c.24,0,.38.13.38.29a.26.26,0,0,1-.21.26h0a.29.29,0,0,1,.25.28c0,.2-.18.35-.48.35a.74.74,0,0,1-.34-.08Z" transform="translate(-388.14 -261.16)"/><path class="cls-1" d="M420.06,289.67H420a.37.37,0,0,0-.38.27h0a.37.37,0,0,1,.24-.09.35.35,0,0,1,.36.38.42.42,0,0,1-.42.42.45.45,0,0,1-.46-.51.72.72,0,0,1,.2-.51.75.75,0,0,1,.45-.17h.1Zm-.14.57a.18.18,0,0,0-.17-.2.17.17,0,0,0-.16.11s0,0,0,.06.06.24.18.24S419.92,290.36,419.92,290.24Z" transform="translate(-388.14 -261.16)"/><path class="cls-1" d="M416.11,287.05h.11a.42.42,0,0,0,.23-.07.35.35,0,0,0,.15-.21h0a.32.32,0,0,1-.23.08.35.35,0,0,1-.36-.36.42.42,0,0,1,.44-.41.43.43,0,0,1,.43.49.66.66,0,0,1-.2.53.69.69,0,0,1-.44.16h-.12Zm.16-.58c0,.1.05.19.16.19a.16.16,0,0,0,.15-.08.1.1,0,0,0,0-.07c0-.12-.05-.24-.17-.24S416.27,286.35,416.27,286.47Z" transform="translate(-388.14 -261.16)"/><path class="cls-3" d="M419.5,287.6v-.16a1.32,1.32,0,0,1,.45-1.06,1.36,1.36,0,0,0,.51-.84c0-.32-.22-.53-.66-.55a1.46,1.46,0,0,0-.71.18l-.16-.39a2,2,0,0,1,1-.23c.8,0,1.15.46,1.15.93a1.62,1.62,0,0,1-.62,1.07,1.15,1.15,0,0,0-.42.91v.15Zm.23,1.27a.39.39,0,1,1,0-.78.39.39,0,1,1,0,.78Z" transform="translate(-388.14 -261.16)"/><path class="cls-4" d="M418.58,301.56c.08.23.19.43.25.67a.37.37,0,0,1-.18.11,3.31,3.31,0,0,1-.44-.6A.8.8,0,0,1,418.58,301.56Z" transform="translate(-388.14 -261.16)"/><path class="cls-4" d="M423.92,303.28a3.88,3.88,0,0,1-.47.2c-.15.06-.28.12-.3-.12a5.93,5.93,0,0,1,.56-.43A.73.73,0,0,1,423.92,303.28Z" transform="translate(-388.14 -261.16)"/><path class="cls-4" d="M417.6,303.37a.23.23,0,0,1-.09.18,2.91,2.91,0,0,1-.68-.26,1.92,1.92,0,0,1,.18-.35A2.89,2.89,0,0,1,417.6,303.37Z" transform="translate(-388.14 -261.16)"/><path class="cls-4" d="M423.92,306.91a1,1,0,0,1-.19.35,4.41,4.41,0,0,1-.58-.44.26.26,0,0,1,.1-.19A2.93,2.93,0,0,1,423.92,306.91Z" transform="translate(-388.14 -261.16)"/><path class="cls-4" d="M422.54,308.44a1.32,1.32,0,0,1-.32.2,2.28,2.28,0,0,1-.3-.67.46.46,0,0,1,.16-.11A2.35,2.35,0,0,1,422.54,308.44Z" transform="translate(-388.14 -261.16)"/><path class="cls-4" d="M416.48,307.44c0-.14-.13-.37-.2-.52a4.45,4.45,0,0,1,1.32-5.34,4.45,4.45,0,0,1,3.21-1,3.85,3.85,0,0,1,.49.08,4.31,4.31,0,0,1,2.67,1.73,4.53,4.53,0,0,1,.83,3.45,4.39,4.39,0,0,1-1.33,2.46,4.58,4.58,0,0,1-2.57,1.23,4.27,4.27,0,0,1-2.67-.54,4.21,4.21,0,0,1-1.52-1.35c-.07-.09-.14-.27-.21-.24s-.06.06,0,0Zm7.23.44a5,5,0,0,0,.67-1.06,4.56,4.56,0,0,0,.35-1.4,4.37,4.37,0,0,0-4.17-4.68,4.29,4.29,0,0,0-3,1,4.36,4.36,0,0,0-1.41,2.13,5.36,5.36,0,0,0-.17.95,4.4,4.4,0,0,0,.58,2.46s0,0,.09,0-.06,0-.06.09a4.38,4.38,0,0,0,4.38,2.09,4.28,4.28,0,0,0,2.67-1.49s-.09-.05-.06-.07S423.68,307.92,423.71,307.88Z" transform="translate(-388.14 -261.16)"/><path class="cls-4" d="M417.17,307.07c.06.06,0,.16-.13.19s-.13-.22-.21-.34a5.35,5.35,0,0,1,.68-.29c0,.07.11.11.09.19a1.3,1.3,0,0,1-.37.32S417.16,307.08,417.17,307.07Z" transform="translate(-388.14 -261.16)"/><path class="cls-4" d="M418.85,308c-.09.21-.17.45-.27.65a.89.89,0,0,1-.35-.18,2.38,2.38,0,0,1,.44-.6C418.74,307.9,418.81,307.92,418.85,308Z" transform="translate(-388.14 -261.16)"/><path class="cls-4" d="M424.09,308.34a5,5,0,0,1-3.22,1.66,4.79,4.79,0,0,1-3.7-1.16,4.87,4.87,0,0,1-1.71-3.24,5,5,0,0,1,1.17-3.72,4.93,4.93,0,0,1,6.94-.55,4.7,4.7,0,0,1,1.7,3.24A4.82,4.82,0,0,1,424.09,308.34Zm-7.62-.9c0,.06,0,0,0,0s.14.15.21.24a4.21,4.21,0,0,0,1.52,1.35,4.27,4.27,0,0,0,2.67.54,4.58,4.58,0,0,0,2.57-1.23,4.39,4.39,0,0,0,1.33-2.46,4.53,4.53,0,0,0-.83-3.45,4.31,4.31,0,0,0-2.67-1.73,3.85,3.85,0,0,0-.49-.08,4.45,4.45,0,0,0-3.21,1,4.45,4.45,0,0,0-1.32,5.34c.07.15.23.38.2.52Z" transform="translate(-388.14 -261.16)"/><path class="cls-4" d="M423.62,307.85s0,.06.06.07a4.28,4.28,0,0,1-2.67,1.49,4.38,4.38,0,0,1-4.38-2.09c0-.06.05-.05.06-.09s-.05.08-.09,0a4.4,4.4,0,0,1-.58-2.46,5.36,5.36,0,0,1,.17-.95,4.36,4.36,0,0,1,1.41-2.13,4.29,4.29,0,0,1,3-1,4.37,4.37,0,0,1,4.17,4.68,4.56,4.56,0,0,1-.35,1.4,5,5,0,0,1-.67,1.06S423.68,307.93,423.62,307.85Zm-6.37-5.57a4.14,4.14,0,0,0-1.06,3.11,4,4,0,0,0,1.35,2.81,4.07,4.07,0,0,0,3.09,1.09,4.26,4.26,0,0,0,2.84-1.35,4.21,4.21,0,0,0-.25-5.94,4.13,4.13,0,0,0-3.11-1.09A4.28,4.28,0,0,0,417.25,302.28Z" transform="translate(-388.14 -261.16)"/><path class="cls-4" d="M422.52,301.73a2.26,2.26,0,0,1-.42.59.32.32,0,0,1-.2-.1,4.1,4.1,0,0,1,.29-.67A1.16,1.16,0,0,1,422.52,301.73Z" transform="translate(-388.14 -261.16)"/><path class="cls-1" d="M419.53,301.53h0l-.22.1,0-.2.3-.14h.22v1.15h-.26Z" transform="translate(-388.14 -261.16)"/><path class="cls-1" d="M420.18,302.44v-.17l.14-.13c.26-.22.38-.35.38-.49s-.05-.17-.19-.17a.38.38,0,0,0-.24.1l-.08-.19a.61.61,0,0,1,.38-.12.35.35,0,0,1,.4.36.69.69,0,0,1-.31.49l-.1.09H421v.22Z" transform="translate(-388.14 -261.16)"/><path class="cls-1" d="M423.39,305.25a.59.59,0,0,0,.27.07c.14,0,.21-.06.21-.15s-.11-.17-.23-.17h-.11v-.19h.11c.09,0,.2,0,.2-.13s-.06-.12-.17-.12a.52.52,0,0,0-.24.07l-.05-.2a.72.72,0,0,1,.35-.08c.25,0,.38.13.38.28a.27.27,0,0,1-.21.27h0a.29.29,0,0,1,.25.29c0,.2-.18.35-.47.35a.71.71,0,0,1-.34-.08Z" transform="translate(-388.14 -261.16)"/><path class="cls-1" d="M420.69,308.06h-.11a.36.36,0,0,0-.37.27h0a.33.33,0,0,1,.25-.09.35.35,0,0,1,.35.37.41.41,0,0,1-.42.42.45.45,0,0,1-.46-.5.65.65,0,0,1,.65-.68h.11Zm-.15.58c0-.11-.05-.2-.17-.2a.2.2,0,0,0-.16.1.15.15,0,0,0,0,.07c0,.12.06.23.19.23S420.54,308.76,420.54,308.64Z" transform="translate(-388.14 -261.16)"/><path class="cls-1" d="M416.73,305.45h.12a.56.56,0,0,0,.23-.07.37.37,0,0,0,.14-.22h0a.32.32,0,0,1-.23.08.34.34,0,0,1-.36-.36.42.42,0,0,1,.43-.41.44.44,0,0,1,.44.5.68.68,0,0,1-.21.53.67.67,0,0,1-.44.16h-.12Zm.17-.58c0,.1.05.18.16.18a.18.18,0,0,0,.15-.07.15.15,0,0,0,0-.07c0-.12,0-.24-.17-.24S416.9,304.75,416.9,304.87Z" transform="translate(-388.14 -261.16)"/><path class="cls-3" d="M420.12,306v-.16a1.29,1.29,0,0,1,.45-1.06c.32-.33.5-.57.5-.85s-.21-.53-.65-.54a1.25,1.25,0,0,0-.71.18l-.16-.4a2.14,2.14,0,0,1,1-.23c.8,0,1.16.46,1.15.94a1.6,1.6,0,0,1-.62,1.06,1.16,1.16,0,0,0-.41.91V306Zm.23,1.26a.37.37,0,0,1-.39-.39.38.38,0,0,1,.42-.38.39.39,0,1,1,0,.77Z" transform="translate(-388.14 -261.16)"/><rect class="cls-5" x="0.5" y="0.5" width="59.42" height="59.42"/><path class="cls-3" d="M416.15,315.88l-10-9.79-.49.43a23.94,23.94,0,0,1-1.25-2.59,2.67,2.67,0,0,0-.95-1.32,10.45,10.45,0,0,1-1-1.06,8.28,8.28,0,0,0-1.21-1.06c-.22-.12-.72.19-1.09.33a6.36,6.36,0,0,0-1.06.53c-.08.09-.31.45-.31.45s-.33,0-.61.08-.57,0-.84.06a4.8,4.8,0,0,0-.85-.08c-3.44,0-6.24,3.39-6.24,7.58s2.8,7.59,6.24,7.59,6.24-3.4,6.24-7.59c0-.18,0-.36,0-.53l.64.13a4.64,4.64,0,0,1,.65.35l-.46.79,4.32,5.6-8.23.79a5.57,5.57,0,0,1-3.2,1.05,5.68,5.68,0,0,1-3.94-1.66,8.71,8.71,0,0,0-4.12,1.28v3.81l7.81,0,13.46.09s3.5-.8,3.86-.94C417.57,318.5,416.15,315.88,416.15,315.88Zm-15.39-12h0a.35.35,0,0,1,.14.17C400.87,304,400.81,304,400.76,303.89Z" transform="translate(-388.14 -261.16)"/><rect class="cls-6" x="0.2" y="60.25" width="60.01" height="10.4"/><rect class="cls-7" x="49.73" y="60.25" width="10.67" height="10.4"/><path d="M441,330.08v-.94l.85-.76c1.45-1.3,2.16-2.05,2.17-2.82,0-.54-.32-1-1.08-1a2.52,2.52,0,0,0-1.42.54l-.44-1.1a3.7,3.7,0,0,1,2.16-.68,2,2,0,0,1,2.32,2.07,4.07,4.07,0,0,1-1.76,2.86l-.61.51v0h2.5v1.27Z" transform="translate(-388.14 -261.16)"/></svg>