<svg id="Layer_1" data-name="Layer 1" xmlns="http://www.w3.org/2000/svg" viewBox="0 0 60.46 70.65"><defs><style>.cls-1{fill:none;stroke:#1d1d1b;}.cls-2{fill:#12100b;}.cls-3,.cls-4{fill:#706f6f;}.cls-4{stroke:#4d4d4d;}.cls-5,.cls-6{fill:#333;fill-rule:evenodd;}.cls-5{stroke:#333;}.cls-7{fill:#bfbfbf;}.cls-8{fill:#f2f2f2;}</style></defs><rect class="cls-1" x="0.5" y="0.5" width="59.42" height="59.42"/><path class="cls-2" d="M440.79,319.78c6.24-2.55,4-6.6,4-6.6l-15.38-15.12-.76.67a39.07,39.07,0,0,1-1.92-4,4.12,4.12,0,0,0-1.47-2,17.24,17.24,0,0,1-1.55-1.64,13.38,13.38,0,0,0-1.86-1.64c-.34-.17-1.12.3-1.68.52a9,9,0,0,0-1.64.82,7.07,7.07,0,0,0-.48.69,9.11,9.11,0,0,0-.95.13c-.43.08-1.42,0-1.72.13s.08.64.08.64a17.36,17.36,0,0,1,2.77,1.47,7.5,7.5,0,0,0,2.16,1l.21-.34.47.21c.26.13.48.91.48.91a13.1,13.1,0,0,1,1.12,2,5.52,5.52,0,0,1,.48,2.59,7.83,7.83,0,0,0,.51,2.2l1.43.3a5.56,5.56,0,0,1,1,.53l-.71,1.22,6.66,8.65-12.69,1.21a8.54,8.54,0,0,1-4.95,1.62,8.75,8.75,0,0,1-6.07-2.55c-6.5.62-8.73,3.37-10.66,7.87l16.35-.08,20.78.14S440.24,320,440.79,319.78Z" transform="translate(-388.1 -261.16)"/><path class="cls-2" d="M424.17,303.25c0,6.46-4.31,11.71-9.63,11.71s-9.63-5.25-9.63-11.71,4.31-11.72,9.63-11.72,9.63,5.25,9.63,11.72" transform="translate(-388.1 -261.16)"/><path class="cls-3" d="M414.62,286.49c-1.79.89-3.54.89-4,0s.61-2.38,2.4-3.26,3.58-.83,4,.05-.65,2.35-2.4,3.23m-2.7-.68c.27.54,1.29.55,2.36,0s1.7-1.39,1.43-1.92-1.38-.53-2.4,0-1.66,1.38-1.39,1.92" transform="translate(-388.1 -261.16)"/><path class="cls-3" d="M416.9,290c-1.1.56-2.33.51-2.67-.1s.36-1.62,1.48-2.19,2.33-.53,2.66.1-.37,1.63-1.47,2.19m.52-1.73c-.19-.34-.83-.36-1.46,0s-1,.86-.78,1.19.87.36,1.47.05,1-.87.77-1.21" transform="translate(-388.1 -261.16)"/><path class="cls-4" d="M411.81,263.26a13.84,13.84,0,0,1,1.76.78,3.68,3.68,0,0,1,1.51,2,.39.39,0,0,0,.42.3,4.26,4.26,0,0,1,4,4.75,8,8,0,0,1-.3,1.35.67.67,0,0,0,0,.4,4.63,4.63,0,0,1,.14,5.05,4,4,0,0,1-4.32,1.86H415a4.21,4.21,0,0,1-2.95,2.39,3.84,3.84,0,0,1-3.53-1.07,11.7,11.7,0,0,1-1.23.61,4.14,4.14,0,0,1-5.42-4,.45.45,0,0,0-.33-.49A4.28,4.28,0,0,1,399,274l-.09-.35v-1.16a2,2,0,0,0,.07-.23,4,4,0,0,1,1.24-2.36,17.36,17.36,0,0,1,1.61-1.12,11.41,11.41,0,0,1,.57-1.94,3.93,3.93,0,0,1,5.32-2c.24.11.34,0,.52-.12a8.59,8.59,0,0,1,1.27-1,6.18,6.18,0,0,1,1.11-.42Zm-8.92,14.1h0a8.32,8.32,0,0,0,.11.89,3.06,3.06,0,0,0,5.06,1.81c.45-.37.64-.36,1,.05a3,3,0,0,0,5.13-1c.23-.55.38-.58,1-.47a3.7,3.7,0,0,0,1.48.06,3.37,3.37,0,0,0,1.72-5.41.89.89,0,0,1-.12-1.08,3.34,3.34,0,0,0-.18-3.36,3,3,0,0,0-2.9-1.46c-.59,0-.69,0-.87-.65a3.11,3.11,0,0,0-2.47-2.38,2.91,2.91,0,0,0-3.06,1.31c-.41.56-.52.59-1.12.24a2.85,2.85,0,0,0-3.2.06,3.22,3.22,0,0,0-1.48,2.85c0,.82,0,.82-.77,1a3.36,3.36,0,0,0-2.16,4,3.15,3.15,0,0,0,2.29,2.42c.52.15.61.28.58.87v.21" transform="translate(-388.1 -261.16)"/><path class="cls-2" d="M409.15,275.37l-.07-.43a3.53,3.53,0,0,1,.91-3c.77-1,1.19-1.68,1.12-2.44s-.73-1.37-1.92-1.28a3.73,3.73,0,0,0-1.87.69l-.54-1a5.48,5.48,0,0,1,2.64-.91c2.17-.19,3.26.91,3.37,2.19s-.54,2-1.36,3.06a3.16,3.16,0,0,0-.86,2.58l.06.42Zm1,3.35a1.06,1.06,0,1,1-.14-2.11,1.06,1.06,0,1,1,.16,2.1Z" transform="translate(-388.1 -261.16)"/><path class="cls-5" d="M444.57,287.6l-.46.93c-.66-.17-1,.51-1.39,1.09a5.66,5.66,0,0,1-2.08,2.17c-1.87.89-5-1-5.78-2.83a5.93,5.93,0,0,1-.19-3.31c.15-.63.41-.89.23-1.19A1,1,0,0,0,434,284c-.38,0-.87.88-1.29,1.3a6.53,6.53,0,0,1-1.4,1,5.48,5.48,0,0,1-6.17-1.45,3.51,3.51,0,0,1-.36-3c.23-.95,1.05-2.22.38-2.86.16-.33.32-.65.49-1a6.24,6.24,0,0,1,2.24.44,15.35,15.35,0,0,1,4.72,2.35c.6.48,1.07,1.12,1.68,1.58,1.37,1,2.66.88,3.87,1.2A14.31,14.31,0,0,1,442.8,286C443.46,286.46,444.55,287.17,444.57,287.6Zm-17.87-8.19a5.13,5.13,0,0,0-1.28,2.36,3.86,3.86,0,0,0-.15,2.29c.51,1.33,2.84,2.36,4.21,2.31a4,4,0,0,0,1.55-.48c.62-.37,2.07-1.52,2.29-2.59.26-1.3-1.79-2.67-3.45-3.41C428.6,279.34,427.47,278.87,426.7,279.41Zm9.12,5.19a4.86,4.86,0,0,0-.69,3.07,5,5,0,0,0,.3,1.31c.62,1.44,3.48,3.12,5,2.31.76-.4,2.5-2.45,2.46-3.77,0-1.06-1.58-2-3-2.61S436.62,283.66,435.82,284.6Z" transform="translate(-388.1 -261.16)"/><path class="cls-6" d="M398.76,291.35c-.18-.14-.54-.36-.52-.7,1.28-1,2-2.28,1.22-3.79-1.22-2.34-4.94-1.5-5,1a2.56,2.56,0,0,1-1-.31,3.69,3.69,0,0,1,6.92-1C401.28,288.43,400.53,290.23,398.76,291.35Z" transform="translate(-388.1 -261.16)"/><path class="cls-6" d="M395.25,288.75a5,5,0,0,0,1.06,6.93.28.28,0,0,0-.08.21c-.22.15-.35,0-.53,0-.16.39-.39,1.26-.58,1.88s-.2.71-.8.44c-.21.17-.13.44-.22.64.16.14.39.11.57.21,0,.37-.27.63-.24,1-.25.09-.38-.19-.64-.11s-.16.38-.2.57a.72.72,0,0,0,.57.21c.06.59-.31.51-.75.41-.15.15-.08.38-.23.53.18.24.47.11.65.34-.06.65-1.32.88-1.92,1.34l-.56-1.16c.59-1.84,1.24-4.08,1.88-6.13a8.43,8.43,0,0,0,.3-.86c0-.1-.32-.09-.4-.22s.18-.48.13-.72c-.34-.72-1.58-1.14-1.86-1.9-.2-.54.48-1.49.71-2,.33-.75.57-1.4.85-1.95l.43-.21C394,288.37,394.62,288.6,395.25,288.75Z" transform="translate(-388.1 -261.16)"/><path class="cls-6" d="M399.11,287.74a2.2,2.2,0,0,1-.29,1.39,1.59,1.59,0,0,0-.61.22c-1.9,1.23,1,3.91,2.08,1.86a1.7,1.7,0,0,0,.18-.74,2.42,2.42,0,0,0,.85-2,4,4,0,0,1-1.05,7c-.13.27,0,.62-.11.89-.18.11-.28,0-.41,0a13.63,13.63,0,0,0-.08,1.82c-.28.08-.34.25-.61.35s0,.38-.1.52c.18.22.45.17.61.42-.06.12,0,.29,0,.43l-.58.28c-.12.15,0,.4-.08.57.66.16.76.75,0,1.08.17.22.4.24.57.44a1.26,1.26,0,0,0,0,.67,12.5,12.5,0,0,1-1.14.85c-.33-.33-.67-.62-1-.95.2-2.17.23-4.4.43-6.57-.12-.07-.31,0-.41-.1a1.58,1.58,0,0,1,0-.84,4.48,4.48,0,0,1-1.78-1.59A4,4,0,0,1,399.11,287.74Z" transform="translate(-388.1 -261.16)"/><rect class="cls-7" x="0.2" y="60.24" width="60.01" height="10.4"/><rect class="cls-8" x="49.79" y="60.24" width="10.67" height="10.4"/><path d="M443,324.84h0l-1.26.6-.26-1.16,1.76-.82h1.27v6.62H443Z" transform="translate(-388.1 -261.16)"/></svg>