<svg id="Layer_1" data-name="Layer 1" xmlns="http://www.w3.org/2000/svg" viewBox="0 0 60.43 70.65"><defs><style>.cls-1,.cls-5{fill:#12100b;}.cls-2,.cls-3,.cls-4{fill:#4d4d4d;}.cls-3{stroke:#fff;stroke-width:0.5px;}.cls-4{stroke:#4d4d4d;}.cls-5{fill-rule:evenodd;}.cls-6{fill:#fff;}.cls-6,.cls-8{stroke:#1d1d1b;}.cls-7{fill:#5d5757;}.cls-8{fill:none;}.cls-9{fill:#bfbfbf;}.cls-10{fill:#f2f2f2;}</style></defs><path class="cls-1" d="M401.72,309a6.5,6.5,0,0,0,7.77-.06c6.24,1.65,8.51,7,8.57,11.87l-23.82.19C394.3,316.42,396.29,310.77,401.72,309Z" transform="translate(-388.12 -261.16)"/><path class="cls-1" d="M398.26,300.41c0,4.91,3.27,8.89,7.31,8.89s7.3-4,7.3-8.89-3.27-8.89-7.3-8.89-7.31,4-7.31,8.89" transform="translate(-388.12 -261.16)"/><path class="cls-2" d="M432.13,309.43s.21-1.61.31-2.07a16.39,16.39,0,0,0-.1-2.62,20.32,20.32,0,0,0,0-2.65.58.58,0,0,0-1,0,3.77,3.77,0,0,0-.31,1.62s-1.05-2.34-1.49-3.05-.68-1.24-1.36-1c-.45.24-.18.9-.18.9s-.75-1.25-1.17-1.1c-1,.35.2,1.8.26,2s-.76-.91-1.07-.91-1,.09-.65.86a16.55,16.55,0,0,0,1.43,2.29,4.27,4.27,0,0,0-.91-.9c-.44-.26-.89,0-.51.59a6.69,6.69,0,0,1,1.23,2.61,9.3,9.3,0,0,0,1,3.08,8.38,8.38,0,0,1,.88,1.32s-1.15.19-1.2.35a14.11,14.11,0,0,0,.54,3.29c.21.74,1.36,6.89,1.36,6.89l12.92-.35-1.44-9.22s-2.61,3.26-3.11,3.71-1.33.15-2.13-.46-2.12-3.52-2.27-4-.33-1.09-.33-1.09Z" transform="translate(-388.12 -261.16)"/><path class="cls-3" d="M428.32,303" transform="translate(-388.12 -261.16)"/><path class="cls-3" d="M426.86,299.4" transform="translate(-388.12 -261.16)"/><path class="cls-3" d="M431,303a4.26,4.26,0,0,0,0,1.91,2.73,2.73,0,0,0-.4,2.28" transform="translate(-388.12 -261.16)"/><path class="cls-4" d="M448,308.8a6.49,6.49,0,0,1-7.53-.11c-5.43,1.78-7.42,7.42-7.48,12l15,.27Z" transform="translate(-388.12 -261.16)"/><path class="cls-4" d="M448,292.43a6.31,6.31,0,0,0-3.68-1.21c-4,0-7.31,4-7.31,8.89s3.27,8.89,7.31,8.89a6.38,6.38,0,0,0,3.68-1.21Z" transform="translate(-388.12 -261.16)"/><path class="cls-1" d="M393.54,287.69l-.37.3a2.81,2.81,0,0,0-.72,3.36,6,6,0,0,0,1.45,1.88,2.11,2.11,0,0,1,.73,1.72.79.79,0,0,0,.2.52,2.16,2.16,0,0,0,3.27-.49.41.41,0,0,0,0-.51.88.88,0,0,1-.24-.85,7.93,7.93,0,0,1,.33-1.18c.14-.38.37-.72.52-1.1a3,3,0,0,0-.95-3.56,3.54,3.54,0,0,0-4.18-.09m.29.35a3.19,3.19,0,0,1,4.12.55,2.19,2.19,0,0,1,.51,1.64,4,4,0,0,1-.54,1.73,3.77,3.77,0,0,0-.49,2,.72.72,0,0,0,.26.69s0,.22,0,.27a2.88,2.88,0,0,1-.67.49,2,2,0,0,1-1.83-.06.4.4,0,0,1-.24-.42,2.17,2.17,0,0,0-.74-1.84,8.74,8.74,0,0,1-1.18-1.47,2.31,2.31,0,0,1,.28-3,6.38,6.38,0,0,1,.53-.51" transform="translate(-388.12 -261.16)"/><path class="cls-1" d="M395,296.07a7,7,0,0,0,.78.25,2.5,2.5,0,0,0,1.93-.43c.13-.09.31-.3.46-.09s-.07.36-.23.47a2.38,2.38,0,0,1-2.55.32.54.54,0,0,1-.39-.52" transform="translate(-388.12 -261.16)"/><path class="cls-1" d="M398.29,296.55a1.6,1.6,0,0,1-.13.37,2.27,2.27,0,0,1-2.7.31.79.79,0,0,1-.24-.33,2.82,2.82,0,0,0,3-.46.87.87,0,0,0,.09.11" transform="translate(-388.12 -261.16)"/><path class="cls-1" d="M389.2,288.42a1.57,1.57,0,0,1,.27,0L391,289c.08,0,.13.14.19.21-.09,0-.19.08-.27.06-.49-.14-1-.3-1.47-.46a.73.73,0,0,1-.26-.17s0-.12,0-.22" transform="translate(-388.12 -261.16)"/><path class="cls-1" d="M399.67,290.28l.26,0,1.5.14a.44.44,0,0,1,.19.07.74.74,0,0,1,.12.17c-.06,0-.11.1-.17.1a5.85,5.85,0,0,1-.59,0l-1.19-.16c-.06,0-.12-.08-.17-.13s0-.08.05-.13" transform="translate(-388.12 -261.16)"/><path class="cls-1" d="M394.68,286.18a1.63,1.63,0,0,1-.18-.33c-.11-.51-.2-1-.3-1.53a.33.33,0,0,1,0-.17,2.26,2.26,0,0,1,.13-.2c.06.06.15.11.17.18.11.59.22,1.19.31,1.78,0,.06-.06.14-.12.27" transform="translate(-388.12 -261.16)"/><path class="cls-1" d="M391.42,291.58c-.58.16-1.14.32-1.71.46-.07,0-.17-.07-.26-.11.06-.06.11-.16.18-.19.55-.16,1.09-.31,1.65-.44.06,0,.15,0,.22.07s-.05.12-.08.21" transform="translate(-388.12 -261.16)"/><path class="cls-1" d="M401.27,286.91a1.34,1.34,0,0,1-.2.21c-.42.28-.85.55-1.28.81a.26.26,0,0,1-.15.07l-.21,0a.47.47,0,0,1,.07-.19,5.19,5.19,0,0,1,.46-.36c.28-.18.55-.37.83-.52a2,2,0,0,1,.42-.12l.06.13" transform="translate(-388.12 -261.16)"/><path class="cls-1" d="M390.89,285.77c0-.06,0-.21,0-.35a1.45,1.45,0,0,1,.36.22c.29.32.56.65.83,1a.74.74,0,0,1,.15.21.87.87,0,0,1,.05.28A.67.67,0,0,1,392,287c-.21-.2-.4-.4-.59-.61l-.54-.64" transform="translate(-388.12 -261.16)"/><path class="cls-1" d="M398.61,284.41a1.36,1.36,0,0,1,0,.21c-.21.53-.42,1.06-.64,1.59,0,.06-.12.09-.18.14s-.1-.18-.07-.25q.29-.8.6-1.59c0-.08.16-.11.24-.16l.07.06" transform="translate(-388.12 -261.16)"/><path class="cls-1" d="M396.8,293.05a.87.87,0,0,1-.39-1.13,6.25,6.25,0,0,1,.33-.63l.33-.66a1.8,1.8,0,0,0-.84-2.26l-.36-.19a1,1,0,0,1,.81.18,2.09,2.09,0,0,1,.79,2.61c-.15.31-.34.59-.49.89a1.22,1.22,0,0,0-.15.86,1,1,0,0,1,0,.33" transform="translate(-388.12 -261.16)"/><path class="cls-5" d="M420.12,288c.16-.32.55-.39.52-.9a4.9,4.9,0,0,1,1.19.43,1.11,1.11,0,0,0,1.58,1.53,8.85,8.85,0,0,1,.48,1.22c-1.17-.15-1.3,2.12,0,2,.06.58-.28.74-.32,1.2a1.19,1.19,0,0,0-1.64,1.67c-.42.08-.66.34-1.11.38-.24-1.31-2-1-2.31.06a5,5,0,0,0-1-.42c.7-1.17-.51-2.24-1.67-1.64-.07-.42-.34-.66-.38-1.11,1.45-.07.91-2,.05-2.31,0-.36.25-.54.31-.89a1.2,1.2,0,0,0,1.64-1.68,2.8,2.8,0,0,1,1.11-.38A1.2,1.2,0,0,0,420.12,288Zm.17,1.3a2.54,2.54,0,0,0-1.3-.12c-1.59.34-2.39,3.77,0,4.31,1.27.29,2.92-.17,2.85-2.25A1.94,1.94,0,0,0,420.29,289.33Z" transform="translate(-388.12 -261.16)"/><path class="cls-5" d="M412.7,289.22c0-.21.24-.33.11-.61a2.85,2.85,0,0,1,.77,0,.67.67,0,0,0,1.2.55,4.92,4.92,0,0,1,.51.59c-.68.15-.29,1.46.39,1.14.15.31,0,.47.06.74a.72.72,0,0,0-.58,1.28c-.23.12-.3.32-.55.44-.41-.69-1.35-.15-1.29.5a3.44,3.44,0,0,0-.65,0,.72.72,0,0,0-1.28-.58c-.13-.22-.33-.3-.44-.55.8-.33.1-1.33-.44-1.31-.06-.22,0-.36,0-.57a.72.72,0,0,0,.59-1.28,1.78,1.78,0,0,1,.55-.44A.72.72,0,0,0,412.7,289.22Zm.37.7a1.57,1.57,0,0,0-.76.19c-.83.52-.59,2.62.89,2.43a1.28,1.28,0,0,0,1.15-1.85A1.17,1.17,0,0,0,413.07,289.92Z" transform="translate(-388.12 -261.16)"/><path class="cls-5" d="M415,294c0-.16.17-.25.07-.46a2.79,2.79,0,0,1,.57,0,.49.49,0,0,0,.9.39,4.22,4.22,0,0,1,.4.43c-.51.13-.2,1.09.3.84.12.23,0,.35.06.55a.53.53,0,0,0-.41,1c-.17.1-.22.25-.4.34-.31-.51-1-.09-1,.39a2.64,2.64,0,0,0-.49,0,.53.53,0,0,0-1-.41c-.1-.17-.25-.22-.34-.41.59-.25.05-1-.35-1,0-.16,0-.27,0-.43a.53.53,0,0,0,.41-1,1.11,1.11,0,0,1,.4-.33A.54.54,0,0,0,415,294Zm.28.51a1.16,1.16,0,0,0-.56.16c-.61.4-.39,1.95.7,1.79a1,1,0,0,0,.83-1.4A.89.89,0,0,0,415.27,294.52Z" transform="translate(-388.12 -261.16)"/><path class="cls-6" d="M413.5,272c-4.5,0-8.15,2.47-8.15,5.5,0,1.73,1.18,3.27,3,4.28l-.93,6.43,3.35-5.52a11.75,11.75,0,0,0,2.7.31c4.5,0,8.15-2.46,8.15-5.5S418,272,413.5,272Z" transform="translate(-388.12 -261.16)"/><path class="cls-6" d="M443.35,283.6c0-3-3.65-5.5-8.15-5.5s-8.15,2.47-8.15,5.5c0,2.56,2.59,4.71,6.1,5.33l3.51,5.64-.85-5.48C440,288.88,443.35,286.5,443.35,283.6Z" transform="translate(-388.12 -261.16)"/><rect class="cls-7" x="43.34" y="21.09" width="7.88" height="0.86"/><rect class="cls-7" x="43.34" y="22.54" width="7.88" height="0.86"/><rect class="cls-7" x="43.3" y="23.91" width="2.99" height="0.89"/><rect class="cls-7" x="21.94" y="14.49" width="7.88" height="0.86"/><rect class="cls-7" x="21.94" y="15.94" width="7.88" height="0.86"/><rect class="cls-7" x="21.9" y="17.31" width="2.99" height="0.89"/><rect class="cls-8" x="0.5" y="0.5" width="59.42" height="59.42"/><rect class="cls-9" x="0.18" y="60.24" width="60.01" height="10.4"/><rect class="cls-10" x="49.75" y="60.24" width="10.67" height="10.4"/><path d="M445.87,326.74c0,2-.82,3.45-2.5,3.45s-2.46-1.54-2.47-3.41.8-3.43,2.51-3.43S445.87,324.93,445.87,326.74Zm-3.43,0c0,1.52.37,2.24,1,2.24s.93-.75.93-2.26-.32-2.24-.94-2.24S442.44,325.23,442.44,326.78Z" transform="translate(-388.12 -261.16)"/></svg>