<svg id="Layer_1" data-name="Layer 1" xmlns="http://www.w3.org/2000/svg" viewBox="0 0 60.42 70.65"><defs><style>.cls-1{fill:#12100b;}.cls-2{fill:#706f6f;}.cls-3{fill:#fff;}.cls-4,.cls-5,.cls-6{fill:#4d4d4d;}.cls-5{stroke:#fff;stroke-width:0.5px;}.cls-6{stroke:#4d4d4d;}.cls-7{fill:#f2f2f2;}.cls-8{fill:none;stroke:#1d1d1b;}.cls-9{fill:#bfbfbf;}</style></defs><path class="cls-1" d="M418.47,307.79,408,296.5l-.53.5A28.57,28.57,0,0,1,406.1,294a3.13,3.13,0,0,0-1-1.55,12.25,12.25,0,0,1-1.09-1.26,9.55,9.55,0,0,0-1.29-1.25c-.24-.13-.79.23-1.17.4a5.87,5.87,0,0,0-1.15.62,5.38,5.38,0,0,0-.33.53,5.4,5.4,0,0,0-.66.1l-.22,0c.56.45,1.08,1,1.66,1.39s1.24.79,1.82,1.26a8.62,8.62,0,0,1,2.33,3.95c.24.68,1.12,1.15,1.31,1.9,0,0,.16,0,.18,0l-.2-.31a9.24,9.24,0,0,0,1.2,3.34c.91,1.19,1.49,2.7,2.37,3.93a1,1,0,0,1-.17,1.45,8,8,0,0,1-4.3,1.33c-1.15.12-2.3.17-3.45.18a.78.78,0,0,1-.12.49c-.78,1.27-1.69,1.62-2.62,1.39a2.28,2.28,0,0,1-.17.5,3.71,3.71,0,0,1-.33.54l.21-.05c.93-.17,1.88,0,2.81-.19a1,1,0,0,1,.95,1.45l9.15,1,4.07-2.08C420.72,310.64,418.47,307.79,418.47,307.79Z" transform="translate(-388.13 -261.16)"/><path class="cls-2" d="M404.46,264.24a6.82,6.82,0,0,1,1.09.42,7.68,7.68,0,0,1,1.24,1c.18.16.29.23.52.13a3.84,3.84,0,0,1,5.22,2,11.9,11.9,0,0,1,.56,1.9,15.2,15.2,0,0,1,1.58,1.11,3.87,3.87,0,0,1,1.22,2.31,1,1,0,0,0,.07.23v1.13l-.09.35a4.2,4.2,0,0,1-2.5,3.08.46.46,0,0,0-.32.49,4.06,4.06,0,0,1-5.32,4,12.1,12.1,0,0,1-1.2-.59,3.82,3.82,0,0,1-3.48,1,4.12,4.12,0,0,1-2.89-2.35h-.08a4,4,0,0,1-4.24-1.83,4.54,4.54,0,0,1,.13-5,.64.64,0,0,0,0-.39,7.81,7.81,0,0,1-.29-1.32,4.19,4.19,0,0,1,4-4.67.38.38,0,0,0,.41-.3,3.62,3.62,0,0,1,1.48-1.94,13.39,13.39,0,0,1,1.73-.77Zm7.61,13.84v-.2c0-.58.05-.7.57-.86a3.08,3.08,0,0,0,2.25-2.37,3.29,3.29,0,0,0-2.12-3.92c-.76-.22-.75-.22-.76-1a3.17,3.17,0,0,0-1.45-2.8,2.81,2.81,0,0,0-3.14-.06c-.59.34-.71.32-1.1-.23a2.86,2.86,0,0,0-3-1.29,3.06,3.06,0,0,0-2.42,2.34c-.18.6-.28.68-.86.64a2.9,2.9,0,0,0-2.84,1.44A3.23,3.23,0,0,0,397,273a.89.89,0,0,1-.12,1.06,3.31,3.31,0,0,0,1.68,5.32,3.79,3.79,0,0,0,1.46-.07c.57-.11.73-.07,1,.47a3,3,0,0,0,5,1c.38-.41.57-.42,1-.05a3,3,0,0,0,5-1.77,6.59,6.59,0,0,0,.1-.88h0" transform="translate(-388.13 -261.16)"/><path class="cls-1" d="M404.56,276.27l-.07-.43a3.52,3.52,0,0,1,.92-2.93,3.58,3.58,0,0,0,1.11-2.38c-.07-.84-.71-1.35-1.88-1.27a3.53,3.53,0,0,0-1.83.66l-.54-1a5.39,5.39,0,0,1,2.61-.88c2.13-.18,3.19.91,3.3,2.17a4.31,4.31,0,0,1-1.36,3,3.06,3.06,0,0,0-.86,2.52l.05.42Zm.95,3.29a1,1,0,0,1-1.16-.94,1,1,0,0,1,1-1.13,1,1,0,1,1,.15,2.06Z" transform="translate(-388.13 -261.16)"/><path class="cls-3" d="M403.74,301.29a1.56,1.56,0,0,0,1.73-1.32,1.57,1.57,0,0,0-1.33-1.74,1.54,1.54,0,1,0-.4,3.06m1.35,2.44a1.13,1.13,0,0,0,1.22-1,1.1,1.1,0,0,0-1-1.21,1.12,1.12,0,0,0-1.23.95,1.13,1.13,0,0,0,1,1.22" transform="translate(-388.13 -261.16)"/><path class="cls-2" d="M405.49,286.73c-1.65-.12-3-.89-2.93-1.74s1.48-1.45,3.12-1.34,3,.89,2.93,1.76-1.43,1.43-3.12,1.32m1.89-1.42c0-.51-.74-1-1.72-1s-1.83.31-1.87.8.75,1,1.75,1,1.81-.27,1.84-.79" transform="translate(-388.13 -261.16)"/><path class="cls-2" d="M403,288.77c-1-.17-1.84-.83-1.74-1.4s1.07-.92,2.13-.75,1.85.82,1.74,1.4-1.1.93-2.13.75m-.86-1.26c-.06.32.36.67.93.78s1.11-.09,1.18-.41-.36-.67-.94-.77-1.1.07-1.17.4" transform="translate(-388.13 -261.16)"/><path class="cls-3" d="M403,299.64a.92.92,0,0,1,1-.79.94.94,0,0,1,.8,1,.93.93,0,0,1-1,.79.9.9,0,0,1-.78-1" transform="translate(-388.13 -261.16)"/><path class="cls-3" d="M405.81,302.7a.6.6,0,1,1-1.19-.12.6.6,0,0,1,1.19.12" transform="translate(-388.13 -261.16)"/><path class="cls-4" d="M431,300.24c0,4.91,3.27,8.88,7.31,8.88s7.3-4,7.3-8.88-3.27-8.89-7.3-8.89-7.31,4-7.31,8.89" transform="translate(-388.13 -261.16)"/><path class="cls-1" d="M405.51,300.53c0,4.9-3.27,8.89-7.31,8.89s-7.31-4-7.31-8.89,3.27-8.89,7.31-8.89,7.31,4,7.31,8.89" transform="translate(-388.13 -261.16)"/><path class="cls-1" d="M405.5,311.11c-1-.1-11.5,2-11.5,2l.46.87,19.92-2.62c.37-.09,1.41.39,1.55.09.23-.5-.46-1.7.08-2.34s.88-.21.69-.47.55.35-.19-.39,1.18-1.3-.29-2.23-4.56-4.95-4.56-4.95a18.28,18.28,0,0,0-3-2.94c-.83-.38-.64-.45-.86-.86a28.28,28.28,0,0,1-1.51-3.1,3.09,3.09,0,0,0-1.08-1.51,14,14,0,0,1-1.16-1.21,9.53,9.53,0,0,0-1.37-1.22c-.26-.12-.83.23-1.25.39a6.93,6.93,0,0,0-1.21.61,4,4,0,0,0-.35.51s-.39,0-.71.09-1,0-1.27.1.06.48.06.48a11.85,11.85,0,0,1,2.05,1.09,5.59,5.59,0,0,0,1.59.73l.16-.25s.16.06.36.16.35.67.35.67a9.71,9.71,0,0,1,.83,1.44,4.05,4.05,0,0,1,.35,1.91,1.21,1.21,0,0,0,.48,1,10.64,10.64,0,0,1,1.5-.05c.29.07,2.46,2.6,3.46,3.56s3.16,2.69,3.77,3.33a18.9,18.9,0,0,1,1.57,2.17s-7.53,3.82-8.68,3.6S406.49,311.2,405.5,311.11Z" transform="translate(-388.13 -261.16)"/><path class="cls-4" d="M427.13,309.94s.2-1.55.3-2a16.21,16.21,0,0,0-.1-2.51,20.5,20.5,0,0,0,0-2.54.55.55,0,0,0-.93-.05,3.58,3.58,0,0,0-.3,1.55s-1-2.24-1.43-2.92-.65-1.19-1.3-1c-.43.23-.17.86-.17.86s-.72-1.2-1.12-1.05c-.95.33.19,1.73.24,1.9s-.72-.87-1-.87-.92.09-.63.82a15.64,15.64,0,0,0,1.38,2.21,4,4,0,0,0-.88-.87c-.42-.25-.85,0-.48.56a6.27,6.27,0,0,1,1.17,2.51,9.25,9.25,0,0,0,1,2.94,7.73,7.73,0,0,1,.85,1.28s-1.1.18-1.16.32a13.3,13.3,0,0,0,.53,3.15c.2.72,1.3,6.61,1.3,6.61l12.38-.34-1.38-8.83s-2.51,3.12-3,3.55-1.28.15-2.05-.43-2-3.37-2.17-3.81-.32-1-.32-1Z" transform="translate(-388.13 -261.16)"/><path class="cls-5" d="M423.47,303.78" transform="translate(-388.13 -261.16)"/><path class="cls-5" d="M422.08,300.33" transform="translate(-388.13 -261.16)"/><path class="cls-5" d="M426.07,303.73a4.06,4.06,0,0,0,0,1.83,2.67,2.67,0,0,0-.39,2.19" transform="translate(-388.13 -261.16)"/><path class="cls-6" d="M447.88,312.28a10.82,10.82,0,0,0-5.61-3.52,6.5,6.5,0,0,1-7.77.06c-5.44,1.78-7.43,7.43-7.48,12l20.86.3Z" transform="translate(-388.13 -261.16)"/><path class="cls-7" d="M430.89,317.38l1.25-.27a1.48,1.48,0,0,0,.32.78.9.9,0,0,0,.68.26,1,1,0,0,0,.73-.25.64.64,0,0,0,.17-.46.54.54,0,0,0-.09-.33.84.84,0,0,0-.42-.23,5.66,5.66,0,0,1-1.91-.86,2,2,0,0,1-.56-1.48,2.2,2.2,0,0,1,.48-1.45,1.85,1.85,0,0,1,1.5-.58,2,2,0,0,1,1.44.44,2.35,2.35,0,0,1,.64,1.3l-1.17.31a1.09,1.09,0,0,0-.28-.59.81.81,0,0,0-.6-.21,1,1,0,0,0-.71.2.48.48,0,0,0-.14.35.45.45,0,0,0,.12.32,4,4,0,0,0,1.17.49,3,3,0,0,1,1.38.78,2,2,0,0,1,.4,1.3,2.38,2.38,0,0,1-.55,1.56,1.94,1.94,0,0,1-1.6.66,2.11,2.11,0,0,1-1.52-.55A2.7,2.7,0,0,1,430.89,317.38Z" transform="translate(-388.13 -261.16)"/><path class="cls-7" d="M436.09,315.87a4.85,4.85,0,0,1,.3-1.69,2.7,2.7,0,0,1,.87-1.24,2,2,0,0,1,1.25-.43,2,2,0,0,1,1.75,1,4.15,4.15,0,0,1,.68,2.46,4.25,4.25,0,0,1-.69,2.49,2,2,0,0,1-1.73,1,2.08,2.08,0,0,1-1.23-.42,2.49,2.49,0,0,1-.9-1.2A5.47,5.47,0,0,1,436.09,315.87Zm1.27.09a2.75,2.75,0,0,0,.34,1.51.9.9,0,0,0,1.63,0,2.88,2.88,0,0,0,.33-1.52,2.83,2.83,0,0,0-.33-1.5.9.9,0,0,0-1.63,0A2.75,2.75,0,0,0,437.36,316Z" transform="translate(-388.13 -261.16)"/><path class="cls-7" d="M446.2,319.27H445v-3.38a6.67,6.67,0,0,0-.08-1.38,1,1,0,0,0-.26-.49.58.58,0,0,0-.43-.18.85.85,0,0,0-.58.25,1.32,1.32,0,0,0-.35.66,8.18,8.18,0,0,0-.1,1.52v3h-1.24v-6.61h1.16v1a1.78,1.78,0,0,1,1.55-1.12,1.5,1.5,0,0,1,.75.2,1.42,1.42,0,0,1,.52.54,2.61,2.61,0,0,1,.24.73,8.42,8.42,0,0,1,.07,1.18Z" transform="translate(-388.13 -261.16)"/><path class="cls-1" d="M415.77,305.19l-7.9-8.2-2.18,3.86,4.59,6.91-9.94,1.86a6.28,6.28,0,0,1-2.4.5,6.42,6.42,0,0,1-4.13-1.56,11.34,11.34,0,0,0-5.64,4v8.29l19.33.2a10.8,10.8,0,0,0-.68-3.5l3.1-1.51,6.45-3.2s0-1.35.25-.12l.2-6.29C416.6,306.22,415.77,305.19,415.77,305.19Z" transform="translate(-388.13 -261.16)"/><rect class="cls-8" x="0.5" y="0.5" width="59.42" height="59.42"/><rect class="cls-9" x="0.21" y="60.24" width="60.01" height="10.4"/><rect class="cls-7" x="49.74" y="60.24" width="10.67" height="10.4"/><path d="M443.72,330.08V328.5h-2.93v-1l2.49-4h1.9v3.88H446v1.16h-.79v1.58Zm0-2.74v-1.47c0-.39,0-.8,0-1.23h0c-.22.43-.4.82-.62,1.23l-.88,1.45v0Z" transform="translate(-388.13 -261.16)"/></svg>