<svg id="Layer_1" data-name="Layer 1" xmlns="http://www.w3.org/2000/svg" viewBox="0 0 60.42 70.67"><defs><style>.cls-1,.cls-5,.cls-7{fill:none;}.cls-1{stroke:#1d1d1b;}.cls-2{fill:#4d4d4d;}.cls-3{fill:#989492;}.cls-4{fill:#12100b;}.cls-5{stroke:#fff;stroke-miterlimit:10;stroke-width:0.5px;}.cls-6{fill:#fff;}.cls-7{stroke:#4d4d4d;}.cls-8{fill:#bfbfbf;}.cls-9{fill:#f2f2f2;}</style></defs><rect class="cls-1" x="0.5" y="0.5" width="59.42" height="59.42"/><path class="cls-2" d="M419.84,284.88A4,4,0,0,1,419,284l.82-.16c.35-.07,1.05-.33.82-.51s-.83-.07-1.31-.07a15.14,15.14,0,0,0-2,0l.18-.32-5.42-2.2-1.56-6.33-.76,9.22a2.33,2.33,0,0,0,1.92.81l4.3,1.24.42-.77.2.14s1.27,1.4,1.82,1.53a4.45,4.45,0,0,0,2.42-.39C421,285.92,420.35,285.28,419.84,284.88Z" transform="translate(-388.13 -261.15)"/><path class="cls-3" d="M418.77,281.62l-.06-1.69.54-.24.2.16a3.81,3.81,0,0,0,.52-.65c.23-.38,1.53-.92,1.95-1.17s.89-.63,1.19-.6-.2.62-.47.85l-.64.56a4.26,4.26,0,0,0,1.16.34c.64.09,1.52.33,1.52.64s-1.39,1.4-1.93,1.56a7.38,7.38,0,0,1-2.35-.42l-.83.85S419.58,281.13,418.77,281.62Z" transform="translate(-388.13 -261.15)"/><path class="cls-4" d="M434.27,292.53a4,4,0,0,1,.33.31c0,.07.15.18,0,.28s-.49.16-.59.08-.58-.61-.58-.61Z" transform="translate(-388.13 -261.15)"/><path class="cls-5" d="M417.6,309.87" transform="translate(-388.13 -261.15)"/><path class="cls-2" d="M427.46,287.87l.9-.1.18-.19,6.07-.05.06.23h.65s1.79-.16,2.1.9A36.15,36.15,0,0,1,438,293l-.33-.16-.31.05-.43-.79-.31-2.95a1.14,1.14,0,0,0-1.19-.77c-1,0-.62-.05-.62-.05l0,.22-6.35.24v-.26l-.46.09s-.9,2.53-.67,3.41,0,.48,0,.48l-1.08.14.14-.41S426.11,289.39,427.46,287.87Z" transform="translate(-388.13 -261.15)"/><path class="cls-2" d="M439.8,314.37l-1-16.94-.34-4.17s0-1-1.53-1.28c-.35-.07-.68-.08-.9-.13a.87.87,0,0,1-.52-.36l-2.73-.06-5,.15-.42.46a2.28,2.28,0,0,0-2.54,2.07c-.26,1.93-.43,3.35-.48,3.78l0,.15-2.82,19.55-.3.31-.14.79a1.59,1.59,0,0,0,.9.31,1.06,1.06,0,0,0,.71-.27l.08-1-.17-.29,1.69-9s.77-1.89,2.22-2,10.23.41,10.23.41a1.78,1.78,0,0,1,1.77,1.76c.07,1.18.29,5.8.29,5.8Zm-5.1-8.5c-1,0-6-.3-7.64-.25a6.09,6.09,0,0,0-2.68.68s1.37-10.86,1.74-12.2a1.47,1.47,0,0,1,1.63-1.14l4.82-.15s2.12.09,3.11,0c0,0,0-.09,0-.09a2.28,2.28,0,0,1,.54,0,1.58,1.58,0,0,1,1.33,1.13l1,12.8C437.92,306,435.68,305.84,434.7,305.87Z" transform="translate(-388.13 -261.15)"/><path class="cls-2" d="M438.37,301a2.43,2.43,0,0,0-1.57-1.32c-.45-.09-4.09-.28-4.09-.28l-4-.05-3.63.1,0-.21.22-.67,4.58-.11s4.25.08,5.3.16a4.41,4.41,0,0,1,2.64.76A2.9,2.9,0,0,1,438.37,301Z" transform="translate(-388.13 -261.15)"/><path class="cls-6" d="M423.52,286c.1.2,2,2.37,2.06,2.57v.06c-.1-.2-2-2.43-2.06-2.63-.62-1.21-1.27-2.31-1.73-3.14h0a6.28,6.28,0,0,0-1.14-1.68h0a.29.29,0,0,0,0,.12h-.17c0-.14,0-.26.15-.3h0c.19,0,.3.15.51.41h0c.2.28.41.69.69,1.18" transform="translate(-388.13 -261.15)"/><path class="cls-4" d="M421.05,268.44c-.78,2-.15,4.06,1.4,4.66s3.43-.54,4.21-2.53.15-4.06-1.4-4.65S421.83,266.45,421.05,268.44Z" transform="translate(-388.13 -261.15)"/><path class="cls-2" d="M442.17,315.53,442,315a4.14,4.14,0,0,0-.57-.86c-.2-.28-.51-.37-.71-.63-.35-.08-.64-.26-1-.35a10.41,10.41,0,0,0,0-1.12l-.86-.06c-.11.36.1.95-.08,1.24l-.83.22a4.73,4.73,0,0,0-1.16,1,3.4,3.4,0,0,0-.41,2.22,3.23,3.23,0,0,0,1.58,2.09,4.18,4.18,0,0,0,1.57.25l1-.27A3,3,0,0,0,442.17,315.53ZM439.72,314c.13,0,.2.08.3.12.07.3-.18.43-.23.67C439.61,314.67,439.81,314.29,439.72,314Zm.35,2.29a.34.34,0,0,1-.12-.18,3.07,3.07,0,0,1,1.33-.36,1.08,1.08,0,0,1-.08,1C440.67,316.86,440.48,316.38,440.07,316.31Zm1,.8a2.24,2.24,0,0,1-.64-.36c-.21-.11-.45-.15-.59-.39a2.33,2.33,0,0,1,.65.37C440.73,316.83,441,316.88,441.1,317.11Zm-1.29-1.48c.05-.44.41-.7.52-1.1l.32-.08a1.48,1.48,0,0,1,.49.81A3.08,3.08,0,0,1,439.81,315.63Zm.24-.89c0,.22-.22.34-.26.55-.19-.11.12-.39.2-.53s.22-.33.26-.55C440.44,314.33,440.13,314.61,440.05,314.74Zm-.19,1.83c.31.3.78.31,1,.74a1.23,1.23,0,0,1-.78.62c-.29-.21-.4-.93-.43-1.31Zm-.19.8.17.63c0,.23-.11-.15-.13-.24l-.12-.44C439.6,317.21,439.66,317.3,439.67,317.37Zm-.33-1.48.07.25c-.16.07-.28.05-.31-.12A.46.46,0,0,1,439.34,315.89Zm0,1.42c.05.25.23.59.15.78a1.12,1.12,0,0,1-1-.14c-.1-.36.24-.47.27-.76A1.14,1.14,0,0,0,439.38,317.31Zm-1.29-1.76c.14.19.41.14.52.4-.32.18-1.12.47-1.41.32,0-.37-.06-.75.22-.95S437.83,315.53,438.09,315.55Zm-.6-.45c.14-.18.45.15.61.24s.45.15.58.39C438.26,315.57,437.92,315.26,437.49,315.1Zm-.08,1.72a3,3,0,0,1,1.34-.36c0,.27-.19.43-.31.63s-.11.44-.4.52-.43-.37-.64-.58C437.36,316.93,437.43,316.9,437.41,316.82Zm1.1.52c0-.21.22-.33.26-.54.19.11-.12.39-.2.52s-.22.34-.26.55C438.12,317.76,438.43,317.48,438.51,317.34Zm.37-1.87c-.33.11-.41-.21-.67-.23-.14-.19-.42-.14-.52-.4s.39-.53.77-.69A5.54,5.54,0,0,1,438.88,315.47Zm-.17-1.38c0-.23.13.21.15.3S438.74,314.18,438.71,314.09Zm3,2.31-.06,0c0,.05,0,.12,0,.14a.44.44,0,0,1-.15.45s0,.08-.05.08a.24.24,0,0,1-.18.32s0,.08-.05.09a.16.16,0,0,1-.15.17,2.42,2.42,0,0,1-2.68.66l0-.06a.66.66,0,0,1-.56-.33.17.17,0,0,1-.18-.15c-.05,0-.09,0-.1-.11s-.09,0-.1-.11a2.26,2.26,0,0,1-.58-1.88l.07,0c0-.05,0-.13,0-.14s0-.13,0-.15a.3.3,0,0,1,0-.21H437a.65.65,0,0,1,.32-.57.2.2,0,0,1,.16-.18c.08-.29.47-.4.72-.6l.57-.16c.11,0,0,.1-.11.1l-.32.09a5.35,5.35,0,0,0-.86.57.18.18,0,0,1-.16.18,1.78,1.78,0,0,1-.32.57.19.19,0,0,1-.07.22c0,.05,0,.13,0,.15s0,.12,0,.14a3,3,0,0,0,.51,1.9c.06,0,.09,0,.1.11s.09,0,.1.11a.19.19,0,0,1,.18.15,2.12,2.12,0,0,1,.56.33,2.86,2.86,0,0,0,1.83,0,5.06,5.06,0,0,0,.87-.58.16.16,0,0,1,.15-.17s0-.08.05-.09.14-.17.12-.3l.06,0s0-.08.05-.08c-.05-.19.11-.26.09-.43l.06,0c0-.05,0-.13,0-.14a3,3,0,0,0-.52-1.9c-.05,0-.08,0-.09-.11a.62.62,0,0,1-.36-.32s-.08,0-.08,0-.14-.08-.23-.08v-.06s-.08,0-.08,0-.08,0-.08-.05a.47.47,0,0,1-.21,0l0-.07a.29.29,0,0,1-.21,0c0-.1.13-.08.19-.05l0,.06a.19.19,0,0,1,.23.08s.07,0,.08.05.07,0,.08,0,.21,0,.24.14.08,0,.08,0a.48.48,0,0,1,.36.32c.05,0,.08,0,.09.11A2.31,2.31,0,0,1,441.72,316.4Z" transform="translate(-388.13 -261.15)"/><path class="cls-2" d="M441.39,308.83l-.13-.49a3.91,3.91,0,0,0-.5-.75c-.17-.25-.44-.32-.62-.54s-.55-.23-.85-.3c0-.37,0-.6,0-1l-.75,0c-.09.31.08.83-.07,1.07l-.72.19a4.47,4.47,0,0,0-1,.87,3,3,0,0,0-.36,1.92,2.79,2.79,0,0,0,1.38,1.81,3.61,3.61,0,0,0,1.35.22l.88-.24A2.62,2.62,0,0,0,441.39,308.83Zm-2.12-1.31c.11,0,.17.07.26.11.06.26-.16.37-.2.58C439.18,308.09,439.35,307.75,439.27,307.52Zm.3,2a.28.28,0,0,1-.1-.15,2.57,2.57,0,0,1,1.15-.31,1,1,0,0,1-.06.84C440.1,310,439.93,309.57,439.57,309.5Zm.89.7a1.8,1.8,0,0,1-.55-.32c-.18-.09-.39-.13-.51-.33a1.74,1.74,0,0,1,.56.32C440.14,310,440.35,310,440.46,310.2Zm-1.11-1.29c0-.38.35-.6.45-1l.27-.07a1.29,1.29,0,0,1,.43.71A2.57,2.57,0,0,1,439.35,308.91Zm.21-.76c0,.18-.2.29-.23.47-.16-.09.1-.34.17-.45s.19-.3.22-.48C439.89,307.79,439.62,308,439.56,308.15Zm-.17,1.58c.27.26.68.27.89.64a1.09,1.09,0,0,1-.68.54c-.25-.18-.35-.81-.37-1.14Zm-.16.69.15.55c0,.19-.11-.13-.12-.21l-.1-.38C439.17,310.29,439.21,310.36,439.23,310.42Zm-.29-1.28.06.22c-.14.05-.24.05-.26-.1A.27.27,0,0,1,438.94,309.14Zm0,1.23c0,.22.19.51.12.67a.93.93,0,0,1-.85-.12c-.09-.31.2-.4.23-.65A1,1,0,0,0,439,310.37Zm-1.12-1.53c.12.17.36.13.45.36-.27.15-1,.4-1.23.27,0-.32-.05-.65.19-.82S437.63,308.83,437.86,308.84Zm-.52-.38c.12-.16.39.13.53.21s.39.13.5.33C438,308.86,437.71,308.59,437.34,308.46Zm-.07,1.49a2.75,2.75,0,0,1,1.15-.32c0,.24-.15.38-.26.55s-.09.38-.35.45-.37-.32-.55-.5S437.29,310,437.27,310Zm1,.45c0-.19.19-.29.23-.48.16.1-.11.35-.18.46s-.19.29-.22.48C437.88,310.76,438.15,310.52,438.22,310.4Zm.33-1.62c-.29.09-.36-.19-.59-.2-.12-.17-.36-.12-.45-.35s.34-.45.67-.59A5.65,5.65,0,0,1,438.55,308.78Zm-.15-1.2c0-.2.1.18.13.26S438.42,307.66,438.4,307.58Zm2.6,2-.05,0s0,.11,0,.12a.43.43,0,0,1-.13.39s0,.07-.05.07a.21.21,0,0,1-.15.28s0,.07,0,.07a.17.17,0,0,1-.14.16,2.11,2.11,0,0,1-2.32.56l0-.05a.56.56,0,0,1-.48-.28.15.15,0,0,1-.16-.13c-.05,0-.08,0-.08-.1s-.08,0-.09-.09a2,2,0,0,1-.5-1.64h.05c0-.05,0-.11,0-.13s0-.1,0-.12a.28.28,0,0,1,0-.18l.06,0a.56.56,0,0,1,.28-.48.15.15,0,0,1,.13-.16c.07-.25.41-.35.63-.52l.49-.13c.1,0,0,.07-.09.08l-.28.07a5.15,5.15,0,0,0-.75.5.16.16,0,0,1-.13.16,1.44,1.44,0,0,1-.28.48.16.16,0,0,1-.06.2s0,.11,0,.12,0,.11,0,.13a2.68,2.68,0,0,0,.45,1.65q.08,0,.09.09s.07,0,.08.1a.16.16,0,0,1,.16.13,1.64,1.64,0,0,1,.48.28,2.47,2.47,0,0,0,1.59,0,4.63,4.63,0,0,0,.75-.49.15.15,0,0,1,.14-.16s0-.07,0-.07.11-.15.1-.26l.05,0s0-.07.05-.07c-.05-.16.09-.22.07-.37l.06,0s0-.11,0-.12a2.62,2.62,0,0,0-.45-1.65s-.07,0-.08-.09a.54.54,0,0,1-.31-.27s-.07,0-.07,0-.12-.07-.2-.07v-.05s-.07,0-.07,0-.07,0-.07-.05a.28.28,0,0,1-.18,0v-.06a.26.26,0,0,1-.18,0c0-.09.11-.07.16,0l0,.06a.15.15,0,0,1,.19.06s.07,0,.07.05.07,0,.07,0,.19,0,.21.12.07,0,.07,0a.38.38,0,0,1,.31.27s.08,0,.08.09A2,2,0,0,1,441,309.58Z" transform="translate(-388.13 -261.15)"/><path class="cls-7" d="M442.08,316a2.88,2.88,0,1,1-2.88-2.87A2.88,2.88,0,0,1,442.08,316Z" transform="translate(-388.13 -261.15)"/><path class="cls-4" d="M415.89,316.28h0S415.88,316.35,415.89,316.28Zm17.68-23.49-.3-.08a4.4,4.4,0,0,0-.16-.46,3.75,3.75,0,0,1,.05-.81h0c-.14-.41-1-.68-1.2-.74l.2-.17L430.64,289a6.09,6.09,0,0,1,.57.28l.35,0c.09,0,.17-.16.17-.16l.4,0s.13,0,.51-.09a1.17,1.17,0,0,0,.58-.49l-.76,0-.73-.67a.32.32,0,0,1,.18-.32.79.79,0,0,1,.49,0h.37l.3,0s.08-.55-.32-.64a5.2,5.2,0,0,0-.86-.08s-.6.17-.76,0l-.13-.14.14-.36-4-3.24-3.6-9.38-.06-.05a2.6,2.6,0,0,1-1-.11,3.09,3.09,0,0,1-1.9-1.9c-.17,0-4,2.19-5.92,21.68.64.19.59.08.61.09.26.37.11,2.84.24,6.8,0,.79.09,4.06.11,4.87.05,4.21-.28,8.25-.42,9.79l-.17,1.29.85.12s0,0,0,0a1.17,1.17,0,0,1-.1.63c-.05.18-.05.49.45.68s2.81.54,3.16.63a4.27,4.27,0,0,0,1.77-.05c.44-.15,1.3-.32,1.39-.69s0-.54-.25-.62-1.21-.28-1.44-.4-.88-.45-1.39-.74c.06-.49.13-1,.19-1.43l.45.23a4.48,4.48,0,0,0,1.71.44c.47,0,1.34.06,1.53-.27s.14-.52-.07-.67-1.08-.6-1.27-.78-.63-.59-1-1c.67-.7,6.4-6.76,7.17-8.17.59-1.07-2.4-8.4-3.13-10.12a.68.68,0,0,0,.29-.73c-.19-1.51-.24-3.17-.31-5.23a45,45,0,0,1,4.69,4.67l.52-.45.07.06.29.3a4.86,4.86,0,0,0,.23.92c.16.37.31.25.51.4a.86.86,0,0,0,.55.12,5.12,5.12,0,0,0,.73-.13,3,3,0,0,0,.82-.48,2.8,2.8,0,0,1,.35-.18l0-.4Zm-12.9,13.4c.27-2.56.41-4.45.61-6.8.6,1.21,1.18,2.44,1.63,3.57Zm9.82-17.38v.08l-.61-.59a4.21,4.21,0,0,0,.48.15l.07-.2a1.64,1.64,0,0,1,.27.18l.27.11-.35,0A.38.38,0,0,0,430.49,288.81Z" transform="translate(-388.13 -261.15)"/><path class="cls-2" d="M407.83,269.33c-.74,1.9-.14,3.91,1.35,4.47s3.3-.51,4-2.42.15-3.91-1.34-4.47S408.58,267.43,407.83,269.33Z" transform="translate(-388.13 -261.15)"/><path class="cls-2" d="M433.89,305.86c-1.78-.05-5.49-.27-6.83-.23a6.17,6.17,0,0,0-2.68.67s1.37-10.85,1.74-12.2a1.47,1.47,0,0,1,1.63-1.13h.08a2.85,2.85,0,0,1,.44-1.39h-.41l-.42.46a2.28,2.28,0,0,0-2.54,2.07c-.26,1.92-.43,3.34-.48,3.78l0,.15-2.82,19.55-.3.31-.14.79a1.59,1.59,0,0,0,.9.31,1.06,1.06,0,0,0,.71-.27l.08-1-.17-.29,1.69-9s.77-1.89,2.22-2c.9-.06,4.65.12,7.35.25Z" transform="translate(-388.13 -261.15)"/><path class="cls-2" d="M433.44,298.52l-3.57-.09-4.58.11-.22.67,0,.21,3.63-.11,4,.06.8,0C433.49,299.11,433.46,298.82,433.44,298.52Z" transform="translate(-388.13 -261.15)"/><path class="cls-2" d="M418.73,289a4.68,4.68,0,0,1-.85-.91l.87-.16c.36-.06,1.09-.33.85-.51s-.86-.09-1.36-.09a14.64,14.64,0,0,0-2.13-.06l.19-.33-4.93-2.38-2.19-4.63-1.53,6.38a9.27,9.27,0,0,0,1.7,1.64l5.34,1.82.45-.78.21.14s1.3,1.47,1.87,1.61a4.73,4.73,0,0,0,2.53-.37C419.92,290.1,419.26,289.43,418.73,289Z" transform="translate(-388.13 -261.15)"/><path class="cls-2" d="M412.83,316.48l-1.52-.9-.45-.39.31,0-.37-11.47-1.13-10.93a.44.44,0,0,0,.47-.47c.14-2.14.35-3,.52-5.9l.11-1.36.41-5,0-.52-.31-1.37-.45.08.05-3.82a2.66,2.66,0,0,1-1.34-.13l-.13-.06-.12,0a2.46,2.46,0,0,1-1.45-1.73c-.49.09-1.87,2.18-2.14,2.69a52,52,0,0,0-3.86,10.76c-.37,1.35-1.21,5.51-.88,5.83a2.16,2.16,0,0,0,.33.27c0,1.9.16,9.71-.16,10.81s-3.41,9.65-3.41,9.65l-.48,1.75.59.18-.58,1.25s0,.94.4.92,2.74,1.07,3.39,1.26a5.42,5.42,0,0,0,2.1.38c1,0,2.3-.45,2.23-.9s-.14-.37-.44-.63-1.68-.48-2.23-1.05a5.58,5.58,0,0,0-1-.86l.7.15s3.47-10.73,3.77-11.45a2.88,2.88,0,0,0,.09-.45l.15.47L406.2,316l.85-.05,0,.36-.15,1.63s.36.37,1.51.25,3.49.07,4.32,0,2.42-.15,2.26-.68C414.78,316.76,412.83,316.48,412.83,316.48Z" transform="translate(-388.13 -261.15)"/><rect class="cls-8" x="0.21" y="60.26" width="60.01" height="10.4"/><rect class="cls-9" x="49.74" y="60.26" width="10.67" height="10.4"/><path d="M441.25,328.57a3.58,3.58,0,0,0,1.54.41c.81,0,1.21-.39,1.21-.88,0-.66-.65-1-1.33-1H442V326h.61c.52,0,1.17-.21,1.17-.77,0-.39-.32-.69-1-.69a2.93,2.93,0,0,0-1.37.4l-.32-1.12a4.07,4.07,0,0,1,2.05-.5c1.4,0,2.19.74,2.19,1.65a1.57,1.57,0,0,1-1.21,1.53v0a1.64,1.64,0,0,1,1.43,1.61c0,1.16-1,2-2.71,2a4,4,0,0,1-2-.46Z" transform="translate(-388.13 -261.15)"/></svg>