<svg id="Layer_1" data-name="Layer 1" xmlns="http://www.w3.org/2000/svg" viewBox="0 0 60.45 70.67"><defs><style>.cls-1{fill:none;stroke:#1d1d1b;}.cls-2{fill:#999;}.cls-2,.cls-3,.cls-4,.cls-6,.cls-7,.cls-8{fill-rule:evenodd;}.cls-3{fill:gray;}.cls-4{fill:#fff;}.cls-5,.cls-6{fill:#12100b;}.cls-10,.cls-7{fill:#f2f2f2;}.cls-8{fill:#666;}.cls-9{fill:#bfbfbf;}</style></defs><rect class="cls-1" x="0.5" y="0.5" width="59.42" height="59.42"/><polygon class="cls-2" points="43.77 5.42 13.69 5.42 13.69 21.61 43.77 20.9 43.77 5.42"/><path class="cls-3" d="M401.4,283.07a41.44,41.44,0,0,0-1.86,5.22c-.36,1.67-3.47,16.94-3.61,17.69a51,51,0,0,0,.37,8.59c.43,2.89.22,3.84.79,4.12s22.93.46,22.93.46l19.77-1.25s.7-4.84.85-7.26.56-5.12-.71-8.11-3.32-7.88-5.52-11.91c-1.67-3.07-2.14-7.57-2.24-9.19s-26-1.26-26-1.26Z" transform="translate(-388.11 -261.15)"/><path class="cls-4" d="M405.45,272.74a2.83,2.83,0,0,1,2-1.73c1.52-.35,16.46-.83,16.46-.83s3.12-.56,3.73,0,.38,1.38-.07,2.35.22,4.58.3,5.55a47,47,0,0,1-.68,5.34l-3.81.28s-13.34.55-14,.76a13.35,13.35,0,0,1-1.75.35,3.08,3.08,0,0,1-.76-2.29,46.18,46.18,0,0,0,1.14-4.71,3.51,3.51,0,0,0-1.14-3.13A5.47,5.47,0,0,1,405.45,272.74Z" transform="translate(-388.11 -261.15)"/><path class="cls-5" d="M420,273c-.14,2.13-1.59,3.74-3.24,3.59s-2.86-2-2.72-4.12,1.6-3.73,3.24-3.59,2.87,2,2.72,4.12" transform="translate(-388.11 -261.15)"/><path class="cls-6" d="M423.23,288.56l.07-3.18c-.73-4.18-1.35-6.53-2-7.65a3.77,3.77,0,0,0-2.29-1.82,2.74,2.74,0,0,1-2,1h-.22a2.78,2.78,0,0,1-1.87-1,3.94,3.94,0,0,0-3.34,1.71c-.82,1.13-1.68,5-1.68,7.06a4.92,4.92,0,0,0,1.47,3.62c.47.47,2.86.85,5.2.53s5.47-.05,6.25-.21C423.37,288.43,423.48,289.46,423.23,288.56Z" transform="translate(-388.11 -261.15)"/><path class="cls-7" d="M400.68,284.25c2.6-5.22,10.32-5.24,14.22-5.51,2.27-.14,4.27,1.16,6.43.89,2.49-.28,4.88.68,7.26.82.86,0,2.27-.41,3,0,1.52.69,1.19,2.8,1.65,4.49.35,1.29,2.24,3.93,1,4.26-3.07.79-12.29.53-17.11.59-3.75,0-7.15-.14-10.83-.14-1.8,0-6.73,2.17-7.48,1.57-1.45-1.15,1.93-6.11,2.2-8" transform="translate(-388.11 -261.15)"/><path class="cls-8" d="M396,309l.7,9.59c7.57.2,22.08.62,22.08.62l21.45-.41a89.66,89.66,0,0,0,.29-9.53Z" transform="translate(-388.11 -261.15)"/><rect class="cls-9" x="0.15" y="60.26" width="60.01" height="10.4"/><rect class="cls-10" x="49.77" y="60.26" width="10.67" height="10.4"/><path d="M445.42,324.74h-2.57l-.14,1a2.82,2.82,0,0,1,.42,0,3,3,0,0,1,1.75.48,1.91,1.91,0,0,1,.8,1.66c0,1.23-1.06,2.32-2.84,2.32a4.09,4.09,0,0,1-1.84-.38l.28-1.16a3.78,3.78,0,0,0,1.49.33c.64,0,1.32-.31,1.32-1s-.54-1.1-1.86-1.1a5.66,5.66,0,0,0-.89.06l.43-3.47h3.65Z" transform="translate(-388.11 -261.15)"/></svg>