<svg id="Layer_1" data-name="Layer 1" xmlns="http://www.w3.org/2000/svg" viewBox="0 0 60.42 70.67"><defs><style>.cls-1{fill:gray;}.cls-2{fill:#999;}.cls-3{fill:#ccc;}.cls-4{fill:#12100b;}.cls-5{fill:none;stroke:#1d1d1b;}.cls-6{fill:#bfbfbf;}.cls-7{fill:#f2f2f2;}</style></defs><rect class="cls-1" x="16.19" y="28.97" width="2.2" height="26.69"/><rect class="cls-1" x="52.18" y="9.29" width="1.12" height="27.88"/><rect class="cls-1" x="43.29" y="14.98" width="1.12" height="25.04"/><rect class="cls-1" x="33.81" y="21.86" width="1.12" height="22.25"/><rect class="cls-1" x="24.28" y="27.3" width="1.12" height="21.9"/><polygon class="cls-1" points="16.35 30.23 60.23 3.88 60.18 5.95 16.78 32.51 16.35 30.23"/><polygon class="cls-2" points="15.73 59.92 15.72 54.42 26.97 54.42 26.97 48.59 38.08 48.59 38.08 42.9 47.16 42.9 47.15 36.69 53.67 34.61 58.44 31.76 59.77 31.76 59.92 59.96 15.73 59.92"/><polygon class="cls-3" points="53.26 34.5 60.11 38 48.59 38.06 44.45 34.56 53.26 34.5"/><polygon class="cls-3" points="34.96 39.44 44.25 38.83 48.53 44.32 39.11 44.27 34.96 39.44"/><polygon class="cls-3" points="34.96 43.71 39.06 50.16 27.19 50.4 25.4 44.02 34.96 43.71"/><polygon class="cls-3" points="25.61 49.07 26.97 54.42 15.72 54.55 16.12 49.07 25.61 49.07"/><polyline class="cls-1" points="27.19 50.4 26.97 54.42 25.4 48.99 25.4 44.02"/><polygon class="cls-1" points="39.11 44.27 39.06 50.16 34.96 43.71 34.96 39.44 39.11 44.27"/><polygon class="cls-1" points="48.59 38.06 48.53 44.32 44.25 38.83 44.45 34.56 48.59 38.06"/><polygon class="cls-1" points="53.26 34.5 53.35 29.68 59.88 32.45 59.94 38 53.26 34.5"/><polygon class="cls-3" points="59.94 32.62 53.35 29.68 59.78 29.68 59.94 31.63 59.94 32.62"/><path class="cls-1" d="M406.53,290.21c0,.4-.49.72-1.1.72s-1.1-.32-1.1-.72.49-.72,1.1-.72S406.53,289.81,406.53,290.21Z" transform="translate(-388.13 -261.15)"/><path class="cls-4" d="M416.71,266.16c-.47,2,.4,3.83,1.93,4.16s3.15-1,3.62-3-.4-3.83-1.93-4.16-3.16,1-3.62,3" transform="translate(-388.13 -261.15)"/><path class="cls-4" d="M424.94,300.62c.41-1.55,1.83-5.45,1.36-6.19s-2.3-3-2.3-3L420.46,288l.3-.35-.07-1.25-.34-3.34,2.39,2.46,2-2.61-3.86-4.06s-.25-2.07-.29-2.51c-.14-1.49-.4-5.1-.74-5.68a3.46,3.46,0,0,1-1.36,0,2.75,2.75,0,0,1-1.94-1.73c-.16.14-2,1.06-5.75,7.14-1,1.56-1.49,2.6-4.5,9.7l-.08.15h0a.69.69,0,0,0-.05.13l.45.2c-.19.51-.46,1.19-.54,1.43a2.15,2.15,0,0,0,.06,1.75,2.05,2.05,0,0,0,1.22.8c.35.09.19-.43.09-.72a5.06,5.06,0,0,1,.07-1.33l.47-.44-.22,1.34a.49.49,0,0,0,.65-.11,8,8,0,0,0,.39-1.94l.1-.43.53,0,.62-1.69c.46-1.26,1.28-2.81,1.68-3.93-.39,2.32-1.21,5.92-1.17,6.31s.15.42.33.39v0h.2a6.3,6.3,0,0,0,.16,1.21c.41,1.86-.2,7.83-1.41,11.41-1,3-2.88,9.88-2.88,9.88l.73.3c-.61.5-1.41,1.12-1.08,1.68s1.95,1.24,2.63,1.68a16.49,16.49,0,0,0,2.08,1l2.76.14.3-.56s.16-.27-.51-.64-1.48-.43-1.81-1a12.86,12.86,0,0,1-.94-1.8c-.07-.25.05.07.05.07l.28.11,3.43-9.49,1.88-5.39,1.11-2.95,3.64,3.29-3.51,9.05.37.23s-.26-.13-.33.3a6.3,6.3,0,0,0-.41,1.93l.07.8,4.84.56,2.51.13a.68.68,0,0,0,.11-.75,2,2,0,0,0-.34-.42,7.91,7.91,0,0,0-1.51-.73,6.18,6.18,0,0,1-1.44-1l.94.12S424.54,302.17,424.94,300.62Z" transform="translate(-388.13 -261.15)"/><path class="cls-4" d="M423,285.19l.19-.27a3.41,3.41,0,0,0,.59,1,4.19,4.19,0,0,0,.3.6c.07.22.29.7.5.75.68-.33-.25-1.08-.08-1.55a.51.51,0,0,1,.79,0c.17.21,0,.34.14.53s.2.05.29.11c-.09.11,0,.27,0,.42.25.06.4.49.69.42s.2-.48.09-.77a7.33,7.33,0,0,0-.23-.86c-.22-.36-.5-.49-.7-.91-.47-.45-1-.73-1.47-1.15l.37-.53-.34-.59-.89-1.07-2.3,2.25Z" transform="translate(-388.13 -261.15)"/><rect class="cls-5" x="0.5" y="0.5" width="59.42" height="59.42"/><rect class="cls-6" x="0.2" y="60.26" width="60.01" height="10.4"/><rect class="cls-7" x="49.73" y="60.26" width="10.67" height="10.4"/><path d="M445.86,326.75c0,2-.82,3.45-2.5,3.45s-2.46-1.54-2.47-3.41.8-3.43,2.51-3.43S445.86,324.94,445.86,326.75Zm-3.43,0c0,1.52.37,2.24,1,2.24s.93-.75.93-2.26-.32-2.24-.94-2.24S442.43,325.24,442.43,326.79Z" transform="translate(-388.13 -261.15)"/></svg>