<svg id="Layer_1" data-name="Layer 1" xmlns="http://www.w3.org/2000/svg" viewBox="0 0 60.43 70.67"><defs><style>.cls-1{fill:none;stroke:#1d1d1b;}.cls-2{fill:#4d4d4d;}.cls-3,.cls-5{fill:#989492;}.cls-4{fill:#12100b;}.cls-5{fill-rule:evenodd;}.cls-6{fill:#bfbfbf;}.cls-7{fill:#f2f2f2;}</style></defs><rect class="cls-1" x="0.5" y="0.5" width="59.42" height="59.42"/><path class="cls-2" d="M403.87,273.5c-.66,1.69-.13,3.47,1.19,4s2.92-.46,3.59-2.15.12-3.46-1.2-4S404.53,271.82,403.87,273.5Z" transform="translate(-388.12 -261.15)"/><path class="cls-3" d="M420.83,293.19h-.08a6.58,6.58,0,0,0-.22-.71c0-.23.17-.17.05-.4s-.23-.7-.31-1.1c0-.14-.25-.13-.27-.31-.25-1.26-.52-2.49-.8-3.7,0-.15-.36,0-.33-.19-.17-.88-.46-1.64-1.19-1.91a2,2,0,0,0-.85,0c-.2,0-.15-.19-.39-.11-1.19.43-2.45.8-3.69,1.18a3.52,3.52,0,0,0,.31,1c.31,0,.18-.41.5-.41s.2.1.4.05a1.27,1.27,0,0,1,.18-.27c.21.17.43,0,.52-.15.38.12.69-.26,1.17-.24,0,.14.23,0,.33.05,0,.26.18.26.15.52s-.55.21-.71.42c-.31.07-.45.29-.77.35-.13.24-.47.28-.56.55-.23.09-.56.34-.38.6.28-.05.26-.39.51-.48a2.2,2.2,0,0,1,.64-.41,2.94,2.94,0,0,1,1.55-.59c0-.05.05-.07.13-.07.28-.11.33-.44.83-.35.13,0,.09.17.27.11a4.68,4.68,0,0,1,.22.72c0,1.9.76,2.94,1.22,4.33,0,.24-.09.38,0,.59s.26.17.28.38c.27,1.47.49,3,.82,4.42l.05-.48a19.51,19.51,0,0,1-.42-2.45,17.87,17.87,0,0,0,.5,1.75Zm-2.74-6.3c0-.12-.15-.16-.15-.32a1.57,1.57,0,0,0-.92-.23c0-.24-.26-.26-.28-.51.17,0,.21-.1.18-.27a1,1,0,0,1,.93.16,8.42,8.42,0,0,1,.44,1.42C418.08,287.21,418.19,286.94,418.09,286.89Zm1.36,4.72a11.69,11.69,0,0,1-1.18-3.48,10.16,10.16,0,0,0,.59,1.74c.12.66.54,1,.59,1.74C419.65,291.68,419.39,292,419.45,291.61ZM420,294c-.14,0,0-.37-.08-.52a7.55,7.55,0,0,1-.23-.91c.47,0,.19.59.23.91C420.06,293.47,420,293.79,420,294Z" transform="translate(-388.12 -261.15)"/><path class="cls-4" d="M446.14,306.74a4.69,4.69,0,0,0,.2-1c0-.42-.62-.49-1.71-.54a2.23,2.23,0,0,1-1.65-.9l.9-.47s-4.18-7.76-5.18-9.5-2.81-1.68-4.11-1.74-5.22-.66-5.22-.66-.84-.47-1.54-.82-2.66-3.14-3.8-5a19.41,19.41,0,0,0-2.25-2.75,2.1,2.1,0,0,1-1.27.6,2.24,2.24,0,0,1-1.85-.82,4.55,4.55,0,0,0-.4,2.47L421.57,298l12.38-.15,2,4.53,1.4,2.44,1.25,2.88.52-.21v0a1.51,1.51,0,0,0,.65,1.36c.58.34,1.61.18,2.93,0s1.55-.72,1.55-.72,1.21-.31,1.59-.35.85-.33.87-.59S446.14,306.74,446.14,306.74Zm-7.05.71Z" transform="translate(-388.12 -261.15)"/><path class="cls-5" d="M421.4,295.42c.54,0,1-.09,1.51-.05.09-.11,0-.39,0-.65a6.63,6.63,0,0,1,1.77-.12c2.85-.05,5.49-.33,8.14-.59a.9.9,0,0,1,.11.66,4.52,4.52,0,0,1,1.11,0,2.92,2.92,0,0,1,1,.5c.15.26.28.54.41.81.07,1.5.25,2.9.25,4.46.54.19,1.06-.07,1.63.08a2.42,2.42,0,0,0,.58.29c.17.22.33.44.49.68.75,2.37,1.47,4.78,2.28,7.11,0,.27-.15.41,0,.65.12,0,.28,0,.34-.12s.17-.12.21-.25a15.46,15.46,0,0,0,1.86-.56c.2-.06.17,0,.32.08s.32-.15.53-.17a1.07,1.07,0,0,0,.17.53c-.05.23-.47,0-.54.3.18.18.57-.26.79,0,0,.12,0,.28.12.34-.38.38-1.12.38-1.61.64s-1.12.37-1.72.5c-.08.31.29.2.24.48a1.34,1.34,0,0,1-.73.16c.17-.73-.35-1.29-.43-2,0-.16-.28-.12-.31-.27-.08-.52-.31-.89-.39-1.4a26.3,26.3,0,0,0-2.89.19c-.24.21.19.72-.36.57-.1.25.29,0,.19.27-.09.46-.27.81-.39,1.23.3.19.52.44.82.63.12.31.39.48.49.81a4.77,4.77,0,0,1,.28,1l0,.59a3,3,0,0,1-2.48,2.5l-1-.05a4.26,4.26,0,0,1-1.41-.72,3.27,3.27,0,0,1-.86-2.47,3.42,3.42,0,0,1,1.07-2,4.82,4.82,0,0,1,1.41-.59l.85,0c.31-.27.18-1,.64-1.15,0-.14-.28,0-.39-.08s.06-.43,0-.53a9.09,9.09,0,0,0-2.17.23,6.29,6.29,0,0,0-1,1.45,16.22,16.22,0,0,1-1,1.39c-.17,0-.24.11-.34.19-1,.06-2,.2-3,.31-.28.29-.38.78-.7,1-.17.42-.53.61-.77.95a6.45,6.45,0,0,1-3.4,1.41l-1.44-.07a6.16,6.16,0,0,1-3.32-1.86,5.79,5.79,0,0,1-1.41-4.65,8.14,8.14,0,0,0,.18-.91,5.92,5.92,0,0,1,4.84-4c0-.84-.5-1.17-.64-1.86a6.91,6.91,0,0,1-.49-2c-.21-1.43-.29-3-.44-4.47,0-.22-.27-.17-.24-.41s0-.35,0-.58c-.34-1.43-1-2.53-.84-4.43a4.1,4.1,0,0,0-.16-.73c-.18,0-.13-.13-.26-.14-.49-.13-.57.2-.86.29-.08,0-.12,0-.13,0a3.08,3.08,0,0,0-1.6.45,2.39,2.39,0,0,0-.67.36c-.26.06-.26.4-.54.44-.16-.29.19-.51.42-.57.12-.26.46-.28.61-.5.32,0,.48-.25.8-.29.17-.19.6-.11.74-.35s-.16-.27-.11-.53c-.09,0-.34.06-.32-.08-.48-.06-.81.29-1.19.14-.1.12-.34.29-.53.1-.09.06-.13.17-.21.25s-.18-.12-.38-.08-.19.26-.5.23a2.6,2.6,0,0,1-.25-.92c1.26-.28,2.55-.53,3.77-.87.24-.06.17.17.38.15s.51,0,.85,0a2.25,2.25,0,0,1,1,2c0,.21.3.07.31.22q.27,1.84.48,3.75c0,.18.2.19.25.34,0,.4.14.74.2,1.12s-.05.16-.08.39S421.34,295.19,421.4,295.42Zm-2.25-7.69a1,1,0,0,0-.9-.24c0,.17,0,.28-.21.25,0,.25.23.29.23.53a1.47,1.47,0,0,1,.9.31c0,.16.1.21.12.33s0,.32.18.27A7.15,7.15,0,0,0,419.15,287.73Zm1.09,6c-.09.34.19.08,0,0,0-.75-.37-1.13-.44-1.79a12,12,0,0,1-.44-1.79A12,12,0,0,0,420.24,293.74Zm13.48,1.43c-.67.15-1.63,0-2.18.28-.21,0-.32-.12-.58-.09-1.09.11-2.23.16-3.35.23-.54.05-1.09.09-1.64.12a5.93,5.93,0,0,1-.85,0c-.25.07-.58.06-.74.23a.49.49,0,0,0-.45-.15c-.32.12-.86,0-1.18.14s-1-.06-1.25.14c.12.26.1.66.22.92,4.35-.31,8.71-.63,13.13-.87C434.75,295.56,434.3,295.31,433.72,295.17Zm-13.18.41c0,.16-.1.47,0,.53,0-.16.11-.47,0-.53,0-.32.32-.9-.15-.92C420.48,294.93,420.42,295.34,420.54,295.58Zm.34,3.88a6.55,6.55,0,0,0,.86,2.59c0-.74-.11-1.35-.1-2.09a10.21,10.21,0,0,1-1.07-3.59A21.12,21.12,0,0,0,420.88,299.46Zm14.18.42c-.08,0-.09.08-.2.05-1.22.05-2.35.2-3.61.22-.66,0-1.14.12-1.7.12a4.45,4.45,0,0,0-.86.09c-.35,0-.71-.06-.73.29s.57.11.84.17a4.42,4.42,0,0,1,.92-.09c.6-.07,1.26-.07,1.84-.17a35.54,35.54,0,0,0,3.6,0C435.18,300.27,435.2,300,435.06,299.88Zm-7.62.74c-.13,0-.05-.25-.26-.21-1.59.15-3.26.22-4.86.36,0,.13,0,.26,0,.39.52.12,1.47-.24,2.15,0,.35-.24,1-.14,1.45-.26s1.09-.08,1.71-.05C427.73,300.65,427.33,300.87,427.44,300.62Zm10.95,3.47a17.21,17.21,0,0,0-.92-2.59c-.38-.37-1.08-.29-1.69-.21a13.33,13.33,0,0,1,.11,1.83c0,.16.3,0,.18.21.05,1,.17,1.93.19,2.95.23.11.16.48.23.73.87-.13,1.94-.06,2.76-.26C438.93,305.89,438.65,305,438.39,304.09Zm-3.73-2.73c-.17-.05,0,.31-.14.26a1.19,1.19,0,0,1-.85,0c-.12.15-.36.15-.54.24-1.37.09-2.56.38-3.95.46.14.4-.31.16-.4.31.09.33.34.52.35.93-.2.17-.79-.08-1,.09.15.1.2.28.31.4s.36.17.37.42-.09.31-.27.31c0,.23.25.26.17.47s-.22.09-.34.18c.05-.23-.22-.18-.18-.41-.24,0,0-.34-.31-.27a18.17,18.17,0,0,0,.41,3.68,14,14,0,0,0,0,2,18.71,18.71,0,0,0,2.43-.14c.76-.86,1.24-2,2-2.85.58-.44,1.67-.31,2.57-.4a1.78,1.78,0,0,1,.11-.91c-.09-.93-.15-1.87-.2-2.83-.07-.21.22,0,.15-.25-.14-.53-.05-1.25-.18-1.78C434.94,301.26,434.87,301.39,434.66,301.36Zm-10.32.95c-.1,0,0-.17-.19-.14a5.85,5.85,0,0,1-1.71.31,2.25,2.25,0,0,0,0,.65,5.87,5.87,0,0,1,4.79,2.46c.05-.56-.11-.94-.06-1.51-.13-.39,0-1.06-.19-1.38,0,.14-.33,0-.46,0a.58.58,0,0,0-.05-.39A19.77,19.77,0,0,0,424.34,302.31Zm4.05.32a2.35,2.35,0,0,1-.66,0,.86.86,0,0,0,.17.6c.24,0,.64.11.78,0A3.44,3.44,0,0,1,428.39,302.63Zm-.6,1.48c.33,0,.11-.23,0-.33C427.8,303.89,427.8,304,427.79,304.11Zm-8,9c.25.36.85.4,1.22.65a5.53,5.53,0,0,0,4.21-.58c.13-.09.21-.21.34-.31s.31-.15.41-.25.17-.25.28-.38.25-.19.34-.31a4.75,4.75,0,0,0,.22-.45c.08-.13.22-.25.28-.37a6.29,6.29,0,0,0,.5-2.21,4.91,4.91,0,0,0-.73-2.58,2.68,2.68,0,0,0-.74-.95,2.2,2.2,0,0,0-1-.77c0-.06-.07-.05-.12-.07v-.07a6,6,0,0,0-3-.66,5.11,5.11,0,0,0-4.62,4.88,6.58,6.58,0,0,0,.71,2.85C418.67,312.12,419.05,312.82,419.83,313.15Zm8.07-8.51s0-.08-.07,0S427.88,304.71,427.9,304.64Zm12.9,5.2c.09,0,.06.11.13.14.05-.14.3,0,.33-.19A.32.32,0,0,0,440.8,309.84Zm-7.28.43a.18.18,0,0,0-.2.13.64.64,0,0,0-.48.43h-.07a.33.33,0,0,0-.07.19c-.07,0-.06.08-.08.13s-.05.07-.07.12h-.06a2.28,2.28,0,0,0,0,2c0,.08,0,.12.06.14s0,.12.06.13a.17.17,0,0,0,.12.2.63.63,0,0,0,.44.48.17.17,0,0,0,0,.07,2.41,2.41,0,0,0,2.74.19.17.17,0,0,0,.2-.12c.06,0,.07,0,.07-.06a.24.24,0,0,0,.27-.25c.06,0,.07,0,.07-.06a.46.46,0,0,0,.28-.38c.07,0,.06-.08.07-.13h.07a2.38,2.38,0,0,0,0-2c0-.07,0-.11-.06-.13a.47.47,0,0,0-.24-.4c0-.06,0-.07-.07-.07s0-.21-.18-.21,0-.06-.06-.07,0-.06-.07-.06a.17.17,0,0,0-.19-.14.17.17,0,0,1,0-.07c-.05-.05-.18-.11-.2,0a.33.33,0,0,0,.19.08v.06a.28.28,0,0,0,.19.08s0,.06.07.06,0,.07.06.07v.07c.08,0,.09.12.18.14s0,.06.07.07a.57.57,0,0,0,.24.4c0,.08,0,.12.06.13a3,3,0,0,1-.1,2c-.06,0-.05.08-.07.13h-.06c0,.17-.21.18-.22.38-.05,0-.06,0-.07.06h-.06c0,.13-.18.12-.21.25s-.06,0-.07.06a.18.18,0,0,0-.2.12,4.37,4.37,0,0,1-1,.28,2.84,2.84,0,0,1-1.74-.54,2.22,2.22,0,0,0-.44-.48.17.17,0,0,0-.12-.2c0-.07,0-.12-.06-.13s0-.12-.06-.14a3,3,0,0,1,.09-2c.07,0,.06-.07.07-.12s.06-.08.08-.13a.19.19,0,0,0,.14-.19,2.18,2.18,0,0,0,.48-.43.19.19,0,0,0,.2-.13,5,5,0,0,1,1-.27h.33c.12,0,.24,0,.13-.06l-.58,0C434.09,310,433.68,310,433.52,310.27Zm1.29.39c0-.09.05-.53-.05-.33S434.71,310.87,434.81,310.66Zm-1.25.07c0,.28.3.32.37.54.24.1.22.43.57.43a6.35,6.35,0,0,0,0-1.38C434.09,310.36,433.7,310.4,433.56,310.73Zm2,.62c.12-.21.39-.26.42-.57-.08-.06-.12-.18-.25-.2C435.73,310.86,435.43,311.16,435.56,311.35Zm.2,0c-.12.11-.5.28-.35.44.1-.18.31-.25.41-.43s.5-.28.35-.45C436.07,311.11,435.86,311.17,435.76,311.36Zm-1.53.52c-.06-.27-.27-.38-.44-.54s-.31-.55-.5-.42C433.64,311.2,433.87,311.6,434.23,311.88Zm-.51-.35c-.24-.1-.22-.43-.57-.42s-.4.47-.5.83a2.31,2.31,0,0,0,1.44.13C434.07,311.79,433.79,311.75,433.72,311.53Zm2.43-.28c-.23.34-.64.48-.82.88a3,3,0,0,0,1.37.06,1.5,1.5,0,0,0-.22-.92Zm-1.62,1c0,.17.08.21.26.2a2.35,2.35,0,0,1,0-.26A.39.39,0,0,0,434.53,312.29Zm-1.84.24c0,.08-.09.08-.08.19s.1.66.43.74.38-.22.54-.37.41-.24.48-.5A2.88,2.88,0,0,0,432.69,312.53Zm2.61.12a.36.36,0,0,0,.06.2c.37.2.4.71.94.76a1,1,0,0,0,.37-.9A3,3,0,0,0,435.3,312.65Zm.29.73a2.39,2.39,0,0,0,.5.55c0-.26-.27-.38-.43-.54a2.39,2.39,0,0,0-.5-.55C435.21,313.11,435.43,313.22,435.59,313.38Zm-2,0c-.12.11-.5.28-.35.44.1-.18.31-.25.41-.43s.5-.28.35-.45C433.88,313.1,433.67,313.16,433.57,313.35Zm1.32,1a1.27,1.27,0,0,0,.93-.35c-.09-.48-.53-.64-.73-1h-.2A2.24,2.24,0,0,0,434.89,314.4Zm-1-1.1c-.12.26-.48.26-.49.63a1.1,1.1,0,0,0,.89.44c.14-.15.07-.52.11-.78A1,1,0,0,1,433.9,313.3Zm.68.82c0,.09,0,.47.05.27s0-.31,0-.46a1.34,1.34,0,0,0,0-.2c0-.07,0-.17-.06-.07S434.58,314,434.58,314.12Z" transform="translate(-388.12 -261.15)"/><path class="cls-5" d="M425.09,304.57s0,0,0,.06a5.87,5.87,0,0,1,1.82,1.79,7,7,0,0,1,.62,2,6.21,6.21,0,0,1-.38,2.4,5,5,0,0,1-4.14,3.07,6,6,0,0,1-3-.66c0-.07-.08-.06-.13-.08v-.06a5,5,0,0,1-2.3-3.84,6.35,6.35,0,0,1,.37-2.28,5.5,5.5,0,0,1,.57-1,4,4,0,0,0,.28-.32,5.31,5.31,0,0,1,1.29-1.05,5.26,5.26,0,0,1,2.33-.67l.85,0A8.55,8.55,0,0,1,425.09,304.57Zm-2.38,1.72a12.33,12.33,0,0,0,.16-1.89l-.33,0C422.63,305,422.58,305.73,422.71,306.29Zm.53,1.27c0,.2-.16.3,0,.46.33.22.36-.23.67-.24a1,1,0,0,1-.35.32c-.18.16.07.2,0,.39h.26c-.13.13-.24.09-.15.32-.08.22.2.11.32.15s.28,0,.39.08l.92.05a8.89,8.89,0,0,0,1.69.14,4.12,4.12,0,0,0-.12-1.57c0-.07-.08-.06-.13-.07s.07-.07.07-.13c-.24-.51-.43-12.66-.84-13-.09.1-.15,11.84-.34,11.84a.55.55,0,0,1,.27-.25,2.61,2.61,0,0,0-1.25-1.11,2.92,2.92,0,0,1-.36.57c0-.3.21-.41.29-.64a6.12,6.12,0,0,0-1.48-.46,4,4,0,0,1,.41,2.31c-.18.07-.27.26-.41.37s-.3.17-.4.31c.19,0-.12.48.17.4C423.18,307.9,423.09,307.59,423.24,307.56Zm-1.45-1.05a17.86,17.86,0,0,1-.64-1.87,4.39,4.39,0,0,0-1.47.72v.13a.18.18,0,0,0-.21.12,2.85,2.85,0,0,0-.91,1.2,1.67,1.67,0,0,1,.64.36c-.33,0-.41-.25-.7-.3a4.48,4.48,0,0,0-.47,1.61l1.11.06a6.8,6.8,0,0,0,1.49.14c.23.07.92.28.8-.23.12-.11-.38-.19-.44-.35h.19c0,.1.09,0,0,0s.08-.48,0-.78a1.19,1.19,0,0,1,.72,0c0-.36-.17-.51-.15-.85.19.16.13.54.29.73,0-.94-.15-1.78-.13-2.75a.82.82,0,0,0-.73.15A11.66,11.66,0,0,1,421.79,306.51Zm1,.5c.21-.17.51-.26.61-.55a3.24,3.24,0,0,0-.44-1.73A10.49,10.49,0,0,0,422.81,307Zm-.38,1.1c-.09,0-.19,0-.2.05s-.12,0-.13.06-.07,0-.07.07-.06,0-.07.06-.06,0-.07.06-.05.08-.07.13-.06.11-.07.19-.12.3,0,.26,0,.25.06.26,0,.07.06.07a.25.25,0,0,0,.25.28c0,.06.07,0,.12.07s.49.13.53,0a.1.1,0,0,0,.13-.06c.08,0,.12,0,.13-.05s.07,0,.07-.07.06,0,.07-.06.05-.08.07-.13.06-.07.07-.12.14-.49,0-.53,0-.11-.06-.13a.25.25,0,0,0-.25-.28v-.06s-.24-.17-.26,0c.12,0,.14.08.26.07v.07c.13,0,.12.18.25.21s0,.12.06.13l0,.53c-.06,0-.05.07-.07.12s-.05.08-.07.13-.06,0-.07.06-.06,0-.07.07-.11,0-.13.05-.12,0-.13.06l-.53,0c0-.07-.07-.06-.12-.07a.68.68,0,0,0-.25-.28c0-.05,0-.06-.06-.07s0-.24-.06-.26,0-.17,0-.26.06-.12.07-.19.05-.08.07-.13.06,0,.07-.06.06,0,.07-.06.06,0,.07-.07a.1.1,0,0,0,.13-.06c.09,0,.19,0,.2-.05C422.85,308.2,422.58,307.91,422.43,308.11Zm-4.09,2.09c0,.07-.13,0-.14.13s.18.45.3.67a10.72,10.72,0,0,0,1.5,0c.38.18.92,0,1.38,0a2.72,2.72,0,0,1,.35-.57c.06.27-.33.41-.16.58.14-.14.57,0,.73-.1,0-.36.13-.86-.22-.92-.18,0-.13.27-.28.31,0-.25.23-.29.09-.45s-.15-.19-.39-.09c.19-.17-.05-.27,0-.46-.28,0-.44.17-.73.17.13-.24.68,0,.67-.43,0-.17-.17-.26-.45-.22s-.32-.11-.58-.09l-1.24-.06a3.74,3.74,0,0,0-1.11-.12,4,4,0,0,0,.19,1.65Zm4.05-1.37c0,.17.09.22.26.2s0-.28-.19-.27C422.46,308.8,422.45,308.84,422.39,308.83Zm1.22.64h-.07c-.07.08-.07.24-.21.25,0,.31.36.3.37.61-.21-.12-.29-.36-.5-.48a1.27,1.27,0,0,1-.27.18c0,.25.18.37.16.66-.07,0,0-.13-.12-.14,0,.17,0,.32.11.34s0-.13,0-.2,0,.22.19.21.46-.09.66-.17a.62.62,0,0,1,0-.13c.13,0,.07.18.25.15.44-.12,1.11,0,1.45-.2-.08,0-.12,0-.13-.07a2.15,2.15,0,0,0,1.24.06,3.05,3.05,0,0,0,.26-1.16,10,10,0,0,0-1.7-.15c-.16,0-.14-.13-.32-.08l-.78,0-.4,0c-.07-.08-.13-.06-.13.06A.39.39,0,0,0,423.61,309.47Zm1.7,2.77a4.07,4.07,0,0,1-.68-.76,8.45,8.45,0,0,1-1.25.08.53.53,0,0,1,.11.4c-.14-.07-.09-.3-.18-.41-.4-.07-.61.06-1,0,0,.62-.16,1.15-.15,1.83a5.68,5.68,0,0,0,1.64-.12,1.34,1.34,0,0,1,0-.2c.06,0,.05.09.06.14a2.57,2.57,0,0,0,1.48-.92h.13c.24-.26.75-.59.7-.95-.4.15-1.09,0-1.45.2C425,311.77,425.22,311.92,425.31,312.24Zm-4.52,0c0-.26.16-.33.23-.52-.76-.12-1.12.2-1.78.18,0,.32.36.39.49.61s.36.35.7.37a1.27,1.27,0,0,1,.29-.51c0,.31-.24.33-.22.64a5.67,5.67,0,0,0,1.61.4,10.6,10.6,0,0,1,.15-1.76c-.24-.1-.71.07-1.11,0A3.67,3.67,0,0,1,420.79,312.22Z" transform="translate(-388.12 -261.15)"/><path class="cls-5" d="M424.32,305.51c0,.05,0,.13-.07.13S424.26,305.51,424.32,305.51Z" transform="translate(-388.12 -261.15)"/><path class="cls-5" d="M424.25,305.64a2,2,0,0,1-.43.83A2.18,2.18,0,0,1,424.25,305.64Z" transform="translate(-388.12 -261.15)"/><path class="cls-5" d="M419.68,305.49s.07,0,.06.07S419.66,305.54,419.68,305.49Z" transform="translate(-388.12 -261.15)"/><path class="cls-5" d="M419.74,305.56s.07,0,.06.06S419.73,305.61,419.74,305.56Z" transform="translate(-388.12 -261.15)"/><path class="cls-5" d="M419.8,305.62c.18.19.42.33.49.62C420.11,306.05,419.87,305.91,419.8,305.62Z" transform="translate(-388.12 -261.15)"/><path class="cls-5" d="M425.59,306.36s0-.07.07-.06S425.64,306.37,425.59,306.36Z" transform="translate(-388.12 -261.15)"/><path class="cls-5" d="M425.52,306.42s0-.07.07-.06S425.58,306.44,425.52,306.42Z" transform="translate(-388.12 -261.15)"/><path class="cls-5" d="M425.45,306.49s0-.08.07-.07S425.51,306.5,425.45,306.49Z" transform="translate(-388.12 -261.15)"/><path class="cls-5" d="M420.29,306.24s.08,0,.07.07S420.28,306.29,420.29,306.24Z" transform="translate(-388.12 -261.15)"/><path class="cls-5" d="M425.38,306.55s0-.08.07-.06S425.44,306.56,425.38,306.55Z" transform="translate(-388.12 -261.15)"/><path class="cls-5" d="M420.36,306.31s.07,0,.06.06S420.34,306.36,420.36,306.31Z" transform="translate(-388.12 -261.15)"/><path class="cls-5" d="M423.82,306.47s0,.13-.07.13S423.75,306.47,423.82,306.47Z" transform="translate(-388.12 -261.15)"/><path class="cls-5" d="M425.38,306.55c-.21.2-.36.46-.68.55C424.91,306.9,425.07,306.64,425.38,306.55Z" transform="translate(-388.12 -261.15)"/><path class="cls-5" d="M420.42,306.37s.08,0,.06.07S420.4,306.43,420.42,306.37Z" transform="translate(-388.12 -261.15)"/><path class="cls-5" d="M420.48,306.44c.18.19.42.33.49.62C420.79,306.87,420.55,306.73,420.48,306.44Z" transform="translate(-388.12 -261.15)"/><path class="cls-5" d="M423.75,306.6a1,1,0,0,1-.29.57A.9.9,0,0,1,423.75,306.6Z" transform="translate(-388.12 -261.15)"/><path class="cls-5" d="M424.64,307.17s0-.08.06-.07S424.69,307.18,424.64,307.17Z" transform="translate(-388.12 -261.15)"/><path class="cls-5" d="M424.57,307.23s0-.08.07-.06S424.62,307.24,424.57,307.23Z" transform="translate(-388.12 -261.15)"/><path class="cls-5" d="M421,307.06s.08,0,.07.06S421,307.11,421,307.06Z" transform="translate(-388.12 -261.15)"/><path class="cls-5" d="M423.46,307.17c0,.05,0,.13-.07.13S423.39,307.17,423.46,307.17Z" transform="translate(-388.12 -261.15)"/><path class="cls-5" d="M424.57,307.23c-.14.14-.24.33-.48.37C424.23,307.45,424.32,307.26,424.57,307.23Z" transform="translate(-388.12 -261.15)"/><path class="cls-5" d="M421,307.12s.07,0,.06.07S421,307.18,421,307.12Z" transform="translate(-388.12 -261.15)"/><path class="cls-5" d="M421.1,307.19s.08,0,.06.07S421.08,307.25,421.1,307.19Z" transform="translate(-388.12 -261.15)"/><path class="cls-5" d="M423.39,307.3c0,.05,0,.13-.08.13S423.32,307.3,423.39,307.3Z" transform="translate(-388.12 -261.15)"/><path class="cls-5" d="M419.2,307.17a1,1,0,0,1,.58.29A1,1,0,0,1,419.2,307.17Z" transform="translate(-388.12 -261.15)"/><path class="cls-5" d="M421.16,307.26s.08,0,.06.07S421.15,307.32,421.16,307.26Z" transform="translate(-388.12 -261.15)"/><path class="cls-5" d="M423.31,307.43c0,.05,0,.13-.07.13S423.25,307.43,423.31,307.43Z" transform="translate(-388.12 -261.15)"/><path class="cls-5" d="M426.57,307.65c0-.07.11-.06.2,0S426.65,307.64,426.57,307.65Z" transform="translate(-388.12 -261.15)"/><path class="cls-5" d="M426.57,307.65a1.35,1.35,0,0,1-.73.23A1.47,1.47,0,0,1,426.57,307.65Z" transform="translate(-388.12 -261.15)"/><path class="cls-5" d="M424,307.66s0-.08.07-.06S424.08,307.67,424,307.66Z" transform="translate(-388.12 -261.15)"/><path class="cls-5" d="M419.78,307.46c.05,0,.13,0,.13.07S419.78,307.52,419.78,307.46Z" transform="translate(-388.12 -261.15)"/><path class="cls-5" d="M424,307.72s0-.07.07-.06S424,307.74,424,307.72Z" transform="translate(-388.12 -261.15)"/><path class="cls-5" d="M419.91,307.53a2.68,2.68,0,0,1,.95.5A2.53,2.53,0,0,1,419.91,307.53Z" transform="translate(-388.12 -261.15)"/><path class="cls-5" d="M423.89,307.78s0-.07.06-.06S423.94,307.8,423.89,307.78Z" transform="translate(-388.12 -261.15)"/><path class="cls-5" d="M425.84,307.88a4.24,4.24,0,0,1-1.26.4A4.05,4.05,0,0,1,425.84,307.88Z" transform="translate(-388.12 -261.15)"/><path class="cls-5" d="M420.86,308c.05,0,.13,0,.13.07S420.86,308.1,420.86,308Z" transform="translate(-388.12 -261.15)"/><path class="cls-5" d="M424.58,308.28a1.46,1.46,0,0,1-.73.22A1.37,1.37,0,0,1,424.58,308.28Z" transform="translate(-388.12 -261.15)"/><path class="cls-5" d="M423.61,309.47c.05,0,.13,0,.13.07S423.61,309.54,423.61,309.47Z" transform="translate(-388.12 -261.15)"/><path class="cls-5" d="M423.74,309.54a2.08,2.08,0,0,1,.82.44A2,2,0,0,1,423.74,309.54Z" transform="translate(-388.12 -261.15)"/><path class="cls-5" d="M420.73,309.47a1.46,1.46,0,0,1-.73.22A1.46,1.46,0,0,1,420.73,309.47Z" transform="translate(-388.12 -261.15)"/><path class="cls-5" d="M420,309.69a.78.78,0,0,1-.53.17A.77.77,0,0,1,420,309.69Z" transform="translate(-388.12 -261.15)"/><path class="cls-5" d="M421.43,309.83s0-.08.07-.07S421.49,309.84,421.43,309.83Z" transform="translate(-388.12 -261.15)"/><path class="cls-5" d="M421.36,309.89s0-.08.07-.06S421.42,309.9,421.36,309.89Z" transform="translate(-388.12 -261.15)"/><path class="cls-5" d="M424.56,310c.06,0,.13,0,.13.07S424.56,310,424.56,310Z" transform="translate(-388.12 -261.15)"/><path class="cls-5" d="M421.3,310s0-.08.06-.06S421.35,310,421.3,310Z" transform="translate(-388.12 -261.15)"/><path class="cls-5" d="M424.69,310.05a1.49,1.49,0,0,1,.71.36A1.49,1.49,0,0,1,424.69,310.05Z" transform="translate(-388.12 -261.15)"/><path class="cls-5" d="M419.47,309.86a1.37,1.37,0,0,1-.73.23A1.4,1.4,0,0,1,419.47,309.86Z" transform="translate(-388.12 -261.15)"/><path class="cls-5" d="M421.3,310c-.15.15-.24.34-.48.37C421,310.18,421.05,310,421.3,310Z" transform="translate(-388.12 -261.15)"/><path class="cls-5" d="M418.54,310.15c0-.08.1-.07.2-.06S418.63,310.16,418.54,310.15Z" transform="translate(-388.12 -261.15)"/><path class="cls-5" d="M423.7,310.33s.07,0,.06.07S423.68,310.38,423.7,310.33Z" transform="translate(-388.12 -261.15)"/><path class="cls-5" d="M425.4,310.41s.12,0,.12.07S425.39,310.47,425.4,310.41Z" transform="translate(-388.12 -261.15)"/><path class="cls-5" d="M418.34,310.2c0-.07.1-.06.2-.05S418.43,310.21,418.34,310.2Z" transform="translate(-388.12 -261.15)"/><path class="cls-5" d="M421.8,310.3c0,.05,0,.13-.07.13S421.74,310.3,421.8,310.3Z" transform="translate(-388.12 -261.15)"/><path class="cls-5" d="M423.76,310.4s.08,0,.06.06S423.75,310.45,423.76,310.4Z" transform="translate(-388.12 -261.15)"/><path class="cls-5" d="M420.75,310.38s0-.08.07-.06S420.81,310.4,420.75,310.38Z" transform="translate(-388.12 -261.15)"/><path class="cls-5" d="M423.82,310.46s.08,0,.06.07S423.81,310.52,423.82,310.46Z" transform="translate(-388.12 -261.15)"/><path class="cls-5" d="M420.68,310.45s0-.08.07-.07S420.74,310.46,420.68,310.45Z" transform="translate(-388.12 -261.15)"/><path class="cls-5" d="M423.88,310.53s.08,0,.07.07S423.87,310.59,423.88,310.53Z" transform="translate(-388.12 -261.15)"/><path class="cls-5" d="M420.68,310.45c-.21.2-.37.46-.68.55C420.21,310.8,420.37,310.54,420.68,310.45Z" transform="translate(-388.12 -261.15)"/><path class="cls-5" d="M423.49,312c.07,0,.06.1.06.19S423.48,312.05,423.49,312Z" transform="translate(-388.12 -261.15)"/><path class="cls-5" d="M423.55,312.15c.07,0,.06.11.05.2S423.53,312.24,423.55,312.15Z" transform="translate(-388.12 -261.15)"/><path class="cls-5" d="M425.31,312.24s.07,0,.06.06S425.29,312.29,425.31,312.24Z" transform="translate(-388.12 -261.15)"/><path class="cls-5" d="M420.79,312.22s0,.13-.07.13S420.73,312.21,420.79,312.22Z" transform="translate(-388.12 -261.15)"/><path class="cls-5" d="M423.6,312.35a1.47,1.47,0,0,1,.23.73A1.37,1.37,0,0,1,423.6,312.35Z" transform="translate(-388.12 -261.15)"/><path class="cls-4" d="M417.93,280.85c.11,1.67,1.26,2.94,2.56,2.84s2.26-1.54,2.14-3.21-1.26-2.94-2.57-2.84S417.81,279.19,417.93,280.85Z" transform="translate(-388.12 -261.15)"/><path class="cls-2" d="M416,287.88l-.3,0s-.08-.29-.12-.41a3.12,3.12,0,0,1,.08-.69,3.5,3.5,0,0,0-.42-.2.92.92,0,0,0-.34,0l.09,0a1.06,1.06,0,0,0,.4-.5l-.58.11-.65-.38a.24.24,0,0,1,.11-.27.62.62,0,0,1,.37-.09l.28-.05.23-.06s0-.44-.32-.45l-.67-.05s-.43.19-.58.08-.7.15-1.15.14h-.13l-2.13-.77-4.28-6.34a2.6,2.6,0,0,1-1.21-.26,2,2,0,0,1-1.05-1.12c-.57.18-1.32,1.13-1.85,1.78-1.75,2.16-3.46,7.15-4.05,9.39-.32,1.2-1.41,4.78-1.14,5.07a3.87,3.87,0,0,0,.37.32c-.14.91-1.16,7.38-1.66,8.27s-4.66,7.28-4.66,7.28l-.62.95.47.5-.82,1.07s-.17.77.19.83,2.17,1.38,2.7,1.67a3.16,3.16,0,0,0,1.72.51c.95,0,2.37.37,2.38,0s-.33-.44-.55-.71-1.35-.71-1.73-1.28a4.3,4.3,0,0,1-.53-1.23l.4.15s5.13-7.52,5.51-8.06,2.07-5.77,2.07-5.77l1.93,5.38L405.15,313l.74-.24.06.4,0,1.38s.35.27,1.35.06,3.06-.28,3.79-.42,1.57-.8.65-1.26a3,3,0,0,0-.86-.12l-1.31-.66-.49-.41.25-.09L408,302.31l-2-7.81c.2-.06.32-.14.31-.25-.22-2.36-.33-5.78-.37-7.17a10.13,10.13,0,0,0,2.53,1.82l4.78.21.15-.7a.32.32,0,0,1,.14,0c.3.18.25.24.43.37a.66.66,0,0,0,.47.13,4.14,4.14,0,0,0,.64-.08,2.81,2.81,0,0,0,.74-.38l.35-.18,0-.48Zm-2.62-1.54a.27.27,0,0,0-.08.2.64.64,0,0,0,0,.09l-.41-.08.14-.49a2.47,2.47,0,0,1,.37.16l.22.06Zm.33.45h0Zm.57-.11v0h.11Z" transform="translate(-388.12 -261.15)"/><rect class="cls-6" x="0.2" y="60.26" width="60.01" height="10.4"/><rect class="cls-7" x="49.76" y="60.26" width="10.67" height="10.4"/><path d="M443.73,330.09v-1.58h-2.94v-1l2.5-4h1.9v3.88H446v1.16h-.79v1.58Zm0-2.74v-1.47c0-.39,0-.8,0-1.23h0c-.22.43-.4.82-.62,1.23l-.88,1.45v0Z" transform="translate(-388.12 -261.15)"/></svg>