<svg id="Layer_1" data-name="Layer 1" xmlns="http://www.w3.org/2000/svg" viewBox="0 0 60.43 70.67"><defs><style>.cls-1,.cls-4{fill:none;}.cls-1{stroke:#1d1d1b;}.cls-2{fill:#12100b;}.cls-3{fill:#4d4d4d;}.cls-4{stroke:#4d4d4d;}.cls-5{fill:#bfbfbf;}.cls-6{fill:#f2f2f2;}</style></defs><rect class="cls-1" x="0.5" y="0.5" width="59.42" height="59.42"/><path class="cls-2" d="M400.54,267.37c-.78,2-.15,4.08,1.4,4.67s3.45-.54,4.23-2.52.15-4.09-1.41-4.68S401.32,265.38,400.54,267.37Z" transform="translate(-388.12 -261.15)"/><path class="cls-3" d="M443.71,308.56l-.14-.5a3.76,3.76,0,0,0-.51-.78c-.18-.25-.45-.32-.64-.55s-.57-.23-.87-.31c0-.38,0-.62,0-1l-.76-.05c-.1.32.08.85-.08,1.1l-.74.2a4.56,4.56,0,0,0-1,.89,3.2,3.2,0,0,0-.37,2A2.89,2.89,0,0,0,440,311.4a3.68,3.68,0,0,0,1.4.23l.91-.25A2.71,2.71,0,0,0,443.71,308.56Zm-2.19-1.35c.12,0,.18.08.27.11.06.28-.16.39-.2.6C441.43,307.8,441.6,307.46,441.52,307.21Zm.31,2.05a.32.32,0,0,1-.1-.16,2.74,2.74,0,0,1,1.19-.32,1,1,0,0,1-.07.87C442.38,309.75,442.21,309.33,441.83,309.26Zm.93.72a2.23,2.23,0,0,1-.58-.33c-.19-.09-.4-.13-.52-.35a3,3,0,0,1,.58.33C442.42,309.73,442.64,309.77,442.76,310Zm-1.15-1.33c0-.39.36-.62.46-1l.28-.07a1.35,1.35,0,0,1,.45.73A2.78,2.78,0,0,1,441.61,308.65Zm.21-.79c0,.19-.2.3-.24.49-.17-.1.11-.35.18-.47s.2-.3.23-.49C442.16,307.49,441.89,307.74,441.82,307.86Zm-.17,1.63c.28.27.7.28.91.66a1.13,1.13,0,0,1-.7.56c-.25-.19-.35-.83-.38-1.17Zm-.17.72.15.56c0,.2-.1-.13-.12-.21l-.1-.4C441.41,310.07,441.47,310.14,441.48,310.21Zm-.3-1.32.06.22c-.14.06-.25.05-.27-.11A.35.35,0,0,1,441.18,308.89Zm0,1.26c0,.23.2.53.13.7a1,1,0,0,1-.88-.13c-.09-.32.21-.42.24-.67A.94.94,0,0,0,441.22,310.15Zm-1.15-1.57c.12.17.37.13.46.36-.28.16-1,.42-1.26.28,0-.32-.06-.66.2-.84S439.84,308.57,440.07,308.58Zm-.54-.4c.13-.16.4.14.55.22s.4.13.52.34C440.22,308.6,439.91,308.33,439.53,308.18Zm-.07,1.54a2.79,2.79,0,0,1,1.19-.33c0,.25-.16.39-.27.57s-.09.39-.36.46-.39-.33-.57-.52S439.48,309.79,439.46,309.72Zm1,.47c0-.2.2-.31.23-.5.17.11-.1.36-.17.48s-.2.3-.24.48C440.09,310.56,440.37,310.3,440.44,310.19Zm.34-1.68c-.3.1-.38-.18-.6-.2-.13-.17-.38-.13-.47-.36s.35-.47.69-.61A5.36,5.36,0,0,1,440.78,308.51Zm-.16-1.24c0-.2.11.19.14.27S440.65,307.36,440.62,307.27Zm2.69,2.07-.05,0c0,.05,0,.11,0,.13a.41.41,0,0,1-.13.4s0,.07-.05.07a.22.22,0,0,1-.16.29s0,.07,0,.07,0,.13-.14.16a2.17,2.17,0,0,1-2.39.59l0-.06a.55.55,0,0,1-.5-.29.15.15,0,0,1-.16-.14q-.08,0-.09-.09c-.05,0-.08,0-.09-.1a2.08,2.08,0,0,1-.52-1.68l.06,0c0-.05,0-.11,0-.13s0-.11,0-.13a.34.34,0,0,1,0-.18l.06,0a.57.57,0,0,1,.29-.5.15.15,0,0,1,.14-.16c.07-.26.42-.36.64-.54l.51-.14c.1,0,0,.08-.1.09l-.28.07a4.5,4.5,0,0,0-.77.52c0,.08,0,.13-.14.16a1.68,1.68,0,0,1-.29.5.15.15,0,0,1-.07.2c0,.05,0,.12,0,.13s0,.11,0,.13a2.77,2.77,0,0,0,.46,1.7c.05,0,.08,0,.09.1s.08,0,.09.09a.19.19,0,0,1,.16.14,1.68,1.68,0,0,1,.5.29,2.55,2.55,0,0,0,1.64,0,5.41,5.41,0,0,0,.77-.51.16.16,0,0,1,.14-.16s0-.07,0-.07.12-.16.11-.28h.05s0-.07.05-.07c-.05-.17.09-.23.07-.39h.06c0-.05,0-.12,0-.13a2.75,2.75,0,0,0-.46-1.7c-.05,0-.08,0-.09-.1a.51.51,0,0,1-.32-.28s-.07,0-.07,0-.12-.07-.2-.07l0-.05s-.07,0-.07,0-.07,0-.07-.05a.25.25,0,0,1-.19,0v0a.39.39,0,0,1-.19,0c0-.1.11-.08.17,0l0,.06a.17.17,0,0,1,.2.06s.07,0,.07.05.07,0,.07,0,.19,0,.22.12.07,0,.07,0a.44.44,0,0,1,.32.28c.05,0,.08,0,.09.1A2.09,2.09,0,0,1,443.31,309.34Z" transform="translate(-388.12 -261.15)"/><path class="cls-3" d="M429.35,287l.92-.1.19-.2,6.25,0,.07.24h.67s1.68-.12,2,1a33.21,33.21,0,0,1,.5,4.48l-.12-.24-.31.06-.46-.82-.31-3a1.17,1.17,0,0,0-1.23-.8c-1,0-.63-.05-.63-.05l0,.23-6.55.25v-.27l-.48.09s-.92,2.61-.69,3.52,0,.49,0,.49l-1.12.15.15-.42S428,288.52,429.35,287Z" transform="translate(-388.12 -261.15)"/><path class="cls-3" d="M442.07,314.28l-1-17.47-.35-4.3s0-1-1.58-1.32c-.35-.07-.7-.09-.93-.14a.92.92,0,0,1-.54-.36l-2.81-.07-5.12.16-.42.47a2.36,2.36,0,0,0-2.63,2.14c-.27,2-.44,3.45-.49,3.9,0,.09,0,.14,0,.14l-2.91,20.17-.31.32-.14.81a1.68,1.68,0,0,0,.92.33,1.16,1.16,0,0,0,.74-.28l.08-1.07-.18-.3,1.74-9.28s.8-1.95,2.29-2.05,10.56.42,10.56.42a1.83,1.83,0,0,1,1.82,1.82c.08,1.22.3,6,.3,6Zm-5.26-8.77c-1,0-6.22-.31-7.88-.25a6.32,6.32,0,0,0-2.76.69s1.41-11.2,1.79-12.58a1.51,1.51,0,0,1,1.68-1.17l5-.15s2.19.08,3.21,0c0,0,0-.1,0-.1a2.38,2.38,0,0,1,.56.05,1.65,1.65,0,0,1,1.38,1.16l1,13.2C440.13,305.61,437.82,305.48,436.81,305.51Z" transform="translate(-388.12 -261.15)"/><path class="cls-3" d="M440.59,300.46a2.47,2.47,0,0,0-1.61-1.37c-.47-.1-4.23-.29-4.23-.29l-4.17-.06-3.74.11,0-.22.22-.69,4.73-.11s4.38.09,5.47.17a4.39,4.39,0,0,1,2.71.79A3,3,0,0,1,440.59,300.46Z" transform="translate(-388.12 -261.15)"/><path class="cls-3" d="M444.37,315.23l-.16-.58a4.25,4.25,0,0,0-.59-.9c-.21-.28-.52-.37-.74-.64-.36-.09-.66-.26-1-.36a11.17,11.17,0,0,0,0-1.16l-.89-.06c-.11.37.1,1-.09,1.28l-.85.23a5,5,0,0,0-1.19,1,3.57,3.57,0,0,0-.43,2.3,3.33,3.33,0,0,0,1.63,2.15,4.21,4.21,0,0,0,1.62.26l1.05-.28A3.14,3.14,0,0,0,444.37,315.23Zm-2.53-1.56c.14,0,.21.09.31.13.07.32-.18.45-.23.7C441.73,314.35,441.94,314,441.84,313.67Zm.36,2.37a.34.34,0,0,1-.12-.18,3,3,0,0,1,1.38-.38,1.17,1.17,0,0,1-.08,1C442.83,316.61,442.63,316.11,442.2,316Zm1.07.83a2.47,2.47,0,0,1-.67-.38c-.21-.11-.46-.15-.6-.4a2.33,2.33,0,0,1,.67.38C442.88,316.58,443.13,316.62,443.27,316.87Zm-1.33-1.53c.05-.46.42-.72.53-1.13l.33-.09a1.55,1.55,0,0,1,.51.84A3.27,3.27,0,0,1,441.94,315.34Zm.24-.92c0,.22-.23.35-.26.57-.2-.12.12-.41.2-.55s.23-.34.27-.56C442.58,314,442.26,314.28,442.18,314.42ZM442,316.3c.32.32.81.33,1.05.77a1.26,1.26,0,0,1-.81.64c-.29-.21-.41-1-.43-1.35Zm-.2.83.18.65c0,.23-.12-.15-.13-.24l-.13-.46C441.72,317,441.78,317.06,441.79,317.13Zm-.34-1.52.07.26c-.16.06-.28.05-.31-.13A.37.37,0,0,1,441.45,315.61Zm.05,1.46c0,.26.23.61.15.8a1.17,1.17,0,0,1-1-.14c-.1-.37.25-.49.28-.78A1.29,1.29,0,0,0,441.5,317.07Zm-1.34-1.82c.15.2.43.15.54.42-.32.18-1.15.48-1.46.33,0-.38-.06-.77.23-1S439.9,315.24,440.16,315.25Zm-.61-.46c.14-.19.45.16.63.25s.46.15.6.4C440.34,315.27,440,315,439.55,314.79Zm-.08,1.78a3,3,0,0,1,1.37-.38c0,.28-.19.45-.32.65s-.1.45-.41.54-.45-.39-.66-.6C439.41,316.68,439.49,316.65,439.47,316.57Zm1.12.53c0-.21.24-.34.27-.56.2.11-.12.41-.2.55s-.23.34-.27.56C440.19,317.53,440.51,317.24,440.59,317.1Zm.39-1.93c-.34.12-.43-.21-.69-.23-.15-.2-.43-.15-.54-.42s.41-.54.8-.7A5.79,5.79,0,0,1,441,315.17Zm-.17-1.42c0-.24.12.21.15.3S440.83,313.84,440.81,313.75Zm3.1,2.38-.07,0c0,.06,0,.13,0,.15a.49.49,0,0,1-.16.46s0,.08-.05.08a.26.26,0,0,1-.19.34s0,.08,0,.08a.18.18,0,0,1-.16.18,2.5,2.5,0,0,1-2.77.68l0-.06a.69.69,0,0,1-.58-.33.19.19,0,0,1-.18-.16c-.06,0-.09,0-.1-.12s-.09,0-.1-.11a2.35,2.35,0,0,1-.6-1.94l.06,0c0-.06,0-.13,0-.15s0-.13,0-.15a.29.29,0,0,1,0-.21l.06,0a.68.68,0,0,1,.33-.58.2.2,0,0,1,.16-.19c.09-.3.49-.42.75-.62l.59-.16c.11,0,0,.1-.12.1l-.32.09a6.09,6.09,0,0,0-.9.59.18.18,0,0,1-.16.19,1.68,1.68,0,0,1-.33.58.19.19,0,0,1-.08.23c0,.06,0,.13,0,.15s0,.13,0,.15a3.11,3.11,0,0,0,.54,2s.08,0,.1.11.09,0,.1.12.15,0,.18.16a1.59,1.59,0,0,1,.58.33,3,3,0,0,0,1.89,0,5.42,5.42,0,0,0,.9-.6.18.18,0,0,1,.16-.18s0-.08,0-.08.14-.18.13-.32l.06,0s0-.07.05-.08c-.05-.19.11-.27.09-.44l.07,0c0-.06,0-.13,0-.15a3,3,0,0,0-.53-2c-.05,0-.09,0-.1-.11a.64.64,0,0,1-.36-.33c-.05,0-.09,0-.09,0s-.14-.08-.23-.08l0-.07s-.08,0-.08,0-.08,0-.08,0a.32.32,0,0,1-.22,0l0-.07a.3.3,0,0,1-.21,0c0-.11.13-.08.19-.05l0,.06a.21.21,0,0,1,.24.08s.07,0,.08,0,.08,0,.08,0,.22,0,.25.15c0,0,.08,0,.09,0a.49.49,0,0,1,.36.33c.06,0,.09,0,.1.11A2.37,2.37,0,0,1,443.91,316.13Z" transform="translate(-388.12 -261.15)"/><path class="cls-4" d="M444.28,315.72a3,3,0,1,1-3-3A3,3,0,0,1,444.28,315.72Z" transform="translate(-388.12 -261.15)"/><path class="cls-3" d="M418,316.73l-.38-1.58.34-24.21,0-1.1c0-1.08-.78-1.51-1.7-1.71a2.44,2.44,0,0,0-2.94,1.77.41.41,0,0,0-.05.18.49.49,0,0,0,.47.45.43.43,0,0,0,.47-.41s0-.07,0-.1c.67-2,2.92-.95,2.9-.26v.07l-.36,25.31-.5,1.55Z" transform="translate(-388.12 -261.15)"/><path class="cls-2" d="M412.07,286.74c-.21-.2-.38-.42-.62-.61a8.83,8.83,0,0,1-1-.43c-.53-.12-1-.13-1.53-.2l.21-.71-3.16-2.43-2.77-9.56.08.89c-.08-.64-.12-1-.12-1a2.78,2.78,0,0,1-1.07-.12,3.21,3.21,0,0,1-2-2c-.17,0-4.09,2.33-6,22.43,0,.07.11,0,.33.1s.16-.08.18-.07c.27.38.18,2.91.31,7,0,.82.1,4.19.11,5,0,4.34-.28,8.51-.43,10.09l-.17,1.34.87.12s0,0,0,0a1.17,1.17,0,0,1-.1.64c-.05.2-.05.52.46.71s2.9.56,3.26.65a4.56,4.56,0,0,0,1.83-.05c.45-.15,1.33-.33,1.43-.71s0-.56-.26-.65-1.25-.28-1.49-.4-.91-.46-1.43-.76c.07-.52.14-1,.2-1.48l.46.23a4.57,4.57,0,0,0,1.77.46c.48,0,1.37.06,1.57-.28s.15-.53-.07-.69-1.11-.62-1.31-.81-.65-.61-1.06-1c.69-.73,6.53-7.73,7.32-9.18.61-1.11-2.7-8.69-3.45-10.47.26-.23.29-.11.29-.53,0-.75,0-1.35,0-2l1.81,2.24.11.14h0l.1.11.51-.6a3.66,3.66,0,0,0,.83,1,.77.77,0,0,0,.24.32,1.43,1.43,0,0,0,.67.19c.13,0,.2-.21.32-.24,0,.16.34.23.45.26s.18-.3.3-.31.09.2.27.27a.41.41,0,0,0,.24-.11c.29-.44-.19-.66-.42-1a9.29,9.29,0,0,1,.85.62s.06,0,.15,0a.47.47,0,0,0,.13-.15c-.14-.69-.34-.72-.93-1.27.38.27.85.21.93-.14-.13-.11-1-.59-1.53-.93a8.93,8.93,0,0,1-1.25-.17l.44-.4-1.09-1.54a13.44,13.44,0,0,1-1.52-2l1.94.89.09-.29.11-.19a3.06,3.06,0,0,0,1,.57,2.91,2.91,0,0,0,.55.36,1.13,1.13,0,0,0,.78.33c.64-.57-.46-.7-.55-1.17.15-.39.12-.5.41-.4s.2.26.38.37.19-.05.29-.05.14.24.24.35c.24-.08.58.21.79,0S412.3,286.94,412.07,286.74ZM400.2,306.22c.27-2.63.23-5.44.44-7.86.61,1.24,1.69,3.16,2.16,4.33Zm-4.93,10.41h0S395.25,316.7,395.27,316.63Z" transform="translate(-388.12 -261.15)"/><rect class="cls-5" x="0.21" y="60.26" width="60.01" height="10.4"/><rect class="cls-6" x="49.76" y="60.26" width="10.67" height="10.4"/><path d="M441,330.09v-.94l.84-.76c1.46-1.31,2.16-2.05,2.17-2.82,0-.54-.31-1-1.08-1a2.46,2.46,0,0,0-1.41.54l-.44-1.1a3.67,3.67,0,0,1,2.16-.68,2.05,2.05,0,0,1,2.32,2.07,4.13,4.13,0,0,1-1.76,2.86l-.61.5v0h2.5v1.27Z" transform="translate(-388.12 -261.15)"/></svg>