<svg id="Layer_1" data-name="Layer 1" xmlns="http://www.w3.org/2000/svg" viewBox="0 0 60.77 70.65"><defs><style>.cls-1,.cls-2{fill:#12100b;}.cls-1{fill-rule:evenodd;}.cls-3{fill:#fff;}.cls-4,.cls-6{fill:none;}.cls-5{fill:#1d1d1b;}.cls-6{stroke:#1d1d1b;}.cls-7{fill:#bfbfbf;}.cls-8{fill:#f2f2f2;}</style></defs><path d="M441.45,294.51a25.39,25.39,0,0,0,.95-7.64c-.43,3.88-1.77,7.2-2.65,10.38-1.15,4.14-2.49,8.7-4.82,11.5-2.66,3.18-8.33,8.24-12.22,9.66-4.49,1.64-7.9-.28-11.17-2.16a29.65,29.65,0,0,1-12.12-12.14c-1.25-2.22-2.72-5-2.65-7.05-2-2.92-2.12-7.74-3.41-11.36a53.06,53.06,0,0,0,2.84,13.51A39.84,39.84,0,0,0,403.77,311a41,41,0,0,0,3.33,3.25c1.3,1,2.81,1.46,4.25,2.62a9.16,9.16,0,0,0,2.84,2c6.48,2.38,11.79-1.05,15.52-3.92,7-5.33,9.32-11.52,9.85-13.51C440.15,299.15,441.31,294.84,441.45,294.51Z" transform="translate(-387.95 -261.16)"/><path d="M393.64,287.49c0-3.28-1.15-6.57-1-10" transform="translate(-387.95 -261.16)"/><path d="M393.71,283.7a49.28,49.28,0,0,0-.42-7.39c-.23-1.48-.5-3-.62-4.46l0,.27,0-.47a1.09,1.09,0,0,0,0-.18q-.25-6.81,0,13.25c.11-3.07.07-6.15.06-9.22,0-1.5,0-3,0-4.49l0-.75c0-.36,0-.36,0,0-.09,2.59-.06,5.19-.06,7.79s0,5.07.06,7.6a23.17,23.17,0,0,0,.23,2.76c.24,1.78.61,3.54.75,5.33l0-.27,0,.45c0,.05,0,.11,0,.17q.06,1.59,0-2.82c0,1.14,0,2.31,0,3.45.06,1,.07-1.21.06-.76.06-3.41.05-6.84,0-10.26Z" transform="translate(-387.95 -261.16)"/><path d="M442,292.71c.29-3,1.44-5.91,1.73-9,.15-2,0-4.27.15-6.4.28-4.28.86-9.7.43-13.81" transform="translate(-387.95 -261.16)"/><path class="cls-1" d="M414.9,306.89c.52,4.53,4.08-.08,8.11,1.6C425.83,306.42,417.07,307.32,414.9,306.89Z" transform="translate(-387.95 -261.16)"/><path class="cls-1" d="M424.59,303.62c-1.26-1.08-7-1.48-10.42-.58-.66.35-2.36,1.85-4.16,2.23.11.14.15,1,.45,1.13,9.85-4.22,15.08-.43,16.8.73.14-.13-.09-.75.09-1.32" transform="translate(-387.95 -261.16)"/><path class="cls-2" d="M405.85,279.84a2.55,2.55,0,0,0,2.53,2.61c2.06.18,2.66-1.32,2.4-2.43" transform="translate(-387.95 -261.16)"/><path class="cls-3" d="M408.71,281.51c-.53.49.4,1.21,1.2.68s-.13-1.14-1.07-.76" transform="translate(-387.95 -261.16)"/><path class="cls-4" d="M408.71,281.51c-.53.49.4,1.21,1.2.68s-.13-1.14-1.07-.76" transform="translate(-387.95 -261.16)"/><path class="cls-2" d="M408.73,281.54s0,0,0,0Z" transform="translate(-387.95 -261.16)"/><path class="cls-2" d="M408.9,281.44c0-.06.11,0,.15-.07s0,0,0,0a.15.15,0,0,1,.19,0h0s0,0,0,0v0l0,0v0s.05,0,.07,0v0a.2.2,0,0,1,.15,0v0s0,0,0,0,0,0,0,0h0s0,0,0,0h0s0,0,0,0h0s0,0,0,0,0,0,0,0a.23.23,0,0,1,.18.05v0h0v0s0,0,0,0v0h0s0,0,0,0h0s0,0,0,0h0s0,0,.06,0h0l0,0s0,0,0,0,0,0,0,0l0,.05s0,0,0,0h0v0a.07.07,0,0,1,.06,0h0l.06,0s0,0,0,0h0s0,0,0,0h0l0,0h0s0,0,0,0,0,0,0,0v0h0V282s0,0,0,0,0,.07,0,.08h0s0,0,0,0h0s0,0-.05.06v0s0,0,0,0,0-.05,0,0,0,0,0,0,0,0,0,0,0,0,0,0v0h0s0,0,0,0,0,0,0,0v0h0s0,0,0,0,0,0,0,0l0,0v0l0,0v0s0,0,0,0,0,0,0,0,0,0,0,0l0,0s0,0,0,0,0,0,0,0-.06,0-.09,0v0s0,0,0,0v0s0,0,0,0,0,.05,0,.05h0v0s0,0,0,0h0v0s0,0,0,0h0l0,0s0,0,0,0v0h0s0,0,0,0,0,0,0,0v0h0v0h0l0,0h0s0,0,0,0h0s0-.06,0,0,0,0,0,0-.05,0-.07,0v0s-.07,0-.09,0v0s0,0,0,0v0h-.06s0,0,0,0v0s0,0,0,0h0s0,0,0,0v0l0,0a.12.12,0,0,1-.13,0h0s0,0,0,0v0s0,0,0,0,0,0,0,0,0,0,0,0l0,0h0s.05,0,.05-.07h0s0,0,0,0,0,0,0,0,0,0-.05,0,0,0,0,0h0l0,0s0,0,0,0,0,0,0,0,0,0,0,0,0,0,0,0,0,0,0,0l0,0s0,0,0,0h0v0s0,0,0,0,0,0,0,0,0,0,0,0,0,0,0,0h0s0,0,0,0h0v0l0,0s0,0,0,0h0v0s0,0,0,0v0h0v-.05h0s0,0,0,0h0s-.05,0-.07,0,.05-.06,0-.06,0,0,0,0,0,0,0,0,0,0,0,0v0s0,0,0,0,0,0,0,0,0,0,0,0,0,0,0,0,0,0,0,0v0h0s0,0,0,0l0,0s0,0,0,0l0,0h0s0,0,0,0h0l0,0s0,0,0,0a0,0,0,0,0,0,0s0,0,0,0,0,0,0,0h0l0-.05h0v-.07s0,0,0,0,0,0,0,0h0s0,0,0,0,0,0,0,0,0,0,0,0l0-.06,0-.07h0s0,0,0,0h0s0,0,0,0l0,0h0s0,0,0,0h0l0,0h0v0s0,0,0,0v.05l0,0s0,0,0,0h0s0,0,0,0h0v0h0s0,0,0,0,0,0,0,0l0,0,0,0,0,0h0s0,0,0,0,0,0,0,.06h0s0,0,0,.05,0,0,0,.06a.33.33,0,0,1,.06.1h0s0,0,0,0,0,0,0,0,0,0,0,0h0s0,0,.05,0v0h.05l0,0c.05,0,.08,0,.14,0v0c.06,0,.09,0,.13,0v0s0,0,0,0,0,0,0,0,0,0,0,0h0v0s0,0,0,0,.06,0,.08,0v0s0,0,.06,0v0s.07,0,.1,0a.76.76,0,0,0,.16-.06h0s.05,0,.05,0h0s0,0,0,0h0l.06,0h0s0,0,0,0v0s.07-.07.1-.11,0,0,.05,0h0s.05,0,0,0l0,0s.05,0,0,0h0s0,0,0-.08,0-.14-.06-.2-.16-.09-.24-.16,0,0-.05,0h0s0,0,0,0l-.12,0v0h0v0c-.1,0-.21,0-.31,0l-.09,0a.34.34,0,0,0-.24,0A.12.12,0,0,1,408.9,281.44Z" transform="translate(-387.95 -261.16)"/><path class="cls-2" d="M408.72,281.56s0,0,0,0Z" transform="translate(-387.95 -261.16)"/><polygon class="cls-2" points="20.55 20.61 20.54 20.61 20.53 20.6 20.55 20.61"/><path class="cls-2" d="M408.48,281.86l0,0Z" transform="translate(-387.95 -261.16)"/><path class="cls-2" d="M408.45,282h0Z" transform="translate(-387.95 -261.16)"/><path class="cls-2" d="M408.47,282h0S408.45,282,408.47,282Z" transform="translate(-387.95 -261.16)"/><path class="cls-2" d="M408.52,282.13v0S408.51,282.14,408.52,282.13Z" transform="translate(-387.95 -261.16)"/><polygon class="cls-2" points="20.64 21.03 20.64 21.03 20.63 21.04 20.64 21.03"/><polygon class="cls-2" points="21.88 21.16 21.87 21.17 21.87 21.16 21.88 21.16"/><path class="cls-2" d="M410.24,281.9h0Z" transform="translate(-387.95 -261.16)"/><polygon class="cls-2" points="22.18 20.44 22.18 20.44 22.16 20.45 22.18 20.44"/><path class="cls-2" d="M425.56,279.63a2.53,2.53,0,0,0,2.53,2.55c2.06.17,2.66-1.3,2.4-2.38" transform="translate(-387.95 -261.16)"/><path class="cls-3" d="M427.15,280.21c-1.13-.22-.86.86-.2.89s.74-.89.61-1.15" transform="translate(-387.95 -261.16)"/><path d="M427.05,280.74c0-.06,0-.25,0-.11S427,280.84,427.05,280.74Z" transform="translate(-387.95 -261.16)"/><path d="M427.22,280.13c.73-.23,0,.05.49,0l-.31.06c.59-.06.25.1-.21.13h-.12c-.08,0,.31,0,.25,0h-.21a1.91,1.91,0,0,1,.28,0H427l.27,0c.63,0,0,0,.28.07l-.17,0c.38.07.3.12.43.19l-.36-.08a1.3,1.3,0,0,1,.39.12c-.28-.07.25.08.09.06l-.06,0c.29.1-.17,0,.18.08l-.23-.05c.4.12-.21-.05,0,0l.08,0c.09,0-.1,0,0,0h-.05c.1.05-.12,0,.18.1-.24-.09-.1-.06-.46-.18.3.16.2.22.17.28l-.25-.14c.05,0,0,0,.16.14l-.15-.1c-.1-.06.28.22.16.15l-.24-.19c.19.16.15.14.2.21l-.14-.13c.21.2-.06,0,.07.11l-.14-.13c-.17-.15.28.27.17.19l-.14-.15c.23.25.13.19.19.29l0-.06c0,.05-.07,0,0,.11-.06-.06-.27-.36-.24-.3.21.3.06.14.3.49-.05,0-.15-.14-.1,0-.06-.12-.23-.39-.23-.42l-.12-.2c-.07-.13,0,0-.06-.12,0,0,.06.15,0,.09a3.68,3.68,0,0,1,.26.65c-.05-.13-.16-.37-.18-.43.08.22.16.44.23.67,0,0-.1-.27-.08-.18l.07.23s0,.1-.13-.24c-.05-.14,0-.08-.06-.2s0,.12,0,.13v0a1,1,0,0,0,.07.35s-.06-.21,0-.11,0,.27,0,.28l-.05-.26a1.38,1.38,0,0,1,0,.51c0,.17,0-.32,0-.23-.07-.23,0,.35-.12,0,0,0,0,.24,0,.2s0-.28-.05-.18c0-.15,0,.05,0,.09s0-.07,0-.09-.1.36-.15.15a1,1,0,0,1-.07.34l0-.23c0-.14-.05,0,0-.18-.05.27.12-.23.07,0,0-.2-.08.35,0,0,0,0-.08.26-.08.05a1,1,0,0,0,0-.3s0,.1-.06.18l0,.09c0,.21,0,0-.06.21,0-.18-.09.1,0-.26l.06-.29s-.09.3-.13.42l0-.13c-.12.43,0,0-.14.28,0-.16-.08,0,0-.31-.06.12-.14.26-.14.16a.34.34,0,0,0,.07-.13c0-.13,0,0-.06,0s.07-.25.13-.4a5,5,0,0,0-.24.46c.17-.4-.19.22,0-.15a1.15,1.15,0,0,0,.16-.28c.2-.39-.19.27-.11.07l-.18.32c.1-.21-.16.15,0-.17-.08.11,0-.12-.16.18.11-.28-.25,0,.12-.47,0,0,0,0-.13.12s.1-.1,0,0l-.11.11a1.23,1.23,0,0,1,.25-.31c.12-.19-.42.43-.38.28s.14-.14.12-.14l-.2.16c0-.07.22-.25.4-.42a.5.5,0,0,0-.19.12l.22-.23c-.16.16-.12.09-.17.13l.05,0c.08-.07,0,0,0,0a1.25,1.25,0,0,0-.18.19c-.08.07-.07,0-.18.11.19-.15.11-.13.12-.16s-.18.12-.18.11,0,0,.15-.13-.09.08,0,0,.24-.2.1-.12-.38.3-.28.18l.21-.13.08-.1-.18.13.09-.07c-.2.13-.09,0-.31.15,0,0,.11-.12.12-.14h0c.1-.09,0-.06-.12,0l0,0s0,0-.16,0c.14-.1.74-.4.48-.29a3.33,3.33,0,0,0-.5.22c.11-.1-.25,0,.05-.21l-.19.06c.06-.11-.32-.11.1-.29a3.46,3.46,0,0,0,.34-.07c-.2,0,.2-.06-.14,0a1.62,1.62,0,0,0-.37.09c-.12,0-.13-.13.05-.18a.52.52,0,0,1-.21,0c.32,0,.36-.07.25-.09H425l.2,0c-.06,0-.41,0-.22,0h.21c-.16,0-.43-.11-.26-.15h.28a.54.54,0,0,0-.28-.05.72.72,0,0,1,.45-.07c-.57-.22-.5-.52-.38-.66l.13.07c.14,0-.22-.14-.11-.12a4.49,4.49,0,0,1,.41.23c.17,0-.18-.19-.21-.27s.09.1-.11,0,.18,0-.05-.18a2.26,2.26,0,0,1,.36.27l-.09-.12c.29.18.43.43.8.64l0,0a4.19,4.19,0,0,0,.37.26c-.12-.09-.44-.36-.55-.42s-.53-.46-.45-.51c.14.1,0,.08.18.22s-.06-.14,0-.11a1,1,0,0,1-.32-.33c.13.06.18.21.24.19-.11-.12-.15-.26-.27-.31-.24-.29.12,0,0-.21.18.19.36.5.49.57-.18-.19-.16-.32-.43-.6a1.22,1.22,0,0,1,.28.33c.12.11-.21-.43.11,0l-.15-.23.21.22s-.1-.37.1,0c0-.05,0-.06-.1-.29s.05.2-.16-.1c.19.24,0-.08,0-.18l.08.14c0-.06,0-.05,0-.2a.71.71,0,0,0,.11.2l-.09-.22c0-.13.2.37.22.28l0,.18s.1.15.09.08l-.23-.6c0-.1.11.22.06,0l.06.26c0,.06.16.31.19.29a1.35,1.35,0,0,0-.15-.47s.09.1.13.25c0-.09-.09-.21-.09-.35.06.12.18.3.26.49l.08.35h0c.06.28.07.2.15.5,0,0,0-.06,0-.14a10.32,10.32,0,0,1-.26-1.07c0-.13.28,1,.18.35,0-.11-.08-.44-.09-.31s-.07-.44,0-.27.12.43.13.7c0-.15-.05-.11-.05-.06a4.36,4.36,0,0,0,.12.43s0-.06,0-.29,0,0,0-.22c0-.09.09.29,0-.16,0,0-.07-.22-.1-.39l0-.11,0,.17c.08.11,0-.3,0-.27l.07.33c0,.28-.09-.12,0,.34,0,0,0-.22.06-.11v.1s.09.63.09.26a1.46,1.46,0,0,0,0-.34c.05-.06,0-.23.07-.26,0,.34.05,0,0,.38,0-.2-.08-.18-.07.15s0-.05,0,.35a3.67,3.67,0,0,1,.1.66v-.13l0-.49c0,.06,0-.07,0-.31a2,2,0,0,1,0,.39c0-.08.06,0,.09,0,0-.4,0-.09,0-.43a2.87,2.87,0,0,1,0-.55,1.86,1.86,0,0,1,0,.26c0-.22,0,.35,0,0a6,6,0,0,0,0,.8c0-.18,0,.22,0,.22a1.49,1.49,0,0,1,.08-.38c0,.3.06,0,.08,0l0,.57s0-.38,0-.21v.07c0-.08,0,.24.07-.26l-.05.38s0-.06,0-.1l0,.32c0,.26,0,0,0-.05l0-.22c0-.18,0,0,.05,0l0,.22,0-.13c0,.21-.05.35,0,.17l-.11.54.08-.48c0-.19,0-.13,0,.08,0,0,0,0,0-.11l-.09.5s0,.08,0,0c0,.14,0,.17,0,.17l0-.27q-.06.39-.06.27c0-.31,0,.2,0,.11,0-.27.06-.49.08-.6s0,0,0-.13l-.08.64,0-.2a2.59,2.59,0,0,1,0,.34.89.89,0,0,0,0-.13v-.2c0,.44,0,.16,0,.35,0-.19,0,.2,0-.15,0,.07,0,.17,0,.19a.49.49,0,0,0,0-.12h0l0-.14c0,.21,0-.17,0-.12l0,.24v0l0-.09h0a.24.24,0,0,0,0-.08h0l0,0a0,0,0,0,0,0,0l0,0h.16l.05,0h0l0,0h0l0,0h0v-.27h0v.06h0a.28.28,0,0,0,0,.09.37.37,0,0,0,0,.16.42.42,0,0,0-.2-.13l-.06,0h0l-.14,0h0c-.11,0-.19,0-.11,0h.13a2.34,2.34,0,0,0,.69-.2h0l-.05,0Z" transform="translate(-387.95 -261.16)"/><path d="M427,280.77l.08-.46Z" transform="translate(-387.95 -261.16)"/><path d="M426.92,279.07V279s0-.15,0-.07A1.18,1.18,0,0,1,426.92,279.07Z" transform="translate(-387.95 -261.16)"/><path d="M426.8,279a.48.48,0,0,1,0-.28Z" transform="translate(-387.95 -261.16)"/><path d="M426.62,278.38c0-.12,0-.19,0-.19Z" transform="translate(-387.95 -261.16)"/><path d="M426.64,278.71s0-.08-.05-.16C426.61,278.68,426.62,278.47,426.64,278.71Z" transform="translate(-387.95 -261.16)"/><path d="M426.16,278.37s0,.14-.05,0C426.16,278.46,426.11,278.16,426.16,278.37Z" transform="translate(-387.95 -261.16)"/><path d="M426,278.66s0,0,0,0a.37.37,0,0,1-.05-.17Z" transform="translate(-387.95 -261.16)"/><polygon points="38.2 20.82 38.15 20.87 38.22 20.75 38.2 20.82"/><path d="M427.34,282.15c0-.09,0,.13.05.15S427.36,282.13,427.34,282.15Z" transform="translate(-387.95 -261.16)"/><polygon points="39.59 20.13 39.59 20.13 39.42 19.89 39.59 20.13"/><path class="cls-3" d="M428.42,281.25c-.53.49.4,1.19,1.2.67s-.13-1.11-1.06-.74" transform="translate(-387.95 -261.16)"/><path class="cls-4" d="M428.42,281.25c-.53.49.4,1.19,1.2.67s-.13-1.11-1.06-.74" transform="translate(-387.95 -261.16)"/><path class="cls-2" d="M428.47,281.32s0,0,0,0Z" transform="translate(-387.95 -261.16)"/><path class="cls-2" d="M428.62,281.22c0-.12.1,0,.13-.11s0,.06,0,0,.12-.08.18,0h0s0,0,0,0v0s0,0,0-.05v0c0-.09.05,0,.08,0v0a.16.16,0,0,1,.14-.06v.05s0-.05,0-.05,0,0,0,0h0s0,0,0,0v0c0-.05,0,0,0,0h0s0,0,0,0h0s0,0,0,0,0,0,0,.07a.18.18,0,0,1,.19,0v0s0,0,0,0v0s0,0,0,0l0,0s0,0,.06,0l0,0s0,0,0,0v0s0,0,0,0l0,0s0,0,.08,0h0s0,0,0,0,0,0,0,0,0,0,.08,0,0,.05,0,.05-.05,0-.06,0l0,0h0s0,0,0,0,.09,0,.11,0l-.07,0H430s0,0,0,0h0s0,0,0,0h0l0,0h0s0,0,.05,0,0,0,0,0a0,0,0,0,1,0,0h0a.12.12,0,0,1,.05.08l0,0s0,.09,0,.09h0s0,0,0,0,0,0,0,0,0,0,0,0a.06.06,0,0,1-.05.08s0,.05,0,.06l0,0s0,0,0,0,0-.06,0,0,0,.06,0,0,0,.05,0,0,0,0,0,0v0h0s0,0,0,0,0,0,0,0l0,0,0,.06,0,0c0,.06,0,0,0,.06s0,0-.06,0,0,0,0,0v0s0,0,0,0l-.05,0,0,.07c0-.05,0,0-.05,0s0,0,0-.05,0,.05,0,0l0,.05s0,0,0,0,0,0,0,0-.06.05-.11,0,0,0,0,0,0,0,0,0v0s0,0,0-.05,0,.09,0,.08,0,0,0,0v0s0-.05,0-.08,0,0,0,0l0,0s0,0,0,0h0s0,0,0,0l0,0,0,0s0,0,0,0,0,0,0,0,0,0,0,0,0,0,0,0,0,0,0,0,0,.07,0,.05v0l0,0v0h0s0,0,0,0l0,0h0s0,0,0,0h0s0,0,0,0,0-.12,0-.08,0,.06,0,.08-.05,0-.08,0v0s-.08,0-.1,0v-.05s0,0,0,0v.06s-.06,0-.06,0v0c0-.05,0-.06,0,0v0s0,.05,0,0v0s0,.05-.05,0v-.05s0,0,0,0a.07.07,0,0,1,0-.06.1.1,0,0,1-.15,0v0s0,0,0,0l0-.07s0,0-.05,0,0,0,0,0,0,0,0,0l0-.06h0c0-.05.06-.06.07-.13h0c0-.05.05,0,0-.06a.26.26,0,0,0,0,.09s-.05.08-.07.07,0,0,0,0,0,0,0,0,0,.05,0,.06,0,0,0-.05,0,0,0,.05,0,0,0,0,.06-.06.06-.09-.05,0-.07.08a.11.11,0,0,1,0-.06s-.06,0,0,0l0,0,0-.05s-.06,0,0,0,0,0,0,0,0,0,0,0,0,0,0,0l0,0h0l0,0,0,0s0-.05,0-.06h0s0,0,0,0l-.08.05s0,0,0,0h0s0-.05,0-.06-.06,0-.06,0,0,0,0,0,0,0,0,0l0-.07.05,0h0s0,0,.06-.05h0c0,.06-.08,0-.13.08s.12-.1,0-.08-.06,0,0,0-.06,0-.05,0,.05-.05.1,0,0,0,0,0,.05,0,0-.05,0,0,0,0,0,0,0,0,0,0,0,0,0,0-.05,0l0,0h0s0,0-.05,0l0,0s0,0,.06,0,0,0,0,0h0s.08,0,0,0h-.05s0,0-.05-.05,0,0,.05,0,0,.05,0,.05,0,0,.06,0,0,0,.08,0h0l-.06,0s0,0-.05-.05h.05a.14.14,0,0,1,0-.09c-.06,0,0,0-.06,0a.07.07,0,0,1-.08,0h0s.05,0,0,0,.07,0,.11,0,0,0,0,0l-.05-.07s0-.06,0-.08.07,0,.08,0,0,0,0,0h0s0,0,0-.05l0,0v0l0,0s0,0,0,0h0s0,0,0-.05l0,0v0s0,0,0,0l0,.08-.05-.05s0,0,0,0v0s0,0,0,.05,0,0,0,0v0l0,0s0,0,0,0,0,0,0,0a.22.22,0,0,1-.07-.06h0s.06,0,.07.06l0,0s.05,0,0,0a.06.06,0,0,0,0,0h0c.06,0,0,0,.05,0s0,0,0,.05.07,0,.07.08h0s0,0,0,0l.06,0s0,0,.05,0l0,0s0,0,0,0,0,0,0,0,0,0,.07,0v.05c.06,0,.08,0,.13,0v0c.07-.06.08,0,.13,0l0,.05s0,0,0-.05,0,0,0,0,0,0,0,0,0,0,.05,0h0v0s0,0,0,0,.05,0,.07,0v0s0,0,.05,0v0s.07,0,.1,0,.09,0,.13-.07v0c0-.06.05,0,0-.05s0,0,0,0,.05,0,0,0h0s0,0,.06,0v0s0-.06,0,0v0c.05,0,.05-.07.07-.11s.08.08.06,0,0,0,0,0,.07.05,0,0l0,0s.07,0,.05,0h0s0,0-.07-.07,0,0-.08,0-.11,0-.17-.13,0,0,0,0v0s0,0,0,0l-.1,0s0,0,0,0v0h0v0c-.09,0-.18-.05-.28,0s-.05,0-.07,0-.17-.07-.23,0S428.59,281.25,428.62,281.22Z" transform="translate(-387.95 -261.16)"/><path class="cls-2" d="M428.46,281.33a.09.09,0,0,1,0,0Z" transform="translate(-387.95 -261.16)"/><path class="cls-2" d="M428.13,281.5h0s0,0,0,0Z" transform="translate(-387.95 -261.16)"/><path class="cls-2" d="M428.11,281.61a0,0,0,0,1,0,0Z" transform="translate(-387.95 -261.16)"/><path class="cls-2" d="M428,281.73h0Z" transform="translate(-387.95 -261.16)"/><path class="cls-2" d="M428.08,281.72v0S428.05,281.73,428.08,281.72Z" transform="translate(-387.95 -261.16)"/><path class="cls-2" d="M428.13,282s0,0,0,0S428.1,282,428.13,282Z" transform="translate(-387.95 -261.16)"/><polygon class="cls-2" points="40.27 20.85 40.27 20.86 40.25 20.87 40.27 20.85"/><polygon class="cls-2" points="41.62 20.96 41.62 20.97 41.61 20.95 41.62 20.96"/><path class="cls-2" d="M430,281.65h0S430,281.64,430,281.65Z" transform="translate(-387.95 -261.16)"/><polygon class="cls-2" points="41.9 20.16 41.9 20.16 41.87 20.18 41.9 20.16"/><path class="cls-1" d="M417.85,281.87c.35.08.22.66.65.67-.48,1.22-.33,3.67-.33,6,0,1.85.26,5.48-.32,4.71C418.19,289.32,416.87,285.4,417.85,281.87Z" transform="translate(-387.95 -261.16)"/><path class="cls-1" d="M412.37,294.64c.46.87.56,2.11,1,3C412.2,297.08,411.94,296.09,412.37,294.64Z" transform="translate(-387.95 -261.16)"/><path class="cls-1" d="M425.27,295c.91.75,0,2.39-.65,2.68C423.7,296.9,425.72,296.37,425.27,295Z" transform="translate(-387.95 -261.16)"/><path class="cls-1" d="M416.56,297.66c-.76,0-.95-.57-1.93-.33C414.71,296.25,416.72,296.56,416.56,297.66Z" transform="translate(-387.95 -261.16)"/><path class="cls-1" d="M423.33,297c-.3.26-2.34,1.11-1.93,0C422.15,296.89,422.73,296.33,423.33,297Z" transform="translate(-387.95 -261.16)"/><path class="cls-1" d="M422.2,279.39c4,0,7.24,1,11.75,0-1.26,1.38-4.36.83-5.56,2.26C426.54,280.68,424.21,280.21,422.2,279.39Z" transform="translate(-387.95 -261.16)"/><path class="cls-1" d="M413.86,277.11c-1.11-.86-6.23-4.19-9.27-3.23C408.25,272.72,412.22,274.92,413.86,277.11Z" transform="translate(-387.95 -261.16)"/><path class="cls-1" d="M422.2,277.75c-.28-1.86,5.13-5.3,9.28-3.87C428.76,272.94,423.69,275.28,422.2,277.75Z" transform="translate(-387.95 -261.16)"/><path class="cls-1" d="M401.5,279.39a33.88,33.88,0,0,0,12.36-.32c-1.49,1.35-4.43,1.18-5.87,2.58C406.06,280.65,403.51,280.3,401.5,279.39Z" transform="translate(-387.95 -261.16)"/><path class="cls-1" d="M412,281.65c-1,2.67-12-.8-6.8.32A44.83,44.83,0,0,0,412,281.65Z" transform="translate(-387.95 -261.16)"/><path class="cls-1" d="M423.75,282c1-.5,4.38.08,6.49,0,1.64-.06,3.15-1.15,1.24.32A15.92,15.92,0,0,1,423.75,282Z" transform="translate(-387.95 -261.16)"/><path class="cls-1" d="M434.56,269.36c-2.86,1.55-7.07,1.08-10.27,2.23-1.32.47-2.21,2-3.48,1.26C422.94,268.44,429.35,270,434.56,269.36Z" transform="translate(-387.95 -261.16)"/><path class="cls-1" d="M413.21,273.37c-2.75-3-8.39-3.42-13.4-4.38C404.14,268.84,413.55,268.52,413.21,273.37Z" transform="translate(-387.95 -261.16)"/><path class="cls-5" d="M427.48,289.74s-.12.06-.06,0S427.52,289.72,427.48,289.74Z" transform="translate(-387.95 -261.16)"/><path class="cls-5" d="M429.94,299.39c-.4-.06,0-.28-.31-.36,0,0,.21,0,.15-.06-.31-.07-.17-.3,0-.5h.06s-.16,0-.14-.07a.52.52,0,0,0,.11,0c-.12,0-.07,0-.16,0l.19-.06h-.14c-.32,0,0-.12-.18-.16h.09c-.21-.07-.21-.21-.3-.31l.18,0c-.13,0-.18,0-.21,0,.14,0-.14,0-.07-.08h0c-.16,0,.08-.06-.11-.05l.11,0c-.2,0,.1-.06,0-.06h0c-.06,0,0,0,0-.06h0c-.07,0,0-.09-.12-.06.13,0,.07,0,.25,0-.2-.12-.2-.28-.24-.43l.13-.07s0-.05-.12,0l.08,0s-.18,0-.11,0a.44.44,0,0,0,.15,0c-.13,0-.12,0-.16-.06h.09c-.15,0,0-.07-.08-.08h.09c.1-.07-.19,0-.13,0a.18.18,0,0,0,.1,0c-.17,0-.14-.08-.2-.1h0s0-.09-.08-.12.23-.05.18-.08-.09-.06-.29,0c0-.05.07-.12,0-.13s.21-.08.24-.05l.1-.05c.07,0,0,0,.07,0s-.09,0-.07-.06-.33,0-.36,0a1.84,1.84,0,0,0,.23-.06l-.36,0s.14,0,.09-.05a.6.6,0,0,1-.12,0s-.06-.06.11-.11,0,0,.1,0-.07,0-.08-.05h0s-.09,0-.19,0,.11,0,.06,0-.14,0-.15-.05a.34.34,0,0,0,.13,0,.54.54,0,0,1-.27-.06c-.09,0,.15,0,.11,0s-.19-.07,0-.16l-.1,0s.13-.06.08-.07,0,0-.06,0,0,0,.05,0-.21-.08-.12-.16-.18,0-.18,0l.11,0c.07,0,0,0,.08-.07-.14,0,.14.08,0,.07.09,0-.19,0,0,0,0,0-.14,0-.05-.07s.16,0,.15,0-.06,0-.1,0h-.05c-.11,0,0,0-.11,0,.08,0-.07,0,.11-.09l.14,0a1,1,0,0,0-.22,0l.06,0c-.21.06,0,0-.16,0,.06,0,0-.08.11-.14-.07,0-.16,0-.12-.05a.2.2,0,0,0,.08,0c.06,0,0,0,0,0a1.07,1.07,0,0,0,.19-.11.75.75,0,0,0-.26.05c.2-.08-.16,0,0-.12a.25.25,0,0,0,.16,0c.2-.08-.17,0-.08-.07l-.17.06c.1-.05-.12,0,.06-.07-.07,0,.05-.06-.12,0,.12-.11-.13-.13.16-.25,0,0,0,0-.09,0s.07,0,0,0-.06,0-.08,0,0,0,.19-.07-.31,0-.25,0,.09,0,.08,0h-.13s.15-.06.27-.1,0,0-.12,0l.15-.07c-.11.05-.08,0-.11,0h0s0,0,0,0a.29.29,0,0,0-.11.07c-.06,0-.05,0-.11,0,.11,0,.07-.06.08-.08s-.11,0-.11,0,0,0,.09-.05-.05,0,0,0,.15-.05.07-.06-.23.07-.17,0l.12,0,.06-.05-.11,0h.05c-.12,0-.05,0-.18,0s.07-.06.07-.08h0c.06,0,0,0-.06,0h0s0,0-.09,0,.41-.12.26-.11-.21,0-.27.05-.13-.07,0-.17a.18.18,0,0,1-.1,0c0-.08-.17-.1,0-.22,0,0,.1,0,.16-.05-.1,0,.1-.05-.07,0a.62.62,0,0,0-.18.08c-.06,0-.08-.09,0-.14a.2.2,0,0,1-.1,0c.15,0,.17-.08.11-.08l-.1,0,.09,0s-.19.05-.11,0l.1,0c-.09,0-.23,0-.16,0l.13-.07s-.1,0-.13,0a.46.46,0,0,1,.18-.15c-.31,0-.35-.09-.36-.18l.07,0c.06-.05-.13,0-.08,0s.14-.06.22-.07-.13,0-.17,0,.06,0-.05,0,.05-.06-.09,0l.22-.06h-.08c.16-.07.31,0,.5-.12h0c.14-.06.18,0,.21-.06a1,1,0,0,0-.34.08c-.05,0-.33.08-.34,0s0,0,.15,0-.08,0-.05-.06a.49.49,0,0,1-.22.06c.06-.05.14,0,.14-.07s-.15,0-.2.05,0-.05-.1,0c.12-.05.3-.06.35-.11-.12,0-.18,0-.35.08a.42.42,0,0,1,.2-.07c.07-.05-.24,0,0-.06l-.12,0,.13-.07s-.19,0,0-.06c0,0,0,0-.15,0s.1,0-.07.07c.14-.06,0,0-.08,0l.07,0s0,0-.1,0l.1,0-.11,0c-.07,0,.19-.07.15-.09h.1s.08-.05,0-.05l-.32.07s.12,0,0,0h.13s.16-.07.15-.1a.36.36,0,0,0-.24.06s.05-.05.12-.07-.11,0-.18,0l.25-.15.18,0h0c.15,0,.1-.05.25-.08s0,0-.08,0c-.21.11-.32.06-.53.14s.5-.2.16-.14c-.06,0-.22.05-.15.06s-.22.05-.15,0,.21-.09.35-.09c-.07,0,0,0,0,0s.21-.06.2-.09,0,0-.14,0,0,0-.11.05.13-.09-.09,0c0,0-.09.07-.18.09h-.06l.09,0c0-.06-.15,0-.15,0l.15-.07c.14,0,0,.08.18,0,0,0-.11,0-.06-.05h.05s.29-.12.11-.11a.64.64,0,0,0-.17,0s-.12,0-.15,0c.17,0,0-.05.18-.08-.09.05-.06.11.1.08s0,0,.18,0c0,0,.18-.1.3-.14s-.05,0-.07,0l-.23.09c0-.05-.06-.07-.18-.06a.41.41,0,0,1,.19-.05.12.12,0,0,1,0-.15c-.18.09-.06,0-.21,0a.57.57,0,0,1-.26.12s.09,0,.12,0,.16-.09,0-.05c.08,0,.24-.07.39-.11-.1,0,.1,0,.09-.07a.52.52,0,0,1-.21,0c.13-.09,0-.11,0-.15s.24-.09.26-.12-.18.08-.11,0h0s.09-.11-.15,0l.18-.05s0,0-.05,0a.53.53,0,0,1,.16,0c.11-.07,0,0-.05-.07l-.11.05c-.09,0,0-.08-.05-.11l.11,0h-.08c.11,0,.17-.07.08-.06l.28,0c-.06,0-.14,0-.24.07s0,.07.06,0,0,0-.06,0a1.08,1.08,0,0,1,.25-.05s0,0,0,0,.09,0,.1,0-.09,0-.13.05c.13,0,.18,0,.15,0s.12,0,.09.08a1.41,1.41,0,0,1-.31,0c-.06.05,0,0,0,.07a1.39,1.39,0,0,1,.32,0l-.1,0c.06,0,.2,0,.19,0a.31.31,0,0,0,0,.19l-.1,0c.21,0,.1.06.21.07-.08.09.13.1,0,.18.11.08.21.15.21.27l-.14,0c.11,0-.08,0-.05,0s.15,0,.24,0c-.09.08.05.1.16.12l-.1,0c.2,0,.05.09,0,.15s-.12.06-.11.07a.74.74,0,0,1,.27,0,.18.18,0,0,1-.06.15c.26.05.15.21.32.3l-.11,0c.28.05.11.26.26.33l-.2,0c-.05.05.08.06.21,0-.05.05.12.05,0,.12s.1,0,.13,0,0,.1,0,.16v0a.23.23,0,0,0-.14.05c.06,0,0,.1.2,0-.12.11.15.13,0,.25.06,0,.08,0,.13,0s-.1.16,0,.17c0,0-.12,0-.12,0s.09,0,.13,0-.07.23,0,.3.15.3.21.44h-.05c.19,0-.15.17.13.13,0,0,0,.06-.1.07.14,0-.09.15.09.16h0c-.09.09.06.1,0,.18h-.09c-.08.05.21,0,0,.07,0,0,.12,0,.11,0s.13.26.22.38c-.11.14-.38.11-.19.14-.05,0,.08,0,0,0s-.24.11-.12.1a.86.86,0,0,1,.17,0c-.08.09-.2.13-.08.15l-.08,0c.23,0,.13.09.38.08.13.3.34.57.44.87a3.1,3.1,0,0,1,.14.92c-.18.12-.17.12-.07.18h-.07c.16,0,0,.06.18,0a1.43,1.43,0,0,0,.09.34s-.15,0-.14,0h.06a.3.3,0,0,0,.16,0c.2.27-.06.62,0,.91,0,.08,0,.17.08.24-.18.26-.32.49-.13.69A1.45,1.45,0,0,1,429.94,299.39Z" transform="translate(-387.95 -261.16)"/><path class="cls-5" d="M427.51,289.78a.91.91,0,0,1-.22.09Z" transform="translate(-387.95 -261.16)"/><path class="cls-5" d="M426.92,290.7s0,0,0,0-.07,0,0,0S426.89,290.71,426.92,290.7Z" transform="translate(-387.95 -261.16)"/><path class="cls-5" d="M426.93,290.88a.21.21,0,0,1-.15,0Z" transform="translate(-387.95 -261.16)"/><path class="cls-5" d="M426.69,291.13c-.05,0-.08,0-.09,0Z" transform="translate(-387.95 -261.16)"/><path class="cls-5" d="M426.86,291.09s0,0-.08.05S426.74,291.12,426.86,291.09Z" transform="translate(-387.95 -261.16)"/><path class="cls-5" d="M426.76,291.49s.07,0,0,0S426.66,291.52,426.76,291.49Z" transform="translate(-387.95 -261.16)"/><path class="cls-5" d="M426.92,291.61s0,0,0,0a.18.18,0,0,1-.09,0Z" transform="translate(-387.95 -261.16)"/><polygon class="cls-5" points="40.1 33.25 40.06 33.24 40.13 33.22 40.1 33.25"/><path class="cls-5" d="M428.39,295.67c.05,0-.07,0-.08,0S428.4,295.69,428.39,295.67Z" transform="translate(-387.95 -261.16)"/><polygon class="cls-5" points="40.96 35.12 40.96 35.11 41.1 35.08 40.96 35.12"/><path class="cls-5" d="M410.19,290.15s-.12,0,0,0S410.23,290.16,410.19,290.15Z" transform="translate(-387.95 -261.16)"/><path class="cls-5" d="M407.6,300.6c-.38-.14,0-.31-.23-.46,0,0,.21,0,.16,0-.3-.14-.12-.37.12-.53h.06s-.16-.07-.13-.11h.11c-.12,0-.05-.07-.14-.08a1.25,1.25,0,0,0,.19,0l-.13,0c-.32-.07,0-.13-.14-.21a.27.27,0,0,0,.09,0c-.19-.12-.15-.27-.21-.41a.59.59,0,0,0,.19,0c-.14,0-.18-.06-.2-.09.14,0-.13-.07,0-.11h0c-.15,0,.09,0-.09-.07l.11,0c-.2,0,.11,0,0-.07h0c-.05,0,.05,0,0-.06h0c-.05-.06.06-.08-.1-.09.13,0,.06.06.24,0a.67.67,0,0,1-.09-.54.35.35,0,0,1,.14,0s0-.06-.1-.09h.09c.07,0-.17-.05-.09-.08a.33.33,0,0,0,.15,0c-.12,0-.1-.08-.14-.12a.2.2,0,0,0,.09,0c-.13,0,0-.07,0-.11l.09,0c.11,0-.19,0-.12-.07l.1,0c-.17-.06-.1-.13-.16-.18h0s0-.1,0-.16.22,0,.19,0-.06-.1-.28-.09c0,0,.12-.1.06-.14s.23,0,.24.05l.11,0c.08,0,0,0,.07,0s-.07-.08,0-.09-.31-.1-.33-.16.2,0,.23,0l-.34-.12s.15,0,.1,0a.42.42,0,0,1-.12,0s0-.08.15-.07,0,0,.1,0-.06-.05-.06-.08h0s-.07-.07-.17-.06.11,0,.05,0-.12-.07-.12-.1l.13,0a.58.58,0,0,1-.23-.18c-.08,0,.16,0,.11,0,.13,0-.15-.16,0-.18l-.09,0s.14,0,.09,0,0,0,0-.05,0,0,.05,0-.16-.18,0-.23c-.05,0-.17-.07-.16-.09l.11,0c.07,0,0-.05.1,0-.13-.06.09.15,0,.09.09,0-.17-.1,0-.06,0,0-.12-.09,0-.1s.15.06.15,0-.05,0-.08-.06l0,0c-.11,0,0,0-.11-.05.09,0,0-.07.14,0l.14,0s-.14-.06-.2-.09h.06c-.21-.05,0,0-.13-.1.08,0,0-.1.16-.09-.06,0-.13-.09-.08-.11l.07,0c.07,0,0,0,0-.05a1.12,1.12,0,0,0,.22,0,.85.85,0,0,0-.24-.08c.22,0-.12-.11.08-.1,0,0,.09.06.15,0,.22,0-.14-.09,0-.11l-.18,0c.12,0-.08-.09.1,0-.07,0,.07,0-.11-.08.17,0,0-.2.28-.17,0,0,0,0-.08,0s.06,0,0,0l-.07,0s.06,0,.2,0-.28-.13-.2-.18.1,0,.09,0l-.11-.07s.17,0,.29.05,0-.05-.09-.09l.16,0c-.11,0-.07,0-.09-.06l0,0c.06,0,0,0,0,0a.2.2,0,0,0-.14,0c-.05,0,0,0-.09-.08.12,0,.1,0,.11,0s-.1-.06-.09-.06,0,0,.1,0-.06,0,0,0,.15,0,.08,0-.23-.06-.15-.08l.12.05.07,0-.11,0h.05c-.11,0,0-.07-.14-.11s.08,0,.1,0h0c.07,0,0,0,0-.08h0s0-.05-.05-.08c.09,0,.4.11.28,0s-.18-.11-.25-.12c.09,0-.07-.15.12-.14l-.09,0c.06-.07-.07-.22.16-.21,0,0,.1,0,.16.06s.11,0,0-.05a.44.44,0,0,0-.19,0c0-.07,0-.14.09-.14a.13.13,0,0,1-.1,0c.15.06.18,0,.14,0l-.09,0,.1,0s-.19-.08-.09-.08l.1,0c-.07-.06-.18-.14-.09-.14l.14,0a.16.16,0,0,0-.13-.06.42.42,0,0,1,.25,0c-.25-.19-.21-.33-.15-.42l.06,0c.08,0-.11-.06,0-.06a1.71,1.71,0,0,1,.22.09c.08,0-.1-.1-.12-.14s.05.05-.06,0,.09,0,0-.09a.88.88,0,0,1,.2.09l-.05,0c.17,0,.25.18.45.23v0c.15,0,.14.12.21.09a1,1,0,0,0-.31-.16c0-.06-.31-.15-.28-.2s0,.05.12.09,0-.08,0-.08a.38.38,0,0,1-.21-.11c.08,0,.12.07.15,0s-.12-.1-.18-.09.06,0-.06-.1c.12,0,.26.16.34.15-.12-.05-.14-.12-.32-.18a.59.59,0,0,1,.2.08c.08,0-.19-.15,0-.05l-.12-.06.15,0s-.14-.14,0-.06c0,0,0-.06-.12-.1s.08.08-.1,0c.15,0,0-.05,0-.09l.07,0s0,0-.07-.08a.3.3,0,0,0,.11,0l-.11-.06c0-.06.2.08.18,0l.07.07s.09,0,.07,0l-.28-.16c0-.05.12,0,0,0l.1.08s.17.06.18,0a.44.44,0,0,0-.21-.13s.07,0,.14,0-.11-.05-.15-.1l.28.05.14.11v0c.12.09.11,0,.24.11s0,0,0-.07c-.24-.07-.28-.19-.48-.28,0-.08.5.21.22,0-.06,0-.2-.12-.16-.06s-.18-.12-.08-.12.21.07.31.17c-.06,0-.06,0-.05,0s.2.1.22.07,0-.06-.1-.11,0,0-.12,0,.16,0,0-.1c0,0-.12,0-.19-.06l0-.05.07,0c.08,0-.13-.08-.08-.12l.16.05c.12.08-.1,0,.11.14,0,0-.07-.09,0-.09l0,0s.29.13.15,0-.07,0-.14-.08-.07-.12-.06-.16,0-.05.18.07c-.1,0-.13,0,0,.14s-.05,0,.13.13c0,0,.2.06.32.11l-.05,0a1.51,1.51,0,0,0-.22-.11s0-.1-.07-.18a.29.29,0,0,1,.16.1.16.16,0,0,1,.1-.15c-.19-.06,0-.07-.16-.14a.43.43,0,0,1-.26-.1s.07.05.11.06.17.05,0-.05c0,.08.2.13.33.21-.06-.07.1.06.12,0a.53.53,0,0,1-.11-.21c.16,0,.08-.11.1-.16s.22.13.26.12-.17-.08-.08-.07l0,0s.14,0-.06-.15l.15.11s0,0,0-.05a1.16,1.16,0,0,1,.14.09c.12.05,0-.06,0-.09l-.1,0c-.05-.09.06-.06.06-.13l.09.06,0-.06c.09.06.16.08.09,0l.19.21c-.07,0-.1-.09-.2-.14s-.09,0,0,.08,0,0,0-.06c.14.08.12.1.2.17s0,0,0,0,.06.08,0,.11-.08,0-.12-.07c.12.07.14.12.09.13s0,.11,0,.12a1.13,1.13,0,0,1-.22-.21c-.07,0,0,0-.09,0a1.44,1.44,0,0,1,.25.22l-.09-.05c0,.05.16.13.11.15s-.11.1-.15.14l-.09-.05c.17.13,0,.12.09.21-.12,0,0,.17-.16.12a.48.48,0,0,1-.06.36l-.12-.09c.08.07-.09,0-.08,0s.13.09.2.15c-.13,0,0,.11,0,.2l-.09,0c.14.13,0,.1-.09.15s-.13,0-.13,0a.57.57,0,0,1,.19.2.19.19,0,0,1-.14.08c.15.21,0,.27,0,.45l-.12,0c.19.21-.08.28,0,.43l-.19-.08c-.07,0,0,.1.16.14-.07,0,.06.12-.1.08s.07.07.09.11-.09.07-.08.15h0a.3.3,0,0,0-.14,0c.05,0-.08.07.16.13-.16,0,.05.19-.15.2.07,0,.07,0,.11.06s-.16.08-.07.16-.1,0-.12,0,.08,0,.11.05-.18.17-.17.27,0,.34-.05.51l-.05,0c.17.1-.21.08.05.19,0,0,0,0-.12,0,.12.07-.15.09,0,.19s0,0,0,0,0,.12-.1.17a.12.12,0,0,0-.08,0c-.09,0,.19.1,0,.07l.11,0c-.12.12,0,.31,0,.47-.16.08-.39-.07-.23.05-.05,0,.08,0,0,0s-.27,0-.15.05.07,0,.16.05c-.1,0-.23,0-.13.11l-.08,0c.2.1.08.15.32.24,0,.34.09.69.07,1a4.16,4.16,0,0,1-.15,1c-.21.06-.2.07-.13.16h-.07c.17,0,0,.06.17.08a1.15,1.15,0,0,0,0,.37s-.15,0-.14,0l.1,0h-.05a.21.21,0,0,0,.16,0c.12.33-.21.63-.18.95-.07.07,0,.18,0,.26-.22.24-.4.46-.25.71C408.12,300.73,407.7,300.7,407.6,300.6Z" transform="translate(-387.95 -261.16)"/><path class="cls-5" d="M410.17,290.2a.62.62,0,0,1-.2-.12Z" transform="translate(-387.95 -261.16)"/><path class="cls-5" d="M409.05,290.42H409s-.05-.06,0,0Z" transform="translate(-387.95 -261.16)"/><path class="cls-5" d="M408.91,290.57a.15.15,0,0,1-.09-.13Z" transform="translate(-387.95 -261.16)"/><path class="cls-5" d="M408.55,290.6c-.06,0-.09,0-.08-.05S408.52,290.58,408.55,290.6Z" transform="translate(-387.95 -261.16)"/><path class="cls-5" d="M408.69,290.69s-.05,0-.09,0S408.58,290.63,408.69,290.69Z" transform="translate(-387.95 -261.16)"/><path class="cls-5" d="M408.31,291s0,.06,0,0S408.21,290.91,408.31,291Z" transform="translate(-387.95 -261.16)"/><path class="cls-5" d="M408.32,291.19s0,0,0,0a.12.12,0,0,1-.08,0Z" transform="translate(-387.95 -261.16)"/><polygon class="cls-5" points="19.5 33.45 19.47 33.43 19.54 33.45 19.5 33.45"/><path class="cls-5" d="M407.17,296.1s-.07,0-.08,0S407.18,296.13,407.17,296.1Z" transform="translate(-387.95 -261.16)"/><polygon class="cls-5" points="19.48 35.8 19.47 35.79 19.62 35.81 19.48 35.8"/><rect class="cls-6" x="0.5" y="0.5" width="59.42" height="59.42"/><rect class="cls-7" x="0.28" y="60.25" width="60.01" height="10.4"/><rect class="cls-8" x="50.1" y="60.25" width="10.67" height="10.4"/><path d="M441.17,330.08v-.94l.84-.76c1.46-1.3,2.16-2.05,2.17-2.82,0-.54-.31-1-1.08-1a2.46,2.46,0,0,0-1.41.54l-.44-1.1a3.67,3.67,0,0,1,2.16-.68,2.05,2.05,0,0,1,2.32,2.07,4.11,4.11,0,0,1-1.76,2.86l-.61.51v0h2.5v1.27Z" transform="translate(-387.95 -261.16)"/></svg>