<svg id="Layer_1" data-name="Layer 1" xmlns="http://www.w3.org/2000/svg" viewBox="0 0 60.48 70.65"><defs><style>.cls-1,.cls-4{fill:#12100b;}.cls-2,.cls-5{fill:#fff;}.cls-3,.cls-7{fill:none;}.cls-4,.cls-5{fill-rule:evenodd;}.cls-6{fill:#1d1d1b;}.cls-7{stroke:#1d1d1b;}.cls-8{fill:#bfbfbf;}.cls-9{fill:#f2f2f2;}</style></defs><path d="M442.28,294.65a25.39,25.39,0,0,0,1-7.64c-.44,3.88-1.77,7.2-2.65,10.38-1.16,4.15-2.49,8.7-4.83,11.5-2.65,3.18-8.32,8.24-12.22,9.66-4.48,1.64-7.89-.27-11.17-2.15a29.86,29.86,0,0,1-12.12-12.15c-1.24-2.22-2.71-5-2.65-7.05-2-2.92-2.11-7.74-3.41-11.36A53.38,53.38,0,0,0,397,299.35a39.51,39.51,0,0,0,7.57,11.76,42.34,42.34,0,0,0,3.33,3.26c1.3,1,2.81,1.45,4.24,2.61a9.1,9.1,0,0,0,2.84,2c6.48,2.38,11.8-1.05,15.53-3.92,6.95-5.33,9.32-11.52,9.85-13.51C441,299.29,442.14,295,442.28,294.65Z" transform="translate(-388.1 -261.16)"/><path d="M394.47,287.63c0-3.28-1.15-6.56-1-10" transform="translate(-388.1 -261.16)"/><path d="M394.54,283.85a50.78,50.78,0,0,0-.42-7.4c-.24-1.48-.51-3-.62-4.46l0,.27,0-.46c0-.07,0-.13,0-.19q-.25-6.81,0,13.25c.11-3.07.06-6.15,0-9.22,0-1.5,0-3,0-4.48l0-.76c0-.36,0-.36,0,0-.09,2.59-.07,5.2-.07,7.79s0,5.07.06,7.61c0,.92.11,1.84.23,2.75.24,1.78.61,3.54.76,5.33l0-.27,0,.45c0,.06,0,.12,0,.18q.06,1.58,0-2.82c0,1.13,0,2.3,0,3.44.06,1,.07-1.21.06-.75.06-3.42.05-6.85,0-10.26Z" transform="translate(-388.1 -261.16)"/><path d="M442.79,292.85c.29-3,1.44-5.91,1.73-9,.14-2,0-4.28.14-6.41.29-4.28.87-9.7.44-13.8" transform="translate(-388.1 -261.16)"/><path class="cls-1" d="M408,280.34c.06,1.44.52,2.67,2.23,2.89s2.35-1.72,2.11-3.16" transform="translate(-388.1 -261.16)"/><path class="cls-2" d="M409.42,280.62c-1-.3-.76,1.13-.17,1.18s.64-1.18.53-1.53" transform="translate(-388.1 -261.16)"/><path class="cls-3" d="M409.42,280.62c-1-.3-.76,1.13-.17,1.18s.64-1.18.53-1.53" transform="translate(-388.1 -261.16)"/><path class="cls-1" d="M409.41,280.65s0,0,0,0Z" transform="translate(-388.1 -261.16)"/><path class="cls-1" d="M409.77,280.32c.05,0,0,.1.05.15s0,0,0,0,0,.13,0,.18h0s0,0,0,0h0l0,0h0s0,0,0,.07h0a.32.32,0,0,1,0,.14h0s0,0,0,0,0,0,0,0h0s0,0,0,0h0s0,0,0,0h0s0,0,0,0,0,0,0,0a.34.34,0,0,1,0,.18h0v0h0s0,0,0,0h0s0,0,0,0h0s0,0,0,0h0s0,0,0,0h0s0,0,0,.06h0l0,0h0s0,0,0,0,0,0,0,0,0,0,0,0h0s0,0,0,0v0s0,.05,0,.06l0,0,0,.05h0a0,0,0,0,1,0,0h0l0,0h0s0,0,0,0,0,0,0,0l0,0v0l0,.06s0,0,0,0,0,0-.06,0h0s0,0,0,0h0a.1.1,0,0,1-.08,0v0h0s0,0,0,0,0,0,0,0,0,0,0,0v0s0,0,0,0h0v0s0,0,0,0v0l0,0h0s0,0,0,0,0,0,0,0h0v0l0,0s0,0,0,0,0,0,0,0,0,0,0,0v0s0,0,0,0,0,0,0,0-.06,0,0-.08h0s0,0,0,0,0,0-.05,0h0s0,0,0,0h0v0s0,0,0,0h0v0h0s0,0,0,0h0s0,0,0,0,0,0,0,0h0v0h0v0h0s0,0,0,0h0l0,0s.05,0,0,0,0,0,0,0,0,0,0-.06h0s0-.06,0-.09h0s0,0,0,0h0s0,0,0,0h0s0,0,0,0h0s0,0,0,0h0s0,0,0,0h0l0,0s0-.08,0-.12h0s0,0,0,0h0s0,0,0,0h0s0,0,0,0h0s0,0,.06,0h0s0,0,0,0,0,0,0,0,0,0,0,0,0,0,0,0,0,0,0,0l0,0h0s0,0,0,0,0,0,0,0,0,0,.05,0,0,0,0,0h0s0,0,0,0h0s0,0,0,0,0,0,0,0,0,0,0,0,0,0,0,0h0v0h0s0,0,0,0h0l0,0s0,0,0,0v0h0s0,0,0,0h0v0h0v0h0l0,0h0s0,0,0-.06,0,.05,0,0,0,0,0,0,0,0,0,0,0,0,0,0h0s0,0,0,0,0,0,0,0,0,0,0,0,0,0,0,0,0,0,0,0h0s0,0,0,0v0s0,0,0,0l0,0h0s0,0,0,0v0l0,0s0,0,0,0a0,0,0,0,0,0,0s0,0,0,0,0,0,0,0h0v0l0,0v0a0,0,0,0,1,.05,0s0,0,0,0,0,0,0,0v0s0,0,0,0,0,0,0,.05,0,0,0,0l0,0s.05,0,.06,0v0s0,0,0,0h0s0,0,0,0v0h0v0s0,0,0,0v0s0,0,0,0h0s0,0,0,0l0,0v0s0,0,0,0h0l0,0h0s0,0,0,0,0,0,0,0l0,0h0l0,0v0s0,0,0,0h-.07s0,0,0,0,0,0-.05,0l-.09.05v0s0,0,0,0,0,0,0,0,0,0,0,0h0s0,0,0,0h0v0l0,0a.25.25,0,0,0,0,.12h0c0,.05,0,.09,0,.13h0s0,0,0,0,0,0,0,0l0,0v.06h0s0,0,0,0,0,0,0,.07h0s0,.05,0,.06h0s0,.07,0,.09l.1.11h0s0,.05,0,0v0s0,0,0,0h0s0,0,0,0h0s0,0,0,0h0a.09.09,0,0,0,.11,0s0,.05,0,0h0s0,0,0,0v0s0,0,0,0h0s0,0,0-.05a.61.61,0,0,0,.15-.23c.06-.07.06-.19.11-.28s0,0,0-.05h0s0,0,0,0v-.12h0c0-.11,0-.21,0-.32a.24.24,0,0,0,0-.08.26.26,0,0,0,0-.23S409.75,280.29,409.77,280.32Z" transform="translate(-388.1 -261.16)"/><path class="cls-1" d="M409.39,280.65s0,0,0,0Z" transform="translate(-388.1 -261.16)"/><polygon class="cls-1" points="21.05 19.35 21.05 19.35 21.05 19.34 21.05 19.35"/><path class="cls-1" d="M409.08,280.51l0,0Z" transform="translate(-388.1 -261.16)"/><path class="cls-1" d="M409,280.5h0Z" transform="translate(-388.1 -261.16)"/><path class="cls-1" d="M409,280.52h0Z" transform="translate(-388.1 -261.16)"/><path class="cls-1" d="M408.84,280.56h0S408.83,280.55,408.84,280.56Z" transform="translate(-388.1 -261.16)"/><polygon class="cls-1" points="20.7 19.47 20.69 19.48 20.69 19.47 20.7 19.47"/><polygon class="cls-1" points="20.91 20.63 20.91 20.63 20.91 20.62 20.91 20.63"/><path class="cls-1" d="M409.53,281.78h0Z" transform="translate(-388.1 -261.16)"/><polygon class="cls-1" points="21.59 20.37 21.59 20.38 21.57 20.37 21.59 20.37"/><path class="cls-2" d="M410.54,282a.69.69,0,0,0,1.06.89c.64-.59-.12-1.48-.94-1" transform="translate(-388.1 -261.16)"/><path class="cls-3" d="M410.54,282a.69.69,0,0,0,1.06.89c.64-.59-.12-1.48-.94-1" transform="translate(-388.1 -261.16)"/><path class="cls-1" d="M410.56,282s0,0,0,0Z" transform="translate(-388.1 -261.16)"/><path class="cls-1" d="M410.72,281.9c0-.06.1,0,.14-.08s0,0,0,0,.12-.06.19,0h0s0,0,0,0h0v0s.05,0,.08,0h0s.1,0,.15,0v0h0s0,0,0,0h0s0,0,0,0v0s0,0,0,0h0l0,0h0s0,0,0,0,0,0,0,0a.62.62,0,0,1,.17.11v0l0,0v0s0,0,0,0h0l0,0h0s0,0,0,0h0s0,0,0,0h0s0,0,.05,0h0l0,.05s0,0,0,0,0,0,0,0v.05s0,0,0,0v0h0v0a.1.1,0,0,1,.05,0h0l0,0h0s0,0,0,0h0v0h0s0,0,0,0,0,0,0,0v0h0v.07s0,0,0,0,0,.06,0,.07h0v0h0a.09.09,0,0,1-.05.07v0h0s0-.05,0,0,0,0,0,0,0,0,0,0h0v0h0s0,0,0,0,0,0,0,0v0h0s0,0,0,0,0,0,0,0l0,0h-.05v0s0,0,0,0,0,0,0,0,0,0,0,0h0s0,0,0,0,0,0,0,0-.06.05-.09,0h0s0,0,0,0,0,.05,0,.05h0v0s0,0,0,0l0,0,0,0s0,0,0,0h0v0s0,0,0,0v0h0s0,0,0,0,0,0,0,0v0h0l0,0h0l0,0h0l0,0s0-.05,0,0,0,0,0,0-.05,0-.07,0h0s-.07,0-.09,0v0h0v0s-.05,0-.06,0v0s0,0,0,0h0s0,0,0,0h0s0,0,0,0v0h0s0,0,0-.05a.18.18,0,0,1-.13,0h0s0,0,0,0l0,0s0,0,0,0h0s0,0,0,0l0,0h0s.05,0,.06,0h0s0,0,0,0l0,0s0,0-.05,0,0,0,0,0,0,0,0,0,0,0,0,0,0,0,0,0,0,0,0,0,0,0,0,0,0,0,0,0,0,0-.05,0l0,0s0,0,0,0h0v0s0,0,0,0,0,0,0,0,0,0,0,0,0,0,0,0h0s0,0,0,0h0v0h0s0,0,0,0h0v0h0s0,0,0,0l0,0h.05v0s0,0-.07,0,.06,0,0-.05,0,0,0,0,0,0,0,0,0,0,0,0h0l0,0,0,0s0,0,0,0,0,0,0,0l0,0v0h0s0,0,0,0h0s0,0,0,0,0,0,0,0v0s0,0,0,0h0l0-.05s0,0,0,0,0,.05,0,.05,0,0,0,0,0,0,0,0h0s0,0,0-.05h0v-.07s0,0,0,0,0,0,0,0h0s0,0,0,0,0,0,.05,0,0,0,0,0l0-.05a.07.07,0,0,0,0-.07h0s0,0,0,0h0s0,0,0,0h0s0,0,0,0h0l0-.05h0v0h0v0l0,0a0,0,0,0,0,0,0v0s0,0,0,0h0v0h0a0,0,0,0,1,0,0s0,0,0,0l0,0h0l0,0h0s0,0,0,0a.09.09,0,0,0,0,.06h0s0,0,0,.06,0,0,0,.06a.69.69,0,0,0,0,.13h0s0,0,0,0,0,0,0,0,0,0,0,.05h0s0,0,0,.05v0l0,0,0,.05c.05,0,.06.07.1.1h0s.09.06.13.07l0,0s0,0,0,0,0,0,0,0h0s0,0,.05,0h0s0,0,0,0,.06,0,.08,0h0s.05,0,.06,0v0s.07,0,.1,0,.11,0,.15-.07h0s.05,0,.05,0a0,0,0,0,1,0,0s0,0,0,0h0l.06,0h0s0,0,0,0h0c.05,0,.06-.09.09-.14s0,0,0,0h0s0,0,0,0l0,0s0,0,0,0h0a.12.12,0,0,0,0-.08.44.44,0,0,0,0-.3.53.53,0,0,0-.18-.24s0,0,0,0h0s0,0,0,0-.08,0-.11,0,0,0,0,0h0v0a.59.59,0,0,0-.3,0s-.06,0-.08,0a.39.39,0,0,0-.24.06A.1.1,0,0,1,410.72,281.9Z" transform="translate(-388.1 -261.16)"/><path class="cls-1" d="M410.56,282.05h0Z" transform="translate(-388.1 -261.16)"/><polygon class="cls-1" points="22.25 21.13 22.25 21.13 22.25 21.12 22.25 21.13"/><path class="cls-1" d="M410.34,282.37v0Z" transform="translate(-388.1 -261.16)"/><path class="cls-1" d="M410.3,282.45h0Z" transform="translate(-388.1 -261.16)"/><path class="cls-1" d="M410.32,282.45v0S410.31,282.45,410.32,282.45Z" transform="translate(-388.1 -261.16)"/><path class="cls-1" d="M410.32,282.63v0S410.31,282.63,410.32,282.63Z" transform="translate(-388.1 -261.16)"/><polygon class="cls-1" points="22.26 21.55 22.27 21.55 22.25 21.55 22.26 21.55"/><polygon class="cls-1" points="23.41 21.88 23.41 21.89 23.4 21.88 23.41 21.88"/><path class="cls-1" d="M411.87,282.57h0Z" transform="translate(-388.1 -261.16)"/><polygon class="cls-1" points="23.73 21.09 23.74 21.09 23.72 21.09 23.73 21.09"/><path class="cls-1" d="M426.7,280c.06,1.44.53,3.17,2.23,3.4s2.35-1.73,2.11-3.17" transform="translate(-388.1 -261.16)"/><path class="cls-2" d="M428.11,280.74c-1-.29-.77,1.14-.18,1.19s.65-1.19.53-1.53" transform="translate(-388.1 -261.16)"/><path class="cls-3" d="M428.11,280.74c-1-.29-.77,1.14-.18,1.19s.65-1.19.53-1.53" transform="translate(-388.1 -261.16)"/><path class="cls-1" d="M428.09,280.77h0Z" transform="translate(-388.1 -261.16)"/><path class="cls-1" d="M428.45,280.45c.05,0,0,.1.06.14s0,0,0,0a.17.17,0,0,1,0,.18h0s0,0,0,0h0l0,0,0,0h0s0,.05,0,.07h0a.32.32,0,0,1,0,.14h0s0,0,0,0,0,0,0,0h0s0,0,0,0h0s0,0,0,0h0v0h0s0,0,0,0,0,0,0,0a.37.37,0,0,1,0,.18h0v0h0s0,0,0,0h0s0,0,0,0h0s0,0,0,0h0s0,0,0,0h0s0,0,0,.06h0l0,0s0,0,0,0,0,0,0,0,0,0,0,0,0,0,0,0h0s0,0,0,0v0a.07.07,0,0,1,0,.06l0,0v.05h0v0s0,0,0,0h0v0h0a0,0,0,0,0,0,0s0,0,0,0l0,0h0l0,.06s0,0,0,0,0,0-.06,0v0h0s-.05,0-.07,0l0,0v0s0,0,0,0,0,0,0,0,0,0,0,0,0,0,0,0v0h0v0s0,0,0,0h0l0,0h0s0,0,0,0,0,0,0,0,0,0,0,0h0v0l0,0s0,0,0,0,0,0,0,0,0,0,0,0v0s0,0,0,0,0,0,0,0-.06,0,0-.08h0s0,0,0,0h0l0,0s0,0-.05,0h0s0,0,0,0h0v0a0,0,0,0,1,0,0h0v0h0s0,0,0,0h0v0h0s0,0,0,0,0,0,0,0h0v0h0s0,0,0,0h0s.05,0,0,0h0s0,0,0-.06h0s0-.06,0-.09h0s0,0,0,0h0a.06.06,0,0,1,0-.06h0s0,0,0,0h0s0,0,0,0h0s0,0,0,0h0l0,0a.15.15,0,0,1,0-.13h0s0,0,0,0h0s0,0,0,0,0,0,0,0,0,0,0,0h0s0,0,.06,0h0s0,0,0,0l0,0s0,0,0,0,0,0,0,0,0,0,0,0a0,0,0,0,1,0,0s0,0,0,0,0,0,0,0,0,0,0,0,0,0,0,0,0,0,0,0h0s0,0,0,0h0s0,0,0,0,0,0,0,0,0,0,0,0,0,0,0,0h0v0h0v0s0,0,0,0v0h0l0,0s0,0,0,0v0h0s0,0,0,0,0,0,0,0v0h0v0h0s0,0,0,0h0s0,0,0-.07,0,.06,0,0,0,0,0,0,0,0,0,0,0,0,0,0h0l0,0s0,0,0,0,0,0,0,0,0,0,0,0a0,0,0,0,1,0,0v0s0,0,0,0h0s0,0,0,0l0,0h0s0,0,0,0v0l0,0s0,0,0,0,0,0,0,0,0,0,0,0,0,0,0,0h0v0l0,0v0a.06.06,0,0,1,.06,0s0,0,0,0a0,0,0,0,1,0,0v0s0,0,0,0,0,0,0,.05,0,0,0,0l0,0s.05,0,.07,0v0s0,0,0,0h0s0,0,0,0v0h0v0s0,0,0,0h0s0,0,.05,0v0h0l0,0v0h0l0,0h0v0s0,0,0,0,0,0,0,0l0,0h0l0,0h0s0,0,0,0l-.06,0h0s0,0,0,0,0,0-.06,0l-.09.06v0h0s0,0,0,0a0,0,0,0,0,0,0h0s0,0,0,0h0v0l0,0a.28.28,0,0,0,0,.13h0s0,.09,0,.12h0s0,0,0,0,0,0,0,0l0,0v0h0s0,0,0,0,0,.05,0,.08h0s0,0,0,.05h0s0,.06,0,.09l.1.11h0s0,.05,0,0v0s0,0,0,0h0s0,0,0,0h0s0,0,0,0v0c.05,0,.07,0,.11,0s0,.05,0,0h0s0,0,0,0v0s0,0,0,0h0s0,0,0-.05a.79.79,0,0,0,.16-.23c.06-.07.05-.19.1-.29s0,0,0-.05h0s0,0,0,0l0-.12h0c0-.1,0-.21,0-.31s0-.06,0-.09a.33.33,0,0,0,0-.22S428.43,280.42,428.45,280.45Z" transform="translate(-388.1 -261.16)"/><path class="cls-1" d="M428.07,280.78s0,0,0,0Z" transform="translate(-388.1 -261.16)"/><polygon class="cls-1" points="39.73 19.48 39.73 19.47 39.73 19.47 39.73 19.48"/><path class="cls-1" d="M427.76,280.64l0,0Z" transform="translate(-388.1 -261.16)"/><path class="cls-1" d="M427.68,280.62h0Z" transform="translate(-388.1 -261.16)"/><path class="cls-1" d="M427.68,280.65h0S427.68,280.63,427.68,280.65Z" transform="translate(-388.1 -261.16)"/><path class="cls-1" d="M427.52,280.69h0Z" transform="translate(-388.1 -261.16)"/><polygon class="cls-1" points="39.38 19.6 39.38 19.6 39.37 19.59 39.38 19.6"/><polygon class="cls-1" points="39.59 20.75 39.59 20.75 39.59 20.75 39.59 20.75"/><path class="cls-1" d="M428.22,281.9h0Z" transform="translate(-388.1 -261.16)"/><polygon class="cls-1" points="40.27 20.5 40.27 20.5 40.26 20.49 40.27 20.5"/><path class="cls-2" d="M429.22,282.13a.69.69,0,0,0,1.06.89c.65-.6-.12-1.49-.94-1" transform="translate(-388.1 -261.16)"/><path class="cls-3" d="M429.22,282.13a.69.69,0,0,0,1.06.89c.65-.6-.12-1.49-.94-1" transform="translate(-388.1 -261.16)"/><path class="cls-1" d="M429.25,282.15s0,0,0,0Z" transform="translate(-388.1 -261.16)"/><path class="cls-1" d="M429.4,282c0-.06.1,0,.14-.09s0,0,0,0,.12-.06.19,0h0s0,0,0,0h0l0,0v0s0,0,.07,0h0c.05,0,.1,0,.15,0v0a0,0,0,0,1,0,0s0,0,0,0h0s0,0,0,0h0s0,0,0,0h0s0,0,0,0,0,0,0,0a.48.48,0,0,1,.17.1v0l0,0h0s0,0,0,0h0l0,0h0s0,0,0,0h0s0,0,0,0h0s0,0,.05,0h0l0,.06s0,0,0,0,0,0,0,0v.06h0v0s.05,0,.06,0h0l.05,0h0s0,0,0,0h0v0h0s0,0,0,0,0,0,0,0v0h0l0,.07s0,0,0,0,0,.07,0,.08h0l0,0h0a.13.13,0,0,1,0,.07v0h0s0,0,0,0,0-.05,0,0,0,0,0,0,0,0,0,0,0,0,0,0v0s0,0,0,0,0,0,0,0h0v0h0s0,0,0,0,0,0,0,0l0,0h0v0h0l0,0s0,0-.05,0,0,0,0,0,0,0,0,0v0s0,0,0,0,0,0,0,0,0,.05-.08,0v0s0,0,0,0h0s0,0,0,0,0,0,0,0h0v0s0,0,0,0l0,0v0s0,0,0,0h0l0,0h0v0h0s0,0,0,0,0,0,0,0v0h0v0h0l0,0h0s0,0,0,0h0s0,0,0,0,0,0,0,0-.05,0-.07,0h0s-.07,0-.09,0v0s0,0,0,0v0l-.06,0h0s0,0,0,0h0v0s0,0,0,0v0s0,0,0,0v0s0,0,0,0l0-.05a.17.17,0,0,1-.13-.05h0l0,0s0,0,0,0,0,0,0,0,0,0,0,0l0,0h0s0,0,.05,0h0s0,0,0,0,0,0,0,0,0,0-.05,0h0s0,0,0,0,0,0,0,0,0,0,0,0h0s0,0,0,0,0,0,0,0,0,0-.05,0l0,0s0,0,0,0h0v0s0,0,0,0,0,0,0,0,0,0,0,0,0,0,0,0h0s0,0,0,0h0v0h0s0,0,0,0h0s0,0,0,0,0,0,0,0v0h0l0,0h0s0,0,0,0h0s0,0-.07,0,.06,0,0,0,0,0,0,0,0,0,0,0,0,0,0,0h0s0,0,0,0h0s0,0,0,0,0,0,0,0l0,0h0s0,0,0,0h0s0,0,0,0,0,0,0,0h0s0,0,0,0h0v-.05s0,0,0,0a0,0,0,0,0,0,.05s0,0,0,0,0,0,0,0h0a0,0,0,0,0,0-.05h0v-.07s0,0,0,0,0,0,0,0h0s0,0,0,0,0,0,.05,0,0,0,0,0v-.06s0-.05,0-.07h0s0,0,0,0h0s0,0,0,0l0,0h0s0,0,0,0h0l0-.05h0s0,0,0,0v0l0,0s0,0,0,0h0s0,0,0,0h0v0h0s0,0,0,0,0,0,0,0l0,0v0l0,0h0s0,0,0,0a.11.11,0,0,0,0,.07h0s0,0,0,.06,0,0,0,.07,0,.08,0,.12h0s0,0,0,0,0,0,0,0,0,0,0,.06h0s0,0,0,.06v0l0,0,0,0c.05,0,.06.07.1.1h0a.75.75,0,0,0,.12.07l0,0s0,0,0,0,0,0,0,0h0s0,0,0,0h0v0s0,0,0,0,.06,0,.08,0v0s0,0,.05,0h0s.07,0,.1,0,.11,0,.15-.06h0s.05,0,0-.05h0s0,0,.05,0h0l.05,0h0s0,0,0,0h0c.05,0,.06-.09.09-.13s0,0,0,0h0s0,0,0,0,0,0,0,0,0,0,0,0h0s0-.06,0-.08a.47.47,0,0,0,0-.31.66.66,0,0,0-.17-.24s0,0,0-.05h0s0,0,0,0l-.11,0h0v0a1,1,0,0,0-.3,0s-.06,0-.08,0a.38.38,0,0,0-.23.06S429.37,282.05,429.4,282Z" transform="translate(-388.1 -261.16)"/><path class="cls-1" d="M429.24,282.17s0,0,0,0Z" transform="translate(-388.1 -261.16)"/><polygon class="cls-1" points="40.94 21.25 40.93 21.26 40.93 21.25 40.94 21.25"/><path class="cls-1" d="M429,282.49v0Z" transform="translate(-388.1 -261.16)"/><path class="cls-1" d="M429,282.58h0Z" transform="translate(-388.1 -261.16)"/><path class="cls-1" d="M429,282.58h0Z" transform="translate(-388.1 -261.16)"/><path class="cls-1" d="M429,282.76s0,0,0,0S429,282.76,429,282.76Z" transform="translate(-388.1 -261.16)"/><polygon class="cls-1" points="40.95 21.67 40.95 21.68 40.94 21.68 40.95 21.67"/><polygon class="cls-1" points="42.09 22 42.09 22.02 42.09 22 42.09 22"/><path class="cls-1" d="M430.55,282.7h0Z" transform="translate(-388.1 -261.16)"/><polygon class="cls-1" points="42.42 21.21 42.42 21.21 42.4 21.22 42.42 21.21"/><path class="cls-4" d="M419,283.07c.31.08.2.59.57.6-.42,1.08-.28,3.25-.28,5.36,0,1.64.22,4.86-.29,4.17C419.25,289.68,418.09,286.2,419,283.07Z" transform="translate(-388.1 -261.16)"/><path class="cls-4" d="M406.63,282.76c-.67,1.08,5.38,2,8.29,1C412.2,283.36,408.54,284,406.63,282.76Z" transform="translate(-388.1 -261.16)"/><path class="cls-4" d="M433.82,283c-2-.25-5.22.88-8.78-.15C427.56,284.49,431.61,283.84,433.82,283Z" transform="translate(-388.1 -261.16)"/><path class="cls-4" d="M414.12,294.39c.41.77.5,1.87.85,2.69C414,296.56,413.75,295.68,414.12,294.39Z" transform="translate(-388.1 -261.16)"/><path class="cls-4" d="M425.49,294.69c.81.68,0,2.12-.57,2.39C424.11,296.4,425.89,295.93,425.49,294.69Z" transform="translate(-388.1 -261.16)"/><path class="cls-4" d="M417.82,297.08c-.67,0-.84-.52-1.71-.3C416.18,295.83,418,296.1,417.82,297.08Z" transform="translate(-388.1 -261.16)"/><path class="cls-4" d="M423.78,296.48c-.26.23-2.06,1-1.7,0C422.74,296.39,423.25,295.9,423.78,296.48Z" transform="translate(-388.1 -261.16)"/><path class="cls-4" d="M425.2,273.24c4.15-3,10.92.32,12.51,3.87C436.11,274.32,429.47,273.32,425.2,273.24Z" transform="translate(-388.1 -261.16)"/><path class="cls-4" d="M415.26,275.62c-2.5-.83-8.23-1.18-11.37.3-.62.29-1.88,1.27-1.7.6C404,273.55,413,271.76,415.26,275.62Z" transform="translate(-388.1 -261.16)"/><path class="cls-4" d="M407,278.3c3-1.43,7.36-.28,8.81,1.79A11.12,11.12,0,0,0,407,278.3Z" transform="translate(-388.1 -261.16)"/><path class="cls-4" d="M432.87,278c-1.07.75-2.11-.08-3.4,0-2.53.14-4.53,2-5.4,1.78C425.84,277.92,429.4,277.21,432.87,278Z" transform="translate(-388.1 -261.16)"/><path class="cls-4" d="M408.44,280.39c-1.28.15-1.93.95-3.12,1.19.27-1.48,9.5-3.42,10.51.6-1.77-.43-2.29-2.17-4.55-2.09" transform="translate(-388.1 -261.16)"/><path class="cls-4" d="M427.19,280.39c-1.65.05-1.79,1.7-3.41,1.79,1.37-3.34,8.67-2.91,10.8-.6-.78-.08-2.8-1.43-4.54-1.49" transform="translate(-388.1 -261.16)"/><path class="cls-4" d="M429.27,300.54c.19-.78,3.55,1.33,2.05,1.8C430.28,301.74,430.39,301.13,429.27,300.54Z" transform="translate(-388.1 -261.16)"/><path class="cls-4" d="M416.76,309.44c1.06-.59,4.74.41,7.14,0C422.48,311.39,418.29,310.82,416.76,309.44Z" transform="translate(-388.1 -261.16)"/><path class="cls-4" d="M407.42,302.33c-.61-.45,2.88-3.19,2.61-1.5C409,301.7,408.48,301.38,407.42,302.33Z" transform="translate(-388.1 -261.16)"/><path class="cls-4" d="M414.22,305c1.38,1.4,9.76,1.89,11.64.15a13.21,13.21,0,0,1,4.83-3.72,1.4,1.4,0,0,0-.65-.49,33.15,33.15,0,0,1-20.68.06,1.73,1.73,0,0,0-.28.56" transform="translate(-388.1 -261.16)"/><path class="cls-5" d="M414.57,304.49c2.5-2.18,7.94.28,10.7-1.72,1.26,0,.68,1.08.57,1.72A22.3,22.3,0,0,1,414.57,304.49Z" transform="translate(-388.1 -261.16)"/><path class="cls-6" d="M408.64,291.63c0-.05-.08-.09,0-.06S408.68,291.66,408.64,291.63Z" transform="translate(-388.1 -261.16)"/><path class="cls-6" d="M403.6,301c-.36-.19,0-.3-.16-.48,0,0,.2,0,.16,0-.27-.19-.05-.38.2-.51l.06,0c.05,0-.14-.1-.1-.13l.1,0c-.11,0,0-.07-.12-.1a1.21,1.21,0,0,1,.19,0l-.13,0c-.3-.12.06-.13-.09-.23l.08,0c-.16-.16-.09-.3-.13-.45a1.16,1.16,0,0,0,.18,0c-.13,0-.16-.09-.18-.13.15,0-.11-.09,0-.11h0c-.14-.07.1,0-.07-.1h.11c-.19-.06.12,0,0-.07h0s.06,0,0,0h0c0-.06.08-.06-.07-.1.12,0,0,.06.23.08a.62.62,0,0,1,0-.55.37.37,0,0,1,.15,0s0-.08-.08-.12.08,0,.09,0-.16-.08-.08-.1a.34.34,0,0,0,.15.06c-.12-.06-.08-.1-.11-.14l.08,0c-.12-.08.05-.06,0-.12l.08,0c.12,0-.18-.08-.1-.1a.25.25,0,0,0,.09,0c-.14-.1-.07-.15-.11-.21l0,0c0-.06.06-.09,0-.16s.21.08.2,0c-.18-.06-.05-.11-.26-.15.05,0,.14-.07.09-.12s.22.06.22.09l.12,0c.07,0,0,0,0,0s0-.1,0-.1-.29-.17-.29-.23.19.05.22.08l-.31-.19s.14,0,.1,0a.33.33,0,0,1-.1-.06s0-.09.16,0,0,0,.09,0-.05-.06,0-.09h0s-.05-.09-.15-.11.1,0,0,0-.1-.1-.09-.13l.11.06a.57.57,0,0,1-.17-.23c-.08,0,.14.08.09.07.14,0-.11-.19.08-.18,0,0-.12,0-.1,0s.14,0,.1,0,0,0,0-.07,0,0,0,0-.1-.2,0-.22c0,0-.15-.11-.13-.13l.1,0c.07,0,0,0,.1,0-.11-.09.06.17,0,.08.09,0-.14-.13,0-.06s-.1-.11,0-.09.13.08.14.06,0,0-.07-.09l0,0c-.1,0,0,0-.09-.06.09,0,0-.09.14,0l.13.07s-.12-.09-.18-.13l.07,0c-.2-.1,0,0-.11-.13.08,0,.05-.09.18-.05-.05-.06-.1-.12-.05-.13s0,0,.06.05,0,0,0-.06a1,1,0,0,0,.22,0,1,1,0,0,0-.22-.14c.21.08-.09-.14.11-.08,0,0,.07.09.13.09s-.12-.12,0-.12l-.17-.07c.11,0-.06-.11.1,0-.05-.05.08,0-.08-.1.17,0,0-.21.31-.1,0,0,0,0-.06-.07s.05.06,0,0l-.06,0c.05,0,.07,0,.19.08s-.24-.19-.14-.22.08.05.08,0l-.09-.1c.05,0,.16.06.27.12s0-.05-.06-.1l.15.05c-.11,0-.06-.05-.08-.08l0,0c.05,0,0,0,0,0a.22.22,0,0,0-.14,0s0,0-.07-.09c.11.07.1,0,.12,0s-.08-.08-.08-.08,0,0,.1,0-.06,0,0,0,.14.07.08,0-.21-.12-.12-.11l.1.08h.07l-.09-.06,0,0c-.09-.07,0-.07-.11-.14s.09,0,.11,0h0c.07,0,.05,0,0-.09h0s0,0,0-.09.36.22.26.12-.14-.16-.21-.18c.1,0,0-.17.16-.12a.29.29,0,0,1-.08-.07c.09,0,0-.22.21-.16a.33.33,0,0,0,.15.1c-.07-.07.1,0,0-.06s-.12-.09-.17-.09a.09.09,0,0,1,.12-.11.14.14,0,0,1-.08-.07c.13.1.17.08.14,0l-.07-.06.09,0s-.16-.13-.07-.1l.09.06c-.05-.07-.13-.19,0-.16l.13.06s-.06-.09-.11-.09a.35.35,0,0,1,.24,0c-.18-.25-.11-.38,0-.45l.06.05c.07,0-.09-.09,0-.08s.13.08.18.15-.06-.12-.07-.16,0,0,0,0,.09,0,0-.09a1.07,1.07,0,0,1,.16.14l0-.06c.15.08.18.25.37.36v0c.13.09.1.16.17.15a.82.82,0,0,0-.25-.24c0-.07-.25-.24-.2-.28s0,.05.09.12,0-.09,0-.08-.16-.13-.17-.16.1.11.13.08-.08-.13-.14-.14.07,0,0-.11c.11.07.21.23.29.24-.11-.08-.1-.16-.26-.26a.45.45,0,0,1,.17.13c.08,0-.13-.2.06,0l-.09-.09.13.07s-.08-.17.06,0c0,0,0-.05-.08-.13s.05.1-.1,0c.13.09,0,0,0-.09l.06.05s0,0,0-.1a.17.17,0,0,0,.09.07l-.08-.08c0-.08.16.13.17.07l0,.09s.08.05.07,0l-.21-.25c0-.05.1.08,0,0l.06.11s.15.11.17.08a.38.38,0,0,0-.17-.19s.08,0,.13.08-.09-.08-.11-.15l.25.14.1.15,0,0c.08.13.09.07.18.19s0,0,0-.08c-.2-.14-.2-.27-.36-.42,0-.09.4.36.2.06,0,0-.14-.17-.12-.1s-.14-.18,0-.15.18.14.24.27c-.05-.06-.06,0-.05,0s.15.16.18.13,0-.05-.06-.13,0,0-.1-.07.14.07,0-.11c0,0-.11-.06-.17-.12v-.06l0,.06c.09,0-.09-.12,0-.14l.13.1c.09.12-.1,0,.06.17,0,0,0-.11,0-.09l0,.05s.23.22.15,0-.06-.06-.11-.13,0-.13,0-.17c.1.14.06,0,.14.13-.08-.06-.14,0,0,.13s-.06,0,.07.17c0,0,.17.12.26.22s0-.05,0-.07-.09-.09-.17-.18.05-.09,0-.2.13.13.12.15a.2.2,0,0,1,.15-.1c-.15-.13,0-.08-.11-.19a.42.42,0,0,1-.2-.18s0,.06.09.09.14.11.05,0c0,.09.14.19.24.32,0-.09.06.09.09.06a.65.65,0,0,1,0-.23c.14.08.11-.08.15-.11s.16.19.2.2-.13-.13,0-.1v0s.14.05,0-.16l.11.16s0,0,0-.05a.44.44,0,0,1,.09.13c.1.09,0,0,.06-.08l-.08-.08c0-.1.08,0,.1-.09l.06.09v-.08c.06.1.12.14.08,0l.09.27c-.05,0-.06-.12-.13-.2s-.09,0,0,.07,0,0,0-.06c.09.12.06.13.11.23s.05,0,0,0,0,.1,0,.12-.07-.07-.09-.11c.08.11.08.16,0,.15s0,.12-.06.11a1.34,1.34,0,0,1-.12-.28c-.07,0,0,0-.09,0a1.34,1.34,0,0,1,.15.29l-.07-.08c0,.06.1.18.05.18a.33.33,0,0,0-.19.08L408,292c.11.19,0,.12,0,.22-.12,0-.05.17-.19.06,0,.14-.07.26-.18.32l-.08-.12c.05.09-.07,0-.07,0s.08.13.13.21c-.12,0-.08.09,0,.2l-.07-.07c.1.17-.06.09-.12.11s-.12-.08-.12-.06a.66.66,0,0,1,.12.24.16.16,0,0,1-.16,0c.08.25-.11.26-.1.45l-.09-.07c.1.26-.17.24-.13.41l-.16-.13c-.07,0,0,.1.12.18-.08,0,0,.13-.13.05s.05.09.06.13-.11,0-.12.12h0a.35.35,0,0,0-.12-.08c0,.06-.1.05.12.17-.16,0,0,.2-.2.16.06,0,.06,0,.1.08s-.19,0-.12.14-.09-.07-.11-.06.08.05.1.09-.22.1-.24.2-.12.33-.18.48l0,0c.14.14-.23,0,0,.2,0,0,0,0-.12,0,.1.1-.16.05,0,.18s0,0,0,0,0,.13-.13.14l-.07-.05c-.1,0,.16.14-.06.05,0,0,.1.06.1,0-.15.09-.07.3-.09.46s-.36-.16-.24,0c0,0,.08,0,0,0s-.27-.06-.16,0,.07,0,.15.08c-.12,0-.24,0-.16.08l-.07,0c.17.15,0,.17.25.31-.09.33-.07.68-.15,1s-.13.63-.35.91c-.21,0-.21,0-.15.13l-.07,0c.16.05,0,.06.15.11a1.35,1.35,0,0,0-.08.36s-.14-.07-.13,0l.1,0h0a.21.21,0,0,0,.15.05c.07.34-.33.57-.34.89-.08.06,0,.17,0,.26-.26.2-.47.39-.35.65C404.1,301.22,403.68,301.13,403.6,301Z" transform="translate(-388.1 -261.16)"/><path class="cls-6" d="M408.61,291.67c-.05-.06-.1-.08-.14-.18A1.1,1.1,0,0,1,408.61,291.67Z" transform="translate(-388.1 -261.16)"/><path class="cls-6" d="M407.48,291.47l0,0s0-.07,0-.05S407.46,291.44,407.48,291.47Z" transform="translate(-388.1 -261.16)"/><path class="cls-6" d="M407.29,291.57a.13.13,0,0,1,0-.15Z" transform="translate(-388.1 -261.16)"/><path class="cls-6" d="M406.94,291.48c-.06,0-.08-.06-.06-.08A.42.42,0,0,1,406.94,291.48Z" transform="translate(-388.1 -261.16)"/><path class="cls-6" d="M407,291.61s-.05,0-.08,0S407,291.52,407,291.61Z" transform="translate(-388.1 -261.16)"/><path class="cls-6" d="M406.58,291.76s0,.07,0,0S406.51,291.68,406.58,291.76Z" transform="translate(-388.1 -261.16)"/><path class="cls-6" d="M406.51,292s0,0,0,0a.17.17,0,0,1-.06-.07Z" transform="translate(-388.1 -261.16)"/><polygon class="cls-6" points="16.59 33.92 16.56 33.89 16.63 33.92 16.59 33.92"/><path class="cls-6" d="M404.05,296.49s-.07,0-.08,0S404.05,296.51,404.05,296.49Z" transform="translate(-388.1 -261.16)"/><polygon class="cls-6" points="16.01 36.22 16.01 36.21 16.15 36.27 16.01 36.22"/><path class="cls-6" d="M430.81,291.36s-.13,0-.06,0S430.85,291.34,430.81,291.36Z" transform="translate(-388.1 -261.16)"/><path class="cls-6" d="M433.24,298.91c-.39.06-.08-.21-.35-.21,0,0,.2-.08.14-.08-.31,0-.21-.2,0-.4l.06,0s-.17,0-.15,0l.1,0c-.11,0-.06,0-.15,0l.17-.09-.13,0c-.31.09,0-.09-.19-.08l.08,0c-.21,0-.22-.13-.32-.19a.67.67,0,0,0,.18-.07c-.14.05-.18,0-.22,0,.13-.06-.14,0-.07-.05h0c-.15,0,.07-.06-.11,0l.1-.06c-.19.07.09-.07,0-.05l0,0c-.06,0,0-.05,0-.05h0c-.07,0,0-.08-.12,0,.12-.06.07,0,.24-.07-.2-.06-.22-.19-.27-.31l.13-.08s-.05,0-.13,0l.08,0c.05,0-.17,0-.11,0a.43.43,0,0,0,.14,0c-.12,0-.11,0-.16,0l.09,0c-.14,0,0-.06-.08-.05l.09,0c.09-.08-.19.06-.14,0l.1,0c-.17,0-.13,0-.2,0h0s0-.08-.08-.09.21-.07.17-.09-.1,0-.28.06c0,0,.06-.11,0-.11.08,0,.21-.09.23-.07l.1-.06c.08,0,0,0,.07,0s-.09,0-.07,0-.32.07-.35,0,.18-.08.22-.08l-.35.07s.13-.05.08-.05l-.12,0s-.06,0,.11-.11,0,0,.1,0-.07,0-.08,0h0s-.09,0-.17,0,.1,0,.05,0-.14,0-.15,0l.13,0a.71.71,0,0,1-.27,0c-.08,0,.15,0,.11,0s-.19,0,0-.13-.12,0-.09,0,.12-.07.07-.07,0,0-.06,0,0,0,.05,0-.2,0-.12-.12a.42.42,0,0,1-.18,0l.11,0c.06,0,0,0,.07-.06-.14,0,.15,0,0,.05.09,0-.18,0,0,0,0,0-.14,0-.05-.05s.16,0,.14-.05,0,0-.1,0h-.05c-.1,0,0,0-.11,0,.09,0-.06,0,.11-.08l.14-.05a1.51,1.51,0,0,0-.22,0l.06,0c-.21.07,0,0-.16,0,.07-.05,0-.07.11-.13-.07,0-.15,0-.12,0h.08c.06,0,0,0,0,0s.11-.07.18-.11a1.17,1.17,0,0,0-.25.07c.2-.09-.15,0,0-.1a.62.62,0,0,0,.16,0c.2-.09-.17,0-.08-.06l-.17.07c.1-.05-.12,0,.06-.07-.07,0,0-.05-.12,0,.12-.1-.13-.1.16-.23,0,0,0,0-.09,0s.07,0,0,0-.06,0-.08,0,0,0,.19-.07-.3.06-.25,0,.09,0,.08,0h-.13s.15-.07.27-.11,0,0-.11,0l.14-.07c-.1.05-.08,0-.11,0h0c.05,0,0,0,0,0a.25.25,0,0,0-.12.07h-.11c.12,0,.08-.05.08-.07s-.1,0-.1,0,0,0,.09-.05-.06,0,0,0,.15-.05.06-.05-.22.08-.16,0l.12,0,.05,0-.1,0,.05,0c-.12,0-.05,0-.18,0s.07,0,.07-.07h0c.06,0,0,0-.06,0h0s0,0-.08,0,.4-.14.26-.12a.66.66,0,0,0-.27.06c.06-.06-.13-.05,0-.14l-.1,0c0-.07-.16-.08,0-.19a1.54,1.54,0,0,0,.17-.05c-.1,0,.1-.05-.07,0a.81.81,0,0,0-.18.08c-.06,0-.08-.07,0-.12l-.11,0c.16-.05.17-.08.12-.08l-.1,0,.09,0s-.2.05-.11,0l.1,0c-.09,0-.22,0-.15,0l.13-.06a.44.44,0,0,0-.14,0,.57.57,0,0,1,.19-.13c-.31,0-.35-.07-.35-.15h.08c.06,0-.13,0-.09,0s.15-.05.23-.06-.13,0-.17,0,.07,0-.05,0,.06-.05-.08,0l.21-.06h-.07c.16-.06.31,0,.5-.11h0c.14-.06.17,0,.21-.06a1.3,1.3,0,0,0-.34.08s-.33.08-.33,0,0,0,.14,0-.08,0,0,0a.52.52,0,0,1-.22.06c.06,0,.13,0,.14-.06s-.15,0-.2,0,0,0-.1,0c.12-.05.3-.06.36-.1a2.23,2.23,0,0,0-.36.07.67.67,0,0,1,.21-.06c.07,0-.24,0,0-.05l-.13,0,.14-.06s-.19,0,0-.05c0,0,0,0-.15,0s.1,0-.08.06c.15,0,0,0-.08,0l.08,0s0,0-.1,0a.29.29,0,0,0,.11,0l-.12,0c-.06,0,.2-.06.16-.08h.09s.08,0,.05,0l-.32.06c-.05,0,.12,0,0,0H430s.16-.06.16-.08a.47.47,0,0,0-.25,0,.18.18,0,0,1,.13-.06s-.11,0-.18,0l.26-.12.17,0h0c.15,0,.11,0,.26-.06s0,0-.08,0a4,4,0,0,1-.54.11c-.07,0,.51-.16.17-.11-.06,0-.22,0-.16.05s-.21,0-.13,0,.21-.08.34-.08c-.07,0-.05,0,0,0s.21-.05.2-.07,0,0-.14,0,0,0-.11,0,.14-.08-.08,0c0,0-.11.05-.19.07h-.06l.08,0c.05,0-.15,0-.13,0l.15-.05c.14,0-.05.07.18,0,0,0-.11,0-.06,0h0s.3-.1.12-.09-.08,0-.17,0-.12,0-.14-.05c.16,0,0,0,.18-.06-.09,0-.07.09.09.07s0,0,.18,0c0,0,.19-.07.31-.11h-.07l-.23.06s-.05-.06-.17,0a.54.54,0,0,1,.19,0c-.05,0,0-.08,0-.12-.19.07-.06,0-.22,0a.71.71,0,0,1-.26.09s.08,0,.12,0,.17-.06,0,0a2,2,0,0,0,.39-.07c-.09,0,.11,0,.1,0a.64.64,0,0,1-.2-.05c.13-.07,0-.1,0-.13s.25-.06.27-.08-.18.05-.11,0h0c-.05,0,.1-.09-.15,0l.19,0s0,0-.05,0l.16,0c.12-.05,0,0,0-.06l-.11,0c-.09,0,0-.07,0-.1l.11,0h-.07c.11,0,.17,0,.08,0h.28c-.06,0-.13,0-.24,0s0,.06.05,0,0,0-.06,0a.93.93,0,0,1,.26,0s0,0,0,0,.1,0,.1,0-.09,0-.13,0c.13,0,.18,0,.14,0s.11,0,.08.07a1.78,1.78,0,0,1-.31,0c-.06,0,0,0-.05.06a2,2,0,0,1,.32,0l-.1,0c.06,0,.2,0,.18,0a.22.22,0,0,0,0,.15l-.1,0c.22,0,.1.06.2.06-.09.07.12.08-.05.15.1.07.19.12.18.22l-.15,0c.11,0-.08,0-.06,0s.16,0,.25,0c-.1.07,0,.09.14.1l-.1,0c.2,0,.05.07,0,.13s-.13,0-.12.05a1.07,1.07,0,0,1,.27,0,.22.22,0,0,1-.08.12c.25,0,.13.17.29.23l-.11,0c.27,0,.08.21.23.25l-.19.05c-.06.05.06,0,.2,0-.05,0,.11,0,0,.1s.1,0,.13,0,0,.09,0,.13v0l-.13.05c.06,0,0,.08.19,0-.12.09.15.08,0,.19a.39.39,0,0,1,.13,0s-.1.14,0,.14-.11,0-.11,0,.08,0,.12,0-.07.19,0,.24.14.23.2.33l0,0c.19,0-.15.15.13.09,0,0,0,0-.1.06.13,0-.09.13.08.12h0c-.08.08.07.07,0,.15s0,0-.08,0,.21,0,0,.06c0,0,.11,0,.1,0s.13.19.22.28c-.1.13-.37.14-.18.14h0c.07,0-.24.13-.12.1a.54.54,0,0,1,.17,0c-.07.07-.19.13-.08.13l-.07,0c.22,0,.13.06.37,0,.13.22.35.4.46.62s.23.42.2.7-.16.13-.06.16l-.07,0c.16-.06,0,0,.18,0s.08.16.11.25-.14,0-.13,0l.11,0,0,0a.26.26,0,0,0,.15,0c.22.17,0,.5.12.71,0,.07,0,.12.1.17-.14.24-.24.46,0,.57A1.54,1.54,0,0,1,433.24,298.91Z" transform="translate(-388.1 -261.16)"/><path class="cls-6" d="M430.83,291.39a.71.71,0,0,1-.23.05Z" transform="translate(-388.1 -261.16)"/><path class="cls-6" d="M430.12,292.11s0,0,0,0-.08,0,0,0S430.09,292.12,430.12,292.11Z" transform="translate(-388.1 -261.16)"/><path class="cls-6" d="M430.11,292.27a.26.26,0,0,1-.15,0Z" transform="translate(-388.1 -261.16)"/><path class="cls-6" d="M429.85,292.47c-.06,0-.09,0-.09,0Z" transform="translate(-388.1 -261.16)"/><path class="cls-6" d="M430,292.44s0,0-.07,0S429.89,292.46,430,292.44Z" transform="translate(-388.1 -261.16)"/><path class="cls-6" d="M429.88,292.78s.07,0,0,0S429.77,292.8,429.88,292.78Z" transform="translate(-388.1 -261.16)"/><path class="cls-6" d="M430,292.89s0,0,0,0-.09,0-.1,0Z" transform="translate(-388.1 -261.16)"/><polygon class="cls-6" points="42.93 34.02 42.89 34.02 42.96 33.99 42.93 34.02"/><path class="cls-6" d="M431.39,296.19c.05,0-.06,0-.07,0S431.41,296.2,431.39,296.19Z" transform="translate(-388.1 -261.16)"/><polygon class="cls-6" points="43.84 35.45 43.83 35.44 43.98 35.39 43.84 35.45"/><rect class="cls-7" x="0.5" y="0.5" width="59.42" height="59.42"/><rect class="cls-8" x="0.27" y="60.25" width="60.14" height="10.4"/><rect class="cls-9" x="49.8" y="60.25" width="10.67" height="10.4"/><path d="M445.9,326.74c0,2-.83,3.45-2.51,3.45s-2.46-1.54-2.47-3.41.8-3.43,2.51-3.43S445.9,324.93,445.9,326.74Zm-3.43,0c0,1.52.36,2.24.95,2.24s.93-.75.93-2.26-.32-2.24-.94-2.24S442.47,325.23,442.47,326.78Z" transform="translate(-388.1 -261.16)"/></svg>