<svg id="Layer_1" data-name="Layer 1" xmlns="http://www.w3.org/2000/svg" viewBox="0 0 60.42 70.65"><defs><style>.cls-1{fill:#1d1d1b;}.cls-2{fill:#12100b;fill-rule:evenodd;}.cls-3{fill:none;stroke:#1d1d1b;}.cls-4{fill:#bfbfbf;}.cls-5{fill:#f2f2f2;}</style></defs><path d="M440.89,293.91a25.39,25.39,0,0,0,.94-7.64c-.43,3.88-1.76,7.2-2.65,10.38-1.15,4.14-2.48,8.7-4.82,11.5-2.65,3.18-8.32,8.24-12.22,9.66-4.48,1.64-7.9-.28-11.17-2.16a29.77,29.77,0,0,1-12.12-12.14c-1.24-2.22-2.71-5-2.65-7.05-2-2.92-2.11-7.74-3.41-11.37a53.92,53.92,0,0,0,2.84,13.52,39.5,39.5,0,0,0,7.58,11.75,41.84,41.84,0,0,0,3.33,3.27c1.3,1,2.8,1.45,4.24,2.61a9.27,9.27,0,0,0,2.84,2c6.48,2.38,11.8-1.05,15.53-3.92,7-5.33,9.31-11.52,9.84-13.51C439.59,298.55,440.75,294.24,440.89,293.91Z" transform="translate(-388.12 -261.16)"/><path d="M393.08,286.89c0-3.29-1.15-6.57-1-10" transform="translate(-388.12 -261.16)"/><path d="M393.14,283.1a49.28,49.28,0,0,0-.41-7.39c-.24-1.48-.51-3-.62-4.46l0,.27a3.71,3.71,0,0,1,0-.47,1.09,1.09,0,0,1,0-.18q-.25-6.81,0,13.25c.11-3.07.06-6.15.05-9.22,0-1.5,0-3,0-4.49l0-.75c0-.36,0-.36,0,0-.09,2.59-.07,5.2-.07,7.79s0,5.07.06,7.61c0,.92.11,1.84.23,2.75.24,1.78.61,3.53.76,5.32l0-.26,0,.44a1.09,1.09,0,0,0,0,.18q.06,1.59,0-2.82c0,1.14,0,2.31.05,3.45.06,1,.06-1.21.06-.76.06-3.41,0-6.84,0-10.26Z" transform="translate(-388.12 -261.16)"/><path d="M441.4,292.11c.29-3,1.44-5.91,1.73-9,.14-2,0-4.27.14-6.4.29-4.28.87-9.7.43-13.81" transform="translate(-388.12 -261.16)"/><path class="cls-1" d="M426.94,291.44c-.05,0-.12.06-.06,0S427,291.41,426.94,291.44Z" transform="translate(-388.12 -261.16)"/><path class="cls-1" d="M429.4,301.08c-.4-.05,0-.27-.31-.36,0,0,.21,0,.15-.06-.31-.07-.18-.29,0-.49h.06s-.16,0-.14-.07a.44.44,0,0,0,.1,0c-.11,0-.06-.05-.15,0a1.34,1.34,0,0,0,.18-.07h-.13c-.32,0,0-.12-.18-.15,0,0,.06,0,.09,0-.22-.06-.21-.2-.3-.31a.57.57,0,0,0,.18,0c-.14,0-.18,0-.21,0,.13-.05-.15,0-.08-.08h0c-.16,0,.07-.06-.11,0l.11,0c-.21,0,.09-.06,0-.07h0c-.05,0,0,0,0,0h0c-.06,0,.05-.09-.11,0,.12,0,.07,0,.24,0-.19-.12-.19-.28-.23-.44l.13-.06s0-.05-.12-.05l.08,0c.05,0-.18,0-.12,0l.16,0c-.13,0-.12,0-.17-.06a.19.19,0,0,0,.1,0c-.15,0,0-.06-.08-.07h.09c.1-.08-.19,0-.14,0l.11,0c-.18,0-.14-.07-.2-.09h0s0-.09-.07-.12.22-.05.18-.09-.09-.05-.29,0c0,0,.07-.12,0-.13s.21-.07.23,0l.11-.05c.07,0,0,0,.07,0s-.09,0-.07-.07-.33,0-.36,0,.19-.06.23-.05l-.36,0s.14,0,.08,0h-.12s-.06-.05.12-.1,0,0,.1,0-.07,0-.08,0h0s-.09,0-.18,0,.11,0,.06,0-.14,0-.15,0l.13,0a.58.58,0,0,1-.28-.06c-.08,0,.16,0,.12,0s-.2-.07,0-.16-.12,0-.09,0,.12-.06.07-.06,0,0,0,0,0,0,0,0-.2-.08-.11-.17a.35.35,0,0,1-.18,0l.11,0c.06,0,0-.05.07-.07-.14,0,.15.07,0,.06.09,0-.19,0,0,0,0,0-.15,0,0-.07s.16,0,.15,0-.06,0-.1,0h0c-.11,0,0,0-.12,0,.09,0-.06,0,.11-.08l.15,0s-.16,0-.22,0l.06,0c-.22.05,0,0-.16,0,.06-.05,0-.09.11-.14-.07,0-.16,0-.12,0h.08c.05,0,0,0,0,0l.18-.11a.74.74,0,0,0-.25.05c.2-.09-.16,0,0-.12a.27.27,0,0,0,.17,0c.2-.08-.17,0-.08-.07l-.18.06c.11,0-.11,0,.07-.08-.07,0,0-.06-.13,0,.13-.1-.13-.12.17-.25,0,0,0,0-.1,0s.08,0,0,0h-.07s0,0,.19-.07-.31,0-.26,0,.1,0,.08-.05h-.13c0-.05.16-.07.28-.1,0,0,0,0-.12,0l.14-.07c-.1.05-.07,0-.1,0h0c.05,0,0,0,0,0a.17.17,0,0,0-.11.07c-.06,0-.05,0-.12,0,.12,0,.08-.05.09-.07s-.11,0-.11,0,0,0,.09,0-.06,0,0,0,.15-.05.07-.05-.24.07-.17,0l.12,0,0,0-.1,0,.05,0c-.12,0-.05,0-.18,0s.06-.05.07-.07h0c.06,0,0-.05-.07-.05h0s0,0-.09,0,.4-.13.26-.11-.21,0-.27,0-.13-.07,0-.16c-.05,0-.07,0-.1,0s-.17-.11,0-.23.11,0,.17,0c-.1,0,.09,0-.07,0a.55.55,0,0,0-.18.07c-.06,0-.08-.09,0-.13a.2.2,0,0,1-.1,0c.15,0,.17-.08.11-.09l-.1,0,.09-.05s-.2.05-.11,0l.09,0c-.08,0-.22,0-.15,0l.13-.06a.2.2,0,0,0-.14,0c.07-.07.07-.1.19-.15-.31,0-.36-.09-.36-.19l.07,0c.06,0-.13,0-.09,0a.78.78,0,0,1,.23-.07c.06-.06-.13,0-.17,0s.06,0-.06,0,.06-.07-.08,0a.79.79,0,0,1,.22-.06h-.08c.16-.08.31,0,.5-.12l0,0c.14-.06.18,0,.22-.06a1.21,1.21,0,0,0-.34.08c-.05,0-.34.09-.34,0s0,0,.14,0-.07,0,0,0a.49.49,0,0,1-.22,0c.06,0,.14,0,.14-.06s-.15,0-.2.05,0-.05-.11,0c.13-.05.31-.06.36-.12-.12.05-.18,0-.36.08l.21-.07c.07,0-.24,0,0-.06l-.13,0,.14-.07s-.19,0,0-.06c0,0,0,0-.15,0s.1,0-.07.06c.14-.06,0,0-.09,0l.08,0s0,0-.11,0a.14.14,0,0,0,.11,0l-.11,0c-.07,0,.19-.07.15-.09h.09s.08-.05,0-.06l-.31.08c-.05,0,.11-.05,0,0h.13s.17-.07.16-.09a.47.47,0,0,0-.25.05.18.18,0,0,1,.13-.06s-.11,0-.18,0l.24-.14.18,0v0c.14,0,.1,0,.25-.08s0,0-.08,0a4.07,4.07,0,0,1-.53.13c-.08,0,.5-.19.15-.14-.05,0-.22.06-.15.07s-.21,0-.14,0,.21-.1.34-.1c-.07,0,0,0,0,0s.21-.06.2-.1,0,0-.14,0,0,0-.11.05.13-.09-.09,0c0,0-.1.06-.18.09h-.06l.08,0c0-.06-.15,0-.14,0l.15-.07c.14,0,0,.08.18,0,0,0-.11,0-.07-.05h.06s.29-.11.11-.1-.09,0-.17.05-.13,0-.15-.05c.16-.05,0-.06.18-.08-.09,0-.06.11.1.07s0,0,.18,0c0,0,.18-.1.3-.15h-.07a2.09,2.09,0,0,0-.23.08c0-.05-.06-.07-.18-.05,0,0,.17-.07.19-.05a.12.12,0,0,1,0-.15c-.18.09-.07,0-.22,0a.58.58,0,0,1-.25.12s.08,0,.12-.05c-.11,0,.16-.08,0-.05.08,0,.23-.06.39-.11-.1,0,.1,0,.09-.06a.38.38,0,0,1-.21-.05c.12-.09,0-.11-.06-.15a2.9,2.9,0,0,0,.27-.11s-.18.07-.11,0h0s.09-.11-.15,0l.18-.05h-.05a.65.65,0,0,1,.15-.05c.12-.06,0,0-.05-.07l-.1.06c-.1,0,0-.09,0-.12l.1,0h-.07c.11,0,.16-.08.07-.06l.28,0c-.05,0-.13,0-.23.07s0,.07.06,0,0,0-.06,0a.68.68,0,0,1,.25-.05s0,0,0,0,.1,0,.11,0-.09,0-.13,0c.13,0,.18,0,.15,0s.12,0,.09.08a1.07,1.07,0,0,1-.31,0c-.06.05,0,0-.05.07a1.56,1.56,0,0,1,.33-.05l-.1,0c.06,0,.2,0,.19,0a.42.42,0,0,0,0,.19l-.09,0c.21,0,.1.06.2.06-.07.09.14.1,0,.19.11.08.21.15.21.27l-.15,0c.11,0-.07,0,0,.05s.16,0,.25,0c-.09.08,0,.11.16.12l-.1,0c.2,0,0,.09,0,.16s-.13.05-.11.07a.57.57,0,0,1,.27,0,.17.17,0,0,1-.06.14c.25,0,.15.22.32.3l-.11.05c.28,0,.1.26.26.32l-.2.05c-.05.05.07.06.21,0-.05.05.12.05,0,.12s.11,0,.14,0,0,.11,0,.16v0s-.12,0-.13.05,0,.1.2,0c-.12.11.15.12,0,.24a.26.26,0,0,1,.12,0c0,.05-.09.15,0,.17,0,0-.11,0-.11,0s.08,0,.13,0-.07.23,0,.31.15.3.22.44h0c.19,0-.15.17.13.13,0,0,0,.05-.1.07.13,0-.09.14.08.15h0c-.08.08.07.09,0,.18h-.08c-.09.05.21,0,0,.08a.23.23,0,0,0,.11,0c-.06.16.13.26.21.39-.11.13-.38.1-.19.14,0,0,.09,0,.05,0s-.25.12-.12.11.08,0,.17,0c-.08.08-.2.13-.08.15h-.08c.22,0,.13.1.38.09.12.3.33.56.44.86s.2.59.14.93c-.18.11-.17.12-.08.18h-.06c.16,0,0,.05.18,0,0,.12.06.21.09.33s-.16,0-.14,0h.06a.24.24,0,0,0,.16,0c.2.27-.06.63,0,.91-.05.09,0,.17.08.24-.18.27-.32.5-.13.7A1.3,1.3,0,0,1,429.4,301.08Z" transform="translate(-388.12 -261.16)"/><path class="cls-1" d="M427,291.48a.63.63,0,0,1-.22.08Z" transform="translate(-388.12 -261.16)"/><path class="cls-1" d="M426.38,292.4l0,0s-.08,0,0,0S426.35,292.4,426.38,292.4Z" transform="translate(-388.12 -261.16)"/><path class="cls-1" d="M426.39,292.58a.16.16,0,0,1-.15,0Z" transform="translate(-388.12 -261.16)"/><path class="cls-1" d="M426.15,292.83s-.09,0-.09,0A.16.16,0,0,1,426.15,292.83Z" transform="translate(-388.12 -261.16)"/><path class="cls-1" d="M426.31,292.79s0,0-.07,0S426.2,292.82,426.31,292.79Z" transform="translate(-388.12 -261.16)"/><path class="cls-1" d="M426.22,293.19s.07,0,0,0S426.11,293.21,426.22,293.19Z" transform="translate(-388.12 -261.16)"/><path class="cls-1" d="M426.37,293.31s0,0,0,0-.08,0-.09,0Z" transform="translate(-388.12 -261.16)"/><polygon class="cls-1" points="39.38 34.94 39.34 34.93 39.41 34.92 39.38 34.94"/><path class="cls-1" d="M427.84,297.37c.05,0-.06,0-.07,0S427.86,297.39,427.84,297.37Z" transform="translate(-388.12 -261.16)"/><polygon class="cls-1" points="40.24 36.81 40.24 36.81 40.39 36.77 40.24 36.81"/><path class="cls-1" d="M409.64,291.85c0-.06-.12-.06,0-.06S409.69,291.86,409.64,291.85Z" transform="translate(-388.12 -261.16)"/><path class="cls-1" d="M407.06,302.29c-.38-.13,0-.31-.24-.45,0,0,.21,0,.16,0-.29-.15-.11-.37.12-.53h.06s-.15-.08-.12-.11h.11c-.12,0-.06-.06-.14-.08l.19,0-.13,0c-.32-.06,0-.13-.14-.21H407c-.19-.13-.15-.28-.21-.42l.18,0c-.14,0-.17-.06-.2-.1.15,0-.13-.07-.05-.11h0c-.15,0,.09,0-.1-.08h.12c-.2,0,.11,0,0-.07h0s.05,0,0-.05h0c-.05,0,.07-.08-.09-.08.13,0,0,.05.24,0a.67.67,0,0,1-.1-.54l.15,0s0-.07-.1-.09H407c.06,0-.17-.06-.1-.08l.15,0c-.12,0-.09-.08-.13-.11l.09,0c-.14-.06,0-.07-.05-.11l.09,0c.12,0-.19,0-.12-.08a.18.18,0,0,0,.1,0c-.16-.06-.1-.12-.15-.17h0s0-.09,0-.15.23,0,.2,0c-.19,0-.07-.09-.28-.08,0,0,.11-.1.06-.14s.22,0,.23,0h.12c.07,0,0,0,.07,0s-.08-.08,0-.09c-.11-.05-.32-.11-.33-.17s.2,0,.23,0l-.34-.12s.14,0,.1,0l-.12,0s0-.08.15-.06,0,0,.1,0-.06,0-.06-.07h0s-.07-.08-.18-.07.11,0,.06,0-.13-.08-.12-.11.07,0,.12,0a.53.53,0,0,1-.22-.18c-.09,0,.15.05.11.05.12-.05-.15-.16,0-.19h-.1s.14,0,.1,0,0,0,0-.06,0,0,0,0-.15-.17,0-.22c0,0-.17-.08-.16-.09l.11,0c.07,0,0-.06.1,0-.13-.06.09.15,0,.08.1,0-.17-.09,0-.06,0,0-.12-.08,0-.09s.15.05.15,0-.06,0-.09-.07l0,0c-.11,0,0,0-.1,0,.09,0,0-.08.14,0l.14,0a1.61,1.61,0,0,0-.21-.09h.07c-.22-.05,0-.05-.14-.1.09,0,0-.1.17-.09-.06-.05-.13-.09-.08-.12l.07,0c.07,0,0,0,0-.06a1,1,0,0,0,.22,0,.73.73,0,0,0-.25-.08c.22,0-.12-.12.09-.11a.21.21,0,0,0,.15.06c.22,0-.14-.09,0-.12l-.18,0c.11,0-.09-.09.09,0-.06,0,.07,0-.1-.07.16,0-.05-.2.27-.17,0,0,0,0-.08-.06s.06.05,0,0-.05,0-.08,0,.07,0,.2,0-.28-.12-.19-.17.1,0,.09,0l-.11-.07s.17,0,.29.05,0-.05-.09-.08h.16c-.12,0-.07,0-.1-.05h0c.05,0,0,0,0,0a.25.25,0,0,0-.14,0c-.05,0,0,0-.09-.07.12,0,.09,0,.11,0s-.1,0-.09-.06,0,0,.1,0-.07,0,0,0,.16,0,.09,0-.23-.06-.15-.08l.11.06.07,0-.1,0h.05c-.11-.05,0-.07-.14-.12s.08,0,.1,0h0c.07,0,0,0,0-.09h0s0,0-.06-.07.41.11.29,0-.18-.1-.26-.11c.09,0-.06-.15.12-.15,0,0-.07,0-.09,0s-.07-.21.16-.2a.69.69,0,0,0,.17.05c-.09-.05.1,0-.06-.05a.39.39,0,0,0-.18,0c0-.06,0-.14.08-.13a.15.15,0,0,1-.1,0c.15.05.19,0,.15,0l-.1,0,.11,0s-.19-.08-.09-.07l.1,0c-.07-.05-.18-.14-.09-.14l.14,0a.16.16,0,0,0-.13-.06c.1,0,.12-.05.24,0-.24-.2-.21-.33-.15-.42l.07,0c.07,0-.11-.07-.06-.07s.15,0,.22.09-.09-.09-.11-.13,0,0-.07,0,.1,0,0-.09l.21.09-.06,0c.17,0,.26.19.46.24v0c.15,0,.13.12.2.09a.77.77,0,0,0-.31-.16c0-.06-.31-.16-.27-.21s0,.05.11.09,0-.07,0-.08a.47.47,0,0,1-.2-.1c.07,0,.12.07.15,0s-.12-.1-.19-.09.07,0-.06-.1c.13,0,.27.16.35.15-.12-.05-.14-.13-.32-.18a.59.59,0,0,1,.2.08c.08,0-.19-.15,0-.06l-.11-.06.14,0s-.13-.14.05-.05c0,0,0-.06-.12-.1s.08.07-.1,0c.15.05,0-.05,0-.09l.07,0s0,0-.06-.08a.19.19,0,0,0,.1,0l-.1-.06c0-.07.19.08.18,0l.07.07s.09,0,.07,0l-.28-.17s.12,0,0,0l.1.09s.17.06.18,0a.33.33,0,0,0-.22-.13s.08,0,.14,0-.1-.05-.15-.11l.28.05.15.11v0c.12.09.11,0,.23.12s0,0,0-.07c-.24-.07-.28-.19-.48-.28,0-.08.49.21.21,0-.05,0-.19-.12-.15-.05s-.18-.13-.08-.13.21.08.31.18c-.07,0-.06,0-.05,0s.2.11.21.07,0-.06-.1-.11,0,0-.11,0,.16,0,0-.1c0,0-.12,0-.2-.06l0-.06.07.05c.08,0-.12-.09-.08-.13l.16.06c.12.08-.09,0,.12.14,0,0-.08-.09,0-.09l0,0s.29.13.16,0-.07-.05-.15-.09-.06-.12-.06-.16.05,0,.18.08c-.09,0-.13,0,0,.13s-.05,0,.13.14c0,0,.19.05.31.11s0,0,0-.06l-.22-.11c.05,0,0-.1-.08-.18s.17.08.17.1,0-.11.1-.14c-.19-.07,0-.08-.17-.14a.53.53,0,0,1-.26-.1s.08,0,.12.06.17.05,0-.06c0,.08.21.13.34.22-.06-.08.09.06.11,0a.62.62,0,0,1-.1-.2c.15,0,.07-.11.09-.16s.23.13.27.12-.18-.08-.08-.08l0,0s.15,0-.06-.16l.16.12s0,0,0-.05.11.05.13.09,0-.06,0-.09l-.11-.05c0-.09.07-.06.07-.12l.09.06,0-.06c.08.06.16.08.09,0l.19.22c-.07,0-.1-.1-.2-.14s-.09,0,0,.07,0,0,0-.05c.13.08.11.1.19.16s0,0,0,0,0,.08,0,.1-.09,0-.12-.07.13.12.08.13,0,.12,0,.13a.89.89,0,0,1-.22-.22c-.07,0,0,0-.09,0a1.4,1.4,0,0,1,.25.22l-.09,0s.15.13.11.15a.33.33,0,0,0-.15.13l-.09-.05c.17.14,0,.13.08.21-.12,0,0,.18-.15.12,0,.15,0,.27-.06.36l-.13-.08c.09.07-.08,0-.07,0s.12.1.2.15c-.13,0-.05.12,0,.21l-.09,0c.15.12,0,.1-.08.14s-.13,0-.13,0a.69.69,0,0,1,.19.2.23.23,0,0,1-.15.07c.16.22,0,.28.05.46l-.12,0c.18.22-.08.29,0,.44l-.19-.08c-.07,0,0,.09.16.14-.07,0,.06.11-.1.08s.07.07.08.11-.09.07-.07.15l0,0s-.13,0-.14,0-.08.07.15.12c-.15,0,.06.2-.14.21a.28.28,0,0,1,.11.05c0,.06-.17.09-.07.17s-.11-.05-.12,0,.08,0,.11.06-.18.16-.17.26,0,.35-.05.51h-.05c.17.1-.21.08.05.18-.05,0,0,.05-.12,0,.12.07-.15.09,0,.18l0,0c-.12,0,0,.13-.1.17a.19.19,0,0,0-.08,0c-.1,0,.19.11,0,.07,0,0,.11,0,.11,0s0,.3,0,.46c-.16.08-.39-.06-.24.05,0,0,.09,0,0,0s-.26,0-.15.05.08,0,.17,0c-.11,0-.24,0-.14.12l-.07,0c.2.1.08.15.31.24,0,.34.09.68.08,1a4.65,4.65,0,0,1-.15,1c-.21.07-.2.07-.13.17s0,0-.07,0c.16,0,0,.06.17.08a1.45,1.45,0,0,0,0,.36s-.15,0-.14,0l.11,0h-.05a.24.24,0,0,0,.16,0c.12.32-.22.63-.18.95-.07.07,0,.18,0,.26-.22.24-.4.46-.25.71C407.58,302.43,407.16,302.4,407.06,302.29Z" transform="translate(-388.12 -261.16)"/><path class="cls-1" d="M409.63,291.9a.62.62,0,0,1-.2-.12A2.12,2.12,0,0,1,409.63,291.9Z" transform="translate(-388.12 -261.16)"/><path class="cls-1" d="M408.51,292.12l-.05,0s-.06-.05,0,0S408.48,292.09,408.51,292.12Z" transform="translate(-388.12 -261.16)"/><path class="cls-1" d="M408.36,292.27c-.06,0-.09-.1-.08-.13Z" transform="translate(-388.12 -261.16)"/><path class="cls-1" d="M408,292.3c-.07,0-.09,0-.08-.06Z" transform="translate(-388.12 -261.16)"/><path class="cls-1" d="M408.14,292.39l-.08,0C408.11,292.4,408,292.32,408.14,292.39Z" transform="translate(-388.12 -261.16)"/><path class="cls-1" d="M407.76,292.66s.05.06,0,0S407.67,292.61,407.76,292.66Z" transform="translate(-388.12 -261.16)"/><path class="cls-1" d="M407.77,292.89s0,0,0,0-.08,0-.08-.05Z" transform="translate(-388.12 -261.16)"/><polygon class="cls-1" points="18.78 35.15 18.75 35.12 18.82 35.14 18.78 35.15"/><path class="cls-1" d="M406.63,297.8s-.07,0-.09,0S406.63,297.83,406.63,297.8Z" transform="translate(-388.12 -261.16)"/><polygon class="cls-1" points="18.76 37.49 18.75 37.48 18.9 37.5 18.76 37.49"/><path class="cls-2" d="M435.32,272c-2.92,1.47-7.22,1-10.48,2.12-1.34.45-2.26,1.94-3.55,1.2C423.46,271.12,430,272.6,435.32,272Z" transform="translate(-388.12 -261.16)"/><path class="cls-2" d="M413.53,275.82c-2.8-2.9-8.56-3.26-13.68-4.18C404.28,271.5,413.88,271.19,413.53,275.82Z" transform="translate(-388.12 -261.16)"/><path class="cls-2" d="M423,307.39c-1.25,2.51-1-.45-6.91.51C413.74,307,421,306.63,423,307.39Z" transform="translate(-388.12 -261.16)"/><path class="cls-2" d="M430.17,284.92a11.5,11.5,0,0,1-.18,3.51c-.18.5-1.41,2.71-1,3.51s1.59,1.36,2.3.86-.35-3.38-.44-4.37" transform="translate(-388.12 -261.16)"/><path class="cls-2" d="M414.23,281.1c.19,3.4-3.63,3.19-6.3,2.91,1.5-.59,3.94-.25,5-1.29-1.29-.21-4.1.59-6.64.32-1.89-.2-5-1.53-4-1.29C406,282.77,411.21,282.56,414.23,281.1Z" transform="translate(-388.12 -261.16)"/><path class="cls-2" d="M422.86,282.07c-.3,1.27,2.94,1.87,5.31,1.62-2.48,1.37-6.89-.14-6.64-2.26,2.5.26,8.82,2.13,11.94,0C434.16,282.89,425.06,283.93,422.86,282.07Z" transform="translate(-388.12 -261.16)"/><path class="cls-2" d="M417.48,283.73c.33.07.2.59.6.59-.44,1.07-.3,3.22-.3,5.3,0,1.62.24,4.8-.3,4.12C417.8,290.27,416.56,286.83,417.48,283.73Z" transform="translate(-388.12 -261.16)"/><path class="cls-2" d="M412.34,294.92c.43.76.53,1.85.91,2.65C412.18,297.06,411.94,296.19,412.34,294.92Z" transform="translate(-388.12 -261.16)"/><path class="cls-2" d="M424.43,295.22c.85.66-.05,2.09-.61,2.35C423,296.9,424.85,296.43,424.43,295.22Z" transform="translate(-388.12 -261.16)"/><path class="cls-2" d="M416.27,297.57c-.71,0-.89-.5-1.81-.29C414.53,296.34,416.42,296.6,416.27,297.57Z" transform="translate(-388.12 -261.16)"/><path class="cls-2" d="M422.61,297c-.28.23-2.19,1-1.81,0C421.51,296.89,422.05,296.41,422.61,297Z" transform="translate(-388.12 -261.16)"/><path class="cls-2" d="M414,279c-1-.75-5.84-3.66-8.69-2.82C408.71,275.18,412.43,277.11,414,279Z" transform="translate(-388.12 -261.16)"/><path class="cls-2" d="M421.79,279.59c-.26-1.63,4.8-4.65,8.69-3.39C427.94,275.38,423.18,277.42,421.79,279.59Z" transform="translate(-388.12 -261.16)"/><path class="cls-2" d="M425.51,303.77s0,0,0-.06a9.73,9.73,0,0,0-4.09-1.57c-1.67-.81-7.74.76-9.11,1.65l-2.68,1.77a8.8,8.8,0,0,0,.55,1.17c1.38-.54,5.15-3.87,12.88-2.21v0a6.25,6.25,0,0,1,3,1c.88.84.84.92.84.92l.13-.07.92-.7A13.94,13.94,0,0,0,425.51,303.77Z" transform="translate(-388.12 -261.16)"/><rect class="cls-3" x="0.5" y="0.5" width="59.42" height="59.42"/><rect class="cls-4" x="0.27" y="60.25" width="60.15" height="10.4"/><rect class="cls-5" x="49.75" y="60.25" width="10.67" height="10.4"/><path d="M441.26,328.56a3.49,3.49,0,0,0,1.54.41c.8,0,1.21-.39,1.21-.88,0-.66-.65-.95-1.34-.95H442V326h.61c.52,0,1.17-.21,1.17-.77,0-.39-.31-.69-1-.69a3,3,0,0,0-1.38.4l-.31-1.12a4.13,4.13,0,0,1,2-.5c1.41,0,2.19.74,2.19,1.65a1.59,1.59,0,0,1-1.21,1.54v0a1.64,1.64,0,0,1,1.43,1.61c0,1.16-1,2-2.7,2a4,4,0,0,1-2-.46Z" transform="translate(-388.12 -261.16)"/></svg>