<svg id="Layer_1" data-name="Layer 1" xmlns="http://www.w3.org/2000/svg" viewBox="0 0 60.42 70.65"><defs><style>.cls-1,.cls-2{fill:#12100b;}.cls-1{fill-rule:evenodd;}.cls-3{fill:#fff;}.cls-4{fill:#1d1d1b;}.cls-5{fill:none;stroke:#1d1d1b;}.cls-6{fill:#bfbfbf;}.cls-7{fill:#f2f2f2;}</style></defs><path d="M442,294.28a25.43,25.43,0,0,0,.95-7.64c-.43,3.88-1.77,7.19-2.65,10.38-1.16,4.14-2.49,8.7-4.83,11.5-2.65,3.18-8.32,8.23-12.22,9.66-4.48,1.64-7.89-.28-11.17-2.16A29.8,29.8,0,0,1,400,303.87c-1.24-2.22-2.71-5-2.65-7.05-2-2.92-2.11-7.74-3.41-11.36A54,54,0,0,0,396.78,299a39.83,39.83,0,0,0,7.58,11.75,42.34,42.34,0,0,0,3.33,3.26c1.3,1,2.81,1.46,4.24,2.62a9.46,9.46,0,0,0,2.84,2c6.48,2.38,11.8-1.06,15.53-3.92,7-5.34,9.32-11.52,9.85-13.52C440.74,298.91,441.9,294.6,442,294.28Z" transform="translate(-388.16 -261.16)"/><path d="M394.23,287.26c0-3.29-1.15-6.57-1-10" transform="translate(-388.16 -261.16)"/><path d="M394.3,283.47a50.56,50.56,0,0,0-.42-7.39c-.24-1.49-.51-3-.62-4.46l0,.26,0-.46c0-.06,0-.12,0-.18q-.25-6.81,0,13.25c.11-3.07.06-6.15.05-9.23,0-1.49,0-3,0-4.48l0-.75c0-.36,0-.36,0,0-.09,2.59-.07,5.19-.07,7.79s0,5.07.06,7.6c0,.92.11,1.84.23,2.76.24,1.77.61,3.53.76,5.32l0-.27,0,.45c0,.06,0,.12,0,.18q.06,1.59,0-2.82c0,1.14,0,2.31,0,3.45.06,1,.07-1.22.06-.76.06-3.42.05-6.84,0-10.26Z" transform="translate(-388.16 -261.16)"/><path d="M442.55,292.48c.29-3,1.44-5.92,1.73-9,.14-2,0-4.27.14-6.41.29-4.27.87-9.69.44-13.8" transform="translate(-388.16 -261.16)"/><path class="cls-1" d="M421.25,302.73c.3.18-4.54.08-4.7.16-.32.35-4.73.77-6.39,1.11.11.09,0,.83.31.91,9.83-.29,16-.32,17.83-.16.12-.1,0-.74,0-.83" transform="translate(-388.16 -261.16)"/><path class="cls-2" d="M406.08,276.23c.06,1.58.59,3.48,2.5,3.73s2.64-1.9,2.38-3.48" transform="translate(-388.16 -261.16)"/><path class="cls-3" d="M407.66,277.08c-1.12-.32-.85,1.25-.2,1.31s.73-1.31.6-1.69" transform="translate(-388.16 -261.16)"/><path d="M407.62,277.21s0-.06,0,0Z" transform="translate(-388.16 -261.16)"/><path d="M408,276.78c.2,0,0,.1.15.13s-.1,0-.08,0,.08.13,0,.19h0s.07,0,.06,0H408c.06,0,0,0,.08,0l-.1,0H408c.16,0,0,.05.07.08s0,0,0,0,.07.1.1.15h-.09c.07,0,.09,0,.1,0s.06,0,0,0h0c.08,0,0,0,.05,0h-.06c.1,0-.05,0,0,0h0s0,0,0,0h0s0,0,0,0,0,0-.12,0a.18.18,0,0,1,0,.21H408l0,0h0s.08,0,0,0a.09.09,0,0,0-.07,0c.05,0,0,0,.05.06l0,0c.06,0,0,0,0,0l-.05,0c-.05,0,.09.05.05.05l0,0c.07,0,0,.06.05.09h0s0,0,0,.06-.1-.05-.1,0,0,.05.12.09-.07,0-.05,0l-.1-.07,0,0,0,0s0,0,0,0a.54.54,0,0,1,.11.14s-.09-.06-.09-.08l.11.15s-.06-.05,0,0l0,.05s0,0-.07,0,0,0,0,0,0,0,0,0h0s0,.05,0,.08,0,0,0,0,0,.07,0,.08a.09.09,0,0,0,0-.05.18.18,0,0,1,0,.14l0-.05c-.05,0,0,.11-.09,0s0,.05,0,0,0-.06,0,0,0,0,0,0,0,0,0,0,0,.11-.1.06,0,.09,0,.09v-.06s0,0,0,0,.06-.06,0,0,0,.1,0,0,0,.07-.05,0,0-.08,0-.08,0,0,0,.05v0c0,.05,0,0,0,.05h0s0,0,0-.05v-.07s0,.07,0,.1v0c0,.11,0,0-.05.07s-.06,0,0-.09-.06.06-.07,0l0,0s0,0,0,0a.34.34,0,0,0,0-.11,1.05,1.05,0,0,0-.07.11c0-.11-.08,0,0-.06s.05,0,.05-.06-.07,0-.06,0l-.05.08c0-.05-.06,0,0-.06s0,0-.05,0-.11,0,0-.16,0,0-.05,0,0,0,0,0l0,0s0,0,.07-.07-.13.08-.12,0,0,0,0,0l-.06,0s.06-.06.11-.1a.07.07,0,0,0-.06,0l.06-.05s0,0-.05,0h0s0,0,0,0,0,0,0,.05l-.06,0c.06,0,0,0,0,0s-.05,0-.05,0,0,0,0,0,0,0,0,0,.07,0,0,0-.11.06-.08,0l.06,0,0,0,0,0,0,0c-.06,0,0,0-.09,0s0,0,0,0h0s0,0,0,0h0s.19-.08.12-.07a.27.27,0,0,0-.13,0s-.07,0,0-.09h-.05c0-.05-.09-.07,0-.13s.06,0,.09,0,0,0,0,0-.07,0-.09,0,0-.05,0-.08h0c.08,0,.09,0,.06,0h-.05l.05,0s-.1,0-.06,0h0s-.11,0-.07-.05h.07s0,0-.07,0a.2.2,0,0,1,.11-.06c-.15,0-.15-.12-.14-.18h0s-.06,0,0,0a.5.5,0,0,1,.12,0s-.06,0-.07-.05,0,0,0,0,0,0,0,0l.11,0,0,0c.08,0,.14.07.24.07h0c.07,0,.07,0,.1,0a.33.33,0,0,0-.16-.05s-.17-.06-.15-.08,0,0,.06,0,0,0,0,0-.1,0-.11,0,.06,0,.08,0-.07-.05-.1,0,0,0,0,0,.13.07.18.06-.07-.06-.17-.08a.17.17,0,0,1,.11,0s-.09-.08,0,0l-.06,0,.07,0s0-.08,0,0,0,0-.05-.06,0,0-.06,0c.08,0,0,0,0-.06l0,0s0,0,0-.05l.05,0,0,0c0-.05.09.05.1,0l0,0s0,0,0,0l-.11-.11s.05,0,0,0l0,.06s.08.05.09,0a.15.15,0,0,0-.08-.1s0,0,.06,0,0,0-.05-.08l.14.06,0,.09h0c0,.06,0,0,.08.1s0,0,0,0-.08-.15-.15-.23.17.2.11,0,0-.11-.05-.07,0-.1,0-.08.08.09.08.16,0,0,0,0,.06.09.08.08,0,0,0-.07,0,0,0,0,.07,0,0-.06-.05,0-.07-.07l0,0v0c.05,0,0-.08,0-.08l0,.07c0,.07-.06,0,0,.09s0-.06,0,0v0s.07.15.06,0,0,0,0-.08,0-.07.05-.08,0,0,0,.09-.07,0-.06.05,0,0,0,.09.05.09.07.16,0,0,0,0l0-.12s0,0,0-.09,0,.09,0,.1a.06.06,0,0,1,.09,0c0-.1,0,0,0-.1a.58.58,0,0,1,0-.14s0,0,0,.06,0,.09,0,0,0,.13,0,.2,0,.06,0,.06a.19.19,0,0,1,0-.1c0,.08.06,0,.09,0a.74.74,0,0,0,0,.15s0-.1,0-.06v0s0,.07.05-.06l0,.1v0a.23.23,0,0,0,0,.07c0,.07,0,0,0,0V277s0,0,.06,0V277l0,0c0,.05,0,.09,0,0l-.06.13s0-.06,0-.12,0,0,0,0,0,0,0,0a.24.24,0,0,1,0,.12s0,0,0,0,0,0,0,0a.2.2,0,0,0,0-.07c0,.07,0,.09,0,.07s0,0,0,0a.75.75,0,0,1,0-.15s0,0,0,0a.54.54,0,0,1,0,.15v-.05s0,.1,0,.09a.06.06,0,0,0-.06,0v-.05c0,.1,0,0,0,.08s0,.06-.05,0,0,.08,0,.08l0-.07s0,0,0,0a.41.41,0,0,1,.06.11s0,0,0,.06l0,0c.06.07,0,0,0,0l-.06,0,.1.08s0,0-.06,0,0,.06.09.1h-.06c.12,0,0,.06.07.09h-.1s0,0,.1,0,.05,0,0,0,0,0,.07,0,0,0,0,0h0l-.07,0s0,0,.09,0c-.06,0,.07,0,0,.06h.06s-.05.05,0,0l-.05,0,.05,0c.07,0,0,.06,0,.08s.07,0,.09.05v0c.07-.07-.05.08,0,0l0,.05c0-.05,0,.06,0,0h0s0,0,0,0l0,0c0,.05.05-.09,0,0l0-.05s0,0,0,0h0l0,0c0,.07,0,.2,0,.11s0,0,0,0,0,.13,0,.07l0-.09c0,.05.05.11,0,.05v0a.64.64,0,0,0-.05-.17.61.61,0,0,1,0-.15c.06,0,0-.14.11-.22s.1,0,.06,0h0c-.08,0,0,0-.09,0s0-.08,0-.11h0c-.06-.1.11-.19.08-.29s0-.06,0-.08.17-.18.08-.2A.78.78,0,0,1,408,276.78Z" transform="translate(-388.16 -261.16)"/><path d="M407.6,277.22a.5.5,0,0,1,0-.12Z" transform="translate(-388.16 -261.16)"/><path d="M407.34,276.76s0,0,0,0,0,0,0,0S407.34,276.75,407.34,276.76Z" transform="translate(-388.16 -261.16)"/><path d="M407.23,276.75a.07.07,0,0,1,0-.08Z" transform="translate(-388.16 -261.16)"/><path d="M407.07,276.64s0-.05,0-.05Z" transform="translate(-388.16 -261.16)"/><path d="M407.09,276.72s0,0,0,0S407.07,276.66,407.09,276.72Z" transform="translate(-388.16 -261.16)"/><path d="M406.78,276.76s0,0,0,0S406.75,276.72,406.78,276.76Z" transform="translate(-388.16 -261.16)"/><path d="M406.72,276.9s0,0,0,0a.05.05,0,0,1,0,0Z" transform="translate(-388.16 -261.16)"/><polygon points="18.92 17.37 18.9 17.38 18.93 17.35 18.92 17.37"/><path d="M407.91,278.52s0,0,0,0S407.92,278.51,407.91,278.52Z" transform="translate(-388.16 -261.16)"/><polygon points="19.87 16.96 19.87 16.96 19.8 16.93 19.87 16.96"/><path class="cls-3" d="M408.91,278.6a.77.77,0,0,0,1.19,1c.73-.65-.13-1.63-1.05-1.09" transform="translate(-388.16 -261.16)"/><path d="M409,278.69s-.06,0,0,0S409,278.7,409,278.69Z" transform="translate(-388.16 -261.16)"/><path d="M409.14,278.55c0-.19.11-.06.12-.18s0,.1,0,.07.14-.1.22,0v0s0-.08,0-.07v.06c0-.06,0,0,0-.07v0c0-.16,0,0,.08-.07v0c.06-.09.12-.06.19-.08a.24.24,0,0,0,0,.09c0-.07.05-.08.07-.08s0-.05,0,0v0c.05-.07,0,0,.05,0v.05c.05-.09,0,.05,0,0v0s0,0,0,0h0s0,.05.06,0,0,0-.08.1c.11,0,.17,0,.22.09a.13.13,0,0,1,0,.06s0,0,.06,0l0,0s.08,0,.07,0l-.07,0c.06,0,.06,0,.09,0a.06.06,0,0,0-.05,0c.07,0,0,0,.05,0l0,0s.08,0,.06,0l0,0c.08,0,.07,0,.11,0h0s0,0,0,.06-.11,0-.09,0,.05,0,.15,0-.05.06,0,.07-.11,0-.12,0h-.09s0,0,0,0,.17,0,.18.05-.1,0-.12,0l.18.05s-.08,0,0,0h0s0,.05-.07,0h0s0,0,0,0h0s0,0,.08,0-.05,0,0,0,.07.05.06.06l-.06,0a.22.22,0,0,1,.09.11s-.07,0-.05,0,.06.1,0,.09.06,0,0,0-.07,0,0,0,0,0,0,0h0s0,.11,0,.11.06.07.05.08l0,0s0,0-.06,0,0-.09,0,0,.06.08,0,0,0,.07,0,.05-.05-.06-.06-.05,0,0,0,0v0s0,0,0,0,0,.05-.07,0l-.05-.05.07.09,0,0c.08.08,0,0,0,.08s0,0-.09,0,0,.08,0,.07,0,0,0,0,0,0,0,0l-.1-.06a.28.28,0,0,0,.08.11c-.08-.08,0,.08-.07,0a.1.1,0,0,0,0-.08c-.07-.08,0,.09,0,.06l.05.07s0,.06-.05,0,0,0,0,.07-.07.09-.16-.05c0,0,0,0,0,.05s0,0,0,0v0s0,0-.05-.08,0,.15,0,.13,0-.05,0,0v.07s0-.08-.06-.14,0,0,0,.06l0-.07c0,.05,0,0,0,.06v0s0,0,0,0a.11.11,0,0,0,0,.05s0,0,0,.06,0,0,0,0,0,.06,0,.06,0,0,0-.05,0,0,0,0,0-.08,0,0,0,.11,0,.08,0,0,0-.06l0,0v0c0,.06,0,0,0,.08s0,0,0,0h0s0,0,0,0h0s0,0,0,0,0-.21,0-.15a.28.28,0,0,0,0,.14s-.08.05-.1,0,0,0,0,0-.13,0-.13-.07,0-.05,0-.08,0-.06,0,0,0,.07,0,.1-.08,0-.08-.05a.08.08,0,0,1,0,.05c0-.08,0-.1,0-.08l0,.05v-.05s-.05.08-.05,0l0,0s-.09.07-.08,0l0-.07a.07.07,0,0,0,0,.05.13.13,0,0,1,0-.12c-.13.09-.21,0-.24,0l0,0s-.05,0,0,0,.05-.07.09-.09-.07,0-.09,0,0,0,0,0,0-.05-.05,0l.08-.08,0,0c.05-.07.14-.07.21-.16h0c.05-.05.08,0,.09-.07a.56.56,0,0,0-.14.1s-.15.11-.16.08,0,0,.07,0-.05,0,0,0a.17.17,0,0,1-.1.07s.06,0,.06-.06-.08,0-.09,0,0,0-.06,0,.14-.07.15-.11-.09,0-.16.09a.23.23,0,0,1,.09-.07s-.12,0,0,0l-.06,0,.05-.05s-.1,0,0,0,0,0-.08,0,.06,0,0,0,0,0-.05,0h0s0,0-.06,0,.05,0,.05,0l-.05,0s.09,0,.06-.06h.05s0,0,0,0l-.16.05s.06,0,0,0h.07l.07-.06a.15.15,0,0,0-.13,0s0,0,.06,0-.05,0-.09,0l.12-.09h.09c.07,0,0,0,.13,0s0,0,0,0-.17,0-.27.05.25-.08.08-.08-.12,0-.08,0-.11,0-.07,0,.1,0,.17,0,0,0,0,0,.11,0,.11,0,0,0-.08,0,0,0-.05,0,.06,0-.05,0-.05,0-.09,0l0,0h0s-.08,0-.07,0l.08,0c.08,0,0,.05.09,0s-.06,0,0-.05l0,0s.15,0,.06,0,0,0-.08,0-.06,0-.07-.07,0,0,.1,0-.05.06,0,.07,0,0,.09,0,.1,0,.17,0l0,0h-.13s0-.05-.08-.07a.16.16,0,0,1,.1,0s0-.06,0-.09,0,0-.1,0a.22.22,0,0,1-.14,0h.06s.09,0,0,0,.12,0,.2,0,.05,0,.05,0a.15.15,0,0,1-.08-.08c.08,0,0-.06,0-.09s.12,0,.14,0-.09,0-.05,0h0s.07,0,0-.07l.08.05,0,0,.07,0c.07,0,0,0,0,0h-.05c0-.05,0,0,0-.06l0,0,0,0s.08,0,0,0l.1.1s0-.05-.1-.07,0,0,0,0,0,0,0,0l.1.07s0,0,0,0,0,0,0,0-.05,0-.06,0,.07.05.05.06,0,0,0,0l-.13-.08h0l.14.08-.05,0s.09.05.08.06,0,0-.05.05h-.05c.1,0,0,0,.08.06s0,.05,0,.06.08.07.07.11h-.07s0,0,0,0,.08,0,.12,0,0,0,.07,0H409c.1,0,0,0,0,0l-.06,0,.13,0a.07.07,0,0,1,0,.06c.12,0,.08.05.16,0l0,0c.11-.06.07,0,.13,0l-.06.08s0,0,.07-.07,0,0,0,0,0,0,0-.05,0,0,0,0h0a.25.25,0,0,0,0,.07s0,0,0-.09c0,.08,0,0,0,.05v-.06s0,.07,0,0,0,.06,0,.06v-.06c0-.07,0,.06.06,0s.06,0,.09-.08v0c0-.09.08.07,0-.06l0,.05c0-.06.06,0,0-.05h0c.05,0,0,0,.06,0l0,0s0-.1,0,0l0,0c.06,0,0-.09.05-.13s.16.12.1.05,0,0,0,0,.12.06.07,0l-.07,0s.11,0,.07,0h0c-.08-.06,0-.05-.14-.11s-.07-.09-.09-.1,0,0,0-.11,0-.09,0-.07l0,0c0,.07,0,0-.06.07s0,0-.06,0,0-.07,0-.06l0,0v0a.45.45,0,0,0,0,.08c-.06.06-.1-.12-.18-.08s0,0-.06,0-.19-.14-.22,0A.78.78,0,0,1,409.14,278.55Z" transform="translate(-388.16 -261.16)"/><path d="M409,278.71a.27.27,0,0,1-.1-.06Z" transform="translate(-388.16 -261.16)"/><path d="M408.5,278.88h0s0,0,0,0Z" transform="translate(-388.16 -261.16)"/><path d="M408.46,279a.08.08,0,0,1-.06-.05Z" transform="translate(-388.16 -261.16)"/><path d="M408.31,279.1s-.05,0-.05,0Z" transform="translate(-388.16 -261.16)"/><path d="M408.39,279.11l0,0S408.33,279.1,408.39,279.11Z" transform="translate(-388.16 -261.16)"/><path d="M408.33,279.38s0,0,0,0S408.27,279.38,408.33,279.38Z" transform="translate(-388.16 -261.16)"/><path d="M408.42,279.47s0,0,0,0a0,0,0,0,1-.05,0Z" transform="translate(-388.16 -261.16)"/><polygon points="21.96 18.76 21.97 18.78 21.95 18.75 21.96 18.76"/><path d="M410.61,279.29h0Z" transform="translate(-388.16 -261.16)"/><polygon points="22.28 17.7 22.28 17.71 22.21 17.73 22.28 17.7"/><path class="cls-2" d="M427,276.37c.06,1.58.59,3.47,2.5,3.73s2.64-1.9,2.38-3.48" transform="translate(-388.16 -261.16)"/><path class="cls-3" d="M428.55,277.22c-1.12-.32-.86,1.25-.2,1.3s.73-1.3.6-1.68" transform="translate(-388.16 -261.16)"/><path d="M428.5,277.35s0-.07,0,0S428.5,277.37,428.5,277.35Z" transform="translate(-388.16 -261.16)"/><path d="M428.87,276.91c.2,0,0,.11.15.14s-.11,0-.08,0,.07.13,0,.2h0s.08,0,.07,0h-.06c.06,0,0,0,.07,0h0c.16,0,0,0,.07.07H429c.1.05.08.11.11.16H429a.19.19,0,0,1,.1,0c-.08,0,.06,0,0,0h0c.08,0,0,0,.05,0h-.06c.1,0-.06,0,0,0h0s0,0,0,0h0s0,0,0,0,0,0-.11,0c.07.07,0,.14,0,.21h-.07s0,0,0,.05h0s.08,0,0,0l-.07,0c.05,0,0,0,.05.06l0,0c.06,0,0,0,0,0l0,0c-.06,0,.09,0,.05.05l0,0c.07.05,0,.07.05.09h0s0,0,0,.07-.1-.06-.1,0,0,0,.11.09-.06,0,0,0-.1-.06-.1-.08l-.05,0,0,0s0,0,0,0,.11.12.11.15-.09-.06-.09-.08l.11.14s-.06,0-.05,0a.1.1,0,0,1,0,.05s0,0-.07,0l0,0s0,0,0,.05h0s0,0,0,.08,0,0,0,0,0,.07,0,.08l0-.06a.2.2,0,0,1,0,.15s0-.07,0-.06,0,.11-.08,0,0,.06,0,0,0-.06-.05,0,0,0,0,0,0,0,0,0-.05.12-.1.07,0,.09,0,.09v-.06s0,0,0,0,.06-.07,0,0,0,.09,0,0,0,.07,0,0,0-.09,0-.08,0,0,0,.05v0c0,.06,0,0,0,.06v0h0s0,0,0-.05v-.07s0,.07,0,.1v0c0,.11,0,0,0,.07s-.06,0-.05-.09-.06.06-.07,0l0,0s0,0,0,0a.34.34,0,0,0,0-.11.52.52,0,0,0-.07.11c0-.11-.08,0,0-.06s.05,0,.05-.07-.07.06-.06,0l-.05.08c0-.06-.06,0,0-.06s0,0-.05,0-.11,0,0-.16,0,0-.05,0,0,0,0,0l0,0s0,0,.07-.07-.13.08-.13,0,0,0,0,0l-.06,0s.06-.06.11-.1a.07.07,0,0,0-.06,0l.06-.06s0,0-.06,0h0s0,0,0,0,0,0,0,.05,0,0-.06,0,0,0,0-.05,0,0,0,0,0,0,0,0,0,0,0,0,.07,0,0,0-.11.06-.08,0l.05,0,0,0,0,0,0,0c-.06,0,0,0-.09,0s0,0,0,0h0s0,0,0,0h0s.19-.08.12-.07a.27.27,0,0,0-.13,0s-.08,0,0-.09h-.05c0-.05-.09-.07,0-.13s.05,0,.09,0,0,0,0,0-.07,0-.09,0,0-.06,0-.08h-.05c.08,0,.09,0,.06,0h-.05l.05,0s-.1,0-.06,0h.05s-.11,0-.07-.05h.07a.06.06,0,0,0-.07,0s0-.05.11-.06c-.15,0-.16-.12-.14-.18h0s-.07,0,0,0a.74.74,0,0,1,.12,0s-.06,0-.07-.05,0,0,0,0,.05,0,0,0l.11,0,0,0c.09,0,.14.07.25.07h0c.08,0,.08,0,.11,0a.47.47,0,0,0-.17,0s-.16-.06-.15-.08,0,0,.07,0,0,0,0,0a.23.23,0,0,1-.1,0s.06,0,.07,0-.06-.05-.09,0,0,0,0-.05.13.07.17.06-.06-.06-.16-.09l.1,0c.05,0-.09-.08,0,0l-.06,0,.08,0s-.06-.08,0,0,0,0-.06-.06,0,0-.05,0c.07,0,0,0,0-.06l0,0s0,0,0-.05l.05,0,0,0c0-.05.09.05.09,0l0,.05s.05,0,0,0l-.11-.11s.05,0,0,0l0,.06s.08.05.09,0-.05-.09-.08-.1,0,0,.06,0,0,0-.05-.08a1.39,1.39,0,0,1,.13.06l0,.08h0c0,.06,0,0,.08.1s0,0,0-.05-.08-.14-.15-.23.17.21.11,0-.05-.11-.05-.07,0-.1,0-.08.07.09.08.16,0,0,0,0,.06.09.07.08,0,0,0-.08,0,0,0,0,.06.05,0-.06-.05,0-.07-.08v0c.05,0,0-.08,0-.08l0,.07c0,.07-.06,0,0,.09s0-.06,0,0v0s.07.14.07.05,0,0,0-.08,0-.07,0-.08,0,0,0,.09-.08,0-.06,0,0,0,0,.09.06.09.08.15,0,0,0,0a.56.56,0,0,0,0-.12s0,0,0-.09a.58.58,0,0,1,0,.1.05.05,0,0,1,.08,0c0-.1,0,0,0-.11a.18.18,0,0,1,0-.13s0,0,0,.06,0,.09,0,0,0,.12,0,.2,0,.06,0,.06a.29.29,0,0,1,.06-.1c0,.08.06,0,.08,0s0,.13,0,.15,0-.1,0-.06v0s0,.07.05-.06l0,.09,0,0s0,.06,0,.08,0,0,0,0v-.06s0,0,.06,0l0,.06,0,0c0,.05,0,.08,0,0l-.06.13a.7.7,0,0,1,0-.12c0-.05,0,0,0,0s0,0,0,0,0,.07,0,.12,0,0,0,0,0,0,0,0,0,0,0-.07,0,.09,0,.07,0,0,0,0a.64.64,0,0,1,0-.15s0,0,0,0,0,.13,0,.16v-.05s0,.1,0,.09,0,0-.05,0v-.05c0,.11,0,0,0,.09s0,.06-.05,0,0,.09-.05.09l0-.07c0,.05,0,0,0,0s0,.07.06.11,0,0,0,.05l0,0c.06.07,0,0,0,0l-.06,0,.1.09h-.06c.09.06,0,.06.08.1h-.06c.13.05,0,.07.07.1h-.1s0,0,.1,0,.05,0,0,0,.05,0,.06,0,0,0,0,0h0l-.07,0s0,0,.09,0c-.06,0,.06,0,0,.07h.06s-.05.05,0,0l-.06,0,.06,0c.06,0,0,.07,0,.09s.07,0,.09.05h0c.07-.06,0,.09.05,0s0,0,0,.05,0,.07,0,0h0c0,.05,0,0,0,0l0,0c0,.05,0-.09,0,0v0s0,0,0,0h0l0,0c0,.07,0,.19,0,.11s0,0,0,0,0,.13,0,.06l0-.08s.05.1,0,.05l0,0a.58.58,0,0,0-.05-.16.61.61,0,0,1,0-.15c.05-.05,0-.15.11-.22s.1,0,.06,0h0c-.08,0,0,0-.08,0s0-.07,0-.11h0a.1.1,0,0,0-.08,0c-.06-.1.1-.2.08-.3s0-.05,0-.07.17-.18.08-.21A.78.78,0,0,1,428.87,276.91Z" transform="translate(-388.16 -261.16)"/><path d="M428.48,277.35a.61.61,0,0,1,0-.11Z" transform="translate(-388.16 -261.16)"/><path d="M428.22,276.9s0,0,0,0,0,0,0,0A.06.06,0,0,0,428.22,276.9Z" transform="translate(-388.16 -261.16)"/><path d="M428.11,276.89a.12.12,0,0,1,0-.08Z" transform="translate(-388.16 -261.16)"/><path d="M428,276.77s0,0,0,0A.06.06,0,0,1,428,276.77Z" transform="translate(-388.16 -261.16)"/><path d="M428,276.85s0,0,0,0S428,276.8,428,276.85Z" transform="translate(-388.16 -261.16)"/><path d="M427.67,276.9s0,0,0,0S427.64,276.85,427.67,276.9Z" transform="translate(-388.16 -261.16)"/><path d="M427.6,277s0,0,0,0,0,0,0,0Z" transform="translate(-388.16 -261.16)"/><polygon points="39.81 17.51 39.79 17.52 39.82 17.49 39.81 17.51"/><path d="M428.8,278.66s0,0,0,0S428.81,278.64,428.8,278.66Z" transform="translate(-388.16 -261.16)"/><polygon points="40.76 17.1 40.76 17.1 40.69 17.06 40.76 17.1"/><path class="cls-3" d="M429.8,278.74a.77.77,0,0,0,1.19,1c.72-.65-.13-1.63-1.06-1.09" transform="translate(-388.16 -261.16)"/><path d="M429.9,278.83s0,0,0,0S429.93,278.84,429.9,278.83Z" transform="translate(-388.16 -261.16)"/><path d="M430,278.69c0-.19.11-.06.12-.18s0,.1,0,.07.14-.1.21,0v0s0-.08,0-.07,0,0,0,.05,0,0,0-.07v0c0-.16.06,0,.09-.06s0,0,0,0,.13-.06.2-.08a.24.24,0,0,0,0,.09c0-.07,0-.08.06-.08s0-.06.06,0h0c0-.06,0,0,.05,0l0,.06c.05-.09,0,.05,0,0v0s0,0,0,0h0s0,0,.05,0,0,0-.07.1.17,0,.22.1a.31.31,0,0,1,0,.06s0,0,.06,0l0,0s.08,0,.06,0l-.06,0c.05,0,.06,0,.08,0l0,0c.07,0,0,0,0,0l0,0s.09,0,.07,0l-.05,0c.09,0,.08,0,.11,0h0s0,0,0,.06-.11,0-.08,0,0,0,.14,0,0,.07,0,.08-.11,0-.12,0l-.05,0h0s0,0,0,0a.4.4,0,0,1,.18,0h-.12l.17,0s-.07,0-.05,0l.06,0s0,0-.07,0h-.05s0,0,0,0h0s0,0,.09,0-.06,0,0,0,.06,0,.06.06l-.06,0a.22.22,0,0,1,.09.11s-.07,0,0,0,0,.11,0,.1l.05,0s-.07,0-.06,0,0,0,0,0,0,0,0,0,0,.11,0,.11a.21.21,0,0,1,.06.08l-.05,0s0,0-.05,0,0-.09,0,0,.06.08,0,0,0,.07,0,0-.06-.06-.06,0,0,0,0,0v0s0,0,0,0,0,.05-.07,0l0-.05s0,.06.06.09l0,0c.08.08,0,0,0,.08s0,0-.1,0,0,.07,0,.07,0,0,0,0,0,0,0,0l-.09-.06a.67.67,0,0,0,.07.11c-.07-.08,0,.08-.06,0s0,0,0-.07,0,.08,0,.06l.05.07s0,.06-.05,0,0,0,0,.06-.07.09-.16,0c0,0,0,0,0,.05s0,0,0,0,0,0,0,0,0,0,0-.09,0,.16,0,.14,0-.05,0,0v.06s0-.07-.06-.13,0,0,0,.06l0-.07s0,0,0,.06v0s0,0,0,0a.1.1,0,0,0,0,.06s0,0,0,.06,0,0,0,0,0,.06,0,.06,0,0,0,0,0,0,0,0,0-.08,0,0,0,.12,0,.09v-.07l0,0v0s0,0,0,.08,0,0,0,0h0s0,0,0,0v0a.07.07,0,0,0,0,0s0-.21,0-.14,0,.1,0,.14-.08,0-.1-.05,0,0,0,.05-.12,0-.13-.07,0-.06,0-.09,0,0,0,0,0,.07,0,.09-.09,0-.08,0,0,0,0,0,0-.09,0-.07l0,0v-.05s0,.09,0,0l0-.05s-.09.08-.09,0l0-.07s-.05,0-.05.06a.25.25,0,0,1,0-.12c-.12.09-.2,0-.24,0l0,0s-.05,0,0,0,0-.06.08-.08-.06,0-.09,0,0,0,0,0,0,0-.05,0,.06-.05.08-.07h0c.05-.06.14-.07.2-.15h0c.05-.06.08,0,.08-.07a.45.45,0,0,0-.14.1s-.14.1-.16.07,0,0,.07,0,0,0,0,0a.18.18,0,0,1-.1.06s.06,0,0-.05-.07,0-.08.05,0,0-.06,0,.14-.06.15-.1-.09,0-.16.08a.16.16,0,0,1,.09-.06s-.12,0,0,0l-.06,0,.05-.05s-.1,0,0,0,0,0-.08,0,.06,0,0,0,0,0,0,0l0,0s0,0-.05,0l.05,0-.06,0s.1-.05.07-.07h.05s0,0,0,0l-.15,0s.05,0,0,0h.06s.08,0,.07-.06a.14.14,0,0,0-.12,0,.06.06,0,0,1,.06,0s-.05,0-.09,0l.12-.08h.09c.07,0,.05,0,.12,0s0,0,0,0-.17,0-.28.05.26-.08.08-.08c0,0-.11,0-.07,0s-.12,0-.08,0,.11,0,.18,0,0,0,0,0,.11,0,.1,0,0,0-.07,0,0,0-.06,0,.07,0,0,0,0,0-.1,0h0s-.08,0-.07,0l.08,0c.07,0,0,.05.09,0s-.06,0,0-.05h0s.16,0,.07,0,0,0-.08,0-.06-.05-.07-.07,0,0,.09,0,0,.06,0,.07,0,0,.09,0,.1,0,.17,0h-.16s0-.05-.08-.07a.16.16,0,0,1,.1,0,.08.08,0,0,1,0-.09c-.1,0,0,0-.11,0a.29.29,0,0,1-.14,0s0,0,.07,0,.09,0,0,0,.12,0,.19.05.06,0,.06,0a.29.29,0,0,1-.08-.08c.08,0,0-.07,0-.09s.12,0,.14,0-.09,0-.05,0h0s.06,0-.05-.07l.09,0s0,0,0,0l.07,0c.07,0,0,0,0,0l-.06,0s0,0,0-.06l.05,0,0,0s.07,0,0,0l.1.1s-.05,0-.1-.06,0,0,0,0,0,0,0,0l.1.08s0,0,0,0,0,0,0,0l-.07,0c.06,0,.08.05.05.05s0,.05,0,.05l-.13-.08s0,0,0,0l.14.08,0,0s.09,0,.07,0a.07.07,0,0,0,0,.06h-.05c.1,0,0,0,.08.06s0,.05-.05.06.08.06.07.11h-.07c.05,0-.05,0,0,0s.07,0,.12,0,0,0,.07,0h0c.09,0,0,0,0,.05s-.06,0-.05,0a.45.45,0,0,1,.13,0l0,.06c.12,0,.08,0,.16,0l0,.05c.11-.06.06,0,.12,0l-.06.08s0,0,.07-.07,0,0,0,0,0,0,0-.05,0,0,0,0h0s0,.06,0,.06,0,0,0-.08c0,.07,0,0,0,.05l0-.07s0,.07,0,0,0,.06,0,.06v-.06c0-.07,0,.06.06,0s.06,0,.09-.08v0c0-.09.08.07,0-.06s0,0,0,0,.07,0,0,0h0s0,0,.06,0l0,0s-.05-.09,0,0l0,0c.07,0,0-.09,0-.13s.16.12.1,0,0,0,0,0,.11.06.07,0,0,0-.07-.05.11,0,.07,0l0,0c-.08-.06,0-.05-.14-.11s-.07-.09-.1-.11,0,0,0-.11,0-.08,0-.06l0,0c0,.07,0,0-.06.07s0,0-.06,0a.36.36,0,0,0,0-.07l0,.05v0a.49.49,0,0,0,0,.07c-.05.07-.09-.11-.17-.08s0,0-.06,0-.19-.13-.23,0S430,278.75,430,278.69Z" transform="translate(-388.16 -261.16)"/><path d="M429.9,278.85l-.1-.06Z" transform="translate(-388.16 -261.16)"/><path d="M429.39,279s0,0,0,0,0,0,0,0Z" transform="translate(-388.16 -261.16)"/><path d="M429.35,279.12a.09.09,0,0,1-.07,0Z" transform="translate(-388.16 -261.16)"/><path d="M429.2,279.24s-.05,0-.05,0Z" transform="translate(-388.16 -261.16)"/><path d="M429.28,279.24l0,0S429.22,279.24,429.28,279.24Z" transform="translate(-388.16 -261.16)"/><path d="M429.21,279.51s0,0,0,0S429.16,279.52,429.21,279.51Z" transform="translate(-388.16 -261.16)"/><path d="M429.3,279.61h0s0,0-.05,0Z" transform="translate(-388.16 -261.16)"/><polygon points="42.85 18.9 42.85 18.92 42.83 18.89 42.85 18.9"/><path d="M431.49,279.43s0,0,0,0Z" transform="translate(-388.16 -261.16)"/><polygon points="43.17 17.84 43.17 17.84 43.1 17.86 43.17 17.84"/><path class="cls-1" d="M418.32,282.27c.34.08.21.65.63.65-.46,1.2-.31,3.58-.31,5.9,0,1.8.25,5.34-.32,4.59C418.65,289.54,417.34,285.71,418.32,282.27Z" transform="translate(-388.16 -261.16)"/><path class="cls-1" d="M414,279.39c.74,1.13-5.29,2.57-8.29,1.64C408.41,280.44,412.14,280.88,414,279.39Z" transform="translate(-388.16 -261.16)"/><path class="cls-1" d="M424.51,279.72c2,0,5.2,1.64,8.93,1C430.7,282.13,426.66,280.89,424.51,279.72Z" transform="translate(-388.16 -261.16)"/><path class="cls-1" d="M412.89,294.72c.45.84.56,2,1,2.94C412.72,297.09,412.47,296.13,412.89,294.72Z" transform="translate(-388.16 -261.16)"/><path class="cls-1" d="M425.65,295c.91.74,0,2.33-.63,2.62C424.11,296.92,426.1,296.4,425.65,295Z" transform="translate(-388.16 -261.16)"/><path class="cls-1" d="M417,297.66c-.75,0-.94-.56-1.91-.32C415.2,296.29,417.19,296.59,417,297.66Z" transform="translate(-388.16 -261.16)"/><path class="cls-1" d="M423.74,296.94c-.3.25-2.32,1.08-1.92,0C422.57,296.84,423.14,296.3,423.74,296.94Z" transform="translate(-388.16 -261.16)"/><path class="cls-1" d="M404.92,274.36c3.39-1.58,8.26-.31,9.89,2A12.66,12.66,0,0,0,404.92,274.36Z" transform="translate(-388.16 -261.16)"/><path class="cls-1" d="M434,274c-1.21.83-2.38-.08-3.83,0-2.84.16-5.08,2.15-6.06,2C426.05,273.94,430.05,273.15,434,274Z" transform="translate(-388.16 -261.16)"/><path class="cls-1" d="M406.51,276.65c-1.44.16-2.17,1.05-3.51,1.31.31-1.63,10.67-3.76,11.81.65-2-.47-2.58-2.38-5.11-2.29" transform="translate(-388.16 -261.16)"/><path class="cls-1" d="M427.57,276.65c-1.86.06-2,1.87-3.83,2,1.54-3.67,9.73-3.19,12.12-.65-.87-.09-3.14-1.57-5.1-1.64" transform="translate(-388.16 -261.16)"/><path class="cls-1" d="M437.45,270.33c-2.92,1.14-7,.36-10.26,1.11-1.33.31-2.33,1.63-3.51.83C426.09,268.52,432.29,270.45,437.45,270.33Z" transform="translate(-388.16 -261.16)"/><path class="cls-1" d="M414.93,273.15c-3-2.47-8.69-2.21-13.79-2.55C405.46,270,414.82,268.71,414.93,273.15Z" transform="translate(-388.16 -261.16)"/><path class="cls-1" d="M424,308.5c-.34-3.05-4-.87-8-1.55C413.18,309,421.84,308.08,424,308.5Z" transform="translate(-388.16 -261.16)"/><path class="cls-4" d="M408.85,288.9s-.12,0,0,0S408.9,288.9,408.85,288.9Z" transform="translate(-388.16 -261.16)"/><path class="cls-4" d="M406.25,299.87c-.38-.14,0-.32-.24-.47,0,0,.21,0,.16,0-.29-.15-.1-.38.13-.54h.06s-.15-.08-.12-.11h.11c-.12,0-.05-.06-.14-.08l.19,0-.13,0c-.32-.07,0-.14-.13-.22h.08c-.18-.14-.13-.29-.19-.44l.18,0c-.14,0-.17-.07-.19-.11.14,0-.13-.07,0-.11h0c-.15-.05.09,0-.09-.09H406c-.2,0,.11,0,0-.07h0c-.05,0,.05,0,0-.06h0c-.05-.06.07-.08-.09-.1.12,0,.05.06.24.05a.67.67,0,0,1-.08-.56.27.27,0,0,1,.15,0s0-.08-.1-.1h.09c.07,0-.17-.06-.09-.09l.15,0c-.12-.05-.1-.09-.13-.13l.09,0c-.13-.06,0-.07,0-.12l.09,0c.11,0-.19-.05-.12-.09a.29.29,0,0,0,.1,0c-.16-.07-.1-.14-.15-.19h0c0-.06.05-.1,0-.16s.22,0,.2,0c-.18,0-.06-.1-.27-.1,0,0,.11-.1.06-.14s.22,0,.23.05h.12c.07,0,0,0,.06,0s-.06-.08,0-.09-.31-.12-.32-.18.2,0,.23,0l-.34-.14s.15,0,.1,0l-.11,0s0-.09.15-.06,0,0,.1,0-.06-.05-.06-.09h0s-.07-.08-.17-.08.11,0,0,0-.12-.08-.12-.11l.13,0a.63.63,0,0,1-.22-.2c-.08,0,.15,0,.11,0,.13,0-.14-.17,0-.19h-.1s.14,0,.1,0,0,0,0-.05,0,0,0,0-.15-.19,0-.23c-.05,0-.16-.08-.15-.1l.11,0c.07,0,0-.05.09,0-.12-.06.09.16,0,.09.09,0-.17-.1,0-.06s-.11-.09,0-.1.15.06.15,0-.05,0-.08-.07l0,0c-.11,0,0,0-.11,0,.1,0,0-.08.14,0l.14,0s-.14-.06-.2-.09h.07c-.22-.06,0,0-.14-.11.09,0,0-.1.17-.09-.05-.05-.12-.09-.07-.12s0,0,.07,0,0,0,0-.06.14,0,.22,0a.85.85,0,0,0-.24-.08c.22,0-.12-.12.08-.11a.26.26,0,0,0,.16.06c.22,0-.15-.1,0-.12l-.18,0c.11,0-.09-.09.09,0-.06,0,.07,0-.1-.08.17,0,0-.21.28-.17,0,0,0,0-.08-.06s.06,0,0,0l-.08,0c.05,0,.07,0,.2,0s-.27-.13-.19-.18.1,0,.09,0l-.11-.07s.17,0,.29.05,0-.05-.09-.09l.16,0c-.11,0-.06,0-.09-.06l0,0c.05,0,0,0,0,0a.32.32,0,0,0-.14,0s0,0-.09-.07c.12,0,.1,0,.12,0s-.1-.05-.1-.06,0,0,.1,0-.06,0,0,0,.15,0,.09,0-.24-.06-.15-.08l.11.06.07,0-.1,0h.05c-.11,0,0-.06-.14-.11s.08,0,.1,0h0c.07,0,0,0,0-.08h0s0-.05-.05-.08.4.11.28,0-.18-.11-.25-.12-.07-.15.11-.15c0,0-.07,0-.09-.05s-.07-.21.16-.21a.31.31,0,0,0,.17.05c-.09-.05.1,0-.06-.05a.37.37,0,0,0-.19,0c0-.07,0-.14.09-.14a.15.15,0,0,1-.1,0c.15.05.19,0,.14,0l-.09,0h.1s-.19-.08-.09-.07l.1,0c-.07-.05-.18-.13-.09-.14l.14,0a.16.16,0,0,0-.13-.05c.1,0,.12-.06.24,0-.25-.18-.22-.32-.16-.41l.07,0c.07,0-.12-.06-.06-.06a1.19,1.19,0,0,1,.22.08c.09,0-.1-.1-.12-.13s0,0-.06,0,.09,0-.05-.08l.21.07-.06,0c.17,0,.26.17.47.21v0c.15,0,.14.11.21.08a.83.83,0,0,0-.32-.14c0-.07-.32-.15-.29-.2s0,0,.12.09,0-.08,0-.09a.34.34,0,0,1-.21-.09c.07,0,.12.07.15,0s-.12-.09-.19-.08.06,0-.07-.09c.13,0,.28.14.36.12-.13,0-.15-.11-.33-.15a.4.4,0,0,1,.2.07c.09,0-.2-.14.05-.06l-.13-.06.15,0s-.14-.13.05-.06c0,0,0-.05-.13-.08s.08.07-.1,0c.15,0,0-.05,0-.09l.07,0s0,0-.07-.08l.11,0-.11-.06c0-.06.2.07.18,0l.07.06s.1,0,.07,0l-.29-.14s.12,0,0,0l.11.07s.17.05.18,0a.41.41,0,0,0-.23-.1s.08,0,.14,0-.11,0-.16-.09l.29,0,.15.09v0c.13.08.11,0,.25.1s0,0-.05-.07c-.24,0-.29-.17-.5-.23,0-.08.51.16.22,0-.06,0-.21-.1-.16,0s-.2-.11-.1-.12.22,0,.33.15c-.07,0-.06,0-.05,0s.21.08.22.05,0-.06-.11-.1,0,0-.11,0,.16,0,0-.09c0,0-.12,0-.2,0l0-.06.08,0c.07,0-.14-.07-.1-.11l.17,0c.12.06-.09,0,.13.12,0,0-.09-.08,0-.09l0,0s.3.1.15,0-.07,0-.15-.07-.08-.11-.08-.15c.15.07,0-.05.18.05-.1,0-.12.06,0,.14s0,0,.15.12c0,0,.2,0,.32.08s0,0-.05-.06-.11,0-.23-.08c0,0,0-.1-.09-.17.06,0,.17.06.17.08a.16.16,0,0,1,.09-.16c-.2,0,0-.07-.18-.12a.53.53,0,0,1-.28-.07s.09,0,.13.05.17,0,0-.06c0,.08.22.11.36.18-.06-.07.11,0,.12,0a.53.53,0,0,1-.12-.19c.15,0,.05-.12.07-.17s.24.09.27.08-.18-.05-.09-.07l0,0s.15,0-.08-.14l.17.09s0,0,0,0a.37.37,0,0,1,.14.06c.14,0,0-.06,0-.09l-.12,0c-.06-.09.06-.07.05-.14l.1,0-.05-.06c.09.05.17.05.09,0l.22.19c-.07,0-.11-.08-.22-.11s-.08,0,0,.08,0,0,0-.05c.14.05.12.08.21.13s.05,0,0,0,.06.07.05.1-.09,0-.13,0c.13.06.15.1.1.12s.06.11,0,.14a1.29,1.29,0,0,1-.25-.19c-.08,0,0,0-.09,0a1.26,1.26,0,0,1,.27.18l-.09,0s.17.11.13.13a.42.42,0,0,0-.14.17l-.09,0c.19.11,0,.13.1.2-.11,0,0,.18-.14.15,0,.15.05.28,0,.38l-.13-.07c.09.06-.08,0-.07,0s.13.09.21.13c-.13,0,0,.13,0,.22l-.1,0c.16.12,0,.12-.07.16s-.14,0-.13,0a.93.93,0,0,1,.2.19.17.17,0,0,1-.15.09c.17.22,0,.3.06.48l-.11,0c.19.22-.08.31,0,.46l-.19-.07c-.07,0,0,.09.16.13-.07,0,.07.12-.1.09s.07.08.09.11-.09.09-.08.17l0,0s-.12,0-.14,0-.08.08.16.13c-.16,0,.05.2-.15.22.07,0,.07,0,.11,0s-.17.1-.07.18-.11-.05-.12,0,.08,0,.11.05-.18.18-.18.28,0,.37-.06.54l-.05,0c.17.11-.22.08,0,.2,0,0,0,0-.12,0,.12.08-.15.09,0,.2s0,0,0,0,0,.13-.1.18a.19.19,0,0,0-.08,0c-.09,0,.19.11,0,.07,0,0,.11,0,.1,0-.12.13,0,.33,0,.49-.17.08-.39-.08-.24.05,0,0,.09,0,0,0s-.27,0-.15.05.07,0,.16.05c-.11,0-.24,0-.14.12l-.07,0c.19.1.07.16.3.26,0,.35.06.71,0,1.05a5,5,0,0,1-.19,1c-.21.06-.21.06-.14.16H407c.16,0,0,.06.16.09a1.14,1.14,0,0,0,0,.37s-.15,0-.14,0l.1,0h0a.22.22,0,0,0,.15,0c.12.33-.23.64-.2,1-.07.08,0,.19,0,.27-.22.25-.4.47-.25.73C406.77,300,406.34,300,406.25,299.87Z" transform="translate(-388.16 -261.16)"/><path class="cls-4" d="M408.85,289a.42.42,0,0,1-.22-.08Z" transform="translate(-388.16 -261.16)"/><path class="cls-4" d="M407.76,289.35h-.05s-.06-.05,0,0Z" transform="translate(-388.16 -261.16)"/><path class="cls-4" d="M407.63,289.52a.18.18,0,0,1-.1-.12Z" transform="translate(-388.16 -261.16)"/><path class="cls-4" d="M407.28,289.59c-.06,0-.09,0-.08,0Z" transform="translate(-388.16 -261.16)"/><path class="cls-4" d="M407.43,289.66s-.05,0-.09,0S407.32,289.61,407.43,289.66Z" transform="translate(-388.16 -261.16)"/><path class="cls-4" d="M407.08,290s.05,0,0,0S407,289.93,407.08,290Z" transform="translate(-388.16 -261.16)"/><path class="cls-4" d="M407.11,290.2s0,0,0,0a.12.12,0,0,1-.08-.05Z" transform="translate(-388.16 -261.16)"/><polygon class="cls-4" points="18.13 32.53 18.1 32.5 18.17 32.52 18.13 32.53"/><path class="cls-4" d="M406,295.21s-.07,0-.09,0S406,295.24,406,295.21Z" transform="translate(-388.16 -261.16)"/><polygon class="cls-4" points="18.01 34.94 18.01 34.93 18.16 34.95 18.01 34.94"/><path class="cls-4" d="M427.5,288.47s-.12,0-.06,0S427.54,288.45,427.5,288.47Z" transform="translate(-388.16 -261.16)"/><path class="cls-4" d="M431.1,300.05c-.41,0-.11-.32-.4-.39,0,0,.2-.06.14-.09-.33,0-.25-.33-.1-.59h.06s-.17,0-.16-.06.06,0,.11,0c-.12,0-.08,0-.17,0l.17-.09-.13,0c-.32.05,0-.15-.21-.17a.12.12,0,0,0,.08,0c-.23-.06-.25-.23-.37-.34l.18-.06c-.14,0-.19,0-.23,0,.13-.07-.14,0-.08-.09h0c-.16,0,.06-.08-.12,0l.1-.06c-.2.05.09-.08,0-.08l0,0c-.06,0,0-.06,0-.07h0c-.07,0,0-.11-.12-.05.11-.06.07,0,.24-.06a.75.75,0,0,1-.32-.5c.05,0,.06-.07.12-.09s-.05-.06-.14-.05.08,0,.08-.05-.18,0-.12,0l.15,0c-.13,0-.13,0-.18-.07h.09c-.14,0,0-.09-.09-.09l.09,0c.09-.09-.19.05-.14,0l.1,0c-.18,0-.15-.08-.22-.11h0s0-.11-.1-.14.22-.07.17-.11-.11-.06-.29,0c0-.06.05-.15,0-.16s.21-.1.24-.07l.09-.06c.07,0,0,0,.07,0s-.1,0-.08-.08-.33,0-.37,0,.19-.08.23-.07l-.37,0s.14-.05.09-.07l-.12,0s-.07-.07.1-.14,0,0,.1,0-.08,0-.09,0h0s-.09,0-.18,0,.1,0,.06,0-.15,0-.16-.05l.12,0a.58.58,0,0,1-.28-.06c-.08,0,.15,0,.11,0s-.21-.09-.06-.2-.11.05-.09,0,.12-.08.07-.08,0,0-.06,0h0c-.07,0-.21-.09-.13-.19s-.19,0-.19,0l.11,0c.06,0,0-.05.07-.08-.15,0,.15.09,0,.08.09,0-.19,0,0-.05,0,0-.15,0-.05-.08s.15,0,.14-.05-.06,0-.11,0h-.05c-.1,0,0,0-.11,0,.09,0-.08-.05.1-.1l.14,0s-.16,0-.22,0l.06,0c-.21.07,0-.05-.17,0,.06-.07,0-.11.1-.17-.08,0-.16,0-.13-.07a.2.2,0,0,0,.08,0c.05,0,0,0,0,0s.11-.09.18-.14a.88.88,0,0,0-.26.06c.2-.1-.16,0,0-.14,0,0,.12,0,.16,0,.2-.09-.17,0-.09-.08l-.17.06c.1-.05-.12,0,.06-.08-.07,0,0-.08-.13,0,.12-.12-.15-.16.14-.3,0,0,0,0-.1,0s.08,0,0,0h-.08s0,0,.18-.08-.3,0-.26-.05.1,0,.08-.05H428s.15-.07.27-.11c0,0,0-.05-.12,0l.14-.08c-.11.06-.08,0-.11,0h0c.05,0,0,0,0-.05a.17.17,0,0,0-.11.08c-.06,0-.05,0-.12,0,.12,0,.07-.07.08-.09s-.11,0-.11,0,0,0,.09,0-.06,0,0,0,.15-.06.06-.07-.23.08-.17,0,.08,0,.13,0l.05-.06-.11,0,.05,0c-.12,0-.05-.05-.18,0s.06-.06.06-.08h0c.06-.05,0-.06-.07-.06h0s0,0-.08,0,.39-.14.25-.13-.21,0-.27,0-.14-.09,0-.2a.18.18,0,0,1-.1,0c0-.1-.18-.14,0-.27s.11,0,.17-.05c-.1,0,.09-.06-.08,0a.47.47,0,0,0-.17.07c-.07,0-.09-.11,0-.17a.15.15,0,0,1-.11,0c.16,0,.17-.09.11-.1l-.1,0,.09-.05s-.2.05-.11,0l.09,0c-.08,0-.22,0-.15-.07l.12-.07a.29.29,0,0,0-.14,0c.07-.08.07-.12.18-.17-.31,0-.37-.14-.38-.26l.08,0c.05,0-.13,0-.09,0a1.28,1.28,0,0,1,.23-.06c.06-.07-.14,0-.18,0s.07,0,0,0,.06-.08-.09-.05l.22-.05h-.08c.16-.08.32,0,.51-.1l0,0c.14-.06.18,0,.22-.06a.89.89,0,0,0-.34.07c-.06,0-.35.07-.35,0s0,0,.14,0-.07,0,0-.07a.37.37,0,0,1-.22,0s.13,0,.14-.06-.16,0-.21,0,0-.06-.11,0c.13-.05.31,0,.37-.1-.13,0-.19,0-.37.06a.67.67,0,0,1,.21-.06c.07,0-.24,0,0-.08l-.13,0,.13-.07s-.19,0,0-.08c0,0,0-.06-.15,0s.11,0-.07.08c.14-.07,0,0-.08-.05l.07,0s0,0-.11,0a.14.14,0,0,0,.11,0l-.11,0c-.07,0,.19-.06.15-.1h.1s.08,0,0-.06l-.32.06c-.05,0,.11,0,0,0h.13s.17-.07.16-.1a.33.33,0,0,0-.25,0s.05-.06.13-.06-.11,0-.18,0l.24-.16h.18v0c.15,0,.1,0,.25-.07s0,0-.08,0c-.22.11-.33,0-.54.11s.51-.18.16-.16c0,0-.22,0-.15.06s-.22,0-.15,0,.21-.1.35-.08c-.07,0-.05,0,0,0s.22,0,.21-.09,0-.05-.15,0,0,0-.1.05.12-.09-.1-.05c0,0-.1.06-.18.08l-.06,0h.08c.05-.07-.15,0-.14,0l.15-.07c.14,0,0,.1.18,0,0,0-.11,0-.06-.07h.05s.3-.1.11-.11-.08,0-.17,0-.13-.05-.15-.08c.17,0,0-.07.18-.07-.09,0-.06.12.1.1s0,.05.18,0c0,0,.19-.09.31-.13s-.05,0-.07,0-.11.05-.23.08-.06-.09-.19-.09c.06,0,.18-.06.19,0a.18.18,0,0,1,0-.19c-.18.09-.06-.05-.21,0a.48.48,0,0,1-.26.11s.08,0,.12,0c-.11,0,.16-.08,0-.06.08,0,.24-.05.39-.08-.09,0,.11,0,.1-.06a.46.46,0,0,1-.21-.09c.13-.09,0-.14-.05-.19s.24-.07.27-.1-.18.07-.12,0h0s.09-.11-.16-.07l.19,0s0,0-.05,0l.16,0c.12-.06,0-.05-.05-.09l-.1.05c-.1,0,0-.1-.06-.14l.11,0-.07,0c.11,0,.17-.06.08-.05l.28,0c-.06,0-.14,0-.24,0s-.05.08.06.06,0,0-.06,0a.79.79,0,0,1,.25,0s0,0,0,0,.09,0,.1.05-.09,0-.13,0c.13,0,.18,0,.15.05s.12.05.09.11a1,1,0,0,1-.31,0c-.07.05,0,0-.05.08a1.18,1.18,0,0,1,.32,0l-.09,0c.05,0,.2,0,.18,0a.44.44,0,0,0,0,.23l-.1,0c.22,0,.1.08.21.1-.08.1.13.14,0,.22a.53.53,0,0,1,.21.35h-.15c.11,0-.08,0-.05.06s.16,0,.25,0c-.09.08.05.13.16.16l-.1,0c.2,0,.06.11,0,.19s-.12.05-.11.07a.69.69,0,0,1,.28,0,.22.22,0,0,1-.06.17c.26.08.16.27.33.38l-.11.05c.29.07.12.31.28.4l-.2.05c0,.05.08.07.21,0,0,.06.13.07,0,.14s.11,0,.14.05,0,.12,0,.19v0a.22.22,0,0,0-.13.05c.06,0,0,.12.2,0-.11.12.17.15,0,.28a.3.3,0,0,1,.13,0c0,.07-.09.18,0,.2,0,0-.12,0-.11.05s.08,0,.12,0,0,.26,0,.36.18.35.26.52h-.05c.2,0-.14.2.15.16,0,0,0,.06-.1.08.14,0-.07.17.11.18h0c-.08.11.08.12,0,.22a.15.15,0,0,0-.09,0c-.08.05.22,0,0,.09,0,0,.11,0,.1,0,0,.19.17.31.27.46-.09.16-.37.13-.17.17h0c.07,0-.23.14-.11.13s.08,0,.17,0c-.07.1-.19.16-.06.18l-.08,0c.23,0,.15.11.4.09.17.35.42.65.57,1a4.87,4.87,0,0,1,.31,1.07c-.16.16-.15.16,0,.22l-.07,0c.16-.05,0,.06.19,0a1.77,1.77,0,0,0,.15.38s-.15,0-.13.05h.11l0,0a.19.19,0,0,0,.15,0c.26.29.07.74.23,1.06,0,.11.06.2.13.27-.12.33-.2.62,0,.83C431.64,300,431.23,300.12,431.1,300.05Z" transform="translate(-388.16 -261.16)"/><path class="cls-4" d="M427.53,288.52a.52.52,0,0,1-.23.07C427.38,288.57,427.46,288.53,427.53,288.52Z" transform="translate(-388.16 -261.16)"/><path class="cls-4" d="M426.91,289.54s0,0-.05,0-.07,0,0,0Z" transform="translate(-388.16 -261.16)"/><path class="cls-4" d="M426.91,289.77c-.07,0-.14,0-.15,0Z" transform="translate(-388.16 -261.16)"/><path class="cls-4" d="M426.67,290c-.05,0-.09,0-.09,0Z" transform="translate(-388.16 -261.16)"/><path class="cls-4" d="M426.84,290s0,0-.08.05S426.72,290,426.84,290Z" transform="translate(-388.16 -261.16)"/><path class="cls-4" d="M426.74,290.49s.08,0,0,.05S426.64,290.51,426.74,290.49Z" transform="translate(-388.16 -261.16)"/><path class="cls-4" d="M426.9,290.67s0,0,0,0a.2.2,0,0,1-.09,0Z" transform="translate(-388.16 -261.16)"/><polygon class="cls-4" points="40.09 33 40.05 32.99 40.12 32.98 40.09 33"/><path class="cls-4" d="M428.77,295.71c.05,0-.06,0-.07,0S428.79,295.73,428.77,295.71Z" transform="translate(-388.16 -261.16)"/><polygon class="cls-4" points="41.24 35.26 41.24 35.25 41.38 35.21 41.24 35.26"/><rect class="cls-5" x="0.5" y="0.5" width="59.42" height="59.42"/><rect class="cls-6" x="0.26" y="60.25" width="60.01" height="10.4"/><rect class="cls-7" x="49.68" y="60.25" width="10.67" height="10.4"/><path d="M442.92,324.84h0l-1.26.6-.25-1.16,1.76-.82h1.27v6.62h-1.5Z" transform="translate(-388.16 -261.16)"/></svg>