<svg id="Layer_1" data-name="Layer 1" xmlns="http://www.w3.org/2000/svg" viewBox="0 0 60.42 70.66"><defs><style>.cls-1,.cls-4{fill:none;}.cls-1{stroke:#1d1d1b;}.cls-2,.cls-5{fill:#12100b;}.cls-3,.cls-6{fill:#fff;}.cls-5,.cls-6{fill-rule:evenodd;}.cls-7{fill:#1d1d1b;}.cls-8{fill:#bfbfbf;}.cls-9{fill:#f2f2f2;}</style></defs><rect class="cls-1" x="0.5" y="0.5" width="59.42" height="59.42"/><path d="M441.1,295a25.35,25.35,0,0,0,.94-7.58c-.43,3.85-1.75,7.14-2.64,10.3-1.14,4.11-2.46,8.63-4.78,11.41-2.64,3.16-8.26,8.18-12.13,9.59-4.45,1.63-7.84-.27-11.09-2.14a29.58,29.58,0,0,1-12-12.05c-1.23-2.21-2.69-5-2.63-7-2-2.9-2.1-7.69-3.38-11.28a52.7,52.7,0,0,0,2.82,13.41,39.26,39.26,0,0,0,7.52,11.67,42.94,42.94,0,0,0,3.3,3.24c1.29,1,2.79,1.44,4.21,2.59a9.17,9.17,0,0,0,2.82,1.95c6.43,2.36,11.71-1.05,15.41-3.89,6.91-5.3,9.25-11.44,9.78-13.42C439.8,299.6,441,295.32,441.1,295Z" transform="translate(-388.13 -261.16)"/><path d="M393.64,288c0-3.26-1.14-6.52-1-9.92" transform="translate(-388.13 -261.16)"/><path d="M393.71,284.24a48.88,48.88,0,0,0-.42-7.36c-.23-1.47-.5-2.94-.61-4.43l0,.27,0-.46c0-.06,0-.12,0-.18q-.26-6.82,0,13.26c.11-3.07.07-6.16,0-9.23,0-1.49,0-3,0-4.48l0-.76c0-.35,0-.35,0,0-.09,2.6-.06,5.2-.06,7.79s0,5.07.05,7.6c0,.92.11,1.83.23,2.74.24,1.76.61,3.51.75,5.29l0-.27,0,.44a1.09,1.09,0,0,1,0,.18q.06,1.59,0-2.83c0,1.14,0,2.31,0,3.45.06,1,.07-1.21.06-.75.06-3.42.05-6.85,0-10.27Z" transform="translate(-388.13 -261.16)"/><path d="M441.6,293.21c.29-2.93,1.43-5.87,1.72-9,.14-1.95,0-4.24.14-6.36.29-4.24.86-9.62.43-13.7" transform="translate(-388.13 -261.16)"/><path class="cls-2" d="M407.09,280.79c.06,1.43.52,2.65,2.21,2.88s2.33-1.72,2.1-3.14" transform="translate(-388.13 -261.16)"/><path class="cls-3" d="M408.49,281.07c-1-.29-.76,1.13-.18,1.18s.64-1.18.53-1.52" transform="translate(-388.13 -261.16)"/><path class="cls-4" d="M408.49,281.07c-1-.29-.76,1.13-.18,1.18s.64-1.18.53-1.52" transform="translate(-388.13 -261.16)"/><path class="cls-2" d="M408.47,281.1s0,0,0,0Z" transform="translate(-388.13 -261.16)"/><path class="cls-2" d="M408.82,280.78c.06,0,0,.1.06.14h0a.19.19,0,0,1,0,.18h0s0,0,0,0h0l0,0h0s0,0,0,.07h0a.32.32,0,0,1,0,.14h0l0,0s0,0,0,0h0s0,0,0,0h0s0,0,0,0h0v0h0s0,0,0,0,0,0,0,0a.28.28,0,0,1,0,.18h0v0h0s0,0,0,0h0s0,0,0,0h0s0,0,0,0h0s0,0,0,0h0s0,0,0,.06h0l0,.05s0,0,0,0,0,0,0,0,0,0,0,0,0,0,0,0h0s0,0,0,0v0s0,0,0,0l0,0,0,.05h0v0s0,0,0,0h0l0,0h0s0,0,0,0h0l0,0h0l0,.06s0,0,0,0,0,0-.06,0h0s-.05,0-.07,0l0,0v0h0s0,0,0,0,0,0,0,0,0,0,0,0v0s0,0,0,0h0s0,0,0,0v0l0,0h0s0,0,0,0,0,0,0,0h0s0,0,0,0v0l0,0s0,0,0,0h0s0,0,0,0v0s0,0,0,0,0,0,0,0,0,0,0-.08h0s0,0,0,0h0s0,0,0,0,0,0-.05,0v0h0s0,0,0,0h0v0s0,0,0,0h0v0h0s0,0,0,0h0s0,0,0,0,0,0,0,0h0v0h0l0,0h0s0,0,0,0h0s0,0,0-.06h0s0-.06,0-.09h0s0,0,0,0h0s0,0,0-.05h0s0,0,0,0h0s0,0,0,0h0s0,0,0,0h0l0,0a.15.15,0,0,1,0-.13h0s0,0,0,0h0s0,0,0,0h0s0,0,0,0h0s0,0,.06,0h0s0,0,0,0,0,0,0,0,0,0,0,0,0,0,0,0,0,0,0,0l0,0s0,0,0,0,0,0,0,0,0,0,0,0,0,0,0,0,0,0,0,0h0s0,0,0,0h0s0,0,0,0,0,0,0,0,0,0,0,0,0,0,0,0h0v0h0s0,0,0,0h0l0,0s0,0,0,0v0h0s0,0,0,0h0v0h0v0h0s0,0,0,0v0s0,0,0-.06.05.05.05,0,0,0,0,0,0,0,0,0,0,0,0,0h0s0,0,0,0,0,0,0,0,0,0,0,0,0,0,0,0,0,0,0,0h0s0,0,0,0h0s0,0,0,0h0s0,0,0,0v0l0,0s0,0,0,0a0,0,0,0,0,0,0s0,0,0,0,0,0,0,0h0v0l0,0v0a0,0,0,0,1,.06,0s0,0,0,0l0,0v0s0,0,0,0,0,0,0,.05,0,0,0,0l0,0s.05,0,.07,0v0s0,0,0,0h0s0,0,0,0v0h0v0s0,0,0,0h0s0,0,.05,0h0s0,0,0,0l0,0v0h0l0,0h0s0,0,0,0,0,0,0,0l0,0h0l0,0h0s0,0,0,0h-.06s0,0,0,0,0,0-.06,0l-.09.05h0s0,0,0,0,0,0,0,0h0s0,0,0,0h0v0l0,0s0,.08,0,.12h0s0,.09,0,.13h0s0,0,0,0,0,0,0,0l0,0v.06h0s0,0,0,0,0,.05,0,.08h0s0,0,0,.05h0s0,.06,0,.09l.1.11h0s0,.05,0,0v0s0,0,0,0h0s0,0,0,0h0s0,0,0,0h0s.06,0,.1,0,0,.05,0,0h0s0,0,0,0,0,0,0,0,0,0,0,0h0s0,0,0-.06a.51.51,0,0,0,.15-.22c.06-.07.06-.19.11-.28s0,0,0-.06h0s0,0,0,0v-.12h0c0-.11,0-.21,0-.32a.24.24,0,0,0,0-.08.24.24,0,0,0,0-.22S408.8,280.75,408.82,280.78Z" transform="translate(-388.13 -261.16)"/><path class="cls-2" d="M408.45,281.1a0,0,0,0,1,0,0Z" transform="translate(-388.13 -261.16)"/><polygon class="cls-2" points="20.07 19.8 20.07 19.8 20.08 19.8 20.07 19.8"/><path class="cls-2" d="M408.14,281l0,0Z" transform="translate(-388.13 -261.16)"/><path class="cls-2" d="M408.06,281h0Z" transform="translate(-388.13 -261.16)"/><path class="cls-2" d="M408.07,281h0S408.06,281,408.07,281Z" transform="translate(-388.13 -261.16)"/><path class="cls-2" d="M407.9,281h0S407.9,281,407.9,281Z" transform="translate(-388.13 -261.16)"/><polygon class="cls-2" points="19.73 19.92 19.72 19.93 19.72 19.91 19.73 19.92"/><polygon class="cls-2" points="19.94 21.07 19.93 21.07 19.94 21.06 19.94 21.07"/><path class="cls-2" d="M408.6,282.22s0,0,0,0Z" transform="translate(-388.13 -261.16)"/><polygon class="cls-2" points="20.61 20.82 20.61 20.82 20.6 20.81 20.61 20.82"/><path class="cls-3" d="M409.59,282.44a.69.69,0,0,0,1.05.89c.64-.59-.11-1.48-.93-1" transform="translate(-388.13 -261.16)"/><path class="cls-4" d="M409.59,282.44a.69.69,0,0,0,1.05.89c.64-.59-.11-1.48-.93-1" transform="translate(-388.13 -261.16)"/><path class="cls-2" d="M409.62,282.47s0,0,0,0Z" transform="translate(-388.13 -261.16)"/><path class="cls-2" d="M409.77,282.35c0-.07.1-.05.14-.09s0,0,0,0,.12-.06.18,0h0s0,0,0,0v0l0,0v0h0c0-.05.05,0,.08,0h0s.09,0,.14,0v0s0,0,0,0,0,0,0,0h0s0,0,0,0v0s0,0,0,0h0l0,0h0s0,0,0,0,0,0,0,0a.57.57,0,0,1,.16.11v0l0,0v0s0,0,0,0h0l0,0h0s0,0,0,0h0s0,0,0,0h0s0,0,.05,0h0v.06l0,0s0,0,0,0v.05s0,0,0,0h0v0s0,0,.06,0h0l0,0h0s0,0,0,0h0v0h0s0,0,0,0h0v0h0l0,.06h0s0,.06,0,.07h0l0,0h0s0,.06,0,.07v0h0s0,0,0,0,0-.05,0,0,0,0,0,0,0,0,0,0,0,0,0,0v0h0s0,0,0,0,0,0,0,0h0v0h0s0,0,0,0,0,0,0,0l0,0h0v0s0,0,0,0,0,0,0,0,0,0,0,0l0,0s0,0,0,0,0,0,0,0-.05.06-.08,0v0h0s0,0,0,0,0,0,0,0h0v0s0,0,0,0l0,0h0s0,0,0,0h0l0,0h0v0h0s0,0,0,0,0,0,0,0h0l0,0h0s0,0,0,0h0l0,0s0,0,0,0,0,0,0,0-.05,0-.07,0h0s-.07,0-.09,0v0h0v0s-.05,0-.05,0h0s0,0,0,0h0s0,0,0,0h0s0,0,0,0v0h0l0,0a.15.15,0,0,1-.13-.05h0l0,0s0,0,0,0,0,0,0,0,0,0,0,0l0,0h0s.05,0,.06,0h0s0,0,0,0,0,0,0,0,0,0-.05,0h0s0,0,0,0,0,0,0,0,0,0,0,0h0s0,0,0,0,0,0,0,0,0,0,0,0l0,0s0,0,0,0h0v0s0,0,0,0,0,0,0,0,0,0,0,0,0,0,0,0h0s0,0,0,0h0v0h0s0,0,0,0h0s0,0,0,0,0,0,0,0v0h0l0,0h.06l0,0s0,0-.07,0,.06,0,0,0,0,0,0,0,0,0,0,0,0,0,0,0v0l0,0,0,0h0s0,0,0,0l0,0h0s0,0,0,0h0s0,0,0,0,0,0,0,0h0s0,0,0,0h0v-.05s0,0,0,0,0,.05,0,.05,0,0,0,0l0,0h0a.07.07,0,0,0,0-.06h0v-.07s0,0,0,0,0,0,0,0h0s0,0,0,0,0,0,.05,0,0,0,0,0l0-.06s0,0,0-.06h0s0,0,0,0h0s0,0,0,0h0s0,0,0,0h0l0-.05h0v0h0v0l0,0a0,0,0,0,0,0,0v0s0,0,0,0h0v0h0s0,0,0,0,0,0,0,0l0,0h0l0,0h0s0,0,0,0a.09.09,0,0,0,0,.06h0s0,0,0,0,0,.06,0,.07a.5.5,0,0,0,0,.12h0s0,0,0,0,0,0,0,0,0,.05,0,.06h0s0,0,0,.06v0l0,0,0,0c.05,0,.06.07.1.1h0c.05,0,.09.06.13.07l0,0s0,0,0,0,0,0,0,0,0,0,0,0,0,0,0,0h0v0s0,0,0,0,.06,0,.08,0h0s0,0,.06,0h0v0s.07,0,.1,0,.11,0,.15-.06h0s.05,0,0-.05,0,0,0,0,.05,0,.05,0h0l.06,0h0s0,0,0,0h0c.06,0,.07-.09.09-.13s0,0,.05,0h0s0,0,0,0h0s0,0,0,0h0s0-.05,0-.08a.51.51,0,0,0,0-.3.61.61,0,0,0-.18-.24s0,0,0,0h0s0,0,0,0-.07,0-.11,0h0v0a.78.78,0,0,0-.3,0s-.06,0-.08,0a.65.65,0,0,0-.24.06S409.74,282.37,409.77,282.35Z" transform="translate(-388.13 -261.16)"/><path class="cls-2" d="M409.61,282.49h0Z" transform="translate(-388.13 -261.16)"/><polygon class="cls-2" points="21.27 21.56 21.27 21.57 21.26 21.56 21.27 21.56"/><path class="cls-2" d="M409.4,282.81l0,0Z" transform="translate(-388.13 -261.16)"/><path class="cls-2" d="M409.35,282.89h0Z" transform="translate(-388.13 -261.16)"/><path class="cls-2" d="M409.38,282.89l0,0S409.36,282.89,409.38,282.89Z" transform="translate(-388.13 -261.16)"/><path class="cls-2" d="M409.38,283.07a0,0,0,0,1,0,0S409.36,283.07,409.38,283.07Z" transform="translate(-388.13 -261.16)"/><polygon class="cls-2" points="21.28 21.98 21.28 21.99 21.27 21.99 21.28 21.98"/><polygon class="cls-2" points="22.42 22.31 22.42 22.32 22.41 22.31 22.42 22.31"/><path class="cls-2" d="M410.91,283h0Z" transform="translate(-388.13 -261.16)"/><polygon class="cls-2" points="22.74 21.52 22.74 21.53 22.73 21.53 22.74 21.52"/><path class="cls-2" d="M425.63,280.42c.06,1.43.52,3.14,2.22,3.37s2.33-1.71,2.09-3.14" transform="translate(-388.13 -261.16)"/><path class="cls-3" d="M427,281.19c-1-.29-.76,1.13-.18,1.18s.65-1.18.53-1.52" transform="translate(-388.13 -261.16)"/><path class="cls-4" d="M427,281.19c-1-.29-.76,1.13-.18,1.18s.65-1.18.53-1.52" transform="translate(-388.13 -261.16)"/><path class="cls-2" d="M427,281.22s0,0,0,0Z" transform="translate(-388.13 -261.16)"/><path class="cls-2" d="M427.37,280.9c.05,0,0,.1.06.14s0,0,0,0,0,.12,0,.18h0s0,0,0,0h0l0,0h0s0,.05,0,.07h0a.32.32,0,0,1,0,.14h0s0,0,0,0,0,0,0,0h0s0,0,0,0h0s0,0,0,0h0v0h0s0,0,0,0,0,0,0,0a.34.34,0,0,1,0,.18h0v0h0s0,0,0,0h0s0,0,0,0h0s0,0,0,0h0s0,0,0,0h0s0,0,0,.06h0l0,0s0,0,0,0,0,0,0,0,0,0,0,0,0,0,0,0h0s0,0,0,0v0a.07.07,0,0,1,0,.06l0,0v.05s0,0,0,0v0s0,0,0,0v0h0s0,0,0,0,0,0,0,0l0,0v0l0,.06s0,0,0,0,0,0-.06,0h0s0,0-.07,0l0,0v0h0s0,0,0,0,0,0,0,0,0,0,0,0v0h0v0s0,0,0,0h0l0,0h0s0,0,0,0,0,0,0,0,0,0,0,0h0l0,0,0,0s0,0,0,0a0,0,0,0,0,0,0s0,0,0,0v0s0,0,0,0,0,0,0,0-.05,0,0-.09h0s0,0,0,0h0s0,0,0,0,0,0,0,0h0s0,0,0,0h0v0s0,0,0,0h0v0h0s0,0,0,0h0s0,0,0,0,0,0,0,0h0v0h0v0h0l0,0h0l0,0s0,0,0,0h0s0,0,0-.07h0s0-.06,0-.09h0s0,0,0,0h0s0,0,0,0h0s0,0,0,0h0s0,0,0,0h0s0,0,0,0l0,0s0-.08,0-.12h0s0,0,0,0h0s0,0,0,0h0s0,0,0,0h0s0,0,.06,0h0s0,0,0,0l0,0s0,0,0,0,0,0,0,0,0,0,0,0,0,0,0,0,0,0,0,0,0,0,0,0,0,0,0,0,0,0,.05,0,0,0,0,0h0s0,0,0,0h0s0,0,0,0,0,0,0,0,0,0,0,0,0,0,0,0h0v0h0v0s0,0,0,0v0h0l0,0s0,0,0,0v0h0s0,0,0,0,0,0,0,0v0h0v0h0l0,0h0s0,0,0-.07.05.06.05,0,0,0,0,0,0,0,0,0,0,0,0,0h0s0,0,0,0,0,0,0,0h0s0,0,0,0l0,0h0s0,0,0,0l0,0s0,0,0,0l0,0h0s0,0,0,0v0l0,0s0,0,0,0,0,0,0,0,0,0,0,0,0,0,0,0h0v0l0,0v0a.07.07,0,0,1,.06,0s0,0,0,0,0,0,0,0h0s0,0,0,0,0,0,0,.05,0,0,0,0l0,0s0,0,.06,0v0s0,0,0,0h0s0,0,0,0v0h0v0s0,0,0,0h0s0,0,.05,0v0h0s0,0,0,0l0,0v0h0v0h0v0s0,0,0,0,0,0,0,0l0,0h0l0,0h0s0,0,0,0h-.06v0s0,0,0,0,0,0-.05,0l-.09.06v0h0s0,0,0,0,0,0,0,0h0s0,0,0,.05h0v0l0,0a.56.56,0,0,0,0,.13h0s0,.08,0,.12h0s0,0,0,0,0,0,0,0v.08h0s0,0,0,0,0,.05,0,.07h0s0,.05,0,.05h0s0,.07,0,.09l.1.11h0s0,0,0,0v0s0,0,.05,0h0s0,0,0,0h0s0,0,0,0v0s.06,0,.1,0,0,.05,0,0h0s0,0,0,0,0,0,0,0,0,0,0,0h0s0,0,0,0a.63.63,0,0,0,.16-.23c.06-.07.05-.19.1-.28s0,0,0,0h0s0,0,0,0l0-.11h0c0-.1,0-.21,0-.31s0-.06,0-.09a.33.33,0,0,0,0-.22S427.35,280.87,427.37,280.9Z" transform="translate(-388.13 -261.16)"/><path class="cls-2" d="M427,281.23s0,0,0,0Z" transform="translate(-388.13 -261.16)"/><polygon class="cls-2" points="38.62 19.93 38.61 19.92 38.62 19.92 38.62 19.93"/><path class="cls-2" d="M426.68,281.09l0,0Z" transform="translate(-388.13 -261.16)"/><path class="cls-2" d="M426.61,281.08v0Z" transform="translate(-388.13 -261.16)"/><path class="cls-2" d="M426.61,281.1h0S426.61,281.08,426.61,281.1Z" transform="translate(-388.13 -261.16)"/><path class="cls-2" d="M426.45,281.14h0S426.44,281.13,426.45,281.14Z" transform="translate(-388.13 -261.16)"/><polygon class="cls-2" points="38.27 20.05 38.27 20.05 38.26 20.04 38.27 20.05"/><polygon class="cls-2" points="38.48 21.19 38.48 21.19 38.48 21.18 38.48 21.19"/><path class="cls-2" d="M427.14,282.35s0,0,0,0Z" transform="translate(-388.13 -261.16)"/><polygon class="cls-2" points="39.16 20.94 39.15 20.94 39.14 20.93 39.16 20.94"/><path class="cls-3" d="M428.14,282.57a.69.69,0,0,0,1.05.88c.64-.59-.12-1.47-.94-1" transform="translate(-388.13 -261.16)"/><path class="cls-4" d="M428.14,282.57a.69.69,0,0,0,1.05.88c.64-.59-.12-1.47-.94-1" transform="translate(-388.13 -261.16)"/><path class="cls-2" d="M428.16,282.6s0,0,0,0Z" transform="translate(-388.13 -261.16)"/><path class="cls-2" d="M428.31,282.47c0-.06.1,0,.14-.09s0,0,0,0,.12-.06.19,0h0l0,0h0l0,0v0s0,0,.07,0h0s.1,0,.15,0v0s0,0,0,0,0,0,0,0h0s0,0,0,0h0s0,0,0,0h0s0,0,0,0,0,0,0,0a.55.55,0,0,1,.17.11v0l0,0h0l0,0h0s0,0,0,0h0s0,0,0,0h0s0,0,0,0h0l0,.06s0,0,0,0,0,0,0,0v.06h-.05v0s0,0,.05.05h0l0,0h0a0,0,0,0,1,0,0h0v0h0a0,0,0,0,0,0,0s0,0,0,0v0h0v.07s0,0,0,0,0,.06,0,.08h0v0h0s0,.06,0,.07v0h0s0,0,0,0,0-.05,0,0,0,0,0,0,0,0,0,0h0v0h0s0,0,0,0,0,0,0,0h0v0h0s0,0,0,0,0,0-.05,0l0,0h0s0,0,0,0v0s0,0,0,0,0,0,0,0,0,0,0,0v0s0,0,0,0,0,0,0,0-.06.05-.09,0v0s0,0,0,0v0s0,0,0,0,0,.05,0,0h0v0s0,0,0,0l0,0,0,0s0,0,0,0h0s0,0,0,0,0,0,0,0v0h0v0h0l0,0h0s0,0,0,0h0s0,0,0,0,0,0,0,0-.05,0-.07,0h0s-.07,0-.09,0v0s0,0,0,0v0l0,0h0s0,0,0,0h0v0s0,0,0,0v0h0v0s0,0,0,0,0,0,0-.05a.17.17,0,0,1-.14-.05h0s0,0,0,0l0,0s0,0,0,0,0,0,0,0,0,0,0,0l0,0h0s0,0,.05,0h0s0,0,0,0l0,0s0,0,0,0,0,0,0,0,0,0,0,0a0,0,0,0,1,0,0s0,0,0,0,0,0,0,0,0,0,0,0,0,0,0,0,0,0,0,0l0,0s0,0,0,0h0v0s0,0,0,0,0,0,0,0,0,0,0,0,0,0,0,0h0s0,0,0,0h0v0h0s0,0,0,0h0s0,0,0,0h0s0,0,0,0l0,0H428l0,0s0,0-.06,0,.05,0,0-.05,0,0,0,0,0,0,0,0,0,0,.05,0h0s0,0,0,0l0,0s0,0,0,0,0,0,0,0h0s0,0,0,0h0s0,0,0,0,0,0,0,0h0s0,0,0,0h0v0s0,0,0,0,0,0,0,.05,0,0,0,0,0,0,0,0v0h0a.08.08,0,0,0,0-.05h0v-.07s0,0,0,0h0s0,0,0,0,0,0,.05,0,0,0,0,0l0-.06s0-.05,0-.07h0s0,0,0,0h0s0,0,0,0v0h0s0,0,0,0h0l0-.05h0s0,0,0,0l0,0,0,0s0,0,0,0h0s0,0,0,0h0v0h0a0,0,0,0,1,0,0s0,0,0,0l0,0v0l0,0h0s0,0,0,0a.11.11,0,0,0,0,.07h0s0,0,0,.06,0,0,0,.06a.59.59,0,0,0,0,.13h0s0,0,0,0,0,0,0,0,0,0,0,.05h0s0,0,0,.06h0l0,0v.05s.07.07.11.09v0c.05,0,.08.05.12.07v0s0,0,0,0,0,0,0,0h0a.06.06,0,0,0,.05,0h0v0s0,0,0,0,.06,0,.08,0v0s0,0,.05,0v0s.07,0,.1,0,.11,0,.15-.06h0s.05,0,.05,0a0,0,0,0,1,0,0s0,0,.05,0h0l.06,0h0s0,0,0,0v0c.05,0,.06-.08.09-.13s0,0,0,0h0l0,0,0,0h0s0-.05,0-.08a.44.44,0,0,0,0-.3.59.59,0,0,0-.18-.24s0,0,0-.05h0s0,0,0,0l-.12,0s0,0,0,0h0v0a1,1,0,0,0-.3,0s-.06,0-.08,0a.38.38,0,0,0-.23.06A.08.08,0,0,1,428.31,282.47Z" transform="translate(-388.13 -261.16)"/><path class="cls-2" d="M428.15,282.61s0,0,0,0Z" transform="translate(-388.13 -261.16)"/><polygon class="cls-2" points="39.81 21.69 39.81 21.69 39.81 21.68 39.81 21.69"/><path class="cls-2" d="M427.94,282.93l0,0Z" transform="translate(-388.13 -261.16)"/><path class="cls-2" d="M427.9,283h0Z" transform="translate(-388.13 -261.16)"/><path class="cls-2" d="M427.92,283h0S427.9,283,427.92,283Z" transform="translate(-388.13 -261.16)"/><path class="cls-2" d="M427.92,283.19s0,0,0,0S427.91,283.19,427.92,283.19Z" transform="translate(-388.13 -261.16)"/><polygon class="cls-2" points="39.82 22.11 39.83 22.11 39.81 22.11 39.82 22.11"/><polygon class="cls-2" points="40.96 22.44 40.96 22.44 40.95 22.44 40.96 22.44"/><path class="cls-2" d="M429.46,283.13h0Z" transform="translate(-388.13 -261.16)"/><polygon class="cls-2" points="41.28 21.65 41.28 21.65 41.27 21.65 41.28 21.65"/><path class="cls-5" d="M417.94,283.51c.31.07.19.58.57.59-.42,1.08-.28,3.23-.28,5.32,0,1.63.22,4.82-.29,4.14C418.24,290.07,417.08,286.61,417.94,283.51Z" transform="translate(-388.13 -261.16)"/><path class="cls-5" d="M405.71,283.2c-.67,1.07,5.34,2,8.23.95C411.24,283.79,407.6,284.42,405.71,283.2Z" transform="translate(-388.13 -261.16)"/><path class="cls-5" d="M432.7,283.47c-2-.26-5.18.87-8.72-.16C426.49,284.91,430.51,284.26,432.7,283.47Z" transform="translate(-388.13 -261.16)"/><path class="cls-5" d="M413.15,294.74c.4.77.49,1.86.84,2.67C413,296.89,412.78,296,413.15,294.74Z" transform="translate(-388.13 -261.16)"/><path class="cls-5" d="M424.43,295c.8.67,0,2.1-.56,2.37C423.06,296.73,424.83,296.26,424.43,295Z" transform="translate(-388.13 -261.16)"/><path class="cls-5" d="M416.81,297.41c-.66,0-.82-.51-1.69-.3C415.19,296.16,417,296.43,416.81,297.41Z" transform="translate(-388.13 -261.16)"/><path class="cls-5" d="M422.74,296.81c-.26.23-2.05,1-1.7,0C421.71,296.72,422.21,296.23,422.74,296.81Z" transform="translate(-388.13 -261.16)"/><path class="cls-5" d="M424.15,273.74c4.12-2.94,10.83.33,12.41,3.85C435,274.82,428.38,273.83,424.15,273.74Z" transform="translate(-388.13 -261.16)"/><path class="cls-5" d="M414.28,276.11c-2.48-.83-8.18-1.17-11.28.3-.62.29-1.87,1.26-1.7.59C403.08,274.05,412,272.28,414.28,276.11Z" transform="translate(-388.13 -261.16)"/><path class="cls-5" d="M406.1,278.77c3-1.42,7.31-.28,8.74,1.78A11,11,0,0,0,406.1,278.77Z" transform="translate(-388.13 -261.16)"/><path class="cls-5" d="M431.76,278.48c-1.07.74-2.1-.08-3.38,0-2.51.14-4.5,1.94-5.36,1.77C424.78,278.39,428.32,277.68,431.76,278.48Z" transform="translate(-388.13 -261.16)"/><path class="cls-5" d="M407.51,280.84c-1.27.15-1.92,1-3.1,1.19.27-1.47,9.43-3.4,10.43.59-1.75-.43-2.27-2.15-4.51-2.07" transform="translate(-388.13 -261.16)"/><path class="cls-5" d="M426.12,280.84c-1.64.06-1.77,1.69-3.38,1.78,1.36-3.32,8.6-2.89,10.71-.59-.77-.09-2.77-1.42-4.51-1.48" transform="translate(-388.13 -261.16)"/><path class="cls-5" d="M428.18,300.84c.19-.77,3.53,1.32,2,1.79C429.18,302,429.29,301.42,428.18,300.84Z" transform="translate(-388.13 -261.16)"/><path class="cls-5" d="M415.77,309.68c1.05-.59,4.7.4,7.08,0C421.44,311.61,417.28,311,415.77,309.68Z" transform="translate(-388.13 -261.16)"/><path class="cls-5" d="M406.5,302.62c-.61-.45,2.85-3.17,2.58-1.49C408.06,302,407.55,301.68,406.5,302.62Z" transform="translate(-388.13 -261.16)"/><path class="cls-5" d="M413.25,305.24c1.37,1.38,9.68,1.88,11.55.15a13.08,13.08,0,0,1,4.79-3.69,1.31,1.31,0,0,0-.64-.49,32.9,32.9,0,0,1-20.53.06,2.38,2.38,0,0,0-.28.55" transform="translate(-388.13 -261.16)"/><path class="cls-6" d="M413.6,304.76c2.48-2.16,7.88.29,10.61-1.71,1.25,0,.67,1.08.57,1.71A22.06,22.06,0,0,1,413.6,304.76Z" transform="translate(-388.13 -261.16)"/><path class="cls-7" d="M407.71,292c0-.05-.09-.09,0-.06S407.75,292,407.71,292Z" transform="translate(-388.13 -261.16)"/><path class="cls-7" d="M402.71,301.31c-.36-.19.05-.3-.17-.48,0,0,.21,0,.16,0-.27-.19-.05-.38.21-.5l0,0c.05,0-.13-.1-.1-.13s.05,0,.11,0c-.12,0,0-.07-.13-.1a1.41,1.41,0,0,1,.2,0l-.13,0c-.3-.12,0-.13-.09-.23l.08,0c-.16-.16-.09-.3-.13-.45l.18.05c-.14,0-.16-.09-.18-.13.14,0-.12-.1,0-.12h0c-.14-.06.1,0-.07-.09h.12c-.2-.07.11,0,0-.07h0c-.05,0,.06,0,0,0h0c0-.06.08-.07-.07-.11.13,0,0,.07.23.09a.62.62,0,0,1,0-.55.37.37,0,0,1,.15,0s0-.07-.08-.11h.09c.07,0-.16-.08-.08-.1a.34.34,0,0,0,.15.06c-.11-.06-.08-.09-.11-.14a.19.19,0,0,0,.08,0c-.12-.08,0-.06,0-.12l.08,0c.12,0-.18-.07-.1-.1a.25.25,0,0,0,.09,0c-.14-.09-.07-.14-.11-.2h0s.06-.08,0-.15.21.07.19,0,0-.11-.25-.15c.05,0,.14-.07.09-.12s.22.05.22.09h.11c.07,0,0,0,.06,0s-.05-.1,0-.1-.28-.17-.28-.23.19.05.22.08l-.31-.19s.14,0,.1,0a.33.33,0,0,1-.1-.06s0-.09.16,0,0,0,.09.05-.05-.06,0-.09h0s0-.09-.15-.1.11,0,.05,0-.11-.1-.1-.13l.12.06a.56.56,0,0,1-.18-.23c-.08,0,.14.08.1.07.13,0-.11-.19.07-.17l-.09,0s.14,0,.1,0,0,0,0-.06,0,0,0,0-.1-.21,0-.23c-.05,0-.15-.11-.14-.12l.1.05c.07,0,0-.05.11,0-.12-.09.05.16,0,.08.09,0-.14-.13,0-.06s-.1-.11,0-.1.14.09.14.06,0,0-.06-.08l0,0c-.1,0,0,0-.09-.07.09,0,0-.08.15,0l.13.07s-.13-.09-.18-.14l.06,0c-.2-.1,0,0-.11-.13.09,0,0-.1.18-.05,0-.06-.1-.12,0-.13a.1.1,0,0,0,.06.05c.07,0,0,0,0-.06a1,1,0,0,0,.22,0,.8.8,0,0,0-.22-.13c.21.07-.09-.15.11-.09,0,0,.07.09.13.09s-.11-.12,0-.12l-.17-.07c.11,0-.06-.11.1,0,0,0,.08,0-.08-.1.17,0,0-.21.31-.09,0,0,0,0-.06-.08s.05.06,0,0l-.06-.05c.05,0,.07,0,.19.08s-.24-.19-.14-.21.09,0,.08,0l-.09-.09s.16.06.27.12,0-.05-.06-.11l.15.06c-.11,0-.06-.06-.08-.08l0,0c.05,0,0,0,0,0a.22.22,0,0,0-.14,0s0-.05-.07-.09c.11.06.1,0,.12,0s-.09-.08-.08-.08,0,0,.1,0-.07,0,0,0,.14.07.08,0-.21-.12-.12-.12a.45.45,0,0,0,.1.09h.07l-.1-.06.05,0c-.09-.07,0-.07-.11-.15s.09,0,.11,0h0c.06,0,0,0,0-.09h0s0,0,0-.09.36.22.26.12-.14-.16-.21-.18c.09,0,0-.16.15-.11,0,0-.06,0-.07-.08s0-.22.21-.15c0,0,.09.06.14.1s.1,0,0-.07a.7.7,0,0,0-.16-.09c0-.07,0-.13.12-.1-.05,0-.07,0-.08-.07s.17.08.14,0l-.08-.06.09.05s-.16-.13-.06-.1l.09,0c0-.07-.13-.18,0-.16l.13.07a.18.18,0,0,0-.11-.1c.11,0,.14,0,.24.05-.18-.26-.11-.38,0-.45l.06.05c.07,0-.09-.1,0-.08a2,2,0,0,1,.19.15c.08,0-.07-.12-.07-.16s0,.05-.06,0,.09,0,0-.09a1,1,0,0,1,.17.14l0-.06c.15.08.19.25.37.36v0c.14.08.1.16.17.15a.72.72,0,0,0-.25-.24c0-.07-.24-.24-.2-.28s0,.05.09.12,0-.09,0-.08-.16-.13-.17-.16.1.11.13.08-.08-.13-.14-.14.07,0,0-.11c.11.07.21.23.29.24-.11-.08-.1-.16-.26-.26a.4.4,0,0,1,.17.14c.08,0-.13-.21.06-.05l-.09-.09.13.07s-.08-.17.06,0,0,0-.08-.13.05.1-.1,0c.12.08,0-.05,0-.1l.06,0s0,0,0-.1a.3.3,0,0,0,.09.08l-.08-.09c0-.08.16.13.17.08l0,.08s.08.05.07,0l-.21-.24s.09.07,0,0l.07.11s.15.11.17.08-.1-.17-.17-.19.08,0,.12.08-.08-.07-.11-.14l.26.13.1.15h0c.08.12.08.07.18.18s0,0,0-.08c-.2-.14-.19-.27-.36-.42,0-.08.41.36.21.07-.05,0-.14-.18-.13-.11s-.13-.17,0-.14.18.13.23.26c-.05-.05-.06,0-.05,0s.16.17.18.14,0-.06-.06-.14,0,0-.09-.07.14.07,0-.11c0,0-.1-.05-.16-.12v-.06l.05.07c.08,0-.09-.13,0-.15l.13.11c.08.11-.11,0,.06.17,0,0,0-.11,0-.09v0s.23.22.15.05,0-.07-.11-.13,0-.14,0-.17c.11.13.06,0,.15.13-.08-.07-.14,0-.05.13s-.05,0,.08.17c0,0,.17.12.26.21s0-.05,0-.07-.09-.08-.18-.17c.06,0,.05-.09,0-.2s.13.13.12.15a.14.14,0,0,1,.14-.1c-.15-.13,0-.08-.1-.19a.53.53,0,0,1-.21-.19s0,.07.09.1.14.11.05,0c0,.08.15.19.24.32,0-.09.07.09.1.06a.5.5,0,0,1,0-.23c.14.08.12-.08.15-.11s.16.19.2.2-.13-.14,0-.1v0s.14.05,0-.16l.11.16s0,0,0-.05a.44.44,0,0,1,.09.13c.1.09,0,0,.06-.08l-.09-.08c0-.1.09,0,.11-.09l.06.09v-.07c.05.09.12.13.08,0l.09.26c-.06,0-.06-.12-.13-.2s-.09,0,0,.07,0,0,0-.06c.09.12.06.13.11.23s0,0,0,0,0,.1,0,.12-.07-.07-.09-.11c.08.11.08.16,0,.15s0,.12-.06.11a1.34,1.34,0,0,1-.12-.28c-.07,0,0,0-.09,0a1.34,1.34,0,0,1,.15.29l-.07-.08c0,.06.1.18.05.18a.42.42,0,0,0-.19.07l-.06-.07c.11.18,0,.12,0,.22s-.05.17-.19.06c0,.14-.06.25-.17.32l-.09-.13c.06.1-.07-.05-.07,0s.09.14.14.21c-.12,0-.08.1,0,.2l-.07-.07c.1.17-.06.09-.13.11s-.11-.08-.11-.06a1.1,1.1,0,0,1,.12.25.2.2,0,0,1-.16,0c.08.25-.11.26-.1.45l-.09-.07c.11.25-.17.24-.13.41l-.16-.13c-.07,0,0,.09.12.17-.07,0,0,.13-.12,0s.05.09.05.13-.11,0-.11.12h0s-.11-.08-.13-.07-.09,0,.12.16c-.15,0,0,.2-.19.16.06,0,.06.05.09.08s-.18,0-.11.14-.09-.07-.11-.06.07.05.1.09-.22.1-.24.2-.12.32-.18.47l0,0c.14.13-.22,0,0,.19-.05,0-.05,0-.13,0,.1.1-.16.05,0,.18l0,0c-.12,0,0,.12-.13.13l-.07-.05c-.09,0,.16.14-.06.05l.1.05c-.14.09-.07.3-.08.45-.18.05-.37-.15-.24,0-.05,0,.08,0,0,0s-.26-.06-.16,0,.07.05.15.09c-.11,0-.24,0-.16.07l-.06,0c.17.14,0,.16.25.3-.09.33-.07.68-.15,1s-.13.62-.35.9c-.21,0-.2,0-.15.13s0,0-.07,0c.16,0,0,.06.15.11a1,1,0,0,0-.07.35s-.14-.07-.14,0l.1.05h-.05a.3.3,0,0,0,.15.06c.07.33-.32.56-.34.88-.08.05,0,.17,0,.25-.25.2-.46.39-.35.65C403.2,301.52,402.79,301.43,402.71,301.31Z" transform="translate(-388.13 -261.16)"/><path class="cls-7" d="M407.68,292c-.05-.06-.1-.08-.14-.18Z" transform="translate(-388.13 -261.16)"/><path class="cls-7" d="M406.55,291.84l0,0s0-.07,0,0Z" transform="translate(-388.13 -261.16)"/><path class="cls-7" d="M406.36,291.94c0-.06-.05-.13,0-.15Z" transform="translate(-388.13 -261.16)"/><path class="cls-7" d="M406,291.85c-.05,0-.07-.07-.05-.08A.35.35,0,0,1,406,291.85Z" transform="translate(-388.13 -261.16)"/><path class="cls-7" d="M406.11,292s0,0-.08,0S406,291.88,406.11,292Z" transform="translate(-388.13 -261.16)"/><path class="cls-7" d="M405.65,292.13s0,.07,0,0S405.58,292,405.65,292.13Z" transform="translate(-388.13 -261.16)"/><path class="cls-7" d="M405.59,292.35s0,0,0,0a.13.13,0,0,1-.06-.07Z" transform="translate(-388.13 -261.16)"/><polygon class="cls-7" points="15.64 34.26 15.62 34.23 15.68 34.27 15.64 34.26"/><path class="cls-7" d="M403.15,296.82s-.07,0-.08,0S403.15,296.84,403.15,296.82Z" transform="translate(-388.13 -261.16)"/><polygon class="cls-7" points="15.07 36.55 15.07 36.54 15.21 36.59 15.07 36.55"/><path class="cls-7" d="M429.71,291.73s-.12,0-.06,0S429.75,291.71,429.71,291.73Z" transform="translate(-388.13 -261.16)"/><path class="cls-7" d="M432.12,299.23c-.39,0-.08-.21-.34-.22,0,0,.19-.07.14-.08-.32,0-.21-.2,0-.39l.05,0s-.16,0-.14,0l.1,0c-.11,0-.07,0-.15,0l.17-.09-.13,0c-.31.09,0-.09-.19-.08l.08,0c-.21,0-.22-.12-.32-.19l.17-.06c-.13,0-.17,0-.21,0,.13-.06-.14,0-.07-.05h0c-.15,0,.07-.07-.11,0l.1-.05c-.19.06.09-.07,0-.05h0c-.05,0,0,0,0,0h0c-.07,0,0-.08-.12,0,.12-.06.07,0,.24-.08-.2-.05-.22-.18-.27-.3l.13-.08s0,0-.13,0l.08-.05s-.17,0-.11,0a.43.43,0,0,0,.14,0c-.12,0-.11,0-.16,0l.09,0c-.14,0,0-.06-.08-.05l.09,0c.09-.08-.19.06-.14,0l.1,0c-.17,0-.13,0-.2-.05h0s0-.07-.08-.08.21-.08.17-.1-.09,0-.28.06c0,0,.06-.11,0-.11s.2-.09.23-.07l.1-.06c.07,0,0,0,.07,0s-.1,0-.07,0-.33.07-.36,0,.19-.08.22-.08l-.35.08s.14-.06.08-.06l-.11,0s-.06,0,.1-.1.05,0,.1,0-.06,0-.08,0h0s-.09,0-.18,0,.1,0,.06,0-.14,0-.15,0l.12,0a.71.71,0,0,1-.27,0l.11,0c.1-.08-.19,0,0-.12l-.09,0s.12-.06.07-.06,0,0-.05,0h0c-.06,0-.2,0-.11-.12a.73.73,0,0,1-.18,0l.11,0c.06,0,0,0,.07-.06-.14,0,.14,0,0,.05.09,0-.19,0,0,0,0,0-.14,0-.05-.05a.44.44,0,0,0,.15,0s-.06,0-.1,0h-.05c-.11,0,0,0-.11,0,.08,0-.07,0,.11-.08l.13-.05a1.43,1.43,0,0,0-.21,0l.06,0c-.21.07,0,0-.16,0,.06-.05,0-.07.11-.13-.07,0-.16,0-.12,0H430s0,0,0,0l.18-.12a1.17,1.17,0,0,0-.25.07c.2-.09-.16,0,0-.1a.34.34,0,0,0,.16,0c.2-.09-.16,0-.07-.05l-.18.07c.11,0-.11,0,.07-.07-.07,0,0-.06-.13,0,.13-.1-.12-.09.17-.22,0,0,0,0-.1,0s.08,0,0,0l-.07,0s0,0,.18-.08-.29.06-.24,0,.09,0,.08-.05l-.13,0s.15-.07.27-.11c0,0,0,0-.12,0L430,295c-.11,0-.08,0-.11,0h0c.05,0,0,0,0,0a.2.2,0,0,0-.12.07c-.05,0-.05,0-.11,0,.12,0,.07,0,.08-.07s-.11,0-.1,0,0,0,.09,0-.06,0,0,0,.14-.06.06-.05-.23.08-.16,0l.12,0,.05,0-.11,0,0,0c-.11,0,0,0-.17,0s.06-.05.07-.07h0c.06,0,0,0-.06,0h0s0,0-.08,0,.4-.14.25-.12a.69.69,0,0,0-.27.06c.06-.06-.12-.05,0-.14l-.1,0c0-.07-.16-.08,0-.19a.64.64,0,0,0,.17-.05c-.1,0,.09,0-.07,0a.55.55,0,0,0-.18.07c-.06,0-.08-.07,0-.12a.15.15,0,0,1-.11,0c.16,0,.17-.08.11-.08l-.09,0,.09,0s-.2,0-.11,0l.1,0c-.09,0-.22,0-.15,0l.13-.05a.2.2,0,0,0-.14,0,.46.46,0,0,1,.19-.13c-.31,0-.34-.07-.34-.15l.07,0c.06,0-.13,0-.08,0a1.16,1.16,0,0,1,.22-.06c.07,0-.13,0-.17,0s.07,0,0,0,.06-.06-.08,0l.22-.06h-.08c.16-.07.31,0,.5-.11h0c.14-.06.17,0,.21-.06a1.3,1.3,0,0,0-.34.08s-.33.08-.33,0,0,0,.14,0-.07,0,0-.05a.52.52,0,0,1-.22.06c.06,0,.13,0,.14-.06s-.15,0-.2.05,0-.05-.1,0c.12-.05.3-.06.36-.1a1.59,1.59,0,0,0-.36.07.67.67,0,0,1,.21-.06c.07,0-.24,0,0,0l-.13,0,.13-.06s-.18,0,0-.05c0,0,0,0-.15,0s.1,0-.08.06c.15-.05,0,0-.08,0l.08,0s0,0-.1,0a.29.29,0,0,0,.11,0l-.12,0c-.06,0,.2-.06.16-.08H429s.09,0,0,0l-.32.06s.12,0,0,0h.13s.17-.06.16-.08a.47.47,0,0,0-.25.05.3.3,0,0,1,.13-.06s-.11,0-.18,0l.26-.12.18,0v0a1.22,1.22,0,0,0,.26-.06s0,0-.08,0a3.7,3.7,0,0,1-.54.11c-.07,0,.52-.15.17-.11-.05,0-.22,0-.15.05s-.22,0-.14,0,.21-.07.35-.07c-.08,0-.05,0,0,0s.21-.05.21-.08,0,0-.15,0,0,0-.11,0,.14-.07-.08,0c0,0-.1,0-.19.07h0c.05-.06-.15,0-.14,0l.16-.06c.14,0,0,.07.17,0,0,0-.11,0-.06,0h.05s.3-.09.12-.08a.61.61,0,0,0-.17,0s-.12,0-.14,0c.17,0,0-.05.18-.06-.09,0-.07.09.09.06s0,0,.18,0c0,0,.19-.08.32-.11h-.07l-.24.07s-.05-.06-.17,0a.42.42,0,0,1,.19,0,.09.09,0,0,1,0-.13c-.19.07-.06,0-.21,0a.62.62,0,0,1-.27.08s.09,0,.13,0c-.11,0,.16-.06,0,0a1.57,1.57,0,0,0,.39-.08c-.09,0,.11,0,.11-.05a.52.52,0,0,1-.21,0c.14-.07,0-.1,0-.13s.25-.06.27-.08-.18.05-.11,0h0s.1-.09-.15,0l.19,0s0,0-.05,0l.16,0c.13-.05,0,0,0-.06l-.11,0c-.09,0,0-.07,0-.1l.11,0h-.07c.1,0,.17,0,.08,0h.27c-.06,0-.13,0-.24,0s-.05.06.05,0,0,0-.05,0a1.49,1.49,0,0,1,.25,0s0,0,0,0,.09,0,.1,0-.09,0-.14,0c.13,0,.18,0,.15,0s.11,0,.07.06a1.25,1.25,0,0,1-.31,0c-.06,0,0,0-.05.06a1.31,1.31,0,0,1,.32,0l-.1,0c.06,0,.21,0,.18,0a.49.49,0,0,0,0,.15l-.09,0c.21,0,.09.05.19.06-.08.07.12.08,0,.15.09.06.18.12.17.21l-.15,0c.11,0-.08,0-.05,0s.15,0,.24,0c-.1.06,0,.08.14.09l-.1,0c.2,0,.05.07,0,.12s-.13,0-.12.06a.79.79,0,0,1,.27,0,.17.17,0,0,1-.08.12c.25,0,.13.16.29.22l-.11,0c.27,0,.08.2.23.25l-.19.05c-.06,0,.06,0,.2,0-.05.05.11,0,0,.1s.1,0,.13,0,0,.09,0,.12h0a.22.22,0,0,0-.13.05c.06,0,0,.08.19,0-.12.09.15.08,0,.19l.13,0s-.1.13,0,.13c0,0-.11,0-.11,0s.08,0,.12,0-.08.19,0,.24.14.22.19.33h0c.19,0-.15.15.12.09,0,0,0,0-.1.07.14,0-.09.12.09.11h0c-.09.08.06.07,0,.15a.16.16,0,0,0-.09,0c-.08.05.21,0,0,.06,0,0,.12,0,.11,0s.13.19.22.27c-.11.12-.38.14-.19.14h0c.07,0-.23.13-.11.1s.08,0,.16,0-.19.14-.07.14l-.08,0c.22,0,.13.06.38,0,.13.22.34.39.45.61s.23.42.2.7-.16.13-.06.16l-.07,0c.16-.06,0,0,.18,0s.08.15.11.24-.15,0-.13.05l.1,0,0,0a.33.33,0,0,0,.15-.05c.22.17,0,.5.13.7-.05.08,0,.13.09.17-.13.25-.24.46,0,.57A1.71,1.71,0,0,1,432.12,299.23Z" transform="translate(-388.13 -261.16)"/><path class="cls-7" d="M429.73,291.76a.94.94,0,0,1-.23.06Z" transform="translate(-388.13 -261.16)"/><path class="cls-7" d="M429,292.48l0,0s-.07,0,0,0Z" transform="translate(-388.13 -261.16)"/><path class="cls-7" d="M429,292.63a.17.17,0,0,1-.15,0Z" transform="translate(-388.13 -261.16)"/><path class="cls-7" d="M428.75,292.83c-.06,0-.09,0-.09,0Z" transform="translate(-388.13 -261.16)"/><path class="cls-7" d="M428.92,292.8l-.08.05C428.9,292.83,428.8,292.83,428.92,292.8Z" transform="translate(-388.13 -261.16)"/><path class="cls-7" d="M428.78,293.14s.07,0,0,0S428.68,293.16,428.78,293.14Z" transform="translate(-388.13 -261.16)"/><path class="cls-7" d="M428.92,293.25s0,0,0,0-.09,0-.1,0Z" transform="translate(-388.13 -261.16)"/><polygon class="cls-7" points="41.79 34.36 41.75 34.36 41.82 34.34 41.79 34.36"/><path class="cls-7" d="M430.29,296.53s-.07,0-.07,0S430.3,296.54,430.29,296.53Z" transform="translate(-388.13 -261.16)"/><polygon class="cls-7" points="42.69 35.78 42.69 35.77 42.83 35.72 42.69 35.78"/><rect class="cls-8" x="0.21" y="60.26" width="60.01" height="10.4"/><rect class="cls-9" x="49.73" y="60.24" width="10.67" height="10.4"/><path d="M445.86,326.74c0,2-.83,3.45-2.5,3.45s-2.47-1.54-2.48-3.41.81-3.43,2.52-3.43S445.86,324.93,445.86,326.74Zm-3.43,0c0,1.51.36,2.24.95,2.24s.93-.76.93-2.26-.31-2.24-.93-2.24S442.43,325.23,442.43,326.78Z" transform="translate(-388.13 -261.16)"/></svg>