<svg id="Layer_1" data-name="Layer 1" xmlns="http://www.w3.org/2000/svg" viewBox="0 0 60.42 70.68"><defs><style>.cls-1{fill:none;stroke:#1d1d1b;}.cls-2{fill:#12100b;fill-rule:evenodd;}.cls-3{fill:#1d1d1b;}.cls-4{fill:#bfbfbf;}.cls-5{fill:#f2f2f2;}</style></defs><rect class="cls-1" x="0.5" y="0.5" width="59.42" height="59.42"/><path class="cls-2" d="M414.86,307.09c.23,4.37,4.08.19,8,2.06C425.81,307.35,417,307.64,414.86,307.09Z" transform="translate(-388.13 -261.15)"/><path class="cls-2" d="M409,304.28c.05.09,0,.75.13.85,6.65-.78,11.49-.95,18.09.48.31-.06,1-.09,1-.43a10,10,0,0,1-2.46-2.48c-1.75-1-9.88-.38-11.22.26" transform="translate(-388.13 -261.15)"/><path class="cls-2" d="M417.32,281.11c1.43.56.76,4.49.72,6.91C417.88,298.76,417.21,285.31,417.32,281.11Z" transform="translate(-388.13 -261.15)"/><path class="cls-2" d="M412.79,270.24l1,.22c-2.7,5.15-11.79.23-15.63,3.58C400.21,270.1,409.19,273.25,412.79,270.24Z" transform="translate(-388.13 -261.15)"/><path class="cls-2" d="M412.35,278.46a48.34,48.34,0,0,0-5-1c1.51.43,2.92,1.22,4,1.21A2,2,0,0,0,412.35,278.46Z" transform="translate(-388.13 -261.15)"/><path class="cls-2" d="M421.71,278.21a1.46,1.46,0,0,0,1.15.43,8.84,8.84,0,0,0,3-.84l.75-.3a23.5,23.5,0,0,1-4.46.72Z" transform="translate(-388.13 -261.15)"/><path class="cls-2" d="M424.74,284.1a7.86,7.86,0,0,0,2.45.5,20,20,0,0,1-3.78-1.68A2,2,0,0,0,424.74,284.1Z" transform="translate(-388.13 -261.15)"/><path class="cls-2" d="M409,284a8.09,8.09,0,0,1-2.45.5,20,20,0,0,0,3.78-1.68A2.07,2.07,0,0,1,409,284Z" transform="translate(-388.13 -261.15)"/><path class="cls-2" d="M420.65,269.93l.65-.1c3.87,3,11.41,1,15,4.4C433,271.94,422,274.72,420.65,269.93Z" transform="translate(-388.13 -261.15)"/><path class="cls-2" d="M412.65,281.38c-4.14-2-10.91.65-12.26,1.55C402.6,280.45,409.67,278.17,412.65,281.38Z" transform="translate(-388.13 -261.15)"/><path class="cls-2" d="M421.55,281.38c3-3.29,9.71-.68,12.36,1.17C431.24,281.8,425.7,279.54,421.55,281.38Z" transform="translate(-388.13 -261.15)"/><path class="cls-2" d="M412.52,293.84c.46.84.56,2,1,2.91C412.34,296.19,412.09,295.23,412.52,293.84Z" transform="translate(-388.13 -261.15)"/><path class="cls-2" d="M425.44,294.17c.91.73-.05,2.3-.65,2.58C423.87,296,425.89,295.5,425.44,294.17Z" transform="translate(-388.13 -261.15)"/><path class="cls-2" d="M416.72,296.75c-.76,0-1-.56-1.94-.32C414.86,295.39,416.87,295.69,416.72,296.75Z" transform="translate(-388.13 -261.15)"/><path class="cls-2" d="M423.5,296.1c-.3.25-2.35,1.06-1.94,0C422.32,296,422.9,295.47,423.5,296.1Z" transform="translate(-388.13 -261.15)"/><path d="M441.15,294.7a24.75,24.75,0,0,0,.94-7.59c-.42,3.86-1.75,7.14-2.63,10.31-1.14,4.11-2.46,8.63-4.78,11.41-2.64,3.16-8.27,8.17-12.13,9.59-4.45,1.62-7.84-.28-11.09-2.14a29.54,29.54,0,0,1-12-12.06c-1.23-2.2-2.69-5-2.63-7-2-2.89-2.1-7.68-3.38-11.27a52.79,52.79,0,0,0,2.82,13.41A39.43,39.43,0,0,0,403.75,311a42.34,42.34,0,0,0,3.31,3.23c1.29,1,2.79,1.45,4.21,2.6a9.54,9.54,0,0,0,2.82,1.95c6.43,2.36,11.71-1.05,15.41-3.89,6.91-5.3,9.25-11.44,9.78-13.42C439.86,299.3,441,295,441.15,294.7Z" transform="translate(-388.13 -261.15)"/><path d="M393.7,287.73c0-3.26-1.14-6.52-1-9.93" transform="translate(-388.13 -261.15)"/><path d="M393.77,283.94a48.81,48.81,0,0,0-.42-7.36c-.23-1.48-.5-2.94-.61-4.43l0,.27,0-.46c0-.06,0-.13,0-.19q-.25-6.81,0,13.26c.11-3.07.06-6.15,0-9.22,0-1.49,0-3,0-4.48l0-.76c0-.36,0-.36,0,0-.09,2.59-.07,5.19-.07,7.79s0,5.07.06,7.6c0,.92.11,1.83.23,2.74.24,1.76.61,3.51.75,5.28l0-.27,0,.45c0,.06,0,.12,0,.18,0,1.06,0,.11,0-2.83,0,1.14,0,2.31,0,3.45.06,1,.07-1.22.06-.76.06-3.42.05-6.84,0-10.26Z" transform="translate(-388.13 -261.15)"/><path d="M441.66,292.91c.29-2.94,1.43-5.87,1.72-9,.14-2,0-4.24.14-6.36.29-4.24.86-9.62.43-13.7" transform="translate(-388.13 -261.15)"/><path class="cls-3" d="M428.45,294.93s-.11.06-.06,0S428.49,294.9,428.45,294.93Z" transform="translate(-388.13 -261.15)"/><path class="cls-3" d="M430.9,302.46c-.4,0,0-.21-.31-.26,0,0,.21,0,.15-.06-.31,0-.18-.22,0-.4h.05s-.16,0-.14-.05a.52.52,0,0,0,.11,0c-.11,0-.06,0-.15,0s.13,0,.18-.07l-.13,0c-.32,0,0-.1-.18-.11l.08,0c-.21,0-.2-.15-.29-.22l.18-.05c-.14,0-.18,0-.21,0,.13-.05-.14,0-.07-.06h0c-.16,0,.07-.05-.11,0l.11,0c-.2,0,.09-.06,0-.05h0c-.06,0,0,0,0,0h0c-.07,0,0-.08-.12,0,.12-.05.07,0,.24-.06-.19-.07-.19-.2-.23-.32a.83.83,0,0,1,.13-.07s0,0-.12,0l.08,0c.05,0-.18,0-.12,0a.4.4,0,0,0,.15,0c-.12,0-.11,0-.16,0l.1,0c-.15,0,0-.06-.08-.06h.09c.1-.07-.19,0-.14,0l.1,0c-.17,0-.13-.05-.19-.06h0s0-.08-.08-.09.22-.07.18-.09-.09,0-.29.05c0,0,.07-.11,0-.11s.21-.08.23-.06l.1-.05c.08,0,0,0,.08,0s-.1,0-.07-.05-.33.06-.36,0,.19-.07.23-.07l-.36.06s.14,0,.09,0l-.12,0s-.06,0,.11-.1,0,0,.1,0-.07,0-.08,0h0s-.09,0-.18,0,.1,0,.05,0-.14,0-.15,0l.13,0a.66.66,0,0,1-.27,0c-.08,0,.16,0,.12,0s-.19,0,0-.12l-.09,0s.12-.06.07-.06,0,0-.05,0h0c-.06,0-.2,0-.11-.12a.43.43,0,0,1-.18,0l.11,0c.06,0,0,0,.07-.06-.14,0,.14,0,0,0,.09,0-.18,0,0,0,0,0-.14,0-.05-.05s.16,0,.14-.05-.05,0-.09,0h-.05c-.11,0,0,0-.11,0,.08,0-.07,0,.1-.08l.14,0a1.43,1.43,0,0,0-.21,0l.06,0c-.21.07,0,0-.16,0,.06-.05,0-.07.11-.13-.07,0-.15,0-.12,0h.08c.05,0,0,0,0,0a1.36,1.36,0,0,0,.18-.12l-.25.07c.2-.09-.15,0,0-.1a.27.27,0,0,0,.16,0c.2-.09-.17,0-.08,0l-.17.06c.1-.05-.12,0,.06-.06-.07,0,0-.06-.12,0,.12-.1-.13-.08.16-.22,0,0,0,0-.09,0s.07,0,0,0-.06,0-.08,0,0-.05.19-.08-.3.06-.25,0,.09,0,.08-.05l-.13,0s.15-.07.27-.11c0,0,0,0-.12,0l.14-.07c-.1.05-.07,0-.1,0h0c.05,0,0,0,0,0a.27.27,0,0,0-.11.08c-.05,0-.05,0-.11,0,.12,0,.07-.06.08-.07s-.11,0-.11,0,0,0,.09,0,0,0,0,0,.14-.06.06-.06-.23.09-.16,0l.12,0,.05-.05-.11,0,.05,0c-.11,0-.05,0-.17,0s.06,0,.07-.07h0c.05,0,0,0-.07,0h0s0,0-.08,0,.39-.16.25-.13-.2,0-.26.07-.13,0,0-.13l-.1,0c0-.07-.17-.07,0-.19a.44.44,0,0,0,.17-.06c-.1,0,.09-.05-.07,0a.51.51,0,0,0-.18.08c-.06,0-.08-.06,0-.11l-.1,0c.15-.05.17-.09.11-.08l-.1,0,.09,0s-.19.07-.11,0l.09-.05c-.08,0-.21,0-.14,0l.12-.07a.27.27,0,0,0-.13,0,.45.45,0,0,1,.18-.14c-.31.05-.35,0-.36-.11l.07,0c.06-.05-.12,0-.08,0a1.43,1.43,0,0,1,.22-.08c.07-.06-.13,0-.17,0s.07,0-.05,0,.06-.07-.08,0l.21-.08h-.07c.15-.08.3-.06.48-.16h0c.13-.07.17,0,.21-.08a1.07,1.07,0,0,0-.33.12s-.33.11-.33.07,0,0,.14,0-.08,0,0,0a.65.65,0,0,1-.21.07c.05,0,.13,0,.13-.07a.69.69,0,0,0-.19.07c-.18.06,0-.05-.1,0a1.49,1.49,0,0,0,.35-.14c-.12.06-.18,0-.35.12a.77.77,0,0,1,.2-.09c.07,0-.24.05,0-.05l-.13.05.13-.08s-.18,0,0-.05c0,0,0,0-.14,0s.1,0-.07.07c.14-.07,0,0-.08,0l.07,0s0,0-.1,0l.11,0-.12,0c-.06,0,.19-.08.15-.09l.09,0s.08,0,0,0l-.3.1s.11-.06,0,0l.13,0s.16-.08.15-.1a.75.75,0,0,0-.24.08.27.27,0,0,1,.12-.06s-.1,0-.17.05l.23-.16.18,0v0c.15,0,.1-.05.25-.09s0,0-.08,0a4.13,4.13,0,0,1-.52.19c-.07,0,.49-.23.15-.14,0,0-.21.07-.14.07s-.21.07-.14,0,.2-.11.33-.13c-.07,0,0,0,0,0s.21-.08.2-.11a.22.22,0,0,0-.15,0c-.11.05,0,0-.1.06s.13-.09-.09,0c0,0-.09.07-.17.1h-.06l.08,0c0-.06-.15.05-.14,0l.15-.08c.13,0,0,.07.17,0,0,0-.11,0-.06,0h.05s.28-.13.1-.09a.46.46,0,0,0-.16.06s-.12,0-.14,0c.16-.06,0-.05.17-.09-.09.05-.06.1.1.05s0,0,.17,0c0,0,.18-.11.3-.16h-.07a2.29,2.29,0,0,1-.23.1s-.05,0-.17,0a.42.42,0,0,1,.18-.06c-.05,0-.05-.07,0-.12-.17.1-.06,0-.21.05a.54.54,0,0,1-.24.13l.12-.05c-.11,0,.15-.09,0,0a1.29,1.29,0,0,0,.38-.14c-.09,0,.1,0,.09-.06H428c.13-.09,0-.09-.05-.12a2.07,2.07,0,0,0,.26-.13s-.17.09-.11,0h0s.09-.11-.15,0l.18-.06h-.05l.15-.06c.12-.07,0,0-.05,0l-.1.06c-.09,0,0-.07-.05-.08l.1,0h-.07c.11,0,.16-.08.07-.06l.28-.05c-.06,0-.13,0-.23.09s0,.06.06,0h-.06a1.16,1.16,0,0,1,.24-.07s0,0,0,0,.09,0,.1,0-.09.05-.13.06c.13,0,.17,0,.15,0s.11,0,.08.06a1.33,1.33,0,0,1-.3.07s0,0,0,.06a1.78,1.78,0,0,1,.31-.08l-.09,0c.06,0,.2-.06.18,0a.42.42,0,0,0,0,.16l-.09,0c.2-.07.1,0,.2,0-.07.09.13.07,0,.16.1.05.2.09.2.19l-.14,0c.11,0-.08,0-.05.05a.57.57,0,0,1,.24-.06c-.09.08,0,.08.15.08l-.09,0c.19,0,0,.07,0,.12s-.12.07-.11.08a.71.71,0,0,1,.27,0s0,.08-.07.13c.25,0,.15.15.32.2l-.11,0c.28,0,.11.2.26.23l-.2.07c0,.05.08,0,.21,0,0,.05.12,0,0,.1s.1,0,.14,0,0,.09,0,.13v0a.32.32,0,0,0-.13.06c.06,0,0,.08.19,0-.11.1.16.08,0,.2a.3.3,0,0,1,.12,0s-.09.14,0,.14c0,0-.11,0-.11.05l.12,0c.14,0-.06.19,0,.25s.15.22.21.33h-.05c.19,0-.14.16.13.1,0,0,0,0-.1.06.14,0-.09.13.09.12h0c-.09.08.07.07,0,.15h-.08c-.09.05.21,0,0,.06l.1,0c-.05.13.13.2.22.29-.11.12-.37.13-.19.13,0,0,.09,0,0,0s-.23.12-.11.09.08,0,.16,0c-.07.08-.19.13-.07.13l-.08,0c.22,0,.13.07.38,0,.12.23.33.42.43.66s.2.45.15.73c-.18.12-.17.12-.08.16a.1.1,0,0,0-.07,0c.16-.05,0,0,.18,0s.07.17.09.26-.15,0-.13,0h.06a.22.22,0,0,0,.15,0c.2.2-.05.52,0,.74s0,.14.08.19c-.18.23-.31.42-.12.57A1.49,1.49,0,0,1,430.9,302.46Z" transform="translate(-388.13 -261.15)"/><path class="cls-3" d="M428.48,295a.64.64,0,0,1-.22.1Z" transform="translate(-388.13 -261.15)"/><path class="cls-3" d="M427.91,295.78s0,0,0,0-.07,0,0,0Z" transform="translate(-388.13 -261.15)"/><path class="cls-3" d="M427.92,295.93a.2.2,0,0,1-.15,0Z" transform="translate(-388.13 -261.15)"/><path class="cls-3" d="M427.69,296.17c-.05,0-.09,0-.09,0Z" transform="translate(-388.13 -261.15)"/><path class="cls-3" d="M427.85,296.11l-.07.05C427.83,296.14,427.73,296.15,427.85,296.11Z" transform="translate(-388.13 -261.15)"/><path class="cls-3" d="M427.75,296.45s.07,0,0,0S427.65,296.49,427.75,296.45Z" transform="translate(-388.13 -261.15)"/><path class="cls-3" d="M427.91,296.53s0,0,0,0l-.09,0Z" transform="translate(-388.13 -261.15)"/><polygon class="cls-3" points="40.88 37.5 40.84 37.5 40.91 37.48 40.88 37.5"/><path class="cls-3" d="M429.35,299.63s-.06,0-.07,0S429.37,299.64,429.35,299.63Z" transform="translate(-388.13 -261.15)"/><polygon class="cls-3" points="41.74 38.91 41.73 38.91 41.88 38.87 41.74 38.91"/><path class="cls-3" d="M409.2,294.78s-.11-.07,0,0S409.24,294.8,409.2,294.78Z" transform="translate(-388.13 -261.15)"/><path class="cls-3" d="M406.65,303.18c-.38-.11,0-.25-.23-.37,0,0,.21,0,.16,0-.3-.12-.11-.3.12-.44l.06,0s-.15-.07-.13-.1h.11c-.12,0-.05,0-.14-.07a1.23,1.23,0,0,0,.19,0l-.13,0c-.32-.06,0-.11-.13-.18a.11.11,0,0,0,.08,0c-.19-.11-.14-.23-.21-.34h.19c-.14,0-.18-.05-.2-.08.14,0-.13-.06-.05-.09h0c-.15,0,.09,0-.09-.07h.12c-.21,0,.11,0,0-.06h0c-.05,0,.06,0,0-.05h0c-.05-.05.06-.07-.09-.08.12,0,.05,0,.24,0a.49.49,0,0,1-.1-.45l.15,0s0-.05-.1-.08h.09c.06,0-.17-.05-.1-.07a.57.57,0,0,0,.15,0c-.12,0-.09-.07-.13-.11l.09,0c-.14-.05,0-.06-.05-.1l.09,0c.12,0-.19,0-.12-.06l.1,0c-.16-.06-.1-.11-.15-.16h0s0-.07,0-.13.23,0,.2,0-.07-.08-.28-.09c0,0,.12-.07.06-.11s.22,0,.24.05h.11c.07,0,0,0,.07,0s-.07-.06,0-.07-.32-.11-.33-.16.2,0,.23.05l-.34-.13s.14,0,.1,0l-.12,0s0-.07.15,0,0,0,.1,0-.06,0-.05-.07h0s-.07-.07-.17-.07.11,0,.05,0-.12-.07-.12-.1l.13,0a.63.63,0,0,1-.22-.17c-.09,0,.15.05.1,0,.13,0-.14-.14,0-.15l-.1,0s.14,0,.1,0,0,0,0,0l0,0c-.06,0-.15-.15,0-.19-.05,0-.17-.07-.16-.08l.11,0c.07,0,0-.05.1,0-.13-.06.09.13,0,.07.1,0-.16-.09,0-.05,0,0-.12-.08,0-.08s.15.06.15,0-.05,0-.08-.06l0,0c-.11,0,0,0-.11-.05.09,0,0-.06.14,0l.14,0-.2-.09h.06c-.21-.05,0,0-.13-.09.08,0,0-.08.16-.06-.06-.05-.13-.09-.07-.11a.09.09,0,0,0,.07,0c.06,0,0,0,0-.05h.22a1.84,1.84,0,0,0-.25-.09c.22,0-.11-.11.09-.08a.21.21,0,0,0,.15.06c.21,0-.15-.09,0-.1l-.18,0c.11,0-.09-.08.09,0-.06,0,.07,0-.1-.07.16,0,0-.18.27-.12,0,0,0,0-.08-.05s.06,0,0,0l-.07,0s.06,0,.19.05-.27-.14-.19-.17.1,0,.1,0l-.11-.07s.16,0,.28.07,0,0-.09-.08l.16,0c-.11,0-.07,0-.09-.06l0,0c.05,0,0,0,0,0a.37.37,0,0,0-.14,0c-.05,0,0,0-.08-.07.11,0,.09,0,.1,0s-.09-.06-.09-.06,0,0,.1,0-.06,0,0,0,.15,0,.08,0-.23-.07-.14-.08l.11.06h.07l-.11,0h.05c-.1,0,0-.05-.14-.11s.09,0,.11,0h0c.07,0,0,0,0-.07h0s0,0-.05-.07.39.14.27.06-.17-.11-.24-.12c.08,0-.06-.14.11-.12l-.08-.05c.06-.05-.07-.19.15-.16a.46.46,0,0,0,.16.07c-.08-.05.11,0-.05-.05a.52.52,0,0,0-.18-.06c0-.06,0-.11.09-.1a.23.23,0,0,1-.1-.05c.15.07.18.05.14,0l-.09-.05.1,0s-.18-.09-.08-.07l.09,0c-.06-.05-.17-.14-.08-.13l.14,0a.2.2,0,0,0-.13-.07c.1,0,.12,0,.24,0-.24-.2-.2-.31-.14-.38l.06,0c.08,0-.1-.07-.05-.06a1.31,1.31,0,0,1,.21.1c.09,0-.09-.09-.11-.13s.05.05-.06,0,.09,0,0-.09a1.28,1.28,0,0,1,.2.11l0,0c.16.06.24.19.44.26v0c.14,0,.12.12.19.1a1.14,1.14,0,0,0-.3-.18c0-.05-.29-.18-.26-.21s0,0,.11.09,0-.07,0-.07a.48.48,0,0,1-.2-.12c.08,0,.12.08.15.06s-.11-.1-.18-.11.06,0-.06-.09c.13.05.26.18.33.18-.11-.06-.13-.13-.3-.2a.44.44,0,0,1,.19.1c.08,0-.18-.16.05,0l-.12-.07.14.05s-.12-.14.05,0c0,0,0-.05-.11-.1s.07.07-.1,0c.14.05,0-.05,0-.09l.07,0s0,0-.07-.08l.1.05-.09-.06c0-.07.18.09.17,0l.06.07s.09,0,.07,0l-.26-.18c0-.05.11,0,0,0l.1.09s.16.07.17.05a.44.44,0,0,0-.2-.15s.07,0,.13.06-.1-.06-.14-.12l.27.09.13.12v0c.11.1.1.05.23.14s0,0,0-.07c-.23-.1-.26-.21-.45-.32,0-.07.47.26.2,0-.05,0-.18-.13-.14-.07s-.18-.14-.08-.12.2.09.29.2c-.06,0-.06,0,0,0s.18.13.2.1,0,0-.1-.11,0,0-.1-.05.15,0,0-.09c0,0-.11,0-.18-.09l0-.05.07.05c.07,0-.12-.09-.08-.12l.15.07c.11.09-.09,0,.11.14,0,0-.07-.09,0-.08l0,.05s.28.15.15,0-.06-.05-.14-.1-.06-.12-.05-.15,0,0,.17.09c-.09,0-.12,0,0,.12s0,0,.12.14c0,0,.19.08.3.15s0,0,0-.06l-.21-.13c.05,0,0-.08-.07-.17a.37.37,0,0,1,.16.12.11.11,0,0,1,.1-.11c-.18-.09,0-.07-.16-.15a.75.75,0,0,1-.25-.13s.08.05.11.07.17.07,0,0c0,.07.19.14.31.24-.05-.08.09.07.11,0a.48.48,0,0,1-.09-.2c.14.06.07-.08.09-.12s.21.15.24.15-.16-.1-.07-.08l0,0s.14,0,0-.14l.14.12s0,0,0,0,.1.06.12.1,0-.05,0-.08l-.1-.05c0-.09.06-.05.05-.11l.09.07,0-.06c.08.08.15.1.09,0l.17.22c-.06,0-.09-.09-.18-.15s-.08,0,0,.07,0,0,0-.06c.13.09.11.11.18.18s0,0,0,0,.05.08,0,.1-.08,0-.12-.09.13.13.08.13.05.11,0,.11a1.3,1.3,0,0,1-.21-.22c-.07,0,0,0-.08,0a1.64,1.64,0,0,1,.23.24l-.08-.06c0,.05.14.14.1.15s-.11.06-.15.09l-.08-.06c.16.15,0,.11.08.2-.11,0,0,.15-.15.08,0,.12,0,.23-.06.3l-.11-.1c.08.08-.08,0-.07,0s.11.11.18.17c-.12,0,0,.09,0,.17l-.09-.05c.14.14,0,.09-.08.12s-.12-.06-.12,0a.63.63,0,0,1,.18.2.18.18,0,0,1-.14,0c.15.21,0,.24,0,.4l-.11,0c.17.21-.09.22,0,.37l-.18-.1c-.07,0,0,.08.15.14-.06,0,.06.1-.1.05s.08.07.09.1-.09,0-.08.12h0s-.12-.06-.13-.05-.08.05.15.13c-.15,0,.05.17-.14.15a.54.54,0,0,1,.11.06c0,.05-.17.05-.08.13s-.1-.06-.11,0,.08,0,.11.06-.18.11-.18.2,0,.28,0,.41l-.05,0c.17.1-.21,0,.05.16-.05,0,0,0-.12,0,.12.07-.15.06,0,.15l0,0c-.12,0,0,.1-.1.13a.19.19,0,0,0-.08,0c-.09,0,.19.1,0,.05l.1,0c-.11.09,0,.25,0,.38-.16.06-.39-.08-.23,0h0c.05,0-.27,0-.16,0s.08,0,.17.05c-.11,0-.24,0-.14.08l-.07,0c.2.1.08.13.31.22,0,.28.09.56.08.83s0,.52-.16.78c-.2,0-.2.05-.12.13h-.07c.16,0,0,.05.16.07,0,.1,0,.19,0,.29s-.15,0-.14,0l.1,0h-.05a.39.39,0,0,0,.16,0c.13.27-.21.51-.18.77-.07.06,0,.15,0,.21-.22.2-.4.38-.25.58A1.37,1.37,0,0,1,406.65,303.18Z" transform="translate(-388.13 -261.15)"/><path class="cls-3" d="M409.19,294.82a.46.46,0,0,1-.19-.14Z" transform="translate(-388.13 -261.15)"/><path class="cls-3" d="M408.13,294.82s0,0,0,0-.06-.06,0,0Z" transform="translate(-388.13 -261.15)"/><path class="cls-3" d="M408,294.94a.21.21,0,0,1-.08-.13Z" transform="translate(-388.13 -261.15)"/><path class="cls-3" d="M407.65,294.9c-.06,0-.08,0-.07-.06Z" transform="translate(-388.13 -261.15)"/><path class="cls-3" d="M407.78,295s0,0-.08,0S407.69,294.93,407.78,295Z" transform="translate(-388.13 -261.15)"/><path class="cls-3" d="M407.41,295.19s0,.06,0,0S407.33,295.13,407.41,295.19Z" transform="translate(-388.13 -261.15)"/><path class="cls-3" d="M407.42,295.39s0,0,0,0-.08,0-.08,0Z" transform="translate(-388.13 -261.15)"/><polygon class="cls-3" points="18.39 37.07 18.36 37.04 18.43 37.06 18.39 37.07"/><path class="cls-3" d="M406.23,299.45s-.07,0-.08,0S406.24,299.47,406.23,299.45Z" transform="translate(-388.13 -261.15)"/><polygon class="cls-3" points="18.35 39.02 18.35 39.02 18.49 39.04 18.35 39.02"/><rect class="cls-4" x="0.2" y="60.26" width="60.01" height="10.4"/><rect class="cls-5" x="49.73" y="60.27" width="10.67" height="10.4"/><path d="M443,324.85h0l-1.26.6-.26-1.16,1.76-.81h1.27v6.61H443Z" transform="translate(-388.13 -261.15)"/></svg>