<svg id="Layer_1" data-name="Layer 1" xmlns="http://www.w3.org/2000/svg" viewBox="0 0 60.42 70.66"><defs><style>.cls-1{fill:none;stroke:#1d1d1b;}.cls-2{fill:#12100b;fill-rule:evenodd;}.cls-3{fill:#1d1d1b;}.cls-4{fill:#bfbfbf;}.cls-5{fill:#f2f2f2;}</style></defs><rect class="cls-1" x="0.5" y="0.5" width="59.42" height="59.42"/><path class="cls-2" d="M430.9,283.27a9.26,9.26,0,0,1-.23,3.51c-.23.49-1.83,2.71-1.26,3.51a2.64,2.64,0,0,0,3,.86c.91-.5-.46-3.39-.57-4.37" transform="translate(-388.12 -261.16)"/><path class="cls-2" d="M410.05,274.7h-.17a7.58,7.58,0,0,1,2.29,1,5.51,5.51,0,0,0,2,1h0a.47.47,0,0,0,.24-.05,6.73,6.73,0,0,0-4.4-2h0Z" transform="translate(-388.12 -261.16)"/><path class="cls-2" d="M423,276.87a17.24,17.24,0,0,1,4.76-2.15C425.42,274.78,423.76,275.39,423,276.87Z" transform="translate(-388.12 -261.16)"/><path class="cls-2" d="M398.91,272.68c3.34-4.36,13.73-2.29,16.13,1.37C411.59,272,404.33,270.48,398.91,272.68Z" transform="translate(-388.12 -261.16)"/><path class="cls-2" d="M438.37,272.68c-5.31-1.57-12.23-1.73-15.78,1.72C423.22,270.38,435.28,268.3,438.37,272.68Z" transform="translate(-388.12 -261.16)"/><path class="cls-2" d="M414.42,279.32c-3.4-1.53-9.55-2.17-13.23-.37C402.46,276.85,412.6,275.89,414.42,279.32Z" transform="translate(-388.12 -261.16)"/><path class="cls-2" d="M422.86,279.32c2.1-3.18,8.72-2.51,12.12-1.1,3.21,1.32-3.37-.75-7-.37C425.86,278.08,424.46,279.1,422.86,279.32Z" transform="translate(-388.12 -261.16)"/><path class="cls-2" d="M409.32,281a1.68,1.68,0,0,0-1.06.88,3.19,3.19,0,0,1,2.48-1,17.72,17.72,0,0,0,2.56-.13,4.65,4.65,0,0,0-1.59-.25h0A6.4,6.4,0,0,0,409.32,281Z" transform="translate(-388.12 -261.16)"/><path class="cls-2" d="M424.29,280.79a4.11,4.11,0,0,1,.78-.07c1.63,0,3.13.9,4.05,1a6,6,0,0,0-3.5-1.24A2.91,2.91,0,0,0,424.29,280.79Z" transform="translate(-388.12 -261.16)"/><path class="cls-2" d="M418.05,279.4c.36.08.22.65.66.66-.48,1.19-.33,3.58-.33,5.91,0,1.8.26,5.35-.33,4.59C418.4,286.68,417.05,282.85,418.05,279.4Z" transform="translate(-388.12 -261.16)"/><path class="cls-2" d="M412.47,291.88c.47.85.57,2.05,1,2.95C412.29,294.26,412,293.29,412.47,291.88Z" transform="translate(-388.12 -261.16)"/><path class="cls-2" d="M425.6,292.21c.93.74,0,2.33-.65,2.62C424,294.08,426.06,293.56,425.6,292.21Z" transform="translate(-388.12 -261.16)"/><path class="cls-2" d="M416.74,294.83c-.78,0-1-.57-2-.33C414.84,293.45,416.9,293.75,416.74,294.83Z" transform="translate(-388.12 -261.16)"/><path class="cls-2" d="M423.63,294.18c-.3.24-2.38,1.07-2,0C422.43,294.07,423,293.53,423.63,294.18Z" transform="translate(-388.12 -261.16)"/><path class="cls-2" d="M409.4,305.6a1.73,1.73,0,0,0,.27.52c6.82-1.68,11.09-2,18,.05.32-.12,1-.25,1.05-.89a15.13,15.13,0,0,1-2.81-3c-1.85-1.63-10.08-1.16-11.44.14" transform="translate(-388.12 -261.16)"/><path class="cls-2" d="M424.09,306.75c.13,4.09-3.78.5-7.29,2.54C413.93,307.85,422.14,307.44,424.09,306.75Z" transform="translate(-388.12 -261.16)"/><path d="M441.6,294.84a25,25,0,0,0,.94-7.58c-.43,3.86-1.75,7.14-2.63,10.31-1.14,4.11-2.47,8.63-4.79,11.41-2.63,3.16-8.26,8.17-12.12,9.58-4.46,1.63-7.84-.27-11.09-2.13a29.54,29.54,0,0,1-12-12.06c-1.23-2.2-2.69-5-2.63-7-2-2.9-2.1-7.68-3.39-11.28a53.75,53.75,0,0,0,2.82,13.42,39.66,39.66,0,0,0,7.52,11.67,42.34,42.34,0,0,0,3.31,3.23c1.29,1,2.78,1.45,4.21,2.6a9.28,9.28,0,0,0,2.82,1.94c6.43,2.37,11.71-1,15.41-3.89,6.9-5.29,9.25-11.43,9.77-13.41C440.31,299.45,441.46,295.17,441.6,294.84Z" transform="translate(-388.12 -261.16)"/><path d="M394.15,287.87c0-3.25-1.15-6.51-1-9.92" transform="translate(-388.12 -261.16)"/><path d="M394.22,284.09a50.37,50.37,0,0,0-.42-7.37c-.23-1.47-.5-2.94-.62-4.42l0,.26c0-.15,0-.3,0-.46a1.09,1.09,0,0,1,0-.18q-.26-6.81,0,13.26c.11-3.07.06-6.15.05-9.22,0-1.5,0-3,0-4.48l0-.76c0-.36,0-.36,0,0-.09,2.59-.07,5.19-.07,7.79s0,5.07.06,7.6c0,.91.11,1.83.23,2.73.24,1.77.6,3.51.75,5.29l0-.27,0,.45a1,1,0,0,0,0,.17q.06,1.59,0-2.82c0,1.14,0,2.31,0,3.45.06,1,.07-1.22.06-.76.06-3.42.05-6.84,0-10.26Z" transform="translate(-388.12 -261.16)"/><path d="M442.11,293.06c.28-2.94,1.43-5.87,1.72-9,.14-2,0-4.24.14-6.36.28-4.24.86-9.62.43-13.7" transform="translate(-388.12 -261.16)"/><path class="cls-3" d="M428.45,292s-.11.07-.06,0S428.49,291.94,428.45,292Z" transform="translate(-388.12 -261.16)"/><path class="cls-3" d="M430.9,299.5c-.4,0,0-.21-.31-.26,0,0,.21-.05.15-.06-.31,0-.17-.22,0-.4h.06s-.16,0-.14,0l.1,0c-.11,0-.06,0-.15,0a1.34,1.34,0,0,1,.18-.07l-.13,0c-.32,0,0-.1-.18-.11l.09,0c-.21,0-.21-.15-.3-.22l.18-.05a.32.32,0,0,1-.21,0c.14-.05-.14,0-.07-.06h0c-.15,0,.08-.05-.11,0l.11,0c-.2,0,.09-.06,0-.05l0,0c-.05,0,0,0,0-.05h0c-.06,0,0-.07-.11,0,.12,0,.06,0,.24-.05-.2-.07-.2-.2-.24-.32a.83.83,0,0,1,.13-.07s0,0-.12,0l.08,0c.05,0-.17,0-.11,0a.56.56,0,0,0,.15,0c-.13,0-.12,0-.16,0h.09c-.15,0,0-.06-.08-.06l.09,0c.1-.07-.19.05-.13,0l.1,0c-.17,0-.14,0-.2-.06h0s0-.07-.07-.09.21-.06.17-.08-.09,0-.29,0c0,0,.08-.1,0-.1s.21-.08.24-.06l.1-.06c.07,0,0,0,.07,0s-.09,0-.07-.05-.32.06-.36,0,.19-.07.23-.07l-.36.05s.14,0,.09-.05l-.12,0s-.06,0,.11-.1,0,0,.1,0-.06,0-.07,0h0s-.09,0-.18,0,.1,0,.06,0-.14,0-.15,0l.12,0a.83.83,0,0,1-.26,0c-.09,0,.15,0,.11,0s-.19,0,0-.13-.11.05-.09,0,.12-.06.07-.06,0,0-.05,0,0,0,.05,0-.2,0-.12-.12-.18,0-.18,0l.11,0c.07,0,0,0,.08-.06-.14,0,.14,0,0,.05.09,0-.18,0,0,0,0,0-.14,0-.05-.05s.16,0,.15-.05-.06,0-.1,0h-.05c-.11,0,0,0-.11,0,.09,0-.07,0,.11-.08l.14,0a1.31,1.31,0,0,0-.22,0l.06,0c-.21.07,0,0-.16,0,.06-.06,0-.07.11-.13-.07,0-.15,0-.11,0h.07c.06,0,0,0,0,0l.18-.12a1.17,1.17,0,0,0-.25.07c.2-.09-.15,0,0-.1a.27.27,0,0,0,.16,0c.2-.09-.17,0-.08-.05l-.17.07c.1-.05-.11,0,.06-.07-.06,0,.05-.05-.12,0,.13-.1-.13-.09.16-.22,0,0,0,0-.09,0s.07,0,0,0-.05,0-.08,0,0,0,.19-.08-.3.07-.25,0,.1,0,.08,0l-.13,0s.15-.07.27-.12a.16.16,0,0,0-.11,0l.14-.07c-.11.05-.08,0-.11,0h0c.05,0,0,0,0,0a.26.26,0,0,0-.12.08c-.05,0,0,0-.11,0,.12,0,.08,0,.08-.07s-.11,0-.1,0,0,0,.09-.05-.06,0,0,0,.14-.06.06-.05-.22.09-.16,0l.12,0,.05,0-.11,0,.05,0c-.11,0,0,0-.17,0s.06-.05.07-.07h0c.06,0,0,0-.07,0h0s0,0-.09,0,.39-.15.26-.12a.67.67,0,0,0-.27.07c.06-.06-.13,0,0-.13l-.1,0c0-.07-.16-.07,0-.19a.7.7,0,0,0,.17-.06c-.1,0,.09-.05-.07,0a.38.38,0,0,0-.17.08c-.07,0-.09-.06,0-.11l-.11,0c.15-.06.17-.09.11-.09l-.09,0,.09-.05s-.2.06-.12,0l.1,0c-.08,0-.22,0-.15,0l.13-.06a.2.2,0,0,0-.14,0c.07-.06.07-.09.18-.14-.3,0-.35,0-.35-.11l.07,0s-.13,0-.09,0,.14-.07.23-.09-.14,0-.17,0,.06,0-.05,0,.05-.06-.09,0a1.8,1.8,0,0,1,.21-.08h-.07c.15-.08.3-.07.49-.16h0c.14-.07.18,0,.21-.08a1.83,1.83,0,0,0-.33.11s-.33.11-.33.07,0,0,.14,0-.08,0,0,0a.59.59,0,0,1-.22.08c.06,0,.13,0,.14-.07a.77.77,0,0,0-.2.07c-.18.06,0-.05-.1,0a2.78,2.78,0,0,0,.35-.14,2.08,2.08,0,0,0-.35.12.54.54,0,0,1,.2-.09c.07,0-.23.05,0-.05l-.12,0,.13-.07s-.19,0,0-.05c0,0,0,0-.15,0s.1,0-.07.07c.14-.07,0,0-.08,0l.07,0s0,0-.1,0a.23.23,0,0,0,.11-.05l-.11,0c-.07,0,.18-.08.14-.1h.1s.07-.05,0-.05l-.3.1s.11-.05,0,0l.13,0s.16-.08.15-.1a.62.62,0,0,0-.24.08s.05,0,.13-.07-.11.05-.18.05l.24-.15.17,0v0c.14,0,.1-.05.24-.09s0,0-.07,0a4.15,4.15,0,0,1-.53.18c-.07,0,.49-.22.16-.13-.05,0-.22.07-.15.07s-.21.07-.14,0a3.08,3.08,0,0,1,.34-.13c-.07,0,0,0,0,0s.21-.09.2-.11,0,0-.14,0,0,0-.1.06.12-.09-.09,0c0,0-.1.07-.18.1h-.06l.08,0c0-.06-.14.05-.14,0l.15-.07c.14-.05,0,.07.18,0,0,0-.12,0-.07,0h.05s.29-.13.11-.1a.64.64,0,0,0-.16.06s-.13,0-.15,0c.16-.06,0-.05.17-.09-.09.05-.06.09.1,0s0,0,.18,0c0,0,.17-.1.29-.15s-.05,0-.07,0l-.22.1s-.06-.05-.18,0a.89.89,0,0,1,.18-.07c-.05,0-.05-.07,0-.12-.17.1-.06,0-.2.06a.65.65,0,0,1-.25.13l.12-.05c-.11,0,.15-.09,0,0,.07,0,.22-.09.37-.14-.09,0,.1,0,.09-.07H428c.12-.1,0-.09-.06-.12s.24-.1.26-.13-.17.09-.11,0h0c-.05,0,.08-.1-.15,0l.18-.06s0,0-.05,0l.14-.06c.12-.07,0,0,0-.05l-.1.06c-.1,0,0-.07-.06-.09l.11,0h-.07c.1,0,.15-.08.07-.06l.27,0c-.06,0-.13,0-.23.08s0,.07.06,0h-.06a1.16,1.16,0,0,1,.24-.07s0,0,0,0,.09,0,.1,0-.08.05-.13.06c.13-.05.18-.05.15,0s.11,0,.09.05a1.71,1.71,0,0,1-.3.08c-.06,0,0,0-.05.06a1.65,1.65,0,0,1,.32-.08l-.1,0c.06,0,.2-.06.18,0a.38.38,0,0,0,0,.15l-.09,0c.21-.06.1,0,.2,0-.07.08.13.06,0,.15.1.06.21.1.2.2l-.14,0c.11,0-.07,0-.05.05a.6.6,0,0,1,.24-.06c-.09.08,0,.08.16.07l-.1,0c.19,0,0,.07,0,.12l-.11.07a.94.94,0,0,1,.27,0s0,.08-.06.13c.25,0,.15.15.31.2l-.1.05c.27,0,.1.2.25.23l-.19.07c-.05,0,.07,0,.2,0,0,0,.12,0,0,.1s.1,0,.13,0,0,.09,0,.13v0a.32.32,0,0,0-.13.06c.06,0,0,.08.2,0-.12.1.15.08,0,.2a.35.35,0,0,1,.12,0s-.09.14,0,.13c0,0-.11,0-.11,0s.08,0,.12,0-.06.2,0,.25.15.23.21.34h0c.19,0-.15.16.12.09,0,0,0,.05-.1.07.14,0-.08.13.09.12h0c-.08.08.07.07,0,.15a.12.12,0,0,0-.08,0c-.08,0,.21,0,0,.06,0,0,.11,0,.1,0s.13.19.22.29c-.11.12-.37.13-.19.13,0,0,.09,0,.05,0s-.24.12-.12.1.08,0,.16,0c-.07.08-.19.13-.07.13l-.08,0c.22,0,.13.06.38,0,.12.24.33.43.43.66s.2.46.15.74c-.18.11-.17.12-.08.16h-.06c.15,0,0,0,.18,0,0,.1.06.17.08.26s-.15,0-.13,0h.1l0,0a.34.34,0,0,0,.16,0c.19.2-.06.52,0,.74-.05.07,0,.13.08.19-.17.23-.31.42-.12.57A1.77,1.77,0,0,1,430.9,299.5Z" transform="translate(-388.12 -261.16)"/><path class="cls-3" d="M428.48,292a.59.59,0,0,1-.21.1Z" transform="translate(-388.12 -261.16)"/><path class="cls-3" d="M427.91,292.82s0,0,0,0-.07,0,0,0S427.88,292.83,427.91,292.82Z" transform="translate(-388.12 -261.16)"/><path class="cls-3" d="M427.92,293a.2.2,0,0,1-.15,0Z" transform="translate(-388.12 -261.16)"/><path class="cls-3" d="M427.69,293.2q-.07.06-.09,0Z" transform="translate(-388.12 -261.16)"/><path class="cls-3" d="M427.85,293.15s0,0-.07.05S427.73,293.19,427.85,293.15Z" transform="translate(-388.12 -261.16)"/><path class="cls-3" d="M427.76,293.49s.07,0,0,0S427.66,293.52,427.76,293.49Z" transform="translate(-388.12 -261.16)"/><path class="cls-3" d="M427.91,293.57s0,0,0,0a.19.19,0,0,1-.09,0Z" transform="translate(-388.12 -261.16)"/><polygon class="cls-3" points="40.9 34.52 40.86 34.52 40.93 34.5 40.9 34.52"/><path class="cls-3" d="M429.36,296.67s-.07,0-.08,0S429.37,296.68,429.36,296.67Z" transform="translate(-388.12 -261.16)"/><polygon class="cls-3" points="41.75 35.93 41.75 35.93 41.89 35.89 41.75 35.93"/><path class="cls-3" d="M409.2,291.82c0-.05-.11-.07,0-.06S409.25,291.84,409.2,291.82Z" transform="translate(-388.12 -261.16)"/><path class="cls-3" d="M406.65,300.22c-.38-.11,0-.26-.23-.38,0,0,.21,0,.16,0-.3-.12-.11-.31.12-.44h.06s-.15-.06-.12-.09h.1c-.11,0-.05-.06-.14-.07l.2,0-.14,0c-.32-.06,0-.11-.13-.18h.08c-.19-.11-.14-.23-.21-.35l.19,0c-.14,0-.17-.05-.2-.09.15,0-.13-.06-.05-.09h0c-.15,0,.09,0-.09-.07h.12c-.2,0,.11,0,0-.05h-.05s.06,0,0-.05h0c-.05,0,.07-.06-.09-.07.13,0,.05.05.24,0a.49.49,0,0,1-.1-.45l.15,0s0-.06-.1-.08h.09c.06,0-.17-.05-.1-.07l.16,0c-.13,0-.1-.07-.14-.11a.2.2,0,0,0,.09,0c-.13-.05,0-.05-.05-.09l.09,0c.12,0-.19,0-.12-.07a.35.35,0,0,0,.11,0c-.17-.06-.11-.11-.16-.16h0s0-.08,0-.13.22,0,.19,0-.06-.08-.27-.09c0,0,.11-.08.05-.11s.23,0,.24.05h.11c.08,0,0,0,.07,0s-.07-.07,0-.08-.31-.1-.33-.15.2,0,.23,0l-.34-.12s.15,0,.1,0a.35.35,0,0,1-.11,0s0-.07.14-.05,0,0,.1,0-.05,0-.05-.07h0s-.06-.07-.17-.07.11,0,.06,0-.13-.06-.12-.09l.12,0a.62.62,0,0,1-.22-.16c-.09,0,.15,0,.1,0,.13,0-.14-.14,0-.15l-.1,0s.14,0,.1,0,0,0,0-.05,0,0,0,0-.15-.16,0-.19l-.16-.08.12,0c.06,0,0-.05.09,0-.13-.06.09.13,0,.07.09,0-.17-.09,0,0,0,0-.12-.08,0-.08s.15.06.15,0-.05,0-.08-.07l0,0c-.11,0,0,0-.1,0,.09,0,0-.07.13,0l.14,0s-.14-.06-.2-.09h.07c-.22-.05,0,0-.14-.09.08,0,0-.08.17-.07-.06,0-.13-.08-.08-.1l.07,0c.07,0,0,0,0-.05a1.57,1.57,0,0,0,.22,0,1.06,1.06,0,0,0-.25-.09c.22,0-.11-.11.09-.08a.36.36,0,0,0,.15.06c.22,0-.14-.09,0-.1l-.18,0c.11,0-.08-.09.09,0-.06,0,.07,0-.1-.07.16,0,0-.18.27-.12,0,0,0,0-.07-.05s.06,0,0,0l-.07,0s.06,0,.2,0-.28-.13-.19-.16.09,0,.09,0l-.11-.07s.16,0,.28.07,0,0-.08-.08l.15,0c-.11,0-.06,0-.09-.06l0,0c.05,0,0,0,0,0a.15.15,0,0,0-.13,0l-.09-.07c.11,0,.09,0,.11,0s-.1-.06-.09-.06,0,0,.09,0-.06,0,0,0,.15,0,.08,0-.22-.08-.14-.08l.11.06h.07l-.1,0h.05c-.11,0,0-.06-.14-.11s.08,0,.1,0h0c.06,0,0,0,0-.07h0s0,0-.05-.07.4.14.28.06a.8.8,0,0,0-.25-.13c.09,0-.06-.13.12-.11l-.09,0c.07-.05-.07-.19.16-.16,0,0,.1.05.16.07-.09-.05.1,0-.06-.05a.46.46,0,0,0-.18-.06c0-.06,0-.12.09-.1a.15.15,0,0,1-.09-.05c.14.07.18.05.13,0l-.08-.05.1,0s-.19-.09-.09-.08l.1,0c-.07-.05-.18-.14-.09-.13l.14,0a.2.2,0,0,0-.13-.07.4.4,0,0,1,.24,0c-.24-.2-.2-.31-.14-.38l.07,0c.07,0-.11-.06-.06-.06a2.12,2.12,0,0,1,.21.11c.09,0-.09-.1-.11-.13s.05,0-.06,0,.09,0,0-.08l.19.11,0-.05c.16.05.24.19.44.26v0c.14.05.13.12.19.1a1.27,1.27,0,0,0-.29-.18c0-.05-.3-.18-.27-.21s0,0,.11.09,0-.07,0-.07a.39.39,0,0,1-.19-.12c.07,0,.11.08.14.06s-.11-.11-.18-.11.07,0-.05-.09c.12,0,.25.18.33.17-.12,0-.13-.12-.31-.2a.88.88,0,0,1,.19.1c.08,0-.18-.16.05,0l-.11-.07.14.05s-.13-.14,0,0c0,0,0-.05-.11-.1s.07.07-.1,0c.15.06,0,0,0-.08l.07,0s0,0-.07-.08a.25.25,0,0,0,.11,0l-.1-.07c0-.06.18.1.17.05l.07.07s.08,0,.06,0l-.26-.19s.11.06,0,0l.1.09s.16.08.17.05a.51.51,0,0,0-.2-.14s.07,0,.13.05-.1-.05-.14-.11l.27.09.14.11h0c.11.1.1.05.22.14s0,0,0-.07c-.22-.1-.26-.21-.45-.32,0-.07.47.26.2,0-.05,0-.18-.13-.14-.07s-.18-.14-.08-.12.2.09.29.2-.05,0,0,0,.19.12.2.1,0-.06-.09-.12,0,0-.11,0,.15,0,0-.1c0,0-.11,0-.18-.08l0-.05.07.05c.07,0-.12-.1-.08-.12l.15.07c.12.09-.09,0,.11.14,0,0-.07-.09,0-.08l0,0s.27.16.14,0-.06-.05-.13-.1-.06-.12-.06-.15.05,0,.17.09c-.09,0-.12,0,0,.12s0,0,.12.14c0,0,.19.08.3.15s0,0,0-.06l-.21-.13c.05,0,0-.08-.07-.17a.37.37,0,0,1,.16.12.11.11,0,0,1,.1-.11c-.18-.09,0-.07-.16-.15a.55.55,0,0,1-.24-.14s.07.06.11.07.16.08,0,0c0,.08.19.15.31.25-.05-.08.09.06.11,0a.65.65,0,0,1-.09-.2c.15,0,.07-.09.09-.12s.21.15.25.15-.17-.1-.08-.08l0,0s.13,0-.06-.15l.14.13s0,0,0,0a.31.31,0,0,1,.12.1c.12.06,0-.06,0-.08l-.1-.06c0-.08.06,0,.06-.1l.08.07,0-.06c.08.07.14.1.08,0l.18.22c-.07,0-.1-.1-.19-.16s-.08,0,0,.07,0,0,0-.05.1.11.18.18,0,0,0,0,.05.07,0,.1-.08-.06-.11-.09.12.13.07.13.05.11,0,.11a1,1,0,0,1-.21-.23c-.06,0,0,0-.08,0a1.24,1.24,0,0,1,.23.23l-.08-.06c0,.06.14.15.1.16a.24.24,0,0,0-.14.09l-.09-.06c.17.15,0,.11.08.2-.11,0,0,.15-.14.07,0,.13,0,.24-.06.3l-.12-.09c.08.07-.08,0-.07,0s.12.1.19.16c-.12,0,0,.1,0,.18l-.09,0c.15.13,0,.09-.07.11s-.13,0-.13,0a.75.75,0,0,1,.18.19s-.07.05-.14,0c.15.21,0,.23,0,.4l-.11-.05c.18.21-.09.22,0,.36l-.18-.09c-.07,0,0,.08.16.14-.07,0,.06.1-.1.05s.07.07.08.1-.09.05-.07.12h0s-.11-.06-.13-.05-.08.05.15.12c-.15,0,.06.17-.14.16a.29.29,0,0,1,.11.06s-.16,0-.07.12-.1,0-.12,0,.08,0,.11.06-.18.11-.17.19,0,.28-.05.41h-.05c.17.1-.21,0,.05.16-.05,0,0,0-.12,0,.12.07-.15.06,0,.16s0,0,0,0,0,.1-.1.13,0,0-.07,0,.18.1-.05.05l.11,0c-.12.09,0,.25,0,.38-.16.06-.39-.08-.23,0h0c.06,0-.27,0-.15,0s.07,0,.16.05c-.1,0-.23,0-.13.08l-.08,0c.2.1.08.13.31.22,0,.28.09.56.08.82s0,.53-.16.79c-.2,0-.2.05-.12.12h-.07c.16,0,0,.05.17.07a.7.7,0,0,0,0,.29s-.15,0-.14,0l.1,0h0a.32.32,0,0,0,.15,0c.13.26-.21.51-.18.77-.07.06,0,.14,0,.21-.22.2-.4.38-.24.58A1.65,1.65,0,0,1,406.65,300.22Z" transform="translate(-388.12 -261.16)"/><path class="cls-3" d="M409.19,291.86a1,1,0,0,1-.19-.14C409.06,291.77,409.14,291.81,409.19,291.86Z" transform="translate(-388.12 -261.16)"/><path class="cls-3" d="M408.13,291.86l0,0s0,0,0,0Z" transform="translate(-388.12 -261.16)"/><path class="cls-3" d="M408,292c-.06-.05-.09-.11-.08-.13Z" transform="translate(-388.12 -261.16)"/><path class="cls-3" d="M407.65,291.94s-.08,0-.07-.06A.22.22,0,0,1,407.65,291.94Z" transform="translate(-388.12 -261.16)"/><path class="cls-3" d="M407.79,292s-.05,0-.09,0S407.69,292,407.79,292Z" transform="translate(-388.12 -261.16)"/><path class="cls-3" d="M407.42,292.23s0,0,0,0S407.33,292.16,407.42,292.23Z" transform="translate(-388.12 -261.16)"/><path class="cls-3" d="M407.42,292.43s0,0,0,0a.28.28,0,0,1-.08-.06Z" transform="translate(-388.12 -261.16)"/><polygon class="cls-3" points="18.4 34.09 18.37 34.06 18.44 34.09 18.4 34.09"/><path class="cls-3" d="M406.24,296.48s-.07,0-.08,0S406.24,296.51,406.24,296.48Z" transform="translate(-388.12 -261.16)"/><polygon class="cls-3" points="18.36 36.05 18.36 36.04 18.51 36.06 18.36 36.05"/><rect class="cls-4" x="0.2" y="60.26" width="60.01" height="10.4"/><rect class="cls-5" x="49.75" y="60.24" width="10.67" height="10.4"/><path d="M441,330.08v-.94l.84-.76c1.46-1.31,2.16-2.05,2.17-2.82,0-.54-.32-1-1.08-1a2.52,2.52,0,0,0-1.42.54l-.43-1.1a3.6,3.6,0,0,1,2.15-.68,2,2,0,0,1,2.32,2.07,4.05,4.05,0,0,1-1.76,2.85l-.61.51v0h2.51v1.28Z" transform="translate(-388.12 -261.16)"/></svg>