<svg id="Layer_1" data-name="Layer 1" xmlns="http://www.w3.org/2000/svg" viewBox="0 0 196.54 99.3"><defs><style>.cls-1{fill:#1d1d1b;}.cls-2{fill:none;stroke:#000;stroke-width:0.5px;}</style></defs><path class="cls-1" d="M334.24,260.21h4.23v.87h-3.2v2.69h3v.86h-3v3.66h-1Z" transform="translate(-321.2 -244.99)"/><path class="cls-1" d="M344.35,265.34a2.8,2.8,0,0,1-2.81,3.08,2.73,2.73,0,0,1-2.71-3,2.8,2.8,0,0,1,2.8-3.07A2.71,2.71,0,0,1,344.35,265.34Zm-4.47.06c0,1.27.7,2.23,1.7,2.23s1.72-.95,1.72-2.25c0-1-.48-2.22-1.69-2.22S339.88,264.31,339.88,265.4Z" transform="translate(-321.2 -244.99)"/><path class="cls-1" d="M345.35,264.3c0-.69,0-1.28-.05-1.81h.9l.05,1.15h0a1.72,1.72,0,0,1,1.58-1.27l.28,0v1a1.89,1.89,0,0,0-.35,0,1.44,1.44,0,0,0-1.38,1.34,4,4,0,0,0,0,.5v3.09h-1Z" transform="translate(-321.2 -244.99)"/><path class="cls-1" d="M351.62,265.58a1.82,1.82,0,0,0,1.93,2,3.59,3.59,0,0,0,1.57-.3l.18.76a4.44,4.44,0,0,1-1.88.37,2.67,2.67,0,0,1-2.78-2.94c0-1.75,1-3.11,2.65-3.11,1.85,0,2.33,1.65,2.33,2.72a2.13,2.13,0,0,1,0,.49Zm3-.76a1.49,1.49,0,0,0-1.42-1.7,1.71,1.71,0,0,0-1.58,1.7Z" transform="translate(-321.2 -244.99)"/><path class="cls-1" d="M360.56,266.9a9.83,9.83,0,0,0,.08,1.39h-.92l-.08-.73h0a2.08,2.08,0,0,1-1.72.86,1.64,1.64,0,0,1-1.73-1.67c0-1.4,1.22-2.17,3.39-2.15v-.12a1.17,1.17,0,0,0-1.28-1.33,2.65,2.65,0,0,0-1.48.43l-.23-.71a3.54,3.54,0,0,1,1.86-.5c1.73,0,2.15,1.21,2.15,2.36Zm-1-1.57c-1.12,0-2.39.18-2.39,1.3a.91.91,0,0,0,.95,1,1.43,1.43,0,0,0,1.39-1,1.08,1.08,0,0,0,.05-.34Z" transform="translate(-321.2 -244.99)"/><path class="cls-1" d="M365.94,268.09a3.88,3.88,0,0,1-1.62.33,2.72,2.72,0,0,1-2.81-3,2.91,2.91,0,0,1,3-3.09,3.13,3.13,0,0,1,1.43.31l-.24.8a2.46,2.46,0,0,0-1.19-.28,2,2,0,0,0-2,2.2,2,2,0,0,0,2,2.17,2.76,2.76,0,0,0,1.26-.28Z" transform="translate(-321.2 -244.99)"/><path class="cls-1" d="M366.85,259.77h1v3.64h0a1.93,1.93,0,0,1,.74-.76,2,2,0,0,1,1-.28c.76,0,2,.48,2,2.47v3.45h-1V265c0-.94-.34-1.72-1.31-1.72a1.5,1.5,0,0,0-1.37,1,1.4,1.4,0,0,0-.07.51v3.5h-1Z" transform="translate(-321.2 -244.99)"/><path class="cls-1" d="M379.23,268.09a3.92,3.92,0,0,1-1.62.33,2.72,2.72,0,0,1-2.81-3,2.91,2.91,0,0,1,3-3.09,3.08,3.08,0,0,1,1.42.31l-.23.8a2.46,2.46,0,0,0-1.19-.28,2,2,0,0,0-2,2.2,2,2,0,0,0,2,2.17,2.71,2.71,0,0,0,1.25-.28Z" transform="translate(-321.2 -244.99)"/><path class="cls-1" d="M384.1,266.9a9.83,9.83,0,0,0,.08,1.39h-.92l-.08-.73h0a2.12,2.12,0,0,1-1.73.86,1.63,1.63,0,0,1-1.72-1.67c0-1.4,1.21-2.17,3.39-2.15v-.12a1.17,1.17,0,0,0-1.29-1.33,2.65,2.65,0,0,0-1.48.43l-.23-.71a3.6,3.6,0,0,1,1.87-.5c1.72,0,2.14,1.21,2.14,2.36Zm-1-1.57c-1.12,0-2.39.18-2.39,1.3a.91.91,0,0,0,1,1,1.42,1.42,0,0,0,1.38-1,1.08,1.08,0,0,0,.05-.34Z" transform="translate(-321.2 -244.99)"/><path class="cls-1" d="M386.65,261.09v1.4h1.47v.8h-1.47v3.13c0,.72.2,1.13.77,1.13a1.8,1.8,0,0,0,.6-.08l0,.81a2.74,2.74,0,0,1-.91.14,1.45,1.45,0,0,1-1.1-.44,2.32,2.32,0,0,1-.4-1.52v-3.17h-.87v-.8h.87v-1.08Z" transform="translate(-321.2 -244.99)"/><path class="cls-1" d="M389.49,265.58a1.82,1.82,0,0,0,1.93,2,3.51,3.51,0,0,0,1.56-.3l.19.76a4.45,4.45,0,0,1-1.89.37,2.67,2.67,0,0,1-2.77-2.94c0-1.75,1-3.11,2.64-3.11,1.86,0,2.33,1.65,2.33,2.72a3.1,3.1,0,0,1,0,.49Zm3-.76a1.49,1.49,0,0,0-1.42-1.7,1.7,1.7,0,0,0-1.57,1.7Z" transform="translate(-321.2 -244.99)"/><path class="cls-1" d="M399.29,267.44a3.45,3.45,0,0,1-.81,2.66,3,3,0,0,1-2.06.7,3.59,3.59,0,0,1-1.88-.48l.26-.82a3,3,0,0,0,1.66.47c1,0,1.81-.56,1.81-2v-.64h0a2,2,0,0,1-1.79,1,2.58,2.58,0,0,1-2.41-2.83c0-2,1.25-3.07,2.56-3.07a1.88,1.88,0,0,1,1.76,1h0l0-.87h.9c0,.4,0,.88,0,1.58Zm-1-2.66a1.34,1.34,0,0,0-.06-.47,1.46,1.46,0,0,0-1.43-1.13c-1,0-1.68.85-1.68,2.2,0,1.14.57,2.08,1.67,2.08a1.48,1.48,0,0,0,1.42-1.08,1.81,1.81,0,0,0,.08-.56Z" transform="translate(-321.2 -244.99)"/><path class="cls-1" d="M405.79,265.34a2.8,2.8,0,0,1-2.81,3.08,2.73,2.73,0,0,1-2.7-3,2.8,2.8,0,0,1,2.8-3.07A2.71,2.71,0,0,1,405.79,265.34Zm-4.46.06c0,1.27.7,2.23,1.7,2.23s1.71-.95,1.71-2.25c0-1-.48-2.22-1.69-2.22S401.33,264.31,401.33,265.4Z" transform="translate(-321.2 -244.99)"/><path class="cls-1" d="M406.79,264.3c0-.69,0-1.28,0-1.81h.89l.05,1.15h0a1.7,1.7,0,0,1,1.57-1.27l.28,0v1a1.89,1.89,0,0,0-.35,0,1.45,1.45,0,0,0-1.38,1.34,4,4,0,0,0,0,.5v3.09h-1Z" transform="translate(-321.2 -244.99)"/><path class="cls-1" d="M411,262.49l1.22,3.43c.14.38.28.83.37,1.18h0c.1-.35.22-.79.36-1.21l1.12-3.4h1.08l-1.54,4.13c-.73,2-1.23,3-1.93,3.64a3,3,0,0,1-1.26.67l-.26-.88a2.61,2.61,0,0,0,.9-.51,3.3,3.3,0,0,0,.86-1.18.69.69,0,0,0,.08-.25.75.75,0,0,0-.08-.28l-2.07-5.34Z" transform="translate(-321.2 -244.99)"/><path class="cls-1" d="M414.68,269.78a18.12,18.12,0,0,0,.7-2.88l1.14-.12a15.24,15.24,0,0,1-1.11,2.91Z" transform="translate(-321.2 -244.99)"/><path class="cls-1" d="M423.67,268.09a3.92,3.92,0,0,1-1.62.33,2.72,2.72,0,0,1-2.81-3,2.91,2.91,0,0,1,3-3.09,3.08,3.08,0,0,1,1.42.31l-.23.8a2.49,2.49,0,0,0-1.19-.28,2,2,0,0,0-2,2.2,2,2,0,0,0,2,2.17,2.8,2.8,0,0,0,1.26-.28Z" transform="translate(-321.2 -244.99)"/><path class="cls-1" d="M424.58,259.77h1v3.64h0a2,2,0,0,1,.73-.76,2.06,2.06,0,0,1,1.05-.28c.76,0,2,.48,2,2.47v3.45h-1V265c0-.94-.33-1.72-1.3-1.72a1.5,1.5,0,0,0-1.38,1,1.66,1.66,0,0,0-.07.51v3.5h-1Z" transform="translate(-321.2 -244.99)"/><path class="cls-1" d="M435.86,265.34a2.8,2.8,0,0,1-2.81,3.08,2.73,2.73,0,0,1-2.7-3,2.79,2.79,0,0,1,2.79-3.07A2.71,2.71,0,0,1,435.86,265.34Zm-4.46.06c0,1.27.7,2.23,1.7,2.23s1.71-.95,1.71-2.25c0-1-.48-2.22-1.69-2.22S431.4,264.31,431.4,265.4Z" transform="translate(-321.2 -244.99)"/><path class="cls-1" d="M442,265.34a2.8,2.8,0,0,1-2.81,3.08,2.73,2.73,0,0,1-2.71-3,2.8,2.8,0,0,1,2.8-3.07A2.71,2.71,0,0,1,442,265.34Zm-4.47.06c0,1.27.7,2.23,1.71,2.23s1.71-.95,1.71-2.25c0-1-.48-2.22-1.69-2.22S437.5,264.31,437.5,265.4Z" transform="translate(-321.2 -244.99)"/><path class="cls-1" d="M442.83,267.22a2.84,2.84,0,0,0,1.36.41c.74,0,1.09-.37,1.09-.86s-.29-.77-1-1.06c-1-.38-1.5-.95-1.5-1.64a1.75,1.75,0,0,1,1.94-1.7,2.55,2.55,0,0,1,1.38.36l-.25.76a2.18,2.18,0,0,0-1.15-.34c-.61,0-.93.35-.93.79s.32.69,1.06,1c1,.37,1.48.88,1.48,1.74,0,1-.78,1.75-2.1,1.75a3.17,3.17,0,0,1-1.59-.41Z" transform="translate(-321.2 -244.99)"/><path class="cls-1" d="M447.86,265.58a1.83,1.83,0,0,0,1.94,2,3.54,3.54,0,0,0,1.56-.3l.19.76a4.45,4.45,0,0,1-1.89.37,2.67,2.67,0,0,1-2.78-2.94c0-1.75,1-3.11,2.65-3.11,1.85,0,2.33,1.65,2.33,2.72a3.1,3.1,0,0,1,0,.49Zm3-.76a1.49,1.49,0,0,0-1.42-1.7,1.7,1.7,0,0,0-1.57,1.7Z" transform="translate(-321.2 -244.99)"/><path class="cls-1" d="M461.77,264.16c0,2.77-1.65,4.26-3.65,4.26s-3.53-1.67-3.53-4.11,1.54-4.25,3.64-4.25S461.77,261.75,461.77,264.16Zm-6.11.12c0,1.74.91,3.29,2.52,3.29s2.52-1.52,2.52-3.36c0-1.62-.82-3.3-2.51-3.3S455.66,262.52,455.66,264.28Z" transform="translate(-321.2 -244.99)"/><path class="cls-1" d="M462.79,268.29v-8.08h1.12l2.51,4.09a22.83,22.83,0,0,1,1.4,2.62h0c-.09-1.08-.11-2.06-.11-3.32v-3.38h.95v8.08h-1l-2.5-4.1a23.94,23.94,0,0,1-1.46-2.7h0c.06,1,.07,2,.07,3.34v3.45Z" transform="translate(-321.2 -244.99)"/><path class="cls-1" d="M474.23,264.5h-3v2.91h3.4v.88h-4.43v-8.08h4.25v.87h-3.22v2.56h3Z" transform="translate(-321.2 -244.99)"/><path class="cls-1" d="M334.22,282.38c0-.74,0-1.34-.05-1.89h.91l.06,1h0a2.19,2.19,0,0,1,2-1.11c1.37,0,2.4,1.18,2.4,2.93,0,2.09-1.25,3.12-2.58,3.12a1.94,1.94,0,0,1-1.73-.91h0v3.15h-1Zm1,1.55a2,2,0,0,0,0,.43,1.59,1.59,0,0,0,1.54,1.23c1.08,0,1.71-.91,1.71-2.24,0-1.15-.59-2.15-1.68-2.15a1.63,1.63,0,0,0-1.55,1.3,2,2,0,0,0-.07.42Z" transform="translate(-321.2 -244.99)"/><path class="cls-1" d="M341.7,278.85a.64.64,0,1,1-1.27,0,.64.64,0,0,1,.64-.66A.63.63,0,0,1,341.7,278.85Zm-1.14,7.44v-5.8h1v5.8Z" transform="translate(-321.2 -244.99)"/><path class="cls-1" d="M347,286.09a4,4,0,0,1-1.62.33,2.72,2.72,0,0,1-2.81-3,2.91,2.91,0,0,1,3-3.09,3.11,3.11,0,0,1,1.42.31l-.23.8a2.49,2.49,0,0,0-1.19-.28,2,2,0,0,0-2,2.2,2,2,0,0,0,2,2.17,2.73,2.73,0,0,0,1.26-.28Z" transform="translate(-321.2 -244.99)"/><path class="cls-1" d="M349.31,279.09v1.4h1.47v.8h-1.47v3.13c0,.72.2,1.13.77,1.13a1.84,1.84,0,0,0,.6-.08l0,.81a2.79,2.79,0,0,1-.91.14,1.43,1.43,0,0,1-1.1-.44,2.32,2.32,0,0,1-.4-1.52v-3.17h-.88v-.8h.88v-1.08Z" transform="translate(-321.2 -244.99)"/><path class="cls-1" d="M356.36,284.69c0,.62,0,1.14.05,1.6h-.91l-.06-1h0a2.1,2.1,0,0,1-1.87,1.08c-.88,0-1.94-.51-1.94-2.54v-3.39h1v3.2c0,1.1.34,1.86,1.26,1.86a1.51,1.51,0,0,0,1.45-1.51v-3.55h1Z" transform="translate(-321.2 -244.99)"/><path class="cls-1" d="M357.77,282.3c0-.69,0-1.28,0-1.81h.89l.05,1.15h0a1.7,1.7,0,0,1,1.57-1.27l.28,0v1a1.89,1.89,0,0,0-.35,0,1.45,1.45,0,0,0-1.38,1.34,4,4,0,0,0,0,.5v3.09h-1Z" transform="translate(-321.2 -244.99)"/><path class="cls-1" d="M361.75,283.58a1.82,1.82,0,0,0,1.93,2,3.51,3.51,0,0,0,1.56-.3l.19.76a4.45,4.45,0,0,1-1.89.37,2.67,2.67,0,0,1-2.77-2.94c0-1.75,1-3.11,2.64-3.11,1.86,0,2.34,1.65,2.34,2.72a2.91,2.91,0,0,1,0,.49Zm3-.76a1.47,1.47,0,0,0-1.42-1.7,1.7,1.7,0,0,0-1.57,1.7Z" transform="translate(-321.2 -244.99)"/><path class="cls-1" d="M370.14,279.09v1.4h1.47v.8h-1.47v3.13c0,.72.2,1.13.77,1.13a1.73,1.73,0,0,0,.59-.08l.05.81a2.79,2.79,0,0,1-.91.14,1.47,1.47,0,0,1-1.11-.44,2.32,2.32,0,0,1-.39-1.52v-3.17h-.88v-.8h.88v-1.08Z" transform="translate(-321.2 -244.99)"/><path class="cls-1" d="M372.47,277.77h1v3.64h0a2,2,0,0,1,.73-.76,2.09,2.09,0,0,1,1.05-.28c.76,0,2,.48,2,2.47v3.45h-1V283c0-.94-.34-1.72-1.31-1.72a1.51,1.51,0,0,0-1.38,1,1.66,1.66,0,0,0-.06.51v3.5h-1Z" transform="translate(-321.2 -244.99)"/><path class="cls-1" d="M382.61,284.9a9.83,9.83,0,0,0,.08,1.39h-.92l-.08-.73h0a2.08,2.08,0,0,1-1.72.86,1.64,1.64,0,0,1-1.73-1.67c0-1.4,1.22-2.17,3.4-2.15v-.12a1.17,1.17,0,0,0-1.29-1.33,2.65,2.65,0,0,0-1.48.43l-.23-.71a3.57,3.57,0,0,1,1.86-.5c1.73,0,2.15,1.21,2.15,2.36Zm-1-1.57c-1.12,0-2.39.18-2.39,1.3a.91.91,0,0,0,.95,1,1.43,1.43,0,0,0,1.39-1,1.08,1.08,0,0,0,.05-.34Z" transform="translate(-321.2 -244.99)"/><path class="cls-1" d="M385.16,279.09v1.4h1.47v.8h-1.47v3.13c0,.72.2,1.13.77,1.13a1.84,1.84,0,0,0,.6-.08l0,.81a2.79,2.79,0,0,1-.91.14,1.43,1.43,0,0,1-1.1-.44,2.32,2.32,0,0,1-.4-1.52v-3.17h-.87v-.8h.87v-1.08Z" transform="translate(-321.2 -244.99)"/><path class="cls-1" d="M390.81,278.85a.64.64,0,1,1-1.27,0,.64.64,0,0,1,.64-.66A.62.62,0,0,1,390.81,278.85Zm-1.14,7.44v-5.8h1v5.8Z" transform="translate(-321.2 -244.99)"/><path class="cls-1" d="M392,285.22a2.84,2.84,0,0,0,1.36.41c.74,0,1.09-.37,1.09-.86s-.3-.77-1-1.06c-1-.38-1.51-.95-1.51-1.64a1.76,1.76,0,0,1,1.95-1.7,2.55,2.55,0,0,1,1.38.36l-.25.76a2.18,2.18,0,0,0-1.15-.34c-.61,0-.93.35-.93.79s.32.69,1.06,1c1,.37,1.48.88,1.48,1.74,0,1-.78,1.75-2.1,1.75a3.17,3.17,0,0,1-1.59-.41Z" transform="translate(-321.2 -244.99)"/><path class="cls-1" d="M402.63,286.09a3.92,3.92,0,0,1-1.62.33,2.72,2.72,0,0,1-2.81-3,2.91,2.91,0,0,1,3-3.09,3.13,3.13,0,0,1,1.43.31l-.24.8a2.46,2.46,0,0,0-1.19-.28,2,2,0,0,0-2,2.2,2,2,0,0,0,2,2.17,2.76,2.76,0,0,0,1.26-.28Z" transform="translate(-321.2 -244.99)"/><path class="cls-1" d="M403.54,277.77h1v8.52h-1Z" transform="translate(-321.2 -244.99)"/><path class="cls-1" d="M411.11,283.34a2.8,2.8,0,0,1-2.81,3.08,2.73,2.73,0,0,1-2.71-3,2.8,2.8,0,0,1,2.8-3.07A2.71,2.71,0,0,1,411.11,283.34Zm-4.47.06c0,1.27.7,2.23,1.7,2.23s1.72-.95,1.72-2.25c0-1-.48-2.22-1.69-2.22S406.64,282.31,406.64,283.4Z" transform="translate(-321.2 -244.99)"/><path class="cls-1" d="M412,285.22a2.84,2.84,0,0,0,1.36.41c.74,0,1.09-.37,1.09-.86s-.3-.77-1-1.06c-1-.38-1.51-.95-1.51-1.64a1.76,1.76,0,0,1,1.95-1.7,2.55,2.55,0,0,1,1.38.36l-.25.76a2.18,2.18,0,0,0-1.15-.34c-.61,0-.94.35-.94.79s.33.69,1.06,1c1,.37,1.49.88,1.49,1.74,0,1-.79,1.75-2.1,1.75a3.17,3.17,0,0,1-1.59-.41Z" transform="translate(-321.2 -244.99)"/><path class="cls-1" d="M417,283.58a1.83,1.83,0,0,0,1.94,2,3.54,3.54,0,0,0,1.56-.3l.19.76a4.53,4.53,0,0,1-1.89.37,2.67,2.67,0,0,1-2.78-2.94c0-1.75,1-3.11,2.65-3.11,1.85,0,2.33,1.65,2.33,2.72a2.13,2.13,0,0,1,0,.49Zm3-.76a1.49,1.49,0,0,0-1.42-1.7,1.71,1.71,0,0,0-1.58,1.7Z" transform="translate(-321.2 -244.99)"/><path class="cls-1" d="M421.84,285.22a2.84,2.84,0,0,0,1.36.41c.74,0,1.09-.37,1.09-.86s-.29-.77-1-1.06c-1-.38-1.5-.95-1.5-1.64a1.75,1.75,0,0,1,1.94-1.7,2.55,2.55,0,0,1,1.38.36l-.25.76a2.18,2.18,0,0,0-1.15-.34c-.61,0-.93.35-.93.79s.32.69,1.06,1c1,.37,1.48.88,1.48,1.74,0,1-.78,1.75-2.1,1.75a3.17,3.17,0,0,1-1.59-.41Z" transform="translate(-321.2 -244.99)"/><path class="cls-1" d="M427.54,279.09v1.4H429v.8h-1.47v3.13c0,.72.2,1.13.77,1.13a1.73,1.73,0,0,0,.59-.08l.05.81a2.79,2.79,0,0,1-.91.14,1.47,1.47,0,0,1-1.11-.44,2.32,2.32,0,0,1-.39-1.52v-3.17h-.88v-.8h.88v-1.08Z" transform="translate(-321.2 -244.99)"/><path class="cls-1" d="M433.28,279.09v1.4h1.47v.8h-1.47v3.13c0,.72.2,1.13.77,1.13a1.8,1.8,0,0,0,.6-.08l0,.81a2.74,2.74,0,0,1-.91.14,1.45,1.45,0,0,1-1.1-.44,2.32,2.32,0,0,1-.4-1.52v-3.17h-.87v-.8h.87v-1.08Z" transform="translate(-321.2 -244.99)"/><path class="cls-1" d="M440.65,283.34a2.8,2.8,0,0,1-2.81,3.08,2.73,2.73,0,0,1-2.7-3,2.79,2.79,0,0,1,2.79-3.07A2.71,2.71,0,0,1,440.65,283.34Zm-4.46.06c0,1.27.7,2.23,1.7,2.23s1.71-.95,1.71-2.25c0-1-.48-2.22-1.69-2.22S436.19,282.31,436.19,283.4Z" transform="translate(-321.2 -244.99)"/><path class="cls-1" d="M444.2,280.49l1.23,3.43c.14.38.28.83.37,1.18h0c.11-.35.23-.79.37-1.21l1.11-3.4h1.09l-1.54,4.13a9.14,9.14,0,0,1-1.93,3.64,3,3,0,0,1-1.26.67l-.26-.88a2.7,2.7,0,0,0,.9-.51,3.3,3.3,0,0,0,.86-1.18.69.69,0,0,0,.08-.25.75.75,0,0,0-.08-.28l-2.08-5.34Z" transform="translate(-321.2 -244.99)"/><path class="cls-1" d="M454,283.34a2.8,2.8,0,0,1-2.81,3.08,2.73,2.73,0,0,1-2.71-3,2.8,2.8,0,0,1,2.8-3.07A2.71,2.71,0,0,1,454,283.34Zm-4.47.06c0,1.27.7,2.23,1.71,2.23s1.71-.95,1.71-2.25c0-1-.48-2.22-1.69-2.22S449.55,282.31,449.55,283.4Z" transform="translate(-321.2 -244.99)"/><path class="cls-1" d="M459.74,284.69c0,.62,0,1.14.05,1.6h-.91l-.06-1h0a2.11,2.11,0,0,1-1.87,1.08c-.89,0-1.95-.51-1.95-2.54v-3.39h1v3.2c0,1.1.34,1.86,1.26,1.86a1.48,1.48,0,0,0,1.44-1.51v-3.55h1Z" transform="translate(-321.2 -244.99)"/><path class="cls-1" d="M461.15,282.3c0-.69,0-1.28,0-1.81h.9l.05,1.15h0a1.72,1.72,0,0,1,1.58-1.27l.28,0v1a1.89,1.89,0,0,0-.35,0,1.44,1.44,0,0,0-1.38,1.34,4,4,0,0,0,0,.5v3.09h-1Z" transform="translate(-321.2 -244.99)"/><path class="cls-1" d="M466.85,282.38c0-.74,0-1.34-.05-1.89h.91l.06,1h0a2.19,2.19,0,0,1,2-1.11c1.37,0,2.4,1.18,2.4,2.93,0,2.09-1.25,3.12-2.58,3.12a1.94,1.94,0,0,1-1.73-.91h0v3.15h-1Zm1,1.55a2,2,0,0,0,.05.43,1.59,1.59,0,0,0,1.54,1.23c1.08,0,1.71-.91,1.71-2.24,0-1.15-.59-2.15-1.68-2.15a1.63,1.63,0,0,0-1.55,1.3,2,2,0,0,0-.07.42Z" transform="translate(-321.2 -244.99)"/><path class="cls-1" d="M477.15,284.9a11.59,11.59,0,0,0,.08,1.39h-.92l-.08-.73h0a2.1,2.1,0,0,1-1.73.86,1.63,1.63,0,0,1-1.72-1.67c0-1.4,1.21-2.17,3.39-2.15v-.12a1.17,1.17,0,0,0-1.28-1.33,2.6,2.6,0,0,0-1.48.43l-.24-.71a3.6,3.6,0,0,1,1.87-.5c1.72,0,2.14,1.21,2.14,2.36Zm-1-1.57c-1.12,0-2.39.18-2.39,1.3a.91.91,0,0,0,1,1,1.44,1.44,0,0,0,1.39-1,1.42,1.42,0,0,0,0-.34Z" transform="translate(-321.2 -244.99)"/><path class="cls-1" d="M479.7,279.09v1.4h1.47v.8H479.7v3.13c0,.72.2,1.13.77,1.13a1.8,1.8,0,0,0,.6-.08l.05.81a2.84,2.84,0,0,1-.91.14,1.46,1.46,0,0,1-1.11-.44,2.32,2.32,0,0,1-.4-1.52v-3.17h-.87v-.8h.87v-1.08Z" transform="translate(-321.2 -244.99)"/><path class="cls-1" d="M483.18,278.85a.63.63,0,0,1-.66.65.61.61,0,0,1-.61-.65.64.64,0,1,1,1.27,0ZM482,286.29v-5.8h1v5.8Z" transform="translate(-321.2 -244.99)"/><path class="cls-1" d="M485,283.58a1.83,1.83,0,0,0,1.94,2,3.54,3.54,0,0,0,1.56-.3l.19.76a4.49,4.49,0,0,1-1.89.37,2.67,2.67,0,0,1-2.78-2.94c0-1.75,1-3.11,2.65-3.11,1.85,0,2.33,1.65,2.33,2.72a3.1,3.1,0,0,1,0,.49Zm3-.76a1.49,1.49,0,0,0-1.42-1.7,1.72,1.72,0,0,0-1.58,1.7Z" transform="translate(-321.2 -244.99)"/><path class="cls-1" d="M490,282.06c0-.62,0-1.1,0-1.57h.91l.06.95h0a2.09,2.09,0,0,1,1.87-1.07c.78,0,2,.48,2,2.47v3.45h-1v-3.35c0-.93-.33-1.71-1.3-1.71a1.5,1.5,0,0,0-1.38,1.08,1.75,1.75,0,0,0-.07.49v3.49h-1Z" transform="translate(-321.2 -244.99)"/><path class="cls-1" d="M497.38,279.09v1.4h1.47v.8h-1.47v3.13c0,.72.2,1.13.77,1.13a1.8,1.8,0,0,0,.6-.08l0,.81a2.72,2.72,0,0,1-.9.14,1.46,1.46,0,0,1-1.11-.44,2.32,2.32,0,0,1-.4-1.52v-3.17h-.87v-.8h.87v-1.08Z" transform="translate(-321.2 -244.99)"/><path class="cls-1" d="M501.24,278a15.74,15.74,0,0,1-1.08,2.86l-.65.07a18.35,18.35,0,0,0,.68-2.81Z" transform="translate(-321.2 -244.99)"/><path class="cls-1" d="M501.1,285.22a2.88,2.88,0,0,0,1.37.41c.73,0,1.08-.37,1.08-.86s-.29-.77-1-1.06c-1-.38-1.5-.95-1.5-1.64a1.76,1.76,0,0,1,1.95-1.7,2.48,2.48,0,0,1,1.37.36l-.24.76a2.19,2.19,0,0,0-1.16-.34c-.6,0-.93.35-.93.79s.33.69,1.06,1c1,.37,1.48.88,1.48,1.74,0,1-.78,1.75-2.1,1.75a3.13,3.13,0,0,1-1.58-.41Z" transform="translate(-321.2 -244.99)"/><path class="cls-1" d="M335.27,296.21V301c0,1.8.78,2.57,1.83,2.57S339,302.78,339,301v-4.79h1v4.72c0,2.49-1.27,3.49-3,3.49s-2.82-.93-2.82-3.45v-4.76Z" transform="translate(-321.2 -244.99)"/><path class="cls-1" d="M341.38,303a3.33,3.33,0,0,0,1.8.53c1,0,1.65-.57,1.65-1.38s-.42-1.19-1.49-1.6c-1.28-.48-2.07-1.17-2.07-2.3a2.29,2.29,0,0,1,2.54-2.2,3.51,3.51,0,0,1,1.73.4l-.28.85a2.93,2.93,0,0,0-1.48-.38c-1.08,0-1.48.66-1.48,1.21,0,.75.47,1.13,1.56,1.56,1.33.53,2,1.19,2,2.37s-.89,2.34-2.74,2.34a3.92,3.92,0,0,1-2-.53Z" transform="translate(-321.2 -244.99)"/><path class="cls-1" d="M348,296.21V301c0,1.8.78,2.57,1.83,2.57s1.91-.79,1.91-2.57v-4.79h1v4.72c0,2.49-1.27,3.49-3,3.49S347,303.49,347,301v-4.76Z" transform="translate(-321.2 -244.99)"/><path class="cls-1" d="M355.08,301.75l-.81,2.54h-1l2.68-8.08h1.21l2.68,8.08h-1.08l-.84-2.54Zm2.59-.82-.78-2.33c-.18-.52-.29-1-.41-1.47h0c-.12.47-.24,1-.4,1.46l-.77,2.34Z" transform="translate(-321.2 -244.99)"/><path class="cls-1" d="M360.64,296.21h1v7.21H365v.87h-4.38Z" transform="translate(-321.2 -244.99)"/><path class="cls-1" d="M367.87,303.22a2.73,2.73,0,0,0,1.36.41c.73,0,1.08-.37,1.08-.86s-.29-.77-1-1.06c-1-.38-1.51-.95-1.51-1.64a1.76,1.76,0,0,1,2-1.7,2.55,2.55,0,0,1,1.38.36l-.25.76a2.18,2.18,0,0,0-1.15-.34c-.61,0-.94.35-.94.79s.33.69,1.06,1c1,.37,1.49.88,1.49,1.74,0,1-.79,1.75-2.1,1.75a3.17,3.17,0,0,1-1.59-.41Z" transform="translate(-321.2 -244.99)"/><path class="cls-1" d="M373.57,297.09v1.4H375v.8h-1.46v3.13c0,.72.19,1.13.76,1.13a1.8,1.8,0,0,0,.6-.08l.05.81a2.84,2.84,0,0,1-.91.14A1.46,1.46,0,0,1,373,304a2.32,2.32,0,0,1-.4-1.52v-3.17h-.87v-.8h.87v-1.08Z" transform="translate(-321.2 -244.99)"/><path class="cls-1" d="M379.86,302.9a9.83,9.83,0,0,0,.08,1.39H379l-.08-.73h0a2.08,2.08,0,0,1-1.72.86,1.64,1.64,0,0,1-1.73-1.67c0-1.4,1.22-2.17,3.4-2.15v-.12a1.17,1.17,0,0,0-1.29-1.33,2.65,2.65,0,0,0-1.48.43l-.23-.71a3.57,3.57,0,0,1,1.86-.5c1.73,0,2.15,1.21,2.15,2.36Zm-1-1.57c-1.12,0-2.39.18-2.39,1.3a.91.91,0,0,0,.95,1,1.43,1.43,0,0,0,1.39-1,1.08,1.08,0,0,0,.05-.34Z" transform="translate(-321.2 -244.99)"/><path class="cls-1" d="M382.41,297.09v1.4h1.47v.8h-1.47v3.13c0,.72.2,1.13.77,1.13a1.84,1.84,0,0,0,.6-.08l0,.81a2.79,2.79,0,0,1-.91.14,1.47,1.47,0,0,1-1.11-.44,2.38,2.38,0,0,1-.39-1.52v-3.17h-.88v-.8h.88v-1.08Z" transform="translate(-321.2 -244.99)"/><path class="cls-1" d="M385.24,301.58a1.83,1.83,0,0,0,1.94,2,3.54,3.54,0,0,0,1.56-.3l.19.76a4.45,4.45,0,0,1-1.89.37,2.67,2.67,0,0,1-2.78-2.94c0-1.75,1-3.11,2.65-3.11,1.85,0,2.33,1.65,2.33,2.72a3.1,3.1,0,0,1,0,.49Zm3-.76a1.49,1.49,0,0,0-1.42-1.7,1.7,1.7,0,0,0-1.57,1.7Z" transform="translate(-321.2 -244.99)"/><path class="cls-1" d="M389.84,303.67a.71.71,0,0,1,.7-.76.69.69,0,0,1,.68.76.7.7,0,0,1-.71.75A.69.69,0,0,1,389.84,303.67Z" transform="translate(-321.2 -244.99)"/><path class="cls-1" d="M399.9,304a5,5,0,0,1-2.08.38c-2.21,0-3.87-1.44-3.87-4.1a4,4,0,0,1,4.1-4.25,4.23,4.23,0,0,1,1.87.36l-.26.86a3.39,3.39,0,0,0-1.57-.34c-1.84,0-3.07,1.21-3.07,3.33s1.11,3.26,3,3.26a4.06,4.06,0,0,0,1.67-.34Z" transform="translate(-321.2 -244.99)"/><path class="cls-1" d="M402,296.85a.63.63,0,0,1-.66.65.61.61,0,0,1-.61-.65.64.64,0,1,1,1.27,0Zm-1.15,7.44v-5.8h1v5.8Z" transform="translate(-321.2 -244.99)"/><path class="cls-1" d="M403.25,300.3c0-.69,0-1.27-.05-1.81h.9l0,1.15h0a1.72,1.72,0,0,1,1.58-1.27l.28,0v1a1.89,1.89,0,0,0-.35,0,1.44,1.44,0,0,0-1.38,1.34,4,4,0,0,0,0,.5v3.09h-1Z" transform="translate(-321.2 -244.99)"/><path class="cls-1" d="M410.67,304.09a3.88,3.88,0,0,1-1.62.33,2.71,2.71,0,0,1-2.8-3,2.91,2.91,0,0,1,3-3.09,3.11,3.11,0,0,1,1.42.31l-.24.8a2.43,2.43,0,0,0-1.18-.27,2,2,0,0,0-2,2.19,2,2,0,0,0,2,2.17,2.76,2.76,0,0,0,1.26-.28Z" transform="translate(-321.2 -244.99)"/><path class="cls-1" d="M411.58,295.77h1v8.52h-1Z" transform="translate(-321.2 -244.99)"/><path class="cls-1" d="M414.61,301.58a1.83,1.83,0,0,0,1.94,2,3.54,3.54,0,0,0,1.56-.3l.19.76a4.45,4.45,0,0,1-1.89.37,2.67,2.67,0,0,1-2.78-2.94c0-1.75,1-3.11,2.65-3.11,1.85,0,2.33,1.65,2.33,2.72a3.1,3.1,0,0,1,0,.49Zm3-.76a1.49,1.49,0,0,0-1.42-1.7,1.72,1.72,0,0,0-1.58,1.7Z" transform="translate(-321.2 -244.99)"/><path class="cls-1" d="M423,297.09v1.4h1.47v.8H423v3.13c0,.72.2,1.13.77,1.13a1.8,1.8,0,0,0,.6-.08l.05.81a2.84,2.84,0,0,1-.91.14,1.46,1.46,0,0,1-1.11-.44,2.32,2.32,0,0,1-.4-1.52v-3.17h-.87v-.8H422v-1.08Z" transform="translate(-321.2 -244.99)"/><path class="cls-1" d="M425.34,295.77h1v3.64h0a2,2,0,0,1,.74-.76,2,2,0,0,1,1.05-.28c.76,0,2,.48,2,2.47v3.45h-1V301c0-.94-.34-1.72-1.3-1.72a1.5,1.5,0,0,0-1.38,1,1.4,1.4,0,0,0-.07.51v3.5h-1Z" transform="translate(-321.2 -244.99)"/><path class="cls-1" d="M432.08,301.58a1.83,1.83,0,0,0,1.94,2,3.54,3.54,0,0,0,1.56-.3l.19.76a4.45,4.45,0,0,1-1.89.37,2.67,2.67,0,0,1-2.78-2.94c0-1.75,1-3.11,2.65-3.11,1.85,0,2.33,1.65,2.33,2.72a3.1,3.1,0,0,1,0,.49Zm3-.76a1.49,1.49,0,0,0-1.42-1.7,1.7,1.7,0,0,0-1.57,1.7Z" transform="translate(-321.2 -244.99)"/><path class="cls-1" d="M439.1,303.22a2.73,2.73,0,0,0,1.36.41c.74,0,1.09-.37,1.09-.86s-.29-.77-1-1.06c-1-.38-1.5-.95-1.5-1.64a1.75,1.75,0,0,1,1.94-1.7,2.52,2.52,0,0,1,1.38.36l-.25.76a2.18,2.18,0,0,0-1.15-.34c-.61,0-.93.35-.93.79s.32.69,1.06,1c1,.37,1.48.88,1.48,1.74,0,1-.78,1.75-2.1,1.75a3.17,3.17,0,0,1-1.59-.41Z" transform="translate(-321.2 -244.99)"/><path class="cls-1" d="M447.58,304.09a3.88,3.88,0,0,1-1.62.33,2.71,2.71,0,0,1-2.8-3,2.91,2.91,0,0,1,3-3.09,3.11,3.11,0,0,1,1.42.31l-.23.8a2.51,2.51,0,0,0-1.19-.27,2,2,0,0,0-2,2.19,2,2,0,0,0,2,2.17,2.76,2.76,0,0,0,1.26-.28Z" transform="translate(-321.2 -244.99)"/><path class="cls-1" d="M453.53,301.34a2.8,2.8,0,0,1-2.81,3.08,2.73,2.73,0,0,1-2.71-3,2.8,2.8,0,0,1,2.8-3.07A2.71,2.71,0,0,1,453.53,301.34Zm-4.47.06c0,1.27.7,2.23,1.71,2.23s1.71-.95,1.71-2.25c0-1-.48-2.22-1.69-2.22S449.06,300.31,449.06,301.4Z" transform="translate(-321.2 -244.99)"/><path class="cls-1" d="M454.53,300.3c0-.69,0-1.27,0-1.81h.9l.05,1.15h0a1.72,1.72,0,0,1,1.58-1.27l.28,0v1a1.89,1.89,0,0,0-.35,0,1.44,1.44,0,0,0-1.38,1.34,4,4,0,0,0,0,.5v3.09h-1Z" transform="translate(-321.2 -244.99)"/><path class="cls-1" d="M458.5,301.58a1.83,1.83,0,0,0,1.94,2,3.54,3.54,0,0,0,1.56-.3l.19.76a4.45,4.45,0,0,1-1.89.37,2.66,2.66,0,0,1-2.77-2.94c0-1.75,1-3.11,2.64-3.11,1.86,0,2.33,1.65,2.33,2.72a3.1,3.1,0,0,1,0,.49Zm3-.76a1.49,1.49,0,0,0-1.42-1.7,1.7,1.7,0,0,0-1.57,1.7Z" transform="translate(-321.2 -244.99)"/><path class="cls-1" d="M465.66,295.77h1v3.65h0a2.06,2.06,0,0,1,1.92-1.05c1.41,0,2.39,1.19,2.39,2.95,0,2.07-1.28,3.1-2.54,3.1a2,2,0,0,1-1.9-1.08h0l-.06,1h-.88c0-.4.05-1,.05-1.5Zm1,6.19a1.6,1.6,0,0,0,.05.39,1.58,1.58,0,0,0,1.54,1.23c1.08,0,1.71-.9,1.71-2.23,0-1.16-.58-2.16-1.69-2.16a1.66,1.66,0,0,0-1.55,1.3,1.87,1.87,0,0,0-.06.44Z" transform="translate(-321.2 -244.99)"/><path class="cls-1" d="M472.57,301.58a1.82,1.82,0,0,0,1.94,2,3.54,3.54,0,0,0,1.56-.3l.18.76a4.44,4.44,0,0,1-1.88.37,2.67,2.67,0,0,1-2.78-2.94c0-1.75,1-3.11,2.65-3.11,1.85,0,2.33,1.65,2.33,2.72a2.13,2.13,0,0,1,0,.49Zm3-.76a1.49,1.49,0,0,0-1.42-1.7,1.71,1.71,0,0,0-1.58,1.7Z" transform="translate(-321.2 -244.99)"/><path class="cls-1" d="M477.55,295.77h1v8.52h-1Z" transform="translate(-321.2 -244.99)"/><path class="cls-1" d="M485.11,301.34a2.8,2.8,0,0,1-2.81,3.08,2.73,2.73,0,0,1-2.7-3,2.8,2.8,0,0,1,2.8-3.07A2.71,2.71,0,0,1,485.11,301.34Zm-4.46.06c0,1.27.7,2.23,1.7,2.23s1.71-.95,1.71-2.25c0-1-.47-2.22-1.69-2.22S480.65,300.31,480.65,301.4Z" transform="translate(-321.2 -244.99)"/><path class="cls-1" d="M486.44,298.49l.76,2.95c.15.64.3,1.24.41,1.84h0c.13-.58.32-1.21.5-1.83l.92-3h.87l.87,2.9c.21.69.37,1.31.5,1.89h0a16.47,16.47,0,0,1,.43-1.88l.8-2.91h1l-1.82,5.8h-.94l-.86-2.77a19.07,19.07,0,0,1-.5-1.91h0a16.74,16.74,0,0,1-.52,1.92l-.9,2.76h-.94l-1.7-5.8Z" transform="translate(-321.2 -244.99)"/><path class="cls-1" d="M335.46,315.09v1.4h1.46v.8h-1.46v3.13c0,.72.19,1.13.76,1.13a1.8,1.8,0,0,0,.6-.08l.05.81a2.84,2.84,0,0,1-.91.14,1.46,1.46,0,0,1-1.11-.44,2.32,2.32,0,0,1-.4-1.52v-3.17h-.87v-.8h.87v-1.08Z" transform="translate(-321.2 -244.99)"/><path class="cls-1" d="M337.79,313.78h1v3.63h0a2,2,0,0,1,.74-.76,2,2,0,0,1,1.05-.28c.76,0,2,.48,2,2.47v3.45h-1V319c0-.94-.34-1.72-1.3-1.72a1.5,1.5,0,0,0-1.38,1,1.4,1.4,0,0,0-.07.51v3.5h-1Z" transform="translate(-321.2 -244.99)"/><path class="cls-1" d="M347.93,320.9a9.83,9.83,0,0,0,.08,1.39h-.92l-.09-.73h0a2.08,2.08,0,0,1-1.72.86,1.63,1.63,0,0,1-1.73-1.67c0-1.4,1.21-2.17,3.39-2.15v-.12a1.17,1.17,0,0,0-1.28-1.33,2.63,2.63,0,0,0-1.48.43l-.23-.71a3.54,3.54,0,0,1,1.86-.5c1.73,0,2.15,1.21,2.15,2.36Zm-1-1.57c-1.12,0-2.39.18-2.39,1.3a.91.91,0,0,0,.95,1,1.43,1.43,0,0,0,1.39-1,1.47,1.47,0,0,0,.05-.34Z" transform="translate(-321.2 -244.99)"/><path class="cls-1" d="M350.48,315.09v1.4H352v.8h-1.47v3.13c0,.72.2,1.13.77,1.13a1.73,1.73,0,0,0,.59-.08l.05.81a2.79,2.79,0,0,1-.91.14,1.47,1.47,0,0,1-1.11-.44,2.32,2.32,0,0,1-.39-1.52v-3.17h-.88v-.8h.88v-1.08Z" transform="translate(-321.2 -244.99)"/><path class="cls-1" d="M355,318.38c0-.74,0-1.34-.05-1.89h.91l.06,1h0a2.19,2.19,0,0,1,2-1.11c1.37,0,2.4,1.18,2.4,2.93,0,2.09-1.25,3.12-2.58,3.12a1.94,1.94,0,0,1-1.73-.91h0v3.16h-1Zm1,1.55a1.49,1.49,0,0,0,.05.43,1.59,1.59,0,0,0,1.54,1.23c1.08,0,1.71-.91,1.71-2.24,0-1.15-.59-2.14-1.68-2.14a1.63,1.63,0,0,0-1.55,1.29,2,2,0,0,0-.07.42Z" transform="translate(-321.2 -244.99)"/><path class="cls-1" d="M362.47,314.85a.64.64,0,1,1-1.27,0,.64.64,0,0,1,.64-.66A.63.63,0,0,1,362.47,314.85Zm-1.14,7.44v-5.8h1v5.8Z" transform="translate(-321.2 -244.99)"/><path class="cls-1" d="M367.79,322.09a4,4,0,0,1-1.62.33,2.71,2.71,0,0,1-2.81-3,2.91,2.91,0,0,1,3-3.09,3.11,3.11,0,0,1,1.42.31l-.23.8a2.51,2.51,0,0,0-1.19-.27,2,2,0,0,0-2,2.19,2,2,0,0,0,2,2.17,2.76,2.76,0,0,0,1.26-.28Z" transform="translate(-321.2 -244.99)"/><path class="cls-1" d="M370.08,315.09v1.4h1.47v.8h-1.47v3.13c0,.72.2,1.13.77,1.13a1.73,1.73,0,0,0,.59-.08l.05.81a2.79,2.79,0,0,1-.91.14,1.47,1.47,0,0,1-1.11-.44,2.32,2.32,0,0,1-.39-1.52v-3.17h-.88v-.8h.88v-1.08Z" transform="translate(-321.2 -244.99)"/><path class="cls-1" d="M377.13,320.7c0,.61,0,1.13.05,1.59h-.91l-.06-1h0a2.1,2.1,0,0,1-1.87,1.08c-.88,0-1.94-.51-1.94-2.54v-3.39h1v3.2c0,1.1.34,1.86,1.26,1.86a1.51,1.51,0,0,0,1.45-1.51v-3.55h1Z" transform="translate(-321.2 -244.99)"/><path class="cls-1" d="M378.54,318.3c0-.69,0-1.27,0-1.81h.89l.05,1.15h0a1.72,1.72,0,0,1,1.58-1.27l.28,0v1a1.89,1.89,0,0,0-.35,0,1.45,1.45,0,0,0-1.38,1.34,4,4,0,0,0,0,.5v3.09h-1Z" transform="translate(-321.2 -244.99)"/><path class="cls-1" d="M382.52,319.58a1.82,1.82,0,0,0,1.93,2,3.51,3.51,0,0,0,1.56-.3l.19.76a4.45,4.45,0,0,1-1.89.37,2.66,2.66,0,0,1-2.77-2.94c0-1.75,1-3.11,2.64-3.11,1.86,0,2.33,1.65,2.33,2.72a3.1,3.1,0,0,1,0,.49Zm3-.76a1.48,1.48,0,0,0-1.42-1.7,1.7,1.7,0,0,0-1.57,1.7Z" transform="translate(-321.2 -244.99)"/><path class="cls-1" d="M393.64,320.9a9.83,9.83,0,0,0,.08,1.39h-.92l-.09-.73h0a2.09,2.09,0,0,1-1.73.86,1.63,1.63,0,0,1-1.72-1.67c0-1.4,1.21-2.17,3.39-2.15v-.12a1.17,1.17,0,0,0-1.28-1.33,2.6,2.6,0,0,0-1.48.43l-.24-.71a3.6,3.6,0,0,1,1.87-.5c1.73,0,2.15,1.21,2.15,2.36Zm-1-1.57c-1.11,0-2.39.18-2.39,1.3a.92.92,0,0,0,1,1,1.3,1.3,0,0,0,1.43-1.31Z" transform="translate(-321.2 -244.99)"/><path class="cls-1" d="M395,318.06c0-.61,0-1.1-.05-1.57h.91l.06,1h0a2.09,2.09,0,0,1,1.87-1.08c.78,0,2,.48,2,2.47v3.45h-1v-3.35c0-.93-.34-1.71-1.31-1.71a1.5,1.5,0,0,0-1.38,1.08,1.75,1.75,0,0,0-.07.49v3.49h-1Z" transform="translate(-321.2 -244.99)"/><path class="cls-1" d="M406,313.78v7c0,.52,0,1.1,0,1.5h-.91l0-1h0a2,2,0,0,1-1.9,1.14c-1.36,0-2.42-1.18-2.42-2.95,0-1.93,1.16-3.1,2.53-3.1a1.89,1.89,0,0,1,1.7.87h0v-3.46Zm-1,5.07a2.35,2.35,0,0,0,0-.45,1.54,1.54,0,0,0-1.48-1.21c-1.07,0-1.7,1-1.7,2.23s.58,2.15,1.67,2.15a1.57,1.57,0,0,0,1.51-1.26,2.15,2.15,0,0,0,0-.45Z" transform="translate(-321.2 -244.99)"/><path class="cls-1" d="M410.87,315.09v1.4h1.47v.8h-1.47v3.13c0,.72.2,1.13.77,1.13a1.84,1.84,0,0,0,.6-.08l0,.81a2.79,2.79,0,0,1-.91.14,1.45,1.45,0,0,1-1.1-.44,2.32,2.32,0,0,1-.4-1.52v-3.17H409v-.8h.87v-1.08Z" transform="translate(-321.2 -244.99)"/><path class="cls-1" d="M413.2,318.3c0-.69,0-1.27,0-1.81h.89l.05,1.15h0a1.7,1.7,0,0,1,1.57-1.27l.28,0v1a1.89,1.89,0,0,0-.35,0,1.45,1.45,0,0,0-1.38,1.34,4,4,0,0,0,0,.5v3.09h-1Z" transform="translate(-321.2 -244.99)"/><path class="cls-1" d="M420.63,320.9a9.83,9.83,0,0,0,.08,1.39h-.92l-.08-.73h0a2.08,2.08,0,0,1-1.72.86,1.63,1.63,0,0,1-1.73-1.67c0-1.4,1.21-2.17,3.39-2.15v-.12a1.17,1.17,0,0,0-1.28-1.33,2.63,2.63,0,0,0-1.48.43l-.23-.71a3.54,3.54,0,0,1,1.86-.5c1.73,0,2.15,1.21,2.15,2.36Zm-1-1.57c-1.12,0-2.39.18-2.39,1.3a.91.91,0,0,0,.95,1,1.43,1.43,0,0,0,1.39-1,1.47,1.47,0,0,0,.05-.34Z" transform="translate(-321.2 -244.99)"/><path class="cls-1" d="M422,318.06c0-.61,0-1.1-.05-1.57h.91l.06,1h0a2.09,2.09,0,0,1,1.87-1.08c.78,0,2,.48,2,2.47v3.45h-1v-3.35c0-.93-.34-1.71-1.31-1.71a1.48,1.48,0,0,0-1.37,1.08,1.45,1.45,0,0,0-.07.49v3.49h-1Z" transform="translate(-321.2 -244.99)"/><path class="cls-1" d="M428,321.22a2.73,2.73,0,0,0,1.36.41c.74,0,1.09-.37,1.09-.86s-.3-.77-1-1.06c-1-.38-1.51-.95-1.51-1.64a1.76,1.76,0,0,1,1.95-1.7,2.55,2.55,0,0,1,1.38.36l-.25.76a2.18,2.18,0,0,0-1.15-.34c-.61,0-.93.35-.93.79s.32.69,1.06,1c1,.37,1.48.88,1.48,1.74,0,1-.78,1.75-2.1,1.75a3.17,3.17,0,0,1-1.59-.41Z" transform="translate(-321.2 -244.99)"/><path class="cls-1" d="M432.6,322.29v-5h-.78v-.8h.78v-.28a2.82,2.82,0,0,1,.65-2,1.94,1.94,0,0,1,1.37-.54,2.35,2.35,0,0,1,.88.17l-.14.82a1.33,1.33,0,0,0-.65-.14c-.88,0-1.1.78-1.1,1.68v.32H435v.8h-1.36v5Z" transform="translate(-321.2 -244.99)"/><path class="cls-1" d="M436,319.58a1.83,1.83,0,0,0,1.94,2,3.54,3.54,0,0,0,1.56-.3l.19.76a4.45,4.45,0,0,1-1.89.37,2.67,2.67,0,0,1-2.78-2.94c0-1.75,1-3.11,2.65-3.11,1.85,0,2.33,1.65,2.33,2.72a3.1,3.1,0,0,1,0,.49Zm3-.76a1.49,1.49,0,0,0-1.42-1.7,1.7,1.7,0,0,0-1.57,1.7Z" transform="translate(-321.2 -244.99)"/><path class="cls-1" d="M441,318.3c0-.69,0-1.27-.05-1.81h.9l0,1.15h0a1.72,1.72,0,0,1,1.58-1.27l.28,0v1a1.89,1.89,0,0,0-.35,0,1.44,1.44,0,0,0-1.38,1.34,4,4,0,0,0,0,.5v3.09h-1Z" transform="translate(-321.2 -244.99)"/><path class="cls-1" d="M447.84,314.85a.64.64,0,1,1-1.27,0,.64.64,0,0,1,.64-.66A.63.63,0,0,1,447.84,314.85Zm-1.14,7.44v-5.8h1v5.8Z" transform="translate(-321.2 -244.99)"/><path class="cls-1" d="M450.37,315.09v1.4h1.47v.8h-1.47v3.13c0,.72.2,1.13.77,1.13a1.73,1.73,0,0,0,.59-.08l0,.81a2.79,2.79,0,0,1-.91.14,1.47,1.47,0,0,1-1.11-.44,2.32,2.32,0,0,1-.39-1.52v-3.17h-.88v-.8h.88v-1.08Z" transform="translate(-321.2 -244.99)"/><path class="cls-1" d="M456.12,315.09v1.4h1.46v.8h-1.46v3.13c0,.72.19,1.13.76,1.13a1.76,1.76,0,0,0,.6-.08l0,.81a2.84,2.84,0,0,1-.91.14,1.46,1.46,0,0,1-1.11-.44,2.32,2.32,0,0,1-.4-1.52v-3.17h-.87v-.8h.87v-1.08Z" transform="translate(-321.2 -244.99)"/><path class="cls-1" d="M463.48,319.34a2.8,2.8,0,0,1-2.81,3.08,2.73,2.73,0,0,1-2.7-3,2.8,2.8,0,0,1,2.8-3.07A2.71,2.71,0,0,1,463.48,319.34Zm-4.46.06c0,1.27.7,2.23,1.7,2.23s1.71-.95,1.71-2.25c0-1-.47-2.22-1.69-2.22S459,318.31,459,319.4Z" transform="translate(-321.2 -244.99)"/><path class="cls-1" d="M467.9,315.09v1.4h1.47v.8H467.9v3.13c0,.72.2,1.13.77,1.13a1.73,1.73,0,0,0,.59-.08l.05.81a2.79,2.79,0,0,1-.91.14,1.47,1.47,0,0,1-1.11-.44,2.32,2.32,0,0,1-.39-1.52v-3.17H466v-.8h.88v-1.08Z" transform="translate(-321.2 -244.99)"/><path class="cls-1" d="M470.23,313.78h1v3.63h0a2,2,0,0,1,.73-.76,2.09,2.09,0,0,1,1.05-.28c.76,0,2,.48,2,2.47v3.45h-1V319c0-.94-.34-1.72-1.31-1.72a1.49,1.49,0,0,0-1.37,1,1.4,1.4,0,0,0-.07.51v3.5h-1Z" transform="translate(-321.2 -244.99)"/><path class="cls-1" d="M477,319.58a1.82,1.82,0,0,0,1.93,2,3.51,3.51,0,0,0,1.56-.3l.19.76a4.45,4.45,0,0,1-1.89.37,2.67,2.67,0,0,1-2.77-2.94c0-1.75,1-3.11,2.64-3.11,1.86,0,2.34,1.65,2.34,2.72a2.91,2.91,0,0,1,0,.49Zm3-.76a1.49,1.49,0,0,0-1.43-1.7,1.7,1.7,0,0,0-1.57,1.7Z" transform="translate(-321.2 -244.99)"/><path class="cls-1" d="M484.13,318.3c0-.69,0-1.27,0-1.81H485l0,1.15h0a1.7,1.7,0,0,1,1.57-1.27l.28,0v1a1.89,1.89,0,0,0-.35,0,1.45,1.45,0,0,0-1.38,1.34,4,4,0,0,0,0,.5v3.09h-1Z" transform="translate(-321.2 -244.99)"/><path class="cls-1" d="M488.84,314.85a.64.64,0,1,1-1.27,0,.64.64,0,0,1,.64-.66A.63.63,0,0,1,488.84,314.85Zm-1.14,7.44v-5.8h1v5.8Z" transform="translate(-321.2 -244.99)"/><path class="cls-1" d="M495,321.44a3.49,3.49,0,0,1-.8,2.66,3,3,0,0,1-2.07.7,3.56,3.56,0,0,1-1.87-.48l.25-.82a3.06,3.06,0,0,0,1.66.47c1.05,0,1.82-.56,1.82-2v-.64h0a2,2,0,0,1-1.79,1,2.57,2.57,0,0,1-2.4-2.83c0-2,1.24-3.07,2.55-3.07a1.88,1.88,0,0,1,1.76,1h0l0-.87H495c0,.4-.05.88-.05,1.58Zm-1-2.66a1.63,1.63,0,0,0-.06-.47,1.48,1.48,0,0,0-1.44-1.13c-1,0-1.68.85-1.68,2.2,0,1.14.58,2.08,1.67,2.08a1.48,1.48,0,0,0,1.42-1.08,1.82,1.82,0,0,0,.09-.56Z" transform="translate(-321.2 -244.99)"/><path class="cls-1" d="M496.36,313.78h1v3.63h0a2,2,0,0,1,.73-.76,2.09,2.09,0,0,1,1.05-.28c.76,0,2,.48,2,2.47v3.45h-1V319c0-.94-.34-1.72-1.31-1.72a1.49,1.49,0,0,0-1.37,1,1.4,1.4,0,0,0-.08.51v3.5h-1Z" transform="translate(-321.2 -244.99)"/><path class="cls-1" d="M503.73,315.09v1.4h1.46v.8h-1.46v3.13c0,.72.19,1.13.76,1.13a1.8,1.8,0,0,0,.6-.08l.05.81a2.84,2.84,0,0,1-.91.14,1.46,1.46,0,0,1-1.11-.44,2.32,2.32,0,0,1-.4-1.52v-3.17h-.87v-.8h.87v-1.08Z" transform="translate(-321.2 -244.99)"/><path class="cls-1" d="M505.78,321.67a.71.71,0,0,1,.7-.76.69.69,0,0,1,.68.76.7.7,0,0,1-.71.75A.69.69,0,0,1,505.78,321.67Z" transform="translate(-321.2 -244.99)"/><rect class="cls-2" x="0.25" y="0.25" width="196.04" height="98.8"/></svg>