<svg id="Layer_1" data-name="Layer 1" xmlns="http://www.w3.org/2000/svg" viewBox="0 0 135.12 91.06"><defs><style>.cls-1{fill:#1d1d1b;}.cls-2{fill:#9d9d9c;}.cls-3{fill:#333;}.cls-4{fill:#1a1a1a;}.cls-5{fill:none;stroke:#4d4d4d;}.cls-6{fill:#e0e0e0;}.cls-7{fill:#818080;}.cls-8{fill:#fff;}</style></defs><path class="cls-1" d="M380,256.3a3,3,0,1,1-3-3A3,3,0,0,1,380,256.3Z" transform="translate(-348.76 -251.36)"/><path class="cls-1" d="M368.48,271.55a8.71,8.71,0,0,1,17.37,0h3a11.84,11.84,0,0,0-23.65,0Z" transform="translate(-348.76 -251.36)"/><rect class="cls-1" x="24.2" y="11.69" width="8.26" height="8.45"/><path class="cls-2" d="M380,287.3a3,3,0,1,0-3,3A3,3,0,0,0,380,287.3Z" transform="translate(-348.76 -251.36)"/><path class="cls-2" d="M368.48,272.05a8.71,8.71,0,0,0,17.37,0h3a11.84,11.84,0,0,1-23.65,0Z" transform="translate(-348.76 -251.36)"/><rect class="cls-2" x="24.2" y="20.74" width="8.26" height="8.45"/><path class="cls-3" d="M418,278.87v2.69a2,2,0,0,0,.18,1.08,1,1,0,0,0,.76.29h.34v.26h-3.83v-.26h.34a.87.87,0,0,0,.81-.38,2.25,2.25,0,0,0,.13-1v-5.95a2,2,0,0,0-.18-1.08.94.94,0,0,0-.76-.3h-.34V274h3.28a5.64,5.64,0,0,1,1.89.25,2.67,2.67,0,0,1,1.17.86,2.22,2.22,0,0,1,.47,1.43,2.46,2.46,0,0,1-.72,1.84,2.79,2.79,0,0,1-2,.7,5.92,5.92,0,0,1-.7,0C418.59,279,418.32,278.94,418,278.87Zm0-.38.62.1.46,0a1.54,1.54,0,0,0,1.18-.54,2.05,2.05,0,0,0,.5-1.42,2.57,2.57,0,0,0-.24-1.11,1.64,1.64,0,0,0-.67-.77,1.92,1.92,0,0,0-1-.25,3.58,3.58,0,0,0-.86.13Z" transform="translate(-348.76 -251.36)"/><path class="cls-3" d="M426.74,282.93v.26h-3.83v-.26h.32a.93.93,0,0,0,.8-.33,2,2,0,0,0,.16-1v-5.95a3.54,3.54,0,0,0-.08-.93.67.67,0,0,0-.27-.29,1.24,1.24,0,0,0-.61-.16h-.32V274h3.83v.25h-.32a1,1,0,0,0-.8.33,2.1,2.1,0,0,0-.16,1.05v5.95a3.5,3.5,0,0,0,.08.92.65.65,0,0,0,.28.29,1.17,1.17,0,0,0,.6.16Z" transform="translate(-348.76 -251.36)"/><path class="cls-3" d="M435,273.77l.21,3.13H435a4,4,0,0,0-1.17-2,2.78,2.78,0,0,0-1.82-.61,2.85,2.85,0,0,0-1.6.46,3,3,0,0,0-1.13,1.49,6.62,6.62,0,0,0-.42,2.53,5.48,5.48,0,0,0,.39,2.16,3,3,0,0,0,1.17,1.41,3.27,3.27,0,0,0,1.79.49,3,3,0,0,0,1.53-.39,5.08,5.08,0,0,0,1.47-1.52l.2.14a4.86,4.86,0,0,1-1.57,1.8,3.9,3.9,0,0,1-2.13.57,4,4,0,0,1-3.44-1.7,5,5,0,0,1-.91-3,5.42,5.42,0,0,1,.6-2.53,4.46,4.46,0,0,1,1.65-1.79,4.4,4.4,0,0,1,2.3-.63,4.05,4.05,0,0,1,1.91.49,1.05,1.05,0,0,0,.4.15.46.46,0,0,0,.31-.13,1.21,1.21,0,0,0,.24-.51Z" transform="translate(-348.76 -251.36)"/><path class="cls-3" d="M443.49,274l.1,2.16h-.25a2.62,2.62,0,0,0-.2-.82,1.38,1.38,0,0,0-.54-.58,2,2,0,0,0-.9-.18h-1.25v7a1.93,1.93,0,0,0,.17,1.06,1,1,0,0,0,.77.28h.31v.26h-3.79v-.26h.32a.87.87,0,0,0,.8-.35,2,2,0,0,0,.15-1v-7H438.1a3.12,3.12,0,0,0-.89.09,1.25,1.25,0,0,0-.58.5,1.94,1.94,0,0,0-.29,1h-.25l.1-2.16Z" transform="translate(-348.76 -251.36)"/><path class="cls-3" d="M448.42,273.77a4,4,0,0,1,3,1.36,4.78,4.78,0,0,1,1.27,3.4,4.93,4.93,0,0,1-1.28,3.48,4.13,4.13,0,0,1-3.12,1.39,4,4,0,0,1-3.1-1.36,4.9,4.9,0,0,1-1.25-3.49,4.72,4.72,0,0,1,1.45-3.58A4.21,4.21,0,0,1,448.42,273.77Zm-.13.49a2.32,2.32,0,0,0-1.92.92,5.3,5.3,0,0,0-.91,3.34,5.62,5.62,0,0,0,.94,3.47,2.27,2.27,0,0,0,1.9.92,2.55,2.55,0,0,0,2.08-1,5,5,0,0,0,.82-3.19,5.7,5.7,0,0,0-.9-3.52A2.4,2.4,0,0,0,448.29,274.26Z" transform="translate(-348.76 -251.36)"/><path class="cls-3" d="M462.16,283.19h-2.39l-3-4.31h-.93v2.68a2,2,0,0,0,.18,1.08,1,1,0,0,0,.75.29h.35v.26h-3.83v-.26h.34a.87.87,0,0,0,.81-.38,2.2,2.2,0,0,0,.14-1v-5.95a1.85,1.85,0,0,0-.19-1.08.94.94,0,0,0-.76-.3h-.34V274h3.26a7.66,7.66,0,0,1,2.1.21,2.44,2.44,0,0,1,1.15.79,2.11,2.11,0,0,1,.47,1.37,2.19,2.19,0,0,1-.54,1.47,3,3,0,0,1-1.66.88l1.84,2.65a4.75,4.75,0,0,0,1.09,1.2,2.61,2.61,0,0,0,1.19.38Zm-6.35-4.74h.37a2.87,2.87,0,0,0,1.93-.57,1.85,1.85,0,0,0,.64-1.45,1.93,1.93,0,0,0-.52-1.41,1.85,1.85,0,0,0-1.39-.54,6.22,6.22,0,0,0-1,.13Z" transform="translate(-348.76 -251.36)"/><path class="cls-3" d="M466,282.93v.26h-3.83v-.26h.32a.93.93,0,0,0,.8-.33,2,2,0,0,0,.16-1v-5.95a3.54,3.54,0,0,0-.08-.93.67.67,0,0,0-.27-.29,1.24,1.24,0,0,0-.61-.16h-.32V274H466v.25h-.32a1,1,0,0,0-.8.33,2.1,2.1,0,0,0-.16,1.05v5.95a3.5,3.5,0,0,0,.08.92.65.65,0,0,0,.28.29,1.17,1.17,0,0,0,.6.16Z" transform="translate(-348.76 -251.36)"/><path class="cls-3" d="M472.31,280.1h-3.46l-.61,1.46a2.25,2.25,0,0,0-.22.8.47.47,0,0,0,.19.37,1.73,1.73,0,0,0,.84.2v.26h-2.81v-.26a1.4,1.4,0,0,0,.72-.26,4.27,4.27,0,0,0,.75-1.32l3.14-7.58h.23l3.12,7.66a3.38,3.38,0,0,0,.68,1.19,1.31,1.31,0,0,0,.85.31v.26h-3.52v-.26a1.28,1.28,0,0,0,.72-.18.49.49,0,0,0,.19-.38,2.81,2.81,0,0,0-.27-.94Zm-.18-.5-1.52-3.72-1.56,3.72Z" transform="translate(-348.76 -251.36)"/><path class="cls-3" d="M483.42,280.64l.22.05-.76,2.5H476v-.26h.34a.87.87,0,0,0,.81-.38,2.25,2.25,0,0,0,.14-1v-5.94a1.85,1.85,0,0,0-.19-1.08.94.94,0,0,0-.76-.3H476V274H480v.25a2.24,2.24,0,0,0-1,.14.77.77,0,0,0-.39.36,3,3,0,0,0-.11,1v5.79a1.91,1.91,0,0,0,.11.77.42.42,0,0,0,.24.21,3.92,3.92,0,0,0,1,.07h.66a4.41,4.41,0,0,0,1.44-.16,1.78,1.78,0,0,0,.76-.55A4.25,4.25,0,0,0,483.42,280.64Z" transform="translate(-348.76 -251.36)"/><path class="cls-4" d="M419,288.52v3.78h.26a2.27,2.27,0,0,0,1-.18,1.5,1.5,0,0,0,.63-.62,2.75,2.75,0,0,0,.34-1.17h.23V295h-.23a2.39,2.39,0,0,0-.68-1.73,2,2,0,0,0-1.26-.42H419v2.82a2.89,2.89,0,0,0,.08.88.71.71,0,0,0,.29.31,1.16,1.16,0,0,0,.6.13h.3v.26h-4.68v-.26h.3a1.12,1.12,0,0,0,.62-.14.58.58,0,0,0,.27-.32,2.9,2.9,0,0,0,.07-.86v-6.06a3.08,3.08,0,0,0-.07-.88.68.68,0,0,0-.3-.31,1.1,1.1,0,0,0-.59-.13h-.3V288h7.55v2.64h-.28a2.44,2.44,0,0,0-.47-1.38,2,2,0,0,0-1.09-.63,6.92,6.92,0,0,0-1.47-.1Z" transform="translate(-348.76 -251.36)"/><path class="cls-4" d="M428.26,296.94v.26h-4.67v-.26h.29a1.18,1.18,0,0,0,.63-.14.61.61,0,0,0,.26-.32,2.9,2.9,0,0,0,.07-.86v-6.06a3.08,3.08,0,0,0-.07-.88.66.66,0,0,0-.29-.31,1.16,1.16,0,0,0-.6-.13h-.29V288h4.67v.25H428a1.26,1.26,0,0,0-.62.14.64.64,0,0,0-.27.33,2.82,2.82,0,0,0-.07.85v6.06a3,3,0,0,0,.07.88.68.68,0,0,0,.3.31,1.1,1.1,0,0,0,.59.13Z" transform="translate(-348.76 -251.36)"/><path class="cls-4" d="M436.89,288v2.49h-.24a4.06,4.06,0,0,0-.47-1.24,1.79,1.79,0,0,0-.7-.6,2.26,2.26,0,0,0-.88-.12h-.67v7.1a2.89,2.89,0,0,0,.08.88.68.68,0,0,0,.3.31,1.14,1.14,0,0,0,.6.13h.3v.26h-4.69v-.26h.3a1.18,1.18,0,0,0,.63-.14.67.67,0,0,0,.27-.32,2.9,2.9,0,0,0,.07-.86v-7.1h-.65a1.85,1.85,0,0,0-1.31.39,2.65,2.65,0,0,0-.72,1.57h-.25V288Z" transform="translate(-348.76 -251.36)"/><path class="cls-4" d="M440.11,294.7h-3.85v-1.4h3.85Z" transform="translate(-348.76 -251.36)"/><path class="cls-4" d="M443.94,288.52v3.78h.26a2.27,2.27,0,0,0,1-.18,1.5,1.5,0,0,0,.63-.62,2.75,2.75,0,0,0,.34-1.17h.24V295h-.24a2.39,2.39,0,0,0-.68-1.73,2,2,0,0,0-1.26-.42h-.26v2.82a2.89,2.89,0,0,0,.08.88.71.71,0,0,0,.29.31,1.16,1.16,0,0,0,.6.13h.3v.26h-4.68v-.26h.3a1.18,1.18,0,0,0,.63-.14.61.61,0,0,0,.26-.32,2.9,2.9,0,0,0,.07-.86v-6.06a3.08,3.08,0,0,0-.07-.88.71.71,0,0,0-.29-.31,1.16,1.16,0,0,0-.6-.13h-.3V288h7.55v2.64h-.27a2.44,2.44,0,0,0-.48-1.38,2,2,0,0,0-1.09-.63,6.86,6.86,0,0,0-1.47-.1Z" transform="translate(-348.76 -251.36)"/><path class="cls-4" d="M451.86,293v2.58a2.89,2.89,0,0,0,.09.94.69.69,0,0,0,.32.31,2,2,0,0,0,.83.11v.26h-4.57v-.26a2,2,0,0,0,.84-.11.77.77,0,0,0,.31-.31,2.89,2.89,0,0,0,.09-.94v-6a2.85,2.85,0,0,0-.09-.94.64.64,0,0,0-.32-.31,1.94,1.94,0,0,0-.83-.12V288h4.15a9.1,9.1,0,0,1,2.38.23,2.39,2.39,0,0,1,1.7,2.31,2.18,2.18,0,0,1-.72,1.68,2.86,2.86,0,0,1-1.27.63l2.15,3.12a4.6,4.6,0,0,0,.6.75,1.08,1.08,0,0,0,.63.23v.26h-2.82l-2.88-4.2Zm0-4.52v4h.38a3.92,3.92,0,0,0,1.37-.18,1.39,1.39,0,0,0,.72-.62,2.37,2.37,0,0,0,.26-1.18,2.16,2.16,0,0,0-.48-1.55,2,2,0,0,0-1.54-.51Z" transform="translate(-348.76 -251.36)"/><path class="cls-4" d="M463.45,294.58h-3.16l-.38.89a2.11,2.11,0,0,0-.18.74.62.62,0,0,0,.3.57,2.43,2.43,0,0,0,.88.16v.26h-3v-.26a1.22,1.22,0,0,0,.79-.41,5.13,5.13,0,0,0,.77-1.38l3.2-7.35h.12l3.23,7.55a4.38,4.38,0,0,0,.76,1.35,1,1,0,0,0,.63.24v.26H463.1v-.26h.18a1.32,1.32,0,0,0,.73-.14.38.38,0,0,0,.15-.32,1.18,1.18,0,0,0,0-.25s-.08-.21-.2-.51Zm-.23-.51-1.33-3.17-1.37,3.17Z" transform="translate(-348.76 -251.36)"/><path class="cls-4" d="M472.32,296.94v.26h-4.67v-.26h.29a1.18,1.18,0,0,0,.63-.14.57.57,0,0,0,.26-.32,2.77,2.77,0,0,0,.08-.86v-6.06a2.94,2.94,0,0,0-.08-.88.61.61,0,0,0-.29-.31,1.14,1.14,0,0,0-.6-.13h-.29V288h4.67v.25H472a1.28,1.28,0,0,0-.63.14.75.75,0,0,0-.27.33,2.82,2.82,0,0,0-.07.85v6.06a3,3,0,0,0,.07.88.68.68,0,0,0,.3.31,1.16,1.16,0,0,0,.6.13Z" transform="translate(-348.76 -251.36)"/><path class="cls-4" d="M481,294l-.34,3.24h-7.94v-.26h.3a1.18,1.18,0,0,0,.63-.14.61.61,0,0,0,.26-.32,2.9,2.9,0,0,0,.07-.86v-6.06a3.08,3.08,0,0,0-.07-.88.71.71,0,0,0-.29-.31,1.16,1.16,0,0,0-.6-.13h-.3V288h4.77v.25h-.39a1.28,1.28,0,0,0-.63.14.75.75,0,0,0-.27.33,3.22,3.22,0,0,0-.07.85v5.87a3.16,3.16,0,0,0,.08.9.52.52,0,0,0,.31.29,3.14,3.14,0,0,0,.8.06H478a2.49,2.49,0,0,0,1.19-.26,2.19,2.19,0,0,0,.82-.81,6.81,6.81,0,0,0,.66-1.65Z" transform="translate(-348.76 -251.36)"/><path class="cls-3" d="M421.46,301.79V305h-.24a4,4,0,0,0-.43-1.46,2.25,2.25,0,0,0-.87-.86,2.41,2.41,0,0,0-1.18-.32,1.6,1.6,0,0,0-1.13.43,1.34,1.34,0,0,0-.45,1,1.21,1.21,0,0,0,.28.76,7.64,7.64,0,0,0,1.95,1.36,13.22,13.22,0,0,1,1.71,1.06,2.61,2.61,0,0,1,.71.88,2.38,2.38,0,0,1,.24,1.05,2.42,2.42,0,0,1-.78,1.8,2.81,2.81,0,0,1-2,.76,4.15,4.15,0,0,1-.73-.06c-.14,0-.42-.11-.85-.25a4,4,0,0,0-.82-.22.35.35,0,0,0-.26.11.83.83,0,0,0-.14.42h-.24v-3.16h.24a4.7,4.7,0,0,0,.46,1.48,2.29,2.29,0,0,0,.89.82,2.66,2.66,0,0,0,1.31.33,1.82,1.82,0,0,0,1.3-.45,1.4,1.4,0,0,0,.48-1.06,1.44,1.44,0,0,0-.18-.68,1.91,1.91,0,0,0-.57-.65,15.38,15.38,0,0,0-1.4-.87,14,14,0,0,1-1.63-1.05,2.73,2.73,0,0,1-.74-.87,2.32,2.32,0,0,1-.25-1.05,2.28,2.28,0,0,1,.74-1.7,2.58,2.58,0,0,1,1.88-.72,3.65,3.65,0,0,1,1.51.36,1.63,1.63,0,0,0,.52.17.38.38,0,0,0,.28-.11.92.92,0,0,0,.18-.42Z" transform="translate(-348.76 -251.36)"/><path class="cls-3" d="M430.71,301.79l.2,3.13h-.2a4,4,0,0,0-1.17-2,2.73,2.73,0,0,0-1.82-.62,2.91,2.91,0,0,0-1.61.46,3,3,0,0,0-1.13,1.49,6.87,6.87,0,0,0-.41,2.53,5.57,5.57,0,0,0,.39,2.17,3,3,0,0,0,1.17,1.4,3.24,3.24,0,0,0,1.78.49,3.11,3.11,0,0,0,1.54-.38,5.26,5.26,0,0,0,1.46-1.53l.21.14a4.87,4.87,0,0,1-1.57,1.8,3.9,3.9,0,0,1-2.13.57,4,4,0,0,1-3.45-1.7,5,5,0,0,1-.91-3,5.44,5.44,0,0,1,.6-2.54,4.49,4.49,0,0,1,1.66-1.79,4.36,4.36,0,0,1,2.29-.63,4.09,4.09,0,0,1,1.92.49,1,1,0,0,0,.39.15.46.46,0,0,0,.31-.13,1,1,0,0,0,.25-.51Z" transform="translate(-348.76 -251.36)"/><path class="cls-3" d="M437.56,308.12H434.1l-.61,1.46a2.3,2.3,0,0,0-.22.8.47.47,0,0,0,.19.37,1.71,1.71,0,0,0,.84.21v.25h-2.81V311a1.48,1.48,0,0,0,.72-.27,4.08,4.08,0,0,0,.75-1.32l3.14-7.58h.23l3.12,7.66a3.74,3.74,0,0,0,.68,1.2,1.42,1.42,0,0,0,.85.31v.25h-3.52V311a1.27,1.27,0,0,0,.72-.19.49.49,0,0,0,.19-.38,2.81,2.81,0,0,0-.27-.94Zm-.18-.5-1.52-3.72-1.56,3.72Z" transform="translate(-348.76 -251.36)"/><path class="cls-3" d="M448.67,308.66l.22,0-.76,2.5H441.2V311h.34a.89.89,0,0,0,.81-.38,2.31,2.31,0,0,0,.14-1v-5.94a1.87,1.87,0,0,0-.19-1.08.94.94,0,0,0-.76-.3h-.34V302h4.05v.25a2.4,2.4,0,0,0-1,.14.77.77,0,0,0-.39.36,3,3,0,0,0-.11,1v5.78a1.85,1.85,0,0,0,.11.77.51.51,0,0,0,.24.22,4.75,4.75,0,0,0,1,.06h.66a4.79,4.79,0,0,0,1.44-.15,1.9,1.9,0,0,0,.76-.56A4.25,4.25,0,0,0,448.67,308.66Z" transform="translate(-348.76 -251.36)"/><path class="cls-3" d="M451.8,302.5v3.64h2a1.54,1.54,0,0,0,1-.24,1.5,1.5,0,0,0,.38-1.1h.25V308h-.25a3.53,3.53,0,0,0-.18-.86.85.85,0,0,0-.39-.38,2,2,0,0,0-.83-.13h-2v3a2.61,2.61,0,0,0,.06.75.4.4,0,0,0,.18.21,1.1,1.1,0,0,0,.5.08h1.52a4.11,4.11,0,0,0,1.1-.11,1.74,1.74,0,0,0,.66-.43,5.55,5.55,0,0,0,.84-1.27h.26l-.77,2.31h-6.89V311h.31a1.25,1.25,0,0,0,.6-.16.56.56,0,0,0,.29-.33,3.22,3.22,0,0,0,.08-.89v-6a2.1,2.1,0,0,0-.17-1.08,1,1,0,0,0-.8-.27h-.31V302h6.89l.1,2H456a2.93,2.93,0,0,0-.31-1,1.07,1.07,0,0,0-.49-.42,3.22,3.22,0,0,0-.93-.1Z" transform="translate(-348.76 -251.36)"/><path class="cls-4" d="M353.24,303.5v4.71a3.47,3.47,0,0,0,.32,1.9,1.63,1.63,0,0,0,1.33.52h.61v.44h-6.74v-.44h.59a1.56,1.56,0,0,0,1.43-.67,4.09,4.09,0,0,0,.23-1.75V297.76a3.5,3.5,0,0,0-.31-1.9,1.68,1.68,0,0,0-1.35-.52h-.59v-.44h5.76a10.18,10.18,0,0,1,3.33.44,4.68,4.68,0,0,1,2,1.51,3.94,3.94,0,0,1,.83,2.52,4.32,4.32,0,0,1-1.26,3.22,4.93,4.93,0,0,1-3.59,1.24,11,11,0,0,1-1.23-.08C354.21,303.69,353.74,303.61,353.24,303.5Zm0-.68c.41.08.77.14,1.09.18a6.44,6.44,0,0,0,.81.06,2.74,2.74,0,0,0,2.08-1,3.57,3.57,0,0,0,.87-2.49,4.55,4.55,0,0,0-.42-1.95,2.9,2.9,0,0,0-1.18-1.35,3.37,3.37,0,0,0-1.74-.45,6.68,6.68,0,0,0-1.51.23Z" transform="translate(-348.76 -251.36)"/><path class="cls-4" d="M366.07,295.78v6.36h2.86a2,2,0,0,0,1.44-.45,3,3,0,0,0,.61-1.77h.43v5.48H371a3.37,3.37,0,0,0-.24-1.39,1.59,1.59,0,0,0-.62-.66,2.49,2.49,0,0,0-1.19-.22h-2.86v5.08a5.49,5.49,0,0,0,.15,1.62,1.1,1.1,0,0,0,.49.52,2.1,2.1,0,0,0,1.06.28h.57v.44h-6.75v-.44h.56a1.64,1.64,0,0,0,1.41-.58,3.69,3.69,0,0,0,.28-1.84V297.76a5.49,5.49,0,0,0-.15-1.62,1.1,1.1,0,0,0-.47-.52,2.14,2.14,0,0,0-1.07-.28h-.56v-.44h11.7l.15,3.55H373a4.86,4.86,0,0,0-.7-1.66,2.28,2.28,0,0,0-1-.77,5.13,5.13,0,0,0-1.82-.24Z" transform="translate(-348.76 -251.36)"/><path class="cls-4" d="M378.91,295.78v6.36h2.86a2,2,0,0,0,1.44-.45,3,3,0,0,0,.61-1.77h.43v5.48h-.43a3.23,3.23,0,0,0-.23-1.39,1.55,1.55,0,0,0-.63-.66,2.49,2.49,0,0,0-1.19-.22h-2.86v5.08a5.49,5.49,0,0,0,.15,1.62,1.1,1.1,0,0,0,.49.52,2.13,2.13,0,0,0,1.06.28h.57v.44h-6.74v-.44H375a1.67,1.67,0,0,0,1.42-.58,3.82,3.82,0,0,0,.28-1.84V297.76a5.38,5.38,0,0,0-.16-1.62,1,1,0,0,0-.47-.52,2.11,2.11,0,0,0-1.07-.28h-.55v-.44h11.69l.15,3.55h-.41a4.86,4.86,0,0,0-.7-1.66,2.22,2.22,0,0,0-1-.77,5.13,5.13,0,0,0-1.82-.24Z" transform="translate(-348.76 -251.36)"/><path class="cls-4" d="M397.78,294.53v5.59h-.43a7.08,7.08,0,0,0-.75-2.56,4,4,0,0,0-1.53-1.52,4.24,4.24,0,0,0-2.07-.56,2.75,2.75,0,0,0-2,.76,2.35,2.35,0,0,0-.79,1.72,2.07,2.07,0,0,0,.5,1.35,12.89,12.89,0,0,0,3.42,2.39,24.12,24.12,0,0,1,3,1.86,4.69,4.69,0,0,1,1.24,1.54,4.12,4.12,0,0,1,.43,1.85,4.23,4.23,0,0,1-1.38,3.16,4.93,4.93,0,0,1-3.57,1.33,7.47,7.47,0,0,1-1.28-.1,13.15,13.15,0,0,1-1.49-.44,6.5,6.5,0,0,0-1.43-.37.56.56,0,0,0-.46.18,1.37,1.37,0,0,0-.25.73h-.43V305.9H389a7.89,7.89,0,0,0,.81,2.6,3.91,3.91,0,0,0,1.56,1.44,4.72,4.72,0,0,0,2.3.57,3.24,3.24,0,0,0,2.29-.78,2.48,2.48,0,0,0,.84-1.86,2.64,2.64,0,0,0-.32-1.21,3.45,3.45,0,0,0-1-1.13A27.24,27.24,0,0,0,393,304a25.14,25.14,0,0,1-2.87-1.86,4.84,4.84,0,0,1-1.29-1.53,3.89,3.89,0,0,1-.44-1.83,4,4,0,0,1,1.3-3,4.53,4.53,0,0,1,3.3-1.26,6.47,6.47,0,0,1,2.65.63,2.71,2.71,0,0,0,.92.3.66.66,0,0,0,.49-.19,1.47,1.47,0,0,0,.31-.74Z" transform="translate(-348.76 -251.36)"/><line class="cls-5" x1="56.91" x2="56.91" y2="61.41"/><rect class="cls-6" x="49.11" y="74.72" width="86" height="16.34"/><rect class="cls-7" x="0.9" y="74.72" width="48.21" height="16.34"/><path class="cls-8" d="M365,329.42v3.8h1.87v-3.8h1.79v9.49h-1.79v-4H365v4h-1.79v-9.49Z" transform="translate(-348.76 -251.36)"/><path class="cls-8" d="M379.72,338.76a3.41,3.41,0,0,1-1.38.23c-2.36,0-3.48-2-3.48-4.69,0-3.57,1.92-5,3.71-5a2.52,2.52,0,0,1,1.25.25l-.3,1.55a1.78,1.78,0,0,0-.84-.18c-1,0-1.92.9-1.92,3.25s.83,3.15,1.92,3.15a3.09,3.09,0,0,0,.86-.14Z" transform="translate(-348.76 -251.36)"/><path class="cls-8" d="M385.82,329.56a9.19,9.19,0,0,1,1.87-.18,3.44,3.44,0,0,1,2.5.73,2.81,2.81,0,0,1,.79,2.08,3.21,3.21,0,0,1-.78,2.28,3.08,3.08,0,0,1-2.24.92,2.23,2.23,0,0,1-.36,0v3.54h-1.78Zm1.78,4.32a1.51,1.51,0,0,0,.3,0c.91,0,1.3-.66,1.3-1.55s-.33-1.48-1.16-1.48a1.4,1.4,0,0,0-.44.07Z" transform="translate(-348.76 -251.36)"/><path class="cls-1" d="M404.57,338.91l-2-9.49h2l.65,4.1c.15,1,.34,2.18.47,3.29h0c.13-1.13.28-2.27.44-3.34l.63-4.05h2l-2.11,9.49Z" transform="translate(-348.76 -251.36)"/><path class="cls-1" d="M419.3,334.74h-2.09v2.56h2.37v1.61h-4.16v-9.49h4V331h-2.22v2.18h2.09Z" transform="translate(-348.76 -251.36)"/><path class="cls-1" d="M426.76,329.56a10.64,10.64,0,0,1,2-.18,3.54,3.54,0,0,1,2.45.7,2.45,2.45,0,0,1,.74,2,2.53,2.53,0,0,1-1.42,2.37v0c.63.26.94.85,1.12,1.88a16.48,16.48,0,0,0,.59,2.58h-1.87a12.33,12.33,0,0,1-.47-2.28c-.16-1.17-.45-1.51-1-1.51h-.28v3.79h-1.79Zm1.79,4.14h.33c.78,0,1.22-.65,1.22-1.48s-.32-1.38-1.11-1.4a1.4,1.4,0,0,0-.44.05Z" transform="translate(-348.76 -251.36)"/><path class="cls-1" d="M438.94,337a3.47,3.47,0,0,0,1.51.37c.84,0,1.26-.45,1.26-1.07s-.41-1-1.19-1.55a3.22,3.22,0,0,1-1.73-2.65,2.67,2.67,0,0,1,2.89-2.78,3,3,0,0,1,1.45.34l-.29,1.59a2.1,2.1,0,0,0-1.16-.33,1,1,0,0,0-1.13,1c0,.56.27.86,1.26,1.47a3.08,3.08,0,0,1,1.66,2.72,2.8,2.8,0,0,1-3,2.87,4,4,0,0,1-1.76-.38Z" transform="translate(-348.76 -251.36)"/><path class="cls-1" d="M452.27,329.42v9.49h-1.79v-9.49Z" transform="translate(-348.76 -251.36)"/><path class="cls-1" d="M465.26,334c0,3.57-1.22,5-3,5-2.09,0-2.91-2.28-2.91-4.88s1-4.83,3-4.83C464.64,329.31,465.26,331.83,465.26,334Zm-4,.16c0,2.16.39,3.25,1.12,3.25s1.05-1.4,1.05-3.33c0-1.66-.25-3.16-1.07-3.16S461.24,332.12,461.24,334.16Z" transform="translate(-348.76 -251.36)"/><path class="cls-1" d="M472.36,338.91v-9.49H474l1.42,3.72c.28.73.72,1.95,1,2.77h0c-.06-1-.18-2.65-.18-4.39v-2.1h1.57v9.49h-1.64l-1.4-3.61a28,28,0,0,1-.95-2.85h0c.05.95.12,2.42.12,4.33v2.13Z" transform="translate(-348.76 -251.36)"/></svg>