<svg id="Layer_1" data-name="Layer 1" xmlns="http://www.w3.org/2000/svg" xmlns:xlink="http://www.w3.org/1999/xlink" viewBox="0 0 180.75 126.75"><defs><style>.cls-1,.cls-3{fill:none;}.cls-2{clip-path:url(#clip-path);}.cls-3{stroke:#1d1d1b;stroke-linecap:round;stroke-linejoin:round;stroke-width:0.75px;}</style><clipPath id="clip-path" transform="translate(-330.16 -234.02)"><rect class="cls-1" x="330.16" y="234.02" width="180.75" height="126.75"/></clipPath></defs><g class="cls-2"><path class="cls-3" d="M375.06,309.78a3.61,3.61,0,1,1-3.62,3.61A3.61,3.61,0,0,1,375.06,309.78Zm5.61-9.69a3.61,3.61,0,1,1-3.61,3.61A3.62,3.62,0,0,1,380.67,300.09Zm-11.21,0a3.61,3.61,0,1,1-3.61,3.61A3.62,3.62,0,0,1,369.46,300.09Zm130.22-65.7v68.14m10.86-40.08h-21.7m-130.2,12.42-24.89,21.25,24.89,21.24m0-64.53,130.19,86.58M482,334.88c-10.6,1.07-22.89-7.36-25.7-17.25s-15.24-18.2-25.84-17.05m52-15.28h-21.7v21.64h21.7Zm-58.67,21.16a14.43,14.43,0,1,1-14.46,14.43A14.45,14.45,0,0,1,423.74,306.46Zm-65.06-10.34h65.06m65.1-43.29L330.54,358m158.3-105.18H358.65v86.58H488.84Zm-155.9,93.33L330.54,358l11.8,2.38" transform="translate(-330.16 -234.02)"/></g></svg>