<svg id="Layer_1" data-name="Layer 1" xmlns="http://www.w3.org/2000/svg" xmlns:xlink="http://www.w3.org/1999/xlink" viewBox="0 0 17.5 20.59"><defs><style>.cls-1,.cls-4,.cls-6,.cls-8,.cls-9{fill:none;}.cls-2{clip-path:url(#clip-path);}.cls-3{fill:#fff;}.cls-4,.cls-8,.cls-9{stroke:#00a09b;}.cls-4,.cls-6,.cls-8,.cls-9{stroke-miterlimit:3.86;}.cls-5,.cls-7{fill:#00a09b;}.cls-5{fill-rule:evenodd;}.cls-6{stroke:#fff;stroke-width:0.38px;}.cls-8,.cls-9{stroke-linecap:round;}.cls-8{stroke-width:0.75px;}.cls-9{stroke-width:1.75px;}</style><clipPath id="clip-path" transform="translate(-411.79 -287.09)"><rect class="cls-1" x="411.79" y="287.09" width="17.5" height="20.59"/></clipPath></defs><g class="cls-2"><path class="cls-3" d="M420.54,290.69a8.25,8.25,0,1,1-8.25,8.25,8.25,8.25,0,0,1,8.25-8.25" transform="translate(-411.79 -287.09)"/><circle class="cls-4" cx="8.75" cy="11.84" r="8.25"/><path class="cls-5" d="M413.91,298.94a6.63,6.63,0,1,1,6.63,6.62,6.63,6.63,0,0,1-6.63-6.62" transform="translate(-411.79 -287.09)"/><path class="cls-6" d="M418.62,295.25a1.92,1.92,0,1,1,1.92,1.92A1.91,1.91,0,0,1,418.62,295.25Z" transform="translate(-411.79 -287.09)"/><polygon class="cls-3" points="8.74 5.29 9.45 11.84 8.03 11.84 8.74 5.29"/><rect class="cls-3" x="2.12" y="11.34" width="1" height="1"/><rect class="cls-3" x="14.35" y="11.34" width="1" height="1"/><rect class="cls-3" x="8.25" y="17.47" width="1" height="1"/><rect class="cls-7" x="426.83" y="291.14" width="1.5" height="1.5" transform="translate(-492.95 100.73) rotate(-45)"/><rect class="cls-7" x="412.71" y="291.14" width="1.5" height="1.5" transform="translate(-497.09 90.74) rotate(-45)"/><line class="cls-8" x1="7.64" y1="2.47" x2="9.89" y2="2.47"/><line class="cls-9" x1="7.64" y1="0.88" x2="9.89" y2="0.88"/></g></svg>