<svg id="Layer_1" data-name="Layer 1" xmlns="http://www.w3.org/2000/svg" xmlns:xlink="http://www.w3.org/1999/xlink" viewBox="0 0 453.95 19.39"><defs><style>.cls-1{fill:#1d1d1b;}.cls-2{fill:url(#linear-gradient);}.cls-3{fill:#fff;}.cls-4{fill:#828282;}.cls-5{fill:#101010;}</style><linearGradient id="linear-gradient" x1="6.51" y1="13.62" x2="446.5" y2="13.62" gradientUnits="userSpaceOnUse"><stop offset="0.01"/><stop offset="0.39" stop-color="#3e3e3e"/><stop offset="1" stop-color="#9c9c9c"/></linearGradient></defs><path class="cls-1" d="M201.08,289.09a12.22,12.22,0,0,1,1.75-.12,3.19,3.19,0,0,1,1.76.33,1.28,1.28,0,0,1,.71,1.17,1.36,1.36,0,0,1-1,1.27h0a1.5,1.5,0,0,1,1.19,1.46,1.59,1.59,0,0,1-.62,1.27,3.78,3.78,0,0,1-2.34.55,11,11,0,0,1-1.46-.09Zm1.34,2.28h.44c.72,0,1.09-.29,1.09-.74s-.35-.69-1-.68a3.33,3.33,0,0,0-.57,0Zm0,2.64a3.79,3.79,0,0,0,.52,0c.61,0,1.15-.24,1.15-.87s-.54-.83-1.21-.83h-.46Z" transform="translate(-193.56 -288.88)"/><path class="cls-1" d="M209.75,292.43h-2.19v1.41H210V295h-3.79v-6h3.67v1.1h-2.32v1.24h2.19Z" transform="translate(-193.56 -288.88)"/><path class="cls-1" d="M210.75,293.56a3.38,3.38,0,0,0,1.5.37c.61,0,.94-.26.94-.65s-.28-.58-1-.83c-1-.35-1.64-.89-1.64-1.76s.85-1.79,2.25-1.79a3.48,3.48,0,0,1,1.52.3l-.3,1.08a2.72,2.72,0,0,0-1.24-.28c-.58,0-.86.27-.86.57s.32.55,1.1.84c1,.39,1.54.93,1.54,1.77,0,1-.76,1.85-2.39,1.85a3.83,3.83,0,0,1-1.69-.36Z" transform="translate(-193.56 -288.88)"/><path class="cls-1" d="M216.42,290.11h-1.61V289h4.57v1.13h-1.63v4.82h-1.34Z" transform="translate(-193.56 -288.88)"/><path class="cls-1" d="M614.18,295l-1.42-6h1.44l.46,2.45c.13.71.25,1.48.35,2.08h0c.09-.64.24-1.36.39-2.1l.5-2.43h1.43l.48,2.51c.13.7.23,1.34.32,2h0c.08-.66.21-1.36.34-2.08L619,289h1.37l-1.53,6h-1.46l-.5-2.56c-.12-.6-.22-1.16-.29-1.84h0c-.1.67-.2,1.24-.34,1.84l-.56,2.56Z" transform="translate(-193.56 -288.88)"/><path class="cls-1" d="M626.23,291.9A2.84,2.84,0,0,1,623.3,295a2.77,2.77,0,0,1-2.8-3,2.89,2.89,0,0,1,2.9-3.12A2.77,2.77,0,0,1,626.23,291.9Zm-4.31.08c0,1.18.55,2,1.46,2s1.43-.87,1.42-2-.5-2-1.43-2S621.92,290.82,621.92,292Z" transform="translate(-193.56 -288.88)"/><path class="cls-1" d="M626.89,289.07a10.65,10.65,0,0,1,1.8-.13,3.06,3.06,0,0,1,1.92.46,1.52,1.52,0,0,1,.56,1.26,1.59,1.59,0,0,1-1,1.46v0a1.51,1.51,0,0,1,.8,1.11c.18.67.36,1.45.47,1.68H630a7.65,7.65,0,0,1-.41-1.38c-.17-.75-.43-.95-1-.95h-.4v2.34H626.9Zm1.34,2.55h.53c.67,0,1.07-.33,1.07-.86s-.37-.82-1-.82a2.9,2.9,0,0,0-.61.05Z" transform="translate(-193.56 -288.88)"/><path class="cls-1" d="M632,293.54a3.38,3.38,0,0,0,1.5.37c.61,0,.94-.26.94-.65s-.28-.58-1-.82c-1-.36-1.64-.9-1.64-1.77s.85-1.78,2.25-1.79a3.48,3.48,0,0,1,1.52.3l-.3,1.08A2.72,2.72,0,0,0,634,290c-.58,0-.86.27-.86.58s.32.54,1.1.83c1,.39,1.54.94,1.54,1.77,0,1-.76,1.85-2.39,1.86a4,4,0,0,1-1.69-.37Z" transform="translate(-193.56 -288.88)"/><path class="cls-1" d="M637.63,290.1H636V289h4.57v1.13H639v4.83h-1.34Z" transform="translate(-193.56 -288.88)"/><rect class="cls-2" x="6.51" y="9.5" width="439.99" height="8.25"/><rect class="cls-3" x="92.62" y="8.87" width="2.5" height="10.53"/><rect class="cls-3" x="87.17" y="8.87" width="2.5" height="10.53"/><rect class="cls-3" x="81.72" y="8.87" width="2.5" height="10.53"/><rect class="cls-3" x="98.07" y="8.87" width="2.49" height="10.53"/><rect class="cls-3" x="114.43" y="8.87" width="2.49" height="10.53"/><rect class="cls-3" x="103.52" y="8.87" width="2.49" height="10.53"/><rect class="cls-3" x="65.37" y="8.87" width="2.5" height="10.53"/><rect class="cls-3" x="59.92" y="8.87" width="2.5" height="10.53"/><rect class="cls-3" x="54.47" y="8.87" width="2.5" height="10.53"/><rect class="cls-3" x="70.83" y="8.87" width="2.49" height="10.53"/><rect class="cls-3" x="76.28" y="8.87" width="2.49" height="10.53"/><rect class="cls-3" x="38.12" y="8.87" width="2.5" height="10.53"/><rect class="cls-3" x="32.67" y="8.87" width="2.5" height="10.53"/><rect class="cls-3" x="21.77" y="8.87" width="2.5" height="10.53"/><rect class="cls-3" x="27.22" y="8.87" width="2.5" height="10.53"/><rect class="cls-3" x="16.32" y="8.87" width="2.5" height="10.53"/><rect class="cls-3" x="5.69" y="8.87" width="2.5" height="10.53"/><rect class="cls-3" x="10.87" y="8.87" width="2.5" height="10.53"/><rect class="cls-3" x="43.58" y="8.87" width="2.49" height="10.53"/><rect class="cls-3" x="49.03" y="8.87" width="2.49" height="10.53"/><rect class="cls-3" x="108.98" y="8.87" width="2.49" height="10.53"/><rect class="cls-3" x="119.87" y="8.87" width="2.49" height="10.53"/><rect class="cls-3" x="125.33" y="8.87" width="2.49" height="10.53"/><rect class="cls-3" x="130.77" y="8.87" width="2.49" height="10.53"/><rect class="cls-3" x="147.12" y="8.87" width="2.49" height="10.53"/><rect class="cls-3" x="136.23" y="8.87" width="2.49" height="10.53"/><rect class="cls-3" x="141.67" y="8.87" width="2.49" height="10.53"/><rect class="cls-3" x="152.57" y="8.87" width="2.49" height="10.53"/><rect class="cls-3" x="158.02" y="8.87" width="2.49" height="10.53"/><rect class="cls-3" x="163.48" y="8.87" width="2.49" height="10.53"/><rect class="cls-3" x="179.82" y="8.87" width="2.49" height="10.53"/><rect class="cls-3" x="168.93" y="8.87" width="2.49" height="10.53"/><rect class="cls-3" x="174.37" y="8.87" width="2.49" height="10.53"/><rect class="cls-3" x="185.28" y="8.87" width="2.49" height="10.53"/><rect class="cls-3" x="190.72" y="8.87" width="2.49" height="10.53"/><rect class="cls-3" x="196.17" y="8.87" width="2.49" height="10.53"/><rect class="cls-3" x="212.52" y="8.87" width="2.49" height="10.53"/><rect class="cls-3" x="201.62" y="8.87" width="2.49" height="10.53"/><rect class="cls-3" x="207.07" y="8.87" width="2.49" height="10.53"/><rect class="cls-3" x="299.72" y="8.87" width="2.5" height="10.53"/><rect class="cls-3" x="294.27" y="8.87" width="2.5" height="10.53"/><rect class="cls-3" x="288.82" y="8.87" width="2.5" height="10.53"/><rect class="cls-3" x="305.17" y="8.87" width="2.49" height="10.53"/><rect class="cls-3" x="321.52" y="8.87" width="2.49" height="10.53"/><rect class="cls-3" x="310.62" y="8.87" width="2.49" height="10.53"/><rect class="cls-3" x="272.47" y="8.87" width="2.5" height="10.53"/><rect class="cls-3" x="267.02" y="8.87" width="2.5" height="10.53"/><rect class="cls-3" x="261.57" y="8.87" width="2.5" height="10.53"/><rect class="cls-3" x="277.92" y="8.87" width="2.49" height="10.53"/><rect class="cls-3" x="283.37" y="8.87" width="2.49" height="10.53"/><rect class="cls-3" x="245.22" y="8.87" width="2.5" height="10.53"/><rect class="cls-3" x="239.77" y="8.87" width="2.5" height="10.53"/><rect class="cls-3" x="228.87" y="8.87" width="2.5" height="10.53"/><rect class="cls-3" x="234.32" y="8.87" width="2.5" height="10.53"/><rect class="cls-3" x="223.42" y="8.87" width="2.5" height="10.53"/><rect class="cls-3" x="217.97" y="8.87" width="2.5" height="10.53"/><rect class="cls-3" x="250.67" y="8.87" width="2.49" height="10.53"/><rect class="cls-3" x="256.12" y="8.87" width="2.49" height="10.53"/><rect class="cls-3" x="316.07" y="8.87" width="2.49" height="10.53"/><rect class="cls-3" x="326.97" y="8.87" width="2.49" height="10.53"/><rect class="cls-3" x="332.42" y="8.87" width="2.49" height="10.53"/><rect class="cls-3" x="337.87" y="8.87" width="2.49" height="10.53"/><rect class="cls-3" x="354.22" y="8.87" width="2.49" height="10.53"/><rect class="cls-3" x="343.32" y="8.87" width="2.49" height="10.53"/><rect class="cls-3" x="348.77" y="8.87" width="2.49" height="10.53"/><rect class="cls-3" x="359.67" y="8.87" width="2.49" height="10.53"/><rect class="cls-3" x="365.12" y="8.87" width="2.49" height="10.53"/><rect class="cls-3" x="370.57" y="8.87" width="2.49" height="10.53"/><rect class="cls-3" x="386.92" y="8.87" width="2.49" height="10.53"/><rect class="cls-3" x="376.02" y="8.87" width="2.49" height="10.53"/><rect class="cls-3" x="381.47" y="8.87" width="2.49" height="10.53"/><rect class="cls-3" x="392.37" y="8.87" width="2.49" height="10.53"/><rect class="cls-3" x="397.82" y="8.87" width="2.49" height="10.53"/><rect class="cls-3" x="403.27" y="8.87" width="2.49" height="10.53"/><rect class="cls-3" x="419.62" y="8.87" width="2.49" height="10.53"/><rect class="cls-3" x="408.72" y="8.87" width="2.49" height="10.53"/><rect class="cls-3" x="414.17" y="8.87" width="2.49" height="10.53"/><rect class="cls-3" x="425.07" y="8.87" width="2.49" height="10.53"/><rect class="cls-3" x="430.52" y="8.87" width="2.49" height="10.53"/><rect class="cls-3" x="435.97" y="8.87" width="2.49" height="10.53"/><rect class="cls-3" x="441.42" y="8.87" width="2.49" height="10.53"/><polygon class="cls-4" points="448.91 8.44 453.95 13.67 448.91 18.91 448.91 8.44"/><polygon class="cls-5" points="5.61 8.03 0 13.46 5.61 18.89 5.61 8.03"/></svg>