<svg id="Layer_1" data-name="Layer 1" xmlns="http://www.w3.org/2000/svg" viewBox="0 0 60.43 70.64"><defs><style>.cls-1{fill:#bfbfbf;}.cls-2{fill:#b4b0b0;}.cls-13,.cls-3,.cls-4,.cls-7{fill:none;}.cls-3,.cls-4,.cls-7{stroke:#b4b0b0;}.cls-3,.cls-4,.cls-5,.cls-7{stroke-miterlimit:10;}.cls-3{stroke-width:2.21px;}.cls-4{stroke-width:3.53px;}.cls-5{fill:#999;stroke:#999;}.cls-6{fill:#b3b3b3;}.cls-7{stroke-width:2.65px;}.cls-11,.cls-8{fill:#12100b;}.cls-12,.cls-9{fill:gray;}.cls-10,.cls-11,.cls-9{fill-rule:evenodd;}.cls-10{fill:#fff;}.cls-13{stroke:#1d1d1b;}.cls-14{fill:#f2f2f2;}</style></defs><rect class="cls-1" x="0.28" y="60.24" width="60.01" height="10.4"/><path class="cls-2" d="M390.38,283.88s2,8.8,2.86,11.8l28.6-5.3s-.39-6.62-1.42-7Z" transform="translate(-388.12 -261.16)"/><line class="cls-2" x1="3.62" y1="24.2" x2="32.3" y2="23.43"/><line class="cls-2" x1="4.2" y1="26.13" x2="32.63" y2="24.52"/><line class="cls-2" x1="3.49" y1="24.2" x2="32.24" y2="23.37"/><line class="cls-2" x1="4.97" y1="28.06" x2="32.88" y2="25.68"/><line class="cls-2" x1="5.48" y1="29.93" x2="33.01" y2="26.84"/><line class="cls-2" x1="5.67" y1="31.86" x2="33.08" y2="28.25"/><path class="cls-2" d="M421.65,292.12l-27.82,6.31s3.24,2.57,5.82,2.76c0,0,.83.45.64,1.09l30.17-7.91s.06-.39-.52-.71c0,0-8.23-.7-8.29-1.54" transform="translate(-388.12 -261.16)"/><path class="cls-3" d="M426.86,294.89c3.1-.77,4.29-1.57,2.77,7.52" transform="translate(-388.12 -261.16)"/><path class="cls-4" d="M399.9,301s4.26,1.08,2,13.18" transform="translate(-388.12 -261.16)"/><path class="cls-5" d="M390.51,284.21s4.89,18,4,24.38" transform="translate(-388.12 -261.16)"/><path class="cls-2" d="M420.42,283.37s2.64,11.58,1.23,16.34" transform="translate(-388.12 -261.16)"/><path class="cls-2" d="M413.73,283.56s2.38,14.61,1.16,18.34" transform="translate(-388.12 -261.16)"/><path class="cls-2" d="M403.7,283.69s3.73,15.7,2.44,21.1" transform="translate(-388.12 -261.16)"/><path class="cls-6" d="M395.53,308.54c0,.28-.42.51-.93.51s-.93-.23-.93-.51.41-.52.93-.52.93.23.93.52" transform="translate(-388.12 -261.16)"/><path class="cls-2" d="M406.85,304.52c0,.17-.3.32-.68.32s-.67-.15-.67-.32.3-.31.67-.31.68.14.68.31" transform="translate(-388.12 -261.16)"/><path class="cls-2" d="M415,309.13c0,.25-.44.45-1,.45s-1-.2-1-.45.43-.46,1-.46,1,.2,1,.46" transform="translate(-388.12 -261.16)"/><path class="cls-2" d="M424,304.79c0,.25-.45.45-1,.45s-1-.19-1-.45.44-.45,1-.45,1,.2,1,.45" transform="translate(-388.12 -261.16)"/><path class="cls-2" d="M430.58,302.24c0,.2-.36.36-.82.36s-.82-.16-.82-.36.37-.35.82-.35.82.16.82.35" transform="translate(-388.12 -261.16)"/><path class="cls-2" d="M403,314.52c0,.34-.52.62-1.17.62s-1.17-.28-1.17-.62.52-.63,1.17-.63,1.17.28,1.17.63" transform="translate(-388.12 -261.16)"/><path class="cls-2" d="M422,299.71c0,.14-.17.26-.38.26s-.39-.12-.39-.26.17-.26.39-.26.38.12.38.26" transform="translate(-388.12 -261.16)"/><path class="cls-2" d="M415.34,301.9c0,.14-.17.26-.39.26s-.38-.12-.38-.26.17-.26.38-.26.39.11.39.26" transform="translate(-388.12 -261.16)"/><path class="cls-7" d="M421.45,296.35s2.83,0,1.42,8.31" transform="translate(-388.12 -261.16)"/><path class="cls-7" d="M411.47,299s3.72-1.43,2.55,10" transform="translate(-388.12 -261.16)"/><path class="cls-8" d="M393.86,287.68a80.63,80.63,0,0,0,2.52,9.65c0,.1.24.08.49,0a4,4,0,0,0,.81,1.55c.54.55,2.24.79,4.57.64,1.78-.12,4.06-.36,5.09-.4s1.22.31,1.22.31l-.19,8.91a.64.64,0,0,0-.13.19,2.71,2.71,0,0,0-.42,1.75c.11.74,1.35.7,2.43,1,1.29.4,5.78,1,6.25.08a2.56,2.56,0,0,0,.16-.4c.42,0,.9,0,1.36.09,1.33.19,5.86.1,6.18-.89.12-.37.24-.78-.26-.78s-1.57-.42-2.17-.45c-.39,0-.86-.57-1.3-1.15l.16,0-4.53-9.41a29.64,29.64,0,0,0-1.4-3.41c-.48-.79-.37-.8-2.31-1.21a46.1,46.1,0,0,0-7.59-1.06,3.11,3.11,0,0,1-.32-.42c-.15-.31-.73-1.32-.73-1.32s1.95.15,2.17-.39a2.59,2.59,0,0,0-.07-2.27c-.46-.85-2.63-2.28-3.4-3.28a20,20,0,0,0-2.15-2.7,2.41,2.41,0,0,0-.66-.31,2.74,2.74,0,0,1-2.76.33,3.85,3.85,0,0,1-1.09-1l-.19.2a20.17,20.17,0,0,0-1.18,1.64A9.07,9.07,0,0,0,393.86,287.68Zm18.78,14.55,2.83,6.83a2.59,2.59,0,0,0-.06,1.19,7,7,0,0,0-1.12-.42c-.39-.08-.77-.7-1.12-1.35Z" transform="translate(-388.12 -261.16)"/><path class="cls-8" d="M401,279.88c-.84,1.8-2.65,2.71-4,2s-1.81-2.69-1-4.49,2.64-2.71,4-2,1.82,2.69,1,4.49" transform="translate(-388.12 -261.16)"/><path class="cls-9" d="M428.75,313.83c.12-.39.31-.4.31-.71.32-.08.41-.4.81-.41a5.51,5.51,0,0,1,2.25-1.63,12.71,12.71,0,0,0,1.93-2.14c.3,0,.32-.23.61-.2a.56.56,0,0,0,.41.1c.14.14.1.36.2.51s.45.15.41.41c-.24,0-.3-.18-.61-.1,0,.1-.12.08-.2.1a2,2,0,0,0-.31,1.83c0,1.46-1.06,1.8-1.73,2.55-.11.73.33.89.82,1-.21,0-.32,0-.31.2-.32.05-.27-.27-.51-.3,0,.12-.29.35-.31.1.16-.06,0-.11-.1-.1,0-.17.28-.06.31-.21a5.12,5.12,0,0,0-.41-.81c-.69-.18-.75.76-.41,1-.34.09.12.2.1.3-.51.11-.28-.47-.71-.2.11-.24.35-.33.31-.72-.28-1-1.34-.8-2.24-.61,0-.05-.09-.11-.11,0h-.2C429,313.65,428.88,313.82,428.75,313.83Zm6-4.48c0-.1-.12-.08-.2-.1S434.69,309.33,434.76,309.35Z" transform="translate(-388.12 -261.16)"/><path class="cls-9" d="M429.71,317.6h-.2c0-.12-.1-.06-.1,0-.9-.19-2-.43-2.24.61-.05.39.2.48.3.71-.43-.27-.19.31-.71.21,0-.11.44-.21.1-.31.34-.25.29-1.19-.41-1a6.92,6.92,0,0,0-.4.82c0,.15.3,0,.3.2-.11,0-.26.05-.1.1,0,.25-.34,0-.31-.1-.23,0-.18.36-.5.31,0-.19-.11-.24-.31-.21.48-.12.93-.29.81-1-.67-.76-1.76-1.1-1.73-2.55a2,2,0,0,0-.3-1.84c-.08,0-.2,0-.2-.1-.32-.07-.38.11-.62.1,0-.26.31-.26.41-.4s.06-.37.21-.51a.55.55,0,0,0,.4-.1c.3,0,.32.23.61.2a12.35,12.35,0,0,0,1.94,2.14,5.38,5.38,0,0,1,2.24,1.63c.4,0,.49.32.81.41,0,.31.2.32.31.71C429.9,317.59,429.79,317.42,429.71,317.6Zm-5.5-4.58c-.08,0-.2,0-.2.1S424.21,313.11,424.21,313Z" transform="translate(-388.12 -261.16)"/><path class="cls-10" d="M433.17,304.91c0-.1-.13-.08-.21-.1S433.09,304.89,433.17,304.91Z" transform="translate(-388.12 -261.16)"/><path class="cls-10" d="M427.77,309.39c0-.06-.09-.12-.1,0Z" transform="translate(-388.12 -261.16)"/><path class="cls-11" d="M427.77,309.39h-.1C427.66,309.44,427.75,309.5,427.77,309.39Z" transform="translate(-388.12 -261.16)"/><path class="cls-11" d="M427.46,309.39c-.12,0-.06.15,0,0Z" transform="translate(-388.12 -261.16)"/><path class="cls-10" d="M430.31,310.61h.51c0-.17.29-.05.31-.2a5.7,5.7,0,0,0-.41-.82C430,309.42,430,310.36,430.31,310.61Z" transform="translate(-388.12 -261.16)"/><path class="cls-11" d="M430.82,310.61h-.51C430.27,310.78,430.87,310.78,430.82,310.61Z" transform="translate(-388.12 -261.16)"/><path class="cls-11" d="M429.7,310.72c-.12,0-.06.14,0,0Z" transform="translate(-388.12 -261.16)"/><path class="cls-9" d="M433,307.26c-.29.07-.32-.12-.58-.08s-.63-.1-.17-.08c.21,0,.26-.13.42-.17s.4,0,.41-.16.08-.09.08-.17c-.17-.05,0-.42-.33-.33-.14-.07-.14-.3-.33-.33h-.16a7.75,7.75,0,0,1-1.08-1.33c0-.43,0-.78-.33-.9s-.17.1-.33.08c.08-.31.34-.44.41-.75a3.48,3.48,0,0,1,1,.09c.13.16.22.38.49.41h.66c0,.1.15.07.25.08.56.57,1.62.65,2.23,1.16.23,0,.43.12.66.17h.59c.05.18.47,0,.41.33-.35,0,0,.05,0,.16-.17.05-.55-.1-.58.08.31.1.74.09.91.33a7.48,7.48,0,0,1-2.15-.08c-.34.09-.47.2-.83.08a1.12,1.12,0,0,1-.83.42c0,.32-.3.31-.24.66.1,0,.6,0,.33.08s-.6-.1-.66.09A.21.21,0,0,0,433,307.26Zm-1.74-3.8s-.06-.11-.08-.08S431.27,303.48,431.29,303.46Zm2.23,3.06c-.06,0-.09.07-.08.16-.25,0,.08.35,0,0,.06,0,.1-.07.08-.16C433.77,306.5,433.44,306.18,433.52,306.52Z" transform="translate(-388.12 -261.16)"/><path class="cls-9" d="M409.07,319.59c.27-.26.54.06.92,0-.59-.4.37-.76.1-1.12a1,1,0,0,0,1-.21c.25,0,.31.19.51,0a13.56,13.56,0,0,0,1.52.52c.46.15,1,.62,1.53.4a2.49,2.49,0,0,0-1-.61c.14-.26.46.15.72.1.26-.45-.32-.52-.62-.71a3.69,3.69,0,0,1-1-.51c-.28-.37-.76-.54-.92-1-.62-.16-.9-.66-1.43-.92a14.21,14.21,0,0,0-1.73-.71h-.41c-.79.33-1.92.32-2.34,1,.15.45.09.51.21.92a2.2,2.2,0,0,1,.5-.51,3.73,3.73,0,0,1,1.23.61c0,.62.36.79.51,1.22a2.25,2.25,0,0,1,1.22.61c-.13.58-.41.59-1,.51.53.22.06.22-.41.2C408.36,319.76,408.79,319.29,409.07,319.59Z" transform="translate(-388.12 -261.16)"/><path class="cls-10" d="M439.08,313.57c.05-.05-.08-.13-.11-.11S439.05,313.6,439.08,313.57Z" transform="translate(-388.12 -261.16)"/><path class="cls-10" d="M441.83,317.33c.3,0-.1-.42,0,0Z" transform="translate(-388.12 -261.16)"/><path class="cls-10" d="M441.83,317.33c-.08,0-.12.09-.11.21S441.84,317.45,441.83,317.33Z" transform="translate(-388.12 -261.16)"/><path class="cls-10" d="M441.72,317.54c-.3,0,.1.42,0,0Z" transform="translate(-388.12 -261.16)"/><path class="cls-11" d="M430.31,318c-.12,0-.06.15,0,0Z" transform="translate(-388.12 -261.16)"/><path class="cls-11" d="M441.52,318.05c.12.31.54-.11,0,0Z" transform="translate(-388.12 -261.16)"/><path class="cls-12" d="M430.59,268c.1.3.29.51.4.8.35,0,.45-.34.4-.8C430.84,268.06,431,267.71,430.59,268Zm1.4-3a.92.92,0,0,1-.6.2c0,1.42-.27,0-1.2.6C430.55,266.67,432.44,266.28,432,265Zm-2.6,3.8c.24.27.82.21,1.34.2-.12-.58-.18-1.27-.74-1.6A1.15,1.15,0,0,1,429.39,268.84Zm4-2.4c-.53-.58-1.47.12-1.2,1C432.5,267,433.17,267,433.39,266.44Zm5.4-2.6c.12,1.39,1.72.5,2-.2C440.07,262.94,439.69,264.61,438.79,263.84Zm.8,0c0-.68-.46-.87-.8-1.2C438.37,262.94,439,263.88,439.59,263.84Zm-1.8,1.6c-.64,0-.44.89-.8,1.2.53.08.69.32,1.4.6C438.2,266.26,437.36,266.7,437.79,265.44Zm-9-.4c-.65-.18-.42.52-.81.6C428.14,266.39,428.93,265.75,428.79,265Zm6.4-1.2c.06-.53-.28-.66-.8-.6C434.33,263.77,434.67,263.89,435.19,263.84Zm-8.4,13.21c-.76.16-.31,1.32.4,1.2A4.57,4.57,0,0,0,426.79,277.05Zm-3.61-6.81a.77.77,0,0,0-1.4-.2C422.12,270.64,422.51,270.27,423.18,270.24Zm3,8.61c0,.73.58.88,1.4.8-.27-.42.09-.59-.2-1.2a.2.2,0,0,0,0,.4C427.36,279.23,426.72,278.61,426.19,278.85Zm-3.61-6.4c-.64-.18-.62.31-1,.4C421.74,273.31,422.82,273,422.58,272.45Zm2.41,8.8c1.91.59,2.66-.23,0,0Zm-1.21-10.81c.07-.47.32-.75.2-1.4C423.1,268.91,422.87,270.41,423.78,270.44Zm1.4-1.4c.38,0,.14.67.6.6,0,.24-.36.17-.6.2-.14.7.71.72,1,.4-.4-.74-.62-.75-.41-1.8-.78.63-.85-.17-1.6.2C424.23,269,424.93,269.6,425.18,269Zm3.21-2.4a.76.76,0,0,0,.8-.8c-.39.08-.86.07-.8.6-.36-.18-.26-.81-1-.6C427.53,266.3,428,266.44,428.39,266.64Zm-2.81,4.61a.76.76,0,0,0,.8-.81C425.92,270.51,425.45,270.57,425.58,271.25Zm19.62-5.41c0,.51.74.47,1,.2C446.18,265.53,445.45,265.57,445.2,265.84Zm2.2,10.81c0-.26.37-.54.42-.24V276a1,1,0,0,0-.22-.3C447.93,276.27,446.85,276.47,447.4,276.65Zm-7.41-12c-.75.51.43.76,1,.6-.62-.53.53-.76,0-1.2C440.48,264.12,440.46,265.7,440,264.64Zm7,12.61a.74.74,0,0,0,.82.11v-.84s0,.07,0,.13C447.74,277.06,446.91,276.7,447,277.25Zm.82-8.32v-.26l-.42-.23C447.43,268.71,447.65,268.8,447.82,268.93Zm-.42,1.51c-.13.47.19.48.42.58v-.6C447.62,270.35,447.36,270.14,447.4,270.44Zm-1,6.81c.09-.18.17-.36.4-.4.48-.44-.49,0-.6.2a1,1,0,0,0,1.2.8.9.9,0,0,0,.42,1.38v-.4C447.55,278.1,447.45,277.19,446.4,277.25Zm.6,2.6c.36-.77-.28-1.35-.6-1.8A2.57,2.57,0,0,0,447,279.85Zm0-7.4a1.7,1.7,0,0,0,.82.5v-.6A1,1,0,0,0,447,272.45Zm-.8,3.2c.21.24.6.14,1.2,0-.27-.47-.9-.58-1.4-.8C445.73,275.35,446.79,275.47,446.2,275.65Zm1.4-1.6.22-.12v-.57A.71.71,0,0,0,447.6,274.05Zm-.8-.6c-.53.29.08,1.09.6,1C447.61,273.7,447,273.8,446.8,273.45Zm-7.61-7c.16.05,1.36.49,1.4-.4h-1.2C439.42,266.27,439.35,266.4,439.19,266.44Zm2,1.8c-.36-.3-.61-.72-1.4-.6C439.71,268.39,440.71,268.68,441.19,268.24Zm2.61,1a3,3,0,0,0,1.4,0C445.25,268.45,443.74,268.45,443.8,269.24Zm-.2-3.4c-.38-.38,0-.5,0-1-.88.25-.89.06-1.6-.2-.16.69.22.84.4,1.2C443.3,265.11,442.36,266,443.6,265.84Zm3.6-1.2a1.47,1.47,0,0,0,.62,1V265A1.5,1.5,0,0,1,447.2,264.64Zm-.8.4c-.14-.4-1.15-.64-1.2,0-.41-.26-.37-1-1.2-.8C443.69,265.64,445.81,265.74,446.4,265Zm-22.62,15.41c.46-.17.55-1.23.2-1.6-.82,0-.42,1.26-.6,1.4C423.45,280.56,423.74,280.08,423.78,280.45ZM436.59,268c.23.54,1.06,0,.8-.6C436.75,267.27,437,268,436.59,268Zm-2.6,9c-.71,0-.81.66-.8,1.4C433.44,278,434.07,277.86,434,277.05Zm-6.4-5.61c-.57,0-.86.35-.8,1C427.35,272.41,427.64,272.1,427.59,271.44Zm5.6,9c-.45-.11-.28.38-.6.4.37.89,1.05.93.2,1.6.65-.11.93.14,1.4.2.36-.15-.12-.21-.4-.2-.11-.71.71-.49.6-1.2-.52-.06-.86.08-.8.6C432.81,281.59,433.55,281,433.19,280.45Zm-3.8-7.81c-.48.18.43.62.8.6-.34-.26-.07-1.13-.4-1.39C429.15,271.9,429.7,273.22,429.39,272.64Zm3.4-1.8c-.11-.58-.31.31-.6.2-.06.47.58.23.6.6C433.63,271.4,432.19,270.85,432.79,270.84Zm-.8,6.41c0,.8.51.53,1,.4C433,277.21,432.48,277.22,432,277.25Zm-.6,4c.11.66.75.29,1.2.2C432.39,280.79,431.78,280.77,431.39,281.25Zm-1.2-3.8c.12.82.55.4,1.2.4C431.37,277.34,430.72,277.45,430.19,277.45Zm1.2.6c.61.93-.72.27-.6,1.2.61,0,.9-.7,1.4-.2.07-.21-.21-.58-.2-1.2A.92.92,0,0,1,431.39,278.05Zm-1.8,1.2c.38.38.88-.13.8-.8A.75.75,0,0,0,429.59,279.25Zm13-10.41c0,.68.46.87.8,1.2C443.94,269.61,443.36,268.63,442.6,268.84Zm-4.21,4.21c.49-.12,1-.17,1-.81C438.81,272.26,438.26,272.32,438.39,273.05Zm7.41-3.41c0,.61,1.42.58,1.2-.2A.91.91,0,0,0,445.8,269.64Zm-8,.4c.2.6.21,1.4,1.2,1.21-.17-.3-.16-.78-.8-.61.09-.17.18-.36.4-.4-.17-.29-.3-.63-.8-.6,0,.2.25.16.4.2C438.19,270,438,270,437.79,270Zm-3.6,1.21c0-.76-1-.59-.8-1.61C432.43,270.1,433.36,271.34,434.19,271.25Zm2.2,2.4c.58.05.69-.38,1-.6C437.1,272.51,436.29,273.13,436.39,273.65Zm1.4,2c-.35.37-1,.5-1.2,1C437.47,276.79,437.63,276.22,437.79,275.65Zm-.4-5.81c-.61.39-.4,1-1.4.6,0,.54.73.38.8.87a1.17,1.17,0,0,1,.2-.06C436.66,270.44,438.05,270.32,437.39,269.84Zm-1.8,0c-.12.46,1.38.73,1.2,0A1.48,1.48,0,0,0,435.59,269.84Zm-11.41,6.21c-.72.14-.28.94,0,1.2C424.63,277.17,424.34,276.19,424.18,276.05Zm-2.2,4.6c.69.16.85-.22,1.2-.4C423,279.49,421.86,280,422,280.65Zm.4-7.2c.59.23.74-1,1-.4.51,0,.47-.75.2-1C423.24,272.57,422.69,272.89,422.38,273.45Zm0,8c-.67.27-1,.91-1.4,1.4,1,.15,1-.73,1.6,0-.05.42-.88.06-1,.4.12.64-.37.62,0,1C422.77,283.9,422.88,282.62,422.38,281.45Zm-.6,3.6c.24.42,1.23-.09,1-.8C422.09,284.16,422.08,284.76,421.78,285.05Zm6.81-8.2c-.33-.06-.35.19-.61.2.36.95-.11.89-.19,1.8C428.88,278.57,428.31,277.88,428.59,276.85Zm-3.81,5.4c.1-.63-.28-.78-.4-1.2C423.57,281,424,282.6,424.78,282.25Zm.4-2.4a.9.9,0,0,1-.6.2c.07.24,0,1.24-.2.6-.58.11.31.31.2.6.23,0,.12-.2,0-.2C424.87,280.74,425.39,280.66,425.18,279.85Zm0-2.8c.52-.15.7-.64.6-1.4C425.1,275.63,425.19,276.39,425.18,277.05Zm-.8-1.6c.75.21.32-.75,1-.6C425.12,274.34,424.08,274.72,424.38,275.45Zm-.8-1.8c.09.48-.36.43-.2,1,.5-.11.72-.49,1-.8C424.32,273.57,423.88,273.68,423.58,273.65Zm7.41,11.6c-.72-.19-.36.87-.2,1C431.25,286,431.09,285.77,431,285.25Zm15.21-17c-.25-.85.66-.53.8-1-1,0-1.24.77-1.2,1.8-.66,1.62-2.92.71-3.4,2.21.59.17,1-.86,1.2-.41-1.05.63-1.45,1.89-2.21,2.81a11.4,11.4,0,0,1-.4-4.21c.66,0,1.3.47,1.41-.4-.53-.23-1.18.39-1.21,0,1.23-.7,3-.87,3.81-2a.9.9,0,0,1-.6-.2c-.36.31-1,.34-.8,1.2-.54-.11-1.25.59-1.6,0,.73-.54,1.87-.66,2.2-1.6-2.29.1-3,2.68-4.81,3.8-.22-1.68-4.61-1.37-2.6-3.4-.46.14-.53.67-1,.8-.1-.31-.77-1.07-.2-1.4,0,.25.06.48.4.4-.78-.36.19-1.25-.4-1.8.15.92-1.24.45-1.4.6a.52.52,0,0,0-.2-1c-.28.45.51.75,0,.8.09-.56-1.09.16-1-.4.22,0,.48-.33.2-.4q-.66-.06-.6.6a3.46,3.46,0,0,0,3,.8c-1.13,1.91,1.41,3.32,3,3.8,1.11,2.17,2.46,4.08,2.4,7.41-1-.24-1.24-1.29-1.6-2.2.5,0,1,0,1-.4-.41-.43-.8.05-1.21.2,0-.24,0-.57-.2-.6-.17.59.63,1.21.2,1.4-.23-.3-.24-.82-.6-1a1,1,0,0,0,.2.6c-.71.05-.73-.6-1.4-.6.19-.88.95-1.44.2-2.21a.75.75,0,0,0,.8-.8c-1.56.42-.38,3-2.2,3.41.42.44.59-.26,1.2-.2.81,1.12,2.36,1.51,2.8,3-.58-.49-1.57.43-1.2.8.38-.08.86-.07.8-.6,1.43.25,2.2,2.2,2.21,3.2-1.5-1-3.25-1.82-4.41-3.2.64.08,1.14-.85.4-1,.25.65-.65.15-.4.8-1.72-.84-3.1-5.13-1-6.24-.35,0-.38.3-.79.23a2.33,2.33,0,0,0-1.6-2c-.24-.72.4-1.58,0-1.8-.14.53-.65.69-.8,1.2a3.73,3.73,0,0,1-.4-1.4,1.61,1.61,0,0,0-1.2.8,1.08,1.08,0,0,0,.8-.2c.51,1.36,2.13,1.61,2.6,3a7.26,7.26,0,0,0-.2,3c-.63-.77-2.2-.61-3-1.2a1.26,1.26,0,0,1,.2-1c-.33-.67-1.58-.43-1.6-1.41.08-.45,1.1,0,1-.6-.55,0-.72-.37-.83-.82-.11.69-.58,1-.57,1.82-1.73-.67-.77-2.78-.8-4-.84.13-.27.91-.6,1.2a11.82,11.82,0,0,0-.61-1.4c.13,1-1-.74-1.2.4,1,.16,1.87.4,1.81,1.6-.14.68-.67-.88-.81-.2.67.67.57,1.21,1,1.8a7.37,7.37,0,0,0-2.39-.4c.17-.53-.49-1.21-.61-.8.24.91,1.07,1.21,1.41,2v-1a6.61,6.61,0,0,1,1.37.61c-.67.16-1.09.56-.78,1.2.64,0,.88-.45.81-1.18,1.63,1,3,2.63,2.6,4.18.58-.08.16-1.18.6-1.4,1.13.74,3,.77,3.2,2.4-1.32-.42-3.4-.07-4.4-.8a1.81,1.81,0,0,0-.4-2c.09.46.61,1.5.2,1.81-.35-1.79-1.91-1.48-3.61-1.6.64.56-1.21.48-1.6,0,.36-.12,1.18.24,1.21-.21H425c-.74-.6-.57-2.1-1.41-2.6.65.63-.52.15-.6.61,1.08.35,1.75,1.84,2,2.4.63.36,1.64.35,2.2.8.11.41-.25,1.31.2,1.4.31-.36.05-1.28.59-1.4-.31,0-.69,0-.59-.4.16-.17,1.56-.55,1.4.2.06.62-.58-.51-.61.2.4-.06.4.27.61.4.61.15.38-.55,1-.4.7.67,0,1.58.2,2,.88-.91,4.11-.11,4.8.6.08-.35-.3-.51,0-.6,1.14,1.33,2.37,2.57,3.4,4-.52-.05-.86.07-.8.6.86.26.79-.41,1-.8a13.35,13.35,0,0,1,2.6,1.8l-.1,0a2.12,2.12,0,0,0-.44,0h0c-.73-.24-1.35-1.22-2.06-1,.91.09-.6.74-.6,1.2.94.21.9-.57,1.2-1a.55.55,0,0,0,.6.4c0,1.14-.34,1.23-.8,1.6a10.39,10.39,0,0,1,.4,1c-1.43-.3-1.13-2.33-2.6-2.6-.22-.51.61-.95,0-1.2a1,1,0,0,1-.4,1c-.28-1.25-1.31-1.75-1.6-3,.35-.11,1.18.24,1.2-.2-.94.14-.47-1.13-1.4-1-.15.61.55.38.4,1-.6-.2-.35.45-.4.8-.5,0-.62-.32-1-.4,1,.65-.75.94-.2,1.6.47-.29.37-.42,1-.2-.26-.27-.26-.74.2-.8,0,.24.06.47.4.4.06.39-.27.4-.4.6h.8c0,2,2.39,1.61,2.4,3.6a6,6,0,0,1-2.17-.6c.5.05.83-.08.77-.6-.52,0-.85.07-.8.59a1.7,1.7,0,0,1-.6-.59c0,.26.26.28.2.6-2.38-.12-4.71-1.23-4.6-3.2-.53.23-1-1-1.41-1.6.21-.46.7-.65.61-1.4-.73.29-1.16,1.81-.61,2.2-.48.11-1,.17-1,.8.13-.46,2.23-.42,1.61.2-.06-.47-.89-.12-.8.2a.74.74,0,0,0,1,0c.18.55.61.86.8,1.4-1.33-.14-2.46-1.54-3-1.8-.12.94,1.73,1.07.8,1.6a10.08,10.08,0,0,1,4,1.4,8.3,8.3,0,0,1-3.41-.4c1.54,1.19,4.5.53,5.41,1.6a10,10,0,0,1-5.8-1c0-.49,0-1-.41-1,0,.24,0,.57-.2.6-.06-.82-.81-1.28.2-1.6-.77.16-1.23-1-1.59-.6.05.41.54.39.6.8a3.48,3.48,0,0,0-.81.6c.4-.31,1.78.07,1.21.6-.22-.53-1.95-.58-2.41-.2.42.12,1.32-.25,1.41.2-.33-.08-.68.75-.21.8.44-.16.45-.75,1-.8.41.39,1,.63,1.4,1-1.44.18-3.13.55-3-.8-.67.19-.1.37-.2,1-.89.2-1.67-1.07-2-.2.86,0,1,.62,2,.4.4,1-.28.55-.4,1.4.59.23.75-1,1-.4-.33-.14-.33.95,0,.8.39-.39.12-1.14,0-1.6,1.09-.23,1.17.56,1.6,1-.83.14-.58,1.36,0,1.6.61-1,.12-1.43,0-2.6,2.46-.52,2.42.41,5,.6-.62.59-2,1.48-1.8,2.2a2.72,2.72,0,0,1,1.6-1.6c0,.24,0,.57.2.6.58-.21.78-.81,1-1.4.42.12,1.31-.24,1.4.2-.69-.19.2.83.2,1.2.41-.19.43-.76.4-1.4,1.18-.1,2.59.61,2.4,1.2-.26-.61-.91.35-.4.6-.61,0-1.36-.82-1.6,0,1.55-.08-.07.71.4,1,.63.09.53-.54,1-.61,1.39,1.33,3.58,1.56,3.6,3.81,0,.39-.49.83-.6,1.2-.42,1.46-.31,3.69-1.6,4.6-1.77-.07-4.72,1.33-7.22,1.43.76.08,1.52.16,2.28.22a94.73,94.73,0,0,0,10.79,0c1,0,2,0,3,.05V297a14.69,14.69,0,0,1-2.62-.49c-2.31-3.23-1-7.67,2.62-8.12v-.53a4.86,4.86,0,0,1-2,.25,12.34,12.34,0,0,1,2-2v-1.73a4.1,4.1,0,0,1-.88.67h0a4,4,0,0,0,.88-.66v-2.47a3.53,3.53,0,0,1-2.22,1.39,28.33,28.33,0,0,1-1.2-3.4c.12-.28.77,0,.8-.4-.44-.18-.17-1.5-.8-2,.3-.57,1.23-.5,1.8-.8,0-.23-.22-.31-.4-.4s-.49.78-.6.2c.43,0,.09-.71.2-1-.38.37-.37-.12-1,0,0,.58,1.13.47.6,1-.57.17-1,1.46-.4,2.4a5.2,5.2,0,0,1-.6,1c-1.83-.38-1.81-2.59-2-4.6a1.78,1.78,0,0,1,2.2-.2c-.27-.78,1.63-2.24,2.2-1.6-.26-.5.45-1,0-1-.83-.1-.61.86-1.4.79.06-1.21,1.93-1.07,2.82-1.59v-.06c-.47.25-1.56.44-1-.15.17.48.34-1-.4-1-.28.64,0,.67,0,1.41-1.31-.05-2.27.89-1.8,2-.44,0-1.3.54-1.4.2.48-.13.1-1-.4-.81-.23.64,0,.46,0,1.21-.38-.19-.67.6-.8,0a13,13,0,0,1,2.6-3.81c.39.52-.21.92.2,1.21.39-.65.86-1.13.2-1.81,1.12-.68,1.44-2.23,2.82-2.21v-.14C447.22,267.31,446.74,268.23,446.2,268.24Zm-12,17.61c-.57-.16-.52.29-1,.2C433.21,286.65,434.38,286.59,434.19,285.85Zm-3.4,1.61a2.37,2.37,0,0,0-1.81-.21c.08.83,1.82.39.81,1.21a.83.83,0,0,1,1.2.2C431.31,288,430.14,287.8,430.79,287.46Zm-4.2,1.8c-.08.87,1.19.4,1,1.4a.88.88,0,0,0,.39-.8C427.41,289.77,427.36,289.15,426.59,289.26Zm1.39.2c-.11-.42-.41-.65-.59-1C426.88,288.72,427.26,289.76,428,289.46Zm-3.4-5.41c-.76,0-1,1.1-.6,1.6C424.73,285.67,424.56,284.76,424.58,284.05Zm-.8-1.8c.06-.53-.27-.66-.8-.6C422.92,282.18,423.26,282.31,423.78,282.25Z" transform="translate(-388.12 -261.16)"/><rect class="cls-13" x="0.5" y="0.5" width="59.42" height="59.42"/><rect class="cls-14" x="49.76" y="60.24" width="10.67" height="10.4"/><path d="M441.26,328.56a3.59,3.59,0,0,0,1.54.4c.81,0,1.21-.38,1.21-.87,0-.66-.65-1-1.33-1h-.63V326h.61c.52,0,1.17-.2,1.17-.76,0-.4-.32-.69-1-.69a2.94,2.94,0,0,0-1.37.39l-.32-1.12a4.19,4.19,0,0,1,2-.49c1.4,0,2.19.74,2.19,1.65a1.57,1.57,0,0,1-1.21,1.53v0a1.64,1.64,0,0,1,1.43,1.62c0,1.16-1,2-2.71,2a4.08,4.08,0,0,1-2-.46Z" transform="translate(-388.12 -261.16)"/></svg>