<svg id="Layer_1" data-name="Layer 1" xmlns="http://www.w3.org/2000/svg" viewBox="0 0 60.42 70.82"><defs><style>.cls-1{fill:#12100b;}.cls-2{fill:#fff;}.cls-2,.cls-3,.cls-4{fill-rule:evenodd;}.cls-3{fill:gray;}.cls-4{fill:#666;}.cls-5{fill:none;stroke:#1d1d1b;}.cls-6{fill:#bfbfbf;}.cls-7{fill:#f2f2f2;}</style></defs><path class="cls-1" d="M399.83,284.48c-.84,1.8-2.64,2.71-4,2s-1.82-2.69-1-4.49,2.65-2.71,4-2,1.81,2.7,1,4.5" transform="translate(-388.12 -261.08)"/><path class="cls-2" d="M419.65,261.08a5,5,0,0,1-3.72,2.09c.1,2.41-.08,6.14.15,8.11h4.14A54.22,54.22,0,0,1,419.65,261.08Z" transform="translate(-388.12 -261.08)"/><path class="cls-2" d="M411.93,261.08c-.24,3.39-.27,7-.71,10.2h4.14v-8.11A4,4,0,0,1,411.93,261.08Z" transform="translate(-388.12 -261.08)"/><path class="cls-3" d="M427.26,262.2c.33,5.69-.27,8.33-.18,14.25-1.12.78-2.48,2-3.58,2.38a60.59,60.59,0,0,1-3.28-7c-1.39.08-3.13-.18-4.29.14.18,3.78-.36,8.27.29,11.6h7.28c.13-1.2.75-2.61.43-3.78,1.07-.44,2.41-2.42,3.15-2.23,0,3.69,0,7.4-.29,10.76-2.26.26-2-1.94-3.43-2.52-.08-.38.18-1.11-.14-1.25H407.93c0,.43.34.91,0,1.25-1.14.8-1.38,2.48-3.15,2.66-.93-2.9-.18-7.46-.42-11a18.47,18.47,0,0,1,3,2.51,11.73,11.73,0,0,0,.57,3.64h7.43c-.09-3.87.19-8.11-.14-11.74h-4.15a36.82,36.82,0,0,1-3.28,7,11.22,11.22,0,0,1-3.43-2.52c0-5.92.42-9.2.42-15.12C412.3,261.19,419.74,262.2,427.26,262.2Zm-7.61-1.12a5,5,0,0,1-3.72,2.09c.1,2.41-.08,6.14.15,8.11h4.14A54.22,54.22,0,0,1,419.65,261.08Zm-7.72,0c-.24,3.39-.27,7-.71,10.2h4.14v-8.11A4,4,0,0,1,411.93,261.08Z" transform="translate(-388.12 -261.08)"/><path class="cls-4" d="M401.28,293.66c3.31,1.46,9.41-1.28,10.81,1.29-.15.88-1.91.15-2.31.77v6.18c1-.17,1,.68,2.06.52.25,5.09-.67,10.15-.26,13.9-2.59-.42-1.16-4.85-2.06-6.95a66.5,66.5,0,0,0-7.21,2.57c-.45,2.81.94,7.47-.77,9-1.55-2-.69-6.34-1.55-9a32.08,32.08,0,0,0-4.89-1.8c-.26,2.06.25,4.89-1.29,5.66-.1-5.92-.63-13.37-1.8-18.28-.13-.73-1.35-.37-1-1.54,1.75-2-.48-5.12-.52-7.73,3.87.18,7-.43,10.56-.51C401.13,289.69,400.77,292.11,401.28,293.66Zm-8.24.77c0,.61.44.76.25,1.55,1.72.09,3.84-.23,5.16.26v1.28c-.27.6-1.19.54-2.07.52.2,1.18.22,2.53.52,3.6,1.22-.24,2.36-.56,3.6-.77a49.3,49.3,0,0,1-.25-7.21A11.18,11.18,0,0,0,393,294.43Zm8.24.52c.36,1.86.55,3.9.77,5.92a27,27,0,0,1,6.18.52v-6.18C405.66,295.37,403.87,294.76,401.28,295Zm-6.44,2.57h-1.29c0,2.07.94,3.18,1.29,4.9C395.63,301,394.53,299.29,394.84,297.52Zm14.94,8a7.4,7.4,0,0,0-2.84.78,5.64,5.64,0,0,0,2.84.77Zm-14.42,1v1c.38-.13.64-.38,1-.51C396.22,306.7,395.84,306.57,395.36,306.54Zm6.95,1c0,1.06,0,1.88,0,2.86,2.51-.58,4.74-1.16,6.4-2.6C406.37,307.17,404.62,306.5,402.31,307.56Zm-6.7,1c.91,1.16,2.77,1.36,4.38,1.81a8,8,0,0,0-.51-2.84C397.9,307.2,396.78,307.89,395.61,308.59Z" transform="translate(-388.12 -261.08)"/><path class="cls-1" d="M392.46,292.62a87.42,87.42,0,0,0,2.7,10.32c0,.1.25.08.52,0a4.23,4.23,0,0,0,.87,1.66c.58.59,2.39.84,4.89.68,1.89-.12,4.33-.38,5.43-.42s1.3.32,1.3.32l-.2,9.53a1.05,1.05,0,0,0-.14.2,3,3,0,0,0-.45,1.87c.12.79,1.44.75,2.6,1.11,1.37.42,6.17,1.07,6.67.08a2,2,0,0,0,.18-.43c.45,0,1,0,1.45.1,1.42.2,6.27.11,6.6-1,.13-.39.26-.83-.28-.83s-1.67-.45-2.31-.48c-.42,0-.93-.6-1.39-1.23l.17-.05-4.84-10.06a32.42,32.42,0,0,0-1.49-3.64c-.52-.85-.4-.85-2.47-1.29a49.17,49.17,0,0,0-8.12-1.14,2.93,2.93,0,0,1-.34-.45c-.16-.32-.77-1.4-.77-1.4s2.07.15,2.32-.42a2.82,2.82,0,0,0-.09-2.43c-.49-.9-2.8-2.44-3.63-3.51a22.13,22.13,0,0,0-2.3-2.87,2.63,2.63,0,0,0-.7-.34,2.92,2.92,0,0,1-2.95.36,4.07,4.07,0,0,1-1.16-1.07l-.2.25a20.34,20.34,0,0,0-1.26,1.76C392.49,288.76,392.3,291.14,392.46,292.62Zm20.07,15.54,3,7.31a2.79,2.79,0,0,0-.06,1.27,8,8,0,0,0-1.2-.45c-.41-.08-.82-.75-1.19-1.44Z" transform="translate(-388.12 -261.08)"/><path class="cls-4" d="M444.68,308.93c.58-2.78,1.92-6.15.38-8.3.38-3-.22-5.78.19-8.7a14.36,14.36,0,0,0-3.21-.41c.29-2.53.93-6.75-1.69-7.76h0l-.33-.12a39.2,39.2,0,0,0-7.19,0c-3.08.73-2.4,5.24-2.08,7.89a14.37,14.37,0,0,0-3.22.41c.41,2.92-.19,5.71.19,8.7-1.54,2.15-.2,5.52.37,8.3.18.82-.54,2.09.76,2,.85-3.3-2.44-10.05,2.42-9.32,0,1.94,0,4.65,0,6.52l1,0c.06-2-.05-4.42.2-6.52,2.84.08,4.82.05,7.65,0,.17,2.42,0,4.45.17,6.51l1.05-.08c.05-1.88,0-4.42,0-6.43,4.86-.73,1.73,6,2.57,9.31C445.23,311,444.51,309.75,444.68,308.93Zm-13.37-11.54c-.6,0-1.4.64-2.46.61.08-1.95-.27-4.34.57-5.47.76-.14,1.08.2,1.7.2C431.59,294.75,431.22,295.9,431.31,297.39Zm1.33-1c1.81-.78,4.88,1,6.81-.61.13.15.42.13.54.29v.26l0,0s0,0,0,0C438.39,297,433.71,297.12,432.64,296.38ZM443.93,298c-1.06,0-1.86-.61-2.46-.61.09-1.49-.28-2.64.19-4.66.62,0,.94-.34,1.7-.2C444.2,293.66,443.86,296.05,443.93,298Z" transform="translate(-388.12 -261.08)"/><path class="cls-4" d="M393.33,296.06a1.64,1.64,0,0,0-.2-1.17c-.52.08-1.05.15-1.58.19a2.44,2.44,0,0,1-.54,1c-.32,1.17.9.82,1,1.55a78.85,78.85,0,0,1,1.6,12.81v6.07H395v-3.87a23.15,23.15,0,0,1,.11-2.4,18.44,18.44,0,0,1,2.54.83c0-.41-.09-.81-.14-1.22a3.83,3.83,0,0,1-1.88-1.15,10.17,10.17,0,0,1,1.66-.88c-.21-2.06-.38-4.12-.41-6.2-.27-1.05-.3-2.34-.48-3.48.87,0,1.79.08,2.06-.51v-1.29C397.16,295.83,395,296.15,393.33,296.06Zm1.54,6.44c-.35-1.72-1.3-2.82-1.29-4.89h1.29C394.57,299.38,395.67,301.09,394.87,302.5Zm.52,5.15v-1a1.13,1.13,0,0,1,1,.51C396,307.27,395.77,307.51,395.39,307.65Zm5.14-.47V321h1.9V307.18Z" transform="translate(-388.12 -261.08)"/><rect class="cls-5" x="0.5" y="0.68" width="59.42" height="59.42"/><rect class="cls-6" x="0.27" y="60.41" width="60.01" height="10.4"/><rect class="cls-7" x="49.75" y="60.41" width="10.67" height="10.4"/><path d="M443.72,330.16v-1.58h-2.93v-1l2.49-4h1.91v3.87H446v1.16h-.78v1.58Zm0-2.74V326c0-.4,0-.81,0-1.23h0c-.21.42-.4.81-.62,1.23l-.87,1.44,0,0Z" transform="translate(-388.12 -261.08)"/></svg>