<svg id="Layer_1" data-name="Layer 1" xmlns="http://www.w3.org/2000/svg" viewBox="0 0 60.42 70.64"><defs><style>.cls-1{fill:#4d4d4d;}.cls-2{fill:#b3b3b3;}.cls-3{fill:gray;}.cls-4{fill:#999;}.cls-5{fill:#ccc;}.cls-6{fill:#666;}.cls-6,.cls-7,.cls-9{fill-rule:evenodd;}.cls-7{fill:#fff;}.cls-8,.cls-9{fill:#12100b;}.cls-10{fill:#5d5757;}.cls-11{fill:none;stroke:#1d1d1b;}.cls-12{fill:#bfbfbf;}.cls-13{fill:#f2f2f2;}</style></defs><path class="cls-1" d="M423.82,271.55c-.21,1.81-1.52,3.13-2.92,2.93s-2.37-1.82-2.16-3.64,1.52-3.13,2.93-2.93,2.37,1.82,2.15,3.64" transform="translate(-388.13 -261.16)"/><path class="cls-1" d="M415.82,292.57a33.66,33.66,0,0,1,1.93-4l6.1-.83.54,3.18c-.89.15-1.75.33-1.75.33l-1.24.72a3.92,3.92,0,0,0-1.32,2.56c-.09,1.15-.27,3.05-.24,4.24s-.33,5.67-.33,5.67h-.25a10.73,10.73,0,0,1-.2,1.35c-.08.49-.87.63-.87.63l-1.13.13s-.5,0-.5-.21a3.48,3.48,0,0,1,0-1.52l.11-.36a4.79,4.79,0,0,1-.42-1.79c0-.91-.44-5.21-.36-6.75S415.49,293.65,415.82,292.57Z" transform="translate(-388.13 -261.16)"/><path class="cls-2" d="M427.93,276.45l-12.79.42s-.63-.14-.67,1.81-.34,13.2-.34,13.2-1,.57-1.15,1-.31,7.89-.28,9.06-.06,4.84-.06,4.84l.91.23-.27-12.87s-.14-.81.5-1,12.92-.8,13.51-.81,2.22-.17,2.52.47a76.66,76.66,0,0,1,1.16,7.82c0,.47.3,5.67.3,5.67l1,.1-1.44-12.91s-.21-1.58-1.21-1.79a2,2,0,0,0,.26-1.58c-.14-1.35-1.26-12.74-1.26-12.74A.9.9,0,0,0,427.93,276.45Z" transform="translate(-388.13 -261.16)"/><path class="cls-3" d="M418.75,287.72l6.13.57a35.32,35.32,0,0,1,2.09,3.88c.37,1.06-.07,1.85.07,3.39s-.13,5.85-.08,6.76a4.57,4.57,0,0,1-.35,1.82l-2.83.09s-.55-4.47-.57-5.66-.28-3.08-.41-4.23a3.93,3.93,0,0,0-1.43-2.5l-1.26-.67s-.87-.14-1.77-.25Z" transform="translate(-388.13 -261.16)"/><path class="cls-4" d="M404.13,291.78c.08,3.72,9.28,6.54,20.54,6.31s20.33-3.45,20.26-7.16-9.28-6.54-20.54-6.3S404.06,288.06,404.13,291.78Z" transform="translate(-388.13 -261.16)"/><path class="cls-5" d="M404.19,290.43c.08,3.72,9.28,6.54,20.54,6.3s20.33-3.44,20.25-7.16-9.27-6.54-20.53-6.3S404.12,286.71,404.19,290.43Z" transform="translate(-388.13 -261.16)"/><path class="cls-3" d="M417.63,311.62c0,.83,2.08,1.47,4.6,1.41s4.56-.77,4.54-1.6-2.08-1.46-4.6-1.41S417.61,310.79,417.63,311.62Z" transform="translate(-388.13 -261.16)"/><path class="cls-1" d="M415.2,284.2a2.37,2.37,0,0,0,1.75.28,2.61,2.61,0,0,1,1.27-.08c.42.09.17.58.49.57a19.21,19.21,0,0,1,2-.31,5,5,0,0,1,1.54.34,18.08,18.08,0,0,0,5.28-.27,7.71,7.71,0,0,0,2.83-1.22,2.15,2.15,0,0,0,.44-1.65c-.17-.52-3.66-5.22-3.66-5.22s-2.54-2.82-3.71-3.14a2.65,2.65,0,0,1-2.5,1.43,2.59,2.59,0,0,1-1.9-1.4,5.3,5.3,0,0,0-2.65,1.81,19.06,19.06,0,0,0-1.25,5C414.9,281.81,414.77,283.89,415.2,284.2Zm10.68-3.77,1.28,1.54-1.78.93S425.33,280.68,425.88,280.43Z" transform="translate(-388.13 -261.16)"/><path class="cls-3" d="M426.39,302.84l-.18,1s.17.13.39.83a3.66,3.66,0,0,1,.06,1.52c0,.21-.48.23-.48.23l-1.11-.08s-.76-.11-.86-.6a7.23,7.23,0,0,1-.27-1.54,2.29,2.29,0,0,1,.25-.88l.1-.67Z" transform="translate(-388.13 -261.16)"/><path class="cls-6" d="M419.7,285.49c-.87,0-.46,1.08-.61,1.83-.09.42-.36.4-.53.69.2.16.68.05,1,.08,0,.14-.18.12-.2.25h-2.69c0-.17-.17-.11-.16-.25.34,0,.93.14,1-.16a16.26,16.26,0,0,1-1.3-1.06,1.14,1.14,0,0,1-.17-.77.73.73,0,0,1,.78-.33c0-.24-.37-.17-.45-.37C417.43,285.54,418.89,285.34,419.7,285.49ZM417,287.16a3.92,3.92,0,0,0-.08-1.15C415.88,285.49,416.24,287.14,417,287.16Z" transform="translate(-388.13 -261.16)"/><path class="cls-6" d="M416,289.77c-.87,0-.45,1.08-.61,1.83-.09.42-.36.4-.53.69.2.16.69,0,1,.08,0,.14-.18.12-.21.24H413c0-.16-.18-.09-.17-.24.34-.05.93.14,1-.16-.32-.34-1-.67-1.3-1.06a1.08,1.08,0,0,1-.16-.77.71.71,0,0,1,.77-.33c0-.24-.37-.17-.45-.37C413.75,289.82,415.2,289.62,416,289.77Zm-2.69,1.66a3.8,3.8,0,0,0-.08-1.13C412.19,289.77,412.56,291.42,413.32,291.43Z" transform="translate(-388.13 -261.16)"/><path class="cls-6" d="M425.39,288.36c-.87,0-.45,1.09-.61,1.83-.09.43-.35.41-.53.7.2.16.69,0,1,.08,0,.13-.18.11-.2.24h-2.69c0-.16-.17-.1-.16-.24.34-.06.92.14,1-.17a14,14,0,0,1-1.3-1.06,1.14,1.14,0,0,1-.16-.77.74.74,0,0,1,.77-.33c0-.23-.37-.17-.45-.36C423.13,288.41,424.59,288.22,425.39,288.36ZM422.7,290a3.88,3.88,0,0,0-.08-1.14C421.58,288.36,421.94,290,422.7,290Z" transform="translate(-388.13 -261.16)"/><path class="cls-6" d="M431.29,288a4.16,4.16,0,0,0-.09-1.14C430.16,286.37,430.52,288,431.29,288Z" transform="translate(-388.13 -261.16)"/><rect class="cls-3" x="32.5" y="36.93" width="2.99" height="14.35"/><path class="cls-1" d="M434.87,308.24l-.07-2.4-.34.38a8.85,8.85,0,0,0,.07-2.62c0-.33-.06-.43-.07-.75l-.3.75-6.38-1.34.67-.53c0,.68-.89,0-.89,0a5.54,5.54,0,0,0-2.81-.52c-.61.06-2.05.93-2.05,2s1.19,6.88,1.19,6.88l.28,4.13.49,1.08,1-.11h0a2,2,0,0,1-.9.57,3.08,3.08,0,0,0-1,.36c-.1.13-.27.5-.12.62a2,2,0,0,0,1.42.89,7.46,7.46,0,0,0,2.36.12c.84-.1,1.6,0,1.55-.25a9.93,9.93,0,0,0-.34-1.83,4.72,4.72,0,0,0-.48-.69c0-.06.31-.13.31-.13l-.45-2.77-.63-4.18,1-4.22,3.42,2.52.4,5.16.05,3.14s-.22.72-.39,1.12-.34.5-.28.84-.22.56.45.61,1.46.06,2.07.06,1.35.05,1.35-.34a7.2,7.2,0,0,1-.28-1.62,11.86,11.86,0,0,0-.11-1.74l.33-.11Z" transform="translate(-388.13 -261.16)"/><path class="cls-1" d="M430.26,286.23h.05S430.26,286.23,430.26,286.23Zm9.34,5.41a31.1,31.1,0,0,0-4-4,12.8,12.8,0,0,0-2-1,23.75,23.75,0,0,0-3.32-.35,9.29,9.29,0,0,1-1,.4c-1.41.5-2.71.86-3.38,1.77a15.5,15.5,0,0,0-1.57,4.73c-.25,1.43-1.09,3.47-.68,6.53.29,2.15,1.55,1.11,2.28,1s1.45-3.67,1.94-3.57.19.56.55.56,1.35-.25,2.28-.25a6.54,6.54,0,0,1,1.78.35c.47.09,2.59-2.52,4.33-3.37l-.3.12a11.46,11.46,0,0,1,.11-1.61l1,1.57s1.31-.07,1.74-.13C440.73,294.12,439.78,292.15,439.6,291.64Z" transform="translate(-388.13 -261.16)"/><path class="cls-1" d="M428.53,283.89c0,2.06,1.2,3.7,2.75,3.65s2.84-1.76,2.87-3.82-1.2-3.7-2.75-3.65-2.84,1.76-2.87,3.82" transform="translate(-388.13 -261.16)"/><path class="cls-2" d="M439.14,309.6s-.17-1.52-1.13-1.74c.06-.34.4-.22.29-1.51s-1-12.22-1-12.22a.86.86,0,0,0-.63-.86l-5.3.06-5.3-.06a.86.86,0,0,0-.64.86s-.84,10.92-1,12.22.22,1.17.28,1.51c-1,.22-1.12,1.74-1.12,1.74l-1.12,11,1.73-.11s.17-3.61.17-4.06a74.86,74.86,0,0,1,1-7.51c.28-.61,1.07-.5,1.63-.5l3.65,0v0h1.44v0l3.64,0c.56,0,1.35-.11,1.63.5a75,75,0,0,1,1,7.51c0,.45.16,4.06.16,4.06l1.74.11Z" transform="translate(-388.13 -261.16)"/><path class="cls-7" d="M404.72,280.25c.19-.42.35-.83.56-1.3.06-.14.19-.32.18-.43s-.34-.33-.45-.42a2.59,2.59,0,0,1-1.19-2.17,2.79,2.79,0,0,1,1.64-2.27,6.05,6.05,0,0,1,1.36-.58c2.2-.64,4.91,0,6.09,1.32a2.26,2.26,0,0,1,.63,2,2.8,2.8,0,0,1-1,1.62,6.42,6.42,0,0,1-4.82,1.16,6.21,6.21,0,0,0-.89-.16,1.88,1.88,0,0,0-.56.29C405.75,279.62,405.31,279.93,404.72,280.25Z" transform="translate(-388.13 -261.16)"/><path class="cls-8" d="M404.82,280.43l-.56.31.27-.58.19.09-.1-.19.1.19-.19-.09h0c.18-.41.34-.82.55-1.3h0l.12-.22h0a.59.59,0,0,0,0-.08h0a4.07,4.07,0,0,0-.36-.3h0a2.83,2.83,0,0,1-1.27-2.26h0v-.08h0a3,3,0,0,1,1.74-2.44h0a6,6,0,0,1,1.41-.6h0a6.89,6.89,0,0,1,1.91-.27h0a6.09,6.09,0,0,1,4.4,1.65h0a2.53,2.53,0,0,1,.71,1.72h0a3.22,3.22,0,0,1,0,.43h0a3,3,0,0,1-1,1.73h0a6.12,6.12,0,0,1-4,1.28h0a8.35,8.35,0,0,1-1-.06h0c-.31,0-.62-.16-.81-.16h0a2.11,2.11,0,0,0-.47.27h0c-.56.33-1,.63-1.6,1Zm2-1.65h.08a7,7,0,0,1,.86.16h0a7.54,7.54,0,0,0,.94.06h0a5.77,5.77,0,0,0,3.71-1.17h0a2.59,2.59,0,0,0,.89-1.49h0a2.28,2.28,0,0,0,0-.36h0a2.17,2.17,0,0,0-.6-1.44h0a5.67,5.67,0,0,0-4.09-1.5h0a6.66,6.66,0,0,0-1.79.24h0a5.73,5.73,0,0,0-1.32.57h0a2.56,2.56,0,0,0-1.53,2.08h0V276h0a2.4,2.4,0,0,0,1.11,1.93h0l.26.21h0a.62.62,0,0,1,.26.34h0a.18.18,0,0,1,0,.06h0a1.36,1.36,0,0,1-.2.49h0c-.11.25-.21.49-.3.71h0c.34-.2.65-.41,1-.64h0a1.79,1.79,0,0,1,.65-.32Z" transform="translate(-388.13 -261.16)"/><path class="cls-7" d="M434.88,281c.19-.41.35-.81.55-1.27.06-.14.19-.31.18-.42s-.33-.32-.44-.41a2.55,2.55,0,0,1-1.16-2.13,2.7,2.7,0,0,1,1.6-2.21,5.8,5.8,0,0,1,1.33-.57c2.15-.63,4.79,0,6,1.29a2.27,2.27,0,0,1,.61,1.93,2.76,2.76,0,0,1-.94,1.58,6.24,6.24,0,0,1-4.71,1.13,5.67,5.67,0,0,0-.87-.15,1.83,1.83,0,0,0-.55.29C435.89,280.36,435.46,280.65,434.88,281Z" transform="translate(-388.13 -261.16)"/><path class="cls-8" d="M435,281.15l-.54.3.26-.57.18.09-.09-.18.09.18-.18-.09h0c.18-.4.34-.8.54-1.27h0l.12-.22h0s0-.05,0-.08h0A2.85,2.85,0,0,0,435,279h0a2.81,2.81,0,0,1-1.24-2.21h0v-.08h0a2.93,2.93,0,0,1,1.7-2.39h0a6.21,6.21,0,0,1,1.38-.58h0a6.55,6.55,0,0,1,1.87-.26h0a5.9,5.9,0,0,1,4.3,1.61h0a2.51,2.51,0,0,1,.7,1.68h0a2.12,2.12,0,0,1,0,.42h0a2.87,2.87,0,0,1-1,1.69h0a6,6,0,0,1-3.89,1.25h0a7.89,7.89,0,0,1-1-.06h0a8,8,0,0,0-.79-.15h0a1.82,1.82,0,0,0-.47.25h0c-.54.33-1,.63-1.56.95Zm2-1.61h.08c.31,0,.61.14.84.16h0a7.11,7.11,0,0,0,.92.06h0a5.58,5.58,0,0,0,3.62-1.15h0a2.47,2.47,0,0,0,.88-1.45h0a2.18,2.18,0,0,0,0-.35h0a2.08,2.08,0,0,0-.59-1.41h0a5.55,5.55,0,0,0-4-1.47h0a6.37,6.37,0,0,0-1.75.24h0a5.89,5.89,0,0,0-1.29.55h0a2.49,2.49,0,0,0-1.49,2h0v.07h0a2.36,2.36,0,0,0,1.08,1.89h0l.26.19h0c.09.1.2.15.25.34h0v.06h0a1.22,1.22,0,0,1-.19.48h0c-.11.24-.2.47-.3.69h0l1-.62h0a1.59,1.59,0,0,1,.64-.31Z" transform="translate(-388.13 -261.16)"/><path class="cls-7" d="M416.67,270.52c-.19-.42-.35-.84-.57-1.32-.05-.14-.19-.32-.18-.43s.34-.33.46-.43a2.64,2.64,0,0,0,1.2-2.2,2.79,2.79,0,0,0-1.66-2.28,5.8,5.8,0,0,0-1.38-.59c-2.22-.65-5,0-6.16,1.33a2.31,2.31,0,0,0-.63,2,2.79,2.79,0,0,0,1,1.63,6.45,6.45,0,0,0,4.87,1.17,5.12,5.12,0,0,1,.9-.15,1.62,1.62,0,0,1,.57.29C415.63,269.88,416.07,270.19,416.67,270.52Z" transform="translate(-388.13 -261.16)"/><path class="cls-8" d="M416.57,270.7c-.61-.33-1.06-.64-1.62-1h0a1.66,1.66,0,0,0-.48-.26h0a8.1,8.1,0,0,0-.81.16h0a8.68,8.68,0,0,1-1,.06h0a6.22,6.22,0,0,1-4-1.29h0a3,3,0,0,1-1.05-1.76h0a3.22,3.22,0,0,1,0-.43h0a2.57,2.57,0,0,1,.72-1.74h0a6.12,6.12,0,0,1,4.45-1.67h0a7,7,0,0,1,1.93.27h0a6,6,0,0,1,1.43.61h0a3,3,0,0,1,1.76,2.47h0v.08h0a2.9,2.9,0,0,1-1.28,2.29h0a3,3,0,0,0-.37.3h0l0,.08h0a1.61,1.61,0,0,1,.12.23h0c.21.48.38.9.57,1.31h0l-.2.09.1-.19-.1.19.2-.09.26.58-.56-.31ZM414.52,269a1.8,1.8,0,0,1,.65.33h0l1.05.65h0l-.31-.72h0a1.42,1.42,0,0,1-.2-.5h0v-.06h0c0-.2.16-.25.26-.35h0l.26-.21h0a2.41,2.41,0,0,0,1.12-1.95h0v-.07h0a2.59,2.59,0,0,0-1.55-2.11h0a5.62,5.62,0,0,0-1.33-.57h0a6.43,6.43,0,0,0-1.81-.25h0a5.75,5.75,0,0,0-4.13,1.52h0a2.18,2.18,0,0,0-.61,1.46h0a1.5,1.5,0,0,0,0,.36h0a2.57,2.57,0,0,0,.9,1.51h0a5.81,5.81,0,0,0,3.75,1.18h0a7.69,7.69,0,0,0,.95-.06h0a7.22,7.22,0,0,1,.87-.16h.09Z" transform="translate(-388.13 -261.16)"/><path class="cls-9" d="M395.79,298.51a1,1,0,0,0,.34.35,4.93,4.93,0,0,0,.22.84c.23.51,1.32.81,2.92.8s4.33-.32,5.25-.2a2.2,2.2,0,0,1,1.25.48l-1.9,8.62.14,0a2,2,0,0,0-.17,1.12c.09.62,1.13.59,2,.87a14.86,14.86,0,0,0,4.26.43,2,2,0,0,0,.05.79c.17.6,1.2.43,2.14.58,1.11.18,4.91.18,5.19-.64.11-.3.21-.65-.21-.66s-1.3-.38-1.8-.41c-.29,0-.64-.4-1-.83l.34,0-2.56-9.07a28.74,28.74,0,0,0-.72-3.25c-.31-.77-.21-.76-1.87-1.42a45.86,45.86,0,0,0-6.41-2.08c-.05-.16,0-.19,0-.26,1.83-.5,5.48-1.73,5.48-1.73l-.24-.42c.32,0,.7.11,1,.13a1.1,1.1,0,0,0,.79-.14c.21-.13,1.18-.54,1.3-.63s.17-.09.19-.26-.2-.16-.2-.16.48-.15.5-.3-.19-.25-.43-.19-.66.17-.95.24a5.55,5.55,0,0,1-1.14,0,.3.3,0,0,1-.28-.15l.63-.18a.83.83,0,0,0,.42-.38c.08-.12-.05-.13-.05-.13l-.58.07-1.4.23a.76.76,0,0,0-.58.39l-.25-.44-.55.08a10,10,0,0,1-2.07.31,8.86,8.86,0,0,1-1.9-.53c0-.25-.08-.51-.11-.76l3.29.65,0-.34a.88.88,0,0,0,.44.13l1.43,0h.58s.13,0,0-.14a.89.89,0,0,0-.47-.33l-.65-.09a.31.31,0,0,1,.26-.18,5.58,5.58,0,0,1,1.14-.13c.3,0,.72.1,1,.12s.44-.1.4-.25-.53-.23-.53-.23.22,0,.17-.19-.09-.15-.22-.23-1.16-.36-1.38-.46a1.14,1.14,0,0,0-.8,0c-.35.07-.85.25-1.2.3l.05-.49-4.07-1.16,0-.16c-.2-.87-.46-2-.78-3a2.08,2.08,0,0,1-1.48.28,2.32,2.32,0,0,1-1.62-1.26,9.73,9.73,0,0,0-1.62,2.17c-1.27,2.79-1.64,7.79-1.71,9.31S395.15,297.47,395.79,298.51Zm12.47,10.39.39-4.45L410,310.4a4.28,4.28,0,0,0-.72-.26C408.91,310.07,408.56,309.48,408.26,308.9Z" transform="translate(-388.13 -261.16)"/><path class="cls-8" d="M403,280.8c-.27,1.67-1.53,2.83-2.82,2.6s-2.11-1.79-1.85-3.46,1.54-2.83,2.82-2.59,2.12,1.78,1.85,3.45" transform="translate(-388.13 -261.16)"/><path class="cls-2" d="M393.85,289.36l1.47.06s.34,7.65.88,8.82.57,1.79,4,1.74,7.06-.2,7.06-.2a1.87,1.87,0,0,1,1.34,2.35c-.12.85.16,12.09.16,12.09l-.77.13-.45-9.89v-1.53l0-.81-.69,0s-5.45.19-7,.29a14.06,14.06,0,0,1-2.54,0s-.94,10.58-1.12,10.91-1.1-.13-1.1-.13L396.27,302l.19-.67S394.33,301.72,393.85,289.36Z" transform="translate(-388.13 -261.16)"/><rect class="cls-10" x="22.59" y="4.23" width="4.69" height="0.51"/><rect class="cls-10" x="22.59" y="5.09" width="4.69" height="0.51"/><rect class="cls-10" x="22.56" y="5.91" width="1.78" height="0.53"/><rect class="cls-10" x="48.52" y="14.6" width="4.69" height="0.51"/><rect class="cls-10" x="48.52" y="15.46" width="4.69" height="0.51"/><rect class="cls-10" x="48.49" y="16.28" width="1.78" height="0.53"/><rect class="cls-10" x="18.49" y="13.96" width="4.69" height="0.51"/><rect class="cls-10" x="18.49" y="14.82" width="4.69" height="0.51"/><rect class="cls-10" x="18.46" y="15.63" width="1.78" height="0.53"/><rect class="cls-11" x="0.5" y="0.5" width="59.42" height="59.42"/><rect class="cls-12" x="0.27" y="60.24" width="60.01" height="10.4"/><rect class="cls-13" x="49.75" y="60.24" width="10.67" height="10.4"/><path d="M443,324.83h0l-1.27.6-.25-1.16,1.76-.81h1.27v6.61H443Z" transform="translate(-388.13 -261.16)"/></svg>