<svg id="Layer_1" data-name="Layer 1" xmlns="http://www.w3.org/2000/svg" viewBox="0 0 60.42 70.64"><defs><style>.cls-1{fill:#bfbfbf;}.cls-2{fill:#12100b;}.cls-3{fill:#b3b3b3;}.cls-4{fill:#4d4d4d;}.cls-5{fill:gray;}.cls-6{fill:#999;}.cls-7{fill:#ccc;}.cls-8{fill:#666;}.cls-8,.cls-9{fill-rule:evenodd;}.cls-9{fill:#fff;}.cls-10{fill:#5d5757;}.cls-11{fill:none;stroke:#1d1d1b;}.cls-12{fill:#f2f2f2;}</style></defs><rect class="cls-1" x="0.26" y="60.24" width="60.01" height="10.4"/><path class="cls-2" d="M398.66,280.06c-.76,1.63-2.4,2.45-3.65,1.83s-1.65-2.44-.88-4.08,2.39-2.45,3.64-1.83,1.66,2.44.89,4.08" transform="translate(-388.13 -261.16)"/><path class="cls-2" d="M412.5,309.76c-.27-.1-1.36-.31-1.63-.45s-1.23-.63-1.79-1l-.06-.79.16.07a8.85,8.85,0,0,0,1.43,0c.46-.07,1.65-.24,1.75-.71a.41.41,0,0,0-.35-.55c-.1-.05-.64-.17-.92-.27a2.35,2.35,0,0,1-1.44-.88c-.4-.63-.88-1.23-.88-1.23l-.12-.7-.27-3.17c0-1.13,0-2.8,0-3.29a9.72,9.72,0,0,0-.38-2.16,2.09,2.09,0,0,0-1.34-1.06c-1.17-.36-4.18-.94-4.65-1s-1.45-.22-2.53-.4c-.1-.33-.42-1.28-.42-1.28s-1.45-6.44-1.81-7.35a7.4,7.4,0,0,0-.6-1.29,2.55,2.55,0,0,1-2.55-.62,2,2,0,0,1-.33-.48l-.18-.4a8.67,8.67,0,0,0-1.89,1.92,9.93,9.93,0,0,0-1,3.61,72.24,72.24,0,0,0,.66,9.13c0,.1.28.11.58.09a6.52,6.52,0,0,0,.09,1.05,2.66,2.66,0,0,0,2.15,2.49c1.19.31,8.59.24,9.9.22l.3,9.43h.89a1.17,1.17,0,0,0,0,.37,1.32,1.32,0,0,1-.11.71c-.05.21-.05.56.5.78s3.19.61,3.58.72a5.11,5.11,0,0,0,2-.07c.49-.16,1.46-.36,1.57-.78S412.78,309.85,412.5,309.76Z" transform="translate(-388.13 -261.16)"/><path class="cls-3" d="M390.44,288.78l.28-.22s1.46,7.61,2,8.74.55,1.71,3.82,1.67,6.77-.2,6.77-.2a1.8,1.8,0,0,1,1.28,2.26c-.12.81.16,11.59.16,11.59l-.74.13-.43-9.49,0-1.46V301l-.67,0s-5.22.18-6.69.28a13.42,13.42,0,0,1-2.44,0s-.9,10.15-1.08,10.47-1.05-.13-1.05-.13l1.16-10.7.19-.65S390.9,300.64,390.44,288.78Z" transform="translate(-388.13 -261.16)"/><path class="cls-2" d="M392,282.35l.52.26-.14-.18-.2-.25Zm1.91,1,.76.37,2.75,9.73,2.92.16.31-.74a3.74,3.74,0,0,1-1-.75c-.14-.27-.73-1.48-.73-1.48s2.07.27,2.27-.21a2.33,2.33,0,0,0-.07-2c-.41-.75-2.33-2-3-2.9a17.29,17.29,0,0,0-1.91-2.39,2,2,0,0,0-.58-.28A2.66,2.66,0,0,1,393.9,283.31Z" transform="translate(-388.13 -261.16)"/><path class="cls-4" d="M426.29,271.56c-.2,1.72-1.44,3-2.77,2.78s-2.23-1.73-2-3.44,1.44-3,2.76-2.78,2.24,1.73,2,3.44" transform="translate(-388.13 -261.16)"/><path class="cls-4" d="M426.32,286.88l-5.76.79a33.21,33.21,0,0,0-1.82,3.74c-.31,1,.14,1.74.07,3.2s.36,5.52.34,6.37a4.28,4.28,0,0,0,.4,1.7l2.68,0s.34-4.23.31-5.35.14-2.92.22-4a3.71,3.71,0,0,1,1.25-2.41l1.17-.68s.81-.17,1.66-.31Z" transform="translate(-388.13 -261.16)"/><path class="cls-4" d="M419.57,301.29l.22.93s-.17.13-.35.8a3.29,3.29,0,0,0,0,1.44c0,.2.47.19.47.19l1.07-.12s.74-.13.82-.6a6.88,6.88,0,0,0,.19-1.46,2.06,2.06,0,0,0-.27-.82l-.13-.63Z" transform="translate(-388.13 -261.16)"/><path class="cls-3" d="M430.17,276.19l-12.07.4s-.59-.13-.63,1.71-.33,12.46-.33,12.46-.94.53-1.08.9-.29,7.45-.27,8.55-.05,4.57-.05,4.57l.85.23-.25-12.16s-.13-.77.48-1,12.19-.75,12.75-.76,2.09-.16,2.38.45A70.42,70.42,0,0,1,433,299c0,.44.28,5.35.28,5.35l.94.09-1.36-12.18s-.19-1.49-1.14-1.69c.05-.33.39-.23.25-1.5s-1.19-12-1.19-12A.85.85,0,0,0,430.17,276.19Z" transform="translate(-388.13 -261.16)"/><path class="cls-5" d="M421.51,286.82l5.78.55a33.17,33.17,0,0,1,2,3.66c.35,1-.07,1.75.07,3.2s-.13,5.53-.08,6.38a4.27,4.27,0,0,1-.33,1.72l-2.67.08s-.52-4.22-.54-5.34-.26-2.91-.39-4a3.72,3.72,0,0,0-1.35-2.36l-1.19-.63s-.83-.14-1.67-.24Z" transform="translate(-388.13 -261.16)"/><path class="cls-6" d="M407.71,290.67c.07,3.5,8.75,6.17,19.38,5.94s19.2-3.24,19.12-6.75-8.75-6.18-19.38-5.95S407.64,287.16,407.71,290.67Z" transform="translate(-388.13 -261.16)"/><path class="cls-7" d="M407.77,289.39c.07,3.5,8.75,6.17,19.38,5.94s19.19-3.24,19.12-6.75-8.75-6.17-19.38-5.95S407.69,285.88,407.77,289.39Z" transform="translate(-388.13 -261.16)"/><path class="cls-6" d="M421.1,309.39c0,.79,2,1.38,4.34,1.33s4.3-.72,4.29-1.51-2-1.38-4.35-1.33S421.08,308.6,421.1,309.39Z" transform="translate(-388.13 -261.16)"/><path class="cls-4" d="M418.16,283.5a2.21,2.21,0,0,0,1.65.27,2.57,2.57,0,0,1,1.2-.08c.4.09.16.55.46.54s1.09-.27,1.84-.29a4.47,4.47,0,0,1,1.45.32,17.39,17.39,0,0,0,5-.25,7.31,7.31,0,0,0,2.67-1.15,2.08,2.08,0,0,0,.42-1.56c-.16-.5-3.46-4.93-3.46-4.93s-2-2-2.27-2.22a5.67,5.67,0,0,0-1.24-.75,2.27,2.27,0,0,1-4.15,0,5,5,0,0,0-2.5,1.7,18,18,0,0,0-1.18,4.7C417.87,281.25,417.75,283.21,418.16,283.5ZM428.24,280l1.2,1.45-1.67.88S427.72,280.18,428.24,280Z" transform="translate(-388.13 -261.16)"/><path class="cls-5" d="M428.72,301.1l-.17.93a1.88,1.88,0,0,1,.37.79,3.64,3.64,0,0,1,.06,1.44c0,.2-.46.21-.46.21l-1-.08s-.73-.1-.82-.56a7,7,0,0,1-.25-1.45,2.28,2.28,0,0,1,.23-.84l.1-.63Z" transform="translate(-388.13 -261.16)"/><path class="cls-8" d="M424.84,284.1c-.82,0-.43,1-.58,1.73-.08.4-.33.39-.49.66.18.15.64,0,1,.07,0,.13-.18.12-.2.24H422c0-.16-.16-.1-.16-.24.32-.05.88.13,1-.15-.3-.32-.94-.63-1.23-1a1.09,1.09,0,0,1-.15-.73.69.69,0,0,1,.73-.31c0-.22-.35-.16-.42-.34C422.7,284.15,424.08,284,424.84,284.1Zm-2.54,1.58a3.9,3.9,0,0,0-.07-1.08C421.24,284.11,421.58,285.67,422.3,285.68Z" transform="translate(-388.13 -261.16)"/><path class="cls-8" d="M416.69,287c-.82,0-.42,1-.57,1.73-.09.4-.34.39-.5.66.19.15.65,0,1,.07,0,.13-.17.11-.19.23h-2.54c0-.15-.16-.09-.16-.23.33-.05.88.13,1-.15a14.52,14.52,0,0,1-1.23-1,1,1,0,0,1-.16-.73.69.69,0,0,1,.73-.31c0-.22-.35-.16-.42-.34C414.56,287.08,415.93,286.89,416.69,287Zm-2.53,1.58a3.83,3.83,0,0,0-.08-1.08C413.09,287,413.43,288.6,414.16,288.61Z" transform="translate(-388.13 -261.16)"/><path class="cls-8" d="M427.28,288.82c-.82,0-.43,1-.58,1.72-.08.41-.33.39-.5.66.19.15.65,0,1,.07,0,.13-.18.12-.2.24h-2.54c0-.16-.16-.1-.15-.24.32,0,.88.14,1-.15-.31-.32-.94-.63-1.23-1a1.08,1.08,0,0,1-.15-.73.67.67,0,0,1,.73-.3c0-.23-.35-.17-.42-.35C425.14,288.87,426.52,288.68,427.28,288.82Zm-2.54,1.57a3.8,3.8,0,0,0-.07-1.07C423.68,288.82,424,290.38,424.74,290.39Z" transform="translate(-388.13 -261.16)"/><path class="cls-8" d="M433.34,287.13a3.79,3.79,0,0,0-.08-1.08C432.27,285.56,432.62,287.12,433.34,287.13Z" transform="translate(-388.13 -261.16)"/><rect class="cls-6" x="35.79" y="35.46" width="2.83" height="13.55"/><path class="cls-4" d="M436.72,306.19l-.07-2.25-.31.35a8.77,8.77,0,0,0,.06-2.47c0-.32,0-.4-.06-.71l-.29.71-6-1.27.63-.49c0,.63-.84,0-.84,0a5.16,5.16,0,0,0-2.65-.5c-.57.06-1.94.88-1.94,1.87s1.13,6.49,1.13,6.49l.27,3.9.15.6,1.24,0,0,.3a2.06,2.06,0,0,1-.85.54,3.34,3.34,0,0,0-1,.34c-.09.12-.24.47-.1.58a1.93,1.93,0,0,0,1.34.85,6.83,6.83,0,0,0,2.22.1c.79-.09,1.52,0,1.46-.23a8.41,8.41,0,0,0-.31-1.72,5.84,5.84,0,0,0-.46-.66c0-.05.35-.35.35-.35l-.58-2.34-.5-4,1-4,3.24,2.38.37,4.87.05,3s-.21.69-.37,1.06-.31.48-.26.79-.21.54.42.59,1.38.05,2,.05,1.27.05,1.27-.32a6.94,6.94,0,0,1-.26-1.53,10.69,10.69,0,0,0-.11-1.64l.32-.11Z" transform="translate(-388.13 -261.16)"/><path class="cls-4" d="M432.37,285.43h.05S432.37,285.43,432.37,285.43Zm8.82,5.1a25,25,0,0,0-3.7-3.94c-.34-.1-1.42-.64-1.94-.83a24.17,24.17,0,0,0-3.13-.33,6.92,6.92,0,0,1-1,.38c-1.33.48-2.56.81-3.2,1.67a15,15,0,0,0-1.48,4.47,16.29,16.29,0,0,0-.64,6.16c.28,2,1.46,1.05,2.16,1s1.37-3.47,1.83-3.37.17.52.52.52,1.27-.24,2.14-.24a5.76,5.76,0,0,1,1.68.34c.45.08,2.45-2.39,4.09-3.18l-.28.11a11.25,11.25,0,0,1,.1-1.52l.92,1.48s1.23-.06,1.63-.12C442.25,292.87,441.36,291,441.19,290.53Z" transform="translate(-388.13 -261.16)"/><path class="cls-4" d="M430.74,283.22c0,1.94,1.13,3.49,2.6,3.44s2.68-1.66,2.71-3.61-1.14-3.49-2.6-3.44-2.68,1.66-2.71,3.61" transform="translate(-388.13 -261.16)"/><path class="cls-3" d="M440.75,307.48s-.16-1.43-1.06-1.64c.05-.32.37-.21.27-1.43s-.9-11.53-.9-11.53a.81.81,0,0,0-.6-.81l-5,.06-5-.06a.81.81,0,0,0-.6.81s-.79,10.31-.9,11.53.21,1.11.26,1.43c-.89.21-1,1.64-1,1.64l-1.06,10.38,1.64-.1s.15-3.4.15-3.83.64-6.5.9-7.08,1-.48,1.54-.48l3.44,0v0h1.37v0l3.44,0c.52,0,1.27-.11,1.53.48a68.67,68.67,0,0,1,.91,7.08c0,.43.15,3.83.15,3.83l1.64.1Z" transform="translate(-388.13 -261.16)"/><path class="cls-9" d="M437.83,281.49c.18-.39.32-.77.52-1.21.06-.13.18-.3.17-.4s-.31-.31-.42-.4a2.42,2.42,0,0,1-1.11-2,2.56,2.56,0,0,1,1.53-2.11,5.74,5.74,0,0,1,1.27-.55c2.06-.6,4.59,0,5.7,1.24a2.11,2.11,0,0,1,.58,1.84,2.56,2.56,0,0,1-.9,1.51,5.94,5.94,0,0,1-4.5,1.08,4.24,4.24,0,0,0-.83-.14,1.48,1.48,0,0,0-.53.27C438.79,280.9,438.38,281.19,437.83,281.49Z" transform="translate(-388.13 -261.16)"/><path class="cls-2" d="M437.92,281.66l-.52.29.25-.54.18.08-.1-.17.1.17-.18-.08h0c.17-.38.32-.77.52-1.21h0c0-.08.08-.15.11-.22h0l0-.07h0a3.89,3.89,0,0,0-.35-.28h0a2.66,2.66,0,0,1-1.18-2.11h0v-.07h0a2.79,2.79,0,0,1,1.63-2.28h0a5.73,5.73,0,0,1,1.32-.57h0a6.27,6.27,0,0,1,1.78-.25h0a5.75,5.75,0,0,1,4.12,1.54h0a2.46,2.46,0,0,1,.66,1.61h0a2.8,2.8,0,0,1,0,.4h0a2.77,2.77,0,0,1-1,1.62h0a5.78,5.78,0,0,1-3.72,1.2h0a7.26,7.26,0,0,1-.93-.06h0c-.29,0-.58-.15-.75-.15h0a2.22,2.22,0,0,0-.45.25h0c-.51.31-.93.59-1.49.9Zm1.9-1.54h.08a6.4,6.4,0,0,1,.8.15h0c.3,0,.59.05.88.05h0a5.38,5.38,0,0,0,3.46-1.09h0a2.4,2.4,0,0,0,.84-1.39h0a2,2,0,0,0,0-.34h0a2,2,0,0,0-.57-1.34h0a5.29,5.29,0,0,0-3.82-1.41h0a5.86,5.86,0,0,0-1.67.23h0a5.38,5.38,0,0,0-1.23.53h0a2.38,2.38,0,0,0-1.43,1.95h0v.06h0a2.27,2.27,0,0,0,1,1.81h0a1.82,1.82,0,0,1,.25.19h0a.55.55,0,0,1,.24.32h0a.13.13,0,0,1,0,.05h0a1.33,1.33,0,0,1-.19.47h0l-.28.66h0l1-.6h0a1.74,1.74,0,0,1,.61-.3Z" transform="translate(-388.13 -261.16)"/><path class="cls-9" d="M418.08,272.32c-.18-.39-.33-.77-.53-1.22-.05-.12-.18-.29-.16-.39s.31-.31.41-.4a2.42,2.42,0,0,0,1.11-2,2.57,2.57,0,0,0-1.52-2.11,5.56,5.56,0,0,0-1.28-.55c-2.06-.6-4.58,0-5.69,1.24a2.1,2.1,0,0,0-.59,1.84,2.5,2.5,0,0,0,.9,1.5,5.92,5.92,0,0,0,4.5,1.09,4.33,4.33,0,0,1,.84-.14,1.53,1.53,0,0,1,.52.27C417.11,271.73,417.52,272,418.08,272.32Z" transform="translate(-388.13 -261.16)"/><path class="cls-2" d="M418,272.49c-.56-.31-1-.59-1.49-.9h0a2,2,0,0,0-.45-.25h0c-.18,0-.47.11-.76.15h0a7.25,7.25,0,0,1-.93.05h0a5.74,5.74,0,0,1-3.72-1.19h0a2.77,2.77,0,0,1-1-1.62h0a2.8,2.8,0,0,1,0-.4h0a2.4,2.4,0,0,1,.67-1.61h0a5.71,5.71,0,0,1,4.11-1.54h0a6.39,6.39,0,0,1,1.79.25h0a5.65,5.65,0,0,1,1.31.57h0a2.77,2.77,0,0,1,1.63,2.27h0v.08h0a2.64,2.64,0,0,1-1.18,2.11h0a3.64,3.64,0,0,0-.34.28h0l0,.07h0a2.12,2.12,0,0,1,.11.21h0c.2.45.35.83.52,1.22h0l-.17.08.09-.18-.09.18.17-.08.25.54-.52-.29ZM416.09,271a1.47,1.47,0,0,1,.6.3h0l1,.6h0c-.09-.21-.18-.43-.29-.67h0a1.21,1.21,0,0,1-.18-.46h0v-.05h0a.59.59,0,0,1,.24-.32h0c.1-.09.21-.16.25-.2h0a2.27,2.27,0,0,0,1-1.8h0a.2.2,0,0,0,0-.07h0a2.35,2.35,0,0,0-1.42-1.94h0a5.45,5.45,0,0,0-1.24-.53h0a5.81,5.81,0,0,0-1.67-.23h0a5.3,5.3,0,0,0-3.82,1.41h0a2,2,0,0,0-.56,1.34h0c0,.11,0,.22,0,.34h0a2.4,2.4,0,0,0,.84,1.39h0a5.38,5.38,0,0,0,3.46,1.09h0c.29,0,.59,0,.89,0h0a4.77,4.77,0,0,1,.8-.15h.08Z" transform="translate(-388.13 -261.16)"/><rect class="cls-10" x="24.11" y="6.2" width="4.69" height="0.51"/><rect class="cls-10" x="24.11" y="7.06" width="4.69" height="0.51"/><rect class="cls-10" x="24.08" y="7.87" width="1.78" height="0.53"/><rect class="cls-10" x="51.33" y="15.27" width="4.69" height="0.51"/><rect class="cls-10" x="51.33" y="16.13" width="4.69" height="0.51"/><rect class="cls-10" x="51.31" y="16.95" width="1.78" height="0.53"/><rect class="cls-11" x="0.5" y="0.5" width="59.42" height="59.42"/><rect class="cls-12" x="49.73" y="60.24" width="10.67" height="10.4"/><path d="M441,330.07v-.93l.84-.77c1.46-1.3,2.16-2,2.17-2.82,0-.53-.32-1-1.08-1a2.45,2.45,0,0,0-1.42.54l-.43-1.1a3.61,3.61,0,0,1,2.16-.68,2,2,0,0,1,2.32,2.06,4.09,4.09,0,0,1-1.76,2.86l-.62.51v0h2.51v1.27Z" transform="translate(-388.13 -261.16)"/></svg>