<svg id="Layer_1" data-name="Layer 1" xmlns="http://www.w3.org/2000/svg" viewBox="0 0 60.42 70.64"><defs><style>.cls-1{fill:#bfbfbf;}.cls-2{fill:#b3b3b3;}.cls-3{fill:#4d4d4d;}.cls-4{fill:gray;}.cls-5,.cls-7{fill:#fff;}.cls-11,.cls-12,.cls-5{fill-rule:evenodd;}.cls-12,.cls-6{fill:#12100b;}.cls-8{fill:#5d5757;}.cls-9{fill:#999;}.cls-10{fill:#ccc;}.cls-11{fill:#666;}.cls-13{fill:none;stroke:#1d1d1b;}.cls-14{fill:#f2f2f2;}</style></defs><rect class="cls-1" x="0.17" y="60.24" width="60.21" height="10.4"/><path class="cls-2" d="M418.44,279.71l-10.78.11s-.53-.11-.59,1.34-.53,9.78-.53,9.78-.85.41-1,.7-.4,5.85-.4,6.72S405,302,405,302l.76.18v-9.55s-.1-.61.44-.74,10.9-.39,11.39-.39,1.88-.09,2.12.39a50.38,50.38,0,0,1,.84,5.82c0,.35.15,4.22.15,4.22l.84.08-1-9.6s-.15-1.17-1-1.34c.05-.26.35-.18.25-1.18s-.84-9.47-.84-9.47A.66.66,0,0,0,418.44,279.71Z" transform="translate(-388.14 -261.16)"/><path class="cls-3" d="M409.42,277.88c.35-.35.79-.8,1.13-1.16a1.88,1.88,0,0,0,1.23.71,2.29,2.29,0,0,0,2.16-1.27l.17-.28c.05,0,2,1.27,2.34,1.53a8.13,8.13,0,0,1,2.06,3.24c.29.88.95,2,1.1,2.57s-1.1,2.58-1.25,2.95a19.05,19.05,0,0,1-1.54,2l-1.33-.81,1-2.13a18.42,18.42,0,0,0,.59-1.84,20.86,20.86,0,0,0-.91-2.14v2l.08,1.3L414,286.75l-4.37-.47-.26-5.38Z" transform="translate(-388.14 -261.16)"/><path class="cls-3" d="M426.1,294.64c.08-1.25-.29-1.88,0-2.76a27.82,27.82,0,0,1,1.63-3.18l.74-.09.09-.62,2.66.3,1.48-.17.06.35.77.09a27.83,27.83,0,0,1,1.64,3.19c.28.87-.09,1.5,0,2.76S435,299.26,435,300a3.76,3.76,0,0,1-.32,1.47h-.12l.11.31a3.17,3.17,0,0,1,0,1.24c0,.17-.4.17-.4.17l-.89-.08s-.63-.1-.7-.5a8.7,8.7,0,0,1-.18-1.12h-.14s-.37-3.64-.36-4.61-.18-2.5-.27-3.44a3.34,3.34,0,0,0-1-2l-.1,0a3.19,3.19,0,0,0-1.12,2.06c-.09.93-.27,2.48-.26,3.44s-.37,4.61-.37,4.61h-.07c0,.32-.13.67-.18,1s-.7.5-.7.5l-.9.08s-.39,0-.39-.17a3.17,3.17,0,0,1,0-1.24,1.54,1.54,0,0,0,.05-.17h-.13a3.65,3.65,0,0,1-.31-1.47C426.31,299.4,426,295.9,426.1,294.64Z" transform="translate(-388.14 -261.16)"/><path class="cls-2" d="M436.21,279l-10.4.12s-.51-.12-.57,1.46-.51,10.72-.51,10.72-.82.45-1,.76-.38,6.41-.38,7.36-.13,3.94-.13,3.94l.73.2V293.09s-.09-.67.43-.81,10.52-.43,11-.43,1.81-.1,2.05.43a62.37,62.37,0,0,1,.81,6.37c0,.38.14,4.62.14,4.62l.81.09-1-10.51s-.15-1.29-.95-1.48c0-.28.33-.19.23-1.28s-.8-10.38-.8-10.38A.73.73,0,0,0,436.21,279Z" transform="translate(-388.14 -261.16)"/><path class="cls-4" d="M414.85,287.23l-5,.57a28.18,28.18,0,0,0-1.63,3.19c-.29.87.09,1.51,0,2.76s.21,4.75.18,5.5a3.7,3.7,0,0,0,.31,1.47l2.31,0s.37-3.65.36-4.61.18-2.51.27-3.44a3.19,3.19,0,0,1,1.11-2.06l1-.56s.71-.14,1.44-.24Z" transform="translate(-388.14 -261.16)"/><path class="cls-4" d="M410.7,287.37l5,.57a27.83,27.83,0,0,1,1.64,3.19c.28.87-.09,1.5,0,2.76s-.21,4.75-.18,5.49a3.65,3.65,0,0,1-.31,1.47l-2.31,0s-.37-3.64-.36-4.6-.18-2.51-.27-3.45a3.19,3.19,0,0,0-1.12-2.05l-1-.57s-.71-.13-1.44-.24Z" transform="translate(-388.14 -261.16)"/><path class="cls-3" d="M432.89,274.89c-.17,1.46-1.22,2.52-2.35,2.36s-1.91-1.47-1.74-2.93,1.23-2.52,2.36-2.36,1.9,1.47,1.73,2.93" transform="translate(-388.14 -261.16)"/><path class="cls-3" d="M410.13,274.21c-.2,1.44.55,2.72,1.67,2.85a2.47,2.47,0,0,0,2.38-2.38c.2-1.44-.54-2.71-1.66-2.84s-2.19.93-2.39,2.37" transform="translate(-388.14 -261.16)"/><path class="cls-4" d="M408.71,299.63l.17.8a1.48,1.48,0,0,0-.31.69,3,3,0,0,0,0,1.24c0,.17.4.17.4.17l.9-.08s.62-.1.69-.5a5.75,5.75,0,0,0,.19-1.26,2,2,0,0,0-.21-.72l-.1-.54Z" transform="translate(-388.14 -261.16)"/><path class="cls-5" d="M398.36,281.38c.14-.31.26-.62.42-1,0-.1.14-.24.13-.32s-.25-.24-.33-.32a2,2,0,0,1-.9-1.63,2.09,2.09,0,0,1,1.23-1.69,4.7,4.7,0,0,1,1-.44,4.8,4.8,0,0,1,4.57,1,1.75,1.75,0,0,1,.47,1.48,2.15,2.15,0,0,1-.72,1.21,4.84,4.84,0,0,1-3.62.88,3.39,3.39,0,0,0-.67-.12,1.22,1.22,0,0,0-.42.22C399.13,280.91,398.8,281.14,398.36,281.38Z" transform="translate(-388.14 -261.16)"/><path class="cls-6" d="M398.43,281.52l-.42.23.2-.44.15.07-.08-.14.08.14-.15-.07h0c.14-.3.26-.61.42-1h0l.09-.17h0l0-.06h0l-.27-.22h0a2.13,2.13,0,0,1-1-1.7h0a.13.13,0,0,1,0-.06h0a2.23,2.23,0,0,1,1.3-1.83h0a4.69,4.69,0,0,1,1.06-.45h0a4.94,4.94,0,0,1,1.43-.2h0a4.53,4.53,0,0,1,3.31,1.24h0a1.9,1.9,0,0,1,.53,1.29h0a1.82,1.82,0,0,1,0,.32h0a2.22,2.22,0,0,1-.77,1.3h0a4.62,4.62,0,0,1-3,1h0a6.3,6.3,0,0,1-.75-.05h0c-.23,0-.46-.12-.61-.12h0a1.54,1.54,0,0,0-.36.2h0c-.42.25-.75.48-1.2.73Zm1.52-1.24H400a4.23,4.23,0,0,1,.65.12h0a5.74,5.74,0,0,0,.71,0h0a4.32,4.32,0,0,0,2.78-.88h0a1.87,1.87,0,0,0,.67-1.12h0a1.18,1.18,0,0,0,0-.26h0a1.58,1.58,0,0,0-.45-1.08h0a4.24,4.24,0,0,0-3.07-1.13h0a5,5,0,0,0-1.34.18h0a4.83,4.83,0,0,0-1,.42h0a2,2,0,0,0-1.15,1.57h0v.05h0a1.83,1.83,0,0,0,.83,1.45h0l.2.15h0c.08.08.16.12.2.26h0v.05h0a1,1,0,0,1-.15.37h0l-.23.53h0l.78-.48h0a1.35,1.35,0,0,1,.48-.24Z" transform="translate(-388.14 -261.16)"/><path class="cls-5" d="M408.7,274.23c-.14-.31-.26-.62-.42-1,0-.11-.14-.25-.13-.33s.25-.24.34-.31a2,2,0,0,0,.89-1.64,2.09,2.09,0,0,0-1.23-1.69,4.5,4.5,0,0,0-1-.44,4.82,4.82,0,0,0-4.57,1,1.74,1.74,0,0,0-.47,1.48,2.08,2.08,0,0,0,.73,1.21,4.76,4.76,0,0,0,3.61.87,4.24,4.24,0,0,1,.67-.11,1.22,1.22,0,0,1,.42.22C407.93,273.76,408.26,274,408.7,274.23Z" transform="translate(-388.14 -261.16)"/><path class="cls-6" d="M408.63,274.37c-.45-.25-.78-.48-1.2-.73h0a1.24,1.24,0,0,0-.35-.19h0c-.14,0-.37.09-.6.12h0a6.3,6.3,0,0,1-.75.05h0a4.62,4.62,0,0,1-3-1h0a2.22,2.22,0,0,1-.77-1.3h0a1.91,1.91,0,0,1,0-.32h0a1.88,1.88,0,0,1,.54-1.29h0a4.51,4.51,0,0,1,3.3-1.24h0a4.94,4.94,0,0,1,1.43.2h0a4.51,4.51,0,0,1,1.06.45h0a2.26,2.26,0,0,1,1.31,1.83h0V271h0a2.12,2.12,0,0,1-1,1.7h0l-.27.22h0l0,.06h0l.09.17h0c.16.36.28.67.42,1h0l-.15.07.08-.14-.08.14.15-.07.2.44-.42-.23Zm-1.52-1.24a1.27,1.27,0,0,1,.48.24h0l.78.48h0l-.23-.53h0A.93.93,0,0,1,408,273h0a.13.13,0,0,1,0-.05h0c0-.14.12-.18.19-.26h0l.2-.15h0a1.83,1.83,0,0,0,.83-1.45h0V271h0a1.91,1.91,0,0,0-1.15-1.56h0a4.36,4.36,0,0,0-1-.43h0a5,5,0,0,0-1.34-.18h0a4.2,4.2,0,0,0-3.07,1.13h0a1.58,1.58,0,0,0-.45,1.08h0a1.32,1.32,0,0,0,0,.27h0a1.92,1.92,0,0,0,.67,1.11h0a4.34,4.34,0,0,0,2.78.88h0a5.74,5.74,0,0,0,.71,0h0a4.32,4.32,0,0,1,.64-.12h.07Z" transform="translate(-388.14 -261.16)"/><path class="cls-5" d="M426.81,274.59c-.14-.31-.26-.62-.42-1-.05-.1-.15-.24-.14-.32s.25-.25.34-.32a2,2,0,0,0,.89-1.63,2.08,2.08,0,0,0-1.23-1.7,4.17,4.17,0,0,0-1-.43,4.77,4.77,0,0,0-4.57,1,1.69,1.69,0,0,0-.47,1.47,2,2,0,0,0,.72,1.21,4.76,4.76,0,0,0,3.61.88,3.52,3.52,0,0,1,.67-.12,1.22,1.22,0,0,1,.42.22C426,274.12,426.37,274.35,426.81,274.59Z" transform="translate(-388.14 -261.16)"/><path class="cls-6" d="M426.73,274.73c-.45-.25-.78-.47-1.2-.72h0a1.22,1.22,0,0,0-.35-.2h0a5.36,5.36,0,0,0-.61.12h0a6.28,6.28,0,0,1-.75,0h0a4.56,4.56,0,0,1-3-1h0a2.22,2.22,0,0,1-.77-1.3h0a1.82,1.82,0,0,1,0-.32h0a1.9,1.9,0,0,1,.54-1.29h0a4.59,4.59,0,0,1,3.3-1.24h0a5.25,5.25,0,0,1,1.43.2h0a4.36,4.36,0,0,1,1.06.46h0a2.21,2.21,0,0,1,1.31,1.83h0v.06h0a2.11,2.11,0,0,1-.95,1.69h0a2.3,2.3,0,0,0-.27.22h0a.14.14,0,0,0,0,.06h0l.09.17h0c.16.36.28.67.42,1h0l-.14.06.07-.14-.07.14.14-.06.2.43-.42-.23Zm-1.52-1.24a1.6,1.6,0,0,1,.49.24h0l.77.48h0c-.07-.17-.14-.34-.23-.53h0a1.11,1.11,0,0,1-.15-.37h0a.08.08,0,0,1,0,0h0a.49.49,0,0,1,.19-.26h0l.2-.15h0a1.82,1.82,0,0,0,.83-1.45h0v-.06h0a1.91,1.91,0,0,0-1.15-1.56h0a3.78,3.78,0,0,0-1-.42h0a4.62,4.62,0,0,0-1.34-.19h0a4.26,4.26,0,0,0-3.06,1.13h0a1.59,1.59,0,0,0-.46,1.08h0a2.65,2.65,0,0,0,0,.27h0a2,2,0,0,0,.67,1.12h0a4.28,4.28,0,0,0,2.78.87h0a5.63,5.63,0,0,0,.71,0h0c.17,0,.41-.11.65-.12h.06Z" transform="translate(-388.14 -261.16)"/><path class="cls-7" d="M445.61,286.28a1.93,1.93,0,0,0,1-1.32l.3.22a2.21,2.21,0,0,1-1.18,1.42,2.14,2.14,0,0,1-.86.18h-.2l.22-.34A1.69,1.69,0,0,0,445.61,286.28Z" transform="translate(-388.14 -261.16)"/><path class="cls-3" d="M446.44,282.76c.7,1.46.34,3.06-.81,3.58s-2.63-.25-3.33-1.71-.34-3.07.8-3.58,2.64.24,3.34,1.71" transform="translate(-388.14 -261.16)"/><path class="cls-6" d="M396.57,281.78c-.24,1.49-1.37,2.52-2.51,2.31s-1.88-1.59-1.64-3.07,1.36-2.52,2.5-2.3,1.88,1.58,1.65,3.06" transform="translate(-388.14 -261.16)"/><rect class="cls-8" x="15.89" y="8.88" width="3.89" height="0.42"/><rect class="cls-8" x="15.89" y="9.59" width="3.89" height="0.42"/><rect class="cls-8" x="15.86" y="10.27" width="1.48" height="0.44"/><rect class="cls-8" x="11.3" y="16.29" width="3.89" height="0.42"/><rect class="cls-8" x="11.3" y="17" width="3.89" height="0.42"/><rect class="cls-8" x="11.28" y="17.67" width="1.48" height="0.44"/><rect class="cls-8" x="33.69" y="9.41" width="3.89" height="0.42"/><rect class="cls-8" x="33.69" y="10.12" width="3.89" height="0.43"/><rect class="cls-8" x="33.67" y="10.8" width="1.48" height="0.44"/><path class="cls-2" d="M448,300l-1.07,0c-3.15.05-7.23,0-7.23,0-.36.28-.22.85-.3,1.71s-.68,11.37-.68,11.37l.68.16.37-4.88.15,3,.61-.16.45-9.45s4.82.39,6.18.56l.84.07Z" transform="translate(-388.14 -261.16)"/><path class="cls-9" d="M448,288.5c-4.42-1.78-13.44-3-23.86-3-14.78,0-26.75,2.45-26.75,5.47s12,5.47,26.75,5.47c10.42,0,19.44-1.21,23.86-3Z" transform="translate(-388.14 -261.16)"/><path class="cls-10" d="M448.51,287.56c-4.27-1.87-13.52-3.16-24.25-3.16-14.78,0-26.76,2.45-26.76,5.47s12,5.47,26.76,5.47c10.73,0,20-1.29,24.25-3.15Z" transform="translate(-388.14 -261.16)"/><path class="cls-3" d="M425.74,285.07a2,2,0,0,0,1.42.26,2.19,2.19,0,0,1,1-.05c.34.09.13.47.39.47s.94-.21,1.58-.21a3.68,3.68,0,0,1,1.25.3,15,15,0,0,0,4.3-.13,6.26,6.26,0,0,0,2.32-.94,1.76,1.76,0,0,0,.39-1.34c-.13-.43-2.89-4.3-2.89-4.3s-1.62-1.89-1.86-2.05-.69-.38-1.1-.58a2.14,2.14,0,0,1-2.06,1.13,2.1,2.1,0,0,1-1.52-1.17,4.34,4.34,0,0,0-2.19,1.43,15.12,15.12,0,0,0-1.09,4C425.53,283.12,425.39,284.81,425.74,285.07Zm8.29-.89s0-1.8.45-2l1,1.27Z" transform="translate(-388.14 -261.16)"/><path class="cls-3" d="M406.13,284.1a1.77,1.77,0,0,1-.22-.56,2.11,2.11,0,0,1,.12-.92l3.24-4.6.65-.63a12.91,12.91,0,0,1,.92,2.29,39.87,39.87,0,0,1-2.39,3.39l2.5,2.06a3.59,3.59,0,0,1,.71-.11,2.69,2.69,0,0,1,.56,0l.65.22s.43.25.54.34a.14.14,0,0,1,0,.24c-.06.06-.19,0-.33,0a3.33,3.33,0,0,0-.56-.23c-.09,0-.28,0-.21.06s.67.52.93.68.58.39.73.5.24.14.16.25-.31.33-.43.26-.2,0-.24.09-.15,0-.2,0a.33.33,0,0,0-.3.13c-.09.11-.1.11-.31.08a3,3,0,0,1-1.14-.41,3,3,0,0,1-.45-.35c-.14-.12-.14-.05-.14-.05l-.37.52-4.15-2.83Z" transform="translate(-388.14 -261.16)"/><path class="cls-11" d="M431.05,285.91c-.7,0-.37.89-.49,1.5-.08.34-.29.33-.43.56.16.13.55,0,.82.07,0,.11-.14.09-.16.19H428.6c0-.13-.14-.08-.13-.19.28-.05.75.11.83-.14a10.77,10.77,0,0,1-1.06-.86.93.93,0,0,1-.13-.63.58.58,0,0,1,.63-.26c0-.19-.31-.14-.37-.3C429.21,286,430.4,285.8,431.05,285.91Zm-2.18,1.36a3.5,3.5,0,0,0-.07-.92C428,285.92,428.25,287.26,428.87,287.27Z" transform="translate(-388.14 -261.16)"/><path class="cls-11" d="M428.79,289.48c-.7,0-.36.88-.49,1.49-.08.34-.29.33-.43.56.16.13.56,0,.83.07,0,.11-.15.09-.17.2h-2.19c0-.14-.13-.09-.13-.2.28-.05.75.11.83-.14-.26-.27-.82-.54-1.06-.86a.93.93,0,0,1-.13-.63.59.59,0,0,1,.63-.26c0-.19-.3-.14-.37-.3C427,289.52,428.14,289.36,428.79,289.48Zm-2.18,1.35a3.5,3.5,0,0,0-.07-.92C425.69,289.48,426,290.82,426.61,290.83Z" transform="translate(-388.14 -261.16)"/><path class="cls-11" d="M410.61,286.23c-.71,0-.37.89-.5,1.49-.07.35-.29.34-.43.57.17.13.56,0,.83.06,0,.12-.15.1-.17.2h-2.18c0-.13-.14-.08-.13-.2.27,0,.75.12.82-.13a12,12,0,0,1-1.05-.86.94.94,0,0,1-.14-.63.59.59,0,0,1,.63-.26c0-.2-.3-.14-.36-.3C408.77,286.28,410,286.12,410.61,286.23Zm-2.19,1.36a3.16,3.16,0,0,0-.06-.92C407.5,286.24,407.8,287.58,408.42,287.59Z" transform="translate(-388.14 -261.16)"/><path class="cls-11" d="M411,289.94c-.71,0-.37.88-.5,1.49-.07.35-.29.33-.43.56.16.14.56,0,.83.07,0,.11-.15.1-.17.2h-2.18c0-.13-.14-.08-.13-.2.27,0,.75.11.82-.13-.26-.28-.81-.54-1.06-.86a1,1,0,0,1-.13-.63.59.59,0,0,1,.63-.27c0-.19-.3-.14-.36-.3C409.12,290,410.3,289.82,411,289.94Zm-2.19,1.36a3.24,3.24,0,0,0-.06-.93C407.85,289.94,408.15,291.29,408.77,291.3Z" transform="translate(-388.14 -261.16)"/><path class="cls-11" d="M438,287c-.71,0-.37.88-.5,1.49-.07.34-.29.33-.43.56.16.13.56,0,.83.07,0,.11-.15.09-.17.2h-2.18c0-.14-.14-.09-.14-.2.28,0,.76.11.83-.13-.26-.28-.81-.55-1.06-.87a.91.91,0,0,1-.13-.62.57.57,0,0,1,.63-.27c0-.19-.3-.14-.36-.3C436.19,287,437.37,286.85,438,287Zm-2.19,1.35a3.56,3.56,0,0,0-.06-.92C434.92,287,435.22,288.32,435.84,288.32Z" transform="translate(-388.14 -261.16)"/><path class="cls-3" d="M448.17,287a12.73,12.73,0,0,0-1.89-1.85,2.17,2.17,0,0,1-1.12,1.45,2,2,0,0,1-1,.17,9.92,9.92,0,0,0-.66,1l-.35.47-2.62,3.63-3.39-1.19-.09.2c0-.1-.07-.22-.13-.37a4,4,0,0,0-.24-.53l-.5-.49a5.27,5.27,0,0,0-.55-.34.15.15,0,0,0-.22.11c0,.08.05.19.18.29a4,4,0,0,1,.46.41c0,.08.13.26,0,.22s-.77-.37-1-.53a7.56,7.56,0,0,0-.78-.43c-.17-.08-.24-.16-.3,0s-.15.44,0,.52.05.2,0,.27.06.14.11.18a.35.35,0,0,1,0,.33c-.06.14,0,.14.08.33a2.87,2.87,0,0,0,.88.85,4.44,4.44,0,0,0,.52.26c.17.07.11.1.11.1l.67.42h0l-.11.29a42.87,42.87,0,0,0,3.89,2.29,2.16,2.16,0,0,0,1.48-.37,22.84,22.84,0,0,1,2-1.45c.23.64.46,1.23.58,1.59s.2.62.3,1c-.93,0-2.16,0-2.92.06-1.42.05-3.27,0-4.41.6-1.65.9-3,13.46-3,13.46h.17c-.3.39-.61.72-.86.73-.44,0-1.21.3-1.57.3s-.27.3-.19.57c.21.76,3.45.9,4.41.78s1.68.09,1.85-.44a2.19,2.19,0,0,0-.07-1.35,3.93,3.93,0,0,0-.18-.36h.06l1.42-9.79.61-.4,4.72.33a11.63,11.63,0,0,0,2.13.33,8.12,8.12,0,0,0,1.48,0Z" transform="translate(-388.14 -261.16)"/><path class="cls-3" d="M413.85,310.3l.29.09a9.32,9.32,0,0,0-.1,1.46,6.2,6.2,0,0,1-.23,1.36c0,.33.61.28,1.12.28s1.18,0,1.74,0,.33-.24.38-.52-.1-.38-.24-.71-.33-.94-.33-.94l0-2.62.33-4.32,2.87-2.12.86,3.54-.58,3.53-.37,2.25s.31.11.31.15a4.82,4.82,0,0,0-.41.58,8.63,8.63,0,0,0-.28,1.54c0,.18.6.12,1.3.2a5.86,5.86,0,0,0,2-.1,1.73,1.73,0,0,0,1.19-.74c.13-.1,0-.41-.09-.52a2.52,2.52,0,0,0-.88-.3,1.79,1.79,0,0,1-.75-.49h.9l.06-.71.53-3.55s1-4.88,1-5.76-1.21-1.61-1.72-1.66a4.63,4.63,0,0,0-2.35.44s-.76.57-.75,0l.56.44-5.34,1.13-.25-.63c0,.27-.05.34-.06.63a7.35,7.35,0,0,0,.06,2.19l-.29-.32-.06,2Z" transform="translate(-388.14 -261.16)"/><path class="cls-3" d="M421.88,285.47c0,1.72-1,3.09-2.31,3s-2.37-1.47-2.4-3.2,1-3.1,2.31-3.05,2.38,1.47,2.4,3.2" transform="translate(-388.14 -261.16)"/><path class="cls-5" d="M423.07,284.93c.14-.31.26-.62.42-1,.05-.1.14-.24.13-.32s-.24-.25-.33-.32a1.92,1.92,0,0,1-.89-1.63,2.07,2.07,0,0,1,1.22-1.7,4.41,4.41,0,0,1,1-.43,4.77,4.77,0,0,1,4.57,1,1.7,1.7,0,0,1,.47,1.48,2,2,0,0,1-.72,1.21,4.77,4.77,0,0,1-3.61.87,4.43,4.43,0,0,0-.68-.12,1.55,1.55,0,0,0-.42.22C423.84,284.46,423.51,284.69,423.07,284.93Z" transform="translate(-388.14 -261.16)"/><path class="cls-6" d="M423.15,285.07l-.42.23.2-.43.14.06-.07-.14.07.14-.14-.06h0c.14-.31.26-.62.42-1h0c0-.06.06-.11.08-.16h0a.13.13,0,0,0,0-.07h0l-.27-.22h0a2.11,2.11,0,0,1-.95-1.69h0v-.06h0a2.22,2.22,0,0,1,1.3-1.83h0a4.61,4.61,0,0,1,1.07-.46h0a5.25,5.25,0,0,1,1.43-.19h0a4.54,4.54,0,0,1,3.3,1.23h0a2,2,0,0,1,.54,1.29h0a1.73,1.73,0,0,1,0,.32h0a2.22,2.22,0,0,1-.77,1.3h0a4.57,4.57,0,0,1-3,1h0a6.23,6.23,0,0,1-.74,0h0c-.23,0-.46-.12-.61-.12h0a1.54,1.54,0,0,0-.35.2h0c-.42.25-.75.48-1.2.72Zm1.52-1.23h.06a6.43,6.43,0,0,1,.65.12h0a5.49,5.49,0,0,0,.7.05h0a4.35,4.35,0,0,0,2.79-.88h0a2,2,0,0,0,.67-1.12h0a2.45,2.45,0,0,0,0-.27h0a1.59,1.59,0,0,0-.46-1.08h0a4.26,4.26,0,0,0-3.06-1.13h0a4.57,4.57,0,0,0-1.34.19h0a4.15,4.15,0,0,0-1,.42h0a1.91,1.91,0,0,0-1.15,1.57h0v.05h0a1.8,1.8,0,0,0,.83,1.45h0a2,2,0,0,1,.2.15h0a.49.49,0,0,1,.19.26h0v0h0a1.14,1.14,0,0,1-.14.37h0c-.09.19-.16.37-.23.54h0l.77-.48h0a1.25,1.25,0,0,1,.49-.24Z" transform="translate(-388.14 -261.16)"/><rect class="cls-8" x="35.98" y="19.63" width="3.89" height="0.42"/><rect class="cls-8" x="35.98" y="20.35" width="3.89" height="0.42"/><rect class="cls-8" x="35.96" y="21.02" width="1.48" height="0.44"/><path class="cls-3" d="M420.39,287.43h0S420.36,287.41,420.39,287.43Zm-7.54,6.79c.36.06,1.45.12,1.45.12l.81-1.32a10.56,10.56,0,0,1,.1,1.35l-.25-.1c1.45.71,3.23,2.9,3.62,2.83a5.15,5.15,0,0,1,1.49-.3c.78,0,1.6.21,1.91.21s0-.38.46-.47,1,2.91,1.63,3,1.66,1,1.91-.84a14.28,14.28,0,0,0-.57-5.47,13.34,13.34,0,0,0-1.31-4,5.92,5.92,0,0,0-2.84-1.48,6.19,6.19,0,0,1-.87-.34,20.29,20.29,0,0,0-2.78.3c-.47.17-1.42.64-1.73.73a22,22,0,0,0-3.27,3.5C412.45,292.38,411.66,294,412.85,294.22Z" transform="translate(-388.14 -261.16)"/><path class="cls-2" d="M413,307s.14-1.27.93-1.45c0-.29-.32-.19-.23-1.27s.8-10.24.8-10.24a.72.72,0,0,1,.53-.72l4.44.05,4.44-.05a.72.72,0,0,1,.53.72s.71,9.16.8,10.24-.19,1-.23,1.27c.8.18.94,1.45.94,1.45l.93,9.22-1.45-.09s-.14-3-.14-3.4a63.2,63.2,0,0,0-.79-6.29c-.24-.52-.9-.42-1.37-.42l-3.05,0v0h-1.21v0l-3.06,0c-.47,0-1.13-.1-1.36.42a60.47,60.47,0,0,0-.8,6.29c0,.38-.14,3.4-.14,3.4l-1.45.09Z" transform="translate(-388.14 -261.16)"/><path class="cls-12" d="M390.14,297.52a.92.92,0,0,0,.31.31,3.63,3.63,0,0,0,.18.74c.21.46,1.18.73,2.6.72s3.85-.29,4.67-.18a1.82,1.82,0,0,1,1.1.43l-1.68,7.66.12,0a1.86,1.86,0,0,0-.15,1c.08.55,1,.52,1.81.77a12.9,12.9,0,0,0,3.79.38,1.69,1.69,0,0,0,0,.7c.16.53,1.07.38,1.9.52,1,.16,4.37.16,4.62-.57.09-.27.19-.58-.18-.59s-1.16-.33-1.61-.36c-.26,0-.57-.36-.85-.74l.3,0-2.28-8.06a24.67,24.67,0,0,0-.64-2.89c-.27-.69-.18-.68-1.66-1.26a37.63,37.63,0,0,0-5.58-1.84l.08-.18a.31.31,0,0,1,0-.09c1.63-.45,4.68-1.51,4.68-1.51l-.21-.37c.28,0,.62.09.86.11a1,1,0,0,0,.7-.12c.19-.11,1.05-.48,1.16-.56s.14-.08.16-.23-.17-.14-.17-.14.42-.14.44-.27-.17-.22-.39-.17l-.84.22a5,5,0,0,1-1,0,.29.29,0,0,1-.25-.13l.56-.16a.73.73,0,0,0,.37-.34c.08-.1,0-.12,0-.12l-.51.07-1.25.2a.67.67,0,0,0-.51.35l-.22-.39-.49.07a8.74,8.74,0,0,1-1.85.27,7.59,7.59,0,0,1-1.69-.47l-.09-.67,2.93.57,0-.3a.78.78,0,0,0,.39.12l1.27,0h.52s.11,0,0-.12a.75.75,0,0,0-.41-.29l-.59-.08a.3.3,0,0,1,.24-.17,5,5,0,0,1,1-.11l.87.11c.22,0,.4-.09.36-.22s-.48-.21-.48-.21.2,0,.16-.16-.08-.14-.2-.21-1-.33-1.23-.41a1,1,0,0,0-.71,0c-.3.07-.75.22-1.07.27l0-.44L396,287l0-.14c-.18-.77-.41-1.75-.69-2.65a1.91,1.91,0,0,1-1.32.26,2.16,2.16,0,0,1-1.44-1.13,8.67,8.67,0,0,0-1.44,1.93c-1.12,2.48-1.45,6.92-1.51,8.27A8.26,8.26,0,0,0,390.14,297.52Zm11.08,9.23.35-3.95,1.18,5.28a3.25,3.25,0,0,0-.64-.22C401.8,307.79,401.49,307.27,401.22,306.75Z" transform="translate(-388.14 -261.16)"/><path class="cls-2" d="M388.42,289.39l1.31.05s.29,6.79.77,7.84.51,1.59,3.54,1.55,6.27-.18,6.27-.18a1.67,1.67,0,0,1,1.2,2.09c-.11.75.14,10.73.14,10.73l-.69.13-.4-8.8v-2.07h-.62s-4.84.17-6.2.26a12.22,12.22,0,0,1-2.27,0s-.83,9.4-1,9.7-1-.12-1-.12l1.08-9.92.18-.6S388.84,300.37,388.42,289.39Z" transform="translate(-388.14 -261.16)"/><path class="cls-5" d="M440.3,282.72c-.14-.31-.26-.62-.42-1,0-.11-.14-.24-.13-.32s.25-.25.33-.32a1.94,1.94,0,0,0,.89-1.63,2.07,2.07,0,0,0-1.22-1.7,4.7,4.7,0,0,0-1-.44,4.82,4.82,0,0,0-4.57,1,1.72,1.72,0,0,0-.47,1.48,2,2,0,0,0,.72,1.21,4.79,4.79,0,0,0,3.62.88,3.26,3.26,0,0,1,.67-.12,1.31,1.31,0,0,1,.42.22C439.53,282.25,439.86,282.48,440.3,282.72Z" transform="translate(-388.14 -261.16)"/><path class="cls-6" d="M440.23,282.86c-.46-.25-.79-.48-1.2-.73h0a1.59,1.59,0,0,0-.36-.19h0c-.14,0-.38.09-.61.12h0a6.27,6.27,0,0,1-.74.05h0a4.6,4.6,0,0,1-3-1h0a2.23,2.23,0,0,1-.78-1.3h0a1.77,1.77,0,0,1,0-.32h0a1.94,1.94,0,0,1,.53-1.29h0a4.59,4.59,0,0,1,3.3-1.24h0a5.2,5.2,0,0,1,1.43.2h0a5,5,0,0,1,1.07.45h0a2.25,2.25,0,0,1,1.3,1.83h0v.06h0a2.12,2.12,0,0,1-.95,1.7h0c-.07.06-.23.17-.27.22h0a.09.09,0,0,0,0,.06h0c0,.05.06.11.09.17h0c.16.36.28.67.42,1h0l-.15.07.08-.14-.08.14.15-.07.2.44-.42-.23Zm-1.53-1.24a1.32,1.32,0,0,1,.49.24h0l.77.48h0l-.22-.53h0a.93.93,0,0,1-.15-.37h0v-.05h0a.47.47,0,0,1,.2-.25h0c.07-.07.16-.13.19-.16h0a1.84,1.84,0,0,0,.84-1.45h0v0h0a1.93,1.93,0,0,0-1.15-1.56h0a4.09,4.09,0,0,0-1-.42h0a4.69,4.69,0,0,0-1.35-.19h0a4.24,4.24,0,0,0-3.06,1.13h0a1.59,1.59,0,0,0-.46,1.08h0a1.39,1.39,0,0,0,0,.27h0a1.87,1.87,0,0,0,.67,1.11h0a4.24,4.24,0,0,0,2.78.88h0a5.74,5.74,0,0,0,.71,0h0a4.32,4.32,0,0,1,.64-.12h.06Z" transform="translate(-388.14 -261.16)"/><rect class="cls-8" x="47.44" y="17.7" width="3.89" height="0.42"/><rect class="cls-8" x="47.44" y="18.41" width="3.89" height="0.42"/><rect class="cls-8" x="47.42" y="19.08" width="1.48" height="0.44"/><rect class="cls-13" x="0.5" y="0.5" width="59.42" height="59.42"/><rect class="cls-14" x="49.71" y="60.24" width="10.67" height="10.4"/><path d="M445.85,326.74c0,2-.82,3.45-2.5,3.45s-2.47-1.54-2.48-3.41.81-3.43,2.52-3.43S445.85,324.92,445.85,326.74Zm-3.43,0c0,1.51.37,2.23,1,2.23s.92-.75.92-2.25-.31-2.24-.93-2.24S442.42,325.23,442.42,326.78Z" transform="translate(-388.14 -261.16)"/></svg>