<svg id="Layer_1" data-name="Layer 1" xmlns="http://www.w3.org/2000/svg" viewBox="0 0 60.42 70.6"><defs><style>.cls-1{fill:#bfbfbf;}.cls-2{fill:#12100b;}.cls-3{fill:#535353;}.cls-3,.cls-4,.cls-5,.cls-6,.cls-8,.cls-9{fill-rule:evenodd;}.cls-4{fill:#343434;}.cls-6{fill:#d8d8d8;}.cls-7{fill:#5c5c5c;}.cls-8{fill:#5b5b5b;}.cls-9{fill:#fff;}.cls-10{fill:none;stroke:#1d1d1b;}.cls-11{fill:#f2f2f2;}</style></defs><rect class="cls-1" x="0.21" y="60.2" width="60.01" height="10.4"/><path class="cls-2" d="M419.68,315.62c-.32-.12-1.57-.36-1.87-.52s-1.42-.72-2.06-1.1l-.08-.91.2.08a10.19,10.19,0,0,0,1.64,0c.51-.08,1.89-.27,2-.81s-.29-.58-.4-.63-.74-.2-1.05-.31a2.74,2.74,0,0,1-1.66-1,16.9,16.9,0,0,0-1-1.41l-.14-.81-.31-3.64c0-1.3,0-3.22,0-3.77a16.49,16.49,0,0,0-.33-3,2.13,2.13,0,0,0-1.62-1.07c-1.38-.24-4.82-.73-5.36-.8s-1.66-.25-2.9-.46c-.12-.38-.49-1.48-.49-1.48s-1.67-7.39-2.08-8.43a8.54,8.54,0,0,0-.69-1.49,2.92,2.92,0,0,1-2.92-.7,2.85,2.85,0,0,1-.38-.55l-.21-.46a10,10,0,0,0-2.17,2.2,11.44,11.44,0,0,0-1.18,4.14,85,85,0,0,0,.76,10.48c0,.13.32.14.68.11a6.49,6.49,0,0,0,.1,1.21,3,3,0,0,0,2.47,2.85c1.36.36,9.85.28,11.36.26l.35,10.83,1,0a1.05,1.05,0,0,0,0,.43,1.53,1.53,0,0,1-.13.82c-.06.24-.06.64.58.89s3.65.7,4.11.82a5.82,5.82,0,0,0,2.3-.07c.57-.19,1.68-.41,1.81-.89S420,315.73,419.68,315.62Z" transform="translate(-388.14 -261.18)"/><path class="cls-3" d="M443.13,301.45l.28-.13a.61.61,0,0,0,.3-.34c0-2.16.1-4.45.14-6.92.1-3.33.31-7.16.12-10.41-.56-.68-2-.49-3-.69h-2.43c-.19,0-.2-.11-.35-.12h-5.67c-.4-.09-.44.17-.81.12h-2.31c-1.4.22-3.21,0-4.05.81a5.34,5.34,0,0,0-.23,2.31v7.52c-.09.4.17.44.12.81v2c.66,1.23,2.5,1.28,3.93,1.74,1.57.28,2.9.8,4.51,1v2.78c-.78-.21-2.32-.59-2.08.81.29-.15.48.34.58,0,.22-.05.09-.45.46-.35.83.21,1.51.57,2.31.81.45.34-.38.68-.11.81a1.86,1.86,0,0,0,1.73-.46c-.16-.95-1.2-1-2.08-1.28V299.5c.15-.21.62.21,1,.12.23.23.78.14,1,.34.84.05,1.4.38,2.2.46,1.17.34,2.89.7,4.26,1Zm-4.83-9.93s-.18-.06-.12-.12S438.36,291.46,438.3,291.52Zm2.77.23c0,.12-.05.29-.11.11S441,291.57,441.07,291.75Zm-.34,3s.17.06.11.12S440.67,294.82,440.73,294.75Zm-.23.24s.17.05.11.11S440.43,295.05,440.5,295Zm-.12-.7c0-.11.2-.14.23,0C440.48,294.28,440.43,294.46,440.38,294.29Zm.23-1s-.18-.05-.11-.12S440.67,293.19,440.61,293.25Zm0-1.73c0,.14-.13.07-.23,0A.12.12,0,0,1,440.61,291.52Zm-.23-.58s.18.05.12.11S440.32,291,440.38,290.94Zm-.81,3.7c0-.06.09-.13.12,0S439.59,294.77,439.57,294.64Zm.46.35c0-.07.1-.13.12,0S440.05,295.12,440,295Zm.35.34a2.8,2.8,0,0,0,.35.58C440.27,296,440,295.39,440.38,295.33Zm.69.23c0-.15-.67-.14-.23-.34C440.82,295.37,441.51,295.37,441.07,295.56Z" transform="translate(-388.14 -261.18)"/><path class="cls-4" d="M439.46,294.06c-.13.61.35.14,0,0C439.47,293.92,439.28,294,439.46,294.06Z" transform="translate(-388.14 -261.18)"/><path class="cls-5" d="M431.78,288.47c-.51.07,0,1.11-.34,1.39.22.22.29,0,.58,0C431.44,289.78,431.71,288.91,431.78,288.47Z" transform="translate(-388.14 -261.18)"/><path class="cls-5" d="M434.91,289.51c-.42.09-.16.85-.23,1.28h.46c0-.14-.21-.1-.35-.12A2.94,2.94,0,0,0,434.91,289.51Z" transform="translate(-388.14 -261.18)"/><path class="cls-5" d="M433.87,289.51c-.35.16-.21.8-.24,1.28h.47c0-.2-.09-.22-.23-.24Z" transform="translate(-388.14 -261.18)"/><path class="cls-5" d="M431.67,290.32c-.15.22-.61,1.47.23,1.28C431.52,291.47,431.71,290.78,431.67,290.32Z" transform="translate(-388.14 -261.18)"/><path class="cls-5" d="M434.79,291.13c-.44-.09-.15.55-.23.81s0,.66.46.58c0-.19-.09-.22-.23-.23Z" transform="translate(-388.14 -261.18)"/><path class="cls-5" d="M433.75,291.13c-.49,0-.08.93-.35,1.16H434c0-.13-.21-.1-.35-.11C433.55,291.71,433.75,291.51,433.75,291.13Z" transform="translate(-388.14 -261.18)"/><path class="cls-5" d="M437.8,291.37c-.44.06-.15.85-.35,1.15H438c0-.14-.21-.09-.35-.11C437.6,291.94,437.8,291.75,437.8,291.37Z" transform="translate(-388.14 -261.18)"/><path class="cls-5" d="M425.42,299.23c0-.13-.11-.06-.11,0S425.42,299.3,425.42,299.23Z" transform="translate(-388.14 -261.18)"/><path class="cls-3" d="M428.58,300.42a27.42,27.42,0,0,1,3.59,1.16.83.83,0,0,0-.81,1,1.78,1.78,0,0,0,1,.58c.05-.22-.16-.7.23-.58a6.33,6.33,0,0,1,2.31.93c-.24.15-.58.18-.58.58.88.27,2.12.07,2.43-.58,0-.27-.6-.72-.11-.7,1.86.68,3.92,1.17,5.78,1.85v5.9c-1.49.52-2.92,1.09-4.39,1.62-1.95-.9-4-1.68-6.13-2.42s-4.09-1.62-6.14-2.44v-5.43A17.61,17.61,0,0,0,428.58,300.42Zm9.49,6c-.05,2,.05,3.33.11,5,0,.14,0,.21.12.23v-5.2c.52-.37,1.33-.44,1.85-.81.46,0,.67-.25,1-.35.2-.22.8,0,.81-.46-1.33.4-2.5,1-3.82,1.39-3.77-1.25-7.46-2.57-11.1-3.94-.2,0-.22.1-.24.24,2,.56,3.81,1.28,5.67,2S436.24,305.76,438.07,306.44Zm-7.87-2.2c.06-.06-.08-.15-.12-.11S430.17,304.27,430.2,304.24Zm.35.23c0,.14.17.07,0,0C430.51,304,430,304.5,430.55,304.47Zm1.73,1.28c.06-.06-.08-.15-.11-.12S432.25,305.78,432.28,305.75Zm.23.23c.06-.06-.08-.15-.11-.12S432.48,306,432.51,306Zm.24.11c0,.14.16.07,0,0C432.76,306,432.58,306,432.75,306.09Zm.69.58c.06-.06-.09-.15-.12-.12S433.41,306.7,433.44,306.67Zm1.16.81c.06-.06-.09-.15-.12-.12S434.56,307.51,434.6,307.48Zm1,.81c.06-.06-.09-.15-.12-.11S435.6,308.32,435.64,308.29Zm.23.12c0,.13.17.07,0,0C435.88,308.27,435.7,308.33,435.87,308.41Zm.58.46c0,.14.17.07,0,0C436.46,308.73,436.28,308.8,436.45,308.87Zm.34.23c0,.14.17.07,0,0C436.81,309,436.62,309,436.79,309.1Z" transform="translate(-388.14 -261.18)"/><path class="cls-6" d="M426.75,285l.12,10.17a2.91,2.91,0,0,0,2,1.29c1.52.35,12.5,2.33,12.5,2.33l.36-13.21Z" transform="translate(-388.14 -261.18)"/><path d="M406.68,279.79l.91-1.15c.16-.19.29-.34.45-.51h-1.26v-.72h2.36V278l-.87,1.09a6.11,6.11,0,0,1-.47.53h1.39v.72h-2.51Z" transform="translate(-388.14 -261.18)"/><path d="M414.69,274.15l1.64-2.06.82-.92v0h-2.28v-1.29h4.26v1l-1.56,2c-.29.33-.56.66-.85.95v0h2.5v1.29h-4.53Z" transform="translate(-388.14 -261.18)"/><path d="M410.18,277.16l1.21-1.53c.22-.25.39-.44.61-.67v0h-1.69V274h3.15v.72l-1.16,1.46a8.65,8.65,0,0,1-.63.7v0h1.85v.95h-3.34Z" transform="translate(-388.14 -261.18)"/><path class="cls-7" d="M409.79,302l-1.18-.07L398,301.54l-.16-.49s-1-3.45-1.14-4.64-3.19-12-3.51-12.51-2.21-.14-2.21-.14l-.49.42c-.49.42,1.51,7.24,2,10.19.58,3.23,1.65,10.28,1.45,13.3s-.57,10.31-.57,10.31a14.06,14.06,0,0,1,1.89.2c.41-.64.42-12.42.42-12.42l12.5.28,1,12.72,1.79.09-.73-16.4A2,2,0,0,0,409.79,302Z" transform="translate(-388.14 -261.18)"/><rect class="cls-7" x="6.9" y="46.58" width="13.31" height="1.11"/><path class="cls-7" d="M396.76,305.7s-.19,3.69-.43,5a12.48,12.48,0,0,1-.92,2.63l1.65.16s.93-6.63.87-8.43-1.11-.53-1.11-.53Z" transform="translate(-388.14 -261.18)"/><path class="cls-5" d="M403.28,308.21c-.3-.15-.3-.47-.37-.88.07-.15.09-.35.25-.39,0-.11-.23-.12-.19-.3s.23-.25.2-.56-.23-.59-.71-.61c-.12.54.47,1.71-.37,1.51a2.21,2.21,0,0,1-.34-1.11,3.65,3.65,0,0,1,0-.74,3.21,3.21,0,0,1,.16-1.64c-.06-.31-.3-.47-.49-.68.1-.19.39-.13.56-.23a2.88,2.88,0,0,1,.61-.17c.07,0,.09-.08.16-.08.28.27.48.6.75.88.16.76.49,1.4.64,2.16a10.91,10.91,0,0,0,.07,1.31,7.64,7.64,0,0,1-.34.92C403.78,307.93,403.67,308.26,403.28,308.21Z" transform="translate(-388.14 -261.18)"/><path class="cls-2" d="M400.47,285.84l1.66,9.44,2.22,8.61-3.8-.14-2-8s-3-3.15.81-10.63" transform="translate(-388.14 -261.18)"/><path class="cls-2" d="M403.34,282.59c-1.43,1.38-3.44,1.57-4.48.44s-.72-3.16.71-4.54,3.44-1.57,4.48-.44.73,3.17-.71,4.54" transform="translate(-388.14 -261.18)"/><path class="cls-8" d="M439.43,263.87c0,.65.34,2.12-.39,2.11S438.36,262.93,439.43,263.87Z" transform="translate(-388.14 -261.18)"/><path class="cls-8" d="M436.26,267.18c-.56.07-.65-.27-1-.58s-1.29-1.17-.29-1.24C435.32,265.33,437,266.75,436.26,267.18Z" transform="translate(-388.14 -261.18)"/><path class="cls-8" d="M442.93,265.4c.27-.06.58,0,.58.34s-1.2,1.49-1.44,1.49c-1.17,0,.42-1.57.62-1.73A2.08,2.08,0,0,1,442.93,265.4Z" transform="translate(-388.14 -261.18)"/><path class="cls-8" d="M438.76,267a2.75,2.75,0,0,1,3.12,2.4,2.91,2.91,0,0,1-4.28,2.88A2.87,2.87,0,0,1,438.76,267Zm-1.54,2a2,2,0,0,0,1.82,2.83,2.11,2.11,0,0,0,1.88-1.25,2,2,0,0,0-3.7-1.58Z" transform="translate(-388.14 -261.18)"/><path class="cls-9" d="M438.76,267.85a2,2,0,0,1,2.16,2.69,2.11,2.11,0,0,1-1.88,1.25,2,2,0,0,1-.28-3.94Z" transform="translate(-388.14 -261.18)"/><path class="cls-8" d="M435.2,269.58V270c-.43.27-2.17.43-2.25-.14C432.83,269.1,434.76,269.26,435.2,269.58Z" transform="translate(-388.14 -261.18)"/><path class="cls-8" d="M445.1,269.53a.61.61,0,0,1-.1.63,5.91,5.91,0,0,1-2-.05C442.5,269,444.6,269.33,445.1,269.53Z" transform="translate(-388.14 -261.18)"/><path class="cls-8" d="M436.45,272.61c.1.48-.26.64-.57,1s-1.09,1.16-1.25.33c-.06-.28,1.16-1.83,1.73-1.44A.13.13,0,0,0,436.45,272.61Z" transform="translate(-388.14 -261.18)"/><path class="cls-8" d="M441.93,272.41c.34-.12,1.63,1,1.58,1.45-.08.8-.88.12-1.25-.25C442.11,273.46,441.2,272.67,441.93,272.41Z" transform="translate(-388.14 -261.18)"/><path class="cls-8" d="M439.33,275.82c-1.2.53-.92-3.06.1-2A4.31,4.31,0,0,1,439.33,275.82Z" transform="translate(-388.14 -261.18)"/><rect class="cls-10" x="0.5" y="0.5" width="59.42" height="59.42"/><rect class="cls-11" x="49.71" y="60.2" width="10.67" height="10.4"/><path d="M441,330.05v-.93l.84-.77c1.46-1.3,2.16-2,2.17-2.82,0-.53-.32-1-1.08-1a2.45,2.45,0,0,0-1.42.54l-.43-1.1a3.6,3.6,0,0,1,2.15-.68,2.05,2.05,0,0,1,2.33,2.06,4.07,4.07,0,0,1-1.77,2.86l-.61.51v0h2.51v1.27Z" transform="translate(-388.14 -261.18)"/></svg>