<svg id="Layer_1" data-name="Layer 1" xmlns="http://www.w3.org/2000/svg" viewBox="0 0 60.42 70.6"><defs><style>.cls-1{fill:#333;}.cls-2{fill:gray;}.cls-2,.cls-3,.cls-5,.cls-6,.cls-8,.cls-9{fill-rule:evenodd;}.cls-3{fill:#e6e6e6;}.cls-4{fill:#888;}.cls-5{fill:#fff;}.cls-6,.cls-7{fill:#12100b;}.cls-8{fill:#d9d9d9;}.cls-9{fill:#5b5b5b;}.cls-10{fill:none;stroke:#1d1d1b;}.cls-11{fill:#bfbfbf;}.cls-12{fill:#f2f2f2;}</style></defs><rect class="cls-1" x="0.99" y="0.54" width="31.17" height="59.05"/><path class="cls-2" d="M443.27,320.68a13.35,13.35,0,0,0-1-5.95c-1.4-3.28-5-9.44-6.08-13.13s-2.36-8.34-2.46-10.11-29-2.4-29-2.4l-4.68,4.12a41,41,0,0,0-2.25,5.83c-.39,1.84-3.82,18.66-4,19.48-.06.28-.22,1.09-.4,2.16Z" transform="translate(-388.13 -261.18)"/><path class="cls-3" d="M400.55,264.07a5.31,5.31,0,0,1,2.38.56,4.81,4.81,0,0,0-.14,9.6,5.4,5.4,0,0,1-2.24.49,5.33,5.33,0,0,1,0-10.65Z" transform="translate(-388.13 -261.18)"/><polygon class="cls-3" points="6.09 2.49 5.71 3.27 4.84 3.4 5.47 4.01 5.32 4.87 6.09 4.47 6.87 4.87 6.72 4.01 7.34 3.4 6.48 3.27 6.09 2.49"/><polygon class="cls-3" points="21.21 8.69 20.82 9.47 19.96 9.59 20.58 10.2 20.44 11.06 21.21 10.66 21.98 11.06 21.84 10.2 22.46 9.59 21.6 9.47 21.21 8.69"/><polygon class="cls-3" points="7.48 13.21 7.09 13.99 6.23 14.12 6.85 14.73 6.71 15.59 7.48 15.18 8.25 15.59 8.1 14.73 8.73 14.12 7.86 13.99 7.48 13.21"/><polygon class="cls-3" points="16.69 4.77 16.3 5.55 15.44 5.68 16.06 6.29 15.91 7.15 16.69 6.74 17.46 7.15 17.31 6.29 17.94 5.68 17.07 5.55 16.69 4.77"/><rect class="cls-4" x="13.91" y="18.75" width="29.11" height="12.23"/><path class="cls-5" d="M404.66,286.5a3.09,3.09,0,0,1,2.18-1.91c1.68-.38,18.13-.91,18.13-.91s3.44-.62,4.11,0,.42,1.52-.09,2.59.25,5,.34,6.11a53.21,53.21,0,0,1-.76,5.88l-4.19.31s-14.69.61-15.44.84a14.89,14.89,0,0,1-1.93.38,3.39,3.39,0,0,1-.84-2.52c.25-1.3,1.17-3.82,1.26-5.2a3.85,3.85,0,0,0-1.26-3.43A6,6,0,0,1,404.66,286.5Z" transform="translate(-388.13 -261.18)"/><path class="cls-6" d="M427.82,299.84c-1-1.41-1.77-8.92-6.3-9.85-.7.81-1.91.35-2.93.39h-.29c-1-.06-1.88.44-2.55-.31-1.6-.24-2.55.38-3.94,2.45-1,1.53-.21,5.83-.12,8.5s-.2-2.35.43-1.75,4.15-.29,7.22-.81,6.77.82,7.79.58S428.5,300.81,427.82,299.84Z" transform="translate(-388.13 -261.18)"/><path d="M423.1,285l.88-1.11.44-.49h-1.23v-.69h2.3v.52l-.84,1.07c-.16.17-.3.35-.46.5v0h1.34v.69H423.1Z" transform="translate(-388.13 -261.18)"/><path d="M431.35,281.62l1.59-2,.79-.88v0h-2.2v-1.25h4.12v.95l-1.51,1.91c-.28.32-.54.64-.83.92v0h2.43v1.24h-4.39Z" transform="translate(-388.13 -261.18)"/><path d="M426.7,283.07l1.18-1.47c.21-.25.38-.44.58-.66v0h-1.63V280h3.05v.7l-1.12,1.41c-.21.24-.4.48-.61.68v0h1.79v.92H426.7Z" transform="translate(-388.13 -261.18)"/><path class="cls-7" d="M421.78,286.63c-.08,2.35-1.61,4.17-3.43,4.06s-3.22-2.08-3.14-4.43,1.61-4.17,3.43-4.07,3.22,2.09,3.14,4.44" transform="translate(-388.13 -261.18)"/><path class="cls-8" d="M399.09,294.59c2.86-5.75,11.22-4.91,15.52-5.21,2.5-.16,4.83.42,7.22.12,2.74-.31,5.37.75,8,.9a7.38,7.38,0,0,1,3.49.74c1.65,1.18,1.16,2.34,1.66,4.21.39,1.42,2.7,5.64,1.29,6-3.39.86-13.77-.74-19.08-.67-4.12.06-7.87-.15-11.93-.15-2,0-7.41,2.38-8.23,1.73-1.59-1.27,2.13-6.73,2.42-8.76" transform="translate(-388.13 -261.18)"/><path class="cls-9" d="M440.75,263.19c0,.65.34,2.13-.39,2.11S439.67,262.26,440.75,263.19Z" transform="translate(-388.13 -261.18)"/><path class="cls-9" d="M437.58,266.5c-.56.08-.66-.26-1-.57s-1.29-1.18-.29-1.25C436.64,264.66,438.32,266.07,437.58,266.5Z" transform="translate(-388.13 -261.18)"/><path class="cls-9" d="M444.25,264.73c.27-.06.57,0,.58.33s-1.2,1.5-1.44,1.49c-1.17,0,.42-1.57.62-1.73A.78.78,0,0,1,444.25,264.73Z" transform="translate(-388.13 -261.18)"/><path class="cls-9" d="M440.07,266.31a2.74,2.74,0,0,1,3.12,2.4,2.89,2.89,0,0,1-4.27,2.88A2.86,2.86,0,0,1,440.07,266.31Zm-1.53,2a2,2,0,0,0,1.82,2.83,2.09,2.09,0,0,0,1.87-1.24,2,2,0,0,0-2.16-2.69A1.94,1.94,0,0,0,438.54,268.28Z" transform="translate(-388.13 -261.18)"/><path class="cls-5" d="M440.07,267.18a2,2,0,0,1,2.16,2.69,2.09,2.09,0,0,1-1.87,1.24,2,2,0,0,1-1.82-2.83A1.94,1.94,0,0,1,440.07,267.18Z" transform="translate(-388.13 -261.18)"/><path class="cls-9" d="M436.52,268.91v.43c-.43.26-2.17.42-2.26-.15C434.15,268.42,436.08,268.58,436.52,268.91Z" transform="translate(-388.13 -261.18)"/><path class="cls-9" d="M446.41,268.86a.61.61,0,0,1-.09.62,5.67,5.67,0,0,1-2-.05C443.81,268.31,445.91,268.65,446.41,268.86Z" transform="translate(-388.13 -261.18)"/><path class="cls-9" d="M437.77,271.93c.09.48-.26.64-.58,1s-1.09,1.16-1.25.34c-.05-.29,1.17-1.84,1.73-1.44A.13.13,0,0,0,437.77,271.93Z" transform="translate(-388.13 -261.18)"/><path class="cls-9" d="M443.24,271.74c.35-.12,1.63,1,1.59,1.44-.08.81-.88.13-1.25-.24C443.42,272.78,442.52,272,443.24,271.74Z" transform="translate(-388.13 -261.18)"/><path class="cls-9" d="M440.65,275.15c-1.21.53-.92-3.07.1-2A4.49,4.49,0,0,1,440.65,275.15Z" transform="translate(-388.13 -261.18)"/><rect class="cls-10" x="0.5" y="0.5" width="59.42" height="59.42"/><rect class="cls-11" x="0.02" y="60.2" width="60.39" height="10.4"/><rect class="cls-12" x="49.74" y="60.2" width="10.67" height="10.4"/><path d="M443.72,330.05v-1.57h-2.93v-1l2.49-4h1.9v3.88H446v1.16h-.78v1.57Zm0-2.73v-1.47c0-.4,0-.8,0-1.23h0c-.22.43-.4.81-.62,1.23l-.88,1.44v0Z" transform="translate(-388.13 -261.18)"/></svg>