<svg id="Layer_1" data-name="Layer 1" xmlns="http://www.w3.org/2000/svg" viewBox="0 0 60.42 70.6"><defs><style>.cls-1{fill:#bfbfbf;}.cls-2{fill:#12100b;}.cls-3{fill:#5c5c5c;}.cls-4{fill:#333;}.cls-5{fill:#7e7e7e;}.cls-6{fill:#fff;}.cls-6,.cls-8{fill-rule:evenodd;}.cls-7{fill:#4e4e4e;}.cls-8{fill:#5b5b5b;}.cls-9{fill:#5d5757;}.cls-10{fill:none;stroke:#1d1d1b;}.cls-11{fill:#f2f2f2;}</style></defs><rect class="cls-1" x="0.04" y="60.2" width="60.17" height="10.4"/><path d="M404.89,281.1l.91-1.14.46-.51H405v-.72h2.37v.55l-.87,1.09a6.19,6.19,0,0,1-.48.53h1.4v.72h-2.52Z" transform="translate(-388.13 -261.18)"/><path d="M412.91,275.46l1.64-2c.3-.35.53-.61.82-.92v0h-2.28v-1.29h4.26v1l-1.57,2c-.28.33-.55.66-.85.95v0h2.5v1.29h-4.52Z" transform="translate(-388.13 -261.18)"/><path d="M408.39,278.47,409.6,277l.61-.68h-1.69v-.95h3.15V276l-1.15,1.46c-.21.24-.41.49-.63.7h1.85v1h-3.35Z" transform="translate(-388.13 -261.18)"/><path class="cls-2" d="M417.22,315.5c-.3-.11-1.48-.34-1.76-.49s-1.33-.67-1.93-1l-.08-.85a1.14,1.14,0,0,1,.19.07,10.24,10.24,0,0,0,1.54,0c.48-.07,1.78-.26,1.88-.77s-.27-.54-.38-.59-.69-.19-1-.29a2.56,2.56,0,0,1-1.56-.94,13.44,13.44,0,0,0-.95-1.33s-.06-.33-.13-.77l-.29-3.41c0-1.22,0-3,0-3.55a16.57,16.57,0,0,0-.31-2.79,1.8,1.8,0,0,0-.93-.88c.07-.31-.15-.49-.38-.67a7.45,7.45,0,0,0-.65-.6c-.37-.17-.65-.1-1-.34a6.28,6.28,0,0,0-1.14,0l.07-.37-5.29-1.18-.61-.47c-.44-1.94-1.43-6.22-1.73-7a7.84,7.84,0,0,0-.65-1.39,2.73,2.73,0,0,1-2.74-.67,2.24,2.24,0,0,1-.36-.51l-.19-.44a7.32,7.32,0,0,0-3.15,6,83.56,83.56,0,0,0,.71,9.85c0,.11.3.12.63.1a6.63,6.63,0,0,0,.1,1.13,2.86,2.86,0,0,0,2.32,2.68c1.28.34,9.26.26,10.67.24l.34,10.18.95,0a1.15,1.15,0,0,0,0,.41,1.37,1.37,0,0,1-.12.77c-.05.22-.05.6.54.83s3.44.66,3.86.77a5.34,5.34,0,0,0,2.17-.06c.54-.18,1.58-.39,1.7-.84S417.52,315.6,417.22,315.5Zm-6.72-17.78h-.08l.07,0S410.5,297.71,410.5,297.72Z" transform="translate(-388.13 -261.18)"/><path class="cls-3" d="M409.29,318.92l-.68-15.21a1.84,1.84,0,0,0-.41-.38l-1.09-.07-9.85-.39-.16-.45s-.91-3.2-1.06-4.3-2.94-11.15-3.25-11.6-2.05-.14-2.05-.14l-.45.4c-.46.39,1.4,6.71,1.89,9.44.54,3,1.53,9.54,1.35,12.34s-.53,9.56-.53,9.56a15.87,15.87,0,0,1,1.75.17c.25-.38.34-5.34.37-8.62h.51c-.08,1.66-.16,3.54-.19,4.25l1.76-.11s0-2.08,0-4.14h9.63v-.88l.77,10Zm-14.16-10.28v-1.86l.48.06a17.33,17.33,0,0,1,.07,1.8Zm2.1,0c0-.68,0-1.31,0-1.81l9.51.21.12,1.6Z" transform="translate(-388.13 -261.18)"/><path class="cls-2" d="M402.05,284.41c-1.44,1.38-3.44,1.58-4.49.44s-.72-3.17.72-4.54,3.44-1.57,4.48-.44.72,3.17-.71,4.54" transform="translate(-388.13 -261.18)"/><path class="cls-4" d="M440.21,299.5l-.34-.07a22,22,0,0,0,.34-4.9,19.55,19.55,0,0,0-2.57-8,5.4,5.4,0,0,0-1.48-1.55c-.06.08-.11.16-.18.24h0l-.17.19-.09.08-.11.11-.14.11-.09.06-.17.11-.08,0-.19.09-.07,0-.21.06-.07,0-.29.05h-.37a.75.75,0,0,1-.21,0h-.08l-.21-.05-.08,0-.19-.06-.1,0-.08,0c-.09,0-.19-.08-.21-.06v0l-.25.94a6.51,6.51,0,0,0-.42,1.56l-1.46,5.41-4.53,2.3.24.4a8.57,8.57,0,0,0-1.24.48c-.35.37-.7.42-1,.72s-.32.54-.49.8-.39.54-.12.81c.17.08.34,0,.52-.11-.11.57-.19,1.88-.22,2.45s0,3.68,0,4.39-.41,3-.41,3a14.84,14.84,0,0,0-.88,1.29,2.36,2.36,0,0,1-1.45.9c-.28.11-.83.24-.93.29s-.45.07-.35.57,1.31.66,1.76.73a8.82,8.82,0,0,0,1.43,0,1.55,1.55,0,0,1,.26-.09l-.06.79c-.53.34-1.69.94-1.9,1.05s-1.35.36-1.63.46-.4.3-.29.74,1.08.64,1.58.81a5,5,0,0,0,2,.06c.39-.11,3-.52,3.6-.74s.56-.59.51-.81a1.35,1.35,0,0,1-.12-.74.75.75,0,0,0,0-.3h1l.32-9.88c1.53,0,8.69.09,9.87-.23a2.73,2.73,0,0,0,2.16-2.58A4.37,4.37,0,0,0,440.21,299.5Zm-8.47-2c0,.07,0,.13,0,.18a8.7,8.7,0,0,1-1.39.09c-.2,0-.56,0-1,0l2.5-.83C431.77,297.3,431.74,297.51,431.74,297.53Z" transform="translate(-388.13 -261.18)"/><path class="cls-4" d="M436.6,282c.2,2-.86,3.69-2.37,3.85s-2.9-1.32-3.1-3.29.86-3.7,2.37-3.85S436.4,280,436.6,282Z" transform="translate(-388.13 -261.18)"/><path class="cls-5" d="M428.74,318.11l.7-9.24v.81h8.86c0,1.9,0,3.81,0,3.81l1.62.1-.18-3.91h.47c0,3,.11,7.58.35,7.94a13.15,13.15,0,0,1,1.6-.17s-.32-6.23-.48-8.79.74-8.58,1.24-11.34c.45-2.51,2.15-8.32,1.73-8.68l-.42-.36s-1.6-.3-1.88.12-2.85,9.65-3,10.66-1,4-1,4l-.14.42-9.06.36-1,.05a1.63,1.63,0,0,0-.38.36l-.62,14Zm11-9.37a15.89,15.89,0,0,1,.06-1.66l.44-.05s0,.69,0,1.71Zm-10.27,0,.11-1.47,8.74-.2c0,.47,0,1.05,0,1.67Z" transform="translate(-388.13 -261.18)"/><path class="cls-6" d="M429.3,282.4c-.17-.36-.3-.72-.49-1.13-.05-.12-.16-.27-.15-.37s.29-.29.39-.37a2.28,2.28,0,0,0,1-1.88,2.4,2.4,0,0,0-1.42-2,5.21,5.21,0,0,0-1.19-.51,5.51,5.51,0,0,0-5.28,1.15,2,2,0,0,0-.55,1.71,2.44,2.44,0,0,0,.84,1.4,5.54,5.54,0,0,0,4.18,1,3.69,3.69,0,0,1,.77-.14,1.43,1.43,0,0,1,.49.25C428.41,281.86,428.79,282.12,429.3,282.4Z" transform="translate(-388.13 -261.18)"/><path class="cls-7" d="M429.46,282.32l.23.5-.48-.26h0c-.52-.29-.9-.55-1.39-.84h0a2.48,2.48,0,0,0-.4-.23h0c-.17,0-.44.1-.7.14h0a8.43,8.43,0,0,1-.86.05h0a5.3,5.3,0,0,1-3.46-1.11h0a2.57,2.57,0,0,1-.9-1.5h0a2.4,2.4,0,0,1,0-.37h0a2.23,2.23,0,0,1,.62-1.49h0a5.22,5.22,0,0,1,3.82-1.43h0a5.72,5.72,0,0,1,1.65.23h0a4.94,4.94,0,0,1,1.23.52h0a2.56,2.56,0,0,1,1.51,2.11h0v.08h0a2.48,2.48,0,0,1-1.1,2h0l-.22.17h0l-.09.08h0c0,.06.08.16.13.27h0c.18.41.32.77.48,1.12Zm-.33.16.17-.08-.17.08Zm-3.26-6.34h0a4.89,4.89,0,0,0-3.53,1.31h0a1.81,1.81,0,0,0-.53,1.25h0c0,.1,0,.2,0,.31h0a2.23,2.23,0,0,0,.78,1.29h0a5,5,0,0,0,3.22,1h0a5.59,5.59,0,0,0,.81-.05h0c.2,0,.47-.13.75-.14h.07a1.62,1.62,0,0,1,.56.27h0l.9.56h0c-.09-.2-.17-.4-.27-.61h0a1.52,1.52,0,0,1-.17-.43h0v0h0a.47.47,0,0,1,.22-.31h0l.23-.18h0a2.06,2.06,0,0,0,1-1.67h0v-.06h0a2.22,2.22,0,0,0-1.33-1.82h0a5,5,0,0,0-1.14-.48h0a5.33,5.33,0,0,0-1.55-.22Z" transform="translate(-388.13 -261.18)"/><path class="cls-8" d="M440.06,263.58c0,.66.34,2.13-.38,2.12S439,262.65,440.06,263.58Z" transform="translate(-388.13 -261.18)"/><path class="cls-8" d="M436.89,266.9c-.55.07-.65-.27-1-.58s-1.29-1.18-.29-1.25C436,265.05,437.63,266.46,436.89,266.9Z" transform="translate(-388.13 -261.18)"/><path class="cls-8" d="M443.57,265.12c.26-.06.57,0,.57.34s-1.2,1.49-1.44,1.49c-1.17,0,.43-1.58.63-1.73A.62.62,0,0,1,443.57,265.12Z" transform="translate(-388.13 -261.18)"/><path class="cls-8" d="M439.39,266.71a2.74,2.74,0,0,1,3.12,2.4,2.9,2.9,0,0,1-4.27,2.88A2.86,2.86,0,0,1,439.39,266.71Zm-1.54,2a2,2,0,0,0,1.83,2.84,2.13,2.13,0,0,0,1.87-1.25,2,2,0,0,0-3.7-1.59Z" transform="translate(-388.13 -261.18)"/><path class="cls-6" d="M439.39,267.57a2,2,0,0,1,2.16,2.69,2.13,2.13,0,0,1-1.87,1.25,2,2,0,0,1-1.83-2.84A2,2,0,0,1,439.39,267.57Z" transform="translate(-388.13 -261.18)"/><path class="cls-8" d="M435.84,269.3v.43c-.44.27-2.18.42-2.26-.14C433.46,268.82,435.4,269,435.84,269.3Z" transform="translate(-388.13 -261.18)"/><path class="cls-8" d="M445.73,269.25a.59.59,0,0,1-.1.62,5.92,5.92,0,0,1-2,0C443.13,268.7,445.23,269,445.73,269.25Z" transform="translate(-388.13 -261.18)"/><path class="cls-8" d="M437.08,272.32c.1.49-.25.64-.57,1s-1.09,1.17-1.25.34c-.05-.28,1.16-1.84,1.73-1.44A.13.13,0,0,0,437.08,272.32Z" transform="translate(-388.13 -261.18)"/><path class="cls-8" d="M442.56,272.13c.34-.12,1.63,1,1.58,1.44-.08.81-.88.13-1.25-.24C442.74,273.18,441.83,272.39,442.56,272.13Z" transform="translate(-388.13 -261.18)"/><path class="cls-8" d="M440,275.54c-1.21.53-.93-3.06.09-2A4.36,4.36,0,0,1,440,275.54Z" transform="translate(-388.13 -261.18)"/><rect class="cls-9" x="35.43" y="16.34" width="4.98" height="0.54"/><rect class="cls-9" x="35.43" y="17.25" width="4.98" height="0.55"/><rect class="cls-9" x="35.4" y="18.12" width="1.89" height="0.56"/><rect class="cls-10" x="0.5" y="0.5" width="59.42" height="59.42"/><rect class="cls-11" x="49.75" y="60.2" width="10.67" height="10.4"/><path d="M441.26,328.54a3.5,3.5,0,0,0,1.53.4c.81,0,1.22-.38,1.22-.87,0-.66-.66-1-1.34-1H442V326h.61c.52,0,1.17-.2,1.17-.76,0-.4-.31-.69-1-.69a3,3,0,0,0-1.38.39l-.31-1.11a4,4,0,0,1,2-.5c1.41,0,2.19.74,2.19,1.64a1.57,1.57,0,0,1-1.21,1.54v0a1.65,1.65,0,0,1,1.43,1.62c0,1.16-1,2-2.7,2a4.09,4.09,0,0,1-2-.46Z" transform="translate(-388.13 -261.18)"/></svg>