<svg id="Layer_1" data-name="Layer 1" xmlns="http://www.w3.org/2000/svg" viewBox="0 0 60.43 70.6"><defs><style>.cls-1{fill:#bfbfbf;}.cls-2,.cls-3{fill:#12100b;}.cls-2,.cls-5,.cls-6,.cls-7,.cls-8,.cls-9{fill-rule:evenodd;}.cls-4{fill:#999;}.cls-5{fill:gray;}.cls-6{fill:#fff;}.cls-11,.cls-7{fill:#f2f2f2;}.cls-8{fill:#666;}.cls-9{fill:#5b5b5b;}.cls-10{fill:none;stroke:#1d1d1b;}</style></defs><rect class="cls-1" x="0.21" y="60.2" width="60.01" height="10.4"/><path class="cls-2" d="M433,315.36c-.15-.15-3.74-2.53-3.74-3.38.75-1.11.78-5.81,1-7.86.23-2.43.42-4.86.62-7.29.28.09.45-.13.62-.36a6.09,6.09,0,0,0,.58-.65,8.52,8.52,0,0,1,.37-1.07,7.51,7.51,0,0,0,.08-1l.62-.07-.12-1.16c-1.16-6.62-1-5.34-1.34-7.36-1.29-7.89-2.73-7.54-2.74-7.57a2.58,2.58,0,0,1-2.94-.27,2,2,0,0,1-.55-.91,3.38,3.38,0,0,0-1.08.33c-.48.25-2.32,1.16-3.79,7a69.72,69.72,0,0,0-1.16,7.71l-.15,1.26.28,0a5.1,5.1,0,0,0,.08.86,9,9,0,0,1,.36,1.07,7.42,7.42,0,0,0,.58.65c.14.19.28.36.47.38-.06,1.3,0,1.36-.14,2.83-.14,2.43-.28,4.86-.45,7.29-.08,1.19-.25,2.37-.32,3.57,0,.52-.4,2.95-.41,3.7,0,.28.18.12.16.2a10.81,10.81,0,0,0-.34,1.36,8.65,8.65,0,0,0,0,1.83,2.89,2.89,0,0,0,.3,1.46,3.16,3.16,0,0,0,3.39.35c-.29-.73-.55-1.47-.88-2.2a1.18,1.18,0,0,1,.08-1.34c.13-.18-.09-.23,0-.27s.3,0,.39-.49c.27-1.33.84-3.49,1.12-4.78.45-2.16,2.19-10.44,2.25-12.68,0-.15,0,4.46,0,9v6.66c0,1,0,1.59,0,1.72,0,1,.35,1.46,1.33,1.29.7-.12,4,1.4,5.29,1.07C433.33,316,433.31,315.68,433,315.36Zm-2-20.95c.4.13.49.37.41.66s-.26.21-.35.4.06.19.06.3a.2.2,0,0,0-.17.07c0-.22-.05-.63-.05-1.39Zm-9.91.17a.28.28,0,0,0-.13,0c0-.11.16-.16.07-.29s-.28-.15-.35-.4a.46.46,0,0,1,.21-.58c.05.08.14.05.25,0Z" transform="translate(-388.12 -261.18)"/><path class="cls-3" d="M430,276.4c-1.15,1.24-2.84,1.5-3.78.59s-.77-2.64.37-3.88,2.84-1.51,3.78-.6.78,2.65-.37,3.89" transform="translate(-388.12 -261.18)"/><rect class="cls-4" x="2.17" y="17.35" width="21.6" height="12.41"/><path class="cls-5" d="M420,308.86c-.05-2.8-6.11-17.78-6.5-19.12-.44-1.52-20.84-1-20.84-1l-3.15.12a29.19,29.19,0,0,1-.57,3.6l.57,26.46c5.29.14,15.43.45,15.43.45l14.79-.38s.1-2.26.22-4.36S420.06,311.35,420,308.86Z" transform="translate(-388.12 -261.18)"/><path class="cls-6" d="M391.79,283.31a2.25,2.25,0,0,1,1.59-1.39c1.22-.28,13.2-.67,13.2-.67s2.5-.44,3,0,.3,1.11-.06,1.89.18,3.67.24,4.45a36.14,36.14,0,0,1-.55,4.28l-3.05.23s-10.72-.76-11.27-.6a10.21,10.21,0,0,1-1.4.28,2.49,2.49,0,0,1-.61-1.84c.18-.94.87-1.57.93-2.57a2.78,2.78,0,0,0-.91-2.5A4.37,4.37,0,0,1,391.79,283.31Z" transform="translate(-388.12 -261.18)"/><path class="cls-7" d="M388.82,292.7s7.67,1.17,9.56,2.33a34.65,34.65,0,0,0,9.18,3.06c2.52.43,8.31,3.6,8.31,3.6l2.76,2-28.5-2Z" transform="translate(-388.12 -261.18)"/><path class="cls-7" d="M390.13,301.66s-.1,1.09.53,1.09a12.31,12.31,0,0,1,4.37.13c3.13.5,10.9.71,15.52,1.12s6.63.5,6.63.5,2.08-.51,1.45-.8S390.13,301.66,390.13,301.66Z" transform="translate(-388.12 -261.18)"/><path class="cls-7" d="M388.82,292.7s-.17,3.92,0,4.42.25,3.5.37,4.25a2.79,2.79,0,0,0,.88,1.38h.63Z" transform="translate(-388.12 -261.18)"/><path class="cls-8" d="M389.27,311.77l0,7.13,15.66.43,14.79-.38s.1-2.26.22-4.36a13.23,13.23,0,0,0,0-2.57Z" transform="translate(-388.12 -261.18)"/><path class="cls-9" d="M441.35,263.81c0,.65.34,2.12-.39,2.11S440.27,262.88,441.35,263.81Z" transform="translate(-388.12 -261.18)"/><path class="cls-9" d="M438.18,267.12c-.56.08-.66-.26-1-.57s-1.29-1.18-.29-1.25C437.24,265.28,438.92,266.69,438.18,267.12Z" transform="translate(-388.12 -261.18)"/><path class="cls-9" d="M444.85,265.35c.27-.06.57,0,.58.33s-1.2,1.49-1.44,1.49c-1.17,0,.42-1.57.62-1.73A.78.78,0,0,1,444.85,265.35Z" transform="translate(-388.12 -261.18)"/><path class="cls-9" d="M440.67,266.93a2.74,2.74,0,0,1,3.12,2.4,2.89,2.89,0,0,1-4.27,2.88A2.86,2.86,0,0,1,440.67,266.93Zm-1.53,2a2,2,0,0,0,1.82,2.83,2.08,2.08,0,0,0,1.87-1.25,2,2,0,0,0-2.16-2.69A2,2,0,0,0,439.14,268.9Z" transform="translate(-388.12 -261.18)"/><path class="cls-6" d="M440.67,267.79a2,2,0,0,1,2.16,2.69,2.08,2.08,0,0,1-1.87,1.25,2,2,0,0,1-1.82-2.83A2,2,0,0,1,440.67,267.79Z" transform="translate(-388.12 -261.18)"/><path class="cls-9" d="M437.12,269.52V270c-.43.26-2.17.42-2.26-.15C434.75,269,436.68,269.2,437.12,269.52Z" transform="translate(-388.12 -261.18)"/><path class="cls-9" d="M447,269.48a.61.61,0,0,1-.09.62,5.67,5.67,0,0,1-2-.05C444.41,268.93,446.51,269.27,447,269.48Z" transform="translate(-388.12 -261.18)"/><path class="cls-9" d="M438.37,272.55c.09.48-.26.64-.58,1s-1.08,1.16-1.25.34c-.05-.29,1.17-1.84,1.73-1.45A.14.14,0,0,0,438.37,272.55Z" transform="translate(-388.12 -261.18)"/><path class="cls-9" d="M443.84,272.36c.35-.12,1.63,1,1.59,1.44-.09.81-.89.13-1.25-.24C444,273.4,443.12,272.62,443.84,272.36Z" transform="translate(-388.12 -261.18)"/><path class="cls-9" d="M441.25,275.77c-1.21.53-.92-3.07.1-2A4.49,4.49,0,0,1,441.25,275.77Z" transform="translate(-388.12 -261.18)"/><rect class="cls-10" x="0.5" y="0.5" width="59.42" height="59.42"/><rect class="cls-11" x="49.76" y="60.2" width="10.67" height="10.4"/><path d="M443,324.81h0l-1.26.6-.25-1.16,1.76-.81h1.27v6.61H443Z" transform="translate(-388.12 -261.18)"/></svg>