<svg id="Layer_1" data-name="Layer 1" xmlns="http://www.w3.org/2000/svg" viewBox="0 0 60.43 70.6"><defs><style>.cls-1{fill:#bfbfbf;}.cls-2{fill:#12100b;}.cls-3{fill:#999;}.cls-4{fill:gray;}.cls-4,.cls-5,.cls-6,.cls-7,.cls-8{fill-rule:evenodd;}.cls-5{fill:#fff;}.cls-10,.cls-6{fill:#f2f2f2;}.cls-7{fill:#666;}.cls-8{fill:#5b5b5b;}.cls-9{fill:none;stroke:#1d1d1b;}</style></defs><rect class="cls-1" x="0.21" y="60.2" width="60.01" height="10.4"/><path class="cls-2" d="M432.81,274.63l-2.14-5.2-.3.2c-.09-.22-.17-.37-.2-.43a.57.57,0,0,0-.68-.22,1.22,1.22,0,0,1-.55-.08s-.1-.32-.13-.43-.28-.06-.33,0-.07.08-.15,0-.16,0-.24.05-.13.12-.23,0-.17.06-.17.06l-.08.26a.43.43,0,0,0-.23-.13c-.11,0-.1.19-.1.31a.88.88,0,0,1-.06.26s-.63-.06-.69,0,0,.08,0,.15.38.45.47.49.74.68.89.77a.65.65,0,0,0,.55,0,2.61,2.61,0,0,0,.49-.3l.08.14-.13.09,1.51,4.79-4.07,3.3a2.44,2.44,0,0,1-2.31,1.77c-1.31-.07-2.33-1.46-2.34-3.14-1.54-3.84-4.1-10.46-4.1-10.46l-.11,0a2.24,2.24,0,0,0,.43-1.16c0-.54-.14-1.71-.52-2s-.41-.1-.44,0a.87.87,0,0,0,0,.45,1.18,1.18,0,0,0-.2-.39c-.12-.1-.2-.07-.2-.07a.33.33,0,0,0-.2,0c-.2.11-.12.33-.09.41s-.15-.18-.18-.24a.29.29,0,0,0-.36,0c-.11.12-.12.18-.11.27s-.13.07-.24,0-.29,0-.3.12-.06.16-.18.16a.2.2,0,0,0-.19.17,5.51,5.51,0,0,0,.19,1.57,5.91,5.91,0,0,0,.65.94.31.31,0,0,0,0,.08l-.21.05-.36.09L420.09,285a50,50,0,0,1-.43,9.38c-.16,1,0,.85.19.84v2.26c-.07,1.49-.05,1.42-.13,2.83q-.18,3.21-.4,6.42c-.07,1.05-.22,2.09-.28,3.14,0,.46-.35,2.6-.37,3.26,0,.25.17.1.15.18a8.1,8.1,0,0,0-.3,1.2,7.15,7.15,0,0,0,0,1.6c0,.44,0,1,.26,1.29a2.79,2.79,0,0,0,3,.31c-.26-.64-.49-1.3-.78-1.93a1.06,1.06,0,0,1,.06-1.19c.12-.15-.07-.2,0-.24s.26,0,.34-.43c.24-1.17.74-3.07,1-4.21.41-1.9,1.94-9.19,2-11.16,0-.13,0,3.92,0,7.89v5.86c0,.85,0,1.41,0,1.52,0,.85.31,1.29,1.17,1.14.61-.11,3.52,1.23,4.66.93.45-.11.43-.41.16-.69s-3.3-2.23-3.3-3c.67-1,.69-5.12.87-6.92.23-2.43.41-4.85.61-7.28a27.75,27.75,0,0,1,.05-3.17c0-.23.35.1.37-.14.11-1.17-.14-10.1-.86-12.2a1.19,1.19,0,0,1-.05-.26c1.56-1.83,4-4.63,4.56-5.29A2.44,2.44,0,0,0,432.81,274.63Z" transform="translate(-388.12 -261.18)"/><path class="cls-2" d="M426.35,277.35c-.05,1.63-1.12,2.89-2.38,2.82s-2.24-1.45-2.19-3.08,1.13-2.89,2.39-2.82,2.24,1.44,2.18,3.08" transform="translate(-388.12 -261.18)"/><path class="cls-2" d="M422.37,279.18c-.43-1-1.9-4.68-3.15-7.88a8.15,8.15,0,0,1-2.52,2l2.74,9.44,4.2-1.12Z" transform="translate(-388.12 -261.18)"/><rect class="cls-3" x="1.67" y="17.49" width="21.6" height="12.41"/><path class="cls-4" d="M419.52,309c-.06-2.8-6.11-17.78-6.5-19.12-.44-1.52-20.84-1-20.84-1L389,289a28.75,28.75,0,0,1-.56,3.6L389,319c5.3.14,15.44.45,15.44.45l14.79-.38s.1-2.26.21-4.36S419.57,311.49,419.52,309Z" transform="translate(-388.12 -261.18)"/><path class="cls-5" d="M391.3,283.45a2.25,2.25,0,0,1,1.58-1.39c1.23-.28,13.2-.67,13.2-.67s2.51-.44,3,0,.3,1.11-.06,1.89.18,3.67.24,4.45a38.39,38.39,0,0,1-.55,4.28l-3,.23s-10.72-.76-11.27-.6a10.52,10.52,0,0,1-1.4.28,2.48,2.48,0,0,1-.62-1.84c.19-.94.88-1.57.94-2.57a2.81,2.81,0,0,0-.91-2.5A4.37,4.37,0,0,1,391.3,283.45Z" transform="translate(-388.12 -261.18)"/><path class="cls-6" d="M388.32,292.84s7.68,1.16,9.57,2.33a34.65,34.65,0,0,0,9.18,3.06c2.51.43,8.3,3.6,8.3,3.6l2.77,2-28.5-2Z" transform="translate(-388.12 -261.18)"/><path class="cls-6" d="M389.64,301.79s-.1,1.1.52,1.1a12.37,12.37,0,0,1,4.38.13c3.13.5,10.89.71,15.52,1.12s6.63.5,6.63.5,2.07-.51,1.45-.8S389.64,301.79,389.64,301.79Z" transform="translate(-388.12 -261.18)"/><path class="cls-6" d="M388.32,292.84s-.16,3.92,0,4.42.25,3.5.37,4.26a2.8,2.8,0,0,0,.88,1.37h.62Z" transform="translate(-388.12 -261.18)"/><path class="cls-7" d="M389,311.87V319c5.3.14,15.44.45,15.44.45l14.79-.38s.1-2.26.21-4.36a12.41,12.41,0,0,0,.05-2.57Z" transform="translate(-388.12 -261.18)"/><path class="cls-8" d="M440.73,264.05c0,.65.34,2.12-.39,2.11S439.66,263.11,440.73,264.05Z" transform="translate(-388.12 -261.18)"/><path class="cls-8" d="M437.56,267.36c-.56.07-.65-.27-1-.58s-1.29-1.17-.29-1.24C436.62,265.51,438.3,266.93,437.56,267.36Z" transform="translate(-388.12 -261.18)"/><path class="cls-8" d="M444.23,265.58c.27-.06.58,0,.58.34s-1.2,1.49-1.44,1.49c-1.17,0,.42-1.57.62-1.73A1,1,0,0,1,444.23,265.58Z" transform="translate(-388.12 -261.18)"/><path class="cls-8" d="M440.06,267.17a2.74,2.74,0,0,1,3.12,2.4,2.91,2.91,0,0,1-4.28,2.88A2.86,2.86,0,0,1,440.06,267.17Zm-1.54,2a2,2,0,0,0,1.82,2.83,2.13,2.13,0,0,0,1.88-1.25,2,2,0,0,0-2.16-2.69A2,2,0,0,0,438.52,269.14Z" transform="translate(-388.12 -261.18)"/><path class="cls-5" d="M440.06,268a2,2,0,0,1,2.16,2.69,2.13,2.13,0,0,1-1.88,1.25,2,2,0,0,1-1.82-2.83A2,2,0,0,1,440.06,268Z" transform="translate(-388.12 -261.18)"/><path class="cls-8" d="M436.5,269.76v.43c-.43.27-2.17.42-2.25-.14C434.13,269.28,436.06,269.44,436.5,269.76Z" transform="translate(-388.12 -261.18)"/><path class="cls-8" d="M446.4,269.71a.63.63,0,0,1-.1.63,6.17,6.17,0,0,1-2,0C443.79,269.16,445.89,269.51,446.4,269.71Z" transform="translate(-388.12 -261.18)"/><path class="cls-8" d="M437.75,272.79c.1.48-.26.64-.58.95s-1.08,1.17-1.24.34c-.06-.28,1.16-1.83,1.73-1.44A.13.13,0,0,0,437.75,272.79Z" transform="translate(-388.12 -261.18)"/><path class="cls-8" d="M443.23,272.59c.34-.12,1.62,1,1.58,1.44-.08.81-.88.13-1.25-.24C443.41,273.64,442.5,272.85,443.23,272.59Z" transform="translate(-388.12 -261.18)"/><path class="cls-8" d="M440.63,276c-1.21.53-.92-3.06.1-2A4.49,4.49,0,0,1,440.63,276Z" transform="translate(-388.12 -261.18)"/><rect class="cls-9" x="0.5" y="0.5" width="59.42" height="59.42"/><rect class="cls-10" x="49.76" y="60.2" width="10.67" height="10.4"/><path d="M445.87,326.71c0,2-.82,3.46-2.5,3.46s-2.46-1.54-2.47-3.41.8-3.43,2.51-3.43S445.87,324.9,445.87,326.71Zm-3.43.05c0,1.51.37,2.24,1,2.24s.93-.76.93-2.26-.32-2.24-.94-2.24S442.44,325.21,442.44,326.76Z" transform="translate(-388.12 -261.18)"/></svg>