<svg id="Layer_1" data-name="Layer 1" xmlns="http://www.w3.org/2000/svg" viewBox="0 0 60.49 70.58"><defs><style>.cls-1{fill:#bfbfbf;}.cls-2{fill:none;stroke:#1d1d1b;}.cls-3{fill:#1d1d1b;fill-rule:evenodd;}.cls-4{fill:#f2f2f2;}</style></defs><rect class="cls-1" x="0.17" y="60.17" width="60.01" height="10.4"/><rect class="cls-2" x="0.5" y="0.5" width="59.42" height="59.42"/><path class="cls-3" d="M441.21,287.7c-6.17-5.57-13.34-9.53-21.85-9.89-11.47-.48-20.11,5.55-28,13-1.44,1.36-1.28,2.69.19,4,1.77,1.53,3.41,3.22,5.27,4.62,6.22,4.72,13,8.18,22.26,8.29,7.91-.13,15.42-4.12,22.1-9.93S446.8,292.76,441.21,287.7Zm-47,5.1c5.25-5.13,11-9.1,18-10.94a3.68,3.68,0,0,1,1.28-.08c-.4.21-.8.42-1.18.58a10.41,10.41,0,0,0-5.5,6.53h0c-1.92,5.68-.36,9.92,5.75,14.75C405,301.71,399.6,297.6,394.25,292.8Zm23.82,9.14a9.16,9.16,0,0,1-9.35-9.13,3.07,3.07,0,0,1,0-.42h0s0-.11,0-.25a12.7,12.7,0,0,0,.22-1.61c.16-.35.3-.75.46-1.18.86-1.45,3.39-5.23,6.78-5.72h0c.74,0,1.53-.19,2.23-.16,4.89.26,9.08,4.54,9,9.3A9.46,9.46,0,0,1,418.07,301.94Zm6.16,1.42c3.6-2.7,5.77-6,5.73-10.7s-2.31-8-6-10.67a38.85,38.85,0,0,1,17.7,10.72A38.6,38.6,0,0,1,424.23,303.36ZM418.09,286a6.72,6.72,0,1,0,6.91,6.72A6.81,6.81,0,0,0,418.09,286Z" transform="translate(-388.09 -261.19)"/><rect class="cls-4" x="49.82" y="60.17" width="10.67" height="10.4"/><path d="M445.91,326.7c0,2-.83,3.45-2.51,3.45s-2.46-1.53-2.47-3.4.8-3.44,2.51-3.44S445.91,324.89,445.91,326.7Zm-3.43.05c0,1.51.36,2.23.95,2.23s.93-.75.93-2.26-.32-2.23-.94-2.23S442.48,325.2,442.48,326.75Z" transform="translate(-388.09 -261.19)"/></svg>