<svg id="Layer_1" data-name="Layer 1" xmlns="http://www.w3.org/2000/svg" viewBox="0 0 60.55 70.69"><defs><style>.cls-1{fill:#1d1d1b;}.cls-2{fill:#12100b;}.cls-3{fill:#4d4d4d;}.cls-4{fill:#333;}.cls-5{fill:#666;}.cls-6{fill:none;stroke:#1d1d1b;}.cls-7{fill:#bfbfbf;}.cls-8{fill:#f2f2f2;}</style></defs><path class="cls-1" d="M403.65,305.12a1.83,1.83,0,0,1,.16.94,4.79,4.79,0,0,0-.11,1.38c0,.72,0,1.31,0,1.48s0,.27-.12.39-.58.1-.63-.21-.18-1.19-.18-1.28-.35-.23-.35-.23-.34.66-.41.81a1.92,1.92,0,0,0,.48,1c.23.23.68.48.58.76s-.05.58-.43.68-1.25-.37-1.49-.42a3.55,3.55,0,0,1-1.15-2,11.69,11.69,0,0,1,0-1.79,5,5,0,0,1,.56-1.48c.16-.12.87-.95.87-.95l.47-1.17,1.64.32Z" transform="translate(-388.06 -261.14)"/><path class="cls-2" d="M423.37,270.75c0,4-2.41,7.15-5.48,7.11s-5.59-3.27-5.63-7.23,2.42-7.14,5.48-7.11,5.59,3.27,5.63,7.23" transform="translate(-388.06 -261.14)"/><path class="cls-2" d="M435.92,289.63s-4-5-6.12-7.46a13.61,13.61,0,0,0-2.71-2.55h0a47.39,47.39,0,0,0-5.47-2.58,5.29,5.29,0,0,1-3.73,1.61h-.05a5.63,5.63,0,0,1-4-1.91c-.52.21-1.31.52-2.2.91v0l-.33.17-1.08.49a12.39,12.39,0,0,0-2.33,1.18l-.1.06v0a3.35,3.35,0,0,0-1.24,1.74c-.65,2.14-4.16,16-6.18,23.06-.08.27,3.35,1.26,4.59,1.36l3.39-11.09c.08,3.09.19,6.82.26,9.51l-.23,0s-.21-.15-.21.07a4.48,4.48,0,0,1,0,.93,6.41,6.41,0,0,0-.22,1.09c0,.35-.21,1.83-.29,2.18a6.69,6.69,0,0,0-.12,1.17,7,7,0,0,0,0,1.29c.06.43,1.07,10,1.07,10l20.38.3.27-.34s.33-2.49.36-3a8,8,0,0,1,.11-1.43c.11-.47.21-1.1.32-1.73a9,9,0,0,0,.28-2.23,4.1,4.1,0,0,1-.06-1.27,37.13,37.13,0,0,0,.65-4.12c.1-1.21.2-2,.23-2.55.13.17.22.14.37.19a.29.29,0,0,0,.34-.16c0-.08.17-.09.17-.09l.15.22a.53.53,0,0,0,.45.13c.18,0,.33-.27.38-.39s.09-.09.16.09.46.21.62.15.25-.31.28-.4,0-.24.11-.22.07.06.1.14a.89.89,0,0,0,.3.32c.1.07.26,0,.29-.08a2.15,2.15,0,0,1,.26-.24.67.67,0,0,0,.15-.48.63.63,0,0,1,.06-.35,1.48,1.48,0,0,0,.09-.4s-.11-1-.11-1.36,0-1.58,0-1.58l.65,0s.28-1.68.63-4.87C436.92,291.23,435.92,289.63,435.92,289.63ZM431,302.21a.13.13,0,0,1,0-.06h0A.28.28,0,0,1,431,302.21Zm1.1-2.39c-.17.13-.38.36-.63.55l-.66.57c-.15.11-.2.45-.21.61a2.2,2.2,0,0,1,0,.36c-.31,0-.72-.05-1-.05H426.1c.09-3.89.22-9.06.39-13.47,1.92,1.4,4.18,3.08,4.6,3.53.76.81.92,7.41.92,7.41l.19.05.32,0A2,2,0,0,1,432.08,299.82Z" transform="translate(-388.06 -261.14)"/><path class="cls-3" d="M417.74,307c-2.07-.07-5.3-.27-6.46-.34h0a15.38,15.38,0,0,1-3.25-.82h0l.05-.14a16.45,16.45,0,0,0,3.21.81h0c1.16.07,4.38.27,6.45.33h0l1.32,0h0a18.06,18.06,0,0,0,4.29-.43h0c1.57-.4,4-1,5-1.21h0c1.07-.2,2.69-.7,2.7-.7h0l0,.14s-1.63.5-2.71.7h0c-1.07.21-3.47.81-5,1.22h0a17.94,17.94,0,0,1-4.33.43h0l-1.32,0Z" transform="translate(-388.06 -261.14)"/><path class="cls-4" d="M407.19,310.88a7.17,7.17,0,0,0,1.89-1.39h0a4.81,4.81,0,0,0,.64-1.84h0a12.56,12.56,0,0,0,.17-1.29h0l.3,0s-.16,2.4-.88,3.3h0a7,7,0,0,1-2,1.47h0l-.13-.27Z" transform="translate(-388.06 -261.14)"/><path class="cls-4" d="M430,310a4.21,4.21,0,0,1-.33-.53h0a11.79,11.79,0,0,1-.8-1.9h0a8.18,8.18,0,0,0-.83-1.89h0l-.05-.07h0l.22-.2a6.56,6.56,0,0,1,.94,2.06h0a13,13,0,0,0,.74,1.77h0a2.6,2.6,0,0,0,.46.71h0l0,.07V310l0,.3h0c-.18,0-.21-.12-.31-.25Zm-2-4.39Z" transform="translate(-388.06 -261.14)"/><path class="cls-5" d="M430,301.86s1.31.07,1,.28-2.44,1.08-3.28,1.37a12,12,0,0,1-1.6.43l.07-2.07Z" transform="translate(-388.06 -261.14)"/><path d="M435.24,300.06l-2.81-.52a2.57,2.57,0,0,1-.35.29c-.16.13-.38.35-.62.55l-.67.56a1.05,1.05,0,0,0-.21.62,1.22,1.22,0,0,1-.08.47c-.06.15-.07.18.06.2a.45.45,0,0,0,.28,0l.18,0a.44.44,0,0,1-.06.1,1.21,1.21,0,0,0-.07.2s0,.84,0,.87a.86.86,0,0,0-.08.47c0,.28.12.36.27.6s.25.2.42.25a.27.27,0,0,0,.33-.15c0-.08.17-.09.17-.09l.15.22a.53.53,0,0,0,.46.12c.18,0,.32-.27.38-.38s.09-.1.16.09.46.21.61.15.25-.32.28-.41,0-.23.11-.21.07,0,.1.13a1.12,1.12,0,0,0,.3.33c.11.07.26,0,.3-.08a1.16,1.16,0,0,1,.25-.24.68.68,0,0,0,.15-.49.52.52,0,0,1,.07-.34,2,2,0,0,0,.08-.41s-.11-1-.11-1.35S435.25,300.36,435.24,300.06Z" transform="translate(-388.06 -261.14)"/><rect class="cls-6" x="0.5" y="0.5" width="59.42" height="59.42"/><rect class="cls-7" x="0.23" y="60.26" width="60.01" height="10.4"/><rect class="cls-8" x="49.87" y="60.29" width="10.67" height="10.4"/><path d="M443,324.86h0l-1.26.6-.26-1.16,1.77-.82h1.27v6.62H443Z" transform="translate(-388.06 -261.14)"/></svg>