<svg id="Layer_1" data-name="Layer 1" xmlns="http://www.w3.org/2000/svg" viewBox="0 0 60.46 70.66"><defs><style>.cls-1{fill:#12100b;}.cls-2{fill:#1a1a1a;}.cls-3{fill:#4d4d4d;}.cls-4{fill:#333;}.cls-5{fill:#666;}.cls-6{fill:none;stroke:#1d1d1b;}.cls-7{fill:#bfbfbf;}.cls-8{fill:#f2f2f2;}</style></defs><path class="cls-1" d="M421.46,270.79c0,3.9-2.37,7-5.39,7s-5.49-3.22-5.53-7.12,2.37-7,5.39-7,5.5,3.22,5.53,7.11" transform="translate(-388.1 -261.15)"/><path class="cls-2" d="M408.56,303.35" transform="translate(-388.1 -261.15)"/><path class="cls-1" d="M438.66,289.36s-11.1-10.14-11.91-10.55a14.12,14.12,0,0,0-6.88-1.73v0l-.11-.05a5.24,5.24,0,0,1-3.67,1.59h0a5.54,5.54,0,0,1-4-1.88c-.51.2-1.29.51-2.17.89,0,0,0,0,0,0l-.32.16c-.35.15-.71.32-1.07.49a12.25,12.25,0,0,0-2.29,1.15l-.09.06v0a3.24,3.24,0,0,0-1.22,1.71c-.65,2.1-4.1,15.78-6.08,22.68,0,.08.23.21.63.37a3.62,3.62,0,0,1-.43.44,5,5,0,0,0-.55,1.46,11.55,11.55,0,0,0,0,1.77,3.38,3.38,0,0,0,1.13,2c.23.05,1.07.51,1.45.41s.32-.38.43-.66-.35-.52-.57-.75a2,2,0,0,1-.47-1c.07-.15.4-.8.4-.8s.35.15.35.23.11.95.17,1.25.46.33.62.21.13-.21.12-.38,0-.75,0-1.46a4.67,4.67,0,0,1,.11-1.36,1.08,1.08,0,0,0,0-.56,9,9,0,0,0,1.17.19l3.34-10.9c.08,3,.18,6.71.25,9.35l-.3,0s-.25-.14-.25.08a3.17,3.17,0,0,1-.05.9,5.78,5.78,0,0,0-.27,1.08c0,.35-.24,1.8-.34,2.14a5.72,5.72,0,0,0-.15,1.15,6.09,6.09,0,0,0,0,1.28c.08.42,1,10.34,1,10.34l24.87.17.25-.75s.4-2.46.43-3a6.32,6.32,0,0,1,.13-1.41c.13-.46.26-1.08.39-1.7a7.16,7.16,0,0,0,.33-2.19c-.16-.2-.07-1.24-.07-1.24a30.82,30.82,0,0,0,.79-4.06c.12-1.22.23-2,.28-2.55.1.11.18.09.32.13a.26.26,0,0,0,.32-.15c0-.08.17-.09.17-.09l.16.22a.51.51,0,0,0,.44.12c.18,0,.32-.26.37-.38s.09-.09.16.09.46.21.61.15.25-.31.27-.4,0-.23.11-.22.07.06.1.14a1,1,0,0,0,.29.32c.11.07.26,0,.29-.08a1.44,1.44,0,0,1,.25-.23.69.69,0,0,0,.15-.48.51.51,0,0,1,.07-.34,1.82,1.82,0,0,0,.08-.4s-.11-1-.11-1.33,0-1.56,0-1.56l.64,0s.27-1.65.61-4.79C439.65,290.93,438.66,289.36,438.66,289.36Zm-4.86,12.37v-.05h0Zm1.08-2.34c-.16.12-.37.34-.61.54s-.52.43-.66.55a1,1,0,0,0-.2.6,1.38,1.38,0,0,1-.08.45c-.36,0-.9,0-1.19,0l-6.71,0-1.26.15c.1-4.52.26-10.88.47-15.66,2.23,1.27,8.65,5,9.27,5.63s.91,7.29.91,7.29l.18,0,.32,0A2.32,2.32,0,0,1,434.88,299.39Z" transform="translate(-388.1 -261.15)"/><path class="cls-3" d="M418,306.92c-2.48-.1-6.35-.4-7.73-.5h0a15.88,15.88,0,0,1-3.9-1.2h0l.07-.13a16.18,16.18,0,0,0,3.84,1.18h0c1.38.1,5.25.4,7.73.5h0c.53,0,1,0,1.58,0h0a17.25,17.25,0,0,0,5.13-.63h0c1.88-.59,4.76-1.48,6.05-1.78h0c1.28-.3,3.22-1,3.23-1h0l0,.14a30.5,30.5,0,0,1-3.25,1h0c-1.28.3-4.15,1.19-6,1.79h0a17.57,17.57,0,0,1-5.17.63h0l-1.59,0Z" transform="translate(-388.1 -261.15)"/><path class="cls-4" d="M405.74,312a9.52,9.52,0,0,0,.86-.53h0a6.62,6.62,0,0,0,1.47-1.29h0a6.36,6.36,0,0,0,.8-2.4h0c.15-.9.21-1.68.21-1.68h0l.29,0s-.2,3.12-1.07,4.25h0a8.81,8.81,0,0,1-2.43,1.9h0l-.13-.27Z" transform="translate(-388.1 -261.15)"/><path class="cls-4" d="M432.54,310.45a6.83,6.83,0,0,1-.4-.69h0a17.39,17.39,0,0,1-1-2.45h0a11.13,11.13,0,0,0-1-2.46h0l-.06-.09h0l.22-.2a8.88,8.88,0,0,1,1.14,2.66h0a18.65,18.65,0,0,0,.91,2.3h0a2.94,2.94,0,0,0,.59.93h0l0,.06v-.06l.05.29h0c-.19,0-.23-.14-.36-.3Z" transform="translate(-388.1 -261.15)"/><path class="cls-5" d="M432.7,301.49s1.52,0,1.08.15-3,.72-3.93,1-2.18.39-2.45.47-3.22.65-3.22.65v-2.32Z" transform="translate(-388.1 -261.15)"/><path d="M438,299.63l-2.76-.51a3.3,3.3,0,0,1-.35.28c-.16.12-.37.35-.61.54l-.66.55a1,1,0,0,0-.2.61,1.45,1.45,0,0,1-.08.47c-.07.14-.07.17.05.19a.45.45,0,0,0,.28,0l.17,0a.26.26,0,0,1,0,.1.69.69,0,0,0-.07.2s0,.83,0,.85a.87.87,0,0,0-.08.46c0,.29.12.36.27.6s.24.19.41.25a.26.26,0,0,0,.32-.16c0-.08.17-.08.17-.08l.15.21a.53.53,0,0,0,.45.13c.18,0,.32-.27.37-.39s.09-.08.16.09.45.22.61.15.24-.31.27-.4,0-.23.11-.21.07,0,.1.13a.85.85,0,0,0,.29.32.24.24,0,0,0,.29-.08,3.22,3.22,0,0,1,.25-.23.65.65,0,0,0,.15-.48.48.48,0,0,1,.07-.33,1.93,1.93,0,0,0,.08-.4s-.11-1-.11-1.34S438,299.92,438,299.63Z" transform="translate(-388.1 -261.15)"/><rect class="cls-6" x="0.5" y="0.5" width="59.42" height="59.42"/><rect class="cls-7" x="0.23" y="60.26" width="60.01" height="10.4"/><rect class="cls-8" x="49.79" y="60.26" width="10.67" height="10.4"/><path d="M441,330.08v-.93l.85-.77c1.46-1.3,2.16-2,2.17-2.82,0-.53-.32-1-1.08-1a2.45,2.45,0,0,0-1.42.54l-.43-1.1a3.57,3.57,0,0,1,2.15-.68,2,2,0,0,1,2.32,2.06,4.05,4.05,0,0,1-1.76,2.86l-.61.51v0h2.51v1.27Z" transform="translate(-388.1 -261.15)"/></svg>