<svg id="Layer_1" data-name="Layer 1" xmlns="http://www.w3.org/2000/svg" viewBox="0 0 60.42 70.66"><defs><style>.cls-1{fill:#12100b;}.cls-2{fill:#333;}.cls-3{fill:#4d4d4d;}.cls-4{fill:none;stroke:#1d1d1b;}.cls-5{fill:#bfbfbf;}.cls-6{fill:#f2f2f2;}</style></defs><path class="cls-1" d="M423.49,270.49c0,4-2.41,7.14-5.48,7.11s-5.59-3.28-5.63-7.23,2.42-7.15,5.49-7.11,5.58,3.27,5.62,7.23" transform="translate(-388.17 -261.15)"/><path class="cls-1" d="M438.53,308.64c-2.19-7.63-7-23.19-7.83-25.49-1.08-3.14-8.58-5.95-8.58-5.95h-.64a5.52,5.52,0,0,1-3.43,1.22H418a5.89,5.89,0,0,1-3.79-1.53c-1.51.58-7.5,3.05-8.44,5.8-.79,2.3-5.43,17.89-7.63,25.52,0,.11.36.24.93.37a1.3,1.3,0,0,1-.22.21,5.18,5.18,0,0,0-.54,1.43,11,11,0,0,0,0,1.73,3.33,3.33,0,0,0,1.11,2c.23.05,1,.5,1.43.4s.31-.37.41-.65-.34-.51-.55-.73-.53-.85-.46-1,.39-.79.39-.79.35.15.34.23.11.93.17,1.23.45.32.61.2.12-.21.11-.38,0-.73,0-1.42a4.64,4.64,0,0,1,.1-1.34,1.18,1.18,0,0,0-.06-.64l.59,0,6.52-14.6.19,10.05a11.7,11.7,0,0,0-.24,1.33c0,.33,0,.64,0,.93a2.45,2.45,0,0,0,.09.95,1.22,1.22,0,0,1,.19.38.54.54,0,0,1-.15.61,2.53,2.53,0,0,0-.36,1.08,3.27,3.27,0,0,1-.16.94c-.15.38-.2,3.56-.5,5.64s.28,4.23-.5,4.34c-.15,0,21.41.12,21.41.12a33,33,0,0,0-.08-3.56c-.15-1.72-.1-4.73-.36-5.37a13.26,13.26,0,0,1-.32-2.11c-.11-.41-.38-1.17-.38-1.31s0-.56,0-.68v-.11s.06-.52.06-.73a4,4,0,0,0-.15-1.13,5.5,5.5,0,0,1-.09-1.59l-.07,0,.07-9.9,6.57,15.18.22,0a.57.57,0,0,0,0,.26,5,5,0,0,1,.1,1.34c0,.69,0,1.26,0,1.43s-.05.26.11.37.56.1.61-.2.17-1.15.17-1.23.34-.22.34-.22.33.63.39.78a1.85,1.85,0,0,1-.46,1c-.22.22-.66.46-.56.73s.05.56.42.65,1.2-.35,1.43-.4a3.38,3.38,0,0,0,1.11-2,12.43,12.43,0,0,0,0-1.73,6,6,0,0,0-.46-1.3C438.18,308.88,438.56,308.75,438.53,308.64Z" transform="translate(-388.17 -261.15)"/><path class="cls-2" d="M408.06,314.74a10.32,10.32,0,0,0,.91-.67h0a5.51,5.51,0,0,0,1.37-1.52h0a9.52,9.52,0,0,0,.73-3.89h0v-.18h.3v.19h0a9.73,9.73,0,0,1-.76,4h0a7.86,7.86,0,0,1-2.39,2.3h0l-.16-.25Z" transform="translate(-388.17 -261.15)"/><path class="cls-2" d="M425.84,313a10,10,0,0,1-.85-4.32h0v-.2h.31a1.49,1.49,0,0,0,0,.19h0a9.82,9.82,0,0,0,.82,4.17h0a4,4,0,0,0,1.67,1.39h0a7.26,7.26,0,0,0,1.17.49h0l-.09.29s-2.24-.66-3-2Z" transform="translate(-388.17 -261.15)"/><path class="cls-3" d="M409.06,308l0-.14a50.17,50.17,0,0,0,9.3.83h0a44.31,44.31,0,0,0,9.47-1h0l0,.14a44,44,0,0,1-9.5,1h0a49.26,49.26,0,0,1-9.33-.84Zm0,0Z" transform="translate(-388.17 -261.15)"/><rect class="cls-4" x="0.5" y="0.5" width="59.42" height="59.42"/><rect class="cls-5" x="0.2" y="60.26" width="60.01" height="10.4"/><rect class="cls-6" x="49.66" y="60.26" width="10.67" height="10.4"/><path d="M445.83,326.75c0,2-.83,3.45-2.51,3.45s-2.46-1.54-2.47-3.41.8-3.43,2.51-3.43S445.83,324.93,445.83,326.75Zm-3.43,0c0,1.51.36,2.24,1,2.24s.93-.76.93-2.26-.32-2.24-.94-2.24S442.4,325.24,442.4,326.79Z" transform="translate(-388.17 -261.15)"/></svg>